# MagicaVoxel @ Ephtracy

# group
o 

# material
mtllib Rock_1.mtl
usemtl palette

# normals
vn -1 0 0
vn 1 0 0
vn 0 0 1
vn 0 0 -1
vn 0 -1 0
vn 0 1 0

# texcoords
vt 0.849609 0.5
vt 0.853516 0.5

# verts
v -0.4 -0.1 0.3
v -0.4 -0.1 -0.2
v -0.4 0.1 0.3
v -0.4 0.1 -0.2
v -0.2 -0.1 -0.2
v -0.2 -0.1 -0.4
v -0.2 0.1 0
v -0.2 0.1 -0.2
v -0.2 0.2 0
v -0.2 0.2 -0.4
v 0.2 -0.1 0.3
v 0.2 -0.1 0.1
v 0.2 0 0.3
v 0.2 0 0.1
v 0 -0.1 0.3
v 0 -0.1 0
v 0 0.1 0.3
v 0 0.1 0
v 0.2 -0.1 0
v 0.2 -0.1 -0.4
v 0.2 0.2 0
v 0.2 0.2 -0.4
v 0.4 -0.1 0.3
v 0.4 -0.1 0.1
v 0.4 0 0.3
v 0.4 0 0.1
v -0.4 -0.1 0.3
v -0.4 0.1 0.3
v 0 -0.1 0.3
v 0 0.1 0.3
v 0.2 -0.1 0.3
v 0.2 0 0.3
v 0.4 -0.1 0.3
v 0.4 0 0.3
v -0.2 0.1 0
v -0.2 0.2 0
v 0 -0.1 0
v 0 0.1 0
v 0.2 -0.1 0
v 0.2 0.2 0
v 0.2 -0.1 0.1
v 0.2 0 0.1
v 0.4 -0.1 0.1
v 0.4 0 0.1
v -0.4 -0.1 -0.2
v -0.4 0.1 -0.2
v -0.2 -0.1 -0.2
v -0.2 0.1 -0.2
v -0.2 -0.1 -0.4
v -0.2 0.2 -0.4
v 0.2 -0.1 -0.4
v 0.2 0.2 -0.4
v -0.4 -0.1 0.3
v 0 -0.1 0.3
v 0.2 -0.1 0.3
v 0.4 -0.1 0.3
v 0.2 -0.1 0.1
v 0.4 -0.1 0.1
v 0 -0.1 0
v 0.2 -0.1 0
v -0.4 -0.1 -0.2
v -0.2 -0.1 -0.2
v 0 -0.1 -0.2
v -0.2 -0.1 -0.4
v 0.2 -0.1 -0.4
v 0.2 0 0.3
v 0.4 0 0.3
v 0.2 0 0.1
v 0.4 0 0.1
v -0.4 0.1 0.3
v 0 0.1 0.3
v -0.2 0.1 0
v 0 0.1 0
v -0.4 0.1 -0.2
v -0.2 0.1 -0.2
v -0.2 0.2 0
v 0.2 0.2 0
v -0.2 0.2 -0.4
v 0.2 0.2 -0.4

# faces
f 3/2/1 2/2/1 1/2/1
f 4/2/1 2/2/1 3/2/1
f 8/1/1 6/1/1 5/1/1
f 9/1/1 8/1/1 7/1/1
f 10/1/1 6/1/1 8/1/1
f 10/1/1 8/1/1 9/1/1
f 13/1/1 12/1/1 11/1/1
f 14/1/1 12/1/1 13/1/1
f 15/2/2 16/2/2 17/2/2
f 17/2/2 16/2/2 18/2/2
f 19/1/2 20/1/2 21/1/2
f 21/1/2 20/1/2 22/1/2
f 23/1/2 24/1/2 25/1/2
f 25/1/2 24/1/2 26/1/2
f 29/2/3 28/2/3 27/2/3
f 30/2/3 28/2/3 29/2/3
f 33/1/3 32/1/3 31/1/3
f 34/1/3 32/1/3 33/1/3
f 38/1/3 36/1/3 35/1/3
f 39/1/3 38/1/3 37/1/3
f 40/1/3 36/1/3 38/1/3
f 40/1/3 38/1/3 39/1/3
f 41/1/4 42/1/4 43/1/4
f 43/1/4 42/1/4 44/1/4
f 45/2/4 46/2/4 47/2/4
f 47/2/4 46/2/4 48/2/4
f 49/1/4 50/1/4 51/1/4
f 51/1/4 50/1/4 52/1/4
f 57/1/5 56/1/5 55/1/5
f 58/1/5 56/1/5 57/1/5
f 59/2/5 54/2/5 53/2/5
f 61/2/5 59/2/5 53/2/5
f 62/2/5 59/2/5 61/2/5
f 63/1/5 60/1/5 59/1/5
f 63/2/5 59/2/5 62/2/5
f 64/1/5 63/1/5 62/1/5
f 65/1/5 60/1/5 63/1/5
f 65/1/5 63/1/5 64/1/5
f 66/1/6 67/1/6 68/1/6
f 68/1/6 67/1/6 69/1/6
f 70/2/6 71/2/6 72/2/6
f 72/2/6 71/2/6 73/2/6
f 70/2/6 72/2/6 74/2/6
f 74/2/6 72/2/6 75/2/6
f 76/1/6 77/1/6 78/1/6
f 78/1/6 77/1/6 79/1/6
