# MagicaVoxel @ Ephtracy

# group
o 

# material
mtllib fungus_5.mtl
usemtl palette

# normals
vn -1 0 0
vn 1 0 0
vn 0 0 1
vn 0 0 -1
vn 0 -1 0
vn 0 1 0

# texcoords
vt 0.814453 0.5
vt 0.818359 0.5
vt 0.845703 0.5
vt 0.849609 0.5

# verts
v -0.4 0.3 0.1
v -0.4 0.3 -0.1
v -0.4 0.4 0.1
v -0.4 0.4 -0.1
v -0.3 0.1 0.1
v -0.3 0.1 -0.1
v -0.3 0.2 0.1
v -0.3 0.2 -0.1
v -0.3 0.3 0.2
v -0.3 0.3 0.1
v -0.3 0.3 -0.1
v -0.3 0.3 -0.2
v -0.3 0.4 0.2
v -0.3 0.4 0.1
v -0.3 0.4 -0.1
v -0.3 0.4 -0.2
v -0.2 -0.4 0
v -0.2 -0.4 -0.1
v -0.2 -0.3 0
v -0.2 -0.3 -0.1
v -0.2 0 0.1
v -0.2 0 -0.1
v -0.2 0.1 0.2
v -0.2 0.1 0.1
v -0.2 0.1 -0.1
v -0.2 0.1 -0.2
v -0.2 0.2 0.2
v -0.2 0.2 0.1
v -0.2 0.2 -0.1
v -0.2 0.2 -0.2
v -0.2 0.3 0.3
v -0.2 0.3 0.2
v -0.2 0.3 0.1
v -0.2 0.3 -0.1
v -0.2 0.3 -0.2
v -0.2 0.3 -0.3
v -0.2 0.4 0.3
v -0.2 0.4 0.2
v -0.2 0.4 -0.2
v -0.2 0.4 -0.3
v -0.1 -0.4 0.1
v -0.1 -0.4 0
v -0.1 -0.3 0
v -0.1 -0.3 -0.1
v -0.1 -0.2 0.1
v -0.1 -0.2 0
v -0.1 -0.1 0.1
v -0.1 -0.1 0
v -0.1 0 0.2
v -0.1 0 0.1
v -0.1 0 -0.1
v -0.1 0 -0.2
v -0.1 0.1 0.3
v -0.1 0.1 0.2
v -0.1 0.1 0.1
v -0.1 0.1 -0.1
v -0.1 0.1 -0.2
v -0.1 0.1 -0.3
v -0.1 0.2 0.3
v -0.1 0.2 0.2
v -0.1 0.2 -0.2
v -0.1 0.2 -0.3
v -0.1 0.3 0.4
v -0.1 0.3 0.3
v -0.1 0.3 0.2
v -0.1 0.3 -0.2
v -0.1 0.3 -0.3
v -0.1 0.3 -0.4
v -0.1 0.4 0.4
v -0.1 0.4 0.3
v -0.1 0.4 -0.3
v -0.1 0.4 -0.4
v 0.1 0 0.1
v 0.1 0 -0.1
v 0.1 0.1 0.2
v 0.1 0.1 0.1
v 0.1 0.1 -0.1
v 0.1 0.1 -0.2
v 0.1 0.2 0.2
v 0.1 0.2 0.1
v 0.1 0.2 -0.1
v 0.1 0.2 -0.2
v 0.1 0.3 0.3
v 0.1 0.3 0.2
v 0.1 0.3 0.1
v 0.1 0.3 -0.1
v 0.1 0.3 -0.2
v 0.1 0.3 -0.3
v 0.1 0.4 0.3
v 0.1 0.4 0.2
v 0.1 0.4 -0.2
v 0.1 0.4 -0.3
v 0.2 0.1 0.1
v 0.2 0.1 0
v 0.2 0.1 -0.1
v 0.2 0.2 0.1
v 0.2 0.2 0
v 0.2 0.2 -0.1
v 0.2 0.3 0.2
v 0.2 0.3 0.1
v 0.2 0.3 -0.1
v 0.2 0.3 -0.2
v 0.2 0.4 0.2
v 0.2 0.4 0.1
v 0.2 0.4 -0.1
v 0.2 0.4 -0.2
v 0.3 0.3 0.1
v 0.3 0.3 -0.1
v 0.3 0.4 0.1
v 0.3 0.4 -0.1
v -0.3 0.3 0.1
v -0.3 0.3 -0.1
v -0.3 0.4 0.1
v -0.3 0.4 -0.1
v -0.2 0.1 0.1
v -0.2 0.1 -0.1
v -0.2 0.2 0.1
v -0.2 0.2 -0.1
v -0.2 0.3 0.2
v -0.2 0.3 0.1
v -0.2 0.3 -0.1
v -0.2 0.3 -0.2
v -0.2 0.4 0.2
v -0.2 0.4 0.1
v -0.2 0.4 -0.1
v -0.2 0.4 -0.2
v -0.1 0 0.1
v -0.1 0 0
v -0.1 0.1 0.2
v -0.1 0.1 0.1
v -0.1 0.1 0
v -0.1 0.1 -0.1
v -0.1 0.1 -0.2
v -0.1 0.2 0.2
v -0.1 0.2 0.1
v -0.1 0.2 -0.1
v -0.1 0.2 -0.2
v -0.1 0.3 0.3
v -0.1 0.3 0.2
v -0.1 0.3 0.1
v -0.1 0.3 -0.1
v -0.1 0.3 -0.2
v -0.1 0.3 -0.3
v -0.1 0.4 0.3
v -0.1 0.4 0.2
v -0.1 0.4 -0.2
v -0.1 0.4 -0.3
v 0 0 0
v 0 0 -0.1
v 0 0.1 0
v 0 0.1 -0.1
v 0.1 -0.4 0.1
v 0.1 -0.4 0
v 0.1 -0.4 -0.1
v 0.1 -0.3 0.1
v 0.1 -0.3 0
v 0.1 -0.2 0
v 0.1 -0.2 -0.1
v 0.1 -0.1 0.1
v 0.1 -0.1 0
v 0.1 -0.1 -0.1
v 0.1 0 0.2
v 0.1 0 0.1
v 0.1 0 -0.1
v 0.1 0 -0.2
v 0.1 0.1 0.3
v 0.1 0.1 0.2
v 0.1 0.1 0.1
v 0.1 0.1 -0.1
v 0.1 0.1 -0.2
v 0.1 0.1 -0.3
v 0.1 0.2 0.3
v 0.1 0.2 0.2
v 0.1 0.2 -0.2
v 0.1 0.2 -0.3
v 0.1 0.3 0.4
v 0.1 0.3 0.3
v 0.1 0.3 0.2
v 0.1 0.3 -0.2
v 0.1 0.3 -0.3
v 0.1 0.3 -0.4
v 0.1 0.4 0.4
v 0.1 0.4 0.3
v 0.1 0.4 -0.3
v 0.1 0.4 -0.4
v 0.2 0 0.1
v 0.2 0 -0.1
v 0.2 0.1 0.2
v 0.2 0.1 0.1
v 0.2 0.1 0
v 0.2 0.1 -0.1
v 0.2 0.1 -0.2
v 0.2 0.2 0.2
v 0.2 0.2 0.1
v 0.2 0.2 -0.1
v 0.2 0.2 -0.2
v 0.2 0.3 0.3
v 0.2 0.3 0.2
v 0.2 0.3 0.1
v 0.2 0.3 -0.1
v 0.2 0.3 -0.2
v 0.2 0.3 -0.3
v 0.2 0.4 0.3
v 0.2 0.4 0.2
v 0.2 0.4 -0.2
v 0.2 0.4 -0.3
v 0.3 0.1 0.1
v 0.3 0.1 0
v 0.3 0.1 -0.1
v 0.3 0.2 0.1
v 0.3 0.2 0
v 0.3 0.2 -0.1
v 0.3 0.3 0.2
v 0.3 0.3 0.1
v 0.3 0.3 -0.1
v 0.3 0.3 -0.2
v 0.3 0.4 0.2
v 0.3 0.4 0.1
v 0.3 0.4 -0.1
v 0.3 0.4 -0.2
v 0.4 0.3 0.1
v 0.4 0.3 -0.1
v 0.4 0.4 0.1
v 0.4 0.4 -0.1
v -0.1 0.3 0.4
v -0.1 0.4 0.4
v 0.1 0.3 0.4
v 0.1 0.4 0.4
v -0.2 0.3 0.3
v -0.2 0.4 0.3
v -0.1 0.1 0.3
v -0.1 0.2 0.3
v -0.1 0.3 0.3
v -0.1 0.4 0.3
v 0 0.1 0.3
v 0 0.2 0.3
v 0.1 0.1 0.3
v 0.1 0.2 0.3
v 0.1 0.3 0.3
v 0.1 0.4 0.3
v 0.2 0.3 0.3
v 0.2 0.4 0.3
v -0.3 0.3 0.2
v -0.3 0.4 0.2
v -0.2 0.1 0.2
v -0.2 0.2 0.2
v -0.2 0.3 0.2
v -0.2 0.4 0.2
v -0.1 0 0.2
v -0.1 0.1 0.2
v -0.1 0.2 0.2
v -0.1 0.3 0.2
v 0 0.1 0.2
v 0.1 0 0.2
v 0.1 0.1 0.2
v 0.1 0.2 0.2
v 0.1 0.3 0.2
v 0.2 0.1 0.2
v 0.2 0.2 0.2
v 0.2 0.3 0.2
v 0.2 0.4 0.2
v 0.3 0.3 0.2
v 0.3 0.4 0.2
v -0.4 0.3 0.1
v -0.4 0.4 0.1
v -0.3 0.1 0.1
v -0.3 0.2 0.1
v -0.3 0.3 0.1
v -0.3 0.4 0.1
v -0.2 0 0.1
v -0.2 0.1 0.1
v -0.2 0.2 0.1
v -0.2 0.3 0.1
v -0.1 -0.4 0.1
v -0.1 -0.2 0.1
v -0.1 -0.1 0.1
v -0.1 0 0.1
v -0.1 0.1 0.1
v 0 -0.4 0.1
v 0 -0.3 0.1
v 0 -0.2 0.1
v 0.1 -0.4 0.1
v 0.1 -0.3 0.1
v 0.1 -0.1 0.1
v 0.1 0 0.1
v 0.1 0.1 0.1
v 0.2 0 0.1
v 0.2 0.1 0.1
v 0.2 0.2 0.1
v 0.2 0.3 0.1
v 0.3 0.1 0.1
v 0.3 0.2 0.1
v 0.3 0.3 0.1
v 0.3 0.4 0.1
v 0.4 0.3 0.1
v 0.4 0.4 0.1
v -0.2 -0.4 0
v -0.2 -0.3 0
v -0.1 -0.4 0
v -0.1 -0.3 0
v -0.1 0 0
v -0.1 0.1 0
v 0 0 0
v 0 0.1 0
v -0.3 0.3 -0.1
v -0.3 0.4 -0.1
v -0.2 0.1 -0.1
v -0.2 0.2 -0.1
v -0.2 0.3 -0.1
v -0.2 0.4 -0.1
v -0.1 0.1 -0.1
v -0.1 0.2 -0.1
v -0.1 0.3 -0.1
v 0 0 -0.1
v 0 0.1 -0.1
v 0.1 0 -0.1
v 0.1 0.1 -0.1
v 0.1 0.2 -0.1
v 0.1 0.3 -0.1
v 0.2 0.1 -0.1
v 0.2 0.2 -0.1
v 0.2 0.3 -0.1
v 0.2 0.4 -0.1
v 0.3 0.3 -0.1
v 0.3 0.4 -0.1
v -0.2 0.3 -0.2
v -0.2 0.4 -0.2
v -0.1 0.1 -0.2
v -0.1 0.2 -0.2
v -0.1 0.3 -0.2
v -0.1 0.4 -0.2
v 0 0.1 -0.2
v 0 0.2 -0.2
v 0.1 0.1 -0.2
v 0.1 0.2 -0.2
v 0.1 0.3 -0.2
v 0.1 0.4 -0.2
v 0.2 0.3 -0.2
v 0.2 0.4 -0.2
v -0.1 0.3 -0.3
v -0.1 0.4 -0.3
v 0.1 0.3 -0.3
v 0.1 0.4 -0.3
v -0.1 0.3 0.3
v -0.1 0.4 0.3
v 0.1 0.3 0.3
v 0.1 0.4 0.3
v -0.2 0.3 0.2
v -0.2 0.4 0.2
v -0.1 0.1 0.2
v -0.1 0.2 0.2
v -0.1 0.3 0.2
v -0.1 0.4 0.2
v 0 0.1 0.2
v 0 0.2 0.2
v 0.1 0.1 0.2
v 0.1 0.2 0.2
v 0.1 0.3 0.2
v 0.1 0.4 0.2
v 0.2 0.3 0.2
v 0.2 0.4 0.2
v -0.3 0.3 0.1
v -0.3 0.4 0.1
v -0.2 0.1 0.1
v -0.2 0.2 0.1
v -0.2 0.3 0.1
v -0.2 0.4 0.1
v -0.1 0 0.1
v -0.1 0.1 0.1
v -0.1 0.2 0.1
v -0.1 0.3 0.1
v 0.1 0 0.1
v 0.1 0.1 0.1
v 0.1 0.2 0.1
v 0.1 0.3 0.1
v 0.2 0.1 0.1
v 0.2 0.2 0.1
v 0.2 0.3 0.1
v 0.2 0.4 0.1
v 0.3 0.3 0.1
v 0.3 0.4 0.1
v -0.4 0.3 -0.1
v -0.4 0.4 -0.1
v -0.3 0.1 -0.1
v -0.3 0.2 -0.1
v -0.3 0.3 -0.1
v -0.3 0.4 -0.1
v -0.2 -0.4 -0.1
v -0.2 -0.3 -0.1
v -0.2 0 -0.1
v -0.2 0.1 -0.1
v -0.2 0.2 -0.1
v -0.2 0.3 -0.1
v -0.1 -0.3 -0.1
v -0.1 0 -0.1
v -0.1 0.1 -0.1
v 0 -0.2 -0.1
v 0 -0.1 -0.1
v 0.1 -0.4 -0.1
v 0.1 -0.2 -0.1
v 0.1 -0.1 -0.1
v 0.1 0 -0.1
v 0.1 0.1 -0.1
v 0.2 0 -0.1
v 0.2 0.1 -0.1
v 0.2 0.2 -0.1
v 0.2 0.3 -0.1
v 0.3 0.1 -0.1
v 0.3 0.2 -0.1
v 0.3 0.3 -0.1
v 0.3 0.4 -0.1
v 0.4 0.3 -0.1
v 0.4 0.4 -0.1
v -0.3 0.3 -0.2
v -0.3 0.4 -0.2
v -0.2 0.1 -0.2
v -0.2 0.2 -0.2
v -0.2 0.3 -0.2
v -0.2 0.4 -0.2
v -0.1 0 -0.2
v -0.1 0.1 -0.2
v -0.1 0.2 -0.2
v -0.1 0.3 -0.2
v 0 0.1 -0.2
v 0.1 0 -0.2
v 0.1 0.1 -0.2
v 0.1 0.2 -0.2
v 0.1 0.3 -0.2
v 0.2 0.1 -0.2
v 0.2 0.2 -0.2
v 0.2 0.3 -0.2
v 0.2 0.4 -0.2
v 0.3 0.3 -0.2
v 0.3 0.4 -0.2
v -0.2 0.3 -0.3
v -0.2 0.4 -0.3
v -0.1 0.1 -0.3
v -0.1 0.2 -0.3
v -0.1 0.3 -0.3
v -0.1 0.4 -0.3
v 0 0.1 -0.3
v 0 0.2 -0.3
v 0.1 0.1 -0.3
v 0.1 0.2 -0.3
v 0.1 0.3 -0.3
v 0.1 0.4 -0.3
v 0.2 0.3 -0.3
v 0.2 0.4 -0.3
v -0.1 0.3 -0.4
v -0.1 0.4 -0.4
v 0.1 0.3 -0.4
v 0.1 0.4 -0.4
v -0.1 -0.4 0.1
v 0 -0.4 0.1
v 0.1 -0.4 0.1
v -0.2 -0.4 0
v -0.1 -0.4 0
v 0 -0.4 0
v 0.1 -0.4 0
v -0.2 -0.4 -0.1
v 0.1 -0.4 -0.1
v -0.1 0 0.2
v 0.1 0 0.2
v -0.2 0 0.1
v -0.1 0 0.1
v 0.1 0 0.1
v 0.2 0 0.1
v -0.2 0 -0.1
v -0.1 0 -0.1
v 0.1 0 -0.1
v 0.2 0 -0.1
v -0.1 0 -0.2
v 0.1 0 -0.2
v -0.1 0.1 0.3
v 0 0.1 0.3
v 0.1 0.1 0.3
v -0.2 0.1 0.2
v -0.1 0.1 0.2
v 0 0.1 0.2
v 0.1 0.1 0.2
v 0.2 0.1 0.2
v -0.3 0.1 0.1
v -0.2 0.1 0.1
v -0.1 0.1 0.1
v 0.1 0.1 0.1
v 0.2 0.1 0.1
v 0.3 0.1 0.1
v 0.2 0.1 0
v 0.3 0.1 0
v -0.3 0.1 -0.1
v -0.2 0.1 -0.1
v -0.1 0.1 -0.1
v 0.1 0.1 -0.1
v 0.2 0.1 -0.1
v 0.3 0.1 -0.1
v -0.2 0.1 -0.2
v -0.1 0.1 -0.2
v 0 0.1 -0.2
v 0.1 0.1 -0.2
v 0.2 0.1 -0.2
v -0.1 0.1 -0.3
v 0 0.1 -0.3
v 0.1 0.1 -0.3
v -0.1 0.3 0.4
v 0.1 0.3 0.4
v -0.2 0.3 0.3
v -0.1 0.3 0.3
v 0.1 0.3 0.3
v 0.2 0.3 0.3
v -0.3 0.3 0.2
v -0.2 0.3 0.2
v -0.1 0.3 0.2
v 0.1 0.3 0.2
v 0.2 0.3 0.2
v 0.3 0.3 0.2
v -0.4 0.3 0.1
v -0.3 0.3 0.1
v -0.2 0.3 0.1
v 0.2 0.3 0.1
v 0.3 0.3 0.1
v 0.4 0.3 0.1
v -0.4 0.3 -0.1
v -0.3 0.3 -0.1
v -0.2 0.3 -0.1
v 0.2 0.3 -0.1
v 0.3 0.3 -0.1
v 0.4 0.3 -0.1
v -0.3 0.3 -0.2
v -0.2 0.3 -0.2
v -0.1 0.3 -0.2
v 0.1 0.3 -0.2
v 0.2 0.3 -0.2
v 0.3 0.3 -0.2
v -0.2 0.3 -0.3
v -0.1 0.3 -0.3
v 0.1 0.3 -0.3
v 0.2 0.3 -0.3
v -0.1 0.3 -0.4
v 0.1 0.3 -0.4
v -0.2 -0.3 0
v -0.1 -0.3 0
v -0.2 -0.3 -0.1
v -0.1 -0.3 -0.1
v -0.1 0 0.1
v 0.1 0 0.1
v -0.1 0 0
v 0 0 0
v 0 0 -0.1
v 0.1 0 -0.1
v -0.1 0.1 0.2
v 0 0.1 0.2
v 0.1 0.1 0.2
v -0.2 0.1 0.1
v -0.1 0.1 0.1
v 0.1 0.1 0.1
v 0.2 0.1 0.1
v -0.1 0.1 0
v 0 0.1 0
v 0.2 0.1 0
v -0.2 0.1 -0.1
v -0.1 0.1 -0.1
v 0 0.1 -0.1
v 0.1 0.1 -0.1
v 0.2 0.1 -0.1
v -0.1 0.1 -0.2
v 0 0.1 -0.2
v 0.1 0.1 -0.2
v -0.1 0.3 0.3
v 0.1 0.3 0.3
v -0.2 0.3 0.2
v -0.1 0.3 0.2
v 0.1 0.3 0.2
v 0.2 0.3 0.2
v -0.3 0.3 0.1
v -0.2 0.3 0.1
v -0.1 0.3 0.1
v 0.1 0.3 0.1
v 0.2 0.3 0.1
v 0.3 0.3 0.1
v -0.3 0.3 -0.1
v -0.2 0.3 -0.1
v -0.1 0.3 -0.1
v 0.1 0.3 -0.1
v 0.2 0.3 -0.1
v 0.3 0.3 -0.1
v -0.2 0.3 -0.2
v -0.1 0.3 -0.2
v 0.1 0.3 -0.2
v 0.2 0.3 -0.2
v -0.1 0.3 -0.3
v 0.1 0.3 -0.3
v -0.1 0.4 0.4
v 0.1 0.4 0.4
v -0.2 0.4 0.3
v -0.1 0.4 0.3
v 0.1 0.4 0.3
v 0.2 0.4 0.3
v -0.3 0.4 0.2
v -0.2 0.4 0.2
v -0.1 0.4 0.2
v 0.1 0.4 0.2
v 0.2 0.4 0.2
v 0.3 0.4 0.2
v -0.4 0.4 0.1
v -0.3 0.4 0.1
v -0.2 0.4 0.1
v 0.2 0.4 0.1
v 0.3 0.4 0.1
v 0.4 0.4 0.1
v -0.4 0.4 -0.1
v -0.3 0.4 -0.1
v -0.2 0.4 -0.1
v 0.2 0.4 -0.1
v 0.3 0.4 -0.1
v 0.4 0.4 -0.1
v -0.3 0.4 -0.2
v -0.2 0.4 -0.2
v -0.1 0.4 -0.2
v 0.1 0.4 -0.2
v 0.2 0.4 -0.2
v 0.3 0.4 -0.2
v -0.2 0.4 -0.3
v -0.1 0.4 -0.3
v 0.1 0.4 -0.3
v 0.2 0.4 -0.3
v -0.1 0.4 -0.4
v 0.1 0.4 -0.4

# faces
f 3/2/1 2/2/1 1/2/1
f 4/2/1 2/2/1 3/2/1
f 7/3/1 6/3/1 5/3/1
f 8/3/1 6/3/1 7/3/1
f 10/4/1 8/4/1 7/4/1
f 11/4/1 8/4/1 10/4/1
f 13/2/1 10/2/1 9/2/1
f 14/2/1 10/2/1 13/2/1
f 15/2/1 12/2/1 11/2/1
f 16/2/1 12/2/1 15/2/1
f 19/3/1 18/3/1 17/3/1
f 20/3/1 18/3/1 19/3/1
f 24/3/1 22/3/1 21/3/1
f 25/3/1 22/3/1 24/3/1
f 27/3/1 24/3/1 23/3/1
f 28/3/1 24/3/1 27/3/1
f 29/1/1 26/1/1 25/1/1
f 30/1/1 26/1/1 29/1/1
f 32/4/1 28/4/1 27/4/1
f 33/4/1 28/4/1 32/4/1
f 34/4/1 30/4/1 29/4/1
f 35/4/1 30/4/1 34/4/1
f 37/2/1 32/2/1 31/2/1
f 38/2/1 32/2/1 37/2/1
f 39/2/1 36/2/1 35/2/1
f 40/2/1 36/2/1 39/2/1
f 43/3/1 42/3/1 41/3/1
f 45/3/1 43/3/1 41/3/1
f 45/3/1 44/3/1 43/3/1
f 46/3/1 44/3/1 45/3/1
f 47/1/1 46/1/1 45/1/1
f 48/3/1 44/3/1 46/3/1
f 48/1/1 46/1/1 47/1/1
f 50/3/1 48/3/1 47/3/1
f 51/3/1 44/3/1 48/3/1
f 51/3/1 48/3/1 50/3/1
f 54/3/1 50/3/1 49/3/1
f 55/3/1 50/3/1 54/3/1
f 56/3/1 52/3/1 51/3/1
f 57/3/1 52/3/1 56/3/1
f 59/3/1 54/3/1 53/3/1
f 60/3/1 54/3/1 59/3/1
f 61/3/1 58/3/1 57/3/1
f 62/3/1 58/3/1 61/3/1
f 64/4/1 60/4/1 59/4/1
f 65/4/1 60/4/1 64/4/1
f 66/4/1 62/4/1 61/4/1
f 67/4/1 62/4/1 66/4/1
f 69/2/1 64/2/1 63/2/1
f 70/2/1 64/2/1 69/2/1
f 71/2/1 68/2/1 67/2/1
f 72/2/1 68/2/1 71/2/1
f 76/3/1 74/3/1 73/3/1
f 77/3/1 74/3/1 76/3/1
f 79/3/1 76/3/1 75/3/1
f 80/3/1 76/3/1 79/3/1
f 81/3/1 78/3/1 77/3/1
f 82/3/1 78/3/1 81/3/1
f 84/4/1 80/4/1 79/4/1
f 85/4/1 80/4/1 84/4/1
f 86/4/1 82/4/1 81/4/1
f 87/4/1 82/4/1 86/4/1
f 89/2/1 84/2/1 83/2/1
f 90/2/1 84/2/1 89/2/1
f 91/2/1 88/2/1 87/2/1
f 92/2/1 88/2/1 91/2/1
f 96/1/1 94/1/1 93/1/1
f 97/3/1 95/3/1 94/3/1
f 97/1/1 94/1/1 96/1/1
f 98/3/1 95/3/1 97/3/1
f 100/4/1 97/4/1 96/4/1
f 100/4/1 98/4/1 97/4/1
f 101/4/1 98/4/1 100/4/1
f 103/2/1 100/2/1 99/2/1
f 104/2/1 100/2/1 103/2/1
f 105/2/1 102/2/1 101/2/1
f 106/2/1 102/2/1 105/2/1
f 109/2/1 108/2/1 107/2/1
f 110/2/1 108/2/1 109/2/1
f 111/2/2 112/2/2 113/2/2
f 113/2/2 112/2/2 114/2/2
f 115/3/2 116/3/2 117/3/2
f 117/3/2 116/3/2 118/3/2
f 117/4/2 118/4/2 120/4/2
f 120/4/2 118/4/2 121/4/2
f 119/2/2 120/2/2 123/2/2
f 123/2/2 120/2/2 124/2/2
f 121/2/2 122/2/2 125/2/2
f 125/2/2 122/2/2 126/2/2
f 127/3/2 128/3/2 130/3/2
f 130/3/2 128/3/2 131/3/2
f 129/3/2 130/3/2 134/3/2
f 134/3/2 130/3/2 135/3/2
f 132/1/2 133/1/2 136/1/2
f 136/1/2 133/1/2 137/1/2
f 134/4/2 135/4/2 139/4/2
f 139/4/2 135/4/2 140/4/2
f 136/4/2 137/4/2 141/4/2
f 141/4/2 137/4/2 142/4/2
f 138/2/2 139/2/2 144/2/2
f 144/2/2 139/2/2 145/2/2
f 142/2/2 143/2/2 146/2/2
f 146/2/2 143/2/2 147/2/2
f 148/3/2 149/3/2 150/3/2
f 150/3/2 149/3/2 151/3/2
f 152/4/2 153/4/2 155/4/2
f 153/3/2 154/3/2 156/3/2
f 155/4/2 153/4/2 156/4/2
f 155/1/2 156/1/2 157/1/2
f 156/3/2 154/3/2 157/3/2
f 157/3/2 154/3/2 158/3/2
f 155/1/2 157/1/2 159/1/2
f 157/4/2 158/4/2 160/4/2
f 159/1/2 157/1/2 160/1/2
f 160/4/2 158/4/2 161/4/2
f 159/3/2 160/3/2 163/3/2
f 160/3/2 161/3/2 163/3/2
f 163/3/2 161/3/2 164/3/2
f 162/3/2 163/3/2 167/3/2
f 167/3/2 163/3/2 168/3/2
f 164/3/2 165/3/2 169/3/2
f 169/3/2 165/3/2 170/3/2
f 166/1/2 167/1/2 172/1/2
f 172/1/2 167/1/2 173/1/2
f 170/1/2 171/1/2 174/1/2
f 174/1/2 171/1/2 175/1/2
f 172/4/2 173/4/2 177/4/2
f 177/4/2 173/4/2 178/4/2
f 174/4/2 175/4/2 179/4/2
f 179/4/2 175/4/2 180/4/2
f 176/2/2 177/2/2 182/2/2
f 182/2/2 177/2/2 183/2/2
f 180/2/2 181/2/2 184/2/2
f 184/2/2 181/2/2 185/2/2
f 186/3/2 187/3/2 189/3/2
f 189/3/2 187/3/2 190/3/2
f 190/3/2 187/3/2 191/3/2
f 188/3/2 189/3/2 193/3/2
f 193/3/2 189/3/2 194/3/2
f 191/3/2 192/3/2 195/3/2
f 195/3/2 192/3/2 196/3/2
f 193/4/2 194/4/2 198/4/2
f 198/4/2 194/4/2 199/4/2
f 195/4/2 196/4/2 200/4/2
f 200/4/2 196/4/2 201/4/2
f 197/2/2 198/2/2 203/2/2
f 203/2/2 198/2/2 204/2/2
f 201/2/2 202/2/2 205/2/2
f 205/2/2 202/2/2 206/2/2
f 207/1/2 208/1/2 210/1/2
f 208/3/2 209/3/2 211/3/2
f 210/1/2 208/1/2 211/1/2
f 211/3/2 209/3/2 212/3/2
f 210/4/2 211/4/2 214/4/2
f 211/4/2 212/4/2 214/4/2
f 214/4/2 212/4/2 215/4/2
f 213/2/2 214/2/2 217/2/2
f 217/2/2 214/2/2 218/2/2
f 215/2/2 216/2/2 219/2/2
f 219/2/2 216/2/2 220/2/2
f 221/2/2 222/2/2 223/2/2
f 223/2/2 222/2/2 224/2/2
f 227/2/3 226/2/3 225/2/3
f 228/2/3 226/2/3 227/2/3
f 233/2/3 230/2/3 229/2/3
f 234/2/3 230/2/3 233/2/3
f 235/3/3 232/3/3 231/3/3
f 236/4/3 233/4/3 232/4/3
f 236/3/3 232/3/3 235/3/3
f 237/1/3 236/1/3 235/1/3
f 238/4/3 233/4/3 236/4/3
f 238/1/3 236/1/3 237/1/3
f 239/4/3 233/4/3 238/4/3
f 241/2/3 240/2/3 239/2/3
f 242/2/3 240/2/3 241/2/3
f 247/2/3 244/2/3 243/2/3
f 248/2/3 244/2/3 247/2/3
f 250/3/3 246/3/3 245/3/3
f 251/4/3 247/4/3 246/4/3
f 251/3/3 246/3/3 250/3/3
f 252/4/3 247/4/3 251/4/3
f 253/3/3 250/3/3 249/3/3
f 254/3/3 253/3/3 249/3/3
f 255/3/3 253/3/3 254/3/3
f 258/3/3 256/3/3 255/3/3
f 259/4/3 257/4/3 256/4/3
f 259/3/3 256/3/3 258/3/3
f 260/4/3 257/4/3 259/4/3
f 262/2/3 261/2/3 260/2/3
f 263/2/3 261/2/3 262/2/3
f 268/2/3 265/2/3 264/2/3
f 269/2/3 265/2/3 268/2/3
f 271/3/3 267/3/3 266/3/3
f 272/4/3 268/4/3 267/4/3
f 272/3/3 267/3/3 271/3/3
f 273/4/3 268/4/3 272/4/3
f 277/3/3 271/3/3 270/3/3
f 278/3/3 271/3/3 277/3/3
f 279/3/3 275/3/3 274/3/3
f 280/3/3 275/3/3 279/3/3
f 281/1/3 276/1/3 275/1/3
f 281/3/3 275/3/3 280/3/3
f 282/4/3 280/4/3 279/4/3
f 283/1/3 281/1/3 280/1/3
f 283/4/3 280/4/3 282/4/3
f 284/1/3 276/1/3 281/1/3
f 284/1/3 281/1/3 283/1/3
f 284/3/3 277/3/3 276/3/3
f 285/3/3 277/3/3 284/3/3
f 287/3/3 286/3/3 285/3/3
f 288/3/3 286/3/3 287/3/3
f 291/1/3 289/1/3 288/1/3
f 292/4/3 290/4/3 289/4/3
f 292/1/3 289/1/3 291/1/3
f 293/4/3 290/4/3 292/4/3
f 295/2/3 294/2/3 293/2/3
f 296/2/3 294/2/3 295/2/3
f 299/3/3 298/3/3 297/3/3
f 300/3/3 298/3/3 299/3/3
f 303/3/3 302/3/3 301/3/3
f 304/3/3 302/3/3 303/3/3
f 309/2/3 306/2/3 305/2/3
f 310/2/3 306/2/3 309/2/3
f 311/1/3 308/1/3 307/1/3
f 312/4/3 309/4/3 308/4/3
f 312/1/3 308/1/3 311/1/3
f 313/4/3 309/4/3 312/4/3
f 316/3/3 315/3/3 314/3/3
f 317/3/3 315/3/3 316/3/3
f 320/3/3 318/3/3 317/3/3
f 321/4/3 319/4/3 318/4/3
f 321/3/3 318/3/3 320/3/3
f 322/4/3 319/4/3 321/4/3
f 324/2/3 323/2/3 322/2/3
f 325/2/3 323/2/3 324/2/3
f 330/2/3 327/2/3 326/2/3
f 331/2/3 327/2/3 330/2/3
f 332/3/3 329/3/3 328/3/3
f 333/4/3 330/4/3 329/4/3
f 333/3/3 329/3/3 332/3/3
f 334/1/3 333/1/3 332/1/3
f 335/4/3 330/4/3 333/4/3
f 335/1/3 333/1/3 334/1/3
f 336/4/3 330/4/3 335/4/3
f 338/2/3 337/2/3 336/2/3
f 339/2/3 337/2/3 338/2/3
f 342/2/3 341/2/3 340/2/3
f 343/2/3 341/2/3 342/2/3
f 344/2/4 345/2/4 346/2/4
f 346/2/4 345/2/4 347/2/4
f 348/2/4 349/2/4 352/2/4
f 352/2/4 349/2/4 353/2/4
f 350/3/4 351/3/4 354/3/4
f 351/4/4 352/4/4 355/4/4
f 354/3/4 351/3/4 355/3/4
f 354/1/4 355/1/4 356/1/4
f 355/4/4 352/4/4 357/4/4
f 356/1/4 355/1/4 357/1/4
f 357/4/4 352/4/4 358/4/4
f 358/2/4 359/2/4 360/2/4
f 360/2/4 359/2/4 361/2/4
f 362/2/4 363/2/4 366/2/4
f 366/2/4 363/2/4 367/2/4
f 364/3/4 365/3/4 369/3/4
f 365/4/4 366/4/4 370/4/4
f 369/3/4 365/3/4 370/3/4
f 370/4/4 366/4/4 371/4/4
f 368/3/4 369/3/4 372/3/4
f 372/3/4 369/3/4 373/3/4
f 373/3/4 374/3/4 376/3/4
f 374/4/4 375/4/4 377/4/4
f 376/3/4 374/3/4 377/3/4
f 377/4/4 375/4/4 378/4/4
f 378/2/4 379/2/4 380/2/4
f 380/2/4 379/2/4 381/2/4
f 382/2/4 383/2/4 386/2/4
f 386/2/4 383/2/4 387/2/4
f 384/3/4 385/3/4 391/3/4
f 385/4/4 386/4/4 392/4/4
f 391/3/4 385/3/4 392/3/4
f 392/4/4 386/4/4 393/4/4
f 388/3/4 389/3/4 394/3/4
f 390/3/4 391/3/4 395/3/4
f 395/3/4 391/3/4 396/3/4
f 394/3/4 395/3/4 397/3/4
f 397/3/4 395/3/4 398/3/4
f 388/3/4 394/3/4 399/3/4
f 394/3/4 397/3/4 399/3/4
f 397/4/4 398/4/4 400/4/4
f 399/3/4 397/3/4 400/3/4
f 398/3/4 395/3/4 401/3/4
f 400/4/4 398/4/4 401/4/4
f 401/3/4 395/3/4 402/3/4
f 402/3/4 403/3/4 404/3/4
f 404/3/4 403/3/4 405/3/4
f 405/3/4 406/3/4 408/3/4
f 406/4/4 407/4/4 409/4/4
f 408/3/4 406/3/4 409/3/4
f 409/4/4 407/4/4 410/4/4
f 410/2/4 411/2/4 412/2/4
f 412/2/4 411/2/4 413/2/4
f 414/2/4 415/2/4 418/2/4
f 418/2/4 415/2/4 419/2/4
f 416/1/4 417/1/4 421/1/4
f 417/4/4 418/4/4 422/4/4
f 421/1/4 417/1/4 422/1/4
f 422/4/4 418/4/4 423/4/4
f 420/3/4 421/3/4 424/3/4
f 420/3/4 424/3/4 425/3/4
f 425/3/4 424/3/4 426/3/4
f 426/3/4 427/3/4 429/3/4
f 427/4/4 428/4/4 430/4/4
f 429/3/4 427/3/4 430/3/4
f 430/4/4 428/4/4 431/4/4
f 431/2/4 432/2/4 433/2/4
f 433/2/4 432/2/4 434/2/4
f 435/2/4 436/2/4 439/2/4
f 439/2/4 436/2/4 440/2/4
f 437/3/4 438/3/4 441/3/4
f 438/4/4 439/4/4 442/4/4
f 441/3/4 438/3/4 442/3/4
f 441/1/4 442/1/4 443/1/4
f 442/4/4 439/4/4 444/4/4
f 443/1/4 442/1/4 444/1/4
f 444/4/4 439/4/4 445/4/4
f 445/2/4 446/2/4 447/2/4
f 447/2/4 446/2/4 448/2/4
f 449/2/4 450/2/4 451/2/4
f 451/2/4 450/2/4 452/2/4
f 457/3/5 454/3/5 453/3/5
f 458/4/5 455/4/5 454/4/5
f 458/3/5 454/3/5 457/3/5
f 459/4/5 455/4/5 458/4/5
f 460/3/5 457/3/5 456/3/5
f 460/3/5 458/3/5 457/3/5
f 460/3/5 459/3/5 458/3/5
f 461/3/5 459/3/5 460/3/5
f 465/3/5 463/3/5 462/3/5
f 466/3/5 463/3/5 465/3/5
f 468/3/5 465/3/5 464/3/5
f 469/3/5 465/3/5 468/3/5
f 470/3/5 467/3/5 466/3/5
f 471/3/5 467/3/5 470/3/5
f 472/3/5 470/3/5 469/3/5
f 473/3/5 470/3/5 472/3/5
f 478/3/5 475/3/5 474/3/5
f 479/1/5 476/1/5 475/1/5
f 479/3/5 475/3/5 478/3/5
f 480/1/5 476/1/5 479/1/5
f 483/3/5 478/3/5 477/3/5
f 484/3/5 478/3/5 483/3/5
f 485/3/5 481/3/5 480/3/5
f 486/3/5 481/3/5 485/3/5
f 488/1/5 487/1/5 486/1/5
f 489/1/5 487/1/5 488/1/5
f 490/3/5 483/3/5 482/3/5
f 491/3/5 483/3/5 490/3/5
f 494/3/5 489/3/5 488/3/5
f 495/3/5 489/3/5 494/3/5
f 496/1/5 492/1/5 491/1/5
f 497/1/5 492/1/5 496/1/5
f 499/3/5 494/3/5 493/3/5
f 500/3/5 494/3/5 499/3/5
f 501/3/5 498/3/5 497/3/5
f 502/1/5 499/1/5 498/1/5
f 502/3/5 498/3/5 501/3/5
f 503/1/5 499/1/5 502/1/5
f 507/2/5 505/2/5 504/2/5
f 508/2/5 505/2/5 507/2/5
f 511/2/5 507/2/5 506/2/5
f 512/2/5 507/2/5 511/2/5
f 513/2/5 509/2/5 508/2/5
f 514/2/5 509/2/5 513/2/5
f 517/2/5 511/2/5 510/2/5
f 518/2/5 511/2/5 517/2/5
f 519/2/5 515/2/5 514/2/5
f 520/2/5 515/2/5 519/2/5
f 522/2/5 517/2/5 516/2/5
f 523/2/5 517/2/5 522/2/5
f 526/2/5 521/2/5 520/2/5
f 527/2/5 521/2/5 526/2/5
f 528/2/5 524/2/5 523/2/5
f 529/2/5 524/2/5 528/2/5
f 532/2/5 526/2/5 525/2/5
f 533/2/5 526/2/5 532/2/5
f 534/2/5 530/2/5 529/2/5
f 535/2/5 530/2/5 534/2/5
f 536/2/5 532/2/5 531/2/5
f 537/2/5 532/2/5 536/2/5
f 538/2/5 536/2/5 535/2/5
f 539/2/5 536/2/5 538/2/5
f 540/3/6 541/3/6 542/3/6
f 542/3/6 541/3/6 543/3/6
f 544/3/6 545/3/6 546/3/6
f 546/3/6 545/3/6 547/3/6
f 547/3/6 545/3/6 548/3/6
f 548/3/6 545/3/6 549/3/6
f 550/3/6 551/3/6 554/3/6
f 551/3/6 552/3/6 554/3/6
f 554/3/6 552/3/6 555/3/6
f 553/3/6 554/3/6 557/3/6
f 555/3/6 556/3/6 559/3/6
f 557/3/6 558/3/6 560/3/6
f 553/3/6 557/3/6 560/3/6
f 560/3/6 558/3/6 561/3/6
f 561/3/6 558/3/6 562/3/6
f 555/3/6 559/3/6 563/3/6
f 563/3/6 559/3/6 564/3/6
f 561/3/6 562/3/6 565/3/6
f 562/3/6 563/3/6 565/3/6
f 565/3/6 563/3/6 566/3/6
f 566/3/6 563/3/6 567/3/6
f 568/4/6 569/4/6 571/4/6
f 571/4/6 569/4/6 572/4/6
f 570/4/6 571/4/6 575/4/6
f 575/4/6 571/4/6 576/4/6
f 572/4/6 573/4/6 577/4/6
f 577/4/6 573/4/6 578/4/6
f 574/4/6 575/4/6 580/4/6
f 580/4/6 575/4/6 581/4/6
f 578/4/6 579/4/6 584/4/6
f 584/4/6 579/4/6 585/4/6
f 581/4/6 582/4/6 586/4/6
f 586/4/6 582/4/6 587/4/6
f 583/4/6 584/4/6 588/4/6
f 588/4/6 584/4/6 589/4/6
f 587/4/6 588/4/6 590/4/6
f 590/4/6 588/4/6 591/4/6
f 592/2/6 593/2/6 595/2/6
f 595/2/6 593/2/6 596/2/6
f 594/2/6 595/2/6 599/2/6
f 599/2/6 595/2/6 600/2/6
f 596/2/6 597/2/6 601/2/6
f 601/2/6 597/2/6 602/2/6
f 598/2/6 599/2/6 605/2/6
f 605/2/6 599/2/6 606/2/6
f 602/2/6 603/2/6 607/2/6
f 607/2/6 603/2/6 608/2/6
f 604/2/6 605/2/6 610/2/6
f 610/2/6 605/2/6 611/2/6
f 608/2/6 609/2/6 614/2/6
f 614/2/6 609/2/6 615/2/6
f 611/2/6 612/2/6 616/2/6
f 616/2/6 612/2/6 617/2/6
f 613/2/6 614/2/6 620/2/6
f 620/2/6 614/2/6 621/2/6
f 617/2/6 618/2/6 622/2/6
f 622/2/6 618/2/6 623/2/6
f 619/2/6 620/2/6 624/2/6
f 624/2/6 620/2/6 625/2/6
f 623/2/6 624/2/6 626/2/6
f 626/2/6 624/2/6 627/2/6
