# MagicaVoxel @ Ephtracy

# group
o 

# material
mtllib fungus_4.mtl
usemtl palette

# normals
vn -1 0 0
vn 1 0 0
vn 0 0 1
vn 0 0 -1
vn 0 -1 0
vn 0 1 0

# texcoords
vt 0.814453 0.5
vt 0.845703 0.5
vt 0.849609 0.5

# verts
v -0.3 0.2 0.1
v -0.3 0.2 -0.1
v -0.3 0.3 0.1
v -0.3 0.3 -0.1
v -0.3 0.4 0.1
v -0.3 0.4 -0.1
v -0.2 -0.3 0
v -0.2 -0.3 -0.1
v -0.2 -0.2 0
v -0.2 -0.2 -0.1
v -0.2 0.1 0.1
v -0.2 0.1 -0.1
v -0.2 0.2 0.2
v -0.2 0.2 0.1
v -0.2 0.2 -0.1
v -0.2 0.2 -0.2
v -0.2 0.3 0.2
v -0.2 0.3 0.1
v -0.2 0.3 -0.1
v -0.2 0.3 -0.2
v -0.2 0.4 0.2
v -0.2 0.4 0.1
v -0.2 0.4 -0.1
v -0.2 0.4 -0.2
v -0.1 -0.3 0.2
v -0.1 -0.3 0.1
v -0.1 -0.3 0
v -0.1 -0.2 0.2
v -0.1 -0.2 0.1
v -0.1 -0.2 0
v -0.1 -0.2 -0.1
v -0.1 -0.1 0.1
v -0.1 -0.1 0
v -0.1 0 0.1
v -0.1 0 0
v -0.1 0.1 0.2
v -0.1 0.1 0.1
v -0.1 0.1 -0.1
v -0.1 0.1 -0.2
v -0.1 0.2 0.3
v -0.1 0.2 0.2
v -0.1 0.2 0.1
v -0.1 0.2 -0.1
v -0.1 0.2 -0.2
v -0.1 0.2 -0.3
v -0.1 0.3 0.3
v -0.1 0.3 0.2
v -0.1 0.3 -0.2
v -0.1 0.3 -0.3
v -0.1 0.4 0.3
v -0.1 0.4 0.2
v -0.1 0.4 -0.2
v -0.1 0.4 -0.3
v 0 -0.3 -0.1
v 0 -0.3 -0.2
v 0 -0.2 -0.1
v 0 -0.2 -0.2
v 0.1 0.1 0.1
v 0.1 0.1 -0.1
v 0.1 0.2 0.2
v 0.1 0.2 0.1
v 0.1 0.2 -0.1
v 0.1 0.2 -0.2
v 0.1 0.3 0.2
v 0.1 0.3 0.1
v 0.1 0.3 -0.1
v 0.1 0.3 -0.2
v 0.1 0.4 0.2
v 0.1 0.4 0.1
v 0.1 0.4 -0.1
v 0.1 0.4 -0.2
v 0.2 0.2 0.1
v 0.2 0.2 0
v 0.2 0.2 -0.1
v 0.2 0.3 0.1
v 0.2 0.3 0
v 0.2 0.3 -0.1
v 0.2 0.4 0.1
v 0.2 0.4 -0.1
v -0.2 0.2 0.1
v -0.2 0.2 -0.1
v -0.2 0.3 0.1
v -0.2 0.3 -0.1
v -0.2 0.4 0.1
v -0.2 0.4 -0.1
v -0.1 0.1 0.1
v -0.1 0.1 0
v -0.1 0.2 0.2
v -0.1 0.2 0.1
v -0.1 0.2 0
v -0.1 0.2 -0.1
v -0.1 0.2 -0.2
v -0.1 0.3 0.2
v -0.1 0.3 0.1
v -0.1 0.3 -0.1
v -0.1 0.3 -0.2
v -0.1 0.4 0.2
v -0.1 0.4 0.1
v -0.1 0.4 -0.1
v -0.1 0.4 -0.2
v 0 -0.3 0.2
v 0 -0.3 0.1
v 0 -0.2 0.2
v 0 -0.2 0.1
v 0 0.1 0
v 0 0.1 -0.1
v 0 0.2 0
v 0 0.2 -0.1
v 0.1 -0.3 0.1
v 0.1 -0.3 0
v 0.1 -0.3 -0.1
v 0.1 -0.3 -0.2
v 0.1 -0.2 0.1
v 0.1 -0.2 0
v 0.1 -0.2 -0.1
v 0.1 -0.2 -0.2
v 0.1 -0.1 0
v 0.1 -0.1 -0.1
v 0.1 0 0.1
v 0.1 0 0
v 0.1 0 -0.1
v 0.1 0.1 0.2
v 0.1 0.1 0.1
v 0.1 0.1 -0.1
v 0.1 0.1 -0.2
v 0.1 0.2 0.3
v 0.1 0.2 0.2
v 0.1 0.2 0.1
v 0.1 0.2 -0.1
v 0.1 0.2 -0.2
v 0.1 0.2 -0.3
v 0.1 0.3 0.3
v 0.1 0.3 0.2
v 0.1 0.3 -0.2
v 0.1 0.3 -0.3
v 0.1 0.4 0.3
v 0.1 0.4 0.2
v 0.1 0.4 -0.2
v 0.1 0.4 -0.3
v 0.2 -0.3 0
v 0.2 -0.3 -0.1
v 0.2 -0.2 0
v 0.2 -0.2 -0.1
v 0.2 0.1 0.1
v 0.2 0.1 -0.1
v 0.2 0.2 0.2
v 0.2 0.2 0.1
v 0.2 0.2 0
v 0.2 0.2 -0.1
v 0.2 0.2 -0.2
v 0.2 0.3 0.2
v 0.2 0.3 0.1
v 0.2 0.3 -0.1
v 0.2 0.3 -0.2
v 0.2 0.4 0.2
v 0.2 0.4 0.1
v 0.2 0.4 -0.1
v 0.2 0.4 -0.2
v 0.3 0.2 0.1
v 0.3 0.2 0
v 0.3 0.2 -0.1
v 0.3 0.3 0.1
v 0.3 0.3 0
v 0.3 0.3 -0.1
v 0.3 0.4 0.1
v 0.3 0.4 -0.1
v -0.1 0.2 0.3
v -0.1 0.3 0.3
v -0.1 0.4 0.3
v 0 0.2 0.3
v 0 0.3 0.3
v 0.1 0.2 0.3
v 0.1 0.3 0.3
v 0.1 0.4 0.3
v -0.2 0.2 0.2
v -0.2 0.3 0.2
v -0.2 0.4 0.2
v -0.1 -0.3 0.2
v -0.1 -0.2 0.2
v -0.1 0.1 0.2
v -0.1 0.2 0.2
v -0.1 0.3 0.2
v -0.1 0.4 0.2
v 0 -0.3 0.2
v 0 -0.2 0.2
v 0 0.2 0.2
v 0.1 0.1 0.2
v 0.1 0.2 0.2
v 0.1 0.3 0.2
v 0.1 0.4 0.2
v 0.2 0.2 0.2
v 0.2 0.3 0.2
v 0.2 0.4 0.2
v -0.3 0.2 0.1
v -0.3 0.3 0.1
v -0.3 0.4 0.1
v -0.2 0.1 0.1
v -0.2 0.2 0.1
v -0.2 0.3 0.1
v -0.2 0.4 0.1
v -0.1 -0.2 0.1
v -0.1 -0.1 0.1
v -0.1 0 0.1
v -0.1 0.1 0.1
v -0.1 0.2 0.1
v 0 -0.3 0.1
v 0 -0.2 0.1
v 0 -0.1 0.1
v 0.1 -0.3 0.1
v 0.1 -0.2 0.1
v 0.1 0 0.1
v 0.1 0.1 0.1
v 0.1 0.2 0.1
v 0.2 0.1 0.1
v 0.2 0.2 0.1
v 0.2 0.3 0.1
v 0.2 0.4 0.1
v 0.3 0.2 0.1
v 0.3 0.3 0.1
v 0.3 0.4 0.1
v -0.2 -0.3 0
v -0.2 -0.2 0
v -0.1 -0.3 0
v -0.1 -0.2 0
v -0.1 0.1 0
v -0.1 0.2 0
v 0 0.1 0
v 0 0.2 0
v 0.1 -0.3 0
v 0.1 -0.2 0
v 0.2 -0.3 0
v 0.2 -0.2 0
v -0.2 0.2 -0.1
v -0.2 0.3 -0.1
v -0.2 0.4 -0.1
v -0.1 0.2 -0.1
v -0.1 0.3 -0.1
v -0.1 0.4 -0.1
v 0 0.1 -0.1
v 0 0.2 -0.1
v 0.1 0.1 -0.1
v 0.1 0.2 -0.1
v 0.1 0.3 -0.1
v 0.1 0.4 -0.1
v 0.2 0.2 -0.1
v 0.2 0.3 -0.1
v 0.2 0.4 -0.1
v -0.1 0.2 -0.2
v -0.1 0.3 -0.2
v -0.1 0.4 -0.2
v 0 0.2 -0.2
v 0 0.3 -0.2
v 0.1 0.2 -0.2
v 0.1 0.3 -0.2
v 0.1 0.4 -0.2
v -0.1 0.2 0.2
v -0.1 0.3 0.2
v -0.1 0.4 0.2
v 0 0.2 0.2
v 0 0.3 0.2
v 0.1 0.2 0.2
v 0.1 0.3 0.2
v 0.1 0.4 0.2
v -0.2 0.2 0.1
v -0.2 0.3 0.1
v -0.2 0.4 0.1
v -0.1 0.1 0.1
v -0.1 0.2 0.1
v -0.1 0.3 0.1
v -0.1 0.4 0.1
v 0.1 0.1 0.1
v 0.1 0.2 0.1
v 0.1 0.3 0.1
v 0.1 0.4 0.1
v 0.2 0.2 0.1
v 0.2 0.3 0.1
v 0.2 0.4 0.1
v -0.3 0.2 -0.1
v -0.3 0.3 -0.1
v -0.3 0.4 -0.1
v -0.2 -0.3 -0.1
v -0.2 -0.2 -0.1
v -0.2 0.1 -0.1
v -0.2 0.2 -0.1
v -0.2 0.3 -0.1
v -0.2 0.4 -0.1
v -0.1 -0.2 -0.1
v -0.1 0.1 -0.1
v -0.1 0.2 -0.1
v 0 -0.3 -0.1
v 0 -0.2 -0.1
v 0 -0.1 -0.1
v 0 0 -0.1
v 0.1 -0.3 -0.1
v 0.1 -0.2 -0.1
v 0.1 -0.1 -0.1
v 0.1 0 -0.1
v 0.1 0.1 -0.1
v 0.1 0.2 -0.1
v 0.2 -0.3 -0.1
v 0.2 -0.2 -0.1
v 0.2 0.1 -0.1
v 0.2 0.2 -0.1
v 0.2 0.3 -0.1
v 0.2 0.4 -0.1
v 0.3 0.2 -0.1
v 0.3 0.3 -0.1
v 0.3 0.4 -0.1
v -0.2 0.2 -0.2
v -0.2 0.3 -0.2
v -0.2 0.4 -0.2
v -0.1 0.1 -0.2
v -0.1 0.2 -0.2
v -0.1 0.3 -0.2
v -0.1 0.4 -0.2
v 0 -0.3 -0.2
v 0 -0.2 -0.2
v 0 0.2 -0.2
v 0.1 -0.3 -0.2
v 0.1 -0.2 -0.2
v 0.1 0.1 -0.2
v 0.1 0.2 -0.2
v 0.1 0.3 -0.2
v 0.1 0.4 -0.2
v 0.2 0.2 -0.2
v 0.2 0.3 -0.2
v 0.2 0.4 -0.2
v -0.1 0.2 -0.3
v -0.1 0.3 -0.3
v -0.1 0.4 -0.3
v 0 0.2 -0.3
v 0 0.3 -0.3
v 0.1 0.2 -0.3
v 0.1 0.3 -0.3
v 0.1 0.4 -0.3
v -0.1 -0.3 0.2
v 0 -0.3 0.2
v -0.1 -0.3 0.1
v 0 -0.3 0.1
v 0.1 -0.3 0.1
v -0.2 -0.3 0
v -0.1 -0.3 0
v 0 -0.3 0
v 0.1 -0.3 0
v 0.2 -0.3 0
v -0.2 -0.3 -0.1
v 0 -0.3 -0.1
v 0.1 -0.3 -0.1
v 0.2 -0.3 -0.1
v 0 -0.3 -0.2
v 0.1 -0.3 -0.2
v -0.1 0.1 0.2
v 0.1 0.1 0.2
v -0.2 0.1 0.1
v -0.1 0.1 0.1
v 0.1 0.1 0.1
v 0.2 0.1 0.1
v -0.2 0.1 -0.1
v -0.1 0.1 -0.1
v 0.1 0.1 -0.1
v 0.2 0.1 -0.1
v -0.1 0.1 -0.2
v 0.1 0.1 -0.2
v -0.1 0.2 0.3
v 0 0.2 0.3
v 0.1 0.2 0.3
v -0.2 0.2 0.2
v -0.1 0.2 0.2
v 0 0.2 0.2
v 0.1 0.2 0.2
v 0.2 0.2 0.2
v -0.3 0.2 0.1
v -0.2 0.2 0.1
v -0.1 0.2 0.1
v 0.1 0.2 0.1
v 0.2 0.2 0.1
v 0.3 0.2 0.1
v 0.2 0.2 0
v 0.3 0.2 0
v -0.3 0.2 -0.1
v -0.2 0.2 -0.1
v -0.1 0.2 -0.1
v 0.1 0.2 -0.1
v 0.2 0.2 -0.1
v 0.3 0.2 -0.1
v -0.2 0.2 -0.2
v -0.1 0.2 -0.2
v 0 0.2 -0.2
v 0.1 0.2 -0.2
v 0.2 0.2 -0.2
v -0.1 0.2 -0.3
v 0 0.2 -0.3
v 0.1 0.2 -0.3
v -0.1 -0.2 0.2
v 0 -0.2 0.2
v -0.1 -0.2 0.1
v 0 -0.2 0.1
v -0.2 -0.2 0
v -0.1 -0.2 0
v 0.1 -0.2 0
v 0.2 -0.2 0
v -0.2 -0.2 -0.1
v -0.1 -0.2 -0.1
v 0 -0.2 -0.1
v 0.1 -0.2 -0.1
v 0.2 -0.2 -0.1
v 0 -0.2 -0.2
v 0.1 -0.2 -0.2
v -0.1 0.1 0.1
v 0.1 0.1 0.1
v -0.1 0.1 0
v 0 0.1 0
v 0 0.1 -0.1
v 0.1 0.1 -0.1
v -0.1 0.2 0.2
v 0 0.2 0.2
v 0.1 0.2 0.2
v -0.2 0.2 0.1
v -0.1 0.2 0.1
v 0.1 0.2 0.1
v 0.2 0.2 0.1
v -0.1 0.2 0
v 0 0.2 0
v 0.2 0.2 0
v -0.2 0.2 -0.1
v -0.1 0.2 -0.1
v 0 0.2 -0.1
v 0.1 0.2 -0.1
v 0.2 0.2 -0.1
v -0.1 0.2 -0.2
v 0 0.2 -0.2
v 0.1 0.2 -0.2
v -0.1 0.4 0.3
v 0.1 0.4 0.3
v -0.2 0.4 0.2
v -0.1 0.4 0.2
v 0.1 0.4 0.2
v 0.2 0.4 0.2
v -0.3 0.4 0.1
v -0.2 0.4 0.1
v -0.1 0.4 0.1
v 0.1 0.4 0.1
v 0.2 0.4 0.1
v 0.3 0.4 0.1
v -0.3 0.4 -0.1
v -0.2 0.4 -0.1
v -0.1 0.4 -0.1
v 0.1 0.4 -0.1
v 0.2 0.4 -0.1
v 0.3 0.4 -0.1
v -0.2 0.4 -0.2
v -0.1 0.4 -0.2
v 0.1 0.4 -0.2
v 0.2 0.4 -0.2
v -0.1 0.4 -0.3
v 0.1 0.4 -0.3

# faces
f 3/2/1 2/2/1 1/2/1
f 4/2/1 2/2/1 3/2/1
f 5/3/1 4/3/1 3/3/1
f 6/3/1 4/3/1 5/3/1
f 9/2/1 8/2/1 7/2/1
f 10/2/1 8/2/1 9/2/1
f 14/2/1 12/2/1 11/2/1
f 15/2/1 12/2/1 14/2/1
f 17/2/1 14/2/1 13/2/1
f 18/2/1 14/2/1 17/2/1
f 19/1/1 16/1/1 15/1/1
f 20/1/1 16/1/1 19/1/1
f 21/3/1 18/3/1 17/3/1
f 22/3/1 18/3/1 21/3/1
f 23/3/1 20/3/1 19/3/1
f 24/3/1 20/3/1 23/3/1
f 28/3/1 26/3/1 25/3/1
f 29/2/1 27/2/1 26/2/1
f 29/3/1 26/3/1 28/3/1
f 30/2/1 27/2/1 29/2/1
f 32/2/1 31/2/1 30/2/1
f 32/2/1 30/2/1 29/2/1
f 33/2/1 31/2/1 32/2/1
f 34/1/1 33/1/1 32/1/1
f 35/2/1 31/2/1 33/2/1
f 35/1/1 33/1/1 34/1/1
f 37/2/1 35/2/1 34/2/1
f 38/2/1 31/2/1 35/2/1
f 38/2/1 35/2/1 37/2/1
f 41/2/1 37/2/1 36/2/1
f 42/2/1 37/2/1 41/2/1
f 43/2/1 39/2/1 38/2/1
f 44/2/1 39/2/1 43/2/1
f 46/2/1 41/2/1 40/2/1
f 47/2/1 41/2/1 46/2/1
f 48/2/1 45/2/1 44/2/1
f 49/2/1 45/2/1 48/2/1
f 50/3/1 47/3/1 46/3/1
f 51/3/1 47/3/1 50/3/1
f 52/3/1 49/3/1 48/3/1
f 53/3/1 49/3/1 52/3/1
f 56/2/1 55/2/1 54/2/1
f 57/2/1 55/2/1 56/2/1
f 61/2/1 59/2/1 58/2/1
f 62/2/1 59/2/1 61/2/1
f 64/2/1 61/2/1 60/2/1
f 65/2/1 61/2/1 64/2/1
f 66/2/1 63/2/1 62/2/1
f 67/2/1 63/2/1 66/2/1
f 68/3/1 65/3/1 64/3/1
f 69/3/1 65/3/1 68/3/1
f 70/3/1 67/3/1 66/3/1
f 71/3/1 67/3/1 70/3/1
f 75/1/1 73/1/1 72/1/1
f 76/2/1 74/2/1 73/2/1
f 76/1/1 73/1/1 75/1/1
f 77/2/1 74/2/1 76/2/1
f 78/3/1 76/3/1 75/3/1
f 78/3/1 77/3/1 76/3/1
f 79/3/1 77/3/1 78/3/1
f 80/2/2 81/2/2 82/2/2
f 82/2/2 81/2/2 83/2/2
f 82/3/2 83/3/2 84/3/2
f 84/3/2 83/3/2 85/3/2
f 86/2/2 87/2/2 89/2/2
f 89/2/2 87/2/2 90/2/2
f 88/2/2 89/2/2 93/2/2
f 93/2/2 89/2/2 94/2/2
f 91/1/2 92/1/2 95/1/2
f 95/1/2 92/1/2 96/1/2
f 93/3/2 94/3/2 97/3/2
f 97/3/2 94/3/2 98/3/2
f 95/3/2 96/3/2 99/3/2
f 99/3/2 96/3/2 100/3/2
f 101/3/2 102/3/2 103/3/2
f 103/3/2 102/3/2 104/3/2
f 105/2/2 106/2/2 107/2/2
f 107/2/2 106/2/2 108/2/2
f 109/3/2 110/3/2 113/3/2
f 113/3/2 110/3/2 114/3/2
f 111/2/2 112/2/2 115/2/2
f 115/2/2 112/2/2 116/2/2
f 113/1/2 114/1/2 117/1/2
f 114/2/2 115/2/2 117/2/2
f 117/2/2 115/2/2 118/2/2
f 113/1/2 117/1/2 119/1/2
f 117/3/2 118/3/2 120/3/2
f 119/1/2 117/1/2 120/1/2
f 120/3/2 118/3/2 121/3/2
f 119/2/2 120/2/2 123/2/2
f 120/2/2 121/2/2 123/2/2
f 123/2/2 121/2/2 124/2/2
f 122/2/2 123/2/2 127/2/2
f 127/2/2 123/2/2 128/2/2
f 124/2/2 125/2/2 129/2/2
f 129/2/2 125/2/2 130/2/2
f 126/1/2 127/1/2 132/1/2
f 132/1/2 127/1/2 133/1/2
f 130/1/2 131/1/2 134/1/2
f 134/1/2 131/1/2 135/1/2
f 132/3/2 133/3/2 136/3/2
f 136/3/2 133/3/2 137/3/2
f 134/3/2 135/3/2 138/3/2
f 138/3/2 135/3/2 139/3/2
f 140/3/2 141/3/2 142/3/2
f 142/3/2 141/3/2 143/3/2
f 144/2/2 145/2/2 147/2/2
f 147/2/2 145/2/2 148/2/2
f 148/2/2 145/2/2 149/2/2
f 146/2/2 147/2/2 151/2/2
f 151/2/2 147/2/2 152/2/2
f 149/2/2 150/2/2 153/2/2
f 153/2/2 150/2/2 154/2/2
f 151/3/2 152/3/2 155/3/2
f 155/3/2 152/3/2 156/3/2
f 153/3/2 154/3/2 157/3/2
f 157/3/2 154/3/2 158/3/2
f 159/1/2 160/1/2 162/1/2
f 160/2/2 161/2/2 163/2/2
f 162/1/2 160/1/2 163/1/2
f 163/2/2 161/2/2 164/2/2
f 162/3/2 163/3/2 165/3/2
f 163/3/2 164/3/2 165/3/2
f 165/3/2 164/3/2 166/3/2
f 170/2/3 168/2/3 167/2/3
f 171/3/3 169/3/3 168/3/3
f 171/2/3 168/2/3 170/2/3
f 172/1/3 171/1/3 170/1/3
f 173/3/3 169/3/3 171/3/3
f 173/1/3 171/1/3 172/1/3
f 174/3/3 169/3/3 173/3/3
f 181/2/3 176/2/3 175/2/3
f 182/3/3 177/3/3 176/3/3
f 182/2/3 176/2/3 181/2/3
f 183/3/3 177/3/3 182/3/3
f 184/3/3 179/3/3 178/3/3
f 185/3/3 179/3/3 184/3/3
f 186/2/3 181/2/3 180/2/3
f 187/2/3 186/2/3 180/2/3
f 188/2/3 186/2/3 187/2/3
f 191/2/3 189/2/3 188/2/3
f 192/3/3 190/3/3 189/3/3
f 192/2/3 189/2/3 191/2/3
f 193/3/3 190/3/3 192/3/3
f 198/2/3 195/2/3 194/2/3
f 199/3/3 196/3/3 195/3/3
f 199/2/3 195/2/3 198/2/3
f 200/3/3 196/3/3 199/3/3
f 204/2/3 198/2/3 197/2/3
f 205/2/3 198/2/3 204/2/3
f 207/2/3 202/2/3 201/2/3
f 208/1/3 203/1/3 202/1/3
f 208/2/3 202/2/3 207/2/3
f 209/3/3 207/3/3 206/3/3
f 210/1/3 208/1/3 207/1/3
f 210/3/3 207/3/3 209/3/3
f 211/1/3 203/1/3 208/1/3
f 211/1/3 208/1/3 210/1/3
f 211/2/3 204/2/3 203/2/3
f 212/2/3 204/2/3 211/2/3
f 214/2/3 213/2/3 212/2/3
f 215/2/3 213/2/3 214/2/3
f 218/1/3 216/1/3 215/1/3
f 219/3/3 217/3/3 216/3/3
f 219/1/3 216/1/3 218/1/3
f 220/3/3 217/3/3 219/3/3
f 223/2/3 222/2/3 221/2/3
f 224/2/3 222/2/3 223/2/3
f 227/2/3 226/2/3 225/2/3
f 228/2/3 226/2/3 227/2/3
f 231/3/3 230/3/3 229/3/3
f 232/3/3 230/3/3 231/3/3
f 236/1/3 234/1/3 233/1/3
f 237/3/3 235/3/3 234/3/3
f 237/1/3 234/1/3 236/1/3
f 238/3/3 235/3/3 237/3/3
f 241/2/3 240/2/3 239/2/3
f 242/2/3 240/2/3 241/2/3
f 245/2/3 243/2/3 242/2/3
f 246/3/3 244/3/3 243/3/3
f 246/2/3 243/2/3 245/2/3
f 247/3/3 244/3/3 246/3/3
f 251/2/3 249/2/3 248/2/3
f 252/3/3 250/3/3 249/3/3
f 252/2/3 249/2/3 251/2/3
f 253/1/3 252/1/3 251/1/3
f 254/3/3 250/3/3 252/3/3
f 254/1/3 252/1/3 253/1/3
f 255/3/3 250/3/3 254/3/3
f 256/2/4 257/2/4 259/2/4
f 257/3/4 258/3/4 260/3/4
f 259/2/4 257/2/4 260/2/4
f 259/1/4 260/1/4 261/1/4
f 260/3/4 258/3/4 262/3/4
f 261/1/4 260/1/4 262/1/4
f 262/3/4 258/3/4 263/3/4
f 264/2/4 265/2/4 268/2/4
f 265/3/4 266/3/4 269/3/4
f 268/2/4 265/2/4 269/2/4
f 269/3/4 266/3/4 270/3/4
f 267/2/4 268/2/4 271/2/4
f 271/2/4 268/2/4 272/2/4
f 272/2/4 273/2/4 275/2/4
f 273/3/4 274/3/4 276/3/4
f 275/2/4 273/2/4 276/2/4
f 276/3/4 274/3/4 277/3/4
f 278/2/4 279/2/4 284/2/4
f 279/3/4 280/3/4 285/3/4
f 284/2/4 279/2/4 285/2/4
f 285/3/4 280/3/4 286/3/4
f 281/2/4 282/2/4 287/2/4
f 283/2/4 284/2/4 288/2/4
f 288/2/4 284/2/4 289/2/4
f 281/2/4 287/2/4 290/2/4
f 287/2/4 288/2/4 290/2/4
f 290/2/4 288/2/4 291/2/4
f 291/2/4 288/2/4 292/2/4
f 292/2/4 288/2/4 293/2/4
f 291/2/4 292/2/4 295/2/4
f 292/3/4 293/3/4 296/3/4
f 295/2/4 292/2/4 296/2/4
f 293/2/4 288/2/4 297/2/4
f 296/3/4 293/3/4 297/3/4
f 297/2/4 288/2/4 298/2/4
f 294/3/4 295/3/4 300/3/4
f 300/3/4 295/3/4 301/3/4
f 298/2/4 299/2/4 302/2/4
f 302/2/4 299/2/4 303/2/4
f 303/2/4 304/2/4 306/2/4
f 304/3/4 305/3/4 307/3/4
f 306/2/4 304/2/4 307/2/4
f 307/3/4 305/3/4 308/3/4
f 309/1/4 310/1/4 313/1/4
f 310/3/4 311/3/4 314/3/4
f 313/1/4 310/1/4 314/1/4
f 314/3/4 311/3/4 315/3/4
f 312/2/4 313/2/4 318/2/4
f 316/2/4 317/2/4 319/2/4
f 319/2/4 317/2/4 320/2/4
f 312/2/4 318/2/4 321/2/4
f 321/2/4 318/2/4 322/2/4
f 322/2/4 323/2/4 325/2/4
f 323/3/4 324/3/4 326/3/4
f 325/2/4 323/2/4 326/2/4
f 326/3/4 324/3/4 327/3/4
f 328/2/4 329/2/4 331/2/4
f 329/3/4 330/3/4 332/3/4
f 331/2/4 329/2/4 332/2/4
f 331/1/4 332/1/4 333/1/4
f 332/3/4 330/3/4 334/3/4
f 333/1/4 332/1/4 334/1/4
f 334/3/4 330/3/4 335/3/4
f 338/3/5 337/3/5 336/3/5
f 339/3/5 337/3/5 338/3/5
f 342/2/5 339/2/5 338/2/5
f 343/3/5 340/3/5 339/3/5
f 343/2/5 339/2/5 342/2/5
f 344/3/5 340/3/5 343/3/5
f 346/2/5 342/2/5 341/2/5
f 346/2/5 343/2/5 342/2/5
f 346/2/5 344/2/5 343/2/5
f 347/2/5 344/2/5 346/2/5
f 348/3/5 345/3/5 344/3/5
f 348/2/5 344/2/5 347/2/5
f 349/3/5 345/3/5 348/3/5
f 350/2/5 348/2/5 347/2/5
f 351/2/5 348/2/5 350/2/5
f 355/2/5 353/2/5 352/2/5
f 356/2/5 353/2/5 355/2/5
f 358/2/5 355/2/5 354/2/5
f 359/2/5 355/2/5 358/2/5
f 360/2/5 357/2/5 356/2/5
f 361/2/5 357/2/5 360/2/5
f 362/2/5 360/2/5 359/2/5
f 363/2/5 360/2/5 362/2/5
f 368/2/5 365/2/5 364/2/5
f 369/1/5 366/1/5 365/1/5
f 369/2/5 365/2/5 368/2/5
f 370/1/5 366/1/5 369/1/5
f 373/2/5 368/2/5 367/2/5
f 374/2/5 368/2/5 373/2/5
f 375/2/5 371/2/5 370/2/5
f 376/2/5 371/2/5 375/2/5
f 378/1/5 377/1/5 376/1/5
f 379/1/5 377/1/5 378/1/5
f 380/2/5 373/2/5 372/2/5
f 381/2/5 373/2/5 380/2/5
f 384/2/5 379/2/5 378/2/5
f 385/2/5 379/2/5 384/2/5
f 386/1/5 382/1/5 381/1/5
f 387/1/5 382/1/5 386/1/5
f 389/2/5 384/2/5 383/2/5
f 390/2/5 384/2/5 389/2/5
f 391/2/5 388/2/5 387/2/5
f 392/1/5 389/1/5 388/1/5
f 392/2/5 388/2/5 391/2/5
f 393/1/5 389/1/5 392/1/5
f 394/3/6 395/3/6 396/3/6
f 396/3/6 395/3/6 397/3/6
f 398/2/6 399/2/6 402/2/6
f 402/2/6 399/2/6 403/2/6
f 400/3/6 401/3/6 405/3/6
f 405/3/6 401/3/6 406/3/6
f 404/2/6 405/2/6 407/2/6
f 407/2/6 405/2/6 408/2/6
f 409/2/6 410/2/6 411/2/6
f 411/2/6 410/2/6 412/2/6
f 412/2/6 410/2/6 413/2/6
f 413/2/6 410/2/6 414/2/6
f 415/2/6 416/2/6 419/2/6
f 416/2/6 417/2/6 419/2/6
f 419/2/6 417/2/6 420/2/6
f 418/2/6 419/2/6 422/2/6
f 420/2/6 421/2/6 424/2/6
f 422/2/6 423/2/6 425/2/6
f 418/2/6 422/2/6 425/2/6
f 425/2/6 423/2/6 426/2/6
f 426/2/6 423/2/6 427/2/6
f 420/2/6 424/2/6 428/2/6
f 428/2/6 424/2/6 429/2/6
f 426/2/6 427/2/6 430/2/6
f 427/2/6 428/2/6 430/2/6
f 430/2/6 428/2/6 431/2/6
f 431/2/6 428/2/6 432/2/6
f 433/3/6 434/3/6 436/3/6
f 436/3/6 434/3/6 437/3/6
f 435/3/6 436/3/6 440/3/6
f 440/3/6 436/3/6 441/3/6
f 437/3/6 438/3/6 442/3/6
f 442/3/6 438/3/6 443/3/6
f 439/3/6 440/3/6 445/3/6
f 445/3/6 440/3/6 446/3/6
f 443/3/6 444/3/6 449/3/6
f 449/3/6 444/3/6 450/3/6
f 446/3/6 447/3/6 451/3/6
f 451/3/6 447/3/6 452/3/6
f 448/3/6 449/3/6 453/3/6
f 453/3/6 449/3/6 454/3/6
f 452/3/6 453/3/6 455/3/6
f 455/3/6 453/3/6 456/3/6
