# MagicaVoxel @ Ephtracy

# group
o 

# material
mtllib NPC7_leftarm_1.mtl
usemtl palette

# normals
vn 1 0 0
vn -1 0 0
vn 0 0 -1
vn 0 0 1
vn 0 -1 0
vn 0 1 0

# texcoords
vt 0.451172 0.5
vt 0.455078 0.5
vt 0.505859 0.5
vt 0.845703 0.5
vt 0.958984 0.5
vt 0.990234 0.5

# verts
v 0.9 -0.9 -1.2
v 0.9 -0.9 0
v 0.9 0.9 -1.2
v 0.9 0.9 0
v 0.8 -0.8 -2.2
v 0.8 -0.8 -1.9
v 0.8 -0.8 -1.8
v 0.8 -0.8 -1.2
v 0.8 0.8 -2.2
v 0.8 0.8 -1.9
v 0.8 0.8 -1.8
v 0.8 0.8 -1.2
v -0.8 -0.8 -2.2
v -0.8 -0.8 -1.9
v -0.8 -0.8 -1.8
v -0.8 -0.8 -1.2
v -0.8 0.8 -2.2
v -0.8 0.8 -1.9
v -0.8 0.8 -1.8
v -0.8 0.8 -1.2
v -0.9 -0.9 -1.2
v -0.9 -0.9 0
v -0.9 0.9 -1.2
v -0.9 0.9 0
v 0.8 -0.8 -2.2
v 0.8 0.8 -2.2
v -0.8 -0.8 -2.2
v -0.8 0.8 -2.2
v 0.9 -0.9 -1.2
v 0.9 0.9 -1.2
v 0.8 -0.8 -1.2
v 0.8 0.8 -1.2
v -0.8 -0.8 -1.2
v -0.8 0.8 -1.2
v -0.9 -0.9 -1.2
v -0.9 0.9 -1.2
v 0.9 -0.9 0
v 0.9 0.9 0
v -0.9 -0.9 0
v -0.9 0.9 0
v 0.9 -0.9 -1.2
v -0.9 -0.9 -1.2
v 0.9 -0.9 0
v -0.9 -0.9 0
v 0.8 -0.8 -2.2
v -0.8 -0.8 -2.2
v 0.8 -0.8 -1.9
v -0.8 -0.8 -1.9
v 0.8 -0.8 -1.8
v -0.8 -0.8 -1.8
v 0.8 -0.8 -1.2
v -0.8 -0.8 -1.2
v 0.8 0.8 -2.2
v -0.8 0.8 -2.2
v 0.8 0.8 -1.9
v -0.8 0.8 -1.9
v 0.8 0.8 -1.8
v -0.8 0.8 -1.8
v 0.8 0.8 -1.2
v -0.8 0.8 -1.2
v 0.9 0.9 -1.2
v -0.9 0.9 -1.2
v 0.9 0.9 0
v -0.9 0.9 0

# faces
f 3/6/1 2/6/1 1/6/1
f 4/6/1 2/6/1 3/6/1
f 9/3/1 6/3/1 5/3/1
f 10/2/1 7/2/1 6/2/1
f 10/3/1 6/3/1 9/3/1
f 11/1/1 8/1/1 7/1/1
f 11/2/1 7/2/1 10/2/1
f 12/1/1 8/1/1 11/1/1
f 13/3/2 14/3/2 17/3/2
f 14/2/2 15/2/2 18/2/2
f 17/3/2 14/3/2 18/3/2
f 15/1/2 16/1/2 19/1/2
f 18/2/2 15/2/2 19/2/2
f 19/1/2 16/1/2 20/1/2
f 21/6/2 22/6/2 23/6/2
f 23/6/2 22/6/2 24/6/2
f 27/3/3 26/3/3 25/3/3
f 28/3/3 26/3/3 27/3/3
f 31/6/3 30/6/3 29/6/3
f 32/6/3 30/6/3 31/6/3
f 33/6/3 31/6/3 29/6/3
f 34/6/3 30/6/3 32/6/3
f 35/6/3 33/6/3 29/6/3
f 35/6/3 34/6/3 33/6/3
f 36/6/3 30/6/3 34/6/3
f 36/6/3 34/6/3 35/6/3
f 37/6/4 38/6/4 39/6/4
f 39/6/4 38/6/4 40/6/4
f 43/6/5 42/6/5 41/6/5
f 44/6/5 42/6/5 43/6/5
f 47/3/5 46/3/5 45/3/5
f 48/3/5 46/3/5 47/3/5
f 49/2/5 48/2/5 47/2/5
f 50/2/5 48/2/5 49/2/5
f 51/1/5 50/1/5 49/1/5
f 52/1/5 50/1/5 51/1/5
f 53/3/6 54/3/6 55/3/6
f 55/3/6 54/3/6 56/3/6
f 55/2/6 56/2/6 57/2/6
f 57/2/6 56/2/6 58/2/6
f 57/1/6 58/1/6 59/1/6
f 59/1/6 58/1/6 60/1/6
f 61/6/6 62/6/6 63/6/6
f 63/6/6 62/6/6 64/6/6
