# MagicaVoxel @ Ephtracy

# group
o 

# material
mtllib truffle_2.mtl
usemtl palette

# normals
vn -1 0 0
vn 1 0 0
vn 0 0 1
vn 0 0 -1
vn 0 -1 0
vn 0 1 0

# texcoords
vt 0.939453 0.5
vt 0.943359 0.5
vt 0.970703 0.5
vt 0.974609 0.5
vt 0.978516 0.5

# verts
v -0.4 -0.3 0.4
v -0.4 -0.3 0.3
v -0.4 -0.3 -0.2
v -0.4 -0.3 -0.3
v -0.4 -0.2 0.4
v -0.4 -0.2 0.3
v -0.4 -0.2 -0.2
v -0.4 -0.2 -0.3
v -0.4 0.1 -0.3
v -0.4 0.1 -0.4
v -0.4 0.2 -0.3
v -0.4 0.2 -0.4
v -0.3 -0.3 0.3
v -0.3 -0.3 0.1
v -0.3 -0.3 0
v -0.3 -0.3 -0.1
v -0.3 -0.3 -0.2
v -0.3 -0.3 -0.3
v -0.3 -0.3 -0.4
v -0.3 -0.2 0.3
v -0.3 -0.2 0.2
v -0.3 -0.2 0.1
v -0.3 -0.2 0
v -0.3 -0.2 -0.1
v -0.3 -0.2 -0.2
v -0.3 -0.2 -0.3
v -0.3 -0.1 0
v -0.3 -0.1 -0.1
v -0.3 -0.1 -0.2
v -0.3 0.1 -0.3
v -0.3 0.1 -0.4
v -0.3 0.2 0.4
v -0.3 0.2 0.3
v -0.3 0.2 0.2
v -0.3 0.3 0.4
v -0.3 0.3 0.3
v -0.2 -0.3 0.1
v -0.2 -0.3 0
v -0.2 -0.2 0.1
v -0.2 -0.2 0
v 0 -0.3 -0.1
v 0 -0.3 -0.2
v 0 -0.2 -0.1
v 0 -0.2 -0.2
v 0.1 -0.3 0.4
v 0.1 -0.3 0.3
v 0.1 -0.2 0.4
v 0.1 -0.2 0.3
v 0.2 -0.3 0.3
v 0.2 -0.3 0.2
v 0.2 -0.3 -0.2
v 0.2 -0.3 -0.3
v 0.2 -0.2 0.3
v 0.2 -0.2 -0.2
v 0.2 0 0.3
v 0.2 0 0.2
v 0.2 0 -0.2
v 0.2 0 -0.3
v 0.3 0 -0.2
v 0.3 0 -0.3
v 0.3 0.1 -0.2
v 0.3 0.1 -0.3
v -0.3 -0.3 0.4
v -0.3 -0.3 0.3
v -0.3 -0.2 0.4
v -0.3 -0.2 0.3
v -0.3 0.1 -0.3
v -0.3 0.1 -0.4
v -0.3 0.2 -0.3
v -0.3 0.2 -0.4
v -0.2 -0.3 -0.2
v -0.2 -0.3 -0.3
v -0.2 -0.2 0.3
v -0.2 -0.2 0.2
v -0.2 -0.2 -0.2
v -0.2 -0.2 -0.3
v -0.2 -0.2 -0.4
v -0.2 0.1 -0.3
v -0.2 0.1 -0.4
v -0.2 0.2 0.4
v -0.2 0.2 0.3
v -0.2 0.2 0.2
v -0.2 0.3 0.4
v -0.2 0.3 0.3
v -0.1 -0.3 0.3
v -0.1 -0.3 0.2
v -0.1 -0.3 -0.1
v -0.1 -0.3 -0.2
v -0.1 -0.3 -0.3
v -0.1 -0.3 -0.4
v -0.1 -0.2 0.3
v -0.1 -0.2 0.2
v -0.1 -0.2 0
v -0.1 -0.2 -0.1
v -0.1 -0.2 -0.3
v -0.1 -0.2 -0.4
v -0.1 -0.1 0
v -0.1 -0.1 -0.1
v -0.1 -0.1 -0.2
v 0.1 -0.3 0.2
v 0.1 -0.3 0.1
v 0.1 -0.3 0
v 0.1 -0.2 0.2
v 0.1 -0.2 0.1
v 0.1 -0.2 0
v 0.2 -0.3 0
v 0.2 -0.3 -0.1
v 0.2 -0.2 0
v 0.2 -0.2 -0.1
v 0.3 -0.3 0.4
v 0.3 -0.3 0.3
v 0.3 -0.3 -0.1
v 0.3 -0.3 -0.2
v 0.3 -0.2 0.4
v 0.3 -0.2 0.3
v 0.3 -0.2 0.2
v 0.3 -0.2 -0.1
v 0.3 -0.2 -0.2
v 0.3 -0.2 -0.3
v 0.3 0 0.3
v 0.3 0 0.2
v 0.3 0 -0.2
v 0.3 0 -0.3
v 0.4 -0.3 0.3
v 0.4 -0.3 0.2
v 0.4 -0.3 -0.2
v 0.4 -0.3 -0.3
v 0.4 -0.2 0.3
v 0.4 -0.2 0.2
v 0.4 -0.2 -0.2
v 0.4 -0.2 -0.3
v 0.4 0 -0.2
v 0.4 0 -0.3
v 0.4 0.1 -0.2
v 0.4 0.1 -0.3
v -0.4 -0.3 0.4
v -0.4 -0.2 0.4
v -0.3 -0.3 0.4
v -0.3 -0.2 0.4
v -0.3 0.2 0.4
v -0.3 0.3 0.4
v -0.2 0.2 0.4
v -0.2 0.3 0.4
v 0.1 -0.3 0.4
v 0.1 -0.2 0.4
v 0.3 -0.3 0.4
v 0.3 -0.2 0.4
v -0.3 -0.3 0.3
v -0.3 -0.2 0.3
v -0.3 0.2 0.3
v -0.2 -0.2 0.3
v -0.2 0.2 0.3
v -0.1 -0.3 0.3
v -0.1 -0.2 0.3
v 0.2 -0.2 0.3
v 0.2 0 0.3
v 0.3 -0.3 0.3
v 0.3 -0.2 0.3
v 0.3 0 0.3
v 0.4 -0.3 0.3
v 0.4 -0.2 0.3
v -0.1 -0.3 0.2
v -0.1 -0.2 0.2
v 0 -0.3 0.2
v 0 -0.2 0.2
v 0.1 -0.3 0.2
v 0.1 -0.2 0.2
v -0.3 -0.3 0
v -0.3 -0.2 0
v -0.3 -0.1 0
v -0.2 -0.3 0
v -0.2 -0.2 0
v -0.2 -0.1 0
v -0.1 -0.2 0
v -0.1 -0.1 0
v 0.1 -0.3 0
v 0.1 -0.2 0
v 0.2 -0.3 0
v 0.2 -0.2 0
v 0.2 -0.3 -0.1
v 0.2 -0.2 -0.1
v 0.3 -0.3 -0.1
v 0.3 -0.2 -0.1
v -0.4 -0.3 -0.2
v -0.4 -0.2 -0.2
v -0.3 -0.3 -0.2
v -0.3 -0.2 -0.2
v 0.2 -0.2 -0.2
v 0.2 0 -0.2
v 0.3 -0.3 -0.2
v 0.3 -0.2 -0.2
v 0.3 0 -0.2
v 0.3 0.1 -0.2
v 0.4 -0.3 -0.2
v 0.4 -0.2 -0.2
v 0.4 0 -0.2
v 0.4 0.1 -0.2
v -0.4 0.1 -0.3
v -0.4 0.2 -0.3
v -0.3 -0.2 -0.3
v -0.3 0.1 -0.3
v -0.3 0.2 -0.3
v -0.2 -0.3 -0.3
v -0.2 -0.2 -0.3
v -0.2 0.1 -0.3
v -0.1 -0.3 -0.3
v -0.1 -0.2 -0.3
v -0.4 -0.3 0.3
v -0.4 -0.2 0.3
v -0.3 -0.3 0.3
v -0.3 -0.2 0.3
v -0.3 0.2 0.3
v -0.3 0.3 0.3
v -0.2 0.2 0.3
v -0.2 0.3 0.3
v 0.1 -0.3 0.3
v 0.1 -0.2 0.3
v 0.2 -0.3 0.3
v 0.2 -0.2 0.3
v -0.3 -0.2 0.2
v -0.3 0.2 0.2
v -0.2 -0.2 0.2
v -0.2 0.2 0.2
v 0.2 -0.3 0.2
v 0.2 0 0.2
v 0.3 -0.2 0.2
v 0.3 0 0.2
v 0.4 -0.3 0.2
v 0.4 -0.2 0.2
v -0.3 -0.3 0.1
v -0.3 -0.2 0.1
v -0.2 -0.3 0.1
v -0.2 -0.2 0.1
v -0.1 -0.3 -0.1
v -0.1 -0.2 -0.1
v 0 -0.3 -0.1
v 0 -0.2 -0.1
v -0.3 -0.2 -0.2
v -0.3 -0.1 -0.2
v -0.2 -0.3 -0.2
v -0.2 -0.2 -0.2
v -0.2 -0.1 -0.2
v -0.1 -0.3 -0.2
v -0.1 -0.1 -0.2
v 0 -0.3 -0.2
v 0 -0.2 -0.2
v 0.1 -0.3 -0.2
v 0.1 -0.2 -0.2
v 0.2 -0.3 -0.2
v 0.2 -0.2 -0.2
v -0.4 -0.3 -0.3
v -0.4 -0.2 -0.3
v -0.3 -0.3 -0.3
v -0.3 -0.2 -0.3
v 0.2 -0.3 -0.3
v 0.2 0 -0.3
v 0.3 -0.2 -0.3
v 0.3 0 -0.3
v 0.3 0.1 -0.3
v 0.4 -0.3 -0.3
v 0.4 -0.2 -0.3
v 0.4 0 -0.3
v 0.4 0.1 -0.3
v -0.4 0.1 -0.4
v -0.4 0.2 -0.4
v -0.3 -0.3 -0.4
v -0.3 0.1 -0.4
v -0.3 0.2 -0.4
v -0.2 -0.2 -0.4
v -0.2 0.1 -0.4
v -0.1 -0.3 -0.4
v -0.1 -0.2 -0.4
v -0.4 -0.3 0.4
v -0.3 -0.3 0.4
v 0.1 -0.3 0.4
v 0.3 -0.3 0.4
v -0.4 -0.3 0.3
v -0.3 -0.3 0.3
v -0.1 -0.3 0.3
v 0.1 -0.3 0.3
v 0.2 -0.3 0.3
v 0.3 -0.3 0.3
v 0.4 -0.3 0.3
v -0.2 -0.3 0.2
v -0.1 -0.3 0.2
v 0 -0.3 0.2
v 0.1 -0.3 0.2
v 0.2 -0.3 0.2
v 0.4 -0.3 0.2
v -0.3 -0.3 0.1
v -0.2 -0.3 0.1
v -0.1 -0.3 0.1
v 0 -0.3 0.1
v 0.1 -0.3 0.1
v -0.3 -0.3 0
v -0.2 -0.3 0
v -0.1 -0.3 0
v 0 -0.3 0
v 0.1 -0.3 0
v 0.2 -0.3 0
v -0.3 -0.3 -0.1
v -0.2 -0.3 -0.1
v -0.1 -0.3 -0.1
v 0 -0.3 -0.1
v 0.1 -0.3 -0.1
v 0.2 -0.3 -0.1
v 0.3 -0.3 -0.1
v -0.4 -0.3 -0.2
v -0.3 -0.3 -0.2
v -0.2 -0.3 -0.2
v -0.1 -0.3 -0.2
v 0 -0.3 -0.2
v 0.1 -0.3 -0.2
v 0.2 -0.3 -0.2
v 0.3 -0.3 -0.2
v 0.4 -0.3 -0.2
v -0.4 -0.3 -0.3
v -0.3 -0.3 -0.3
v -0.2 -0.3 -0.3
v -0.1 -0.3 -0.3
v 0.2 -0.3 -0.3
v 0.4 -0.3 -0.3
v -0.3 -0.3 -0.4
v -0.1 -0.3 -0.4
v 0.3 0 -0.2
v 0.4 0 -0.2
v 0.3 0 -0.3
v 0.4 0 -0.3
v -0.4 0.1 -0.3
v -0.3 0.1 -0.3
v -0.4 0.1 -0.4
v -0.3 0.1 -0.4
v -0.3 0.2 0.4
v -0.2 0.2 0.4
v -0.3 0.2 0.3
v -0.2 0.2 0.3
v -0.4 -0.2 0.4
v -0.3 -0.2 0.4
v 0.1 -0.2 0.4
v 0.3 -0.2 0.4
v -0.4 -0.2 0.3
v -0.3 -0.2 0.3
v -0.2 -0.2 0.3
v -0.1 -0.2 0.3
v 0.1 -0.2 0.3
v 0.2 -0.2 0.3
v 0.3 -0.2 0.3
v 0.4 -0.2 0.3
v -0.3 -0.2 0.2
v -0.2 -0.2 0.2
v -0.1 -0.2 0.2
v 0 -0.2 0.2
v 0.1 -0.2 0.2
v 0.3 -0.2 0.2
v 0.4 -0.2 0.2
v -0.3 -0.2 0.1
v -0.2 -0.2 0.1
v -0.1 -0.2 0.1
v 0 -0.2 0.1
v 0.1 -0.2 0.1
v -0.2 -0.2 0
v -0.1 -0.2 0
v 0 -0.2 0
v 0.1 -0.2 0
v 0.2 -0.2 0
v -0.1 -0.2 -0.1
v 0 -0.2 -0.1
v 0.1 -0.2 -0.1
v 0.2 -0.2 -0.1
v 0.3 -0.2 -0.1
v -0.4 -0.2 -0.2
v -0.3 -0.2 -0.2
v -0.2 -0.2 -0.2
v 0 -0.2 -0.2
v 0.1 -0.2 -0.2
v 0.2 -0.2 -0.2
v 0.3 -0.2 -0.2
v 0.4 -0.2 -0.2
v -0.4 -0.2 -0.3
v -0.3 -0.2 -0.3
v -0.2 -0.2 -0.3
v -0.1 -0.2 -0.3
v 0.3 -0.2 -0.3
v 0.4 -0.2 -0.3
v -0.2 -0.2 -0.4
v -0.1 -0.2 -0.4
v -0.3 -0.1 0
v -0.2 -0.1 0
v -0.1 -0.1 0
v -0.3 -0.1 -0.1
v -0.2 -0.1 -0.1
v -0.1 -0.1 -0.1
v -0.3 -0.1 -0.2
v -0.2 -0.1 -0.2
v -0.1 -0.1 -0.2
v 0.2 0 0.3
v 0.3 0 0.3
v 0.2 0 0.2
v 0.3 0 0.2
v 0.2 0 -0.2
v 0.3 0 -0.2
v 0.2 0 -0.3
v 0.3 0 -0.3
v 0.3 0.1 -0.2
v 0.4 0.1 -0.2
v -0.3 0.1 -0.3
v -0.2 0.1 -0.3
v 0.3 0.1 -0.3
v 0.4 0.1 -0.3
v -0.3 0.1 -0.4
v -0.2 0.1 -0.4
v -0.3 0.2 0.3
v -0.2 0.2 0.3
v -0.3 0.2 0.2
v -0.2 0.2 0.2
v -0.4 0.2 -0.3
v -0.3 0.2 -0.3
v -0.4 0.2 -0.4
v -0.3 0.2 -0.4
v -0.3 0.3 0.4
v -0.2 0.3 0.4
v -0.3 0.3 0.3
v -0.2 0.3 0.3

# faces
f 5/5/1 2/5/1 1/5/1
f 6/5/1 2/5/1 5/5/1
f 7/5/1 4/5/1 3/5/1
f 8/5/1 4/5/1 7/5/1
f 11/5/1 10/5/1 9/5/1
f 12/5/1 10/5/1 11/5/1
f 20/5/1 14/5/1 13/5/1
f 21/5/1 14/5/1 20/5/1
f 22/5/1 14/5/1 21/5/1
f 23/1/1 16/1/1 15/1/1
f 24/4/1 17/4/1 16/4/1
f 24/1/1 16/1/1 23/1/1
f 25/4/1 17/4/1 24/4/1
f 26/5/1 19/5/1 18/5/1
f 27/4/1 24/4/1 23/4/1
f 28/1/1 25/1/1 24/1/1
f 28/4/1 24/4/1 27/4/1
f 29/1/1 25/1/1 28/1/1
f 30/5/1 19/5/1 26/5/1
f 31/5/1 19/5/1 30/5/1
f 33/5/1 21/5/1 20/5/1
f 34/5/1 21/5/1 33/5/1
f 35/5/1 33/5/1 32/5/1
f 36/5/1 33/5/1 35/5/1
f 39/1/1 38/1/1 37/1/1
f 40/1/1 38/1/1 39/1/1
f 43/2/1 42/2/1 41/2/1
f 44/2/1 42/2/1 43/2/1
f 47/5/1 46/5/1 45/5/1
f 48/5/1 46/5/1 47/5/1
f 53/5/1 50/5/1 49/5/1
f 54/5/1 52/5/1 51/5/1
f 55/5/1 50/5/1 53/5/1
f 56/5/1 50/5/1 55/5/1
f 57/5/1 52/5/1 54/5/1
f 58/5/1 52/5/1 57/5/1
f 61/5/1 60/5/1 59/5/1
f 62/5/1 60/5/1 61/5/1
f 63/5/2 64/5/2 65/5/2
f 65/5/2 64/5/2 66/5/2
f 67/5/2 68/5/2 69/5/2
f 69/5/2 68/5/2 70/5/2
f 71/5/2 72/5/2 75/5/2
f 75/5/2 72/5/2 76/5/2
f 76/5/2 77/5/2 78/5/2
f 78/5/2 77/5/2 79/5/2
f 73/5/2 74/5/2 81/5/2
f 81/5/2 74/5/2 82/5/2
f 80/5/2 81/5/2 83/5/2
f 83/5/2 81/5/2 84/5/2
f 85/5/2 86/5/2 91/5/2
f 91/5/2 86/5/2 92/5/2
f 87/4/2 88/4/2 94/4/2
f 89/5/2 90/5/2 95/5/2
f 95/5/2 90/5/2 96/5/2
f 93/1/2 94/1/2 97/1/2
f 94/4/2 88/4/2 98/4/2
f 97/1/2 94/1/2 98/1/2
f 98/4/2 88/4/2 99/4/2
f 100/1/2 101/1/2 103/1/2
f 101/2/2 102/2/2 104/2/2
f 103/1/2 101/1/2 104/1/2
f 104/2/2 102/2/2 105/2/2
f 106/4/2 107/4/2 108/4/2
f 108/4/2 107/4/2 109/4/2
f 110/5/2 111/5/2 114/5/2
f 114/5/2 111/5/2 115/5/2
f 112/1/2 113/1/2 117/1/2
f 117/1/2 113/1/2 118/1/2
f 115/5/2 116/5/2 120/5/2
f 120/5/2 116/5/2 121/5/2
f 118/5/2 119/5/2 122/5/2
f 122/5/2 119/5/2 123/5/2
f 124/5/2 125/5/2 128/5/2
f 128/5/2 125/5/2 129/5/2
f 126/5/2 127/5/2 130/5/2
f 130/5/2 127/5/2 131/5/2
f 132/5/2 133/5/2 134/5/2
f 134/5/2 133/5/2 135/5/2
f 138/5/3 137/5/3 136/5/3
f 139/5/3 137/5/3 138/5/3
f 142/5/3 141/5/3 140/5/3
f 143/5/3 141/5/3 142/5/3
f 146/5/3 145/5/3 144/5/3
f 147/5/3 145/5/3 146/5/3
f 151/5/3 149/5/3 148/5/3
f 151/5/3 150/5/3 149/5/3
f 152/5/3 150/5/3 151/5/3
f 153/5/3 151/5/3 148/5/3
f 154/5/3 151/5/3 153/5/3
f 158/5/3 156/5/3 155/5/3
f 159/5/3 156/5/3 158/5/3
f 160/5/3 158/5/3 157/5/3
f 161/5/3 158/5/3 160/5/3
f 164/3/3 163/3/3 162/3/3
f 165/3/3 163/3/3 164/3/3
f 166/1/3 165/1/3 164/1/3
f 167/1/3 165/1/3 166/1/3
f 171/1/3 169/1/3 168/1/3
f 172/4/3 170/4/3 169/4/3
f 172/1/3 169/1/3 171/1/3
f 173/4/3 170/4/3 172/4/3
f 174/1/3 173/1/3 172/1/3
f 175/1/3 173/1/3 174/1/3
f 178/4/3 177/4/3 176/4/3
f 179/4/3 177/4/3 178/4/3
f 182/1/3 181/1/3 180/1/3
f 183/1/3 181/1/3 182/1/3
f 186/5/3 185/5/3 184/5/3
f 187/5/3 185/5/3 186/5/3
f 191/5/3 189/5/3 188/5/3
f 192/5/3 189/5/3 191/5/3
f 194/5/3 191/5/3 190/5/3
f 195/5/3 191/5/3 194/5/3
f 196/5/3 193/5/3 192/5/3
f 197/5/3 193/5/3 196/5/3
f 201/5/3 199/5/3 198/5/3
f 202/5/3 199/5/3 201/5/3
f 204/5/3 201/5/3 200/5/3
f 205/5/3 201/5/3 204/5/3
f 206/5/3 204/5/3 203/5/3
f 207/5/3 204/5/3 206/5/3
f 208/5/4 209/5/4 210/5/4
f 210/5/4 209/5/4 211/5/4
f 212/5/4 213/5/4 214/5/4
f 214/5/4 213/5/4 215/5/4
f 216/5/4 217/5/4 218/5/4
f 218/5/4 217/5/4 219/5/4
f 220/5/4 221/5/4 222/5/4
f 222/5/4 221/5/4 223/5/4
f 224/5/4 225/5/4 226/5/4
f 226/5/4 225/5/4 227/5/4
f 224/5/4 226/5/4 228/5/4
f 228/5/4 226/5/4 229/5/4
f 230/5/4 231/5/4 232/5/4
f 232/5/4 231/5/4 233/5/4
f 234/1/4 235/1/4 236/1/4
f 236/1/4 235/1/4 237/1/4
f 238/1/4 239/1/4 241/1/4
f 241/1/4 239/1/4 242/1/4
f 240/4/4 241/4/4 243/4/4
f 241/4/4 242/4/4 243/4/4
f 243/4/4 242/4/4 244/4/4
f 245/2/4 246/2/4 247/2/4
f 247/2/4 246/2/4 248/2/4
f 247/5/4 248/5/4 249/5/4
f 249/5/4 248/5/4 250/5/4
f 251/5/4 252/5/4 253/5/4
f 253/5/4 252/5/4 254/5/4
f 255/5/4 256/5/4 257/5/4
f 257/5/4 256/5/4 258/5/4
f 255/5/4 257/5/4 260/5/4
f 260/5/4 257/5/4 261/5/4
f 258/5/4 259/5/4 262/5/4
f 262/5/4 259/5/4 263/5/4
f 264/5/4 265/5/4 267/5/4
f 267/5/4 265/5/4 268/5/4
f 266/5/4 267/5/4 269/5/4
f 269/5/4 267/5/4 270/5/4
f 266/5/4 269/5/4 271/5/4
f 271/5/4 269/5/4 272/5/4
f 277/5/5 274/5/5 273/5/5
f 278/5/5 274/5/5 277/5/5
f 280/5/5 276/5/5 275/5/5
f 281/5/5 276/5/5 280/5/5
f 282/5/5 276/5/5 281/5/5
f 284/5/5 279/5/5 278/5/5
f 285/5/5 279/5/5 284/5/5
f 288/5/5 283/5/5 282/5/5
f 288/5/5 282/5/5 281/5/5
f 289/5/5 283/5/5 288/5/5
f 290/5/5 284/5/5 278/5/5
f 291/2/5 285/2/5 284/2/5
f 291/5/5 284/5/5 290/5/5
f 292/3/5 286/3/5 285/3/5
f 292/2/5 285/2/5 291/2/5
f 293/1/5 287/1/5 286/1/5
f 293/3/5 286/3/5 292/3/5
f 294/1/5 287/1/5 293/1/5
f 296/1/5 292/1/5 291/1/5
f 297/4/5 293/4/5 292/4/5
f 297/1/5 292/1/5 296/1/5
f 298/2/5 294/2/5 293/2/5
f 298/4/5 293/4/5 297/4/5
f 299/2/5 294/2/5 298/2/5
f 301/1/5 296/1/5 295/1/5
f 302/4/5 297/4/5 296/4/5
f 302/1/5 296/1/5 301/1/5
f 303/1/5 299/1/5 298/1/5
f 303/4/5 297/4/5 302/4/5
f 303/1/5 298/1/5 297/1/5
f 304/1/5 299/1/5 303/1/5
f 305/4/5 300/4/5 299/4/5
f 305/1/5 299/1/5 304/1/5
f 306/4/5 300/4/5 305/4/5
f 309/4/5 302/4/5 301/4/5
f 309/4/5 303/4/5 302/4/5
f 310/4/5 303/4/5 309/4/5
f 311/4/5 303/4/5 310/4/5
f 312/2/5 305/2/5 304/2/5
f 313/5/5 306/5/5 305/5/5
f 313/2/5 305/2/5 312/2/5
f 314/1/5 307/1/5 306/1/5
f 314/5/5 306/5/5 313/5/5
f 315/1/5 307/1/5 314/1/5
f 317/5/5 309/5/5 308/5/5
f 317/5/5 310/5/5 309/5/5
f 318/5/5 310/5/5 317/5/5
f 319/5/5 310/5/5 318/5/5
f 321/5/5 316/5/5 315/5/5
f 321/5/5 315/5/5 314/5/5
f 322/5/5 316/5/5 321/5/5
f 323/5/5 320/5/5 319/5/5
f 323/5/5 319/5/5 318/5/5
f 324/5/5 320/5/5 323/5/5
f 327/5/5 326/5/5 325/5/5
f 328/5/5 326/5/5 327/5/5
f 331/5/5 330/5/5 329/5/5
f 332/5/5 330/5/5 331/5/5
f 335/5/5 334/5/5 333/5/5
f 336/5/5 334/5/5 335/5/5
f 337/5/6 338/5/6 341/5/6
f 341/5/6 338/5/6 342/5/6
f 339/5/6 340/5/6 345/5/6
f 345/5/6 340/5/6 346/5/6
f 346/5/6 340/5/6 347/5/6
f 343/5/6 344/5/6 350/5/6
f 350/5/6 344/5/6 351/5/6
f 347/5/6 348/5/6 354/5/6
f 354/5/6 348/5/6 355/5/6
f 349/5/6 350/5/6 356/5/6
f 350/2/6 351/2/6 357/2/6
f 356/5/6 350/5/6 357/5/6
f 351/3/6 352/3/6 358/3/6
f 357/2/6 351/2/6 358/2/6
f 352/1/6 353/1/6 359/1/6
f 358/3/6 352/3/6 359/3/6
f 359/1/6 353/1/6 360/1/6
f 357/1/6 358/1/6 361/1/6
f 358/4/6 359/4/6 362/4/6
f 361/1/6 358/1/6 362/1/6
f 359/2/6 360/2/6 363/2/6
f 362/4/6 359/4/6 363/4/6
f 363/2/6 360/2/6 364/2/6
f 363/1/6 364/1/6 366/1/6
f 362/1/6 363/1/6 366/1/6
f 366/1/6 364/1/6 367/1/6
f 364/4/6 365/4/6 368/4/6
f 367/1/6 364/1/6 368/1/6
f 368/4/6 365/4/6 369/4/6
f 367/2/6 368/2/6 374/2/6
f 368/5/6 369/5/6 375/5/6
f 374/2/6 368/2/6 375/2/6
f 369/1/6 370/1/6 376/1/6
f 375/5/6 369/5/6 376/5/6
f 376/1/6 370/1/6 377/1/6
f 372/5/6 373/5/6 379/5/6
f 371/5/6 372/5/6 379/5/6
f 379/5/6 373/5/6 380/5/6
f 380/5/6 373/5/6 381/5/6
f 377/5/6 378/5/6 383/5/6
f 383/5/6 378/5/6 384/5/6
f 381/5/6 382/5/6 385/5/6
f 385/5/6 382/5/6 386/5/6
f 387/4/6 388/4/6 390/4/6
f 388/1/6 389/1/6 391/1/6
f 390/4/6 388/4/6 391/4/6
f 391/1/6 389/1/6 392/1/6
f 390/1/6 391/1/6 393/1/6
f 391/4/6 392/4/6 394/4/6
f 393/1/6 391/1/6 394/1/6
f 394/4/6 392/4/6 395/4/6
f 396/5/6 397/5/6 398/5/6
f 398/5/6 397/5/6 399/5/6
f 400/5/6 401/5/6 402/5/6
f 402/5/6 401/5/6 403/5/6
f 404/5/6 405/5/6 408/5/6
f 408/5/6 405/5/6 409/5/6
f 406/5/6 407/5/6 410/5/6
f 410/5/6 407/5/6 411/5/6
f 412/5/6 413/5/6 414/5/6
f 414/5/6 413/5/6 415/5/6
f 416/5/6 417/5/6 418/5/6
f 418/5/6 417/5/6 419/5/6
f 420/5/6 421/5/6 422/5/6
f 422/5/6 421/5/6 423/5/6
