# MagicaVoxel @ Ephtracy

# group
o 

# material
mtllib NPC3_leftleg_1.mtl
usemtl palette

# normals
vn -1 0 0
vn 1 0 0
vn 0 0 1
vn 0 0 -1
vn 0 -1 0
vn 0 1 0

# texcoords
vt 0.732422 0.5
vt 0.783203 0.5
vt 0.791016 0.5
vt 0.798828 0.5

# verts
v -0.8 -2.2 0.8
v -0.8 -2.2 -0.8
v -0.8 -1.8 0.8
v -0.8 -1.8 -0.8
v -0.8 -1.4 0.8
v -0.8 -1.4 -0.8
v -0.8 0 0.8
v -0.8 0 -0.8
v 0.8 -2.2 0.8
v 0.8 -2.2 -0.8
v 0.8 -1.8 0.8
v 0.8 -1.8 -0.8
v 0.8 -1.4 0.8
v 0.8 -1.4 -0.8
v 0.8 0 0.8
v 0.8 0 -0.8
v -0.8 -2.2 0.8
v -0.8 -1.8 0.8
v -0.8 -1.4 0.8
v -0.8 0 0.8
v 0.8 -2.2 0.8
v 0.8 -1.8 0.8
v 0.8 -1.4 0.8
v 0.8 0 0.8
v -0.8 -2.2 -0.8
v -0.8 -1.8 -0.8
v -0.8 -1.4 -0.8
v -0.8 0 -0.8
v 0.8 -2.2 -0.8
v 0.8 -1.8 -0.8
v 0.8 -1.4 -0.8
v 0.8 0 -0.8
v -0.8 -2.2 0.8
v 0.8 -2.2 0.8
v -0.8 -2.2 -0.8
v 0.8 -2.2 -0.8
v -0.8 0 0.8
v 0.8 0 0.8
v -0.8 0 -0.8
v 0.8 0 -0.8

# faces
f 3/4/1 2/4/1 1/4/1
f 4/4/1 2/4/1 3/4/1
f 5/2/1 4/2/1 3/2/1
f 6/2/1 4/2/1 5/2/1
f 7/1/1 6/1/1 5/1/1
f 8/1/1 6/1/1 7/1/1
f 9/4/2 10/4/2 11/4/2
f 11/4/2 10/4/2 12/4/2
f 11/2/2 12/2/2 13/2/2
f 13/2/2 12/2/2 14/2/2
f 13/1/2 14/1/2 15/1/2
f 15/1/2 14/1/2 16/1/2
f 21/4/3 18/4/3 17/4/3
f 22/2/3 19/2/3 18/2/3
f 22/4/3 18/4/3 21/4/3
f 23/1/3 20/1/3 19/1/3
f 23/2/3 19/2/3 22/2/3
f 24/1/3 20/1/3 23/1/3
f 25/4/4 26/4/4 29/4/4
f 26/2/4 27/2/4 30/2/4
f 29/4/4 26/4/4 30/4/4
f 27/1/4 28/1/4 31/1/4
f 30/2/4 27/2/4 31/2/4
f 31/1/4 28/1/4 32/1/4
f 35/4/5 34/4/5 33/4/5
f 36/4/5 34/4/5 35/4/5
f 37/1/6 38/1/6 39/1/6
f 39/1/6 38/1/6 40/1/6
