# MagicaVoxel @ Ephtracy

# group
o 

# material
mtllib dirt_1.mtl
usemtl palette

# normals
vn -1 0 0
vn 1 0 0
vn 0 0 1
vn 0 0 -1
vn 0 -1 0
vn 0 1 0

# texcoords
vt 0.501953 0.5
vt 0.505859 0.5

# verts
v -0.4 -0.4 0.3
v -0.4 -0.4 0
v -0.4 -0.1 0.3
v -0.4 -0.1 0.1
v -0.4 -0.1 0
v -0.4 -0.1 -0.4
v -0.4 0.4 0.1
v -0.4 0.4 -0.4
v -0.3 -0.3 0
v -0.3 -0.3 -0.3
v -0.3 -0.1 0.2
v -0.3 -0.1 0.1
v -0.3 -0.1 0
v -0.3 -0.1 -0.3
v -0.3 0.3 0.2
v -0.3 0.3 0.1
v 0 -0.4 0.3
v 0 -0.4 -0.2
v 0 -0.3 0.2
v 0 -0.3 -0.2
v 0 0 0.3
v 0 0 0.2
v 0.1 0.3 0.1
v 0.1 0.3 -0.3
v 0.1 0.4 0.1
v 0.1 0.4 -0.3
v -0.1 -0.4 0.3
v -0.1 -0.4 0
v -0.1 -0.3 0.2
v -0.1 -0.3 0
v -0.1 -0.1 0.3
v -0.1 -0.1 0.2
v 0 -0.1 -0.3
v 0 -0.1 -0.4
v 0 0.3 0.1
v 0 0.3 -0.3
v 0 0.4 0.1
v 0 0.4 -0.4
v 0.2 -0.4 -0.1
v 0.2 -0.4 -0.2
v 0.2 -0.3 -0.1
v 0.2 -0.3 -0.2
v 0.3 -0.3 -0.1
v 0.3 -0.3 -0.3
v 0.3 0 0.2
v 0.3 0 0.1
v 0.3 0 -0.1
v 0.3 0 -0.3
v 0.3 0.3 0.2
v 0.3 0.3 0.1
v 0.4 -0.4 0.3
v 0.4 -0.4 -0.1
v 0.4 0 0.3
v 0.4 0 0.1
v 0.4 0 -0.1
v 0.4 0 -0.3
v 0.4 0.4 0.1
v 0.4 0.4 -0.3
v -0.4 -0.4 0.3
v -0.4 -0.1 0.3
v -0.1 -0.4 0.3
v -0.1 -0.1 0.3
v 0 -0.4 0.3
v 0 0 0.3
v 0.4 -0.4 0.3
v 0.4 0 0.3
v -0.3 -0.1 0.2
v -0.3 0.3 0.2
v -0.1 -0.3 0.2
v -0.1 -0.1 0.2
v 0 -0.3 0.2
v 0 0 0.2
v 0.3 0 0.2
v 0.3 0.3 0.2
v -0.4 -0.1 0.1
v -0.4 0.4 0.1
v -0.3 -0.1 0.1
v -0.3 0.3 0.1
v 0 0.3 0.1
v 0 0.4 0.1
v 0.1 0.3 0.1
v 0.1 0.4 0.1
v 0.3 0 0.1
v 0.3 0.3 0.1
v 0.4 0 0.1
v 0.4 0.4 0.1
v -0.4 -0.4 0
v -0.4 -0.1 0
v -0.3 -0.3 0
v -0.3 -0.1 0
v -0.1 -0.4 0
v -0.1 -0.3 0
v 0.2 -0.4 -0.1
v 0.2 -0.3 -0.1
v 0.3 -0.3 -0.1
v 0.3 0 -0.1
v 0.4 -0.4 -0.1
v 0.4 0 -0.1
v 0 -0.4 -0.2
v 0 -0.3 -0.2
v 0.2 -0.4 -0.2
v 0.2 -0.3 -0.2
v -0.3 -0.3 -0.3
v -0.3 -0.1 -0.3
v 0 -0.1 -0.3
v 0 0.3 -0.3
v 0.1 0 -0.3
v 0.1 0.3 -0.3
v 0.1 0.4 -0.3
v 0.3 -0.3 -0.3
v 0.3 0 -0.3
v 0.4 0 -0.3
v 0.4 0.4 -0.3
v -0.4 -0.1 -0.4
v -0.4 0.4 -0.4
v 0 -0.1 -0.4
v 0 0.4 -0.4
v -0.4 -0.4 0.3
v -0.1 -0.4 0.3
v 0 -0.4 0.3
v 0.4 -0.4 0.3
v -0.4 -0.4 0
v -0.1 -0.4 0
v 0.2 -0.4 -0.1
v 0.4 -0.4 -0.1
v 0 -0.4 -0.2
v 0.2 -0.4 -0.2
v -0.1 -0.3 0.2
v 0 -0.3 0.2
v -0.3 -0.3 0
v -0.1 -0.3 0
v 0.2 -0.3 -0.1
v 0.3 -0.3 -0.1
v 0 -0.3 -0.2
v 0.2 -0.3 -0.2
v -0.3 -0.3 -0.3
v 0.3 -0.3 -0.3
v -0.4 -0.1 0
v -0.3 -0.1 0
v -0.3 -0.1 -0.3
v 0 -0.1 -0.3
v -0.4 -0.1 -0.4
v 0 -0.1 -0.4
v 0.3 0 -0.1
v 0.4 0 -0.1
v 0.3 0 -0.3
v 0.4 0 -0.3
v -0.4 -0.1 0.3
v -0.1 -0.1 0.3
v -0.3 -0.1 0.2
v -0.1 -0.1 0.2
v -0.4 -0.1 0.1
v -0.3 -0.1 0.1
v 0 0 0.3
v 0.4 0 0.3
v 0 0 0.2
v 0.3 0 0.2
v 0.3 0 0.1
v 0.4 0 0.1
v -0.3 0.3 0.2
v 0.3 0.3 0.2
v -0.3 0.3 0.1
v 0 0.3 0.1
v 0.1 0.3 0.1
v 0.3 0.3 0.1
v 0 0.3 -0.3
v 0.1 0.3 -0.3
v -0.4 0.4 0.1
v 0 0.4 0.1
v 0.1 0.4 0.1
v 0.4 0.4 0.1
v 0.1 0.4 -0.3
v 0.4 0.4 -0.3
v -0.4 0.4 -0.4
v 0 0.4 -0.4

# faces
f 3/2/1 2/2/1 1/2/1
f 4/2/1 2/2/1 3/2/1
f 5/2/1 2/2/1 4/2/1
f 7/1/1 6/1/1 5/1/1
f 7/1/1 5/1/1 4/1/1
f 8/1/1 6/1/1 7/1/1
f 13/1/1 10/1/1 9/1/1
f 14/1/1 10/1/1 13/1/1
f 15/1/1 12/1/1 11/1/1
f 16/1/1 12/1/1 15/1/1
f 19/1/1 18/1/1 17/1/1
f 20/1/1 18/1/1 19/1/1
f 21/1/1 19/1/1 17/1/1
f 22/1/1 19/1/1 21/1/1
f 25/2/1 24/2/1 23/2/1
f 26/2/1 24/2/1 25/2/1
f 27/2/2 28/2/2 29/2/2
f 29/2/2 28/2/2 30/2/2
f 27/2/2 29/2/2 31/2/2
f 31/2/2 29/2/2 32/2/2
f 33/1/2 34/1/2 36/1/2
f 35/1/2 36/1/2 37/1/2
f 36/1/2 34/1/2 38/1/2
f 37/1/2 36/1/2 38/1/2
f 39/1/2 40/1/2 41/1/2
f 41/1/2 40/1/2 42/1/2
f 43/1/2 44/1/2 47/1/2
f 47/1/2 44/1/2 48/1/2
f 45/1/2 46/1/2 49/1/2
f 49/1/2 46/1/2 50/1/2
f 51/1/2 52/1/2 53/1/2
f 53/1/2 52/1/2 54/1/2
f 54/1/2 52/1/2 55/1/2
f 55/2/2 56/2/2 57/2/2
f 54/2/2 55/2/2 57/2/2
f 57/2/2 56/2/2 58/2/2
f 61/2/3 60/2/3 59/2/3
f 62/2/3 60/2/3 61/2/3
f 65/1/3 64/1/3 63/1/3
f 66/1/3 64/1/3 65/1/3
f 70/1/3 68/1/3 67/1/3
f 71/1/3 70/1/3 69/1/3
f 72/1/3 68/1/3 70/1/3
f 72/1/3 70/1/3 71/1/3
f 73/1/3 68/1/3 72/1/3
f 74/1/3 68/1/3 73/1/3
f 77/1/3 76/1/3 75/1/3
f 78/1/3 76/1/3 77/1/3
f 79/1/3 76/1/3 78/1/3
f 80/1/3 76/1/3 79/1/3
f 84/2/3 82/2/3 81/2/3
f 85/2/3 84/2/3 83/2/3
f 86/2/3 82/2/3 84/2/3
f 86/2/3 84/2/3 85/2/3
f 87/2/4 88/2/4 89/2/4
f 89/2/4 88/2/4 90/2/4
f 87/2/4 89/2/4 91/2/4
f 91/2/4 89/2/4 92/2/4
f 93/1/4 94/1/4 95/1/4
f 93/1/4 95/1/4 97/1/4
f 95/1/4 96/1/4 97/1/4
f 97/1/4 96/1/4 98/1/4
f 99/1/4 100/1/4 101/1/4
f 101/1/4 100/1/4 102/1/4
f 103/1/4 104/1/4 105/1/4
f 105/1/4 106/1/4 107/1/4
f 107/1/4 106/1/4 108/1/4
f 103/1/4 105/1/4 110/1/4
f 105/1/4 107/1/4 110/1/4
f 108/2/4 109/2/4 111/2/4
f 110/1/4 107/1/4 111/1/4
f 107/2/4 108/2/4 111/2/4
f 111/2/4 109/2/4 112/2/4
f 112/2/4 109/2/4 113/2/4
f 114/1/4 115/1/4 116/1/4
f 116/1/4 115/1/4 117/1/4
f 122/2/5 119/2/5 118/2/5
f 123/2/5 119/2/5 122/2/5
f 124/1/5 121/1/5 120/1/5
f 125/1/5 121/1/5 124/1/5
f 126/1/5 124/1/5 120/1/5
f 127/1/5 124/1/5 126/1/5
f 131/1/5 129/1/5 128/1/5
f 134/1/5 129/1/5 131/1/5
f 134/1/5 131/1/5 130/1/5
f 135/1/5 133/1/5 132/1/5
f 136/1/5 134/1/5 130/1/5
f 136/1/5 135/1/5 134/1/5
f 137/1/5 133/1/5 135/1/5
f 137/1/5 135/1/5 136/1/5
f 140/1/5 139/1/5 138/1/5
f 142/1/5 140/1/5 138/1/5
f 142/1/5 141/1/5 140/1/5
f 143/1/5 141/1/5 142/1/5
f 146/2/5 145/2/5 144/2/5
f 147/2/5 145/2/5 146/2/5
f 148/2/6 149/2/6 150/2/6
f 150/2/6 149/2/6 151/2/6
f 148/2/6 150/2/6 152/2/6
f 152/2/6 150/2/6 153/2/6
f 154/1/6 155/1/6 156/1/6
f 156/1/6 155/1/6 157/1/6
f 157/1/6 155/1/6 158/1/6
f 158/1/6 155/1/6 159/1/6
f 160/1/6 161/1/6 162/1/6
f 162/1/6 161/1/6 163/1/6
f 163/1/6 161/1/6 164/1/6
f 164/1/6 161/1/6 165/1/6
f 163/1/6 164/1/6 166/1/6
f 166/1/6 164/1/6 167/1/6
f 170/2/6 171/2/6 172/2/6
f 172/2/6 171/2/6 173/2/6
f 168/1/6 169/1/6 174/1/6
f 174/1/6 169/1/6 175/1/6
