# MagicaVoxel @ Ephtracy

# group
o 

# material
mtllib Butterfly_2.mtl
usemtl palette

# normals
vn -1 0 0
vn 1 0 0
vn 0 0 1
vn 0 0 -1
vn 0 -1 0
vn 0 1 0

# texcoords
vt 0.908203 0.5
vt 0.939453 0.5
vt 0.943359 0.5
vt 0.947266 0.5
vt 0.951172 0.5
vt 0.955078 0.5
vt 0.958984 0.5

# verts
v -0.4 0.2 0
v -0.4 0.2 -0.1
v -0.4 0.4 0
v -0.4 0.4 -0.1
v -0.4 0.6 0
v -0.4 0.6 -0.1
v -0.3 0.1 0
v -0.3 0.1 -0.1
v -0.3 0.2 0
v -0.3 0.2 -0.1
v -0.3 0.6 0
v -0.3 0.6 -0.1
v -0.3 0.7 0
v -0.3 0.7 -0.1
v -0.2 0.7 0
v -0.2 0.7 -0.1
v -0.2 0.8 0
v -0.2 0.8 -0.1
v -0.1 -0.7 0
v -0.1 -0.7 -0.1
v -0.1 -0.6 0
v -0.1 -0.6 -0.1
v -0.1 -0.4 0
v -0.1 -0.4 -0.1
v -0.1 0 0
v -0.1 0 -0.1
v -0.1 0.1 0
v -0.1 0.1 -0.1
v 0 -0.8 0
v 0 -0.8 -0.1
v 0 -0.7 0
v 0 -0.7 -0.1
v 0 -0.4 0
v 0 -0.4 -0.1
v 0 -0.3 0
v 0 -0.3 -0.1
v 0.1 -0.3 0
v 0.1 -0.3 -0.1
v 0.1 -0.2 0
v 0.1 -0.2 -0.1
v 0.1 -0.1 0
v 0.1 -0.1 -0.1
v 0.1 0 0
v 0.1 0 -0.1
v 0.2 -0.2 0
v 0.2 -0.2 -0.1
v 0.2 -0.1 0
v 0.2 -0.1 -0.1
v 0.2 0.8 0
v 0.2 0.8 -0.1
v 0.2 0.9 0
v 0.2 0.9 -0.1
v 0.3 0.7 0
v 0.3 0.7 -0.1
v 0.3 0.8 0
v 0.3 0.8 -0.1
v 0.4 -0.8 0
v 0.4 -0.8 -0.1
v 0.4 -0.7 0
v 0.4 -0.7 -0.1
v 0.4 0.5 0
v 0.4 0.5 -0.1
v 0.4 0.7 0
v 0.4 0.7 -0.1
v 0.1 0.7 0
v 0.1 0.7 -0.1
v 0.1 0.8 0
v 0.1 0.8 -0.1
v 0.2 0.6 0
v 0.2 0.6 -0.1
v 0.2 0.7 0
v 0.2 0.7 -0.1
v 0.3 -0.8 0
v 0.3 -0.8 -0.1
v 0.3 -0.7 0
v 0.3 -0.7 -0.1
v 0.3 0.5 0
v 0.3 0.5 -0.1
v 0.3 0.6 0
v 0.3 0.6 -0.1
v 0.3 0.8 0
v 0.3 0.8 -0.1
v 0.3 0.9 0
v 0.3 0.9 -0.1
v 0.4 0.7 0
v 0.4 0.7 -0.1
v 0.4 0.8 0
v 0.4 0.8 -0.1
v 0.5 -0.8 0
v 0.5 -0.8 -0.1
v 0.5 -0.6 0
v 0.5 -0.6 -0.1
v 0.5 -0.4 0
v 0.5 -0.4 -0.1
v 0.5 -0.3 0
v 0.5 -0.3 -0.1
v 0.5 0.1 0
v 0.5 0.1 -0.1
v 0.5 0.2 0
v 0.5 0.2 -0.1
v 0.5 0.3 0
v 0.5 0.3 -0.1
v 0.5 0.5 0
v 0.5 0.5 -0.1
v 0.5 0.7 0
v 0.5 0.7 -0.1
v -0.4 0.2 0
v -0.4 0.4 0
v -0.4 0.6 0
v -0.3 0.1 0
v -0.3 0.2 0
v -0.3 0.3 0
v -0.3 0.4 0
v -0.3 0.6 0
v -0.3 0.7 0
v -0.2 0.2 0
v -0.2 0.3 0
v -0.2 0.6 0
v -0.2 0.7 0
v -0.2 0.8 0
v -0.1 -0.7 0
v -0.1 -0.6 0
v -0.1 -0.4 0
v -0.1 0 0
v -0.1 0.1 0
v -0.1 0.2 0
v -0.1 0.3 0
v -0.1 0.5 0
v -0.1 0.6 0
v -0.1 0.7 0
v -0.1 0.8 0
v 0 -0.8 0
v 0 -0.7 0
v 0 -0.6 0
v 0 -0.5 0
v 0 -0.4 0
v 0 -0.3 0
v 0 0.5 0
v 0 0.6 0
v 0 0.7 0
v 0.1 -0.8 0
v 0.1 -0.7 0
v 0.1 -0.6 0
v 0.1 -0.5 0
v 0.1 -0.4 0
v 0.1 -0.3 0
v 0.1 -0.2 0
v 0.1 -0.1 0
v 0.1 0 0
v 0.1 0.1 0
v 0.1 0.2 0
v 0.1 0.3 0
v 0.1 0.4 0
v 0.1 0.5 0
v 0.1 0.6 0
v 0.1 0.7 0
v 0.1 0.8 0
v 0.2 -0.8 0
v 0.2 -0.7 0
v 0.2 -0.6 0
v 0.2 -0.5 0
v 0.2 -0.4 0
v 0.2 -0.3 0
v 0.2 -0.2 0
v 0.2 -0.1 0
v 0.2 0 0
v 0.2 0.1 0
v 0.2 0.2 0
v 0.2 0.4 0
v 0.2 0.5 0
v 0.2 0.6 0
v 0.2 0.7 0
v 0.2 0.8 0
v 0.2 0.9 0
v 0.3 -0.8 0
v 0.3 -0.7 0
v 0.3 -0.6 0
v 0.3 -0.5 0
v 0.3 -0.4 0
v 0.3 -0.3 0
v 0.3 -0.2 0
v 0.3 -0.1 0
v 0.3 0 0
v 0.3 0.1 0
v 0.3 0.2 0
v 0.3 0.4 0
v 0.3 0.5 0
v 0.3 0.6 0
v 0.3 0.7 0
v 0.3 0.8 0
v 0.3 0.9 0
v 0.4 -0.8 0
v 0.4 -0.7 0
v 0.4 -0.6 0
v 0.4 -0.5 0
v 0.4 -0.4 0
v 0.4 -0.3 0
v 0.4 -0.2 0
v 0.4 -0.1 0
v 0.4 0 0
v 0.4 0.1 0
v 0.4 0.2 0
v 0.4 0.3 0
v 0.4 0.4 0
v 0.4 0.5 0
v 0.4 0.7 0
v 0.4 0.8 0
v 0.5 -0.8 0
v 0.5 -0.6 0
v 0.5 -0.4 0
v 0.5 -0.3 0
v 0.5 0.1 0
v 0.5 0.2 0
v 0.5 0.3 0
v 0.5 0.5 0
v 0.5 0.7 0
v -0.4 0.2 -0.1
v -0.4 0.4 -0.1
v -0.4 0.6 -0.1
v -0.3 0.1 -0.1
v -0.3 0.2 -0.1
v -0.3 0.3 -0.1
v -0.3 0.4 -0.1
v -0.3 0.6 -0.1
v -0.3 0.7 -0.1
v -0.2 0.2 -0.1
v -0.2 0.3 -0.1
v -0.2 0.6 -0.1
v -0.2 0.7 -0.1
v -0.2 0.8 -0.1
v -0.1 -0.7 -0.1
v -0.1 -0.6 -0.1
v -0.1 -0.4 -0.1
v -0.1 0 -0.1
v -0.1 0.1 -0.1
v -0.1 0.2 -0.1
v -0.1 0.3 -0.1
v -0.1 0.5 -0.1
v -0.1 0.6 -0.1
v -0.1 0.7 -0.1
v -0.1 0.8 -0.1
v 0 -0.8 -0.1
v 0 -0.7 -0.1
v 0 -0.6 -0.1
v 0 -0.5 -0.1
v 0 -0.4 -0.1
v 0 -0.3 -0.1
v 0 0.5 -0.1
v 0 0.6 -0.1
v 0 0.7 -0.1
v 0.1 -0.8 -0.1
v 0.1 -0.7 -0.1
v 0.1 -0.6 -0.1
v 0.1 -0.5 -0.1
v 0.1 -0.4 -0.1
v 0.1 -0.3 -0.1
v 0.1 -0.2 -0.1
v 0.1 -0.1 -0.1
v 0.1 0 -0.1
v 0.1 0.1 -0.1
v 0.1 0.2 -0.1
v 0.1 0.3 -0.1
v 0.1 0.4 -0.1
v 0.1 0.5 -0.1
v 0.1 0.6 -0.1
v 0.1 0.7 -0.1
v 0.1 0.8 -0.1
v 0.2 -0.8 -0.1
v 0.2 -0.7 -0.1
v 0.2 -0.6 -0.1
v 0.2 -0.5 -0.1
v 0.2 -0.4 -0.1
v 0.2 -0.3 -0.1
v 0.2 -0.2 -0.1
v 0.2 -0.1 -0.1
v 0.2 0 -0.1
v 0.2 0.1 -0.1
v 0.2 0.2 -0.1
v 0.2 0.4 -0.1
v 0.2 0.5 -0.1
v 0.2 0.6 -0.1
v 0.2 0.7 -0.1
v 0.2 0.8 -0.1
v 0.2 0.9 -0.1
v 0.3 -0.8 -0.1
v 0.3 -0.7 -0.1
v 0.3 -0.6 -0.1
v 0.3 -0.5 -0.1
v 0.3 -0.4 -0.1
v 0.3 -0.3 -0.1
v 0.3 -0.2 -0.1
v 0.3 -0.1 -0.1
v 0.3 0 -0.1
v 0.3 0.1 -0.1
v 0.3 0.2 -0.1
v 0.3 0.4 -0.1
v 0.3 0.5 -0.1
v 0.3 0.6 -0.1
v 0.3 0.7 -0.1
v 0.3 0.8 -0.1
v 0.3 0.9 -0.1
v 0.4 -0.8 -0.1
v 0.4 -0.7 -0.1
v 0.4 -0.6 -0.1
v 0.4 -0.5 -0.1
v 0.4 -0.4 -0.1
v 0.4 -0.3 -0.1
v 0.4 -0.2 -0.1
v 0.4 -0.1 -0.1
v 0.4 0 -0.1
v 0.4 0.1 -0.1
v 0.4 0.2 -0.1
v 0.4 0.3 -0.1
v 0.4 0.4 -0.1
v 0.4 0.5 -0.1
v 0.4 0.7 -0.1
v 0.4 0.8 -0.1
v 0.5 -0.8 -0.1
v 0.5 -0.6 -0.1
v 0.5 -0.4 -0.1
v 0.5 -0.3 -0.1
v 0.5 0.1 -0.1
v 0.5 0.2 -0.1
v 0.5 0.3 -0.1
v 0.5 0.5 -0.1
v 0.5 0.7 -0.1
v 0 -0.8 0
v 0.1 -0.8 0
v 0.2 -0.8 0
v 0.3 -0.8 0
v 0.4 -0.8 0
v 0.5 -0.8 0
v 0 -0.8 -0.1
v 0.1 -0.8 -0.1
v 0.2 -0.8 -0.1
v 0.3 -0.8 -0.1
v 0.4 -0.8 -0.1
v 0.5 -0.8 -0.1
v -0.1 -0.7 0
v 0 -0.7 0
v 0.3 -0.7 0
v 0.4 -0.7 0
v -0.1 -0.7 -0.1
v 0 -0.7 -0.1
v 0.3 -0.7 -0.1
v 0.4 -0.7 -0.1
v 0.1 -0.1 0
v 0.2 -0.1 0
v 0.1 -0.1 -0.1
v 0.2 -0.1 -0.1
v -0.1 0 0
v 0.1 0 0
v -0.1 0 -0.1
v 0.1 0 -0.1
v -0.3 0.1 0
v -0.1 0.1 0
v -0.3 0.1 -0.1
v -0.1 0.1 -0.1
v -0.4 0.2 0
v -0.3 0.2 0
v -0.4 0.2 -0.1
v -0.3 0.2 -0.1
v 0.3 0.7 0
v 0.4 0.7 0
v 0.3 0.7 -0.1
v 0.4 0.7 -0.1
v 0.2 0.8 0
v 0.3 0.8 0
v 0.2 0.8 -0.1
v 0.3 0.8 -0.1
v -0.1 -0.4 0
v 0 -0.4 0
v -0.1 -0.4 -0.1
v 0 -0.4 -0.1
v 0 -0.3 0
v 0.1 -0.3 0
v 0 -0.3 -0.1
v 0.1 -0.3 -0.1
v 0.1 -0.2 0
v 0.2 -0.2 0
v 0.1 -0.2 -0.1
v 0.2 -0.2 -0.1
v 0.3 0.5 0
v 0.4 0.5 0
v 0.3 0.5 -0.1
v 0.4 0.5 -0.1
v -0.4 0.6 0
v -0.3 0.6 0
v 0.2 0.6 0
v 0.3 0.6 0
v -0.4 0.6 -0.1
v -0.3 0.6 -0.1
v 0.2 0.6 -0.1
v 0.3 0.6 -0.1
v -0.3 0.7 0
v -0.2 0.7 0
v 0.1 0.7 0
v 0.2 0.7 0
v 0.4 0.7 0
v 0.5 0.7 0
v -0.3 0.7 -0.1
v -0.2 0.7 -0.1
v 0.1 0.7 -0.1
v 0.2 0.7 -0.1
v 0.4 0.7 -0.1
v 0.5 0.7 -0.1
v -0.2 0.8 0
v -0.1 0.8 0
v 0.1 0.8 0
v 0.3 0.8 0
v 0.4 0.8 0
v -0.2 0.8 -0.1
v -0.1 0.8 -0.1
v 0.1 0.8 -0.1
v 0.3 0.8 -0.1
v 0.4 0.8 -0.1
v 0.2 0.9 0
v 0.3 0.9 0
v 0.2 0.9 -0.1
v 0.3 0.9 -0.1

# faces
f 3/1/1 2/1/1 1/1/1
f 4/1/1 2/1/1 3/1/1
f 5/2/1 4/2/1 3/2/1
f 6/2/1 4/2/1 5/2/1
f 9/2/1 8/2/1 7/2/1
f 10/2/1 8/2/1 9/2/1
f 13/2/1 12/2/1 11/2/1
f 14/2/1 12/2/1 13/2/1
f 17/1/1 16/1/1 15/1/1
f 18/1/1 16/1/1 17/1/1
f 21/2/1 20/2/1 19/2/1
f 22/2/1 20/2/1 21/2/1
f 23/1/1 22/1/1 21/1/1
f 24/1/1 22/1/1 23/1/1
f 27/2/1 26/2/1 25/2/1
f 28/2/1 26/2/1 27/2/1
f 31/2/1 30/2/1 29/2/1
f 32/2/1 30/2/1 31/2/1
f 35/2/1 34/2/1 33/2/1
f 36/2/1 34/2/1 35/2/1
f 39/1/1 38/1/1 37/1/1
f 40/1/1 38/1/1 39/1/1
f 43/2/1 42/2/1 41/2/1
f 44/2/1 42/2/1 43/2/1
f 47/2/1 46/2/1 45/2/1
f 48/2/1 46/2/1 47/2/1
f 51/1/1 50/1/1 49/1/1
f 52/1/1 50/1/1 51/1/1
f 55/1/1 54/1/1 53/1/1
f 56/1/1 54/1/1 55/1/1
f 59/1/1 58/1/1 57/1/1
f 60/1/1 58/1/1 59/1/1
f 63/2/1 62/2/1 61/2/1
f 64/2/1 62/2/1 63/2/1
f 65/2/2 66/2/2 67/2/2
f 67/2/2 66/2/2 68/2/2
f 69/1/2 70/1/2 71/1/2
f 71/1/2 70/1/2 72/1/2
f 73/2/2 74/2/2 75/2/2
f 75/2/2 74/2/2 76/2/2
f 77/2/2 78/2/2 79/2/2
f 79/2/2 78/2/2 80/2/2
f 81/1/2 82/1/2 83/1/2
f 83/1/2 82/1/2 84/1/2
f 85/1/2 86/1/2 87/1/2
f 87/1/2 86/1/2 88/1/2
f 89/1/2 90/1/2 91/1/2
f 91/1/2 90/1/2 92/1/2
f 91/2/2 92/2/2 93/2/2
f 93/2/2 92/2/2 94/2/2
f 93/1/2 94/1/2 95/1/2
f 95/1/2 94/1/2 96/1/2
f 95/2/2 96/2/2 97/2/2
f 97/2/2 96/2/2 98/2/2
f 97/1/2 98/1/2 99/1/2
f 99/1/2 98/1/2 100/1/2
f 99/2/2 100/2/2 101/2/2
f 101/2/2 100/2/2 102/2/2
f 101/1/2 102/1/2 103/1/2
f 103/1/2 102/1/2 104/1/2
f 103/2/2 104/2/2 105/2/2
f 105/2/2 104/2/2 106/2/2
f 111/1/3 108/1/3 107/1/3
f 112/1/3 108/1/3 111/1/3
f 113/2/3 109/2/3 108/2/3
f 113/1/3 108/1/3 112/1/3
f 114/2/3 109/2/3 113/2/3
f 116/7/3 112/7/3 111/7/3
f 116/2/3 111/2/3 110/2/3
f 117/4/3 114/4/3 113/4/3
f 117/7/3 112/7/3 116/7/3
f 117/4/3 113/4/3 112/4/3
f 118/2/3 115/2/3 114/2/3
f 118/4/3 114/4/3 117/4/3
f 119/2/3 115/2/3 118/2/3
f 125/2/3 116/2/3 110/2/3
f 126/4/3 117/4/3 116/4/3
f 126/2/3 116/2/3 125/2/3
f 127/5/3 118/5/3 117/5/3
f 127/4/3 117/4/3 126/4/3
f 128/5/3 118/5/3 127/5/3
f 129/7/3 119/7/3 118/7/3
f 129/5/3 118/5/3 128/5/3
f 130/1/3 120/1/3 119/1/3
f 130/7/3 119/7/3 129/7/3
f 131/1/3 120/1/3 130/1/3
f 133/2/3 122/2/3 121/2/3
f 134/1/3 123/1/3 122/1/3
f 134/2/3 122/2/3 133/2/3
f 135/1/3 123/1/3 134/1/3
f 136/1/3 123/1/3 135/1/3
f 138/3/3 128/3/3 127/3/3
f 138/7/3 129/7/3 128/7/3
f 139/5/3 130/5/3 129/5/3
f 139/7/3 129/7/3 138/7/3
f 140/2/3 131/2/3 130/2/3
f 140/5/3 130/5/3 139/5/3
f 141/2/3 133/2/3 132/2/3
f 142/7/3 134/7/3 133/7/3
f 142/2/3 133/2/3 141/2/3
f 143/4/3 135/4/3 134/4/3
f 143/7/3 134/7/3 142/7/3
f 144/7/3 136/7/3 135/7/3
f 144/4/3 135/4/3 143/4/3
f 145/2/3 137/2/3 136/2/3
f 145/7/3 136/7/3 144/7/3
f 146/2/3 137/2/3 145/2/3
f 149/2/3 125/2/3 124/2/3
f 150/4/3 126/4/3 125/4/3
f 150/2/3 125/2/3 149/2/3
f 151/5/3 127/5/3 126/5/3
f 151/4/3 126/4/3 150/4/3
f 152/3/3 138/3/3 127/3/3
f 152/5/3 127/5/3 151/5/3
f 153/3/3 138/3/3 152/3/3
f 154/4/3 139/4/3 138/4/3
f 154/3/3 138/3/3 153/3/3
f 155/6/3 140/6/3 139/6/3
f 155/4/3 139/4/3 154/4/3
f 156/2/3 131/2/3 140/2/3
f 156/6/3 140/6/3 155/6/3
f 157/2/3 131/2/3 156/2/3
f 158/1/3 142/1/3 141/1/3
f 159/4/3 143/4/3 142/4/3
f 159/1/3 142/1/3 158/1/3
f 160/5/3 144/5/3 143/5/3
f 160/4/3 143/4/3 159/4/3
f 160/5/3 145/5/3 144/5/3
f 161/5/3 145/5/3 160/5/3
f 162/4/3 146/4/3 145/4/3
f 162/5/3 145/5/3 161/5/3
f 163/1/3 147/1/3 146/1/3
f 163/4/3 146/4/3 162/4/3
f 164/1/3 147/1/3 163/1/3
f 165/2/3 149/2/3 148/2/3
f 166/4/3 150/4/3 149/4/3
f 166/2/3 149/2/3 165/2/3
f 167/5/3 151/5/3 150/5/3
f 167/4/3 150/4/3 166/4/3
f 168/7/3 153/7/3 152/7/3
f 168/5/3 151/5/3 167/5/3
f 168/7/3 152/7/3 151/7/3
f 169/4/3 154/4/3 153/4/3
f 169/7/3 153/7/3 168/7/3
f 170/6/3 155/6/3 154/6/3
f 170/4/3 154/4/3 169/4/3
f 171/1/3 156/1/3 155/1/3
f 171/6/3 155/6/3 170/6/3
f 172/1/3 156/1/3 171/1/3
f 175/2/3 159/2/3 158/2/3
f 176/7/3 160/7/3 159/7/3
f 176/2/3 159/2/3 175/2/3
f 177/5/3 161/5/3 160/5/3
f 177/7/3 160/7/3 176/7/3
f 178/3/3 162/3/3 161/3/3
f 178/5/3 161/5/3 177/5/3
f 179/5/3 163/5/3 162/5/3
f 179/3/3 162/3/3 178/3/3
f 180/4/3 164/4/3 163/4/3
f 180/5/3 163/5/3 179/5/3
f 181/2/3 165/2/3 164/2/3
f 181/4/3 164/4/3 180/4/3
f 182/4/3 166/4/3 165/4/3
f 182/2/3 165/2/3 181/2/3
f 183/5/3 167/5/3 166/5/3
f 183/4/3 166/4/3 182/4/3
f 184/3/3 168/3/3 167/3/3
f 184/5/3 167/5/3 183/5/3
f 185/4/3 169/4/3 168/4/3
f 185/3/3 168/3/3 184/3/3
f 186/6/3 170/6/3 169/6/3
f 186/4/3 169/4/3 185/4/3
f 187/2/3 171/2/3 170/2/3
f 187/6/3 170/6/3 186/6/3
f 188/2/3 171/2/3 187/2/3
f 190/1/3 174/1/3 173/1/3
f 191/1/3 174/1/3 190/1/3
f 193/2/3 177/2/3 176/2/3
f 194/5/3 178/5/3 177/5/3
f 194/2/3 177/2/3 193/2/3
f 195/6/3 179/6/3 178/6/3
f 195/5/3 178/5/3 194/5/3
f 195/6/3 180/6/3 179/6/3
f 196/6/3 180/6/3 195/6/3
f 197/5/3 181/5/3 180/5/3
f 197/6/3 180/6/3 196/6/3
f 198/4/3 182/4/3 181/4/3
f 198/5/3 181/5/3 197/5/3
f 199/5/3 183/5/3 182/5/3
f 199/4/3 182/4/3 198/4/3
f 200/6/3 184/6/3 183/6/3
f 200/5/3 183/5/3 199/5/3
f 200/6/3 186/6/3 185/6/3
f 200/6/3 185/6/3 184/6/3
f 201/6/3 186/6/3 200/6/3
f 202/6/3 186/6/3 201/6/3
f 203/6/3 186/6/3 202/6/3
f 204/2/3 187/2/3 186/2/3
f 204/6/3 186/6/3 203/6/3
f 205/2/3 187/2/3 204/2/3
f 206/1/3 190/1/3 189/1/3
f 207/1/3 190/1/3 206/1/3
f 208/1/3 194/1/3 193/1/3
f 208/1/3 193/1/3 192/1/3
f 209/2/3 196/2/3 195/2/3
f 209/1/3 194/1/3 208/1/3
f 209/2/3 195/2/3 194/2/3
f 210/1/3 197/1/3 196/1/3
f 210/2/3 196/2/3 209/2/3
f 211/2/3 199/2/3 198/2/3
f 211/1/3 197/1/3 210/1/3
f 211/2/3 198/2/3 197/2/3
f 211/2/3 200/2/3 199/2/3
f 211/2/3 201/2/3 200/2/3
f 212/1/3 202/1/3 201/1/3
f 212/2/3 201/2/3 211/2/3
f 213/2/3 203/2/3 202/2/3
f 213/1/3 202/1/3 212/1/3
f 214/1/3 204/1/3 203/1/3
f 214/2/3 203/2/3 213/2/3
f 214/1/3 205/1/3 204/1/3
f 215/2/3 206/2/3 205/2/3
f 215/1/3 205/1/3 214/1/3
f 216/2/3 206/2/3 215/2/3
f 217/1/4 218/1/4 221/1/4
f 221/1/4 218/1/4 222/1/4
f 218/2/4 219/2/4 223/2/4
f 222/1/4 218/1/4 223/1/4
f 223/2/4 219/2/4 224/2/4
f 221/7/4 222/7/4 226/7/4
f 220/2/4 221/2/4 226/2/4
f 223/4/4 224/4/4 227/4/4
f 226/7/4 222/7/4 227/7/4
f 222/4/4 223/4/4 227/4/4
f 224/2/4 225/2/4 228/2/4
f 227/4/4 224/4/4 228/4/4
f 228/2/4 225/2/4 229/2/4
f 220/2/4 226/2/4 235/2/4
f 226/4/4 227/4/4 236/4/4
f 235/2/4 226/2/4 236/2/4
f 227/5/4 228/5/4 237/5/4
f 236/4/4 227/4/4 237/4/4
f 237/5/4 228/5/4 238/5/4
f 228/7/4 229/7/4 239/7/4
f 238/5/4 228/5/4 239/5/4
f 229/1/4 230/1/4 240/1/4
f 239/7/4 229/7/4 240/7/4
f 240/1/4 230/1/4 241/1/4
f 231/2/4 232/2/4 243/2/4
f 232/1/4 233/1/4 244/1/4
f 243/2/4 232/2/4 244/2/4
f 244/1/4 233/1/4 245/1/4
f 245/1/4 233/1/4 246/1/4
f 237/3/4 238/3/4 248/3/4
f 238/7/4 239/7/4 248/7/4
f 239/5/4 240/5/4 249/5/4
f 248/7/4 239/7/4 249/7/4
f 240/2/4 241/2/4 250/2/4
f 249/5/4 240/5/4 250/5/4
f 242/2/4 243/2/4 251/2/4
f 243/7/4 244/7/4 252/7/4
f 251/2/4 243/2/4 252/2/4
f 244/4/4 245/4/4 253/4/4
f 252/7/4 244/7/4 253/7/4
f 245/7/4 246/7/4 254/7/4
f 253/4/4 245/4/4 254/4/4
f 246/2/4 247/2/4 255/2/4
f 254/7/4 246/7/4 255/7/4
f 255/2/4 247/2/4 256/2/4
f 234/2/4 235/2/4 259/2/4
f 235/4/4 236/4/4 260/4/4
f 259/2/4 235/2/4 260/2/4
f 236/5/4 237/5/4 261/5/4
f 260/4/4 236/4/4 261/4/4
f 237/3/4 248/3/4 262/3/4
f 261/5/4 237/5/4 262/5/4
f 262/3/4 248/3/4 263/3/4
f 248/4/4 249/4/4 264/4/4
f 263/3/4 248/3/4 264/3/4
f 249/6/4 250/6/4 265/6/4
f 264/4/4 249/4/4 265/4/4
f 250/2/4 241/2/4 266/2/4
f 265/6/4 250/6/4 266/6/4
f 266/2/4 241/2/4 267/2/4
f 251/1/4 252/1/4 268/1/4
f 252/4/4 253/4/4 269/4/4
f 268/1/4 252/1/4 269/1/4
f 253/5/4 254/5/4 270/5/4
f 269/4/4 253/4/4 270/4/4
f 254/5/4 255/5/4 270/5/4
f 270/5/4 255/5/4 271/5/4
f 255/4/4 256/4/4 272/4/4
f 271/5/4 255/5/4 272/5/4
f 256/1/4 257/1/4 273/1/4
f 272/4/4 256/4/4 273/4/4
f 273/1/4 257/1/4 274/1/4
f 258/2/4 259/2/4 275/2/4
f 259/4/4 260/4/4 276/4/4
f 275/2/4 259/2/4 276/2/4
f 260/5/4 261/5/4 277/5/4
f 276/4/4 260/4/4 277/4/4
f 262/7/4 263/7/4 278/7/4
f 277/5/4 261/5/4 278/5/4
f 261/7/4 262/7/4 278/7/4
f 263/4/4 264/4/4 279/4/4
f 278/7/4 263/7/4 279/7/4
f 264/6/4 265/6/4 280/6/4
f 279/4/4 264/4/4 280/4/4
f 265/1/4 266/1/4 281/1/4
f 280/6/4 265/6/4 281/6/4
f 281/1/4 266/1/4 282/1/4
f 268/2/4 269/2/4 285/2/4
f 269/7/4 270/7/4 286/7/4
f 285/2/4 269/2/4 286/2/4
f 270/5/4 271/5/4 287/5/4
f 286/7/4 270/7/4 287/7/4
f 271/3/4 272/3/4 288/3/4
f 287/5/4 271/5/4 288/5/4
f 272/5/4 273/5/4 289/5/4
f 288/3/4 272/3/4 289/3/4
f 273/4/4 274/4/4 290/4/4
f 289/5/4 273/5/4 290/5/4
f 274/2/4 275/2/4 291/2/4
f 290/4/4 274/4/4 291/4/4
f 275/4/4 276/4/4 292/4/4
f 291/2/4 275/2/4 292/2/4
f 276/5/4 277/5/4 293/5/4
f 292/4/4 276/4/4 293/4/4
f 277/3/4 278/3/4 294/3/4
f 293/5/4 277/5/4 294/5/4
f 278/4/4 279/4/4 295/4/4
f 294/3/4 278/3/4 295/3/4
f 279/6/4 280/6/4 296/6/4
f 295/4/4 279/4/4 296/4/4
f 280/2/4 281/2/4 297/2/4
f 296/6/4 280/6/4 297/6/4
f 297/2/4 281/2/4 298/2/4
f 283/1/4 284/1/4 300/1/4
f 300/1/4 284/1/4 301/1/4
f 286/2/4 287/2/4 303/2/4
f 287/5/4 288/5/4 304/5/4
f 303/2/4 287/2/4 304/2/4
f 288/6/4 289/6/4 305/6/4
f 304/5/4 288/5/4 305/5/4
f 289/6/4 290/6/4 305/6/4
f 305/6/4 290/6/4 306/6/4
f 290/5/4 291/5/4 307/5/4
f 306/6/4 290/6/4 307/6/4
f 291/4/4 292/4/4 308/4/4
f 307/5/4 291/5/4 308/5/4
f 292/5/4 293/5/4 309/5/4
f 308/4/4 292/4/4 309/4/4
f 293/6/4 294/6/4 310/6/4
f 309/5/4 293/5/4 310/5/4
f 295/6/4 296/6/4 310/6/4
f 294/6/4 295/6/4 310/6/4
f 310/6/4 296/6/4 311/6/4
f 311/6/4 296/6/4 312/6/4
f 312/6/4 296/6/4 313/6/4
f 296/2/4 297/2/4 314/2/4
f 313/6/4 296/6/4 314/6/4
f 314/2/4 297/2/4 315/2/4
f 299/1/4 300/1/4 316/1/4
f 316/1/4 300/1/4 317/1/4
f 303/1/4 304/1/4 318/1/4
f 302/1/4 303/1/4 318/1/4
f 305/2/4 306/2/4 319/2/4
f 318/1/4 304/1/4 319/1/4
f 304/2/4 305/2/4 319/2/4
f 306/1/4 307/1/4 320/1/4
f 319/2/4 306/2/4 320/2/4
f 308/2/4 309/2/4 321/2/4
f 320/1/4 307/1/4 321/1/4
f 307/2/4 308/2/4 321/2/4
f 309/2/4 310/2/4 321/2/4
f 310/2/4 311/2/4 321/2/4
f 311/1/4 312/1/4 322/1/4
f 321/2/4 311/2/4 322/2/4
f 312/2/4 313/2/4 323/2/4
f 322/1/4 312/1/4 323/1/4
f 313/1/4 314/1/4 324/1/4
f 323/2/4 313/2/4 324/2/4
f 314/1/4 315/1/4 324/1/4
f 315/2/4 316/2/4 325/2/4
f 324/1/4 315/1/4 325/1/4
f 325/2/4 316/2/4 326/2/4
f 333/2/5 328/2/5 327/2/5
f 334/1/5 329/1/5 328/1/5
f 334/2/5 328/2/5 333/2/5
f 335/2/5 330/2/5 329/2/5
f 335/1/5 329/1/5 334/1/5
f 336/2/5 330/2/5 335/2/5
f 337/1/5 332/1/5 331/1/5
f 338/1/5 332/1/5 337/1/5
f 343/2/5 340/2/5 339/2/5
f 344/2/5 340/2/5 343/2/5
f 345/2/5 342/2/5 341/2/5
f 346/2/5 342/2/5 345/2/5
f 349/2/5 348/2/5 347/2/5
f 350/2/5 348/2/5 349/2/5
f 353/2/5 352/2/5 351/2/5
f 354/2/5 352/2/5 353/2/5
f 357/2/5 356/2/5 355/2/5
f 358/2/5 356/2/5 357/2/5
f 361/1/5 360/1/5 359/1/5
f 362/1/5 360/1/5 361/1/5
f 365/1/5 364/1/5 363/1/5
f 366/1/5 364/1/5 365/1/5
f 369/1/5 368/1/5 367/1/5
f 370/1/5 368/1/5 369/1/5
f 371/1/6 372/1/6 373/1/6
f 373/1/6 372/1/6 374/1/6
f 375/2/6 376/2/6 377/2/6
f 377/2/6 376/2/6 378/2/6
f 379/1/6 380/1/6 381/1/6
f 381/1/6 380/1/6 382/1/6
f 383/2/6 384/2/6 385/2/6
f 385/2/6 384/2/6 386/2/6
f 387/2/6 388/2/6 391/2/6
f 391/2/6 388/2/6 392/2/6
f 389/2/6 390/2/6 393/2/6
f 393/2/6 390/2/6 394/2/6
f 395/2/6 396/2/6 401/2/6
f 401/2/6 396/2/6 402/2/6
f 397/1/6 398/1/6 403/1/6
f 403/1/6 398/1/6 404/1/6
f 399/2/6 400/2/6 405/2/6
f 405/2/6 400/2/6 406/2/6
f 407/1/6 408/1/6 412/1/6
f 408/2/6 409/2/6 413/2/6
f 412/1/6 408/1/6 413/1/6
f 413/2/6 409/2/6 414/2/6
f 410/1/6 411/1/6 415/1/6
f 415/1/6 411/1/6 416/1/6
f 417/1/6 418/1/6 419/1/6
f 419/1/6 418/1/6 420/1/6
