# MagicaVoxel @ Ephtracy

# group
o carrot_1

# material
mtllib melon_2-0-carrot_1.mtl
usemtl palette

# normals
vn -1 0 0
vn 1 0 0
vn 0 0 1
vn 0 0 -1
vn 0 -1 0
vn 0 1 0

# texcoords
vt 0.853516 0.5
vt 0.884766 0.5
vt 0.888672 0.5
vt 0.978516 0.5

# verts
v -0.8 0.9 -0.2
v -0.8 0.9 -0.4
v -0.8 0.9 -0.6
v -0.8 1.1 -0.2
v -0.8 1.1 -0.4
v -0.8 1.1 -0.6
v -0.6 0.7 0.8
v -0.6 0.7 0.6
v -0.6 0.7 0.4
v -0.6 0.9 0.8
v -0.6 0.9 0.6
v -0.6 0.9 0.4
v -0.6 0.9 -5.96046e-08
v -0.6 0.9 -0.2
v -0.6 1.1 -5.96046e-08
v -0.6 1.1 -0.2
v -0.4 0.7 0.4
v -0.4 0.7 0.2
v -0.4 0.7 -5.96046e-08
v -0.4 0.7 -0.2
v -0.4 0.9 0.4
v -0.4 0.9 0.2
v -0.4 0.9 -5.96046e-08
v -0.4 0.9 -0.2
v -0.2 0.5 0.2
v -0.2 0.5 -5.96046e-08
v -0.2 0.5 -0.2
v -0.2 0.7 0.2
v -0.2 0.7 -5.96046e-08
v -0.2 0.7 -0.2
v 0 0.1 0.2
v 0 0.1 -5.96046e-08
v 0 0.1 -0.4
v 0 0.3 0.2
v 0 0.3 -5.96046e-08
v 0 0.3 -0.2
v 0 0.3 -0.4
v 0 0.5 -5.96046e-08
v 0 0.5 -0.2
v 0 0.7 -0.2
v 0 0.7 -0.4
v 0 0.9 -0.2
v 0 0.9 -0.4
v 0.2 0.7 -5.96046e-08
v 0.2 0.7 -0.2
v 0.2 0.7 -0.4
v 0.2 0.7 -0.6
v 0.2 0.9 -5.96046e-08
v 0.2 0.9 -0.2
v 0.2 0.9 -0.4
v 0.2 0.9 -0.6
v -0.4 0.9 -0.4
v -0.4 0.9 -0.6
v -0.4 1.1 -0.4
v -0.4 1.1 -0.6
v -0.2 0.7 0.8
v -0.2 0.7 0.6
v -0.2 0.9 0.8
v -0.2 0.9 0.6
v -0.2 0.9 -5.96046e-08
v -0.2 0.9 -0.2
v -0.2 0.9 -0.4
v -0.2 1.1 -5.96046e-08
v -0.2 1.1 -0.2
v -0.2 1.1 -0.4
v 0 0.7 0.6
v 0 0.7 0.2
v 0 0.7 -5.96046e-08
v 0 0.7 -0.2
v 0 0.9 0.6
v 0 0.9 0.2
v 0 0.9 -5.96046e-08
v 0 0.9 -0.2
v 0.2 0.1 0.2
v 0.2 0.1 -5.96046e-08
v 0.2 0.1 -0.2
v 0.2 0.1 -0.4
v 0.2 0.3 0.2
v 0.2 0.3 -5.96046e-08
v 0.2 0.3 -0.2
v 0.2 0.3 -0.4
v 0.2 0.5 0.2
v 0.2 0.5 -5.96046e-08
v 0.2 0.7 0.2
v 0.2 0.7 -5.96046e-08
v 0.2 0.7 -0.2
v 0.4 0.1 -5.96046e-08
v 0.4 0.1 -0.2
v 0.4 0.3 -5.96046e-08
v 0.4 0.3 -0.2
v 0.4 0.7 -5.96046e-08
v 0.4 0.7 -0.2
v 0.4 0.9 -5.96046e-08
v 0.4 0.9 -0.2
v 0.6 0.7 -0.2
v 0.6 0.7 -0.4
v 0.6 0.7 -0.6
v 0.6 0.9 -0.2
v 0.6 0.9 -0.4
v 0.6 0.9 -0.6
v -0.6 0.7 0.8
v -0.6 0.9 0.8
v -0.4 0.7 0.8
v -0.4 0.9 0.8
v -0.2 0.7 0.8
v -0.2 0.9 0.8
v -0.2 0.7 0.6
v -0.2 0.9 0.6
v 0 0.7 0.6
v 0 0.9 0.6
v -0.2 0.5 0.2
v -0.2 0.7 0.2
v 0 0.1 0.2
v 0 0.3 0.2
v 0 0.5 0.2
v 0 0.7 0.2
v 0.2 0.1 0.2
v 0.2 0.3 0.2
v 0.2 0.5 0.2
v 0.2 0.7 0.2
v -0.6 0.9 -5.96046e-08
v -0.6 1.1 -5.96046e-08
v -0.4 0.7 -5.96046e-08
v -0.4 0.9 -5.96046e-08
v -0.4 1.1 -5.96046e-08
v -0.2 0.7 -5.96046e-08
v -0.2 0.9 -5.96046e-08
v -0.2 1.1 -5.96046e-08
v 0 0.3 -5.96046e-08
v 0 0.5 -5.96046e-08
v 0 0.7 -5.96046e-08
v 0 0.9 -5.96046e-08
v 0.2 0.1 -5.96046e-08
v 0.2 0.3 -5.96046e-08
v 0.2 0.5 -5.96046e-08
v 0.2 0.7 -5.96046e-08
v 0.2 0.9 -5.96046e-08
v 0.4 0.1 -5.96046e-08
v 0.4 0.3 -5.96046e-08
v 0.4 0.7 -5.96046e-08
v 0.4 0.9 -5.96046e-08
v -0.8 0.9 -0.2
v -0.8 1.1 -0.2
v -0.6 0.9 -0.2
v -0.6 1.1 -0.2
v 0 0.7 -0.2
v 0 0.9 -0.2
v 0.2 0.7 -0.2
v 0.2 0.9 -0.2
v 0.4 0.7 -0.2
v 0.4 0.9 -0.2
v 0.6 0.7 -0.2
v 0.6 0.9 -0.2
v -0.6 0.7 0.4
v -0.6 0.9 0.4
v -0.4 0.7 0.4
v -0.4 0.9 0.4
v -0.4 0.7 0.2
v -0.4 0.9 0.2
v -0.2 0.7 0.2
v -0.2 0.9 0.2
v 0 0.7 0.2
v 0 0.9 0.2
v -0.4 0.7 -0.2
v -0.4 0.9 -0.2
v -0.2 0.5 -0.2
v -0.2 0.7 -0.2
v -0.2 0.9 -0.2
v 0 0.3 -0.2
v 0 0.5 -0.2
v 0 0.7 -0.2
v 0 0.9 -0.2
v 0.2 0.1 -0.2
v 0.2 0.3 -0.2
v 0.2 0.7 -0.2
v 0.4 0.1 -0.2
v 0.4 0.3 -0.2
v -0.4 0.9 -0.4
v -0.4 1.1 -0.4
v -0.2 0.9 -0.4
v -0.2 1.1 -0.4
v 0 0.1 -0.4
v 0 0.3 -0.4
v 0 0.7 -0.4
v 0 0.9 -0.4
v 0.2 0.1 -0.4
v 0.2 0.3 -0.4
v 0.2 0.7 -0.4
v 0.2 0.9 -0.4
v -0.8 0.9 -0.6
v -0.8 1.1 -0.6
v -0.6 0.9 -0.6
v -0.6 1.1 -0.6
v -0.4 0.9 -0.6
v -0.4 1.1 -0.6
v 0.2 0.7 -0.6
v 0.2 0.9 -0.6
v 0.4 0.7 -0.6
v 0.4 0.9 -0.6
v 0.6 0.7 -0.6
v 0.6 0.9 -0.6
v 0 0.1 0.2
v 0.2 0.1 0.2
v 0 0.1 -5.96046e-08
v 0.2 0.1 -5.96046e-08
v 0.4 0.1 -5.96046e-08
v 0.2 0.1 -0.2
v 0.4 0.1 -0.2
v 0 0.1 -0.4
v 0.2 0.1 -0.4
v -0.2 0.5 0.2
v 0 0.5 0.2
v 0.2 0.5 0.2
v -0.2 0.5 -5.96046e-08
v 0 0.5 -5.96046e-08
v 0.2 0.5 -5.96046e-08
v -0.2 0.5 -0.2
v 0 0.5 -0.2
v -0.6 0.7 0.8
v -0.4 0.7 0.8
v -0.2 0.7 0.8
v -0.6 0.7 0.6
v -0.4 0.7 0.6
v -0.2 0.7 0.6
v 0 0.7 0.6
v -0.6 0.7 0.4
v -0.4 0.7 0.4
v -0.2 0.7 0.4
v -0.4 0.7 0.2
v -0.2 0.7 0.2
v 0 0.7 0.2
v -0.4 0.7 -5.96046e-08
v -0.2 0.7 -5.96046e-08
v 0.2 0.7 -5.96046e-08
v 0.4 0.7 -5.96046e-08
v -0.4 0.7 -0.2
v -0.2 0.7 -0.2
v 0 0.7 -0.2
v 0.2 0.7 -0.2
v 0.4 0.7 -0.2
v 0.6 0.7 -0.2
v 0 0.7 -0.4
v 0.2 0.7 -0.4
v 0.4 0.7 -0.4
v 0.6 0.7 -0.4
v 0.2 0.7 -0.6
v 0.4 0.7 -0.6
v 0.6 0.7 -0.6
v -0.6 0.9 -5.96046e-08
v -0.4 0.9 -5.96046e-08
v -0.8 0.9 -0.2
v -0.6 0.9 -0.2
v -0.4 0.9 -0.2
v -0.2 0.9 -0.2
v -0.8 0.9 -0.4
v -0.6 0.9 -0.4
v -0.4 0.9 -0.4
v -0.2 0.9 -0.4
v -0.8 0.9 -0.6
v -0.6 0.9 -0.6
v -0.4 0.9 -0.6
v 0 0.3 0.2
v 0.2 0.3 0.2
v 0 0.3 -5.96046e-08
v 0.2 0.3 -5.96046e-08
v 0.4 0.3 -5.96046e-08
v 0 0.3 -0.2
v 0.2 0.3 -0.2
v 0.4 0.3 -0.2
v 0 0.3 -0.4
v 0.2 0.3 -0.4
v -0.2 0.7 0.2
v 0 0.7 0.2
v 0.2 0.7 0.2
v -0.2 0.7 -5.96046e-08
v 0 0.7 -5.96046e-08
v 0.2 0.7 -5.96046e-08
v 0 0.7 -0.2
v 0.2 0.7 -0.2
v -0.6 0.9 0.8
v -0.4 0.9 0.8
v -0.2 0.9 0.8
v -0.6 0.9 0.6
v -0.4 0.9 0.6
v -0.2 0.9 0.6
v 0 0.9 0.6
v -0.6 0.9 0.4
v -0.4 0.9 0.4
v -0.2 0.9 0.4
v -0.4 0.9 0.2
v -0.2 0.9 0.2
v 0 0.9 0.2
v -0.2 0.9 -5.96046e-08
v 0 0.9 -5.96046e-08
v 0.2 0.9 -5.96046e-08
v 0.4 0.9 -5.96046e-08
v -0.2 0.9 -0.2
v 0 0.9 -0.2
v 0.2 0.9 -0.2
v 0.4 0.9 -0.2
v 0.6 0.9 -0.2
v 0 0.9 -0.4
v 0.2 0.9 -0.4
v 0.4 0.9 -0.4
v 0.6 0.9 -0.4
v 0.2 0.9 -0.6
v 0.4 0.9 -0.6
v 0.6 0.9 -0.6
v -0.6 1.1 -5.96046e-08
v -0.4 1.1 -5.96046e-08
v -0.2 1.1 -5.96046e-08
v -0.8 1.1 -0.2
v -0.6 1.1 -0.2
v -0.4 1.1 -0.2
v -0.2 1.1 -0.2
v -0.8 1.1 -0.4
v -0.6 1.1 -0.4
v -0.4 1.1 -0.4
v -0.2 1.1 -0.4
v -0.8 1.1 -0.6
v -0.6 1.1 -0.6
v -0.4 1.1 -0.6

# faces
f 4/4/1 2/4/1 1/4/1
f 5/3/1 3/3/1 2/3/1
f 5/4/1 2/4/1 4/4/1
f 6/3/1 3/3/1 5/3/1
f 10/3/1 8/3/1 7/3/1
f 11/2/1 9/2/1 8/2/1
f 11/3/1 8/3/1 10/3/1
f 12/2/1 9/2/1 11/2/1
f 15/4/1 14/4/1 13/4/1
f 16/4/1 14/4/1 15/4/1
f 21/2/1 18/2/1 17/2/1
f 22/2/1 18/2/1 21/2/1
f 23/3/1 20/3/1 19/3/1
f 24/3/1 20/3/1 23/3/1
f 28/1/1 26/1/1 25/1/1
f 29/4/1 27/4/1 26/4/1
f 29/1/1 26/1/1 28/1/1
f 30/4/1 27/4/1 29/4/1
f 34/1/1 32/1/1 31/1/1
f 35/4/1 33/4/1 32/4/1
f 35/1/1 32/1/1 34/1/1
f 36/4/1 33/4/1 35/4/1
f 37/4/1 33/4/1 36/4/1
f 38/4/1 36/4/1 35/4/1
f 39/4/1 36/4/1 38/4/1
f 42/2/1 41/2/1 40/2/1
f 43/2/1 41/2/1 42/2/1
f 48/4/1 45/4/1 44/4/1
f 49/4/1 45/4/1 48/4/1
f 50/4/1 47/4/1 46/4/1
f 51/4/1 47/4/1 50/4/1
f 52/2/2 53/2/2 54/2/2
f 54/2/2 53/2/2 55/2/2
f 56/4/2 57/4/2 58/4/2
f 58/4/2 57/4/2 59/4/2
f 60/2/2 61/2/2 63/2/2
f 61/4/2 62/4/2 64/4/2
f 63/2/2 61/2/2 64/2/2
f 64/4/2 62/4/2 65/4/2
f 66/4/2 67/4/2 70/4/2
f 70/4/2 67/4/2 71/4/2
f 68/4/2 69/4/2 72/4/2
f 72/4/2 69/4/2 73/4/2
f 74/1/2 75/1/2 78/1/2
f 78/1/2 75/1/2 79/1/2
f 76/4/2 77/4/2 80/4/2
f 80/4/2 77/4/2 81/4/2
f 79/4/2 80/4/2 83/4/2
f 82/2/2 83/2/2 84/2/2
f 83/4/2 80/4/2 85/4/2
f 84/2/2 83/2/2 85/2/2
f 85/4/2 80/4/2 86/4/2
f 87/4/2 88/4/2 89/4/2
f 89/4/2 88/4/2 90/4/2
f 91/4/2 92/4/2 93/4/2
f 93/4/2 92/4/2 94/4/2
f 95/2/2 96/2/2 98/2/2
f 96/3/2 97/3/2 99/3/2
f 98/2/2 96/2/2 99/2/2
f 99/3/2 97/3/2 100/3/2
f 103/3/3 102/3/3 101/3/3
f 104/3/3 102/3/3 103/3/3
f 105/4/3 104/4/3 103/4/3
f 106/4/3 104/4/3 105/4/3
f 109/4/3 108/4/3 107/4/3
f 110/4/3 108/4/3 109/4/3
f 115/1/3 112/1/3 111/1/3
f 116/1/3 112/1/3 115/1/3
f 117/1/3 114/1/3 113/1/3
f 118/1/3 114/1/3 117/1/3
f 119/2/3 116/2/3 115/2/3
f 120/2/3 116/2/3 119/2/3
f 124/4/3 122/4/3 121/4/3
f 125/4/3 122/4/3 124/4/3
f 126/3/3 124/3/3 123/3/3
f 127/2/3 125/2/3 124/2/3
f 127/3/3 124/3/3 126/3/3
f 128/2/3 125/2/3 127/2/3
f 131/4/3 127/4/3 126/4/3
f 132/4/3 127/4/3 131/4/3
f 134/4/3 130/4/3 129/4/3
f 135/4/3 130/4/3 134/4/3
f 138/4/3 134/4/3 133/4/3
f 139/4/3 134/4/3 138/4/3
f 140/4/3 137/4/3 136/4/3
f 141/4/3 137/4/3 140/4/3
f 144/4/3 143/4/3 142/4/3
f 145/4/3 143/4/3 144/4/3
f 148/2/3 147/2/3 146/2/3
f 149/2/3 147/2/3 148/2/3
f 152/2/3 151/2/3 150/2/3
f 153/2/3 151/2/3 152/2/3
f 154/2/4 155/2/4 156/2/4
f 156/2/4 155/2/4 157/2/4
f 158/2/4 159/2/4 160/2/4
f 160/2/4 159/2/4 161/2/4
f 160/4/4 161/4/4 162/4/4
f 162/4/4 161/4/4 163/4/4
f 164/3/4 165/3/4 167/3/4
f 167/3/4 165/3/4 168/3/4
f 166/4/4 167/4/4 170/4/4
f 167/4/4 168/4/4 170/4/4
f 170/4/4 168/4/4 171/4/4
f 171/4/4 168/4/4 172/4/4
f 169/4/4 170/4/4 174/4/4
f 170/4/4 171/4/4 174/4/4
f 174/4/4 171/4/4 175/4/4
f 173/4/4 174/4/4 176/4/4
f 176/4/4 174/4/4 177/4/4
f 178/4/4 179/4/4 180/4/4
f 180/4/4 179/4/4 181/4/4
f 182/4/4 183/4/4 186/4/4
f 186/4/4 183/4/4 187/4/4
f 184/2/4 185/2/4 188/2/4
f 188/2/4 185/2/4 189/2/4
f 190/3/4 191/3/4 192/3/4
f 192/3/4 191/3/4 193/3/4
f 192/2/4 193/2/4 194/2/4
f 194/2/4 193/2/4 195/2/4
f 196/4/4 197/4/4 198/4/4
f 198/4/4 197/4/4 199/4/4
f 198/3/4 199/3/4 200/3/4
f 200/3/4 199/3/4 201/3/4
f 204/1/5 203/1/5 202/1/5
f 205/1/5 203/1/5 204/1/5
f 207/4/5 205/4/5 204/4/5
f 207/4/5 206/4/5 205/4/5
f 208/4/5 206/4/5 207/4/5
f 209/4/5 207/4/5 204/4/5
f 210/4/5 207/4/5 209/4/5
f 214/1/5 212/1/5 211/1/5
f 215/2/5 213/2/5 212/2/5
f 215/1/5 212/1/5 214/1/5
f 216/2/5 213/2/5 215/2/5
f 217/4/5 215/4/5 214/4/5
f 218/4/5 215/4/5 217/4/5
f 222/3/5 220/3/5 219/3/5
f 223/4/5 221/4/5 220/4/5
f 223/3/5 220/3/5 222/3/5
f 224/4/5 221/4/5 223/4/5
f 226/2/5 223/2/5 222/2/5
f 227/3/5 224/3/5 223/3/5
f 227/2/5 223/2/5 226/2/5
f 228/4/5 225/4/5 224/4/5
f 228/3/5 224/3/5 227/3/5
f 229/2/5 228/2/5 227/2/5
f 230/4/5 225/4/5 228/4/5
f 230/2/5 228/2/5 229/2/5
f 231/4/5 225/4/5 230/4/5
f 236/3/5 233/3/5 232/3/5
f 237/3/5 233/3/5 236/3/5
f 239/4/5 235/4/5 234/4/5
f 240/4/5 235/4/5 239/4/5
f 242/2/5 239/2/5 238/2/5
f 243/3/5 240/3/5 239/3/5
f 243/2/5 239/2/5 242/2/5
f 244/2/5 241/2/5 240/2/5
f 244/3/5 240/3/5 243/3/5
f 245/2/5 241/2/5 244/2/5
f 246/4/5 244/4/5 243/4/5
f 247/3/5 245/3/5 244/3/5
f 247/4/5 244/4/5 246/4/5
f 248/3/5 245/3/5 247/3/5
f 252/4/5 250/4/5 249/4/5
f 253/4/5 250/4/5 252/4/5
f 255/4/5 252/4/5 251/4/5
f 256/3/5 253/3/5 252/3/5
f 256/4/5 252/4/5 255/4/5
f 257/4/5 254/4/5 253/4/5
f 257/3/5 253/3/5 256/3/5
f 258/4/5 254/4/5 257/4/5
f 259/3/5 256/3/5 255/3/5
f 260/2/5 257/2/5 256/2/5
f 260/3/5 256/3/5 259/3/5
f 261/2/5 257/2/5 260/2/5
f 262/1/6 263/1/6 264/1/6
f 264/1/6 263/1/6 265/1/6
f 265/4/6 266/4/6 268/4/6
f 268/4/6 266/4/6 269/4/6
f 267/4/6 268/4/6 270/4/6
f 270/4/6 268/4/6 271/4/6
f 272/1/6 273/1/6 275/1/6
f 273/2/6 274/2/6 276/2/6
f 275/1/6 273/1/6 276/1/6
f 276/2/6 274/2/6 277/2/6
f 276/4/6 277/4/6 278/4/6
f 278/4/6 277/4/6 279/4/6
f 280/3/6 281/3/6 283/3/6
f 281/4/6 282/4/6 284/4/6
f 283/3/6 281/3/6 284/3/6
f 284/4/6 282/4/6 285/4/6
f 283/2/6 284/2/6 287/2/6
f 284/3/6 285/3/6 288/3/6
f 287/2/6 284/2/6 288/2/6
f 285/4/6 286/4/6 289/4/6
f 288/3/6 285/3/6 289/3/6
f 288/2/6 289/2/6 290/2/6
f 289/4/6 286/4/6 291/4/6
f 290/2/6 289/2/6 291/2/6
f 291/4/6 286/4/6 292/4/6
f 293/4/6 294/4/6 297/4/6
f 297/4/6 294/4/6 298/4/6
f 295/4/6 296/4/6 299/4/6
f 299/4/6 296/4/6 300/4/6
f 298/2/6 299/2/6 302/2/6
f 299/3/6 300/3/6 303/3/6
f 302/2/6 299/2/6 303/2/6
f 300/2/6 301/2/6 304/2/6
f 303/3/6 300/3/6 304/3/6
f 304/2/6 301/2/6 305/2/6
f 303/4/6 304/4/6 306/4/6
f 304/3/6 305/3/6 307/3/6
f 306/4/6 304/4/6 307/4/6
f 307/3/6 305/3/6 308/3/6
f 309/4/6 310/4/6 313/4/6
f 310/2/6 311/2/6 314/2/6
f 313/4/6 310/4/6 314/4/6
f 314/2/6 311/2/6 315/2/6
f 312/4/6 313/4/6 316/4/6
f 313/3/6 314/3/6 317/3/6
f 316/4/6 313/4/6 317/4/6
f 314/4/6 315/4/6 318/4/6
f 317/3/6 314/3/6 318/3/6
f 318/4/6 315/4/6 319/4/6
f 316/3/6 317/3/6 320/3/6
f 317/2/6 318/2/6 321/2/6
f 320/3/6 317/3/6 321/3/6
f 321/2/6 318/2/6 322/2/6
