# MagicaVoxel @ Ephtracy

# group
o 

# material
mtllib NPC8_leftarm_1.mtl
usemtl palette

# normals
vn 1 0 0
vn -1 0 0
vn 0 0 -1
vn 0 0 1
vn 0 -1 0
vn 0 1 0

# texcoords
vt 0.478516 0.5
vt 0.736328 0.5
vt 0.759766 0.5
vt 0.845703 0.5
vt 0.958984 0.5

# verts
v 0.9 -0.9 -1.2
v 0.9 -0.9 2.38419e-07
v 0.9 0.9 -1.2
v 0.9 0.9 2.38419e-07
v 0.8 -0.8 -2.3
v 0.8 -0.8 -1.2
v 0.8 0.8 -2.3
v 0.8 0.8 -1.2
v -0.8 -0.8 -2.3
v -0.8 -0.8 -1.2
v -0.8 0.8 -2.3
v -0.8 0.8 -1.2
v -0.9 -0.9 -1.2
v -0.9 -0.9 -0.6
v -0.9 -0.9 2.38419e-07
v -0.9 0.9 -1.2
v -0.9 0.9 -0.6
v -0.9 0.9 2.38419e-07
v 0.8 -0.8 -2.3
v 0.8 0.8 -2.3
v -0.8 -0.8 -2.3
v -0.8 0.8 -2.3
v 0.9 -0.9 -1.2
v 0.9 0.9 -1.2
v 0.8 -0.9 -1.2
v 0.8 -0.8 -1.2
v 0.8 0.8 -1.2
v 0.8 0.9 -1.2
v -0.8 -0.8 -1.2
v -0.8 0.8 -1.2
v -0.9 -0.9 -1.2
v -0.9 0.9 -1.2
v 0.9 -0.9 2.38419e-07
v 0.9 0.9 2.38419e-07
v -0.9 -0.9 2.38419e-07
v -0.9 0.9 2.38419e-07
v 0.9 -0.9 -1.2
v 0.8 -0.9 -1.2
v -0.9 -0.9 -1.2
v 0.8 -0.9 -0.6
v -0.9 -0.9 -0.6
v 0.9 -0.9 2.38419e-07
v -0.9 -0.9 2.38419e-07
v 0.8 -0.8 -2.3
v -0.8 -0.8 -2.3
v 0.8 -0.8 -1.2
v -0.8 -0.8 -1.2
v 0.8 0.8 -2.3
v -0.8 0.8 -2.3
v 0.8 0.8 -1.2
v -0.8 0.8 -1.2
v 0.9 0.9 -1.2
v 0.8 0.9 -1.2
v -0.9 0.9 -1.2
v 0.8 0.9 -0.6
v -0.9 0.9 -0.6
v 0.9 0.9 2.38419e-07
v -0.9 0.9 2.38419e-07

# faces
f 3/3/1 2/3/1 1/3/1
f 4/3/1 2/3/1 3/3/1
f 7/1/1 6/1/1 5/1/1
f 8/1/1 6/1/1 7/1/1
f 9/1/2 10/1/2 11/1/2
f 11/1/2 10/1/2 12/1/2
f 13/2/2 14/2/2 16/2/2
f 14/3/2 15/3/2 17/3/2
f 16/2/2 14/2/2 17/2/2
f 17/3/2 15/3/2 18/3/2
f 21/1/3 20/1/3 19/1/3
f 22/1/3 20/1/3 21/1/3
f 25/3/3 24/3/3 23/3/3
f 26/3/3 24/3/3 25/3/3
f 27/3/3 24/3/3 26/3/3
f 28/3/3 24/3/3 27/3/3
f 29/2/3 26/2/3 25/2/3
f 30/2/3 28/2/3 27/2/3
f 31/2/3 29/2/3 25/2/3
f 31/2/3 30/2/3 29/2/3
f 32/2/3 28/2/3 30/2/3
f 32/2/3 30/2/3 31/2/3
f 33/3/4 34/3/4 35/3/4
f 35/3/4 34/3/4 36/3/4
f 40/3/5 38/3/5 37/3/5
f 40/2/5 39/2/5 38/2/5
f 41/2/5 39/2/5 40/2/5
f 42/3/5 40/3/5 37/3/5
f 42/3/5 41/3/5 40/3/5
f 43/3/5 41/3/5 42/3/5
f 46/1/5 45/1/5 44/1/5
f 47/1/5 45/1/5 46/1/5
f 48/1/6 49/1/6 50/1/6
f 50/1/6 49/1/6 51/1/6
f 52/3/6 53/3/6 55/3/6
f 53/2/6 54/2/6 55/2/6
f 55/2/6 54/2/6 56/2/6
f 52/3/6 55/3/6 57/3/6
f 55/3/6 56/3/6 57/3/6
f 57/3/6 56/3/6 58/3/6
