# MagicaVoxel @ Ephtracy

# group
o 

# material
mtllib cucumber_4.mtl
usemtl palette

# normals
vn -1 0 0
vn 1 0 0
vn 0 0 1
vn 0 0 -1
vn 0 -1 0
vn 0 1 0

# texcoords
vt 0.763672 0.5
vt 0.779297 0.5

# verts
v -0.6 0 0.1
v -0.6 0 0
v -0.6 0.1 0.1
v -0.6 0.1 0
v -0.5 0 0.2
v -0.5 0 0.1
v -0.5 0.1 0.2
v -0.5 0.1 0.1
v -0.4 0 0
v -0.4 0 -0.1
v -0.4 0.1 0
v -0.4 0.1 -0.1
v -0.2 -0.1 0.7
v -0.2 -0.1 0.4
v -0.2 -0.1 0.1
v -0.2 -0.1 0
v -0.2 0 0.7
v -0.2 0 0.4
v -0.2 0 0.1
v -0.2 0 0
v -0.1 -0.2 0.5
v -0.1 -0.2 0.3
v -0.1 -0.1 0.8
v -0.1 -0.1 0.7
v -0.1 -0.1 0.5
v -0.1 -0.1 0.4
v -0.1 -0.1 0.3
v -0.1 0 0.8
v -0.1 0 0.7
v -0.1 0 0.4
v -0.1 0 0.3
v -5.96046e-08 -0.3 0.3
v -5.96046e-08 -0.3 0.2
v -5.96046e-08 -0.3 0.1
v -5.96046e-08 -0.3 -0.1
v -5.96046e-08 -0.2 0.3
v -5.96046e-08 -0.2 0.2
v -5.96046e-08 -0.2 0.1
v -5.96046e-08 -0.2 -0.1
v -5.96046e-08 -0.1 0
v -5.96046e-08 -0.1 -0.1
v -5.96046e-08 0 0
v -5.96046e-08 0 -0.1
v -5.96046e-08 0 -0.3
v -5.96046e-08 0 -0.7
v -5.96046e-08 0.1 -0.3
v -5.96046e-08 0.1 -0.7
v 0.1 -0.3 0.2
v 0.1 -0.3 0.1
v 0.1 -0.2 0.2
v 0.1 -0.2 0.1
v 0.1 -0.2 0
v 0.1 -0.2 -0.1
v 0.1 -0.2 -0.3
v 0.1 -0.1 0
v 0.1 -0.1 -0.1
v 0.1 -0.1 -0.2
v 0.1 -0.1 -0.3
v 0.1 -0.1 -0.4
v 0.1 0 0
v 0.1 0 -0.1
v 0.1 0 -0.2
v 0.1 0 -0.3
v 0.1 0 -0.4
v 0.1 0 -0.7
v 0.1 0 -0.8
v 0.1 0.1 -0.7
v 0.1 0.1 -0.8
v 0.1 0.2 0.1
v 0.1 0.2 0
v 0.1 0.2 -0.1
v 0.1 0.3 0.2
v 0.1 0.3 0.1
v 0.1 0.3 0
v 0.1 0.4 0.2
v 0.1 0.4 0.1
v 0.2 -0.3 0.4
v 0.2 -0.3 0.2
v 0.2 -0.3 0.1
v 0.2 -0.3 0
v 0.2 -0.2 0.4
v 0.2 -0.2 0.2
v 0.2 -0.2 0.1
v 0.2 -0.2 0
v 0.3 -0.3 0.5
v 0.3 -0.3 0.4
v 0.3 -0.3 -0.1
v 0.3 -0.3 -0.2
v 0.3 -0.3 -0.3
v 0.3 -0.2 0.5
v 0.3 -0.2 0.4
v 0.3 -0.2 0.2
v 0.3 -0.2 0.1
v 0.3 -0.2 -0.1
v 0.3 -0.2 -0.2
v 0.3 -0.2 -0.3
v 0.3 -0.1 0.2
v 0.3 -0.1 0.1
v 0.4 -0.3 -0.3
v 0.4 -0.3 -0.4
v 0.4 -0.2 -0.3
v 0.4 -0.2 -0.4
v -0.2 0 0
v -0.2 0 -0.1
v -0.2 0.1 0
v -0.2 0.1 -0.1
v -0.1 0 0.2
v -0.1 0 0.1
v -0.1 0 0
v -0.1 0.1 0.2
v -0.1 0.1 0
v -5.96046e-08 -0.2 0.5
v -5.96046e-08 -0.2 0.4
v -5.96046e-08 -0.1 0.8
v -5.96046e-08 -0.1 0.7
v -5.96046e-08 -0.1 0.5
v -5.96046e-08 -0.1 0.4
v -5.96046e-08 -0.1 0.3
v -5.96046e-08 -0.1 0.1
v -5.96046e-08 -0.1 0
v -5.96046e-08 0 0.8
v -5.96046e-08 0 0.7
v -5.96046e-08 0 0.5
v -5.96046e-08 0 0.3
v -5.96046e-08 0 0.1
v -5.96046e-08 0 0
v 0.1 -0.3 0.3
v 0.1 -0.3 0.2
v 0.1 -0.3 0.1
v 0.1 -0.3 0
v 0.1 -0.2 0.4
v 0.1 -0.2 0.3
v 0.1 -0.2 0.2
v 0.1 -0.2 0.1
v 0.1 -0.2 0
v 0.1 -0.1 0.7
v 0.1 -0.1 0.5
v 0.1 -0.1 0.4
v 0.1 -0.1 0.3
v 0.1 0 0.7
v 0.1 0 0.5
v 0.2 -0.2 -0.1
v 0.2 -0.2 -0.3
v 0.2 -0.1 0
v 0.2 -0.1 -0.1
v 0.2 -0.1 -0.2
v 0.2 -0.1 -0.3
v 0.2 -0.1 -0.4
v 0.2 0 -0.2
v 0.2 0 -0.3
v 0.2 0 -0.4
v 0.2 0 -0.6
v 0.2 0 -0.8
v 0.2 0.1 0
v 0.2 0.1 -0.1
v 0.2 0.1 -0.3
v 0.2 0.1 -0.4
v 0.2 0.1 -0.6
v 0.2 0.1 -0.8
v 0.2 0.2 0.1
v 0.2 0.2 0
v 0.2 0.3 0.2
v 0.2 0.3 0.1
v 0.2 0.3 0
v 0.2 0.4 0.2
v 0.2 0.4 0.1
v 0.3 -0.3 0.2
v 0.3 -0.3 -0.1
v 0.3 -0.2 0.2
v 0.3 -0.2 0.1
v 0.3 -0.2 0
v 0.3 -0.2 -0.1
v 0.3 -0.1 0
v 0.3 -0.1 -0.1
v 0.3 0 -0.4
v 0.3 0 -0.6
v 0.3 0.1 0
v 0.3 0.1 -0.1
v 0.3 0.1 -0.4
v 0.3 0.1 -0.6
v 0.3 0.2 0
v 0.3 0.2 -0.1
v 0.4 -0.3 0.3
v 0.4 -0.3 0.2
v 0.4 -0.2 0.3
v 0.4 -0.2 0.2
v 0.5 -0.3 0.5
v 0.5 -0.3 0.3
v 0.5 -0.3 -0.1
v 0.5 -0.3 -0.2
v 0.5 -0.2 0.5
v 0.5 -0.2 0.3
v 0.5 -0.2 0.2
v 0.5 -0.2 0.1
v 0.5 -0.2 -0.1
v 0.5 -0.2 -0.2
v 0.5 -0.1 0.2
v 0.5 -0.1 0.1
v 0.6 -0.3 -0.2
v 0.6 -0.3 -0.4
v 0.6 -0.2 -0.2
v 0.6 -0.2 -0.4
v -0.1 -0.1 0.8
v -0.1 0 0.8
v -5.96046e-08 -0.1 0.8
v -5.96046e-08 0 0.8
v -0.2 -0.1 0.7
v -0.2 0 0.7
v -0.1 -0.1 0.7
v -0.1 0 0.7
v -5.96046e-08 -0.1 0.7
v -5.96046e-08 0 0.7
v 0.1 -0.1 0.7
v 0.1 0 0.7
v -0.1 -0.2 0.5
v -0.1 -0.1 0.5
v -5.96046e-08 -0.2 0.5
v -5.96046e-08 -0.1 0.5
v 0.3 -0.3 0.5
v 0.3 -0.2 0.5
v 0.5 -0.3 0.5
v 0.5 -0.2 0.5
v -5.96046e-08 -0.2 0.4
v -5.96046e-08 -0.1 0.4
v 0.1 -0.2 0.4
v 0.1 -0.1 0.4
v 0.2 -0.3 0.4
v 0.2 -0.2 0.4
v 0.3 -0.3 0.4
v 0.3 -0.2 0.4
v -5.96046e-08 -0.3 0.3
v -5.96046e-08 -0.2 0.3
v 0.1 -0.3 0.3
v 0.1 -0.2 0.3
v -0.5 0 0.2
v -0.5 0.1 0.2
v -0.1 0 0.2
v -0.1 0.1 0.2
v 0.1 -0.3 0.2
v 0.1 -0.2 0.2
v 0.1 0.3 0.2
v 0.1 0.4 0.2
v 0.2 -0.3 0.2
v 0.2 -0.2 0.2
v 0.2 0.3 0.2
v 0.2 0.4 0.2
v 0.3 -0.2 0.2
v 0.3 -0.1 0.2
v 0.4 -0.2 0.2
v 0.5 -0.2 0.2
v 0.5 -0.1 0.2
v -0.6 0 0.1
v -0.6 0.1 0.1
v -0.5 0 0.1
v -0.5 0.1 0.1
v -0.2 -0.1 0.1
v -0.2 0 0.1
v -0.1 0 0.1
v -5.96046e-08 -0.3 0.1
v -5.96046e-08 -0.2 0.1
v -5.96046e-08 -0.1 0.1
v -5.96046e-08 0 0.1
v 0.1 -0.3 0.1
v 0.1 -0.2 0.1
v 0.1 0.2 0.1
v 0.1 0.3 0.1
v 0.2 0.2 0.1
v 0.2 0.3 0.1
v -5.96046e-08 -0.1 0
v -5.96046e-08 0 0
v 0.1 -0.3 0
v 0.1 -0.2 0
v 0.1 -0.1 0
v 0.1 0 0
v 0.1 0.2 0
v 0.2 -0.3 0
v 0.2 -0.2 0
v 0.2 -0.1 0
v 0.2 0.1 0
v 0.2 0.2 0
v 0.3 -0.2 0
v 0.3 -0.1 0
v 0.3 0.1 0
v 0.3 0.2 0
v 0.3 -0.3 -0.1
v 0.3 -0.2 -0.1
v 0.4 -0.3 -0.1
v 0.4 -0.2 -0.1
v 0.5 -0.3 -0.1
v 0.5 -0.2 -0.1
v 0.1 -0.1 -0.2
v 0.1 0 -0.2
v 0.2 -0.1 -0.2
v 0.2 0 -0.2
v 0.5 -0.3 -0.2
v 0.5 -0.2 -0.2
v 0.6 -0.3 -0.2
v 0.6 -0.2 -0.2
v -5.96046e-08 0 -0.3
v -5.96046e-08 0.1 -0.3
v 0.1 0 -0.3
v 0.2 0 -0.3
v 0.2 0.1 -0.3
v 0.2 0 -0.4
v 0.2 0.1 -0.4
v 0.3 0 -0.4
v 0.3 0.1 -0.4
v -5.96046e-08 -0.1 0.5
v -5.96046e-08 0 0.5
v 0.1 -0.1 0.5
v 0.1 0 0.5
v -0.2 -0.1 0.4
v -0.2 0 0.4
v -0.1 -0.1 0.4
v -0.1 0 0.4
v -0.1 -0.2 0.3
v -0.1 -0.1 0.3
v -0.1 0 0.3
v -5.96046e-08 -0.2 0.3
v -5.96046e-08 -0.1 0.3
v -5.96046e-08 0 0.3
v 0.1 -0.2 0.3
v 0.1 -0.1 0.3
v 0.4 -0.3 0.3
v 0.4 -0.2 0.3
v 0.5 -0.3 0.3
v 0.5 -0.2 0.3
v -5.96046e-08 -0.3 0.2
v -5.96046e-08 -0.2 0.2
v 0.1 -0.3 0.2
v 0.1 -0.2 0.2
v 0.3 -0.3 0.2
v 0.3 -0.2 0.2
v 0.4 -0.3 0.2
v 0.4 -0.2 0.2
v 0.1 -0.3 0.1
v 0.1 -0.2 0.1
v 0.1 0.3 0.1
v 0.1 0.4 0.1
v 0.2 -0.3 0.1
v 0.2 -0.2 0.1
v 0.2 0.3 0.1
v 0.2 0.4 0.1
v 0.3 -0.2 0.1
v 0.3 -0.1 0.1
v 0.5 -0.2 0.1
v 0.5 -0.1 0.1
v -0.6 0 0
v -0.6 0.1 0
v -0.4 0 0
v -0.4 0.1 0
v -0.2 -0.1 0
v -0.2 0 0
v -0.2 0.1 0
v -0.1 0 0
v -0.1 0.1 0
v -5.96046e-08 -0.1 0
v -5.96046e-08 0 0
v 0.1 0.2 0
v 0.1 0.3 0
v 0.2 0.2 0
v 0.2 0.3 0
v -0.4 0 -0.1
v -0.4 0.1 -0.1
v -0.2 0 -0.1
v -0.2 0.1 -0.1
v -5.96046e-08 -0.3 -0.1
v -5.96046e-08 -0.2 -0.1
v -5.96046e-08 -0.1 -0.1
v -5.96046e-08 0 -0.1
v 0.1 -0.3 -0.1
v 0.1 -0.2 -0.1
v 0.1 -0.1 -0.1
v 0.1 0 -0.1
v 0.1 0.2 -0.1
v 0.2 -0.2 -0.1
v 0.2 -0.1 -0.1
v 0.2 0.1 -0.1
v 0.3 -0.3 -0.1
v 0.3 -0.2 -0.1
v 0.3 -0.1 -0.1
v 0.3 0.1 -0.1
v 0.3 0.2 -0.1
v 0.1 -0.2 -0.3
v 0.1 -0.1 -0.3
v 0.2 -0.2 -0.3
v 0.2 -0.1 -0.3
v 0.3 -0.3 -0.3
v 0.3 -0.2 -0.3
v 0.4 -0.3 -0.3
v 0.4 -0.2 -0.3
v 0.1 -0.1 -0.4
v 0.1 0 -0.4
v 0.2 -0.1 -0.4
v 0.2 0 -0.4
v 0.4 -0.3 -0.4
v 0.4 -0.2 -0.4
v 0.6 -0.3 -0.4
v 0.6 -0.2 -0.4
v 0.2 0 -0.6
v 0.2 0.1 -0.6
v 0.3 0 -0.6
v 0.3 0.1 -0.6
v -5.96046e-08 0 -0.7
v -5.96046e-08 0.1 -0.7
v 0.1 0 -0.7
v 0.1 0.1 -0.7
v 0.1 0 -0.8
v 0.1 0.1 -0.8
v 0.2 0 -0.8
v 0.2 0.1 -0.8
v 0.3 -0.3 0.5
v 0.5 -0.3 0.5
v 0.2 -0.3 0.4
v 0.3 -0.3 0.4
v -5.96046e-08 -0.3 0.3
v 0.1 -0.3 0.3
v 0.4 -0.3 0.3
v 0.5 -0.3 0.3
v -5.96046e-08 -0.3 0.2
v 0.1 -0.3 0.2
v 0.2 -0.3 0.2
v 0.3 -0.3 0.2
v 0.4 -0.3 0.2
v -5.96046e-08 -0.3 0.1
v 0.1 -0.3 0.1
v 0.2 -0.3 0.1
v 0.1 -0.3 0
v 0.2 -0.3 0
v -5.96046e-08 -0.3 -0.1
v 0.1 -0.3 -0.1
v 0.3 -0.3 -0.1
v 0.4 -0.3 -0.1
v 0.5 -0.3 -0.1
v 0.3 -0.3 -0.2
v 0.4 -0.3 -0.2
v 0.5 -0.3 -0.2
v 0.6 -0.3 -0.2
v 0.3 -0.3 -0.3
v 0.4 -0.3 -0.3
v 0.4 -0.3 -0.4
v 0.6 -0.3 -0.4
v -0.1 -0.2 0.5
v -5.96046e-08 -0.2 0.5
v -5.96046e-08 -0.2 0.4
v 0.1 -0.2 0.4
v -0.1 -0.2 0.3
v -5.96046e-08 -0.2 0.3
v 0.1 -0.2 0.3
v 0.3 -0.2 0.2
v 0.4 -0.2 0.2
v 0.5 -0.2 0.2
v 0.3 -0.2 0.1
v 0.5 -0.2 0.1
v 0.1 -0.2 -0.1
v 0.2 -0.2 -0.1
v 0.1 -0.2 -0.3
v 0.2 -0.2 -0.3
v -0.1 -0.1 0.8
v -5.96046e-08 -0.1 0.8
v -0.2 -0.1 0.7
v -0.1 -0.1 0.7
v -5.96046e-08 -0.1 0.7
v 0.1 -0.1 0.7
v -0.1 -0.1 0.5
v -5.96046e-08 -0.1 0.5
v 0.1 -0.1 0.5
v -0.2 -0.1 0.4
v -0.1 -0.1 0.4
v -0.2 -0.1 0.1
v -5.96046e-08 -0.1 0.1
v -0.2 -0.1 0
v -5.96046e-08 -0.1 0
v 0.1 -0.1 0
v -5.96046e-08 -0.1 -0.1
v 0.1 -0.1 -0.1
v 0.1 -0.1 -0.3
v 0.2 -0.1 -0.3
v 0.1 -0.1 -0.4
v 0.2 -0.1 -0.4
v -0.5 0 0.2
v -0.1 0 0.2
v -0.6 0 0.1
v -0.5 0 0.1
v -0.2 0 0.1
v -0.1 0 0.1
v -0.6 0 0
v -0.4 0 0
v -0.2 0 0
v -0.4 0 -0.1
v -0.2 0 -0.1
v -5.96046e-08 0 -0.3
v 0.1 0 -0.3
v 0.1 0 -0.4
v 0.2 0 -0.4
v 0.3 0 -0.4
v 0.2 0 -0.6
v 0.3 0 -0.6
v -5.96046e-08 0 -0.7
v 0.1 0 -0.7
v 0.1 0 -0.8
v 0.2 0 -0.8
v 0.2 0.1 0
v 0.3 0.1 0
v 0.2 0.1 -0.1
v 0.3 0.1 -0.1
v 0.1 0.2 0.1
v 0.2 0.2 0.1
v 0.1 0.2 0
v 0.2 0.2 0
v 0.1 0.3 0.2
v 0.2 0.3 0.2
v 0.1 0.3 0.1
v 0.2 0.3 0.1
v 0.3 -0.2 0.5
v 0.5 -0.2 0.5
v 0.2 -0.2 0.4
v 0.3 -0.2 0.4
v -5.96046e-08 -0.2 0.3
v 0.1 -0.2 0.3
v 0.4 -0.2 0.3
v 0.5 -0.2 0.3
v -5.96046e-08 -0.2 0.2
v 0.1 -0.2 0.2
v 0.2 -0.2 0.2
v 0.3 -0.2 0.2
v 0.4 -0.2 0.2
v -5.96046e-08 -0.2 0.1
v 0.1 -0.2 0.1
v 0.2 -0.2 0.1
v 0.3 -0.2 0.1
v 0.1 -0.2 0
v 0.2 -0.2 0
v 0.3 -0.2 0
v -5.96046e-08 -0.2 -0.1
v 0.1 -0.2 -0.1
v 0.3 -0.2 -0.1
v 0.4 -0.2 -0.1
v 0.5 -0.2 -0.1
v 0.3 -0.2 -0.2
v 0.4 -0.2 -0.2
v 0.5 -0.2 -0.2
v 0.6 -0.2 -0.2
v 0.3 -0.2 -0.3
v 0.4 -0.2 -0.3
v 0.4 -0.2 -0.4
v 0.6 -0.2 -0.4
v -5.96046e-08 -0.1 0.4
v 0.1 -0.1 0.4
v -5.96046e-08 -0.1 0.3
v 0.1 -0.1 0.3
v 0.3 -0.1 0.2
v 0.5 -0.1 0.2
v 0.3 -0.1 0.1
v 0.5 -0.1 0.1
v 0.2 -0.1 0
v 0.3 -0.1 0
v 0.1 -0.1 -0.1
v 0.2 -0.1 -0.1
v 0.3 -0.1 -0.1
v 0.1 -0.1 -0.2
v 0.2 -0.1 -0.2
v -0.1 0 0.8
v -5.96046e-08 0 0.8
v -0.2 0 0.7
v -0.1 0 0.7
v -5.96046e-08 0 0.7
v 0.1 0 0.7
v -5.96046e-08 0 0.5
v 0.1 0 0.5
v -0.2 0 0.4
v -0.1 0 0.4
v -0.1 0 0.3
v -5.96046e-08 0 0.3
v -0.1 0 0.1
v -5.96046e-08 0 0.1
v -0.1 0 0
v -5.96046e-08 0 0
v 0.1 0 0
v -5.96046e-08 0 -0.1
v 0.1 0 -0.1
v 0.1 0 -0.2
v 0.2 0 -0.2
v 0.1 0 -0.3
v 0.2 0 -0.3
v -0.5 0.1 0.2
v -0.1 0.1 0.2
v -0.6 0.1 0.1
v -0.5 0.1 0.1
v -0.6 0.1 0
v -0.4 0.1 0
v -0.2 0.1 0
v -0.1 0.1 0
v -0.4 0.1 -0.1
v -0.2 0.1 -0.1
v -5.96046e-08 0.1 -0.3
v 0.2 0.1 -0.3
v 0.2 0.1 -0.4
v 0.3 0.1 -0.4
v 0.2 0.1 -0.6
v 0.3 0.1 -0.6
v -5.96046e-08 0.1 -0.7
v 0.1 0.1 -0.7
v 0.1 0.1 -0.8
v 0.2 0.1 -0.8
v 0.1 0.2 0
v 0.2 0.2 0
v 0.3 0.2 0
v 0.1 0.2 -0.1
v 0.3 0.2 -0.1
v 0.1 0.3 0.1
v 0.2 0.3 0.1
v 0.1 0.3 0
v 0.2 0.3 0
v 0.1 0.4 0.2
v 0.2 0.4 0.2
v 0.1 0.4 0.1
v 0.2 0.4 0.1

# faces
f 3/1/1 2/1/1 1/1/1
f 4/1/1 2/1/1 3/1/1
f 7/1/1 6/1/1 5/1/1
f 8/1/1 6/1/1 7/1/1
f 11/1/1 10/1/1 9/1/1
f 12/1/1 10/1/1 11/1/1
f 17/1/1 14/1/1 13/1/1
f 18/1/1 14/1/1 17/1/1
f 19/2/1 16/2/1 15/2/1
f 20/2/1 16/2/1 19/2/1
f 25/2/1 22/2/1 21/2/1
f 26/2/1 22/2/1 25/2/1
f 27/2/1 22/2/1 26/2/1
f 28/1/1 24/1/1 23/1/1
f 29/1/1 24/1/1 28/1/1
f 30/1/1 27/1/1 26/1/1
f 31/1/1 27/1/1 30/1/1
f 36/2/1 33/2/1 32/2/1
f 37/2/1 33/2/1 36/2/1
f 38/1/1 35/1/1 34/1/1
f 39/1/1 35/1/1 38/1/1
f 42/2/1 41/2/1 40/2/1
f 43/2/1 41/2/1 42/2/1
f 46/1/1 45/1/1 44/1/1
f 47/1/1 45/1/1 46/1/1
f 50/2/1 49/2/1 48/2/1
f 51/2/1 49/2/1 50/2/1
f 55/2/1 54/2/1 53/2/1
f 55/2/1 53/2/1 52/2/1
f 56/2/1 54/2/1 55/2/1
f 57/2/1 54/2/1 56/2/1
f 58/2/1 54/2/1 57/2/1
f 62/2/1 59/2/1 58/2/1
f 62/2/1 58/2/1 57/2/1
f 63/2/1 59/2/1 62/2/1
f 64/2/1 59/2/1 63/2/1
f 67/1/1 66/1/1 65/1/1
f 68/1/1 66/1/1 67/1/1
f 70/2/1 61/2/1 60/2/1
f 71/2/1 61/2/1 70/2/1
f 73/2/1 70/2/1 69/2/1
f 74/2/1 70/2/1 73/2/1
f 75/2/1 73/2/1 72/2/1
f 76/2/1 73/2/1 75/2/1
f 81/1/1 78/1/1 77/1/1
f 82/1/1 78/1/1 81/1/1
f 83/2/1 80/2/1 79/2/1
f 84/2/1 80/2/1 83/2/1
f 90/1/1 86/1/1 85/1/1
f 91/1/1 86/1/1 90/1/1
f 94/2/1 88/2/1 87/2/1
f 95/1/1 89/1/1 88/1/1
f 95/2/1 88/2/1 94/2/1
f 96/1/1 89/1/1 95/1/1
f 97/2/1 93/2/1 92/2/1
f 98/2/1 93/2/1 97/2/1
f 101/1/1 100/1/1 99/1/1
f 102/1/1 100/1/1 101/1/1
f 103/1/2 104/1/2 105/1/2
f 105/1/2 104/1/2 106/1/2
f 107/1/2 108/1/2 110/1/2
f 108/1/2 109/1/2 110/1/2
f 110/1/2 109/1/2 111/1/2
f 112/2/2 113/2/2 116/2/2
f 116/2/2 113/2/2 117/2/2
f 114/1/2 115/1/2 121/1/2
f 121/1/2 115/1/2 122/1/2
f 116/1/2 117/1/2 123/1/2
f 117/1/2 118/1/2 123/1/2
f 123/1/2 118/1/2 124/1/2
f 119/2/2 120/2/2 125/2/2
f 125/2/2 120/2/2 126/2/2
f 127/2/2 128/2/2 132/2/2
f 132/2/2 128/2/2 133/2/2
f 129/1/2 130/1/2 134/1/2
f 134/1/2 130/1/2 135/1/2
f 131/2/2 132/2/2 138/2/2
f 138/2/2 132/2/2 139/2/2
f 136/1/2 137/1/2 140/1/2
f 140/1/2 137/1/2 141/1/2
f 142/2/2 143/2/2 145/2/2
f 145/2/2 143/2/2 146/2/2
f 146/2/2 143/2/2 147/2/2
f 147/2/2 148/2/2 149/2/2
f 146/2/2 147/2/2 149/2/2
f 149/2/2 148/2/2 150/2/2
f 150/2/2 148/2/2 151/2/2
f 144/2/2 145/2/2 154/2/2
f 154/2/2 145/2/2 155/2/2
f 150/1/2 151/1/2 156/1/2
f 156/1/2 151/1/2 157/1/2
f 152/1/2 153/1/2 158/1/2
f 158/1/2 153/1/2 159/1/2
f 160/2/2 161/2/2 163/2/2
f 163/2/2 161/2/2 164/2/2
f 162/2/2 163/2/2 165/2/2
f 165/2/2 163/2/2 166/2/2
f 167/2/2 168/2/2 169/2/2
f 169/2/2 168/2/2 170/2/2
f 170/2/2 168/2/2 171/2/2
f 171/2/2 168/2/2 172/2/2
f 171/2/2 172/2/2 173/2/2
f 173/2/2 172/2/2 174/2/2
f 175/1/2 176/1/2 179/1/2
f 179/1/2 176/1/2 180/1/2
f 177/2/2 178/2/2 181/2/2
f 181/2/2 178/2/2 182/2/2
f 183/1/2 184/1/2 185/1/2
f 185/1/2 184/1/2 186/1/2
f 187/1/2 188/1/2 191/1/2
f 191/1/2 188/1/2 192/1/2
f 189/1/2 190/1/2 195/1/2
f 195/1/2 190/1/2 196/1/2
f 193/2/2 194/2/2 197/2/2
f 197/2/2 194/2/2 198/2/2
f 199/1/2 200/1/2 201/1/2
f 201/1/2 200/1/2 202/1/2
f 205/1/3 204/1/3 203/1/3
f 206/1/3 204/1/3 205/1/3
f 209/1/3 208/1/3 207/1/3
f 210/1/3 208/1/3 209/1/3
f 213/1/3 212/1/3 211/1/3
f 214/1/3 212/1/3 213/1/3
f 217/2/3 216/2/3 215/2/3
f 218/2/3 216/2/3 217/2/3
f 221/1/3 220/1/3 219/1/3
f 222/1/3 220/1/3 221/1/3
f 225/2/3 224/2/3 223/2/3
f 226/2/3 224/2/3 225/2/3
f 229/1/3 228/1/3 227/1/3
f 230/1/3 228/1/3 229/1/3
f 233/2/3 232/2/3 231/2/3
f 234/2/3 232/2/3 233/2/3
f 237/1/3 236/1/3 235/1/3
f 238/1/3 236/1/3 237/1/3
f 243/2/3 240/2/3 239/2/3
f 244/2/3 240/2/3 243/2/3
f 245/2/3 242/2/3 241/2/3
f 246/2/3 242/2/3 245/2/3
f 249/2/3 248/2/3 247/2/3
f 250/2/3 248/2/3 249/2/3
f 251/2/3 248/2/3 250/2/3
f 254/1/3 253/1/3 252/1/3
f 255/1/3 253/1/3 254/1/3
f 258/2/3 257/2/3 256/2/3
f 261/2/3 258/2/3 256/2/3
f 262/2/3 258/2/3 261/2/3
f 263/1/3 260/1/3 259/1/3
f 264/1/3 260/1/3 263/1/3
f 267/2/3 266/2/3 265/2/3
f 268/2/3 266/2/3 267/2/3
f 273/2/3 270/2/3 269/2/3
f 274/2/3 270/2/3 273/2/3
f 276/2/3 272/2/3 271/2/3
f 276/2/3 275/2/3 274/2/3
f 276/2/3 274/2/3 273/2/3
f 276/2/3 273/2/3 272/2/3
f 277/2/3 275/2/3 276/2/3
f 278/2/3 275/2/3 277/2/3
f 279/2/3 275/2/3 278/2/3
f 280/2/3 275/2/3 279/2/3
f 281/2/3 278/2/3 277/2/3
f 282/2/3 278/2/3 281/2/3
f 283/2/3 280/2/3 279/2/3
f 284/2/3 280/2/3 283/2/3
f 287/2/3 286/2/3 285/2/3
f 288/2/3 286/2/3 287/2/3
f 289/1/3 288/1/3 287/1/3
f 290/1/3 288/1/3 289/1/3
f 293/2/3 292/2/3 291/2/3
f 294/2/3 292/2/3 293/2/3
f 297/1/3 296/1/3 295/1/3
f 298/1/3 296/1/3 297/1/3
f 301/1/3 300/1/3 299/1/3
f 302/1/3 300/1/3 301/1/3
f 303/1/3 300/1/3 302/1/3
f 306/1/3 305/1/3 304/1/3
f 307/1/3 305/1/3 306/1/3
f 308/1/4 309/1/4 310/1/4
f 310/1/4 309/1/4 311/1/4
f 312/1/4 313/1/4 314/1/4
f 314/1/4 313/1/4 315/1/4
f 316/2/4 317/2/4 319/2/4
f 317/1/4 318/1/4 320/1/4
f 319/2/4 317/2/4 320/2/4
f 320/1/4 318/1/4 321/1/4
f 319/2/4 320/2/4 322/2/4
f 322/2/4 320/2/4 323/2/4
f 324/1/4 325/1/4 326/1/4
f 326/1/4 325/1/4 327/1/4
f 328/2/4 329/2/4 330/2/4
f 330/2/4 329/2/4 331/2/4
f 332/1/4 333/1/4 334/1/4
f 334/1/4 333/1/4 335/1/4
f 336/2/4 337/2/4 340/2/4
f 340/2/4 337/2/4 341/2/4
f 338/2/4 339/2/4 342/2/4
f 342/2/4 339/2/4 343/2/4
f 344/2/4 345/2/4 346/2/4
f 346/2/4 345/2/4 347/2/4
f 348/1/4 349/1/4 350/1/4
f 350/1/4 349/1/4 351/1/4
f 352/2/4 353/2/4 355/2/4
f 353/1/4 354/1/4 355/1/4
f 355/1/4 354/1/4 356/1/4
f 352/2/4 355/2/4 357/2/4
f 357/2/4 355/2/4 358/2/4
f 359/2/4 360/2/4 361/2/4
f 361/2/4 360/2/4 362/2/4
f 363/1/4 364/1/4 365/1/4
f 365/1/4 364/1/4 366/1/4
f 367/1/4 368/1/4 371/1/4
f 371/1/4 368/1/4 372/1/4
f 369/2/4 370/2/4 373/2/4
f 373/2/4 370/2/4 374/2/4
f 371/2/4 372/2/4 376/2/4
f 373/2/4 374/2/4 377/2/4
f 374/2/4 375/2/4 377/2/4
f 377/2/4 375/2/4 378/2/4
f 371/2/4 376/2/4 379/2/4
f 376/2/4 377/2/4 379/2/4
f 379/2/4 377/2/4 380/2/4
f 380/2/4 377/2/4 381/2/4
f 378/2/4 375/2/4 382/2/4
f 382/2/4 375/2/4 383/2/4
f 384/2/4 385/2/4 386/2/4
f 386/2/4 385/2/4 387/2/4
f 388/1/4 389/1/4 390/1/4
f 390/1/4 389/1/4 391/1/4
f 392/2/4 393/2/4 394/2/4
f 394/2/4 393/2/4 395/2/4
f 396/1/4 397/1/4 398/1/4
f 398/1/4 397/1/4 399/1/4
f 400/1/4 401/1/4 402/1/4
f 402/1/4 401/1/4 403/1/4
f 404/1/4 405/1/4 406/1/4
f 406/1/4 405/1/4 407/1/4
f 408/1/4 409/1/4 410/1/4
f 410/1/4 409/1/4 411/1/4
f 415/1/5 413/1/5 412/1/5
f 418/1/5 413/1/5 415/1/5
f 418/1/5 415/1/5 414/1/5
f 419/1/5 413/1/5 418/1/5
f 420/2/5 417/2/5 416/2/5
f 421/2/5 417/2/5 420/2/5
f 422/1/5 418/1/5 414/1/5
f 423/1/5 418/1/5 422/1/5
f 424/1/5 418/1/5 423/1/5
f 426/2/5 422/2/5 421/2/5
f 426/2/5 423/2/5 422/2/5
f 427/2/5 423/2/5 426/2/5
f 428/1/5 426/1/5 425/1/5
f 429/2/5 423/2/5 427/2/5
f 430/1/5 428/1/5 425/1/5
f 431/2/5 429/2/5 428/2/5
f 431/1/5 428/1/5 430/1/5
f 432/2/5 423/2/5 429/2/5
f 432/2/5 429/2/5 431/2/5
f 435/2/5 433/2/5 432/2/5
f 436/1/5 434/1/5 433/1/5
f 436/2/5 433/2/5 435/2/5
f 437/1/5 434/1/5 436/1/5
f 439/1/5 437/1/5 436/1/5
f 439/1/5 438/1/5 437/1/5
f 439/1/5 436/1/5 435/1/5
f 440/1/5 438/1/5 439/1/5
f 441/1/5 438/1/5 440/1/5
f 442/1/5 438/1/5 441/1/5
f 445/2/5 444/2/5 443/2/5
f 447/2/5 445/2/5 443/2/5
f 447/2/5 446/2/5 445/2/5
f 448/2/5 446/2/5 447/2/5
f 449/2/5 446/2/5 448/2/5
f 453/2/5 451/2/5 450/2/5
f 453/2/5 452/2/5 451/2/5
f 454/2/5 452/2/5 453/2/5
f 457/2/5 456/2/5 455/2/5
f 458/2/5 456/2/5 457/2/5
f 462/1/5 460/1/5 459/1/5
f 463/1/5 460/1/5 462/1/5
f 465/1/5 462/1/5 461/1/5
f 465/1/5 464/1/5 463/1/5
f 465/1/5 463/1/5 462/1/5
f 466/1/5 464/1/5 465/1/5
f 467/1/5 464/1/5 466/1/5
f 468/1/5 465/1/5 461/1/5
f 469/1/5 465/1/5 468/1/5
f 472/2/5 471/2/5 470/2/5
f 473/2/5 471/2/5 472/2/5
f 475/2/5 474/2/5 473/2/5
f 476/2/5 474/2/5 475/2/5
f 479/2/5 478/2/5 477/2/5
f 480/2/5 478/2/5 479/2/5
f 484/1/5 482/1/5 481/1/5
f 485/1/5 482/1/5 484/1/5
f 486/1/5 482/1/5 485/1/5
f 487/1/5 484/1/5 483/1/5
f 487/1/5 485/1/5 484/1/5
f 488/1/5 485/1/5 487/1/5
f 489/1/5 485/1/5 488/1/5
f 490/1/5 489/1/5 488/1/5
f 491/1/5 489/1/5 490/1/5
f 494/1/5 493/1/5 492/1/5
f 497/1/5 495/1/5 494/1/5
f 497/1/5 496/1/5 495/1/5
f 498/1/5 496/1/5 497/1/5
f 499/1/5 494/1/5 492/1/5
f 499/1/5 497/1/5 494/1/5
f 500/1/5 497/1/5 499/1/5
f 501/1/5 497/1/5 500/1/5
f 502/1/5 497/1/5 501/1/5
f 505/2/5 504/2/5 503/2/5
f 506/2/5 504/2/5 505/2/5
f 509/2/5 508/2/5 507/2/5
f 510/2/5 508/2/5 509/2/5
f 513/2/5 512/2/5 511/2/5
f 514/2/5 512/2/5 513/2/5
f 515/1/6 516/1/6 518/1/6
f 518/1/6 516/1/6 521/1/6
f 517/1/6 518/1/6 521/1/6
f 521/1/6 516/1/6 522/1/6
f 519/2/6 520/2/6 523/2/6
f 523/2/6 520/2/6 524/2/6
f 517/1/6 521/1/6 525/1/6
f 525/1/6 521/1/6 526/1/6
f 526/1/6 521/1/6 527/1/6
f 524/2/6 525/2/6 529/2/6
f 525/2/6 526/2/6 529/2/6
f 529/2/6 526/2/6 530/2/6
f 530/2/6 526/2/6 531/2/6
f 528/1/6 529/1/6 532/1/6
f 530/2/6 531/2/6 533/2/6
f 533/2/6 531/2/6 534/2/6
f 528/1/6 532/1/6 535/1/6
f 535/1/6 532/1/6 536/1/6
f 537/2/6 538/2/6 540/2/6
f 538/1/6 539/1/6 541/1/6
f 540/2/6 538/2/6 541/2/6
f 541/1/6 539/1/6 542/1/6
f 541/1/6 542/1/6 544/1/6
f 542/1/6 543/1/6 544/1/6
f 540/1/6 541/1/6 544/1/6
f 544/1/6 543/1/6 545/1/6
f 545/1/6 543/1/6 546/1/6
f 546/1/6 543/1/6 547/1/6
f 548/2/6 549/2/6 550/2/6
f 550/2/6 549/2/6 551/2/6
f 552/2/6 553/2/6 554/2/6
f 554/2/6 553/2/6 555/2/6
f 556/2/6 557/2/6 559/2/6
f 559/2/6 557/2/6 560/2/6
f 558/2/6 559/2/6 561/2/6
f 561/2/6 559/2/6 562/2/6
f 563/1/6 564/1/6 566/1/6
f 566/1/6 564/1/6 567/1/6
f 565/1/6 566/1/6 569/1/6
f 567/1/6 568/1/6 569/1/6
f 566/1/6 567/1/6 569/1/6
f 569/1/6 568/1/6 570/1/6
f 565/1/6 569/1/6 571/1/6
f 571/1/6 569/1/6 572/1/6
f 572/1/6 569/1/6 573/1/6
f 573/1/6 569/1/6 574/1/6
f 575/2/6 576/2/6 577/2/6
f 577/2/6 576/2/6 578/2/6
f 578/2/6 579/2/6 580/2/6
f 580/2/6 579/2/6 581/2/6
f 582/2/6 583/2/6 584/2/6
f 584/2/6 583/2/6 585/2/6
f 586/1/6 587/1/6 589/1/6
f 588/1/6 589/1/6 590/1/6
f 589/1/6 587/1/6 591/1/6
f 590/1/6 589/1/6 591/1/6
f 591/1/6 587/1/6 592/1/6
f 592/1/6 587/1/6 593/1/6
f 591/1/6 592/1/6 594/1/6
f 594/1/6 592/1/6 595/1/6
f 596/1/6 597/1/6 598/1/6
f 596/1/6 598/1/6 600/1/6
f 598/1/6 599/1/6 600/1/6
f 600/1/6 599/1/6 601/1/6
f 596/1/6 600/1/6 602/1/6
f 602/1/6 600/1/6 603/1/6
f 603/1/6 600/1/6 604/1/6
f 604/1/6 600/1/6 605/1/6
f 606/2/6 607/2/6 609/2/6
f 607/2/6 608/2/6 609/2/6
f 609/2/6 608/2/6 610/2/6
f 611/2/6 612/2/6 613/2/6
f 613/2/6 612/2/6 614/2/6
f 615/2/6 616/2/6 617/2/6
f 617/2/6 616/2/6 618/2/6
