# MagicaVoxel @ Ephtracy

# group
o 

# material
mtllib cucumber_7.mtl
usemtl palette

# normals
vn -1 0 0
vn 1 0 0
vn 0 0 1
vn 0 0 -1
vn 0 -1 0
vn 0 1 0

# texcoords
vt 0.654297 0.5
vt 0.759766 0.5
vt 0.763672 0.5
vt 0.779297 0.5

# verts
v -0.2 -0.1 0.7
v -0.2 -0.1 -0.5
v -0.2 0 0.8
v -0.2 0 0.7
v -0.2 0 -0.5
v -0.2 0 -0.6
v -0.2 0.1 0.8
v -0.2 0.1 0.7
v -0.2 0.1 -0.5
v -0.2 0.1 -0.6
v -0.2 0.2 0.7
v -0.2 0.2 -0.5
v -0.1 -0.1 0.8
v -0.1 -0.1 0.7
v -0.1 -0.1 -0.5
v -0.1 -0.1 -0.6
v -0.1 0 0.8
v -0.1 0 0.7
v -0.1 0 -0.5
v -0.1 0 -0.6
v -0.1 0 -0.9
v -0.1 0.1 0.8
v -0.1 0.1 0.7
v -0.1 0.1 -0.5
v -0.1 0.1 -0.6
v -0.1 0.1 -0.9
v -0.1 0.2 0.8
v -0.1 0.2 0.7
v -0.1 0.2 -0.5
v -0.1 0.2 -0.6
v 0 0 -0.8
v 0 0 -0.9
v 0 0.1 -0.8
v 0 0.1 -0.9
v 0.1 -0.1 0.8
v 0.1 -0.1 0.7
v 0.1 -0.1 -0.5
v 0.1 -0.1 -0.6
v 0.1 0 0.8
v 0.1 0 0.7
v 0.1 0 -0.5
v 0.1 0 -0.6
v 0.1 0 -0.8
v 0.1 0.1 0.8
v 0.1 0.1 0.7
v 0.1 0.1 -0.5
v 0.1 0.1 -0.6
v 0.1 0.1 -0.8
v 0.1 0.2 0.8
v 0.1 0.2 0.7
v 0.1 0.2 -0.5
v 0.1 0.2 -0.6
v 0.2 -0.1 0.7
v 0.2 -0.1 -0.5
v 0.2 0 0.8
v 0.2 0 0.7
v 0.2 0 -0.5
v 0.2 0 -0.6
v 0.2 0.1 0.8
v 0.2 0.1 0.7
v 0.2 0.1 -0.5
v 0.2 0.1 -0.6
v 0.2 0.2 0.7
v 0.2 0.2 -0.5
v -0.2 0 0.8
v -0.2 0.1 0.8
v -0.1 -0.1 0.8
v -0.1 0 0.8
v -0.1 0.1 0.8
v -0.1 0.2 0.8
v 0 0.1 0.8
v 0 0.2 0.8
v 0.1 -0.1 0.8
v 0.1 0 0.8
v 0.1 0.1 0.8
v 0.1 0.2 0.8
v 0.2 0 0.8
v 0.2 0.1 0.8
v -0.2 -0.1 0.7
v -0.2 0 0.7
v -0.2 0.1 0.7
v -0.2 0.2 0.7
v -0.1 -0.1 0.7
v -0.1 0 0.7
v -0.1 0.1 0.7
v -0.1 0.2 0.7
v 0.1 -0.1 0.7
v 0.1 0 0.7
v 0.1 0.1 0.7
v 0.1 0.2 0.7
v 0.2 -0.1 0.7
v 0.2 0 0.7
v 0.2 0.1 0.7
v 0.2 0.2 0.7
v -0.2 -0.1 -0.5
v -0.2 0 -0.5
v -0.2 0.1 -0.5
v -0.2 0.2 -0.5
v -0.1 -0.1 -0.5
v -0.1 0 -0.5
v -0.1 0.1 -0.5
v -0.1 0.2 -0.5
v 0.1 -0.1 -0.5
v 0.1 0 -0.5
v 0.1 0.1 -0.5
v 0.1 0.2 -0.5
v 0.2 -0.1 -0.5
v 0.2 0 -0.5
v 0.2 0.1 -0.5
v 0.2 0.2 -0.5
v -0.2 0 -0.6
v -0.2 0.1 -0.6
v -0.1 -0.1 -0.6
v -0.1 0 -0.6
v -0.1 0.1 -0.6
v -0.1 0.2 -0.6
v 0.1 -0.1 -0.6
v 0.1 0 -0.6
v 0.1 0.1 -0.6
v 0.1 0.2 -0.6
v 0.2 0 -0.6
v 0.2 0.1 -0.6
v 0 0 -0.8
v 0 0.1 -0.8
v 0.1 0 -0.8
v 0.1 0.1 -0.8
v -0.1 0 -0.9
v -0.1 0.1 -0.9
v 0 0 -0.9
v 0 0.1 -0.9
v -0.1 -0.1 0.8
v 0.1 -0.1 0.8
v -0.2 -0.1 0.7
v -0.1 -0.1 0.7
v 0 -0.1 0.7
v 0.1 -0.1 0.7
v 0.2 -0.1 0.7
v -0.2 -0.1 -0.5
v -0.1 -0.1 -0.5
v 0 -0.1 -0.5
v 0.1 -0.1 -0.5
v 0.2 -0.1 -0.5
v -0.1 -0.1 -0.6
v 0.1 -0.1 -0.6
v -0.2 0 0.8
v -0.1 0 0.8
v 0.1 0 0.8
v 0.2 0 0.8
v -0.2 0 0.7
v -0.1 0 0.7
v 0.1 0 0.7
v 0.2 0 0.7
v -0.2 0 -0.5
v -0.1 0 -0.5
v 0.1 0 -0.5
v 0.2 0 -0.5
v -0.2 0 -0.6
v -0.1 0 -0.6
v 0.1 0 -0.6
v 0.2 0 -0.6
v 0 0 -0.8
v 0.1 0 -0.8
v -0.1 0 -0.9
v 0 0 -0.9
v -0.2 0.1 0.8
v -0.1 0.1 0.8
v 0.1 0.1 0.8
v 0.2 0.1 0.8
v -0.2 0.1 0.7
v -0.1 0.1 0.7
v 0.1 0.1 0.7
v 0.2 0.1 0.7
v -0.2 0.1 -0.5
v -0.1 0.1 -0.5
v 0.1 0.1 -0.5
v 0.2 0.1 -0.5
v -0.2 0.1 -0.6
v -0.1 0.1 -0.6
v 0.1 0.1 -0.6
v 0.2 0.1 -0.6
v 0 0.1 -0.8
v 0.1 0.1 -0.8
v -0.1 0.1 -0.9
v 0 0.1 -0.9
v -0.1 0.2 0.8
v 0 0.2 0.8
v 0.1 0.2 0.8
v -0.2 0.2 0.7
v -0.1 0.2 0.7
v 0.1 0.2 0.7
v 0.2 0.2 0.7
v -0.2 0.2 -0.5
v -0.1 0.2 -0.5
v 0 0.2 -0.5
v 0.1 0.2 -0.5
v 0.2 0.2 -0.5
v -0.1 0.2 -0.6
v 0.1 0.2 -0.6

# faces
f 4/4/1 2/4/1 1/4/1
f 5/4/1 2/4/1 4/4/1
f 7/1/1 4/1/1 3/1/1
f 7/1/1 5/1/1 4/1/1
f 8/1/1 5/1/1 7/1/1
f 9/2/1 6/2/1 5/2/1
f 9/1/1 5/1/1 8/1/1
f 10/2/1 6/2/1 9/2/1
f 11/4/1 9/4/1 8/4/1
f 12/4/1 9/4/1 11/4/1
f 17/4/1 14/4/1 13/4/1
f 18/4/1 14/4/1 17/4/1
f 19/2/1 16/2/1 15/2/1
f 20/2/1 16/2/1 19/2/1
f 25/2/1 21/2/1 20/2/1
f 26/2/1 21/2/1 25/2/1
f 27/1/1 23/1/1 22/1/1
f 28/1/1 23/1/1 27/1/1
f 29/2/1 25/2/1 24/2/1
f 30/2/1 25/2/1 29/2/1
f 31/2/2 32/2/2 33/2/2
f 33/2/2 32/2/2 34/2/2
f 35/4/2 36/4/2 39/4/2
f 39/4/2 36/4/2 40/4/2
f 37/2/2 38/2/2 41/2/2
f 41/2/2 38/2/2 42/2/2
f 42/2/2 43/2/2 47/2/2
f 47/2/2 43/2/2 48/2/2
f 44/4/2 45/4/2 49/4/2
f 49/4/2 45/4/2 50/4/2
f 46/2/2 47/2/2 51/2/2
f 51/2/2 47/2/2 52/2/2
f 53/4/2 54/4/2 56/4/2
f 56/4/2 54/4/2 57/4/2
f 55/1/2 56/1/2 59/1/2
f 56/1/2 57/1/2 59/1/2
f 59/1/2 57/1/2 60/1/2
f 57/2/2 58/2/2 61/2/2
f 60/1/2 57/1/2 61/1/2
f 61/2/2 58/2/2 62/2/2
f 60/4/2 61/4/2 63/4/2
f 63/4/2 61/4/2 64/4/2
f 68/1/3 66/1/3 65/1/3
f 69/1/3 66/1/3 68/1/3
f 71/4/3 68/4/3 67/4/3
f 71/1/3 70/1/3 69/1/3
f 71/4/3 69/4/3 68/4/3
f 72/1/3 70/1/3 71/1/3
f 73/4/3 71/4/3 67/4/3
f 73/4/3 72/4/3 71/4/3
f 74/4/3 72/4/3 73/4/3
f 75/4/3 72/4/3 74/4/3
f 76/4/3 72/4/3 75/4/3
f 77/1/3 75/1/3 74/1/3
f 78/1/3 75/1/3 77/1/3
f 83/4/3 80/4/3 79/4/3
f 84/4/3 80/4/3 83/4/3
f 85/4/3 82/4/3 81/4/3
f 86/4/3 82/4/3 85/4/3
f 91/4/3 88/4/3 87/4/3
f 92/4/3 88/4/3 91/4/3
f 93/4/3 90/4/3 89/4/3
f 94/4/3 90/4/3 93/4/3
f 95/4/4 96/4/4 99/4/4
f 99/4/4 96/4/4 100/4/4
f 97/4/4 98/4/4 101/4/4
f 101/4/4 98/4/4 102/4/4
f 103/4/4 104/4/4 107/4/4
f 107/4/4 104/4/4 108/4/4
f 105/4/4 106/4/4 109/4/4
f 109/4/4 106/4/4 110/4/4
f 111/2/4 112/2/4 114/2/4
f 114/2/4 112/2/4 115/2/4
f 113/2/4 114/2/4 117/2/4
f 117/2/4 114/2/4 118/2/4
f 115/2/4 116/2/4 119/2/4
f 119/2/4 116/2/4 120/2/4
f 118/2/4 119/2/4 121/2/4
f 121/2/4 119/2/4 122/2/4
f 123/2/4 124/2/4 125/2/4
f 125/2/4 124/2/4 126/2/4
f 127/2/4 128/2/4 129/2/4
f 129/2/4 128/2/4 130/2/4
f 134/4/5 132/4/5 131/4/5
f 135/4/5 132/4/5 134/4/5
f 136/4/5 132/4/5 135/4/5
f 138/4/5 134/4/5 133/4/5
f 138/4/5 135/4/5 134/4/5
f 139/4/5 135/4/5 138/4/5
f 140/1/5 136/1/5 135/1/5
f 140/4/5 135/4/5 139/4/5
f 141/4/5 137/4/5 136/4/5
f 141/1/5 136/1/5 140/1/5
f 142/4/5 137/4/5 141/4/5
f 143/2/5 140/2/5 139/2/5
f 143/2/5 141/2/5 140/2/5
f 144/2/5 141/2/5 143/2/5
f 149/1/5 146/1/5 145/1/5
f 150/1/5 146/1/5 149/1/5
f 151/1/5 148/1/5 147/1/5
f 152/1/5 148/1/5 151/1/5
f 157/2/5 154/2/5 153/2/5
f 158/2/5 154/2/5 157/2/5
f 159/2/5 156/2/5 155/2/5
f 160/2/5 156/2/5 159/2/5
f 161/2/5 159/2/5 158/2/5
f 162/2/5 159/2/5 161/2/5
f 163/2/5 161/2/5 158/2/5
f 164/2/5 161/2/5 163/2/5
f 165/1/6 166/1/6 169/1/6
f 169/1/6 166/1/6 170/1/6
f 167/1/6 168/1/6 171/1/6
f 171/1/6 168/1/6 172/1/6
f 173/2/6 174/2/6 177/2/6
f 177/2/6 174/2/6 178/2/6
f 175/2/6 176/2/6 179/2/6
f 179/2/6 176/2/6 180/2/6
f 178/2/6 179/2/6 181/2/6
f 181/2/6 179/2/6 182/2/6
f 178/2/6 181/2/6 183/2/6
f 183/2/6 181/2/6 184/2/6
f 185/1/6 186/1/6 189/1/6
f 186/4/6 187/4/6 190/4/6
f 188/4/6 189/4/6 192/4/6
f 189/1/6 186/1/6 193/1/6
f 192/4/6 189/4/6 193/4/6
f 190/4/6 191/4/6 194/4/6
f 193/1/6 186/1/6 194/1/6
f 186/4/6 190/4/6 194/4/6
f 194/4/6 191/4/6 195/4/6
f 195/4/6 191/4/6 196/4/6
f 193/2/6 194/2/6 197/2/6
f 194/2/6 195/2/6 197/2/6
f 197/2/6 195/2/6 198/2/6
