# MagicaVoxel @ Ephtracy

# group
o 

# material
mtllib NPC4_leftleg_1.mtl
usemtl palette

# normals
vn -1 0 0
vn 1 0 0
vn 0 0 1
vn 0 0 -1
vn 0 -1 0
vn 0 1 0

# texcoords
vt 0.595703 0.5
vt 0.599609 0.5
vt 0.791016 0.5
vt 0.974609 0.5

# verts
v -0.8 -2.2 0.8
v -0.8 -2.2 -0.8
v -0.8 -2.1 0.8
v -0.8 -2.1 -0.8
v -0.8 0 0.8
v -0.8 0 -0.8
v 0.8 -2.2 0.8
v 0.8 -2.2 -0.8
v 0.8 -2.1 0.8
v 0.8 -2.1 0.3
v 0.8 -2.1 -0.3
v 0.8 -2.1 -0.8
v 0.8 -0.8 0.3
v 0.8 -0.8 -0.3
v 0.8 0 0.8
v 0.8 0 -0.8
v -0.8 -2.2 0.8
v -0.8 -2.1 0.8
v -0.8 0 0.8
v 0.8 -2.2 0.8
v 0.8 -2.1 0.8
v 0.8 0 0.8
v -0.8 -2.2 -0.8
v -0.8 -2.1 -0.8
v -0.8 0 -0.8
v 0.8 -2.2 -0.8
v 0.8 -2.1 -0.8
v 0.8 0 -0.8
v -0.8 -2.2 0.8
v 0.8 -2.2 0.8
v -0.8 -2.2 -0.8
v 0.8 -2.2 -0.8
v -0.8 0 0.8
v 0.8 0 0.8
v -0.8 0 -0.8
v 0.8 0 -0.8

# faces
f 3/4/1 2/4/1 1/4/1
f 4/4/1 2/4/1 3/4/1
f 5/1/1 4/1/1 3/1/1
f 6/1/1 4/1/1 5/1/1
f 7/4/2 8/4/2 9/4/2
f 9/4/2 8/4/2 10/4/2
f 10/4/2 8/4/2 11/4/2
f 11/4/2 8/4/2 12/4/2
f 9/1/2 10/1/2 13/1/2
f 10/3/2 11/3/2 13/3/2
f 11/1/2 12/1/2 14/1/2
f 13/3/2 11/3/2 14/3/2
f 9/1/2 13/1/2 15/1/2
f 13/1/2 14/1/2 15/1/2
f 14/1/2 12/1/2 16/1/2
f 15/1/2 14/1/2 16/1/2
f 20/4/3 18/4/3 17/4/3
f 21/1/3 19/1/3 18/1/3
f 21/4/3 18/4/3 20/4/3
f 22/1/3 19/1/3 21/1/3
f 23/4/4 24/4/4 26/4/4
f 24/1/4 25/1/4 27/1/4
f 26/4/4 24/4/4 27/4/4
f 27/1/4 25/1/4 28/1/4
f 31/4/5 30/4/5 29/4/5
f 32/4/5 30/4/5 31/4/5
f 33/1/6 34/1/6 35/1/6
f 35/1/6 34/1/6 36/1/6
