# MagicaVoxel @ Ephtracy

# group
o Fish_1

# material
mtllib fish_2.mtl
usemtl palette

# normals
vn -1 0 0
vn 1 0 0
vn 0 0 1
vn 0 0 -1
vn 0 -1 0
vn 0 1 0

# texcoords
vt 0.822266 0.5
vt 0.826172 0.5
vt 0.830078 0.5

# verts
v -0.3 -0.3 0.1
v -0.3 -0.3 -0.7
v -0.3 0 0.1
v -0.3 0 -0.1
v -0.3 0.1 -0.1
v -0.3 0.1 -0.4
v -0.3 0.2 -0.4
v -0.3 0.2 -0.7
v -0.2 -0.5 -0.1
v -0.2 -0.5 -0.7
v -0.2 -0.4 0.3
v -0.2 -0.4 -0.1
v -0.2 -0.3 0.7
v -0.2 -0.3 0.3
v -0.2 -0.3 0.1
v -0.2 -0.3 -0.7
v -0.2 0 0.1
v -0.2 0 -0.1
v -0.2 0.1 -0.1
v -0.2 0.1 -0.4
v -0.2 0.2 0.7
v -0.2 0.2 0.5
v -0.2 0.2 -0.4
v -0.2 0.2 -0.7
v -0.2 0.4 0.5
v -0.2 0.4 -0.6
v -0.2 0.5 -0.6
v -0.2 0.5 -0.7
v 0 -0.8 0.1
v 0 -0.8 -0.5
v 0 -0.7 0.1
v 0 -0.7 -0.3
v 0 -0.7 -0.5
v 0 -0.7 -0.7
v 0 -0.6 0.1
v 0 -0.6 -0.1
v 0 -0.6 -0.3
v 0 -0.6 -0.4
v 0 -0.5 0.3
v 0 -0.5 -0.1
v 0 -0.5 -0.4
v 0 -0.5 -0.7
v 0 -0.4 0.6
v 0 -0.4 0.3
v 0 -0.4 -0.1
v 0 -0.3 0.6
v 0 -0.3 0.3
v 0 0.2 0.7
v 0 0.2 0.5
v 0 0.4 0.7
v 0 0.4 0.5
v 0 0.4 -0.6
v 0 0.5 0.5
v 0 0.5 -0.2
v 0 0.5 -0.5
v 0 0.5 -0.6
v 0 0.5 -0.7
v 0 0.6 -0.5
v 0 0.6 -0.7
v 0 0.8 -0.2
v 0 0.8 -0.7
v 0.2 -0.4 -0.2
v 0.2 -0.4 -0.7
v 0.2 -0.3 0.2
v 0.2 -0.3 0.1
v 0.2 -0.3 -0.2
v 0.2 -0.3 -0.7
v 0.2 -0.2 0.6
v 0.2 -0.2 0.2
v 0.2 0 0.1
v 0.2 0 -0.1
v 0.2 0.1 0.6
v 0.2 0.1 0.4
v 0.2 0.1 -0.1
v 0.2 0.1 -0.4
v 0.2 0.2 -0.4
v 0.2 0.2 -0.7
v 0.2 0.3 0.4
v 0.2 0.3 -0.7
v -0.2 -0.2 0
v -0.2 -0.2 -0.7
v -0.2 -0.1 0
v -0.2 -0.1 -0.2
v -0.2 0 -0.2
v -0.2 0 -0.5
v -0.2 0.1 -0.5
v -0.2 0.1 -0.7
v -0.1 -0.4 -0.2
v -0.1 -0.4 -0.7
v -0.1 -0.3 0.2
v -0.1 -0.3 0.1
v -0.1 -0.3 -0.2
v -0.1 -0.3 -0.7
v -0.1 -0.2 0.6
v -0.1 -0.2 0.2
v -0.1 -0.2 0
v -0.1 -0.2 -0.7
v -0.1 -0.1 0
v -0.1 -0.1 -0.2
v -0.1 0 0.1
v -0.1 0 -0.1
v -0.1 0 -0.2
v -0.1 0 -0.5
v -0.1 0.1 0.6
v -0.1 0.1 0.4
v -0.1 0.1 -0.1
v -0.1 0.1 -0.4
v -0.1 0.1 -0.5
v -0.1 0.1 -0.7
v -0.1 0.2 -0.4
v -0.1 0.2 -0.7
v -0.1 0.3 0.4
v -0.1 0.3 -0.7
v 0.2 -0.8 0.1
v 0.2 -0.8 -0.5
v 0.2 -0.7 -0.5
v 0.2 -0.7 -0.7
v 0.2 -0.6 0.1
v 0.2 -0.6 -0.1
v 0.2 -0.5 0.3
v 0.2 -0.5 -0.1
v 0.2 -0.5 -0.7
v 0.2 -0.4 0.6
v 0.2 -0.4 0.3
v 0.2 -0.4 -0.1
v 0.2 -0.3 0.6
v 0.2 -0.3 0.3
v 0.2 0.2 0.7
v 0.2 0.2 0.5
v 0.2 0.4 0.7
v 0.2 0.4 0.5
v 0.2 0.4 -0.6
v 0.2 0.5 0.5
v 0.2 0.5 -0.2
v 0.2 0.5 -0.5
v 0.2 0.5 -0.6
v 0.2 0.5 -0.7
v 0.2 0.6 -0.5
v 0.2 0.6 -0.7
v 0.2 0.8 -0.2
v 0.2 0.8 -0.7
v 0.3 -0.5 -0.1
v 0.3 -0.5 -0.7
v 0.3 -0.4 0.3
v 0.3 -0.4 -0.1
v 0.3 -0.3 0.7
v 0.3 -0.3 0.3
v 0.3 -0.3 0.1
v 0.3 -0.3 -0.7
v 0.3 0 0.1
v 0.3 0 -0.1
v 0.3 0.1 -0.1
v 0.3 0.1 -0.4
v 0.3 0.2 0.7
v 0.3 0.2 0.5
v 0.3 0.2 -0.4
v 0.3 0.2 -0.7
v 0.3 0.4 0.5
v 0.3 0.4 -0.6
v 0.3 0.5 -0.6
v 0.3 0.5 -0.7
v 0.4 -0.3 0.1
v 0.4 -0.3 -0.7
v 0.4 0 0.1
v 0.4 0 -0.1
v 0.4 0.1 -0.1
v 0.4 0.1 -0.4
v 0.4 0.2 -0.4
v 0.4 0.2 -0.7
v -0.2 -0.3 0.7
v -0.2 0.2 0.7
v 0 0.2 0.7
v 0 0.4 0.7
v 0.2 0.2 0.7
v 0.2 0.4 0.7
v 0.3 -0.3 0.7
v 0.3 0.2 0.7
v 0 -0.4 0.6
v 0 -0.3 0.6
v 0.2 -0.4 0.6
v 0.2 -0.3 0.6
v -0.2 0.2 0.5
v -0.2 0.4 0.5
v 0 0.2 0.5
v 0 0.4 0.5
v 0 0.5 0.5
v 0.2 0.2 0.5
v 0.2 0.4 0.5
v 0.2 0.5 0.5
v 0.3 0.2 0.5
v 0.3 0.4 0.5
v -0.2 -0.4 0.3
v -0.2 -0.3 0.3
v 0 -0.5 0.3
v 0 -0.4 0.3
v 0 -0.3 0.3
v 0.2 -0.5 0.3
v 0.2 -0.4 0.3
v 0.2 -0.3 0.3
v 0.3 -0.4 0.3
v 0.3 -0.3 0.3
v -0.3 -0.3 0.1
v -0.3 0 0.1
v -0.2 -0.3 0.1
v -0.2 0 0.1
v 0 -0.8 0.1
v 0 -0.7 0.1
v 0 -0.6 0.1
v 0.1 -0.7 0.1
v 0.1 -0.6 0.1
v 0.2 -0.8 0.1
v 0.2 -0.6 0.1
v 0.3 -0.3 0.1
v 0.3 0 0.1
v 0.4 -0.3 0.1
v 0.4 0 0.1
v -0.3 0 -0.1
v -0.3 0.1 -0.1
v -0.2 -0.5 -0.1
v -0.2 -0.4 -0.1
v -0.2 0 -0.1
v -0.2 0.1 -0.1
v 0 -0.6 -0.1
v 0 -0.5 -0.1
v 0 -0.4 -0.1
v 0.1 -0.6 -0.1
v 0.1 -0.5 -0.1
v 0.2 -0.6 -0.1
v 0.2 -0.5 -0.1
v 0.2 -0.4 -0.1
v 0.3 -0.5 -0.1
v 0.3 -0.4 -0.1
v 0.3 0 -0.1
v 0.3 0.1 -0.1
v 0.4 0 -0.1
v 0.4 0.1 -0.1
v 0 0.5 -0.2
v 0 0.8 -0.2
v 0.2 0.5 -0.2
v 0.2 0.8 -0.2
v -0.3 0.1 -0.4
v -0.3 0.2 -0.4
v -0.2 0.1 -0.4
v -0.2 0.2 -0.4
v 0.3 0.1 -0.4
v 0.3 0.2 -0.4
v 0.4 0.1 -0.4
v 0.4 0.2 -0.4
v -0.2 0.4 -0.6
v -0.2 0.5 -0.6
v 0 0.4 -0.6
v 0 0.5 -0.6
v 0.2 0.4 -0.6
v 0.2 0.5 -0.6
v 0.3 0.4 -0.6
v 0.3 0.5 -0.6
v -0.1 -0.2 0.6
v -0.1 0.1 0.6
v 0.2 -0.2 0.6
v 0.2 0.1 0.6
v -0.1 0.1 0.4
v -0.1 0.3 0.4
v 0.2 0.1 0.4
v 0.2 0.3 0.4
v -0.1 -0.3 0.2
v -0.1 -0.2 0.2
v 0.2 -0.3 0.2
v 0.2 -0.2 0.2
v -0.2 -0.2 0
v -0.2 -0.1 0
v -0.1 -0.2 0
v -0.1 -0.1 0
v -0.2 -0.1 -0.2
v -0.2 0 -0.2
v -0.1 -0.4 -0.2
v -0.1 -0.3 -0.2
v -0.1 -0.1 -0.2
v -0.1 0 -0.2
v 0.2 -0.4 -0.2
v 0.2 -0.3 -0.2
v -0.2 0 -0.5
v -0.2 0.1 -0.5
v -0.1 0 -0.5
v -0.1 0.1 -0.5
v 0 -0.8 -0.5
v 0 -0.7 -0.5
v 0.2 -0.8 -0.5
v 0.2 -0.7 -0.5
v -0.3 -0.3 -0.7
v -0.3 0.2 -0.7
v -0.2 -0.5 -0.7
v -0.2 -0.3 -0.7
v -0.2 -0.2 -0.7
v -0.2 0.1 -0.7
v -0.2 0.2 -0.7
v -0.2 0.5 -0.7
v -0.1 -0.4 -0.7
v -0.1 -0.3 -0.7
v -0.1 -0.2 -0.7
v -0.1 0.1 -0.7
v -0.1 0.2 -0.7
v -0.1 0.3 -0.7
v 0 -0.7 -0.7
v 0 -0.5 -0.7
v 0 0.5 -0.7
v 0 0.6 -0.7
v 0 0.8 -0.7
v 0.2 -0.7 -0.7
v 0.2 -0.5 -0.7
v 0.2 -0.4 -0.7
v 0.2 -0.3 -0.7
v 0.2 0.2 -0.7
v 0.2 0.3 -0.7
v 0.2 0.5 -0.7
v 0.2 0.6 -0.7
v 0.2 0.8 -0.7
v 0.3 -0.5 -0.7
v 0.3 -0.3 -0.7
v 0.3 0.2 -0.7
v 0.3 0.5 -0.7
v 0.4 -0.3 -0.7
v 0.4 0.2 -0.7
v 0 -0.8 0.1
v 0.2 -0.8 0.1
v 0 -0.8 -0.5
v 0.2 -0.8 -0.5
v 0 -0.7 -0.5
v 0.2 -0.7 -0.5
v 0 -0.7 -0.7
v 0.2 -0.7 -0.7
v 0 -0.5 0.3
v 0.2 -0.5 0.3
v -0.2 -0.5 -0.1
v 0 -0.5 -0.1
v 0.1 -0.5 -0.1
v 0.2 -0.5 -0.1
v 0.3 -0.5 -0.1
v 0 -0.5 -0.4
v -0.2 -0.5 -0.7
v 0 -0.5 -0.7
v 0.2 -0.5 -0.7
v 0.3 -0.5 -0.7
v 0 -0.4 0.6
v 0.2 -0.4 0.6
v -0.2 -0.4 0.3
v 0 -0.4 0.3
v 0.2 -0.4 0.3
v 0.3 -0.4 0.3
v -0.2 -0.4 -0.1
v 0 -0.4 -0.1
v 0.2 -0.4 -0.1
v 0.3 -0.4 -0.1
v -0.2 -0.3 0.7
v 0.3 -0.3 0.7
v 0 -0.3 0.6
v 0.2 -0.3 0.6
v -0.2 -0.3 0.3
v 0 -0.3 0.3
v 0.2 -0.3 0.3
v 0.3 -0.3 0.3
v -0.3 -0.3 0.1
v -0.2 -0.3 0.1
v 0.3 -0.3 0.1
v 0.4 -0.3 0.1
v -0.3 -0.3 -0.7
v -0.2 -0.3 -0.7
v 0.3 -0.3 -0.7
v 0.4 -0.3 -0.7
v -0.2 -0.1 0
v -0.1 -0.1 0
v -0.2 -0.1 -0.2
v -0.1 -0.1 -0.2
v -0.2 0 -0.2
v -0.1 0 -0.2
v -0.2 0 -0.5
v -0.1 0 -0.5
v -0.1 0.1 0.6
v 0.2 0.1 0.6
v -0.1 0.1 0.4
v 0.2 0.1 0.4
v -0.2 0.1 -0.5
v -0.1 0.1 -0.5
v -0.2 0.1 -0.7
v -0.1 0.1 -0.7
v -0.1 0.3 0.4
v 0.2 0.3 0.4
v -0.1 0.3 -0.7
v 0.2 0.3 -0.7
v 0 -0.6 0.1
v 0.1 -0.6 0.1
v 0.2 -0.6 0.1
v 0 -0.6 -0.1
v 0.1 -0.6 -0.1
v 0.2 -0.6 -0.1
v -0.1 -0.4 -0.2
v 0.2 -0.4 -0.2
v -0.1 -0.4 -0.7
v 0.2 -0.4 -0.7
v -0.1 -0.3 0.2
v 0.2 -0.3 0.2
v -0.1 -0.3 0.1
v 0.2 -0.3 0.1
v -0.1 -0.3 -0.2
v 0.2 -0.3 -0.2
v -0.1 -0.2 0.6
v 0.2 -0.2 0.6
v -0.1 -0.2 0.2
v 0.2 -0.2 0.2
v -0.2 -0.2 0
v -0.1 -0.2 0
v -0.2 -0.2 -0.7
v -0.1 -0.2 -0.7
v -0.3 0 0.1
v -0.2 0 0.1
v 0.3 0 0.1
v 0.4 0 0.1
v -0.3 0 -0.1
v -0.2 0 -0.1
v 0.3 0 -0.1
v 0.4 0 -0.1
v -0.3 0.1 -0.1
v -0.2 0.1 -0.1
v 0.3 0.1 -0.1
v 0.4 0.1 -0.1
v -0.3 0.1 -0.4
v -0.2 0.1 -0.4
v 0.3 0.1 -0.4
v 0.4 0.1 -0.4
v -0.2 0.2 0.7
v 0 0.2 0.7
v 0.2 0.2 0.7
v 0.3 0.2 0.7
v -0.2 0.2 0.5
v 0 0.2 0.5
v 0.2 0.2 0.5
v 0.3 0.2 0.5
v -0.3 0.2 -0.4
v -0.2 0.2 -0.4
v 0.3 0.2 -0.4
v 0.4 0.2 -0.4
v -0.3 0.2 -0.7
v -0.2 0.2 -0.7
v 0.3 0.2 -0.7
v 0.4 0.2 -0.7
v 0 0.4 0.7
v 0.2 0.4 0.7
v -0.2 0.4 0.5
v 0 0.4 0.5
v 0.2 0.4 0.5
v 0.3 0.4 0.5
v -0.2 0.4 -0.6
v 0 0.4 -0.6
v 0.2 0.4 -0.6
v 0.3 0.4 -0.6
v 0 0.5 0.5
v 0.2 0.5 0.5
v 0 0.5 -0.2
v 0.2 0.5 -0.2
v -0.2 0.5 -0.6
v 0 0.5 -0.6
v 0.2 0.5 -0.6
v 0.3 0.5 -0.6
v -0.2 0.5 -0.7
v 0 0.5 -0.7
v 0.2 0.5 -0.7
v 0.3 0.5 -0.7
v 0 0.8 -0.2
v 0.2 0.8 -0.2
v 0 0.8 -0.7
v 0.2 0.8 -0.7

# faces
f 3/2/1 2/2/1 1/2/1
f 4/2/1 2/2/1 3/2/1
f 5/2/1 2/2/1 4/2/1
f 6/2/1 2/2/1 5/2/1
f 7/2/1 2/2/1 6/2/1
f 8/2/1 2/2/1 7/2/1
f 12/3/1 10/3/1 9/3/1
f 14/3/1 12/3/1 11/3/1
f 15/3/1 12/3/1 14/3/1
f 16/3/1 10/3/1 12/3/1
f 16/3/1 12/3/1 15/3/1
f 17/3/1 15/3/1 14/3/1
f 17/3/1 14/3/1 13/3/1
f 19/3/1 18/3/1 17/3/1
f 21/3/1 17/3/1 13/3/1
f 21/3/1 20/3/1 19/3/1
f 21/3/1 19/3/1 17/3/1
f 22/3/1 20/3/1 21/3/1
f 23/3/1 20/3/1 22/3/1
f 25/3/1 24/3/1 23/3/1
f 25/3/1 23/3/1 22/3/1
f 26/3/1 24/3/1 25/3/1
f 27/3/1 24/3/1 26/3/1
f 28/3/1 24/3/1 27/3/1
f 31/3/1 30/3/1 29/3/1
f 32/3/1 30/3/1 31/3/1
f 33/3/1 30/3/1 32/3/1
f 35/2/1 32/2/1 31/2/1
f 36/2/1 32/2/1 35/2/1
f 37/3/1 34/3/1 33/3/1
f 37/2/1 32/2/1 36/2/1
f 37/3/1 33/3/1 32/3/1
f 38/3/1 34/3/1 37/3/1
f 40/2/1 37/2/1 36/2/1
f 40/2/1 38/2/1 37/2/1
f 41/3/1 34/3/1 38/3/1
f 41/2/1 38/2/1 40/2/1
f 42/3/1 34/3/1 41/3/1
f 44/3/1 40/3/1 39/3/1
f 45/3/1 40/3/1 44/3/1
f 46/3/1 44/3/1 43/3/1
f 47/3/1 44/3/1 46/3/1
f 50/3/1 49/3/1 48/3/1
f 51/3/1 49/3/1 50/3/1
f 53/3/1 52/3/1 51/3/1
f 54/3/1 52/3/1 53/3/1
f 55/3/1 52/3/1 54/3/1
f 56/3/1 52/3/1 55/3/1
f 58/1/1 57/1/1 56/1/1
f 58/1/1 56/1/1 55/1/1
f 58/2/1 55/2/1 54/2/1
f 59/1/1 57/1/1 58/1/1
f 60/2/1 58/2/1 54/2/1
f 60/2/1 59/2/1 58/2/1
f 61/2/1 59/2/1 60/2/1
f 66/3/1 63/3/1 62/3/1
f 67/3/1 63/3/1 66/3/1
f 69/3/1 65/3/1 64/3/1
f 70/2/1 66/2/1 65/2/1
f 70/3/1 69/3/1 68/3/1
f 70/3/1 65/3/1 69/3/1
f 70/2/1 67/2/1 66/2/1
f 71/2/1 67/2/1 70/2/1
f 72/3/1 70/3/1 68/3/1
f 72/3/1 71/3/1 70/3/1
f 73/3/1 71/3/1 72/3/1
f 74/2/1 67/2/1 71/2/1
f 74/3/1 71/3/1 73/3/1
f 75/2/1 67/2/1 74/2/1
f 76/2/1 67/2/1 75/2/1
f 76/3/1 75/3/1 74/3/1
f 76/3/1 74/3/1 73/3/1
f 77/2/1 67/2/1 76/2/1
f 78/3/1 76/3/1 73/3/1
f 78/3/1 77/3/1 76/3/1
f 79/3/1 77/3/1 78/3/1
f 80/2/2 81/2/2 82/2/2
f 82/2/2 81/2/2 83/2/2
f 83/2/2 81/2/2 84/2/2
f 84/2/2 81/2/2 85/2/2
f 85/2/2 81/2/2 86/2/2
f 86/2/2 81/2/2 87/2/2
f 88/3/2 89/3/2 92/3/2
f 92/3/2 89/3/2 93/3/2
f 90/3/2 91/3/2 95/3/2
f 91/2/2 92/2/2 96/2/2
f 92/2/2 93/2/2 96/2/2
f 96/2/2 93/2/2 97/2/2
f 91/2/2 96/2/2 98/2/2
f 94/3/2 95/3/2 100/3/2
f 98/2/2 99/2/2 100/2/2
f 91/2/2 98/2/2 100/2/2
f 95/3/2 91/3/2 100/3/2
f 100/2/2 99/2/2 101/2/2
f 101/2/2 99/2/2 102/2/2
f 94/3/2 100/3/2 104/3/2
f 100/3/2 101/3/2 104/3/2
f 104/3/2 101/3/2 105/3/2
f 102/2/2 103/2/2 106/2/2
f 105/3/2 101/3/2 106/3/2
f 101/2/2 102/2/2 106/2/2
f 106/2/2 103/2/2 107/2/2
f 107/2/2 103/2/2 108/2/2
f 108/2/2 109/2/2 110/2/2
f 107/2/2 108/2/2 110/2/2
f 106/3/2 107/3/2 110/3/2
f 105/3/2 106/3/2 110/3/2
f 110/2/2 109/2/2 111/2/2
f 105/3/2 110/3/2 112/3/2
f 110/3/2 111/3/2 112/3/2
f 112/3/2 111/3/2 113/3/2
f 114/3/2 115/3/2 116/3/2
f 114/3/2 116/3/2 118/3/2
f 116/3/2 117/3/2 118/3/2
f 118/3/2 117/3/2 119/3/2
f 119/3/2 117/3/2 121/3/2
f 121/3/2 117/3/2 122/3/2
f 120/3/2 121/3/2 124/3/2
f 124/3/2 121/3/2 125/3/2
f 123/3/2 124/3/2 126/3/2
f 126/3/2 124/3/2 127/3/2
f 128/3/2 129/3/2 130/3/2
f 130/3/2 129/3/2 131/3/2
f 131/3/2 132/3/2 133/3/2
f 133/3/2 132/3/2 134/3/2
f 134/3/2 132/3/2 135/3/2
f 135/3/2 132/3/2 136/3/2
f 136/1/2 137/1/2 138/1/2
f 135/1/2 136/1/2 138/1/2
f 134/2/2 135/2/2 138/2/2
f 138/1/2 137/1/2 139/1/2
f 134/2/2 138/2/2 140/2/2
f 138/2/2 139/2/2 140/2/2
f 140/2/2 139/2/2 141/2/2
f 142/3/2 143/3/2 145/3/2
f 144/3/2 145/3/2 147/3/2
f 147/3/2 145/3/2 148/3/2
f 145/3/2 143/3/2 149/3/2
f 148/3/2 145/3/2 149/3/2
f 147/3/2 148/3/2 150/3/2
f 146/3/2 147/3/2 150/3/2
f 150/3/2 151/3/2 152/3/2
f 146/3/2 150/3/2 154/3/2
f 152/3/2 153/3/2 154/3/2
f 150/3/2 152/3/2 154/3/2
f 154/3/2 153/3/2 155/3/2
f 155/3/2 153/3/2 156/3/2
f 156/3/2 157/3/2 158/3/2
f 155/3/2 156/3/2 158/3/2
f 158/3/2 157/3/2 159/3/2
f 159/3/2 157/3/2 160/3/2
f 160/3/2 157/3/2 161/3/2
f 162/2/2 163/2/2 164/2/2
f 164/2/2 163/2/2 165/2/2
f 165/2/2 163/2/2 166/2/2
f 166/2/2 163/2/2 167/2/2
f 167/2/2 163/2/2 168/2/2
f 168/2/2 163/2/2 169/2/2
f 172/3/3 171/3/3 170/3/3
f 174/3/3 172/3/3 170/3/3
f 174/3/3 173/3/3 172/3/3
f 175/3/3 173/3/3 174/3/3
f 176/3/3 174/3/3 170/3/3
f 177/3/3 174/3/3 176/3/3
f 180/3/3 179/3/3 178/3/3
f 181/3/3 179/3/3 180/3/3
f 184/3/3 183/3/3 182/3/3
f 185/3/3 183/3/3 184/3/3
f 188/3/3 186/3/3 185/3/3
f 189/3/3 186/3/3 188/3/3
f 190/3/3 188/3/3 187/3/3
f 191/3/3 188/3/3 190/3/3
f 195/3/3 193/3/3 192/3/3
f 196/3/3 193/3/3 195/3/3
f 197/3/3 195/3/3 194/3/3
f 198/3/3 195/3/3 197/3/3
f 200/3/3 199/3/3 198/3/3
f 201/3/3 199/3/3 200/3/3
f 204/2/3 203/2/3 202/2/3
f 205/2/3 203/2/3 204/2/3
f 209/3/3 207/3/3 206/3/3
f 209/2/3 208/2/3 207/2/3
f 210/2/3 208/2/3 209/2/3
f 211/3/3 209/3/3 206/3/3
f 211/3/3 210/3/3 209/3/3
f 212/3/3 210/3/3 211/3/3
f 215/2/3 214/2/3 213/2/3
f 216/2/3 214/2/3 215/2/3
f 221/2/3 218/2/3 217/2/3
f 222/2/3 218/2/3 221/2/3
f 224/3/3 220/3/3 219/3/3
f 225/3/3 220/3/3 224/3/3
f 226/2/3 224/2/3 223/2/3
f 227/2/3 224/2/3 226/2/3
f 228/3/3 227/3/3 226/3/3
f 229/3/3 227/3/3 228/3/3
f 231/3/3 230/3/3 229/3/3
f 232/3/3 230/3/3 231/3/3
f 235/2/3 234/2/3 233/2/3
f 236/2/3 234/2/3 235/2/3
f 239/2/3 238/2/3 237/2/3
f 240/2/3 238/2/3 239/2/3
f 243/2/3 242/2/3 241/2/3
f 244/2/3 242/2/3 243/2/3
f 247/2/3 246/2/3 245/2/3
f 248/2/3 246/2/3 247/2/3
f 251/3/3 250/3/3 249/3/3
f 252/3/3 250/3/3 251/3/3
f 255/3/3 254/3/3 253/3/3
f 256/3/3 254/3/3 255/3/3
f 257/3/4 258/3/4 259/3/4
f 259/3/4 258/3/4 260/3/4
f 261/3/4 262/3/4 263/3/4
f 263/3/4 262/3/4 264/3/4
f 265/3/4 266/3/4 267/3/4
f 267/3/4 266/3/4 268/3/4
f 269/2/4 270/2/4 271/2/4
f 271/2/4 270/2/4 272/2/4
f 273/2/4 274/2/4 277/2/4
f 277/2/4 274/2/4 278/2/4
f 275/3/4 276/3/4 279/3/4
f 279/3/4 276/3/4 280/3/4
f 281/2/4 282/2/4 283/2/4
f 283/2/4 282/2/4 284/2/4
f 285/3/4 286/3/4 287/3/4
f 287/3/4 286/3/4 288/3/4
f 289/2/4 290/2/4 292/2/4
f 292/2/4 290/2/4 293/2/4
f 293/2/4 290/2/4 294/2/4
f 294/2/4 290/2/4 295/2/4
f 291/3/4 292/3/4 297/3/4
f 292/2/4 293/2/4 298/2/4
f 297/3/4 292/3/4 298/3/4
f 298/2/4 293/2/4 299/2/4
f 294/2/4 295/2/4 300/2/4
f 295/3/4 296/3/4 301/3/4
f 300/2/4 295/2/4 301/2/4
f 301/3/4 296/3/4 302/3/4
f 291/3/4 297/3/4 304/3/4
f 302/3/4 296/3/4 305/3/4
f 303/3/4 304/3/4 308/3/4
f 304/3/4 297/3/4 309/3/4
f 308/3/4 304/3/4 309/3/4
f 309/3/4 297/3/4 310/3/4
f 302/3/4 305/3/4 313/3/4
f 305/1/4 306/1/4 314/1/4
f 313/3/4 305/3/4 314/3/4
f 306/2/4 307/2/4 315/2/4
f 314/1/4 306/1/4 315/1/4
f 315/2/4 307/2/4 316/2/4
f 309/3/4 310/3/4 317/3/4
f 310/3/4 311/3/4 317/3/4
f 311/2/4 312/2/4 318/2/4
f 317/3/4 311/3/4 318/3/4
f 313/3/4 314/3/4 319/3/4
f 318/2/4 312/2/4 319/2/4
f 312/3/4 313/3/4 319/3/4
f 319/3/4 314/3/4 320/3/4
f 318/2/4 319/2/4 321/2/4
f 321/2/4 319/2/4 322/2/4
f 325/3/5 324/3/5 323/3/5
f 326/3/5 324/3/5 325/3/5
f 329/3/5 328/3/5 327/3/5
f 330/3/5 328/3/5 329/3/5
f 334/3/5 332/3/5 331/3/5
f 335/3/5 332/3/5 334/3/5
f 336/3/5 332/3/5 335/3/5
f 338/3/5 334/3/5 333/3/5
f 339/3/5 338/3/5 333/3/5
f 340/3/5 338/3/5 339/3/5
f 341/3/5 337/3/5 336/3/5
f 342/3/5 337/3/5 341/3/5
f 346/3/5 344/3/5 343/3/5
f 347/3/5 344/3/5 346/3/5
f 349/3/5 346/3/5 345/3/5
f 350/3/5 346/3/5 349/3/5
f 351/3/5 348/3/5 347/3/5
f 352/3/5 348/3/5 351/3/5
f 355/3/5 354/3/5 353/3/5
f 356/3/5 354/3/5 355/3/5
f 357/3/5 355/3/5 353/3/5
f 358/3/5 355/3/5 357/3/5
f 359/3/5 354/3/5 356/3/5
f 360/3/5 354/3/5 359/3/5
f 365/2/5 362/2/5 361/2/5
f 366/2/5 362/2/5 365/2/5
f 367/2/5 364/2/5 363/2/5
f 368/2/5 364/2/5 367/2/5
f 371/2/5 370/2/5 369/2/5
f 372/2/5 370/2/5 371/2/5
f 375/2/5 374/2/5 373/2/5
f 376/2/5 374/2/5 375/2/5
f 379/3/5 378/3/5 377/3/5
f 380/3/5 378/3/5 379/3/5
f 383/2/5 382/2/5 381/2/5
f 384/2/5 382/2/5 383/2/5
f 387/3/5 386/3/5 385/3/5
f 388/3/5 386/3/5 387/3/5
f 389/2/6 390/2/6 392/2/6
f 390/3/6 391/3/6 393/3/6
f 392/2/6 390/2/6 393/2/6
f 393/3/6 391/3/6 394/3/6
f 395/3/6 396/3/6 397/3/6
f 397/3/6 396/3/6 398/3/6
f 399/3/6 400/3/6 401/3/6
f 401/3/6 400/3/6 402/3/6
f 401/3/6 402/3/6 403/3/6
f 403/3/6 402/3/6 404/3/6
f 405/3/6 406/3/6 407/3/6
f 407/3/6 406/3/6 408/3/6
f 409/2/6 410/2/6 411/2/6
f 411/2/6 410/2/6 412/2/6
f 413/2/6 414/2/6 417/2/6
f 417/2/6 414/2/6 418/2/6
f 415/2/6 416/2/6 419/2/6
f 419/2/6 416/2/6 420/2/6
f 421/2/6 422/2/6 425/2/6
f 425/2/6 422/2/6 426/2/6
f 423/2/6 424/2/6 427/2/6
f 427/2/6 424/2/6 428/2/6
f 429/3/6 430/3/6 433/3/6
f 433/3/6 430/3/6 434/3/6
f 431/3/6 432/3/6 435/3/6
f 435/3/6 432/3/6 436/3/6
f 437/2/6 438/2/6 441/2/6
f 441/2/6 438/2/6 442/2/6
f 439/2/6 440/2/6 443/2/6
f 443/2/6 440/2/6 444/2/6
f 445/3/6 446/3/6 448/3/6
f 448/3/6 446/3/6 449/3/6
f 447/3/6 448/3/6 451/3/6
f 451/3/6 448/3/6 452/3/6
f 449/3/6 450/3/6 453/3/6
f 453/3/6 450/3/6 454/3/6
f 455/3/6 456/3/6 457/3/6
f 457/3/6 456/3/6 458/3/6
f 459/3/6 460/3/6 463/3/6
f 463/3/6 460/3/6 464/3/6
f 461/3/6 462/3/6 465/3/6
f 465/3/6 462/3/6 466/3/6
f 467/2/6 468/2/6 469/2/6
f 469/2/6 468/2/6 470/2/6
