# MagicaVoxel @ Ephtracy

# group
o 

# material
mtllib fish_3.mtl
usemtl palette

# normals
vn -1 0 0
vn 1 0 0
vn 0 0 1
vn 0 0 -1
vn 0 -1 0
vn 0 1 0

# texcoords
vt 0.822266 0.5
vt 0.826172 0.5
vt 0.830078 0.5

# verts
v -0.1 -0.6 0.4
v -0.1 -0.6 -0.4
v -0.1 -0.5 0.4
v -0.1 -0.5 -0.1
v -0.1 -0.5 -0.2
v -0.1 -0.5 -0.4
v -0.1 -0.5 -0.6
v -0.1 -0.4 0.4
v -0.1 -0.4 0.1
v -0.1 -0.4 -0.1
v -0.1 -0.4 -0.2
v -0.1 -0.4 -0.3
v -0.1 -0.2 0.1
v -0.1 -0.2 0
v -0.1 -5.96046e-08 -0.5
v -0.1 -5.96046e-08 -0.6
v -0.1 0.1 0.1
v -0.1 0.1 0
v -0.1 0.2 0.2
v -0.1 0.2 0.1
v -0.1 0.2 -0.1
v -0.1 0.2 -0.2
v -0.1 0.2 -0.3
v -0.1 0.2 -0.4
v -0.1 0.2 -0.5
v -0.1 0.3 0.5
v -0.1 0.3 0.2
v -0.1 0.3 0
v -0.1 0.3 -0.1
v -0.1 0.3 -0.2
v -0.1 0.3 -0.3
v -0.1 0.3 -0.4
v -0.1 0.4 0.5
v -0.1 0.4 0.4
v -0.1 0.4 0.1
v -0.1 0.4 0
v -0.1 0.4 -0.1
v -0.1 0.4 -0.3
v -0.1 0.5 0.4
v -0.1 0.5 0.3
v -0.1 0.5 0.1
v -0.1 0.5 0
v -0.1 0.6 0.3
v -0.1 0.6 -0.1
v 0.1 -0.6 0.4
v 0.1 -0.6 -0.4
v 0.1 -0.5 0.4
v 0.1 -0.5 -0.1
v 0.1 -0.5 -0.2
v 0.1 -0.5 -0.4
v 0.1 -0.5 -0.6
v 0.1 -0.4 0.4
v 0.1 -0.4 0.1
v 0.1 -0.4 -0.1
v 0.1 -0.4 -0.2
v 0.1 -0.4 -0.3
v 0.1 -0.2 0.1
v 0.1 -0.2 0
v 0.1 -5.96046e-08 -0.5
v 0.1 -5.96046e-08 -0.6
v 0.1 0.1 0.1
v 0.1 0.1 0
v 0.1 0.2 0.2
v 0.1 0.2 0.1
v 0.1 0.2 -0.1
v 0.1 0.2 -0.2
v 0.1 0.2 -0.3
v 0.1 0.2 -0.4
v 0.1 0.2 -0.5
v 0.1 0.3 0.5
v 0.1 0.3 0.2
v 0.1 0.3 0
v 0.1 0.3 -0.1
v 0.1 0.3 -0.2
v 0.1 0.3 -0.3
v 0.1 0.3 -0.4
v 0.1 0.4 0.5
v 0.1 0.4 0.4
v 0.1 0.4 0.1
v 0.1 0.4 0
v 0.1 0.4 -0.1
v 0.1 0.4 -0.3
v 0.1 0.5 0.4
v 0.1 0.5 0.3
v 0.1 0.5 0.1
v 0.1 0.5 0
v 0.1 0.6 0.3
v 0.1 0.6 -0.1
v -0.1 0.3 0.5
v -0.1 0.4 0.5
v 0.1 0.3 0.5
v 0.1 0.4 0.5
v -0.1 -0.6 0.4
v -0.1 -0.5 0.4
v -0.1 -0.4 0.4
v -0.1 0.4 0.4
v -0.1 0.5 0.4
v 0.1 -0.6 0.4
v 0.1 -0.5 0.4
v 0.1 -0.4 0.4
v 0.1 0.4 0.4
v 0.1 0.5 0.4
v -0.1 0.5 0.3
v -0.1 0.6 0.3
v 0.1 0.5 0.3
v 0.1 0.6 0.3
v -0.1 0.2 0.2
v -0.1 0.3 0.2
v 0.1 0.2 0.2
v 0.1 0.3 0.2
v -0.1 -0.4 0.1
v -0.1 -0.2 0.1
v -0.1 0.1 0.1
v -0.1 0.2 0.1
v 0.1 -0.4 0.1
v 0.1 -0.2 0.1
v 0.1 0.1 0.1
v 0.1 0.2 0.1
v -0.1 -0.2 0
v -0.1 0.1 0
v 0.1 -0.2 0
v 0.1 0.1 0
v -0.1 0.4 -0.1
v -0.1 0.6 -0.1
v 0.1 0.4 -0.1
v 0.1 0.6 -0.1
v -0.1 0.3 -0.3
v -0.1 0.4 -0.3
v 0.1 0.3 -0.3
v 0.1 0.4 -0.3
v -0.1 -0.6 -0.4
v -0.1 -0.5 -0.4
v -0.1 0.2 -0.4
v -0.1 0.3 -0.4
v 0.1 -0.6 -0.4
v 0.1 -0.5 -0.4
v 0.1 0.2 -0.4
v 0.1 0.3 -0.4
v -0.1 -5.96046e-08 -0.5
v -0.1 0.2 -0.5
v 0.1 -5.96046e-08 -0.5
v 0.1 0.2 -0.5
v -0.1 -0.5 -0.6
v -0.1 -5.96046e-08 -0.6
v 0.1 -0.5 -0.6
v 0.1 -5.96046e-08 -0.6
v -0.1 -0.6 0.4
v 0.1 -0.6 0.4
v -0.1 -0.6 -0.4
v 0.1 -0.6 -0.4
v -0.1 -0.5 -0.4
v 0.1 -0.5 -0.4
v -0.1 -0.5 -0.6
v 0.1 -0.5 -0.6
v -0.1 0.1 0.1
v 0.1 0.1 0.1
v -0.1 0.1 0
v 0.1 0.1 0
v -0.1 0.2 0.2
v 0.1 0.2 0.2
v -0.1 0.2 0.1
v 0.1 0.2 0.1
v -0.1 0.3 0.5
v 0.1 0.3 0.5
v -0.1 0.3 0.2
v 0.1 0.3 0.2
v -0.1 -0.4 0.4
v 0.1 -0.4 0.4
v -0.1 -0.4 0.1
v 0.1 -0.4 0.1
v -0.1 -0.2 0.1
v 0.1 -0.2 0.1
v -0.1 -0.2 0
v 0.1 -0.2 0
v -0.1 -5.96046e-08 -0.5
v 0.1 -5.96046e-08 -0.5
v -0.1 -5.96046e-08 -0.6
v 0.1 -5.96046e-08 -0.6
v -0.1 0.2 -0.4
v 0.1 0.2 -0.4
v -0.1 0.2 -0.5
v 0.1 0.2 -0.5
v -0.1 0.3 -0.3
v 0.1 0.3 -0.3
v -0.1 0.3 -0.4
v 0.1 0.3 -0.4
v -0.1 0.4 0.5
v 0.1 0.4 0.5
v -0.1 0.4 0.4
v 0.1 0.4 0.4
v -0.1 0.4 -0.1
v 0.1 0.4 -0.1
v -0.1 0.4 -0.3
v 0.1 0.4 -0.3
v -0.1 0.5 0.4
v 0.1 0.5 0.4
v -0.1 0.5 0.3
v 0.1 0.5 0.3
v -0.1 0.6 0.3
v 0.1 0.6 0.3
v -0.1 0.6 -0.1
v 0.1 0.6 -0.1

# faces
f 3/3/1 2/3/1 1/3/1
f 4/3/1 2/3/1 3/3/1
f 5/3/1 2/3/1 4/3/1
f 6/3/1 2/3/1 5/3/1
f 8/2/1 4/2/1 3/2/1
f 9/2/1 4/2/1 8/2/1
f 10/1/1 5/1/1 4/1/1
f 10/2/1 4/2/1 9/2/1
f 11/3/1 7/3/1 6/3/1
f 11/1/1 5/1/1 10/1/1
f 11/3/1 6/3/1 5/3/1
f 12/3/1 7/3/1 11/3/1
f 13/2/1 10/2/1 9/2/1
f 13/2/1 11/2/1 10/2/1
f 14/2/1 11/2/1 13/2/1
f 15/3/1 7/3/1 12/3/1
f 16/3/1 7/3/1 15/3/1
f 18/2/1 11/2/1 14/2/1
f 20/2/1 18/2/1 17/2/1
f 21/2/1 11/2/1 18/2/1
f 21/2/1 18/2/1 20/2/1
f 22/1/1 12/1/1 11/1/1
f 22/2/1 11/2/1 21/2/1
f 23/3/1 15/3/1 12/3/1
f 23/1/1 12/1/1 22/1/1
f 24/3/1 15/3/1 23/3/1
f 25/3/1 15/3/1 24/3/1
f 27/2/1 21/2/1 20/2/1
f 27/2/1 20/2/1 19/2/1
f 28/2/1 21/2/1 27/2/1
f 29/1/1 22/1/1 21/1/1
f 29/2/1 21/2/1 28/2/1
f 30/3/1 24/3/1 23/3/1
f 30/1/1 22/1/1 29/1/1
f 30/3/1 23/3/1 22/3/1
f 31/3/1 24/3/1 30/3/1
f 32/3/1 24/3/1 31/3/1
f 33/2/1 28/2/1 27/2/1
f 33/2/1 27/2/1 26/2/1
f 34/2/1 28/2/1 33/2/1
f 35/2/1 28/2/1 34/2/1
f 36/1/1 29/1/1 28/1/1
f 36/2/1 28/2/1 35/2/1
f 37/3/1 31/3/1 30/3/1
f 37/1/1 29/1/1 36/1/1
f 37/3/1 30/3/1 29/3/1
f 38/3/1 31/3/1 37/3/1
f 39/2/1 35/2/1 34/2/1
f 40/2/1 35/2/1 39/2/1
f 41/1/1 36/1/1 35/1/1
f 41/2/1 35/2/1 40/2/1
f 42/3/1 37/3/1 36/3/1
f 42/1/1 36/1/1 41/1/1
f 43/3/1 41/3/1 40/3/1
f 43/3/1 42/3/1 41/3/1
f 44/3/1 37/3/1 42/3/1
f 44/3/1 42/3/1 43/3/1
f 45/3/2 46/3/2 47/3/2
f 47/3/2 46/3/2 48/3/2
f 48/3/2 46/3/2 49/3/2
f 49/3/2 46/3/2 50/3/2
f 47/2/2 48/2/2 52/2/2
f 52/2/2 48/2/2 53/2/2
f 48/1/2 49/1/2 54/1/2
f 53/2/2 48/2/2 54/2/2
f 50/3/2 51/3/2 55/3/2
f 54/1/2 49/1/2 55/1/2
f 49/3/2 50/3/2 55/3/2
f 55/3/2 51/3/2 56/3/2
f 53/2/2 54/2/2 57/2/2
f 54/2/2 55/2/2 57/2/2
f 57/2/2 55/2/2 58/2/2
f 56/3/2 51/3/2 59/3/2
f 59/3/2 51/3/2 60/3/2
f 58/2/2 55/2/2 62/2/2
f 61/2/2 62/2/2 64/2/2
f 62/2/2 55/2/2 65/2/2
f 64/2/2 62/2/2 65/2/2
f 55/1/2 56/1/2 66/1/2
f 65/2/2 55/2/2 66/2/2
f 56/3/2 59/3/2 67/3/2
f 66/1/2 56/1/2 67/1/2
f 67/3/2 59/3/2 68/3/2
f 68/3/2 59/3/2 69/3/2
f 64/2/2 65/2/2 71/2/2
f 63/2/2 64/2/2 71/2/2
f 71/2/2 65/2/2 72/2/2
f 65/1/2 66/1/2 73/1/2
f 72/2/2 65/2/2 73/2/2
f 67/3/2 68/3/2 74/3/2
f 73/1/2 66/1/2 74/1/2
f 66/3/2 67/3/2 74/3/2
f 74/3/2 68/3/2 75/3/2
f 75/3/2 68/3/2 76/3/2
f 71/2/2 72/2/2 77/2/2
f 70/2/2 71/2/2 77/2/2
f 77/2/2 72/2/2 78/2/2
f 78/2/2 72/2/2 79/2/2
f 72/1/2 73/1/2 80/1/2
f 79/2/2 72/2/2 80/2/2
f 74/3/2 75/3/2 81/3/2
f 80/1/2 73/1/2 81/1/2
f 73/3/2 74/3/2 81/3/2
f 81/3/2 75/3/2 82/3/2
f 78/2/2 79/2/2 83/2/2
f 83/2/2 79/2/2 84/2/2
f 79/1/2 80/1/2 85/1/2
f 84/2/2 79/2/2 85/2/2
f 80/3/2 81/3/2 86/3/2
f 85/1/2 80/1/2 86/1/2
f 84/3/2 85/3/2 87/3/2
f 85/3/2 86/3/2 87/3/2
f 86/3/2 81/3/2 88/3/2
f 87/3/2 86/3/2 88/3/2
f 91/2/3 90/2/3 89/2/3
f 92/2/3 90/2/3 91/2/3
f 98/3/3 94/3/3 93/3/3
f 99/2/3 95/2/3 94/2/3
f 99/3/3 94/3/3 98/3/3
f 100/2/3 95/2/3 99/2/3
f 101/2/3 97/2/3 96/2/3
f 102/2/3 97/2/3 101/2/3
f 105/3/3 104/3/3 103/3/3
f 106/3/3 104/3/3 105/3/3
f 109/2/3 108/2/3 107/2/3
f 110/2/3 108/2/3 109/2/3
f 115/2/3 112/2/3 111/2/3
f 116/2/3 112/2/3 115/2/3
f 117/2/3 114/2/3 113/2/3
f 118/2/3 114/2/3 117/2/3
f 121/2/3 120/2/3 119/2/3
f 122/2/3 120/2/3 121/2/3
f 123/3/4 124/3/4 125/3/4
f 125/3/4 124/3/4 126/3/4
f 127/3/4 128/3/4 129/3/4
f 129/3/4 128/3/4 130/3/4
f 131/3/4 132/3/4 135/3/4
f 135/3/4 132/3/4 136/3/4
f 133/3/4 134/3/4 137/3/4
f 137/3/4 134/3/4 138/3/4
f 139/3/4 140/3/4 141/3/4
f 141/3/4 140/3/4 142/3/4
f 143/3/4 144/3/4 145/3/4
f 145/3/4 144/3/4 146/3/4
f 149/3/5 148/3/5 147/3/5
f 150/3/5 148/3/5 149/3/5
f 153/3/5 152/3/5 151/3/5
f 154/3/5 152/3/5 153/3/5
f 157/2/5 156/2/5 155/2/5
f 158/2/5 156/2/5 157/2/5
f 161/2/5 160/2/5 159/2/5
f 162/2/5 160/2/5 161/2/5
f 165/2/5 164/2/5 163/2/5
f 166/2/5 164/2/5 165/2/5
f 167/2/6 168/2/6 169/2/6
f 169/2/6 168/2/6 170/2/6
f 171/2/6 172/2/6 173/2/6
f 173/2/6 172/2/6 174/2/6
f 175/3/6 176/3/6 177/3/6
f 177/3/6 176/3/6 178/3/6
f 179/3/6 180/3/6 181/3/6
f 181/3/6 180/3/6 182/3/6
f 183/3/6 184/3/6 185/3/6
f 185/3/6 184/3/6 186/3/6
f 187/2/6 188/2/6 189/2/6
f 189/2/6 188/2/6 190/2/6
f 191/3/6 192/3/6 193/3/6
f 193/3/6 192/3/6 194/3/6
f 195/2/6 196/2/6 197/2/6
f 197/2/6 196/2/6 198/2/6
f 199/3/6 200/3/6 201/3/6
f 201/3/6 200/3/6 202/3/6
