# MagicaVoxel @ Ephtracy

# group
o 

# material
mtllib mole_1.mtl
usemtl palette

# normals
vn -1 0 0
vn 1 0 0
vn 0 0 1
vn 0 0 -1
vn 0 -1 0
vn 0 1 0

# texcoords
vt 0.947266 0.5
vt 0.962891 0.5
vt 0.978516 0.5
vt 0.986328 0.5
vt 0.994141 0.5

# verts
v -0.4 0.2 0.2
v -0.4 0.2 -0.3
v -0.4 0.3 0.2
v -0.4 0.3 -0.3
v -0.3 -0.2 0.2
v -0.3 -0.2 -0.2
v -0.3 0.2 0.3
v -0.3 0.2 0.2
v -0.3 0.2 -0.2
v -0.3 0.2 -0.3
v -0.3 0.2 -0.4
v -0.3 0.3 0.3
v -0.3 0.3 0.2
v -0.3 0.3 -0.3
v -0.3 0.3 -0.4
v -0.3 0.4 0.2
v -0.3 0.4 -0.3
v -0.2 -0.5 0.1
v -0.2 -0.5 -0.5
v -0.2 -0.2 0.1
v -0.2 -0.2 -0.2
v -0.2 -0.1 0.3
v -0.2 -0.1 0.2
v -0.2 -0.1 -0.4
v -0.2 -0.1 -0.5
v -0.2 0 0.3
v -0.2 0 0.2
v -0.2 0.1 -0.3
v -0.2 0.1 -0.4
v -0.2 0.2 0.4
v -0.2 0.2 0.3
v -0.2 0.2 -0.2
v -0.2 0.2 -0.3
v -0.2 0.3 0.4
v -0.2 0.3 0.3
v -0.2 0.3 0.2
v -0.2 0.4 0.2
v -0.2 0.4 -0.3
v -0.2 0.5 0.4
v -0.2 0.5 0.2
v -0.2 0.5 -0.3
v -0.1 -0.2 0.3
v -0.1 -0.2 0.2
v -0.1 -0.1 0.3
v -0.1 -0.1 0.2
v -0.1 0 0.3
v -0.1 0 0.2
v -0.1 0.1 0.3
v -0.1 0.1 0.2
v -0.1 0.5 0.4
v -0.1 0.5 0.2
v -0.1 0.6 0.4
v -0.1 0.6 0.2
v 0.1 0.3 0.4
v 0.1 0.3 0.3
v 0.1 0.5 0.4
v 0.1 0.5 0.3
v -0.1 0.3 0.4
v -0.1 0.3 0.3
v -0.1 0.5 0.4
v -0.1 0.5 0.3
v 0.1 -0.2 0.3
v 0.1 -0.2 0.2
v 0.1 -0.1 0.3
v 0.1 -0.1 0.2
v 0.1 0 0.3
v 0.1 0 0.2
v 0.1 0.1 0.3
v 0.1 0.1 0.2
v 0.1 0.5 0.4
v 0.1 0.5 0.2
v 0.1 0.6 0.4
v 0.1 0.6 0.2
v 0.2 -0.5 0.1
v 0.2 -0.5 -0.5
v 0.2 -0.2 0.1
v 0.2 -0.2 -0.2
v 0.2 -0.1 0.3
v 0.2 -0.1 0.2
v 0.2 -0.1 -0.4
v 0.2 -0.1 -0.5
v 0.2 0 0.3
v 0.2 0 0.2
v 0.2 0.1 -0.3
v 0.2 0.1 -0.4
v 0.2 0.2 0.4
v 0.2 0.2 0.3
v 0.2 0.2 -0.2
v 0.2 0.2 -0.3
v 0.2 0.3 0.4
v 0.2 0.3 0.3
v 0.2 0.3 0.2
v 0.2 0.4 0.2
v 0.2 0.4 -0.3
v 0.2 0.5 0.4
v 0.2 0.5 0.2
v 0.2 0.5 -0.3
v 0.3 -0.2 0.2
v 0.3 -0.2 -0.2
v 0.3 0.2 0.3
v 0.3 0.2 0.2
v 0.3 0.2 -0.2
v 0.3 0.2 -0.3
v 0.3 0.2 -0.4
v 0.3 0.3 0.3
v 0.3 0.3 0.2
v 0.3 0.3 -0.3
v 0.3 0.3 -0.4
v 0.3 0.4 0.2
v 0.3 0.4 -0.3
v 0.4 0.2 0.2
v 0.4 0.2 -0.3
v 0.4 0.3 0.2
v 0.4 0.3 -0.3
v -0.2 0.2 0.4
v -0.2 0.3 0.4
v -0.2 0.5 0.4
v -0.1 0.3 0.4
v -0.1 0.5 0.4
v -0.1 0.6 0.4
v 0.1 0.3 0.4
v 0.1 0.5 0.4
v 0.1 0.6 0.4
v 0.2 0.2 0.4
v 0.2 0.3 0.4
v 0.2 0.5 0.4
v -0.3 0.2 0.3
v -0.3 0.3 0.3
v -0.2 -0.1 0.3
v -0.2 0 0.3
v -0.2 0.2 0.3
v -0.2 0.3 0.3
v -0.1 -0.2 0.3
v -0.1 -0.1 0.3
v -0.1 0 0.3
v -0.1 0.1 0.3
v -0.1 0.3 0.3
v -0.1 0.5 0.3
v 0.1 -0.2 0.3
v 0.1 -0.1 0.3
v 0.1 0 0.3
v 0.1 0.1 0.3
v 0.1 0.3 0.3
v 0.1 0.5 0.3
v 0.2 -0.1 0.3
v 0.2 0 0.3
v 0.2 0.2 0.3
v 0.2 0.3 0.3
v 0.3 0.2 0.3
v 0.3 0.3 0.3
v -0.4 0.2 0.2
v -0.4 0.3 0.2
v -0.3 -0.2 0.2
v -0.3 0.2 0.2
v -0.3 0.3 0.2
v -0.3 0.4 0.2
v -0.2 -0.1 0.2
v -0.2 0 0.2
v -0.2 0.3 0.2
v -0.2 0.4 0.2
v -0.1 -0.2 0.2
v -0.1 -0.1 0.2
v -0.1 0 0.2
v -0.1 0.1 0.2
v 0.1 -0.2 0.2
v 0.1 -0.1 0.2
v 0.1 0 0.2
v 0.1 0.1 0.2
v 0.2 -0.1 0.2
v 0.2 0 0.2
v 0.2 0.3 0.2
v 0.2 0.4 0.2
v 0.3 -0.2 0.2
v 0.3 0.2 0.2
v 0.3 0.3 0.2
v 0.3 0.4 0.2
v 0.4 0.2 0.2
v 0.4 0.3 0.2
v -0.2 -0.5 0.1
v -0.2 -0.2 0.1
v 0.2 -0.5 0.1
v 0.2 -0.2 0.1
v -0.1 0.5 0.2
v -0.1 0.6 0.2
v 0.1 0.5 0.2
v 0.1 0.6 0.2
v -0.3 -0.2 -0.2
v -0.3 0.2 -0.2
v -0.2 -0.2 -0.2
v -0.2 0.2 -0.2
v 0.2 -0.2 -0.2
v 0.2 0.2 -0.2
v 0.3 -0.2 -0.2
v 0.3 0.2 -0.2
v -0.4 0.2 -0.3
v -0.4 0.3 -0.3
v -0.3 0.2 -0.3
v -0.3 0.3 -0.3
v -0.3 0.4 -0.3
v -0.2 0.1 -0.3
v -0.2 0.2 -0.3
v -0.2 0.4 -0.3
v -0.2 0.5 -0.3
v 0.2 0.1 -0.3
v 0.2 0.2 -0.3
v 0.2 0.4 -0.3
v 0.2 0.5 -0.3
v 0.3 0.2 -0.3
v 0.3 0.3 -0.3
v 0.3 0.4 -0.3
v 0.4 0.2 -0.3
v 0.4 0.3 -0.3
v -0.3 0.2 -0.4
v -0.3 0.3 -0.4
v -0.2 -0.1 -0.4
v -0.2 0.1 -0.4
v 0.2 -0.1 -0.4
v 0.2 0.1 -0.4
v 0.3 0.2 -0.4
v 0.3 0.3 -0.4
v -0.2 -0.5 -0.5
v -0.2 -0.1 -0.5
v 0.2 -0.5 -0.5
v 0.2 -0.1 -0.5
v -0.2 -0.5 0.1
v 0.2 -0.5 0.1
v -0.2 -0.5 -0.5
v 0.2 -0.5 -0.5
v -0.1 -0.2 0.3
v 0.1 -0.2 0.3
v -0.3 -0.2 0.2
v -0.1 -0.2 0.2
v 0.1 -0.2 0.2
v 0.3 -0.2 0.2
v -0.2 -0.2 0.1
v 0.2 -0.2 0.1
v -0.3 -0.2 -0.2
v -0.2 -0.2 -0.2
v 0.2 -0.2 -0.2
v 0.3 -0.2 -0.2
v -0.2 -0.1 0.3
v -0.1 -0.1 0.3
v 0.1 -0.1 0.3
v 0.2 -0.1 0.3
v -0.2 -0.1 0.2
v -0.1 -0.1 0.2
v 0.1 -0.1 0.2
v 0.2 -0.1 0.2
v -0.2 0.2 0.4
v 0.2 0.2 0.4
v -0.3 0.2 0.3
v -0.2 0.2 0.3
v 0.2 0.2 0.3
v 0.3 0.2 0.3
v -0.4 0.2 0.2
v -0.3 0.2 0.2
v 0.3 0.2 0.2
v 0.4 0.2 0.2
v -0.3 0.2 -0.2
v -0.2 0.2 -0.2
v 0.2 0.2 -0.2
v 0.3 0.2 -0.2
v -0.4 0.2 -0.3
v -0.3 0.2 -0.3
v -0.2 0.2 -0.3
v 0.2 0.2 -0.3
v 0.3 0.2 -0.3
v 0.4 0.2 -0.3
v -0.3 0.2 -0.4
v 0.3 0.2 -0.4
v -0.1 0.5 0.4
v 0.1 0.5 0.4
v -0.1 0.5 0.3
v 0.1 0.5 0.3
v -0.2 -0.1 -0.4
v 0.2 -0.1 -0.4
v -0.2 -0.1 -0.5
v 0.2 -0.1 -0.5
v -0.2 0 0.3
v -0.1 0 0.3
v 0.1 0 0.3
v 0.2 0 0.3
v -0.2 0 0.2
v -0.1 0 0.2
v 0.1 0 0.2
v 0.2 0 0.2
v -0.1 0.1 0.3
v 0.1 0.1 0.3
v -0.1 0.1 0.2
v 0.1 0.1 0.2
v -0.2 0.1 -0.3
v 0.2 0.1 -0.3
v -0.2 0.1 -0.4
v 0.2 0.1 -0.4
v -0.1 0.3 0.4
v 0.1 0.3 0.4
v -0.3 0.3 0.3
v -0.2 0.3 0.3
v -0.1 0.3 0.3
v 0.1 0.3 0.3
v 0.2 0.3 0.3
v 0.3 0.3 0.3
v -0.4 0.3 0.2
v -0.3 0.3 0.2
v -0.2 0.3 0.2
v 0.2 0.3 0.2
v 0.3 0.3 0.2
v 0.4 0.3 0.2
v -0.4 0.3 -0.3
v -0.3 0.3 -0.3
v 0.3 0.3 -0.3
v 0.4 0.3 -0.3
v -0.3 0.3 -0.4
v 0.3 0.3 -0.4
v -0.3 0.4 0.2
v -0.2 0.4 0.2
v 0.2 0.4 0.2
v 0.3 0.4 0.2
v -0.3 0.4 -0.3
v -0.2 0.4 -0.3
v 0.2 0.4 -0.3
v 0.3 0.4 -0.3
v -0.2 0.5 0.4
v -0.1 0.5 0.4
v 0.1 0.5 0.4
v 0.2 0.5 0.4
v -0.2 0.5 0.2
v -0.1 0.5 0.2
v 0.1 0.5 0.2
v 0.2 0.5 0.2
v -0.2 0.5 -0.3
v 0.2 0.5 -0.3
v -0.1 0.6 0.4
v 0.1 0.6 0.4
v -0.1 0.6 0.2
v 0.1 0.6 0.2

# faces
f 3/4/1 2/4/1 1/4/1
f 4/4/1 2/4/1 3/4/1
f 8/3/1 6/3/1 5/3/1
f 9/3/1 6/3/1 8/3/1
f 12/4/1 8/4/1 7/4/1
f 13/4/1 8/4/1 12/4/1
f 14/4/1 11/4/1 10/4/1
f 15/4/1 11/4/1 14/4/1
f 16/4/1 14/4/1 13/4/1
f 17/4/1 14/4/1 16/4/1
f 20/3/1 19/3/1 18/3/1
f 21/3/1 19/3/1 20/3/1
f 24/3/1 19/3/1 21/3/1
f 25/3/1 19/3/1 24/3/1
f 26/1/1 23/1/1 22/1/1
f 27/1/1 23/1/1 26/1/1
f 28/3/1 24/3/1 21/3/1
f 29/3/1 24/3/1 28/3/1
f 32/3/1 28/3/1 21/3/1
f 33/3/1 28/3/1 32/3/1
f 34/4/1 31/4/1 30/4/1
f 35/4/1 31/4/1 34/4/1
f 37/5/1 35/5/1 34/5/1
f 37/5/1 36/5/1 35/5/1
f 39/5/1 37/5/1 34/5/1
f 40/4/1 38/4/1 37/4/1
f 40/5/1 37/5/1 39/5/1
f 41/4/1 38/4/1 40/4/1
f 44/1/1 43/1/1 42/1/1
f 45/1/1 43/1/1 44/1/1
f 48/1/1 47/1/1 46/1/1
f 49/1/1 47/1/1 48/1/1
f 52/5/1 51/5/1 50/5/1
f 53/5/1 51/5/1 52/5/1
f 56/5/1 55/5/1 54/5/1
f 57/5/1 55/5/1 56/5/1
f 58/5/2 59/5/2 60/5/2
f 60/5/2 59/5/2 61/5/2
f 62/1/2 63/1/2 64/1/2
f 64/1/2 63/1/2 65/1/2
f 66/1/2 67/1/2 68/1/2
f 68/1/2 67/1/2 69/1/2
f 70/5/2 71/5/2 72/5/2
f 72/5/2 71/5/2 73/5/2
f 74/3/2 75/3/2 76/3/2
f 76/3/2 75/3/2 77/3/2
f 77/3/2 75/3/2 80/3/2
f 80/3/2 75/3/2 81/3/2
f 78/1/2 79/1/2 82/1/2
f 82/1/2 79/1/2 83/1/2
f 77/3/2 80/3/2 84/3/2
f 84/3/2 80/3/2 85/3/2
f 77/3/2 84/3/2 88/3/2
f 88/3/2 84/3/2 89/3/2
f 86/4/2 87/4/2 90/4/2
f 90/4/2 87/4/2 91/4/2
f 90/5/2 91/5/2 93/5/2
f 91/5/2 92/5/2 93/5/2
f 90/5/2 93/5/2 95/5/2
f 93/4/2 94/4/2 96/4/2
f 95/5/2 93/5/2 96/5/2
f 96/4/2 94/4/2 97/4/2
f 98/3/2 99/3/2 101/3/2
f 101/3/2 99/3/2 102/3/2
f 100/4/2 101/4/2 105/4/2
f 105/4/2 101/4/2 106/4/2
f 103/4/2 104/4/2 107/4/2
f 107/4/2 104/4/2 108/4/2
f 106/4/2 107/4/2 109/4/2
f 109/4/2 107/4/2 110/4/2
f 111/4/2 112/4/2 113/4/2
f 113/4/2 112/4/2 114/4/2
f 118/4/3 116/4/3 115/4/3
f 118/5/3 117/5/3 116/5/3
f 119/5/3 117/5/3 118/5/3
f 121/4/3 118/4/3 115/4/3
f 122/5/3 120/5/3 119/5/3
f 123/5/3 120/5/3 122/5/3
f 124/4/3 121/4/3 115/4/3
f 125/5/3 122/5/3 121/5/3
f 125/4/3 121/4/3 124/4/3
f 126/5/3 122/5/3 125/5/3
f 131/4/3 128/4/3 127/4/3
f 132/4/3 128/4/3 131/4/3
f 134/1/3 130/1/3 129/1/3
f 135/1/3 130/1/3 134/1/3
f 139/1/3 136/1/3 135/1/3
f 139/1/3 134/1/3 133/1/3
f 139/1/3 135/1/3 134/1/3
f 140/1/3 136/1/3 139/1/3
f 141/1/3 136/1/3 140/1/3
f 142/1/3 136/1/3 141/1/3
f 143/2/3 138/2/3 137/2/3
f 144/2/3 138/2/3 143/2/3
f 145/1/3 141/1/3 140/1/3
f 146/1/3 141/1/3 145/1/3
f 149/4/3 148/4/3 147/4/3
f 150/4/3 148/4/3 149/4/3
f 154/4/3 152/4/3 151/4/3
f 155/4/3 152/4/3 154/4/3
f 157/3/3 154/3/3 153/3/3
f 158/3/3 154/3/3 157/3/3
f 159/4/3 156/4/3 155/4/3
f 160/4/3 156/4/3 159/4/3
f 161/3/3 157/3/3 153/3/3
f 162/3/3 157/3/3 161/3/3
f 163/3/3 154/3/3 158/3/3
f 164/3/3 154/3/3 163/3/3
f 168/3/3 154/3/3 164/3/3
f 169/3/3 166/3/3 165/3/3
f 170/3/3 168/3/3 167/3/3
f 173/3/3 169/3/3 165/3/3
f 173/3/3 170/3/3 169/3/3
f 174/3/3 154/3/3 168/3/3
f 174/3/3 170/3/3 173/3/3
f 174/3/3 168/3/3 170/3/3
f 175/4/3 172/4/3 171/4/3
f 176/4/3 172/4/3 175/4/3
f 177/4/3 175/4/3 174/4/3
f 178/4/3 175/4/3 177/4/3
f 181/3/3 180/3/3 179/3/3
f 182/3/3 180/3/3 181/3/3
f 183/5/4 184/5/4 185/5/4
f 185/5/4 184/5/4 186/5/4
f 187/3/4 188/3/4 189/3/4
f 189/3/4 188/3/4 190/3/4
f 191/3/4 192/3/4 193/3/4
f 193/3/4 192/3/4 194/3/4
f 195/4/4 196/4/4 197/4/4
f 197/4/4 196/4/4 198/4/4
f 198/4/4 199/4/4 202/4/4
f 200/3/4 201/3/4 204/3/4
f 204/3/4 201/3/4 205/3/4
f 202/4/4 203/4/4 206/4/4
f 198/4/4 202/4/4 206/4/4
f 206/4/4 203/4/4 207/4/4
f 198/4/4 206/4/4 209/4/4
f 209/4/4 206/4/4 210/4/4
f 208/4/4 209/4/4 211/4/4
f 211/4/4 209/4/4 212/4/4
f 215/3/4 216/3/4 217/3/4
f 217/3/4 216/3/4 218/3/4
f 213/4/4 214/4/4 219/4/4
f 219/4/4 214/4/4 220/4/4
f 221/3/4 222/3/4 223/3/4
f 223/3/4 222/3/4 224/3/4
f 227/3/5 226/3/5 225/3/5
f 228/3/5 226/3/5 227/3/5
f 232/1/5 230/1/5 229/1/5
f 233/1/5 230/1/5 232/1/5
f 235/3/5 232/3/5 231/3/5
f 235/3/5 234/3/5 233/3/5
f 235/3/5 233/3/5 232/3/5
f 236/3/5 234/3/5 235/3/5
f 237/3/5 235/3/5 231/3/5
f 238/3/5 235/3/5 237/3/5
f 239/3/5 234/3/5 236/3/5
f 240/3/5 234/3/5 239/3/5
f 245/1/5 242/1/5 241/1/5
f 246/1/5 242/1/5 245/1/5
f 247/1/5 244/1/5 243/1/5
f 248/1/5 244/1/5 247/1/5
f 252/4/5 250/4/5 249/4/5
f 253/4/5 250/4/5 252/4/5
f 256/4/5 252/4/5 251/4/5
f 256/4/5 254/4/5 253/4/5
f 256/4/5 253/4/5 252/4/5
f 257/4/5 254/4/5 256/4/5
f 259/4/5 256/4/5 255/4/5
f 262/4/5 258/4/5 257/4/5
f 263/4/5 260/4/5 259/4/5
f 263/4/5 259/4/5 255/4/5
f 264/4/5 260/4/5 263/4/5
f 265/4/5 260/4/5 264/4/5
f 266/4/5 262/4/5 261/4/5
f 267/4/5 258/4/5 262/4/5
f 267/4/5 262/4/5 266/4/5
f 268/4/5 258/4/5 267/4/5
f 269/4/5 265/4/5 264/4/5
f 269/4/5 266/4/5 265/4/5
f 269/4/5 267/4/5 266/4/5
f 270/4/5 267/4/5 269/4/5
f 273/5/5 272/5/5 271/5/5
f 274/5/5 272/5/5 273/5/5
f 275/3/6 276/3/6 277/3/6
f 277/3/6 276/3/6 278/3/6
f 279/1/6 280/1/6 283/1/6
f 283/1/6 280/1/6 284/1/6
f 281/1/6 282/1/6 285/1/6
f 285/1/6 282/1/6 286/1/6
f 287/1/6 288/1/6 289/1/6
f 289/1/6 288/1/6 290/1/6
f 291/3/6 292/3/6 293/3/6
f 293/3/6 292/3/6 294/3/6
f 295/4/6 296/4/6 299/4/6
f 299/4/6 296/4/6 300/4/6
f 297/4/6 298/4/6 304/4/6
f 304/4/6 298/4/6 305/4/6
f 301/4/6 302/4/6 306/4/6
f 306/4/6 302/4/6 307/4/6
f 303/4/6 304/4/6 309/4/6
f 309/4/6 304/4/6 310/4/6
f 307/4/6 308/4/6 311/4/6
f 311/4/6 308/4/6 312/4/6
f 310/4/6 311/4/6 313/4/6
f 313/4/6 311/4/6 314/4/6
f 315/4/6 316/4/6 319/4/6
f 319/4/6 316/4/6 320/4/6
f 317/4/6 318/4/6 321/4/6
f 321/4/6 318/4/6 322/4/6
f 323/5/6 324/5/6 327/5/6
f 327/5/6 324/5/6 328/5/6
f 325/5/6 326/5/6 329/5/6
f 329/5/6 326/5/6 330/5/6
f 327/4/6 328/4/6 331/4/6
f 328/4/6 329/4/6 331/4/6
f 329/4/6 330/4/6 331/4/6
f 331/4/6 330/4/6 332/4/6
f 333/5/6 334/5/6 335/5/6
f 335/5/6 334/5/6 336/5/6
