# MagicaVoxel @ Ephtracy

# group
o 

# material
mtllib corn_1.mtl
usemtl palette

# normals
vn -1 0 0
vn 1 0 0
vn 0 0 1
vn 0 0 -1
vn 0 -1 0
vn 0 1 0

# texcoords
vt 0.529297 0.5
vt 0.560547 0.5
vt 0.591797 0.5
vt 0.623047 0.5

# verts
v -0.6 0 0
v -0.6 0 -0.1
v -0.6 0.1 0
v -0.6 0.1 -0.1
v -0.5 -0.1 0
v -0.5 -0.1 -0.1
v -0.5 0 0
v -0.5 0 -0.1
v -0.4 -0.1 0.1
v -0.4 -0.1 0
v -0.4 -0.1 -0.1
v -0.4 -0.1 -0.2
v -0.4 0.1 0.1
v -0.4 0.1 0
v -0.4 0.1 -0.1
v -0.4 0.1 -0.2
v -0.3 -0.2 0.1
v -0.3 -0.2 0
v -0.3 -0.2 -0.1
v -0.3 -0.2 -0.2
v -0.3 -0.1 0.2
v -0.3 -0.1 0.1
v -0.3 -0.1 0
v -0.3 -0.1 -0.1
v -0.3 -0.1 -0.2
v -0.3 0 0.2
v -0.3 0 0.1
v -0.3 0 -0.2
v -0.3 0 -0.3
v -0.3 0.1 0.1
v -0.3 0.1 0
v -0.3 0.1 -0.1
v -0.3 0.1 -0.2
v -0.3 0.1 -0.3
v -0.3 0.2 0.1
v -0.3 0.2 0
v -0.3 0.2 -0.1
v -0.3 0.2 -0.2
v -0.2 -0.1 -0.1
v -0.2 -0.1 -0.2
v -0.2 -0.1 -0.3
v -0.2 0 0.2
v -0.2 0 0.1
v -0.2 0 -0.1
v -0.2 0 -0.3
v -0.2 0.1 0.2
v -0.2 0.1 0.1
v -0.3 -0.1 -0.1
v -0.3 -0.1 -0.2
v -0.3 0 -0.1
v -0.3 0 -0.2
v 0.3 -0.1 -0.2
v 0.3 -0.1 -0.3
v 0.3 0 0.2
v 0.3 0 0.1
v 0.3 0 -0.2
v 0.3 0 -0.3
v 0.3 0.1 0.2
v 0.3 0.1 0.1
v 0.4 -0.2 0.1
v 0.4 -0.2 0
v 0.4 -0.2 -0.1
v 0.4 -0.2 -0.2
v 0.4 -0.1 0.2
v 0.4 -0.1 0.1
v 0.4 -0.1 0
v 0.4 -0.1 -0.1
v 0.4 -0.1 -0.2
v 0.4 0 0.2
v 0.4 0 0.1
v 0.4 0 -0.2
v 0.4 0 -0.3
v 0.4 0.1 0.1
v 0.4 0.1 0
v 0.4 0.1 -0.1
v 0.4 0.1 -0.2
v 0.4 0.1 -0.3
v 0.4 0.2 0.1
v 0.4 0.2 0
v 0.4 0.2 -0.1
v 0.4 0.2 -0.2
v 0.5 -0.2 0
v 0.5 -0.2 -0.1
v 0.5 -0.1 0
v 0.5 -0.1 -0.1
v 0.5 -0.1 -0.2
v 0.5 0 0.1
v 0.5 0 0
v 0.5 0 -0.1
v 0.5 0 -0.2
v 0.5 0.1 0.1
v 0.5 0.1 0
v 0.5 0.1 -0.1
v 0.5 0.2 0
v 0.5 0.2 -0.1
v 0.6 -0.1 0.1
v 0.6 -0.1 0
v 0.6 0 0.1
v 0.6 0 0
v 0.6 0 -0.1
v 0.6 0 -0.2
v 0.6 0.1 0
v 0.6 0.1 -0.2
v 0.7 -0.1 0
v 0.7 -0.1 -0.1
v 0.7 0 0
v 0.7 0 -0.1
v -0.3 -0.1 0.2
v -0.3 0 0.2
v -0.2 -0.1 0.2
v -0.2 0 0.2
v -0.2 0.1 0.2
v -0.1 -0.1 0.2
v -0.1 0 0.2
v -5.96046e-08 0 0.2
v -5.96046e-08 0.1 0.2
v 0.1 -0.1 0.2
v 0.1 0 0.2
v 0.1 0.1 0.2
v 0.3 0 0.2
v 0.3 0.1 0.2
v 0.4 -0.1 0.2
v 0.4 0 0.2
v -0.4 -0.1 0.1
v -0.4 0.1 0.1
v -0.3 -0.2 0.1
v -0.3 -0.1 0.1
v -0.3 0 0.1
v -0.3 0.1 0.1
v -0.3 0.2 0.1
v -0.2 -0.1 0.1
v -0.2 0 0.1
v -0.2 0.1 0.1
v -0.1 -0.1 0.1
v -5.96046e-08 0.1 0.1
v 0.1 -0.1 0.1
v 0.1 0.1 0.1
v 0.2 -0.2 0.1
v 0.2 -0.1 0.1
v 0.2 0.1 0.1
v 0.2 0.2 0.1
v 0.3 0 0.1
v 0.3 0.1 0.1
v 0.4 -0.2 0.1
v 0.4 -0.1 0.1
v 0.4 0 0.1
v 0.4 0.1 0.1
v 0.4 0.2 0.1
v 0.5 -0.1 0.1
v 0.5 0 0.1
v 0.5 0.1 0.1
v 0.6 -0.1 0.1
v 0.6 0 0.1
v -0.6 0 0
v -0.6 0.1 0
v -0.5 -0.1 0
v -0.5 0 0
v -0.4 -0.1 0
v -0.4 0.1 0
v 0.4 -0.2 0
v 0.4 -0.1 0
v 0.4 0.1 0
v 0.4 0.2 0
v 0.5 -0.2 0
v 0.5 -0.1 0
v 0.5 0 0
v 0.5 0.1 0
v 0.5 0.2 0
v 0.6 -0.1 0
v 0.6 0 0
v 0.6 0.1 0
v 0.7 -0.1 0
v 0.7 0 0
v -0.6 0 -0.1
v -0.6 0.1 -0.1
v -0.5 -0.1 -0.1
v -0.5 0 -0.1
v -0.4 -0.1 -0.1
v -0.4 0.1 -0.1
v -0.3 -0.1 -0.1
v -0.3 0 -0.1
v -0.2 -0.1 -0.1
v -0.2 0 -0.1
v 0.4 -0.2 -0.1
v 0.4 -0.1 -0.1
v 0.4 0.1 -0.1
v 0.4 0.2 -0.1
v 0.5 -0.2 -0.1
v 0.5 -0.1 -0.1
v 0.5 0 -0.1
v 0.5 0.1 -0.1
v 0.5 0.2 -0.1
v 0.6 -0.1 -0.1
v 0.6 0 -0.1
v 0.7 -0.1 -0.1
v 0.7 0 -0.1
v -0.4 -0.1 -0.2
v -0.4 0.1 -0.2
v -0.3 -0.2 -0.2
v -0.3 -0.1 -0.2
v -0.3 0 -0.2
v -0.3 0.1 -0.2
v -0.3 0.2 -0.2
v -0.2 -0.1 -0.2
v -0.2 0.1 -0.2
v -0.1 -0.1 -0.2
v -0.1 0.1 -0.2
v 0.1 -0.1 -0.2
v 0.1 0.1 -0.2
v 0.2 -0.2 -0.2
v 0.2 -0.1 -0.2
v 0.2 0.1 -0.2
v 0.2 0.2 -0.2
v 0.3 -0.1 -0.2
v 0.3 0 -0.2
v 0.3 0.1 -0.2
v 0.4 -0.2 -0.2
v 0.4 -0.1 -0.2
v 0.4 0 -0.2
v 0.4 0.1 -0.2
v 0.4 0.2 -0.2
v 0.5 -0.1 -0.2
v 0.5 0 -0.2
v 0.5 0.1 -0.2
v 0.6 0 -0.2
v 0.6 0.1 -0.2
v -0.3 0 -0.3
v -0.3 0.1 -0.3
v -0.2 -0.1 -0.3
v -0.2 0 -0.3
v -0.2 0.1 -0.3
v -0.1 -0.1 -0.3
v -0.1 0 -0.3
v -0.1 0.1 -0.3
v 0.1 -0.1 -0.3
v 0.1 0 -0.3
v 0.1 0.1 -0.3
v 0.2 -0.1 -0.3
v 0.2 0 -0.3
v 0.2 0.1 -0.3
v 0.3 -0.1 -0.3
v 0.3 0 -0.3
v 0.3 0.1 -0.3
v 0.4 0 -0.3
v 0.4 0.1 -0.3
v -0.3 -0.2 0.1
v 0.2 -0.2 0.1
v 0.4 -0.2 0.1
v -0.3 -0.2 0
v 0.2 -0.2 0
v 0.4 -0.2 0
v 0.5 -0.2 0
v -0.3 -0.2 -0.1
v 0.2 -0.2 -0.1
v 0.4 -0.2 -0.1
v 0.5 -0.2 -0.1
v -0.3 -0.2 -0.2
v 0.2 -0.2 -0.2
v 0.4 -0.2 -0.2
v -0.3 -0.1 0.2
v -0.2 -0.1 0.2
v -0.1 -0.1 0.2
v 0.1 -0.1 0.2
v 0.4 -0.1 0.2
v -0.4 -0.1 0.1
v -0.3 -0.1 0.1
v -0.2 -0.1 0.1
v -0.1 -0.1 0.1
v 0.1 -0.1 0.1
v 0.2 -0.1 0.1
v 0.4 -0.1 0.1
v 0.5 -0.1 0.1
v 0.6 -0.1 0.1
v -0.5 -0.1 0
v -0.4 -0.1 0
v -0.3 -0.1 0
v 0.4 -0.1 0
v 0.5 -0.1 0
v 0.6 -0.1 0
v 0.7 -0.1 0
v -0.5 -0.1 -0.1
v -0.4 -0.1 -0.1
v -0.3 -0.1 -0.1
v 0.4 -0.1 -0.1
v 0.5 -0.1 -0.1
v 0.6 -0.1 -0.1
v 0.7 -0.1 -0.1
v -0.4 -0.1 -0.2
v -0.3 -0.1 -0.2
v -0.2 -0.1 -0.2
v -0.1 -0.1 -0.2
v 0.1 -0.1 -0.2
v 0.2 -0.1 -0.2
v 0.3 -0.1 -0.2
v 0.4 -0.1 -0.2
v 0.5 -0.1 -0.2
v -0.2 -0.1 -0.3
v -0.1 -0.1 -0.3
v 0.1 -0.1 -0.3
v 0.2 -0.1 -0.3
v 0.3 -0.1 -0.3
v -0.6 0 0
v -0.5 0 0
v -0.6 0 -0.1
v -0.5 0 -0.1
v -0.3 0 -0.1
v -0.2 0 -0.1
v 0.5 0 -0.1
v 0.6 0 -0.1
v -0.3 0 -0.2
v 0.3 0 -0.2
v 0.4 0 -0.2
v 0.5 0 -0.2
v 0.6 0 -0.2
v -0.3 0 -0.3
v -0.2 0 -0.3
v 0.3 0 -0.3
v 0.4 0 -0.3
v -0.3 -0.1 -0.1
v -0.2 -0.1 -0.1
v -0.3 -0.1 -0.2
v -0.2 -0.1 -0.2
v -0.3 0 0.2
v -0.2 0 0.2
v 0.3 0 0.2
v 0.4 0 0.2
v -0.3 0 0.1
v -0.2 0 0.1
v 0.3 0 0.1
v 0.4 0 0.1
v 0.5 0 0.1
v 0.6 0 0.1
v 0.5 0 0
v 0.6 0 0
v 0.7 0 0
v 0.6 0 -0.1
v 0.7 0 -0.1
v -0.2 0.1 0.2
v -5.96046e-08 0.1 0.2
v 0.1 0.1 0.2
v 0.3 0.1 0.2
v -0.4 0.1 0.1
v -0.3 0.1 0.1
v -0.2 0.1 0.1
v -5.96046e-08 0.1 0.1
v 0.1 0.1 0.1
v 0.2 0.1 0.1
v 0.3 0.1 0.1
v 0.4 0.1 0.1
v 0.5 0.1 0.1
v -0.6 0.1 0
v -0.4 0.1 0
v -0.3 0.1 0
v 0.4 0.1 0
v 0.5 0.1 0
v 0.6 0.1 0
v -0.6 0.1 -0.1
v -0.4 0.1 -0.1
v -0.3 0.1 -0.1
v 0.4 0.1 -0.1
v 0.5 0.1 -0.1
v -0.4 0.1 -0.2
v -0.3 0.1 -0.2
v -0.2 0.1 -0.2
v -0.1 0.1 -0.2
v 0.1 0.1 -0.2
v 0.2 0.1 -0.2
v 0.3 0.1 -0.2
v 0.4 0.1 -0.2
v 0.5 0.1 -0.2
v 0.6 0.1 -0.2
v -0.3 0.1 -0.3
v -0.2 0.1 -0.3
v -0.1 0.1 -0.3
v 0.1 0.1 -0.3
v 0.2 0.1 -0.3
v 0.3 0.1 -0.3
v 0.4 0.1 -0.3
v -0.3 0.2 0.1
v 0.2 0.2 0.1
v 0.4 0.2 0.1
v -0.3 0.2 0
v 0.2 0.2 0
v 0.4 0.2 0
v 0.5 0.2 0
v -0.3 0.2 -0.1
v 0.2 0.2 -0.1
v 0.4 0.2 -0.1
v 0.5 0.2 -0.1
v -0.3 0.2 -0.2
v 0.2 0.2 -0.2
v 0.4 0.2 -0.2

# faces
f 3/3/1 2/3/1 1/3/1
f 4/3/1 2/3/1 3/3/1
f 7/3/1 6/3/1 5/3/1
f 8/3/1 6/3/1 7/3/1
f 13/3/1 10/3/1 9/3/1
f 14/3/1 10/3/1 13/3/1
f 15/3/1 12/3/1 11/3/1
f 16/3/1 12/3/1 15/3/1
f 22/4/1 18/4/1 17/4/1
f 23/3/1 19/3/1 18/3/1
f 23/4/1 18/4/1 22/4/1
f 24/4/1 20/4/1 19/4/1
f 24/3/1 19/3/1 23/3/1
f 25/4/1 20/4/1 24/4/1
f 26/2/1 22/2/1 21/2/1
f 27/2/1 22/2/1 26/2/1
f 33/2/1 29/2/1 28/2/1
f 34/2/1 29/2/1 33/2/1
f 35/4/1 31/4/1 30/4/1
f 36/3/1 32/3/1 31/3/1
f 36/4/1 31/4/1 35/4/1
f 37/4/1 33/4/1 32/4/1
f 37/3/1 32/3/1 36/3/1
f 38/4/1 33/4/1 37/4/1
f 44/2/1 40/2/1 39/2/1
f 44/2/1 41/2/1 40/2/1
f 45/2/1 41/2/1 44/2/1
f 46/2/1 43/2/1 42/2/1
f 47/2/1 43/2/1 46/2/1
f 48/3/2 49/3/2 50/3/2
f 50/3/2 49/3/2 51/3/2
f 52/1/2 53/1/2 56/1/2
f 56/1/2 53/1/2 57/1/2
f 54/2/2 55/2/2 58/2/2
f 58/2/2 55/2/2 59/2/2
f 60/3/2 61/3/2 65/3/2
f 65/3/2 61/3/2 66/3/2
f 62/3/2 63/3/2 67/3/2
f 67/3/2 63/3/2 68/3/2
f 64/1/2 65/1/2 69/1/2
f 69/1/2 65/1/2 70/1/2
f 71/1/2 72/1/2 76/1/2
f 76/1/2 72/1/2 77/1/2
f 73/3/2 74/3/2 78/3/2
f 78/3/2 74/3/2 79/3/2
f 75/3/2 76/3/2 80/3/2
f 80/3/2 76/3/2 81/3/2
f 82/3/2 83/3/2 84/3/2
f 84/3/2 83/3/2 85/3/2
f 85/1/2 86/1/2 89/1/2
f 89/1/2 86/1/2 90/1/2
f 87/2/2 88/2/2 91/2/2
f 91/2/2 88/2/2 92/2/2
f 92/3/2 93/3/2 94/3/2
f 94/3/2 93/3/2 95/3/2
f 96/1/2 97/1/2 98/1/2
f 98/1/2 97/1/2 99/1/2
f 100/1/2 101/1/2 102/1/2
f 99/1/2 100/1/2 102/1/2
f 102/1/2 101/1/2 103/1/2
f 104/1/2 105/1/2 106/1/2
f 106/1/2 105/1/2 107/1/2
f 110/2/3 109/2/3 108/2/3
f 111/2/3 109/2/3 110/2/3
f 113/1/3 111/1/3 110/1/3
f 114/2/3 112/2/3 111/2/3
f 114/1/3 111/1/3 113/1/3
f 115/2/3 114/2/3 113/2/3
f 115/2/3 112/2/3 114/2/3
f 116/2/3 112/2/3 115/2/3
f 117/2/3 115/2/3 113/2/3
f 118/1/3 116/1/3 115/1/3
f 118/2/3 115/2/3 117/2/3
f 119/1/3 116/1/3 118/1/3
f 120/1/3 118/1/3 117/1/3
f 120/2/3 119/2/3 118/2/3
f 121/2/3 119/2/3 120/2/3
f 122/1/3 120/1/3 117/1/3
f 123/1/3 120/1/3 122/1/3
f 127/3/3 125/3/3 124/3/3
f 128/3/3 125/3/3 127/3/3
f 129/3/3 125/3/3 128/3/3
f 131/4/3 127/4/3 126/4/3
f 132/1/3 129/1/3 128/1/3
f 133/4/3 130/4/3 129/4/3
f 133/1/3 129/1/3 132/1/3
f 134/4/3 131/4/3 126/4/3
f 135/4/3 130/4/3 133/4/3
f 136/4/3 134/4/3 126/4/3
f 137/4/3 130/4/3 135/4/3
f 138/4/3 136/4/3 126/4/3
f 139/4/3 136/4/3 138/4/3
f 140/4/3 130/4/3 137/4/3
f 141/4/3 130/4/3 140/4/3
f 143/3/3 141/3/3 140/3/3
f 144/3/3 139/3/3 138/3/3
f 145/3/3 139/3/3 144/3/3
f 146/1/3 143/1/3 142/1/3
f 147/3/3 141/3/3 143/3/3
f 147/1/3 143/1/3 146/1/3
f 148/3/3 141/3/3 147/3/3
f 149/2/3 146/2/3 145/2/3
f 149/2/3 147/2/3 146/2/3
f 150/2/3 147/2/3 149/2/3
f 151/2/3 147/2/3 150/2/3
f 152/1/3 150/1/3 149/1/3
f 153/1/3 150/1/3 152/1/3
f 157/3/3 155/3/3 154/3/3
f 158/3/3 157/3/3 156/3/3
f 159/3/3 155/3/3 157/3/3
f 159/3/3 157/3/3 158/3/3
f 164/3/3 161/3/3 160/3/3
f 165/3/3 161/3/3 164/3/3
f 167/3/3 163/3/3 162/3/3
f 168/3/3 163/3/3 167/3/3
f 170/1/3 167/1/3 166/1/3
f 171/1/3 167/1/3 170/1/3
f 172/1/3 170/1/3 169/1/3
f 173/1/3 170/1/3 172/1/3
f 174/3/4 175/3/4 177/3/4
f 176/3/4 177/3/4 178/3/4
f 177/3/4 175/3/4 179/3/4
f 178/3/4 177/3/4 179/3/4
f 180/3/4 181/3/4 182/3/4
f 182/3/4 181/3/4 183/3/4
f 184/3/4 185/3/4 188/3/4
f 188/3/4 185/3/4 189/3/4
f 186/3/4 187/3/4 191/3/4
f 191/3/4 187/3/4 192/3/4
f 189/2/4 190/2/4 193/2/4
f 193/2/4 190/2/4 194/2/4
f 193/1/4 194/1/4 195/1/4
f 195/1/4 194/1/4 196/1/4
f 197/3/4 198/3/4 200/3/4
f 200/3/4 198/3/4 201/3/4
f 201/3/4 198/3/4 202/3/4
f 199/4/4 200/4/4 204/4/4
f 202/4/4 203/4/4 205/4/4
f 199/4/4 204/4/4 206/4/4
f 205/4/4 203/4/4 207/4/4
f 199/4/4 206/4/4 208/4/4
f 207/4/4 203/4/4 209/4/4
f 199/4/4 208/4/4 210/4/4
f 210/4/4 208/4/4 211/4/4
f 209/4/4 203/4/4 212/4/4
f 212/4/4 203/4/4 213/4/4
f 210/3/4 211/3/4 214/3/4
f 212/3/4 213/3/4 216/3/4
f 210/3/4 214/3/4 217/3/4
f 214/2/4 215/2/4 218/2/4
f 217/3/4 214/3/4 218/3/4
f 218/2/4 215/2/4 219/2/4
f 216/3/4 213/3/4 220/3/4
f 220/3/4 213/3/4 221/3/4
f 218/1/4 219/1/4 222/1/4
f 219/2/4 220/2/4 223/2/4
f 222/1/4 219/1/4 223/1/4
f 223/2/4 220/2/4 224/2/4
f 223/1/4 224/1/4 225/1/4
f 225/1/4 224/1/4 226/1/4
f 227/2/4 228/2/4 230/2/4
f 230/2/4 228/2/4 231/2/4
f 229/2/4 230/2/4 232/2/4
f 230/1/4 231/1/4 233/1/4
f 232/2/4 230/2/4 233/2/4
f 233/1/4 231/1/4 234/1/4
f 232/1/4 233/1/4 235/1/4
f 233/2/4 234/2/4 236/2/4
f 235/1/4 233/1/4 236/1/4
f 236/2/4 234/2/4 237/2/4
f 235/2/4 236/2/4 238/2/4
f 236/1/4 237/1/4 239/1/4
f 238/2/4 236/2/4 239/2/4
f 239/1/4 237/1/4 240/1/4
f 238/1/4 239/1/4 241/1/4
f 239/2/4 240/2/4 242/2/4
f 241/1/4 239/1/4 242/1/4
f 242/2/4 240/2/4 243/2/4
f 242/1/4 243/1/4 244/1/4
f 244/1/4 243/1/4 245/1/4
f 249/4/5 247/4/5 246/4/5
f 250/3/5 248/3/5 247/3/5
f 250/4/5 247/4/5 249/4/5
f 251/3/5 248/3/5 250/3/5
f 253/3/5 250/3/5 249/3/5
f 253/3/5 252/3/5 251/3/5
f 253/3/5 251/3/5 250/3/5
f 254/3/5 252/3/5 253/3/5
f 255/3/5 252/3/5 254/3/5
f 256/3/5 252/3/5 255/3/5
f 257/4/5 254/4/5 253/4/5
f 258/3/5 255/3/5 254/3/5
f 258/4/5 254/4/5 257/4/5
f 259/3/5 255/3/5 258/3/5
f 266/2/5 261/2/5 260/2/5
f 267/1/5 262/1/5 261/1/5
f 267/2/5 261/2/5 266/2/5
f 268/2/5 263/2/5 262/2/5
f 268/1/5 262/1/5 267/1/5
f 269/1/5 264/1/5 263/1/5
f 269/2/5 263/2/5 268/2/5
f 270/1/5 264/1/5 269/1/5
f 271/1/5 264/1/5 270/1/5
f 275/3/5 266/3/5 265/3/5
f 276/3/5 266/3/5 275/3/5
f 277/2/5 272/2/5 271/2/5
f 278/1/5 273/1/5 272/1/5
f 278/2/5 272/2/5 277/2/5
f 279/1/5 273/1/5 278/1/5
f 281/3/5 276/3/5 275/3/5
f 281/3/5 275/3/5 274/3/5
f 282/3/5 276/3/5 281/3/5
f 283/3/5 276/3/5 282/3/5
f 285/2/5 279/2/5 278/2/5
f 286/1/5 280/1/5 279/1/5
f 286/2/5 279/2/5 285/2/5
f 287/1/5 280/1/5 286/1/5
f 288/3/5 283/3/5 282/3/5
f 289/3/5 283/3/5 288/3/5
f 295/1/5 285/1/5 284/1/5
f 296/1/5 285/1/5 295/1/5
f 297/2/5 291/2/5 290/2/5
f 298/1/5 292/1/5 291/1/5
f 298/2/5 291/2/5 297/2/5
f 299/2/5 293/2/5 292/2/5
f 299/1/5 292/1/5 298/1/5
f 300/1/5 294/1/5 293/1/5
f 300/2/5 293/2/5 299/2/5
f 301/1/5 294/1/5 300/1/5
f 304/3/5 303/3/5 302/3/5
f 305/3/5 303/3/5 304/3/5
f 310/2/5 307/2/5 306/2/5
f 313/1/5 309/1/5 308/1/5
f 314/1/5 309/1/5 313/1/5
f 315/2/5 307/2/5 310/2/5
f 316/2/5 307/2/5 315/2/5
f 317/1/5 312/1/5 311/1/5
f 318/1/5 312/1/5 317/1/5
f 319/4/6 320/4/6 321/4/6
f 321/4/6 320/4/6 322/4/6
f 323/2/6 324/2/6 327/2/6
f 327/2/6 324/2/6 328/2/6
f 325/1/6 326/1/6 329/1/6
f 329/1/6 326/1/6 330/1/6
f 331/1/6 332/1/6 333/1/6
f 333/1/6 332/1/6 334/1/6
f 334/1/6 335/1/6 336/1/6
f 336/1/6 335/1/6 337/1/6
f 338/2/6 339/2/6 344/2/6
f 339/1/6 340/1/6 345/1/6
f 344/2/6 339/2/6 345/2/6
f 340/2/6 341/2/6 346/2/6
f 345/1/6 340/1/6 346/1/6
f 346/2/6 341/2/6 347/2/6
f 347/2/6 341/2/6 348/2/6
f 342/3/6 343/3/6 352/3/6
f 352/3/6 343/3/6 353/3/6
f 349/2/6 350/2/6 354/2/6
f 354/2/6 350/2/6 355/2/6
f 352/3/6 353/3/6 357/3/6
f 351/3/6 352/3/6 357/3/6
f 357/3/6 353/3/6 358/3/6
f 358/3/6 353/3/6 359/3/6
f 355/1/6 356/1/6 361/1/6
f 358/3/6 359/3/6 362/3/6
f 362/3/6 359/3/6 363/3/6
f 360/2/6 361/2/6 369/2/6
f 361/1/6 356/1/6 370/1/6
f 369/2/6 361/2/6 370/2/6
f 370/1/6 356/1/6 371/1/6
f 363/2/6 364/2/6 372/2/6
f 364/1/6 365/1/6 373/1/6
f 372/2/6 364/2/6 373/2/6
f 365/2/6 366/2/6 374/2/6
f 373/1/6 365/1/6 374/1/6
f 366/1/6 367/1/6 375/1/6
f 374/2/6 366/2/6 375/2/6
f 367/2/6 368/2/6 376/2/6
f 375/1/6 367/1/6 376/1/6
f 368/1/6 369/1/6 377/1/6
f 376/2/6 368/2/6 377/2/6
f 377/1/6 369/1/6 378/1/6
f 379/4/6 380/4/6 382/4/6
f 380/3/6 381/3/6 383/3/6
f 382/4/6 380/4/6 383/4/6
f 383/3/6 381/3/6 384/3/6
f 382/3/6 383/3/6 386/3/6
f 384/3/6 385/3/6 386/3/6
f 383/3/6 384/3/6 386/3/6
f 386/3/6 385/3/6 387/3/6
f 387/3/6 385/3/6 388/3/6
f 388/3/6 385/3/6 389/3/6
f 386/4/6 387/4/6 390/4/6
f 387/3/6 388/3/6 391/3/6
f 390/4/6 387/4/6 391/4/6
f 391/3/6 388/3/6 392/3/6
