# MagicaVoxel @ Ephtracy

# group
o 

# material
mtllib morel_3.mtl
usemtl palette

# normals
vn -1 0 0
vn 1 0 0
vn 0 0 1
vn 0 0 -1
vn 0 -1 0
vn 0 1 0

# texcoords
vt 0.916016 0.5
vt 0.923828 0.5

# verts
v -0.7 0.6 0.2
v -0.7 0.6 5.96046e-08
v -0.7 0.8 0.6
v -0.7 0.8 0.4
v -0.7 1 0.4
v -0.7 1 0.2
v -0.7 1 5.96046e-08
v -0.7 1.2 0.6
v -0.7 1.2 0.4
v -0.7 1.2 0.2
v -0.7 1.4 0.4
v -0.7 1.4 0.2
v -0.5 0.4 0.2
v -0.5 0.4 5.96046e-08
v -0.5 0.6 0.2
v -0.5 0.6 5.96046e-08
v -0.5 0.8 0.4
v -0.5 0.8 0.2
v -0.5 1 0.4
v -0.5 1 0.2
v -0.3 0 0.2
v -0.3 0 5.96046e-08
v -0.3 0.4 0.2
v -0.3 0.4 5.96046e-08
v -0.3 0.6 5.96046e-08
v -0.3 0.6 -0.2
v -0.3 0.8 5.96046e-08
v -0.3 0.8 -0.2
v -0.3 0.8 -0.4
v -0.3 1 5.96046e-08
v -0.3 1 -0.2
v -0.3 1.4 5.96046e-08
v -0.3 1.4 -0.2
v -0.3 1.4 -0.4
v -0.3 1.6 -0.2
v -0.3 1.6 -0.4
v -0.1 0 5.96046e-08
v -0.1 0 -0.2
v -0.1 0.4 5.96046e-08
v -0.1 0.6 5.96046e-08
v -0.1 0.6 -0.2
v 0.3 0.4 -0.2
v 0.3 0.4 -0.4
v 0.3 0.6 -0.2
v 0.3 0.6 -0.4
v 0.3 0.6 -0.6
v 0.3 1 -0.2
v 0.3 1 -0.4
v 0.3 1 -0.6
v 0.3 1.2 -0.4
v 0.3 1.2 -0.6
v -0.5 0.6 0.2
v -0.5 0.6 5.96046e-08
v -0.5 0.8 0.6
v -0.5 0.8 0.4
v -0.5 0.8 0.2
v -0.5 1 0.2
v -0.5 1 5.96046e-08
v -0.5 1.2 0.6
v -0.5 1.2 0.4
v -0.5 1.2 0.2
v -0.5 1.4 0.4
v -0.5 1.4 0.2
v -0.3 0.4 0.2
v -0.3 0.4 5.96046e-08
v -0.3 0.6 0.2
v -0.3 0.6 5.96046e-08
v -0.3 0.8 0.4
v -0.3 0.8 0.2
v -0.3 1.2 0.4
v -0.3 1.2 0.2
v -0.1 0.2 0.2
v -0.1 0.2 5.96046e-08
v -0.1 0.4 0.2
v -0.1 0.4 5.96046e-08
v -0.1 0.8 -0.2
v -0.1 0.8 -0.4
v -0.1 1 5.96046e-08
v -0.1 1 -0.2
v -0.1 1 -0.4
v -0.1 1.4 5.96046e-08
v -0.1 1.4 -0.2
v -0.1 1.4 -0.4
v -0.1 1.6 -0.2
v -0.1 1.6 -0.4
v 0.1 0.4 5.96046e-08
v 0.1 0.4 -0.2
v 0.1 0.8 5.96046e-08
v 0.1 0.8 -0.2
v 0.1 1 -0.2
v 0.1 1 -0.4
v 0.1 1.4 -0.2
v 0.1 1.4 -0.4
v 0.3 0 0.2
v 0.3 0 -0.2
v 0.3 0.2 0.2
v 0.3 0.2 5.96046e-08
v 0.3 0.2 -0.2
v 0.5 0.2 5.96046e-08
v 0.5 0.2 -0.2
v 0.5 0.4 5.96046e-08
v 0.5 0.4 -0.2
v 0.5 0.4 -0.4
v 0.5 0.6 -0.2
v 0.5 0.6 -0.4
v 0.5 1 -0.2
v 0.5 1 -0.4
v 0.5 1 -0.6
v 0.5 1.2 -0.4
v 0.5 1.2 -0.6
v 0.7 0.6 -0.4
v 0.7 0.6 -0.6
v 0.7 1 -0.4
v 0.7 1 -0.6
v -0.7 0.8 0.6
v -0.7 1.2 0.6
v -0.5 0.8 0.6
v -0.5 1.2 0.6
v -0.7 1.2 0.4
v -0.7 1.4 0.4
v -0.5 0.8 0.4
v -0.5 1.2 0.4
v -0.5 1.4 0.4
v -0.3 0.8 0.4
v -0.3 1.2 0.4
v -0.7 0.6 0.2
v -0.7 1 0.2
v -0.5 0.4 0.2
v -0.5 0.6 0.2
v -0.5 0.8 0.2
v -0.5 1 0.2
v -0.3 0 0.2
v -0.3 0.4 0.2
v -0.3 0.6 0.2
v -0.1 0.2 0.2
v -0.1 0.4 0.2
v 0.3 0 0.2
v 0.3 0.2 0.2
v -0.3 0.6 5.96046e-08
v -0.3 0.8 5.96046e-08
v -0.3 1 5.96046e-08
v -0.3 1.4 5.96046e-08
v -0.1 0.2 5.96046e-08
v -0.1 0.4 5.96046e-08
v -0.1 0.6 5.96046e-08
v -0.1 1 5.96046e-08
v -0.1 1.4 5.96046e-08
v 0.1 0.4 5.96046e-08
v 0.1 0.8 5.96046e-08
v 0.3 0.2 5.96046e-08
v 0.5 0.2 5.96046e-08
v 0.5 0.4 5.96046e-08
v -0.3 0.8 -0.2
v -0.3 1 -0.2
v -0.3 1.4 -0.2
v -0.3 1.6 -0.2
v -0.1 0.8 -0.2
v -0.1 1 -0.2
v -0.1 1.4 -0.2
v -0.1 1.6 -0.2
v 0.1 1 -0.2
v 0.1 1.4 -0.2
v 0.3 0.4 -0.2
v 0.3 0.6 -0.2
v 0.3 1 -0.2
v 0.5 0.4 -0.2
v 0.5 0.6 -0.2
v 0.5 1 -0.2
v 0.3 1 -0.4
v 0.3 1.2 -0.4
v 0.5 0.6 -0.4
v 0.5 1 -0.4
v 0.5 1.2 -0.4
v 0.7 0.6 -0.4
v 0.7 1 -0.4
v -0.7 0.8 0.4
v -0.7 1 0.4
v -0.5 0.8 0.4
v -0.5 1 0.4
v -0.7 1 0.2
v -0.7 1.2 0.2
v -0.7 1.4 0.2
v -0.5 0.8 0.2
v -0.5 1 0.2
v -0.5 1.2 0.2
v -0.5 1.4 0.2
v -0.3 0.8 0.2
v -0.3 1.2 0.2
v -0.7 0.6 5.96046e-08
v -0.7 1 5.96046e-08
v -0.5 0.4 5.96046e-08
v -0.5 0.6 5.96046e-08
v -0.5 1 5.96046e-08
v -0.3 0 5.96046e-08
v -0.3 0.4 5.96046e-08
v -0.3 0.6 5.96046e-08
v -0.1 0 5.96046e-08
v -0.1 0.4 5.96046e-08
v -0.3 0.6 -0.2
v -0.3 0.8 -0.2
v -0.1 0 -0.2
v -0.1 0.6 -0.2
v -0.1 0.8 -0.2
v 0.1 0.4 -0.2
v 0.1 0.8 -0.2
v 0.3 0 -0.2
v 0.3 0.2 -0.2
v 0.3 0.4 -0.2
v 0.5 0.2 -0.2
v 0.5 0.4 -0.2
v -0.3 0.8 -0.4
v -0.3 1.4 -0.4
v -0.3 1.6 -0.4
v -0.1 0.8 -0.4
v -0.1 1 -0.4
v -0.1 1.4 -0.4
v -0.1 1.6 -0.4
v 0.1 1 -0.4
v 0.1 1.4 -0.4
v 0.3 0.4 -0.4
v 0.3 0.6 -0.4
v 0.5 0.4 -0.4
v 0.5 0.6 -0.4
v 0.3 0.6 -0.6
v 0.3 1 -0.6
v 0.3 1.2 -0.6
v 0.5 0.6 -0.6
v 0.5 1 -0.6
v 0.5 1.2 -0.6
v 0.7 0.6 -0.6
v 0.7 1 -0.6
v -0.3 0 0.2
v 0.3 0 0.2
v -0.3 0 5.96046e-08
v -0.1 0 5.96046e-08
v -0.1 0 -0.2
v 0.3 0 -0.2
v 0.3 0.2 5.96046e-08
v 0.5 0.2 5.96046e-08
v 0.3 0.2 -0.2
v 0.5 0.2 -0.2
v -0.5 0.4 0.2
v -0.3 0.4 0.2
v -0.5 0.4 5.96046e-08
v -0.3 0.4 5.96046e-08
v 0.3 0.4 -0.2
v 0.5 0.4 -0.2
v 0.3 0.4 -0.4
v 0.5 0.4 -0.4
v -0.7 0.6 0.2
v -0.5 0.6 0.2
v -0.7 0.6 5.96046e-08
v -0.5 0.6 5.96046e-08
v -0.3 0.6 5.96046e-08
v -0.1 0.6 5.96046e-08
v -0.3 0.6 -0.2
v -0.1 0.6 -0.2
v 0.3 0.6 -0.4
v 0.5 0.6 -0.4
v 0.7 0.6 -0.4
v 0.3 0.6 -0.6
v 0.5 0.6 -0.6
v 0.7 0.6 -0.6
v -0.7 0.8 0.6
v -0.5 0.8 0.6
v -0.7 0.8 0.4
v -0.5 0.8 0.4
v -0.3 0.8 0.4
v -0.5 0.8 0.2
v -0.3 0.8 0.2
v -0.3 0.8 -0.2
v -0.1 0.8 -0.2
v -0.3 0.8 -0.4
v -0.1 0.8 -0.4
v -0.7 1 0.4
v -0.5 1 0.4
v -0.7 1 0.2
v -0.5 1 0.2
v -0.3 1 5.96046e-08
v -0.1 1 5.96046e-08
v -0.3 1 -0.2
v -0.1 1 -0.2
v 0.1 1 -0.2
v -0.1 1 -0.4
v 0.1 1 -0.4
v -0.1 0.2 0.2
v 0.3 0.2 0.2
v -0.1 0.2 5.96046e-08
v 0.3 0.2 5.96046e-08
v -0.3 0.4 0.2
v -0.1 0.4 0.2
v -0.3 0.4 5.96046e-08
v -0.1 0.4 5.96046e-08
v 0.1 0.4 5.96046e-08
v 0.5 0.4 5.96046e-08
v 0.1 0.4 -0.2
v 0.3 0.4 -0.2
v 0.5 0.4 -0.2
v -0.5 0.6 0.2
v -0.3 0.6 0.2
v -0.5 0.6 5.96046e-08
v -0.3 0.6 5.96046e-08
v -0.3 0.8 5.96046e-08
v 0.1 0.8 5.96046e-08
v -0.3 0.8 -0.2
v -0.1 0.8 -0.2
v 0.1 0.8 -0.2
v -0.7 1 0.2
v -0.5 1 0.2
v -0.7 1 5.96046e-08
v -0.5 1 5.96046e-08
v 0.3 1 -0.2
v 0.5 1 -0.2
v 0.3 1 -0.4
v 0.5 1 -0.4
v 0.7 1 -0.4
v 0.5 1 -0.6
v 0.7 1 -0.6
v -0.7 1.2 0.6
v -0.5 1.2 0.6
v -0.7 1.2 0.4
v -0.5 1.2 0.4
v -0.3 1.2 0.4
v -0.5 1.2 0.2
v -0.3 1.2 0.2
v 0.3 1.2 -0.4
v 0.5 1.2 -0.4
v 0.3 1.2 -0.6
v 0.5 1.2 -0.6
v -0.7 1.4 0.4
v -0.5 1.4 0.4
v -0.7 1.4 0.2
v -0.5 1.4 0.2
v -0.3 1.4 5.96046e-08
v -0.1 1.4 5.96046e-08
v -0.3 1.4 -0.2
v -0.1 1.4 -0.2
v 0.1 1.4 -0.2
v -0.1 1.4 -0.4
v 0.1 1.4 -0.4
v -0.3 1.6 -0.2
v -0.1 1.6 -0.2
v -0.3 1.6 -0.4
v -0.1 1.6 -0.4

# faces
f 5/1/1 4/1/1 3/1/1
f 6/2/1 2/2/1 1/2/1
f 7/2/1 2/2/1 6/2/1
f 8/1/1 5/1/1 3/1/1
f 9/2/1 6/2/1 5/2/1
f 9/1/1 5/1/1 8/1/1
f 10/2/1 6/2/1 9/2/1
f 11/1/1 10/1/1 9/1/1
f 12/1/1 10/1/1 11/1/1
f 15/2/1 14/2/1 13/2/1
f 16/2/1 14/2/1 15/2/1
f 19/1/1 18/1/1 17/1/1
f 20/1/1 18/1/1 19/1/1
f 23/2/1 22/2/1 21/2/1
f 24/2/1 22/2/1 23/2/1
f 27/2/1 26/2/1 25/2/1
f 28/2/1 26/2/1 27/2/1
f 31/2/1 29/2/1 28/2/1
f 32/1/1 31/1/1 30/1/1
f 33/2/1 29/2/1 31/2/1
f 33/1/1 31/1/1 32/1/1
f 34/2/1 29/2/1 33/2/1
f 35/1/1 34/1/1 33/1/1
f 36/1/1 34/1/1 35/1/1
f 39/2/1 38/2/1 37/2/1
f 40/2/1 38/2/1 39/2/1
f 41/2/1 38/2/1 40/2/1
f 44/2/1 43/2/1 42/2/1
f 45/2/1 43/2/1 44/2/1
f 47/1/1 45/1/1 44/1/1
f 48/2/1 46/2/1 45/2/1
f 48/1/1 45/1/1 47/1/1
f 49/2/1 46/2/1 48/2/1
f 50/1/1 49/1/1 48/1/1
f 51/1/1 49/1/1 50/1/1
f 52/2/2 53/2/2 56/2/2
f 56/2/2 53/2/2 57/2/2
f 57/2/2 53/2/2 58/2/2
f 54/1/2 55/1/2 59/1/2
f 59/1/2 55/1/2 60/1/2
f 60/1/2 61/1/2 62/1/2
f 62/1/2 61/1/2 63/1/2
f 64/2/2 65/2/2 66/2/2
f 66/2/2 65/2/2 67/2/2
f 68/1/2 69/1/2 70/1/2
f 70/1/2 69/1/2 71/1/2
f 72/2/2 73/2/2 74/2/2
f 74/2/2 73/2/2 75/2/2
f 76/2/2 77/2/2 79/2/2
f 79/2/2 77/2/2 80/2/2
f 78/1/2 79/1/2 81/1/2
f 81/1/2 79/1/2 82/1/2
f 82/1/2 83/1/2 84/1/2
f 84/1/2 83/1/2 85/1/2
f 86/2/2 87/2/2 88/2/2
f 88/2/2 87/2/2 89/2/2
f 90/1/2 91/1/2 92/1/2
f 92/1/2 91/1/2 93/1/2
f 94/2/2 95/2/2 96/2/2
f 96/2/2 95/2/2 97/2/2
f 97/2/2 95/2/2 98/2/2
f 99/2/2 100/2/2 101/2/2
f 101/2/2 100/2/2 102/2/2
f 102/2/2 103/2/2 104/2/2
f 104/2/2 103/2/2 105/2/2
f 104/1/2 105/1/2 106/1/2
f 106/1/2 105/1/2 107/1/2
f 107/1/2 108/1/2 109/1/2
f 109/1/2 108/1/2 110/1/2
f 111/1/2 112/1/2 113/1/2
f 113/1/2 112/1/2 114/1/2
f 117/1/3 116/1/3 115/1/3
f 118/1/3 116/1/3 117/1/3
f 122/1/3 120/1/3 119/1/3
f 123/1/3 120/1/3 122/1/3
f 124/1/3 122/1/3 121/1/3
f 125/1/3 122/1/3 124/1/3
f 129/2/3 127/2/3 126/2/3
f 130/2/3 127/2/3 129/2/3
f 131/2/3 127/2/3 130/2/3
f 133/2/3 129/2/3 128/2/3
f 134/2/3 129/2/3 133/2/3
f 135/2/3 133/2/3 132/2/3
f 136/2/3 133/2/3 135/2/3
f 137/2/3 135/2/3 132/2/3
f 138/2/3 135/2/3 137/2/3
f 145/2/3 140/2/3 139/2/3
f 146/1/3 142/1/3 141/1/3
f 147/1/3 142/1/3 146/1/3
f 148/2/3 144/2/3 143/2/3
f 148/2/3 145/2/3 144/2/3
f 149/2/3 140/2/3 145/2/3
f 149/2/3 145/2/3 148/2/3
f 150/2/3 148/2/3 143/2/3
f 151/2/3 148/2/3 150/2/3
f 152/2/3 148/2/3 151/2/3
f 157/2/3 154/2/3 153/2/3
f 158/2/3 154/2/3 157/2/3
f 159/1/3 156/1/3 155/1/3
f 160/1/3 156/1/3 159/1/3
f 161/1/3 159/1/3 158/1/3
f 162/1/3 159/1/3 161/1/3
f 166/2/3 164/2/3 163/2/3
f 167/1/3 165/1/3 164/1/3
f 167/2/3 164/2/3 166/2/3
f 168/1/3 165/1/3 167/1/3
f 172/1/3 170/1/3 169/1/3
f 173/1/3 170/1/3 172/1/3
f 174/1/3 172/1/3 171/1/3
f 175/1/3 172/1/3 174/1/3
f 176/1/4 177/1/4 178/1/4
f 178/1/4 177/1/4 179/1/4
f 180/2/4 181/2/4 184/2/4
f 181/1/4 182/1/4 185/1/4
f 184/2/4 181/2/4 185/2/4
f 185/1/4 182/1/4 186/1/4
f 183/1/4 184/1/4 187/1/4
f 184/1/4 185/1/4 187/1/4
f 187/1/4 185/1/4 188/1/4
f 189/2/4 190/2/4 192/2/4
f 192/2/4 190/2/4 193/2/4
f 191/2/4 192/2/4 195/2/4
f 195/2/4 192/2/4 196/2/4
f 194/2/4 195/2/4 197/2/4
f 197/2/4 195/2/4 198/2/4
f 199/2/4 200/2/4 202/2/4
f 202/2/4 200/2/4 203/2/4
f 201/2/4 202/2/4 204/2/4
f 202/2/4 203/2/4 204/2/4
f 204/2/4 203/2/4 205/2/4
f 201/2/4 204/2/4 206/2/4
f 206/2/4 204/2/4 207/2/4
f 207/2/4 204/2/4 208/2/4
f 207/2/4 208/2/4 209/2/4
f 209/2/4 208/2/4 210/2/4
f 211/2/4 212/2/4 214/2/4
f 214/2/4 212/2/4 215/2/4
f 212/1/4 213/1/4 216/1/4
f 215/2/4 212/2/4 216/2/4
f 216/1/4 213/1/4 217/1/4
f 215/1/4 216/1/4 218/1/4
f 218/1/4 216/1/4 219/1/4
f 220/2/4 221/2/4 222/2/4
f 222/2/4 221/2/4 223/2/4
f 224/2/4 225/2/4 227/2/4
f 225/1/4 226/1/4 228/1/4
f 227/2/4 225/2/4 228/2/4
f 228/1/4 226/1/4 229/1/4
f 227/1/4 228/1/4 230/1/4
f 230/1/4 228/1/4 231/1/4
f 234/2/5 233/2/5 232/2/5
f 235/2/5 233/2/5 234/2/5
f 236/2/5 233/2/5 235/2/5
f 237/2/5 233/2/5 236/2/5
f 240/2/5 239/2/5 238/2/5
f 241/2/5 239/2/5 240/2/5
f 244/2/5 243/2/5 242/2/5
f 245/2/5 243/2/5 244/2/5
f 248/2/5 247/2/5 246/2/5
f 249/2/5 247/2/5 248/2/5
f 252/2/5 251/2/5 250/2/5
f 253/2/5 251/2/5 252/2/5
f 256/2/5 255/2/5 254/2/5
f 257/2/5 255/2/5 256/2/5
f 261/2/5 259/2/5 258/2/5
f 262/1/5 260/1/5 259/1/5
f 262/2/5 259/2/5 261/2/5
f 263/1/5 260/1/5 262/1/5
f 266/1/5 265/1/5 264/1/5
f 267/1/5 265/1/5 266/1/5
f 269/1/5 268/1/5 267/1/5
f 270/1/5 268/1/5 269/1/5
f 273/2/5 272/2/5 271/2/5
f 274/2/5 272/2/5 273/2/5
f 277/2/5 276/2/5 275/2/5
f 278/2/5 276/2/5 277/2/5
f 281/1/5 280/1/5 279/1/5
f 282/1/5 280/1/5 281/1/5
f 284/1/5 283/1/5 282/1/5
f 285/1/5 283/1/5 284/1/5
f 286/2/6 287/2/6 288/2/6
f 288/2/6 287/2/6 289/2/6
f 290/2/6 291/2/6 292/2/6
f 292/2/6 291/2/6 293/2/6
f 294/2/6 295/2/6 296/2/6
f 296/2/6 295/2/6 297/2/6
f 297/2/6 295/2/6 298/2/6
f 299/2/6 300/2/6 301/2/6
f 301/2/6 300/2/6 302/2/6
f 303/2/6 304/2/6 305/2/6
f 305/2/6 304/2/6 306/2/6
f 306/2/6 304/2/6 307/2/6
f 308/2/6 309/2/6 310/2/6
f 310/2/6 309/2/6 311/2/6
f 312/1/6 313/1/6 314/1/6
f 314/1/6 313/1/6 315/1/6
f 315/1/6 316/1/6 317/1/6
f 317/1/6 316/1/6 318/1/6
f 319/1/6 320/1/6 321/1/6
f 321/1/6 320/1/6 322/1/6
f 322/1/6 323/1/6 324/1/6
f 324/1/6 323/1/6 325/1/6
f 326/1/6 327/1/6 328/1/6
f 328/1/6 327/1/6 329/1/6
f 330/1/6 331/1/6 332/1/6
f 332/1/6 331/1/6 333/1/6
f 334/1/6 335/1/6 336/1/6
f 336/1/6 335/1/6 337/1/6
f 337/1/6 338/1/6 339/1/6
f 339/1/6 338/1/6 340/1/6
f 341/1/6 342/1/6 343/1/6
f 343/1/6 342/1/6 344/1/6
