# MagicaVoxel @ Ephtracy

# group
o 

# material
mtllib DryBrownFloor_2.mtl
usemtl palette

# normals
vn -1 0 0
vn 1 0 0
vn 0 0 1
vn 0 0 -1
vn 0 -1 0
vn 0 1 0

# texcoords
vt 0.939453 0.5
vt 0.943359 0.5
vt 0.978516 0.5
vt 0.982422 0.5

# verts
v -0.5 -0.5 0.5
v -0.5 -0.5 0.3
v -0.5 -0.5 0.1
v -0.5 -0.5 -0.1
v -0.5 -0.5 -0.3
v -0.5 -0.5 -0.5
v -0.5 -0.3 0.5
v -0.5 -0.3 0.3
v -0.5 -0.3 0.1
v -0.5 -0.3 -0.1
v -0.5 -0.3 -0.3
v -0.5 -0.3 -0.5
v -0.5 -0.1 0.5
v -0.5 -0.1 0.3
v -0.5 -0.1 0.1
v -0.5 -0.1 -0.1
v -0.5 -0.1 -0.3
v -0.5 -0.1 -0.5
v -0.5 0.3 0.5
v -0.5 0.3 0.3
v -0.5 0.3 0.1
v -0.5 0.3 -0.1
v -0.5 0.3 -0.3
v -0.5 0.3 -0.5
v -0.5 0.4 0.5
v -0.5 0.4 0.3
v -0.5 0.4 0.1
v -0.5 0.4 -0.1
v -0.5 0.4 -0.3
v -0.5 0.4 -0.5
v -0.3 0.4 0.1
v -0.3 0.4 -0.1
v -0.3 0.5 0.1
v -0.3 0.5 -0.1
v -0.2 0.4 0.2
v -0.2 0.4 0.1
v -0.2 0.4 -0.1
v -0.2 0.4 -0.2
v -0.2 0.5 0.2
v -0.2 0.5 0.1
v -0.2 0.5 -0.1
v -0.2 0.5 -0.2
v -0.2 0.6 0.1
v -0.2 0.6 -0.1
v -0.1 0.4 0.3
v -0.1 0.4 0.2
v -0.1 0.4 -0.2
v -0.1 0.4 -0.3
v -0.1 0.5 0.3
v -0.1 0.5 0.2
v -0.1 0.5 0.1
v -0.1 0.5 -0.1
v -0.1 0.5 -0.2
v -0.1 0.5 -0.3
v -0.1 0.6 0.2
v -0.1 0.6 0.1
v -0.1 0.6 -0.1
v -0.1 0.6 -0.2
v 0.1 0.4 0.1
v 0.1 0.4 -0.1
v 0.1 0.6 0.1
v 0.1 0.6 -0.1
v 0.4 -0.4 0.4
v 0.4 -0.4 0.3
v 0.4 -0.4 0.1
v 0.4 -0.4 -0.1
v 0.4 -0.4 -0.3
v 0.4 -0.4 -0.4
v 0.4 -0.3 0.4
v 0.4 -0.3 0.3
v 0.4 -0.3 0.1
v 0.4 -0.3 -0.1
v 0.4 -0.3 -0.3
v 0.4 -0.3 -0.4
v 0.4 -0.1 0.4
v 0.4 -0.1 0.3
v 0.4 -0.1 0.1
v 0.4 -0.1 -0.1
v 0.4 -0.1 -0.3
v 0.4 -0.1 -0.4
v 0.4 0.3 0.4
v 0.4 0.3 0.3
v 0.4 0.3 0.1
v 0.4 0.3 -0.1
v 0.4 0.3 -0.3
v 0.4 0.3 -0.4
v -0.4 -0.4 0.4
v -0.4 -0.4 0.3
v -0.4 -0.4 0.1
v -0.4 -0.4 -0.1
v -0.4 -0.4 -0.3
v -0.4 -0.4 -0.4
v -0.4 -0.3 0.4
v -0.4 -0.3 0.3
v -0.4 -0.3 0.1
v -0.4 -0.3 -0.1
v -0.4 -0.3 -0.3
v -0.4 -0.3 -0.4
v -0.4 -0.1 0.4
v -0.4 -0.1 0.3
v -0.4 -0.1 0.1
v -0.4 -0.1 -0.1
v -0.4 -0.1 -0.3
v -0.4 -0.1 -0.4
v -0.4 0.3 0.4
v -0.4 0.3 0.3
v -0.4 0.3 0.1
v -0.4 0.3 -0.1
v -0.4 0.3 -0.3
v -0.4 0.3 -0.4
v -0.1 0.4 0.1
v -0.1 0.4 -0.1
v -0.1 0.6 0.1
v -0.1 0.6 -0.1
v 0.1 0.4 0.3
v 0.1 0.4 0.2
v 0.1 0.4 -0.2
v 0.1 0.4 -0.3
v 0.1 0.5 0.3
v 0.1 0.5 0.2
v 0.1 0.5 0.1
v 0.1 0.5 -0.1
v 0.1 0.5 -0.2
v 0.1 0.5 -0.3
v 0.1 0.6 0.2
v 0.1 0.6 0.1
v 0.1 0.6 -0.1
v 0.1 0.6 -0.2
v 0.2 0.4 0.2
v 0.2 0.4 0.1
v 0.2 0.4 -0.1
v 0.2 0.4 -0.2
v 0.2 0.5 0.2
v 0.2 0.5 0.1
v 0.2 0.5 -0.1
v 0.2 0.5 -0.2
v 0.2 0.6 0.1
v 0.2 0.6 -0.1
v 0.3 0.4 0.1
v 0.3 0.4 -0.1
v 0.3 0.5 0.1
v 0.3 0.5 -0.1
v 0.5 -0.5 0.5
v 0.5 -0.5 0.3
v 0.5 -0.5 0.1
v 0.5 -0.5 -0.1
v 0.5 -0.5 -0.3
v 0.5 -0.5 -0.5
v 0.5 -0.3 0.5
v 0.5 -0.3 0.3
v 0.5 -0.3 0.1
v 0.5 -0.3 -0.1
v 0.5 -0.3 -0.3
v 0.5 -0.3 -0.5
v 0.5 -0.1 0.5
v 0.5 -0.1 0.3
v 0.5 -0.1 0.1
v 0.5 -0.1 -0.1
v 0.5 -0.1 -0.3
v 0.5 -0.1 -0.5
v 0.5 0.3 0.5
v 0.5 0.3 0.3
v 0.5 0.3 0.1
v 0.5 0.3 -0.1
v 0.5 0.3 -0.3
v 0.5 0.3 -0.5
v 0.5 0.4 0.5
v 0.5 0.4 0.3
v 0.5 0.4 0.1
v 0.5 0.4 -0.1
v 0.5 0.4 -0.3
v 0.5 0.4 -0.5
v -0.5 -0.5 0.5
v -0.5 -0.3 0.5
v -0.5 -0.1 0.5
v -0.5 0.3 0.5
v -0.5 0.4 0.5
v -0.3 -0.5 0.5
v -0.3 -0.3 0.5
v -0.3 -0.1 0.5
v -0.1 -0.5 0.5
v -0.1 -0.3 0.5
v -0.1 -0.1 0.5
v 0.1 -0.5 0.5
v 0.1 -0.3 0.5
v 0.1 -0.1 0.5
v 0.3 -0.5 0.5
v 0.3 -0.3 0.5
v 0.3 -0.1 0.5
v 0.5 -0.5 0.5
v 0.5 -0.3 0.5
v 0.5 -0.1 0.5
v 0.5 0.3 0.5
v 0.5 0.4 0.5
v -0.1 0.4 0.3
v -0.1 0.5 0.3
v 0.1 0.4 0.3
v 0.1 0.5 0.3
v -0.2 0.4 0.2
v -0.2 0.5 0.2
v -0.1 0.4 0.2
v -0.1 0.5 0.2
v -0.1 0.6 0.2
v 0.1 0.4 0.2
v 0.1 0.5 0.2
v 0.1 0.6 0.2
v 0.2 0.4 0.2
v 0.2 0.5 0.2
v -0.3 0.4 0.1
v -0.3 0.5 0.1
v -0.2 0.4 0.1
v -0.2 0.5 0.1
v -0.2 0.6 0.1
v -0.1 0.5 0.1
v -0.1 0.6 0.1
v 0.1 0.5 0.1
v 0.1 0.6 0.1
v 0.2 0.4 0.1
v 0.2 0.5 0.1
v 0.2 0.6 0.1
v 0.3 0.4 0.1
v 0.3 0.5 0.1
v -0.1 0.4 -0.1
v -0.1 0.6 -0.1
v 0.1 0.4 -0.1
v 0.1 0.6 -0.1
v -0.4 -0.4 -0.4
v -0.4 -0.3 -0.4
v -0.4 -0.1 -0.4
v -0.4 0.3 -0.4
v -0.3 -0.4 -0.4
v -0.3 -0.3 -0.4
v -0.3 -0.1 -0.4
v -0.1 -0.4 -0.4
v -0.1 -0.3 -0.4
v -0.1 -0.1 -0.4
v 0.1 -0.4 -0.4
v 0.1 -0.3 -0.4
v 0.1 -0.1 -0.4
v 0.3 -0.4 -0.4
v 0.3 -0.3 -0.4
v 0.3 -0.1 -0.4
v 0.4 -0.4 -0.4
v 0.4 -0.3 -0.4
v 0.4 -0.1 -0.4
v 0.4 0.3 -0.4
v -0.4 -0.4 0.4
v -0.4 -0.3 0.4
v -0.4 -0.1 0.4
v -0.4 0.3 0.4
v -0.3 -0.4 0.4
v -0.3 -0.3 0.4
v -0.3 -0.1 0.4
v -0.1 -0.4 0.4
v -0.1 -0.3 0.4
v -0.1 -0.1 0.4
v 0.1 -0.4 0.4
v 0.1 -0.3 0.4
v 0.1 -0.1 0.4
v 0.3 -0.4 0.4
v 0.3 -0.3 0.4
v 0.3 -0.1 0.4
v 0.4 -0.4 0.4
v 0.4 -0.3 0.4
v 0.4 -0.1 0.4
v 0.4 0.3 0.4
v -0.1 0.4 0.1
v -0.1 0.6 0.1
v 0.1 0.4 0.1
v 0.1 0.6 0.1
v -0.3 0.4 -0.1
v -0.3 0.5 -0.1
v -0.2 0.4 -0.1
v -0.2 0.5 -0.1
v -0.2 0.6 -0.1
v -0.1 0.5 -0.1
v -0.1 0.6 -0.1
v 0.1 0.5 -0.1
v 0.1 0.6 -0.1
v 0.2 0.4 -0.1
v 0.2 0.5 -0.1
v 0.2 0.6 -0.1
v 0.3 0.4 -0.1
v 0.3 0.5 -0.1
v -0.2 0.4 -0.2
v -0.2 0.5 -0.2
v -0.1 0.4 -0.2
v -0.1 0.5 -0.2
v -0.1 0.6 -0.2
v 0.1 0.4 -0.2
v 0.1 0.5 -0.2
v 0.1 0.6 -0.2
v 0.2 0.4 -0.2
v 0.2 0.5 -0.2
v -0.1 0.4 -0.3
v -0.1 0.5 -0.3
v 0.1 0.4 -0.3
v 0.1 0.5 -0.3
v -0.5 -0.5 -0.5
v -0.5 -0.3 -0.5
v -0.5 -0.1 -0.5
v -0.5 0.3 -0.5
v -0.5 0.4 -0.5
v -0.3 -0.5 -0.5
v -0.3 -0.3 -0.5
v -0.3 -0.1 -0.5
v -0.1 -0.5 -0.5
v -0.1 -0.3 -0.5
v -0.1 -0.1 -0.5
v 0.1 -0.5 -0.5
v 0.1 -0.3 -0.5
v 0.1 -0.1 -0.5
v 0.3 -0.5 -0.5
v 0.3 -0.3 -0.5
v 0.3 -0.1 -0.5
v 0.5 -0.5 -0.5
v 0.5 -0.3 -0.5
v 0.5 -0.1 -0.5
v 0.5 0.3 -0.5
v 0.5 0.4 -0.5
v -0.5 -0.5 0.5
v -0.3 -0.5 0.5
v -0.1 -0.5 0.5
v 0.1 -0.5 0.5
v 0.3 -0.5 0.5
v 0.5 -0.5 0.5
v -0.4 -0.5 0.4
v -0.3 -0.5 0.4
v -0.1 -0.5 0.4
v 0.1 -0.5 0.4
v 0.3 -0.5 0.4
v 0.4 -0.5 0.4
v -0.5 -0.5 0.3
v -0.4 -0.5 0.3
v 0.4 -0.5 0.3
v 0.5 -0.5 0.3
v -0.5 -0.5 0.1
v -0.4 -0.5 0.1
v 0.4 -0.5 0.1
v 0.5 -0.5 0.1
v -0.5 -0.5 -0.1
v -0.4 -0.5 -0.1
v 0.4 -0.5 -0.1
v 0.5 -0.5 -0.1
v -0.5 -0.5 -0.3
v -0.4 -0.5 -0.3
v 0.4 -0.5 -0.3
v 0.5 -0.5 -0.3
v -0.4 -0.5 -0.4
v -0.3 -0.5 -0.4
v -0.1 -0.5 -0.4
v 0.1 -0.5 -0.4
v 0.3 -0.5 -0.4
v 0.4 -0.5 -0.4
v -0.5 -0.5 -0.5
v -0.3 -0.5 -0.5
v -0.1 -0.5 -0.5
v 0.1 -0.5 -0.5
v 0.3 -0.5 -0.5
v 0.5 -0.5 -0.5
v -0.4 0.3 0.4
v 0.4 0.3 0.4
v -0.4 0.3 0.3
v 0.4 0.3 0.3
v -0.4 0.3 0.1
v 0.4 0.3 0.1
v -0.4 0.3 -0.1
v 0.4 0.3 -0.1
v -0.4 0.3 -0.3
v 0.4 0.3 -0.3
v -0.4 0.3 -0.4
v 0.4 0.3 -0.4
v -0.4 -0.4 0.4
v -0.3 -0.4 0.4
v -0.1 -0.4 0.4
v 0.1 -0.4 0.4
v 0.3 -0.4 0.4
v 0.4 -0.4 0.4
v -0.4 -0.4 0.3
v 0.4 -0.4 0.3
v -0.4 -0.4 0.1
v 0.4 -0.4 0.1
v -0.4 -0.4 -0.1
v 0.4 -0.4 -0.1
v -0.4 -0.4 -0.3
v 0.4 -0.4 -0.3
v -0.4 -0.4 -0.4
v -0.3 -0.4 -0.4
v -0.1 -0.4 -0.4
v 0.1 -0.4 -0.4
v 0.3 -0.4 -0.4
v 0.4 -0.4 -0.4
v -0.5 0.4 0.5
v 0.5 0.4 0.5
v -0.5 0.4 0.3
v -0.1 0.4 0.3
v 0.1 0.4 0.3
v 0.5 0.4 0.3
v -0.2 0.4 0.2
v -0.1 0.4 0.2
v 0.1 0.4 0.2
v 0.2 0.4 0.2
v -0.5 0.4 0.1
v -0.3 0.4 0.1
v -0.2 0.4 0.1
v -0.1 0.4 0.1
v 0.1 0.4 0.1
v 0.2 0.4 0.1
v 0.3 0.4 0.1
v 0.5 0.4 0.1
v -0.5 0.4 -0.1
v -0.3 0.4 -0.1
v -0.2 0.4 -0.1
v -0.1 0.4 -0.1
v 0.1 0.4 -0.1
v 0.2 0.4 -0.1
v 0.3 0.4 -0.1
v 0.5 0.4 -0.1
v -0.2 0.4 -0.2
v -0.1 0.4 -0.2
v 0.1 0.4 -0.2
v 0.2 0.4 -0.2
v -0.5 0.4 -0.3
v -0.1 0.4 -0.3
v 0.1 0.4 -0.3
v 0.5 0.4 -0.3
v -0.5 0.4 -0.5
v 0.5 0.4 -0.5
v -0.1 0.5 0.3
v 0.1 0.5 0.3
v -0.2 0.5 0.2
v -0.1 0.5 0.2
v 0.1 0.5 0.2
v 0.2 0.5 0.2
v -0.3 0.5 0.1
v -0.2 0.5 0.1
v -0.1 0.5 0.1
v 0.1 0.5 0.1
v 0.2 0.5 0.1
v 0.3 0.5 0.1
v -0.3 0.5 -0.1
v -0.2 0.5 -0.1
v -0.1 0.5 -0.1
v 0.1 0.5 -0.1
v 0.2 0.5 -0.1
v 0.3 0.5 -0.1
v -0.2 0.5 -0.2
v -0.1 0.5 -0.2
v 0.1 0.5 -0.2
v 0.2 0.5 -0.2
v -0.1 0.5 -0.3
v 0.1 0.5 -0.3
v -0.1 0.6 0.2
v 0.1 0.6 0.2
v -0.2 0.6 0.1
v -0.1 0.6 0.1
v 0.1 0.6 0.1
v 0.2 0.6 0.1
v -0.2 0.6 -0.1
v -0.1 0.6 -0.1
v 0.1 0.6 -0.1
v 0.2 0.6 -0.1
v -0.1 0.6 -0.2
v 0.1 0.6 -0.2

# faces
f 7/4/1 2/4/1 1/4/1
f 8/3/1 3/3/1 2/3/1
f 8/4/1 2/4/1 7/4/1
f 9/4/1 4/4/1 3/4/1
f 9/3/1 3/3/1 8/3/1
f 10/3/1 5/3/1 4/3/1
f 10/4/1 4/4/1 9/4/1
f 11/4/1 6/4/1 5/4/1
f 11/3/1 5/3/1 10/3/1
f 12/4/1 6/4/1 11/4/1
f 13/3/1 8/3/1 7/3/1
f 14/4/1 9/4/1 8/4/1
f 14/3/1 8/3/1 13/3/1
f 15/3/1 10/3/1 9/3/1
f 15/4/1 9/4/1 14/4/1
f 16/4/1 11/4/1 10/4/1
f 16/3/1 10/3/1 15/3/1
f 17/3/1 12/3/1 11/3/1
f 17/4/1 11/4/1 16/4/1
f 18/3/1 12/3/1 17/3/1
f 19/1/1 14/1/1 13/1/1
f 19/1/1 15/1/1 14/1/1
f 19/1/1 18/1/1 17/1/1
f 19/1/1 17/1/1 16/1/1
f 19/1/1 16/1/1 15/1/1
f 20/1/1 18/1/1 19/1/1
f 21/1/1 18/1/1 20/1/1
f 22/1/1 18/1/1 21/1/1
f 23/1/1 18/1/1 22/1/1
f 24/1/1 18/1/1 23/1/1
f 25/2/1 20/2/1 19/2/1
f 26/1/1 21/1/1 20/1/1
f 26/2/1 20/2/1 25/2/1
f 27/2/1 22/2/1 21/2/1
f 27/1/1 21/1/1 26/1/1
f 28/1/1 23/1/1 22/1/1
f 28/2/1 22/2/1 27/2/1
f 29/2/1 24/2/1 23/2/1
f 29/1/1 23/1/1 28/1/1
f 30/2/1 24/2/1 29/2/1
f 33/2/1 32/2/1 31/2/1
f 34/2/1 32/2/1 33/2/1
f 39/2/1 36/2/1 35/2/1
f 40/2/1 36/2/1 39/2/1
f 41/2/1 38/2/1 37/2/1
f 42/2/1 38/2/1 41/2/1
f 43/2/1 41/2/1 40/2/1
f 44/2/1 41/2/1 43/2/1
f 49/2/1 46/2/1 45/2/1
f 50/2/1 46/2/1 49/2/1
f 53/2/1 48/2/1 47/2/1
f 54/2/1 48/2/1 53/2/1
f 55/2/1 51/2/1 50/2/1
f 56/2/1 51/2/1 55/2/1
f 57/2/1 53/2/1 52/2/1
f 58/2/1 53/2/1 57/2/1
f 61/2/1 60/2/1 59/2/1
f 62/2/1 60/2/1 61/2/1
f 69/4/1 64/4/1 63/4/1
f 70/3/1 65/3/1 64/3/1
f 70/4/1 64/4/1 69/4/1
f 71/4/1 66/4/1 65/4/1
f 71/3/1 65/3/1 70/3/1
f 72/3/1 67/3/1 66/3/1
f 72/4/1 66/4/1 71/4/1
f 73/4/1 68/4/1 67/4/1
f 73/3/1 67/3/1 72/3/1
f 74/4/1 68/4/1 73/4/1
f 75/3/1 70/3/1 69/3/1
f 76/4/1 71/4/1 70/4/1
f 76/3/1 70/3/1 75/3/1
f 77/3/1 72/3/1 71/3/1
f 77/4/1 71/4/1 76/4/1
f 78/4/1 73/4/1 72/4/1
f 78/3/1 72/3/1 77/3/1
f 79/3/1 74/3/1 73/3/1
f 79/4/1 73/4/1 78/4/1
f 80/3/1 74/3/1 79/3/1
f 81/1/1 76/1/1 75/1/1
f 81/1/1 77/1/1 76/1/1
f 81/1/1 80/1/1 79/1/1
f 81/1/1 79/1/1 78/1/1
f 81/1/1 78/1/1 77/1/1
f 82/1/1 80/1/1 81/1/1
f 83/1/1 80/1/1 82/1/1
f 84/1/1 80/1/1 83/1/1
f 85/1/1 80/1/1 84/1/1
f 86/1/1 80/1/1 85/1/1
f 87/4/2 88/4/2 93/4/2
f 88/3/2 89/3/2 94/3/2
f 93/4/2 88/4/2 94/4/2
f 89/4/2 90/4/2 95/4/2
f 94/3/2 89/3/2 95/3/2
f 90/3/2 91/3/2 96/3/2
f 95/4/2 90/4/2 96/4/2
f 91/4/2 92/4/2 97/4/2
f 96/3/2 91/3/2 97/3/2
f 97/4/2 92/4/2 98/4/2
f 93/3/2 94/3/2 99/3/2
f 94/4/2 95/4/2 100/4/2
f 99/3/2 94/3/2 100/3/2
f 95/3/2 96/3/2 101/3/2
f 100/4/2 95/4/2 101/4/2
f 96/4/2 97/4/2 102/4/2
f 101/3/2 96/3/2 102/3/2
f 97/3/2 98/3/2 103/3/2
f 102/4/2 97/4/2 103/4/2
f 103/3/2 98/3/2 104/3/2
f 99/1/2 100/1/2 105/1/2
f 100/1/2 101/1/2 105/1/2
f 103/1/2 104/1/2 105/1/2
f 102/1/2 103/1/2 105/1/2
f 101/1/2 102/1/2 105/1/2
f 105/1/2 104/1/2 106/1/2
f 106/1/2 104/1/2 107/1/2
f 107/1/2 104/1/2 108/1/2
f 108/1/2 104/1/2 109/1/2
f 109/1/2 104/1/2 110/1/2
f 111/2/2 112/2/2 113/2/2
f 113/2/2 112/2/2 114/2/2
f 115/2/2 116/2/2 119/2/2
f 119/2/2 116/2/2 120/2/2
f 117/2/2 118/2/2 123/2/2
f 123/2/2 118/2/2 124/2/2
f 120/2/2 121/2/2 125/2/2
f 125/2/2 121/2/2 126/2/2
f 122/2/2 123/2/2 127/2/2
f 127/2/2 123/2/2 128/2/2
f 129/2/2 130/2/2 133/2/2
f 133/2/2 130/2/2 134/2/2
f 131/2/2 132/2/2 135/2/2
f 135/2/2 132/2/2 136/2/2
f 134/2/2 135/2/2 137/2/2
f 137/2/2 135/2/2 138/2/2
f 139/2/2 140/2/2 141/2/2
f 141/2/2 140/2/2 142/2/2
f 143/4/2 144/4/2 149/4/2
f 144/3/2 145/3/2 150/3/2
f 149/4/2 144/4/2 150/4/2
f 145/4/2 146/4/2 151/4/2
f 150/3/2 145/3/2 151/3/2
f 146/3/2 147/3/2 152/3/2
f 151/4/2 146/4/2 152/4/2
f 147/4/2 148/4/2 153/4/2
f 152/3/2 147/3/2 153/3/2
f 153/4/2 148/4/2 154/4/2
f 149/3/2 150/3/2 155/3/2
f 150/4/2 151/4/2 156/4/2
f 155/3/2 150/3/2 156/3/2
f 151/3/2 152/3/2 157/3/2
f 156/4/2 151/4/2 157/4/2
f 152/4/2 153/4/2 158/4/2
f 157/3/2 152/3/2 158/3/2
f 153/3/2 154/3/2 159/3/2
f 158/4/2 153/4/2 159/4/2
f 159/3/2 154/3/2 160/3/2
f 155/1/2 156/1/2 161/1/2
f 156/1/2 157/1/2 161/1/2
f 159/1/2 160/1/2 161/1/2
f 158/1/2 159/1/2 161/1/2
f 157/1/2 158/1/2 161/1/2
f 161/1/2 160/1/2 162/1/2
f 162/1/2 160/1/2 163/1/2
f 163/1/2 160/1/2 164/1/2
f 164/1/2 160/1/2 165/1/2
f 165/1/2 160/1/2 166/1/2
f 161/2/2 162/2/2 167/2/2
f 162/1/2 163/1/2 168/1/2
f 167/2/2 162/2/2 168/2/2
f 163/2/2 164/2/2 169/2/2
f 168/1/2 163/1/2 169/1/2
f 164/1/2 165/1/2 170/1/2
f 169/2/2 164/2/2 170/2/2
f 165/2/2 166/2/2 171/2/2
f 170/1/2 165/1/2 171/1/2
f 171/2/2 166/2/2 172/2/2
f 178/4/3 174/4/3 173/4/3
f 179/3/3 175/3/3 174/3/3
f 179/4/3 174/4/3 178/4/3
f 180/1/3 176/1/3 175/1/3
f 180/3/3 175/3/3 179/3/3
f 181/3/3 179/3/3 178/3/3
f 182/4/3 180/4/3 179/4/3
f 182/3/3 179/3/3 181/3/3
f 183/1/3 176/1/3 180/1/3
f 183/4/3 180/4/3 182/4/3
f 184/4/3 182/4/3 181/4/3
f 185/3/3 183/3/3 182/3/3
f 185/4/3 182/4/3 184/4/3
f 186/1/3 176/1/3 183/1/3
f 186/3/3 183/3/3 185/3/3
f 187/3/3 185/3/3 184/3/3
f 188/4/3 186/4/3 185/4/3
f 188/3/3 185/3/3 187/3/3
f 189/1/3 176/1/3 186/1/3
f 189/4/3 186/4/3 188/4/3
f 190/4/3 188/4/3 187/4/3
f 191/3/3 189/3/3 188/3/3
f 191/4/3 188/4/3 190/4/3
f 192/1/3 176/1/3 189/1/3
f 192/3/3 189/3/3 191/3/3
f 193/2/3 177/2/3 176/2/3
f 193/1/3 176/1/3 192/1/3
f 194/2/3 177/2/3 193/2/3
f 197/2/3 196/2/3 195/2/3
f 198/2/3 196/2/3 197/2/3
f 201/2/3 200/2/3 199/2/3
f 202/2/3 200/2/3 201/2/3
f 205/2/3 203/2/3 202/2/3
f 206/2/3 203/2/3 205/2/3
f 207/2/3 205/2/3 204/2/3
f 208/2/3 205/2/3 207/2/3
f 211/2/3 210/2/3 209/2/3
f 212/2/3 210/2/3 211/2/3
f 214/2/3 213/2/3 212/2/3
f 215/2/3 213/2/3 214/2/3
f 219/2/3 217/2/3 216/2/3
f 220/2/3 217/2/3 219/2/3
f 221/2/3 219/2/3 218/2/3
f 222/2/3 219/2/3 221/2/3
f 225/2/3 224/2/3 223/2/3
f 226/2/3 224/2/3 225/2/3
f 231/4/3 228/4/3 227/4/3
f 232/3/3 229/3/3 228/3/3
f 232/4/3 228/4/3 231/4/3
f 233/1/3 230/1/3 229/1/3
f 233/3/3 229/3/3 232/3/3
f 234/3/3 232/3/3 231/3/3
f 235/4/3 233/4/3 232/4/3
f 235/3/3 232/3/3 234/3/3
f 236/1/3 230/1/3 233/1/3
f 236/4/3 233/4/3 235/4/3
f 237/4/3 235/4/3 234/4/3
f 238/3/3 236/3/3 235/3/3
f 238/4/3 235/4/3 237/4/3
f 239/1/3 230/1/3 236/1/3
f 239/3/3 236/3/3 238/3/3
f 240/3/3 238/3/3 237/3/3
f 241/4/3 239/4/3 238/4/3
f 241/3/3 238/3/3 240/3/3
f 242/1/3 230/1/3 239/1/3
f 242/4/3 239/4/3 241/4/3
f 243/4/3 241/4/3 240/4/3
f 244/3/3 242/3/3 241/3/3
f 244/4/3 241/4/3 243/4/3
f 245/1/3 230/1/3 242/1/3
f 245/3/3 242/3/3 244/3/3
f 246/1/3 230/1/3 245/1/3
f 247/4/4 248/4/4 251/4/4
f 248/3/4 249/3/4 252/3/4
f 251/4/4 248/4/4 252/4/4
f 249/1/4 250/1/4 253/1/4
f 252/3/4 249/3/4 253/3/4
f 251/3/4 252/3/4 254/3/4
f 252/4/4 253/4/4 255/4/4
f 254/3/4 252/3/4 255/3/4
f 253/1/4 250/1/4 256/1/4
f 255/4/4 253/4/4 256/4/4
f 254/4/4 255/4/4 257/4/4
f 255/3/4 256/3/4 258/3/4
f 257/4/4 255/4/4 258/4/4
f 256/1/4 250/1/4 259/1/4
f 258/3/4 256/3/4 259/3/4
f 257/3/4 258/3/4 260/3/4
f 258/4/4 259/4/4 261/4/4
f 260/3/4 258/3/4 261/3/4
f 259/1/4 250/1/4 262/1/4
f 261/4/4 259/4/4 262/4/4
f 260/4/4 261/4/4 263/4/4
f 261/3/4 262/3/4 264/3/4
f 263/4/4 261/4/4 264/4/4
f 262/1/4 250/1/4 265/1/4
f 264/3/4 262/3/4 265/3/4
f 265/1/4 250/1/4 266/1/4
f 267/2/4 268/2/4 269/2/4
f 269/2/4 268/2/4 270/2/4
f 271/2/4 272/2/4 273/2/4
f 273/2/4 272/2/4 274/2/4
f 274/2/4 275/2/4 276/2/4
f 276/2/4 275/2/4 277/2/4
f 278/2/4 279/2/4 281/2/4
f 281/2/4 279/2/4 282/2/4
f 280/2/4 281/2/4 283/2/4
f 283/2/4 281/2/4 284/2/4
f 285/2/4 286/2/4 287/2/4
f 287/2/4 286/2/4 288/2/4
f 288/2/4 289/2/4 291/2/4
f 291/2/4 289/2/4 292/2/4
f 290/2/4 291/2/4 293/2/4
f 293/2/4 291/2/4 294/2/4
f 295/2/4 296/2/4 297/2/4
f 297/2/4 296/2/4 298/2/4
f 299/4/4 300/4/4 304/4/4
f 300/3/4 301/3/4 305/3/4
f 304/4/4 300/4/4 305/4/4
f 301/1/4 302/1/4 306/1/4
f 305/3/4 301/3/4 306/3/4
f 304/3/4 305/3/4 307/3/4
f 305/4/4 306/4/4 308/4/4
f 307/3/4 305/3/4 308/3/4
f 306/1/4 302/1/4 309/1/4
f 308/4/4 306/4/4 309/4/4
f 307/4/4 308/4/4 310/4/4
f 308/3/4 309/3/4 311/3/4
f 310/4/4 308/4/4 311/4/4
f 309/1/4 302/1/4 312/1/4
f 311/3/4 309/3/4 312/3/4
f 310/3/4 311/3/4 313/3/4
f 311/4/4 312/4/4 314/4/4
f 313/3/4 311/3/4 314/3/4
f 312/1/4 302/1/4 315/1/4
f 314/4/4 312/4/4 315/4/4
f 313/4/4 314/4/4 316/4/4
f 314/3/4 315/3/4 317/3/4
f 316/4/4 314/4/4 317/4/4
f 315/1/4 302/1/4 318/1/4
f 317/3/4 315/3/4 318/3/4
f 302/2/4 303/2/4 319/2/4
f 318/1/4 302/1/4 319/1/4
f 319/2/4 303/2/4 320/2/4
f 327/4/5 322/4/5 321/4/5
f 328/3/5 323/3/5 322/3/5
f 328/4/5 322/4/5 327/4/5
f 329/4/5 324/4/5 323/4/5
f 329/3/5 323/3/5 328/3/5
f 330/3/5 325/3/5 324/3/5
f 330/4/5 324/4/5 329/4/5
f 331/4/5 326/4/5 325/4/5
f 331/3/5 325/3/5 330/3/5
f 332/4/5 326/4/5 331/4/5
f 333/4/5 327/4/5 321/4/5
f 334/3/5 330/3/5 329/3/5
f 334/4/5 327/4/5 333/4/5
f 334/3/5 328/3/5 327/3/5
f 334/3/5 332/3/5 331/3/5
f 334/3/5 331/3/5 330/3/5
f 334/3/5 329/3/5 328/3/5
f 335/4/5 326/4/5 332/4/5
f 335/3/5 332/3/5 334/3/5
f 336/4/5 326/4/5 335/4/5
f 337/3/5 334/3/5 333/3/5
f 337/3/5 335/3/5 334/3/5
f 337/3/5 336/3/5 335/3/5
f 338/3/5 336/3/5 337/3/5
f 339/3/5 336/3/5 338/3/5
f 340/3/5 336/3/5 339/3/5
f 341/4/5 338/4/5 337/4/5
f 342/3/5 339/3/5 338/3/5
f 342/4/5 338/4/5 341/4/5
f 343/4/5 340/4/5 339/4/5
f 343/3/5 339/3/5 342/3/5
f 344/4/5 340/4/5 343/4/5
f 345/3/5 342/3/5 341/3/5
f 345/3/5 343/3/5 342/3/5
f 345/3/5 344/3/5 343/3/5
f 346/3/5 344/3/5 345/3/5
f 347/3/5 344/3/5 346/3/5
f 348/3/5 344/3/5 347/3/5
f 349/4/5 346/4/5 345/4/5
f 349/3/5 347/3/5 346/3/5
f 350/3/5 347/3/5 349/3/5
f 351/3/5 347/3/5 350/3/5
f 352/3/5 347/3/5 351/3/5
f 353/3/5 347/3/5 352/3/5
f 354/4/5 348/4/5 347/4/5
f 354/3/5 347/3/5 353/3/5
f 355/4/5 349/4/5 345/4/5
f 355/4/5 350/4/5 349/4/5
f 356/3/5 351/3/5 350/3/5
f 356/4/5 350/4/5 355/4/5
f 357/4/5 352/4/5 351/4/5
f 357/3/5 351/3/5 356/3/5
f 358/3/5 353/3/5 352/3/5
f 358/4/5 352/4/5 357/4/5
f 359/4/5 354/4/5 353/4/5
f 359/3/5 353/3/5 358/3/5
f 360/4/5 348/4/5 354/4/5
f 360/4/5 354/4/5 359/4/5
f 363/2/5 362/2/5 361/2/5
f 364/2/5 362/2/5 363/2/5
f 365/1/5 364/1/5 363/1/5
f 366/1/5 364/1/5 365/1/5
f 367/2/5 366/2/5 365/2/5
f 368/2/5 366/2/5 367/2/5
f 369/1/5 368/1/5 367/1/5
f 370/1/5 368/1/5 369/1/5
f 371/2/5 370/2/5 369/2/5
f 372/2/5 370/2/5 371/2/5
f 373/3/6 374/3/6 379/3/6
f 377/3/6 378/3/6 379/3/6
f 376/3/6 377/3/6 379/3/6
f 375/3/6 376/3/6 379/3/6
f 374/3/6 375/3/6 379/3/6
f 379/3/6 378/3/6 380/3/6
f 379/3/6 380/3/6 381/3/6
f 381/3/6 380/3/6 382/3/6
f 381/3/6 382/3/6 383/3/6
f 383/3/6 382/3/6 384/3/6
f 383/3/6 384/3/6 385/3/6
f 385/3/6 384/3/6 386/3/6
f 385/3/6 386/3/6 387/3/6
f 387/3/6 386/3/6 388/3/6
f 388/3/6 386/3/6 389/3/6
f 389/3/6 386/3/6 390/3/6
f 390/3/6 386/3/6 391/3/6
f 391/3/6 386/3/6 392/3/6
f 393/2/6 394/2/6 395/2/6
f 395/2/6 394/2/6 396/2/6
f 396/2/6 394/2/6 397/2/6
f 397/2/6 394/2/6 398/2/6
f 395/1/6 396/1/6 399/1/6
f 399/1/6 396/1/6 400/1/6
f 397/1/6 398/1/6 401/1/6
f 401/1/6 398/1/6 402/1/6
f 395/1/6 399/1/6 403/1/6
f 403/1/6 399/1/6 404/1/6
f 404/1/6 399/1/6 405/1/6
f 402/1/6 398/1/6 408/1/6
f 408/1/6 398/1/6 409/1/6
f 409/1/6 398/1/6 410/1/6
f 403/2/6 404/2/6 411/2/6
f 411/2/6 404/2/6 412/2/6
f 406/2/6 407/2/6 414/2/6
f 414/2/6 407/2/6 415/2/6
f 409/2/6 410/2/6 417/2/6
f 417/2/6 410/2/6 418/2/6
f 412/1/6 413/1/6 419/1/6
f 411/1/6 412/1/6 419/1/6
f 417/1/6 418/1/6 422/1/6
f 416/1/6 417/1/6 422/1/6
f 419/1/6 420/1/6 423/1/6
f 411/1/6 419/1/6 423/1/6
f 423/1/6 420/1/6 424/1/6
f 421/1/6 422/1/6 425/1/6
f 422/1/6 418/1/6 426/1/6
f 425/1/6 422/1/6 426/1/6
f 423/2/6 424/2/6 427/2/6
f 424/2/6 425/2/6 427/2/6
f 425/2/6 426/2/6 427/2/6
f 427/2/6 426/2/6 428/2/6
f 429/2/6 430/2/6 432/2/6
f 432/2/6 430/2/6 433/2/6
f 431/2/6 432/2/6 436/2/6
f 436/2/6 432/2/6 437/2/6
f 433/2/6 434/2/6 438/2/6
f 438/2/6 434/2/6 439/2/6
f 435/2/6 436/2/6 441/2/6
f 441/2/6 436/2/6 442/2/6
f 439/2/6 440/2/6 445/2/6
f 445/2/6 440/2/6 446/2/6
f 442/2/6 443/2/6 447/2/6
f 447/2/6 443/2/6 448/2/6
f 444/2/6 445/2/6 449/2/6
f 449/2/6 445/2/6 450/2/6
f 448/2/6 449/2/6 451/2/6
f 451/2/6 449/2/6 452/2/6
f 453/2/6 454/2/6 456/2/6
f 456/2/6 454/2/6 457/2/6
f 455/2/6 456/2/6 459/2/6
f 459/2/6 456/2/6 460/2/6
f 457/2/6 458/2/6 461/2/6
f 461/2/6 458/2/6 462/2/6
f 460/2/6 461/2/6 463/2/6
f 463/2/6 461/2/6 464/2/6
