# MagicaVoxel @ Ephtracy

# group
o 

# material
mtllib plank_1.mtl
usemtl palette

# normals
vn -1 0 0
vn 1 0 0
vn 0 0 1
vn 0 0 -1
vn 0 -1 0
vn 0 1 0

# texcoords
vt 0.474609 0.5
vt 0.849609 0.5
vt 0.853516 0.5
vt 0.912109 0.5
vt 0.943359 0.5
vt 0.947266 0.5
vt 0.974609 0.5
vt 0.978516 0.5

# verts
v -0.5 -0.4 0.5
v -0.5 -0.4 0.3
v -0.5 -0.4 0.1
v -0.5 -0.4 -0.1
v -0.5 -0.4 -0.3
v -0.5 -0.4 -0.5
v -0.5 -0.2 0.5
v -0.5 -0.2 0.3
v -0.5 -0.2 0.1
v -0.5 -0.2 -0.1
v -0.5 -0.2 -0.3
v -0.5 -0.2 -0.5
v -0.5 0 0.5
v -0.5 0 0.4
v -0.5 0 0.3
v -0.5 0 0.2
v -0.5 0 0.1
v -0.5 0 -0.1
v -0.5 0 -0.2
v -0.5 0 -0.3
v -0.5 0 -0.4
v -0.5 0 -0.5
v -0.5 0.5 0.5
v -0.5 0.5 0.4
v -0.5 0.5 0.2
v -0.5 0.5 0.1
v -0.5 0.5 -0.1
v -0.5 0.5 -0.2
v -0.5 0.5 -0.4
v -0.5 0.5 -0.5
v 0.4 -0.2 0.4
v 0.4 -0.2 0.3
v 0.4 -0.2 0.1
v 0.4 -0.2 -0.1
v 0.4 -0.2 -0.3
v 0.4 -0.2 -0.4
v 0.4 0 0.4
v 0.4 0 0.3
v 0.4 0 0.2
v 0.4 0 0.1
v 0.4 0 0
v 0.4 0 -0.1
v 0.4 0 -0.2
v 0.4 0 -0.3
v 0.4 0 -0.4
v -0.4 -0.2 0.4
v -0.4 -0.2 0.3
v -0.4 -0.2 0.1
v -0.4 -0.2 -0.1
v -0.4 -0.2 -0.3
v -0.4 -0.2 -0.4
v -0.4 0 0.4
v -0.4 0 0.3
v -0.4 0 0.2
v -0.4 0 0.1
v -0.4 0 -0.1
v -0.4 0 -0.2
v -0.4 0 -0.3
v -0.4 0 -0.4
v 0.5 -0.4 0.5
v 0.5 -0.4 0.3
v 0.5 -0.4 0.1
v 0.5 -0.4 -0.1
v 0.5 -0.4 -0.3
v 0.5 -0.4 -0.5
v 0.5 -0.2 0.5
v 0.5 -0.2 0.3
v 0.5 -0.2 0.1
v 0.5 -0.2 -0.1
v 0.5 -0.2 -0.3
v 0.5 -0.2 -0.5
v 0.5 0 0.5
v 0.5 0 0.4
v 0.5 0 0.3
v 0.5 0 0.2
v 0.5 0 0.1
v 0.5 0 -0.1
v 0.5 0 -0.2
v 0.5 0 -0.3
v 0.5 0 -0.4
v 0.5 0 -0.5
v 0.5 0.5 0.5
v 0.5 0.5 0.4
v 0.5 0.5 0.3
v 0.5 0.5 0.2
v 0.5 0.5 0.1
v 0.5 0.5 -0.1
v 0.5 0.5 -0.2
v 0.5 0.5 -0.3
v 0.5 0.5 -0.4
v 0.5 0.5 -0.5
v -0.5 -0.4 0.5
v -0.5 -0.2 0.5
v -0.5 0 0.5
v -0.5 0.5 0.5
v -0.4 0 0.5
v -0.4 0.1 0.5
v -0.4 0.2 0.5
v -0.4 0.3 0.5
v -0.4 0.4 0.5
v -0.4 0.5 0.5
v -0.3 -0.4 0.5
v -0.3 -0.2 0.5
v -0.3 0 0.5
v -0.1 -0.4 0.5
v -0.1 -0.2 0.5
v -0.1 0 0.5
v -0.1 0.1 0.5
v -0.1 0.2 0.5
v 0.1 -0.4 0.5
v 0.1 -0.2 0.5
v 0.1 0 0.5
v 0.1 0.2 0.5
v 0.1 0.3 0.5
v 0.1 0.4 0.5
v 0.2 0 0.5
v 0.2 0.1 0.5
v 0.2 0.2 0.5
v 0.3 -0.4 0.5
v 0.3 -0.2 0.5
v 0.3 0 0.5
v 0.4 0 0.5
v 0.4 0.1 0.5
v 0.4 0.2 0.5
v 0.4 0.3 0.5
v 0.4 0.4 0.5
v 0.5 -0.4 0.5
v 0.5 -0.2 0.5
v 0.5 0 0.5
v 0.5 0.5 0.5
v -0.4 -0.2 -0.4
v -0.4 0 -0.4
v -0.3 -0.2 -0.4
v -0.3 0 -0.4
v -0.2 0 -0.4
v -0.1 -0.2 -0.4
v -0.1 0 -0.4
v 0 0 -0.4
v 0.1 -0.2 -0.4
v 0.1 0 -0.4
v 0.2 0 -0.4
v 0.3 -0.2 -0.4
v 0.3 0 -0.4
v 0.4 -0.2 -0.4
v 0.4 0 -0.4
v -0.4 -0.2 0.4
v -0.4 0 0.4
v -0.3 -0.2 0.4
v -0.3 0 0.4
v -0.2 0 0.4
v -0.1 -0.2 0.4
v -0.1 0 0.4
v 0 0 0.4
v 0.1 -0.2 0.4
v 0.1 0 0.4
v 0.2 0 0.4
v 0.3 -0.2 0.4
v 0.3 0 0.4
v 0.4 -0.2 0.4
v 0.4 0 0.4
v -0.5 -0.4 -0.5
v -0.5 -0.2 -0.5
v -0.5 0 -0.5
v -0.5 0.5 -0.5
v -0.4 0 -0.5
v -0.4 0.1 -0.5
v -0.4 0.2 -0.5
v -0.4 0.3 -0.5
v -0.4 0.4 -0.5
v -0.3 -0.4 -0.5
v -0.3 -0.2 -0.5
v -0.3 0 -0.5
v -0.3 0.4 -0.5
v -0.3 0.5 -0.5
v -0.1 -0.4 -0.5
v -0.1 -0.2 -0.5
v -0.1 0 -0.5
v -0.1 0.1 -0.5
v -0.1 0.2 -0.5
v 0.1 -0.4 -0.5
v 0.1 -0.2 -0.5
v 0.1 0 -0.5
v 0.1 0.2 -0.5
v 0.1 0.3 -0.5
v 0.1 0.4 -0.5
v 0.1 0.5 -0.5
v 0.2 0 -0.5
v 0.2 0.1 -0.5
v 0.2 0.2 -0.5
v 0.2 0.4 -0.5
v 0.2 0.5 -0.5
v 0.3 -0.4 -0.5
v 0.3 -0.2 -0.5
v 0.3 0 -0.5
v 0.4 0 -0.5
v 0.4 0.1 -0.5
v 0.4 0.2 -0.5
v 0.4 0.3 -0.5
v 0.4 0.4 -0.5
v 0.5 -0.4 -0.5
v 0.5 -0.2 -0.5
v 0.5 0 -0.5
v 0.5 0.5 -0.5
v -0.5 -0.4 0.5
v -0.3 -0.4 0.5
v -0.1 -0.4 0.5
v 0.1 -0.4 0.5
v 0.3 -0.4 0.5
v 0.5 -0.4 0.5
v -0.4 -0.4 0.4
v -0.3 -0.4 0.4
v -0.1 -0.4 0.4
v 0.1 -0.4 0.4
v 0.3 -0.4 0.4
v 0.4 -0.4 0.4
v -0.5 -0.4 0.3
v -0.4 -0.4 0.3
v 0.4 -0.4 0.3
v 0.5 -0.4 0.3
v -0.5 -0.4 0.1
v -0.4 -0.4 0.1
v 0.4 -0.4 0.1
v 0.5 -0.4 0.1
v -0.5 -0.4 -0.1
v -0.4 -0.4 -0.1
v 0.4 -0.4 -0.1
v 0.5 -0.4 -0.1
v -0.5 -0.4 -0.3
v -0.4 -0.4 -0.3
v 0.4 -0.4 -0.3
v 0.5 -0.4 -0.3
v -0.4 -0.4 -0.4
v -0.3 -0.4 -0.4
v -0.1 -0.4 -0.4
v 0.1 -0.4 -0.4
v 0.3 -0.4 -0.4
v 0.4 -0.4 -0.4
v -0.5 -0.4 -0.5
v -0.3 -0.4 -0.5
v -0.1 -0.4 -0.5
v 0.1 -0.4 -0.5
v 0.3 -0.4 -0.5
v 0.5 -0.4 -0.5
v -0.4 0 0.4
v -0.3 0 0.4
v -0.2 0 0.4
v -0.1 0 0.4
v 0 0 0.4
v 0.1 0 0.4
v 0.2 0 0.4
v 0.3 0 0.4
v 0.4 0 0.4
v -0.4 0 0.3
v -0.2 0 0.3
v -0.1 0 0.3
v 0 0 0.3
v 0.1 0 0.3
v 0.2 0 0.3
v 0.3 0 0.3
v 0.4 0 0.3
v -0.4 0 0.2
v -0.1 0 0.2
v 0.1 0 0.2
v 0.2 0 0.2
v 0.3 0 0.2
v 0.4 0 0.2
v -0.4 0 0.1
v -0.3 0 0.1
v -0.2 0 0.1
v -0.1 0 0.1
v 0.1 0 0.1
v 0.2 0 0.1
v 0.3 0 0.1
v 0.4 0 0.1
v -0.3 0 0
v -0.2 0 0
v -0.1 0 0
v 0.1 0 0
v 0.3 0 0
v 0.4 0 0
v -0.4 0 -0.1
v -0.3 0 -0.1
v -0.2 0 -0.1
v -0.1 0 -0.1
v 0.1 0 -0.1
v 0.4 0 -0.1
v -0.4 0 -0.2
v -0.2 0 -0.2
v -0.1 0 -0.2
v 0.1 0 -0.2
v 0.2 0 -0.2
v 0.3 0 -0.2
v 0.4 0 -0.2
v -0.4 0 -0.3
v -0.2 0 -0.3
v 0 0 -0.3
v 0.1 0 -0.3
v 0.2 0 -0.3
v 0.3 0 -0.3
v 0.4 0 -0.3
v -0.4 0 -0.4
v -0.3 0 -0.4
v -0.2 0 -0.4
v -0.1 0 -0.4
v 0 0 -0.4
v 0.1 0 -0.4
v 0.2 0 -0.4
v 0.3 0 -0.4
v 0.4 0 -0.4
v -0.4 -0.2 0.4
v -0.3 -0.2 0.4
v -0.1 -0.2 0.4
v 0.1 -0.2 0.4
v 0.3 -0.2 0.4
v 0.4 -0.2 0.4
v -0.4 -0.2 0.3
v 0.4 -0.2 0.3
v -0.4 -0.2 0.1
v 0.4 -0.2 0.1
v -0.4 -0.2 -0.1
v 0.4 -0.2 -0.1
v -0.4 -0.2 -0.3
v 0.4 -0.2 -0.3
v -0.4 -0.2 -0.4
v -0.3 -0.2 -0.4
v -0.1 -0.2 -0.4
v 0.1 -0.2 -0.4
v 0.3 -0.2 -0.4
v 0.4 -0.2 -0.4
v -0.5 0.5 0.5
v -0.4 0.5 0.5
v 0.5 0.5 0.5
v -0.5 0.5 0.4
v -0.4 0.5 0.4
v -0.2 0.5 0.4
v 0 0.5 0.4
v 0.2 0.5 0.4
v 0.3 0.5 0.4
v 0.4 0.5 0.4
v 0.5 0.5 0.4
v -0.4 0.5 0.3
v -0.2 0.5 0.3
v -0.1 0.5 0.3
v 0 0.5 0.3
v 0.1 0.5 0.3
v 0.2 0.5 0.3
v 0.3 0.5 0.3
v 0.4 0.5 0.3
v 0.5 0.5 0.3
v -0.5 0.5 0.2
v -0.4 0.5 0.2
v -0.1 0.5 0.2
v 0.1 0.5 0.2
v 0.2 0.5 0.2
v 0.3 0.5 0.2
v 0.4 0.5 0.2
v 0.5 0.5 0.2
v -0.5 0.5 0.1
v -0.4 0.5 0.1
v -0.3 0.5 0.1
v -0.2 0.5 0.1
v -0.1 0.5 0.1
v 0.1 0.5 0.1
v 0.2 0.5 0.1
v 0.3 0.5 0.1
v 0.5 0.5 0.1
v -0.3 0.5 0
v -0.2 0.5 0
v -0.1 0.5 0
v 0.1 0.5 0
v 0.3 0.5 0
v 0.4 0.5 0
v -0.5 0.5 -0.1
v -0.4 0.5 -0.1
v -0.3 0.5 -0.1
v -0.2 0.5 -0.1
v -0.1 0.5 -0.1
v 0.1 0.5 -0.1
v 0.4 0.5 -0.1
v 0.5 0.5 -0.1
v -0.5 0.5 -0.2
v -0.4 0.5 -0.2
v -0.2 0.5 -0.2
v -0.1 0.5 -0.2
v 0.1 0.5 -0.2
v 0.2 0.5 -0.2
v 0.3 0.5 -0.2
v 0.4 0.5 -0.2
v 0.5 0.5 -0.2
v -0.4 0.5 -0.3
v -0.2 0.5 -0.3
v 0 0.5 -0.3
v 0.1 0.5 -0.3
v 0.2 0.5 -0.3
v 0.3 0.5 -0.3
v 0.4 0.5 -0.3
v 0.5 0.5 -0.3
v -0.5 0.5 -0.4
v -0.4 0.5 -0.4
v -0.3 0.5 -0.4
v -0.2 0.5 -0.4
v 0 0.5 -0.4
v 0.1 0.5 -0.4
v 0.2 0.5 -0.4
v 0.3 0.5 -0.4
v 0.4 0.5 -0.4
v 0.5 0.5 -0.4
v -0.5 0.5 -0.5
v -0.3 0.5 -0.5
v 0.1 0.5 -0.5
v 0.2 0.5 -0.5
v 0.5 0.5 -0.5

# faces
f 7/3/1 2/3/1 1/3/1
f 8/2/1 3/2/1 2/2/1
f 8/3/1 2/3/1 7/3/1
f 9/3/1 4/3/1 3/3/1
f 9/2/1 3/2/1 8/2/1
f 10/2/1 5/2/1 4/2/1
f 10/3/1 4/3/1 9/3/1
f 11/3/1 6/3/1 5/3/1
f 11/2/1 5/2/1 10/2/1
f 12/3/1 6/3/1 11/3/1
f 13/2/1 8/2/1 7/2/1
f 14/2/1 8/2/1 13/2/1
f 15/3/1 9/3/1 8/3/1
f 15/2/1 8/2/1 14/2/1
f 16/3/1 9/3/1 15/3/1
f 17/2/1 10/2/1 9/2/1
f 17/3/1 9/3/1 16/3/1
f 18/3/1 11/3/1 10/3/1
f 18/2/1 10/2/1 17/2/1
f 19/3/1 11/3/1 18/3/1
f 20/2/1 12/2/1 11/2/1
f 20/3/1 11/3/1 19/3/1
f 21/2/1 12/2/1 20/2/1
f 22/2/1 12/2/1 21/2/1
f 23/6/1 14/6/1 13/6/1
f 24/5/1 16/5/1 15/5/1
f 24/6/1 14/6/1 23/6/1
f 24/5/1 15/5/1 14/5/1
f 25/6/1 17/6/1 16/6/1
f 25/5/1 16/5/1 24/5/1
f 26/7/1 18/7/1 17/7/1
f 26/6/1 17/6/1 25/6/1
f 27/8/1 19/8/1 18/8/1
f 27/7/1 18/7/1 26/7/1
f 28/5/1 20/5/1 19/5/1
f 28/8/1 19/8/1 27/8/1
f 28/5/1 21/5/1 20/5/1
f 29/6/1 22/6/1 21/6/1
f 29/5/1 21/5/1 28/5/1
f 30/6/1 22/6/1 29/6/1
f 37/2/1 32/2/1 31/2/1
f 38/3/1 33/3/1 32/3/1
f 38/2/1 32/2/1 37/2/1
f 39/3/1 33/3/1 38/3/1
f 40/2/1 34/2/1 33/2/1
f 40/3/1 33/3/1 39/3/1
f 41/2/1 34/2/1 40/2/1
f 42/3/1 35/3/1 34/3/1
f 42/2/1 34/2/1 41/2/1
f 43/3/1 35/3/1 42/3/1
f 44/2/1 36/2/1 35/2/1
f 44/3/1 35/3/1 43/3/1
f 45/2/1 36/2/1 44/2/1
f 46/2/2 47/2/2 52/2/2
f 47/3/2 48/3/2 53/3/2
f 52/2/2 47/2/2 53/2/2
f 53/3/2 48/3/2 54/3/2
f 48/2/2 49/2/2 55/2/2
f 54/3/2 48/3/2 55/3/2
f 49/3/2 50/3/2 56/3/2
f 55/2/2 49/2/2 56/2/2
f 56/3/2 50/3/2 57/3/2
f 50/2/2 51/2/2 58/2/2
f 57/3/2 50/3/2 58/3/2
f 58/2/2 51/2/2 59/2/2
f 60/3/2 61/3/2 66/3/2
f 61/2/2 62/2/2 67/2/2
f 66/3/2 61/3/2 67/3/2
f 62/3/2 63/3/2 68/3/2
f 67/2/2 62/2/2 68/2/2
f 63/2/2 64/2/2 69/2/2
f 68/3/2 63/3/2 69/3/2
f 64/3/2 65/3/2 70/3/2
f 69/2/2 64/2/2 70/2/2
f 70/3/2 65/3/2 71/3/2
f 66/2/2 67/2/2 72/2/2
f 72/2/2 67/2/2 73/2/2
f 67/3/2 68/3/2 74/3/2
f 73/2/2 67/2/2 74/2/2
f 74/3/2 68/3/2 75/3/2
f 68/2/2 69/2/2 76/2/2
f 75/3/2 68/3/2 76/3/2
f 69/3/2 70/3/2 77/3/2
f 76/2/2 69/2/2 77/2/2
f 77/3/2 70/3/2 78/3/2
f 70/2/2 71/2/2 79/2/2
f 78/3/2 70/3/2 79/3/2
f 79/2/2 71/2/2 80/2/2
f 80/2/2 71/2/2 81/2/2
f 72/8/2 73/8/2 82/8/2
f 73/5/2 74/5/2 83/5/2
f 82/8/2 73/8/2 83/8/2
f 74/4/2 75/4/2 84/4/2
f 83/5/2 74/5/2 84/5/2
f 75/8/2 76/8/2 85/8/2
f 84/4/2 75/4/2 85/4/2
f 76/5/2 77/5/2 86/5/2
f 85/8/2 76/8/2 86/8/2
f 77/6/2 78/6/2 87/6/2
f 86/5/2 77/5/2 87/5/2
f 78/7/2 79/7/2 88/7/2
f 87/6/2 78/6/2 88/6/2
f 79/5/2 80/5/2 89/5/2
f 88/7/2 79/7/2 89/7/2
f 80/8/2 81/8/2 90/8/2
f 89/5/2 80/5/2 90/5/2
f 90/8/2 81/8/2 91/8/2
f 96/2/3 94/2/3 93/2/3
f 96/6/3 95/6/3 94/6/3
f 97/6/3 95/6/3 96/6/3
f 98/6/3 95/6/3 97/6/3
f 99/6/3 95/6/3 98/6/3
f 100/6/3 95/6/3 99/6/3
f 101/6/3 95/6/3 100/6/3
f 102/3/3 93/3/3 92/3/3
f 103/2/3 96/2/3 93/2/3
f 103/3/3 93/3/3 102/3/3
f 104/7/3 97/7/3 96/7/3
f 104/2/3 96/2/3 103/2/3
f 105/2/3 103/2/3 102/2/3
f 106/3/3 104/3/3 103/3/3
f 106/2/3 103/2/3 105/2/3
f 107/7/3 97/7/3 104/7/3
f 107/3/3 104/3/3 106/3/3
f 108/8/3 98/8/3 97/8/3
f 108/7/3 97/7/3 107/7/3
f 109/7/3 99/7/3 98/7/3
f 109/8/3 98/8/3 108/8/3
f 110/3/3 106/3/3 105/3/3
f 111/2/3 107/2/3 106/2/3
f 111/3/3 106/3/3 110/3/3
f 112/7/3 108/7/3 107/7/3
f 112/2/3 107/2/3 111/2/3
f 113/7/3 99/7/3 109/7/3
f 113/5/3 109/5/3 108/5/3
f 114/5/3 100/5/3 99/5/3
f 114/7/3 99/7/3 113/7/3
f 115/8/3 101/8/3 100/8/3
f 115/5/3 100/5/3 114/5/3
f 116/7/3 108/7/3 112/7/3
f 116/3/3 112/3/3 111/3/3
f 117/5/3 113/5/3 108/5/3
f 117/7/3 108/7/3 116/7/3
f 117/5/3 114/5/3 113/5/3
f 118/5/3 114/5/3 117/5/3
f 119/2/3 111/2/3 110/2/3
f 120/3/3 116/3/3 111/3/3
f 120/2/3 111/2/3 119/2/3
f 121/5/3 117/5/3 116/5/3
f 121/3/3 116/3/3 120/3/3
f 122/2/3 121/2/3 120/2/3
f 122/5/3 117/5/3 121/5/3
f 123/7/3 118/7/3 117/7/3
f 123/5/3 117/5/3 122/5/3
f 124/5/3 114/5/3 118/5/3
f 124/7/3 118/7/3 123/7/3
f 125/7/3 115/7/3 114/7/3
f 125/5/3 114/5/3 124/5/3
f 126/8/3 101/8/3 115/8/3
f 126/7/3 115/7/3 125/7/3
f 127/3/3 120/3/3 119/3/3
f 128/2/3 122/2/3 120/2/3
f 128/3/3 120/3/3 127/3/3
f 129/8/3 125/8/3 124/8/3
f 129/2/3 122/2/3 128/2/3
f 129/8/3 123/8/3 122/8/3
f 129/8/3 126/8/3 125/8/3
f 129/8/3 124/8/3 123/8/3
f 130/8/3 101/8/3 126/8/3
f 130/8/3 126/8/3 129/8/3
f 133/2/3 132/2/3 131/2/3
f 134/2/3 132/2/3 133/2/3
f 135/3/3 134/3/3 133/3/3
f 136/3/3 135/3/3 133/3/3
f 137/3/3 135/3/3 136/3/3
f 138/2/3 137/2/3 136/2/3
f 139/2/3 138/2/3 136/2/3
f 140/2/3 138/2/3 139/2/3
f 141/3/3 140/3/3 139/3/3
f 142/3/3 141/3/3 139/3/3
f 143/3/3 141/3/3 142/3/3
f 144/2/3 143/2/3 142/2/3
f 145/2/3 143/2/3 144/2/3
f 146/2/4 147/2/4 148/2/4
f 148/2/4 147/2/4 149/2/4
f 148/3/4 149/3/4 150/3/4
f 148/3/4 150/3/4 151/3/4
f 151/3/4 150/3/4 152/3/4
f 151/2/4 152/2/4 153/2/4
f 151/2/4 153/2/4 154/2/4
f 154/2/4 153/2/4 155/2/4
f 154/3/4 155/3/4 156/3/4
f 154/3/4 156/3/4 157/3/4
f 157/3/4 156/3/4 158/3/4
f 157/2/4 158/2/4 159/2/4
f 159/2/4 158/2/4 160/2/4
f 162/2/4 163/2/4 165/2/4
f 163/6/4 164/6/4 165/6/4
f 165/6/4 164/6/4 166/6/4
f 166/6/4 164/6/4 167/6/4
f 167/6/4 164/6/4 168/6/4
f 168/6/4 164/6/4 169/6/4
f 161/3/4 162/3/4 170/3/4
f 162/2/4 165/2/4 171/2/4
f 170/3/4 162/3/4 171/3/4
f 165/7/4 166/7/4 172/7/4
f 171/2/4 165/2/4 172/2/4
f 169/6/4 164/6/4 173/6/4
f 168/5/4 169/5/4 173/5/4
f 173/6/4 164/6/4 174/6/4
f 170/2/4 171/2/4 175/2/4
f 171/3/4 172/3/4 176/3/4
f 175/2/4 171/2/4 176/2/4
f 172/7/4 166/7/4 177/7/4
f 176/3/4 172/3/4 177/3/4
f 166/8/4 167/8/4 178/8/4
f 177/7/4 166/7/4 178/7/4
f 167/7/4 168/7/4 179/7/4
f 178/8/4 167/8/4 179/8/4
f 175/3/4 176/3/4 180/3/4
f 176/2/4 177/2/4 181/2/4
f 180/3/4 176/3/4 181/3/4
f 177/7/4 178/7/4 182/7/4
f 181/2/4 177/2/4 182/2/4
f 179/7/4 168/7/4 183/7/4
f 178/5/4 179/5/4 183/5/4
f 168/5/4 173/5/4 184/5/4
f 183/7/4 168/7/4 184/7/4
f 173/8/4 174/8/4 185/8/4
f 184/5/4 173/5/4 185/5/4
f 185/8/4 174/8/4 186/8/4
f 182/7/4 178/7/4 187/7/4
f 181/3/4 182/3/4 187/3/4
f 178/5/4 183/5/4 188/5/4
f 187/7/4 178/7/4 188/7/4
f 183/5/4 184/5/4 188/5/4
f 188/5/4 184/5/4 189/5/4
f 184/7/4 185/7/4 190/7/4
f 185/6/4 186/6/4 190/6/4
f 190/6/4 186/6/4 191/6/4
f 180/2/4 181/2/4 192/2/4
f 181/3/4 187/3/4 193/3/4
f 192/2/4 181/2/4 193/2/4
f 187/5/4 188/5/4 194/5/4
f 193/3/4 187/3/4 194/3/4
f 193/2/4 194/2/4 195/2/4
f 194/5/4 188/5/4 195/5/4
f 188/7/4 189/7/4 196/7/4
f 195/5/4 188/5/4 196/5/4
f 189/5/4 184/5/4 197/5/4
f 196/7/4 189/7/4 197/7/4
f 184/7/4 190/7/4 198/7/4
f 197/5/4 184/5/4 198/5/4
f 190/8/4 191/8/4 199/8/4
f 198/7/4 190/7/4 199/7/4
f 192/3/4 193/3/4 200/3/4
f 193/2/4 195/2/4 201/2/4
f 200/3/4 193/3/4 201/3/4
f 195/8/4 196/8/4 202/8/4
f 201/2/4 195/2/4 202/2/4
f 196/8/4 197/8/4 202/8/4
f 198/8/4 199/8/4 202/8/4
f 197/8/4 198/8/4 202/8/4
f 199/8/4 191/8/4 203/8/4
f 202/8/4 199/8/4 203/8/4
f 210/3/5 205/3/5 204/3/5
f 211/2/5 206/2/5 205/2/5
f 211/3/5 205/3/5 210/3/5
f 212/3/5 207/3/5 206/3/5
f 212/2/5 206/2/5 211/2/5
f 213/2/5 208/2/5 207/2/5
f 213/3/5 207/3/5 212/3/5
f 214/3/5 209/3/5 208/3/5
f 214/2/5 208/2/5 213/2/5
f 215/3/5 209/3/5 214/3/5
f 216/3/5 210/3/5 204/3/5
f 217/8/5 213/8/5 212/8/5
f 217/3/5 210/3/5 216/3/5
f 217/8/5 211/8/5 210/8/5
f 217/8/5 215/8/5 214/8/5
f 217/8/5 214/8/5 213/8/5
f 217/8/5 212/8/5 211/8/5
f 218/3/5 209/3/5 215/3/5
f 218/8/5 215/8/5 217/8/5
f 219/3/5 209/3/5 218/3/5
f 220/2/5 217/2/5 216/2/5
f 221/8/5 218/8/5 217/8/5
f 221/2/5 217/2/5 220/2/5
f 222/2/5 219/2/5 218/2/5
f 222/8/5 218/8/5 221/8/5
f 223/2/5 219/2/5 222/2/5
f 224/3/5 221/3/5 220/3/5
f 225/8/5 222/8/5 221/8/5
f 225/3/5 221/3/5 224/3/5
f 226/3/5 223/3/5 222/3/5
f 226/8/5 222/8/5 225/8/5
f 227/3/5 223/3/5 226/3/5
f 228/2/5 225/2/5 224/2/5
f 229/8/5 226/8/5 225/8/5
f 229/2/5 225/2/5 228/2/5
f 230/2/5 227/2/5 226/2/5
f 230/8/5 226/8/5 229/8/5
f 231/2/5 227/2/5 230/2/5
f 232/3/5 229/3/5 228/3/5
f 232/8/5 230/8/5 229/8/5
f 233/8/5 230/8/5 232/8/5
f 234/8/5 230/8/5 233/8/5
f 235/8/5 230/8/5 234/8/5
f 236/8/5 230/8/5 235/8/5
f 237/3/5 231/3/5 230/3/5
f 237/8/5 230/8/5 236/8/5
f 238/3/5 232/3/5 228/3/5
f 238/3/5 233/3/5 232/3/5
f 239/2/5 234/2/5 233/2/5
f 239/3/5 233/3/5 238/3/5
f 240/3/5 235/3/5 234/3/5
f 240/2/5 234/2/5 239/2/5
f 241/2/5 236/2/5 235/2/5
f 241/3/5 235/3/5 240/3/5
f 242/3/5 237/3/5 236/3/5
f 242/2/5 236/2/5 241/2/5
f 243/3/5 231/3/5 237/3/5
f 243/3/5 237/3/5 242/3/5
f 253/4/5 245/4/5 244/4/5
f 253/4/5 246/4/5 245/4/5
f 254/7/5 247/7/5 246/7/5
f 254/4/5 246/4/5 253/4/5
f 254/7/5 248/7/5 247/7/5
f 255/7/5 248/7/5 254/7/5
f 256/5/5 250/5/5 249/5/5
f 256/7/5 248/7/5 255/7/5
f 256/5/5 249/5/5 248/5/5
f 257/5/5 250/5/5 256/5/5
f 258/8/5 251/8/5 250/8/5
f 258/5/5 250/5/5 257/5/5
f 259/7/5 252/7/5 251/7/5
f 259/8/5 251/8/5 258/8/5
f 260/7/5 252/7/5 259/7/5
f 261/7/5 255/7/5 254/7/5
f 261/7/5 254/7/5 253/7/5
f 262/4/5 257/4/5 256/4/5
f 262/7/5 255/7/5 261/7/5
f 262/4/5 256/4/5 255/4/5
f 263/5/5 258/5/5 257/5/5
f 263/4/5 257/4/5 262/4/5
f 264/6/5 259/6/5 258/6/5
f 264/5/5 258/5/5 263/5/5
f 265/5/5 260/5/5 259/5/5
f 265/6/5 259/6/5 264/6/5
f 266/5/5 260/5/5 265/5/5
f 267/8/5 262/8/5 261/8/5
f 267/8/5 263/8/5 262/8/5
f 268/8/5 263/8/5 267/8/5
f 269/8/5 263/8/5 268/8/5
f 270/8/5 263/8/5 269/8/5
f 271/6/5 264/6/5 263/6/5
f 271/8/5 263/8/5 270/8/5
f 272/8/5 266/8/5 265/8/5
f 272/6/5 264/6/5 271/6/5
f 272/8/5 265/8/5 264/8/5
f 273/8/5 266/8/5 272/8/5
f 274/8/5 266/8/5 273/8/5
f 275/8/5 269/8/5 268/8/5
f 275/5/5 268/5/5 267/5/5
f 276/5/5 270/5/5 269/5/5
f 276/8/5 269/8/5 275/8/5
f 277/4/5 271/4/5 270/4/5
f 277/5/5 270/5/5 276/5/5
f 278/7/5 272/7/5 271/7/5
f 278/4/5 271/4/5 277/4/5
f 278/7/5 273/7/5 272/7/5
f 279/5/5 274/5/5 273/5/5
f 279/7/5 273/7/5 278/7/5
f 280/5/5 274/5/5 279/5/5
f 281/5/5 275/5/5 267/5/5
f 282/6/5 276/6/5 275/6/5
f 282/5/5 275/5/5 281/5/5
f 283/5/5 277/5/5 276/5/5
f 283/6/5 276/6/5 282/6/5
f 284/7/5 278/7/5 277/7/5
f 284/5/5 277/5/5 283/5/5
f 285/4/5 279/4/5 278/4/5
f 285/7/5 278/7/5 284/7/5
f 285/4/5 280/4/5 279/4/5
f 286/4/5 280/4/5 285/4/5
f 287/8/5 283/8/5 282/8/5
f 287/8/5 282/8/5 281/8/5
f 288/6/5 284/6/5 283/6/5
f 288/8/5 283/8/5 287/8/5
f 289/8/5 286/8/5 285/8/5
f 289/6/5 284/6/5 288/6/5
f 289/8/5 285/8/5 284/8/5
f 290/8/5 286/8/5 289/8/5
f 291/8/5 286/8/5 290/8/5
f 292/8/5 286/8/5 291/8/5
f 293/8/5 286/8/5 292/8/5
f 294/7/5 288/7/5 287/7/5
f 295/4/5 289/4/5 288/4/5
f 295/7/5 288/7/5 294/7/5
f 295/4/5 290/4/5 289/4/5
f 296/4/5 290/4/5 295/4/5
f 297/5/5 291/5/5 290/5/5
f 297/4/5 290/4/5 296/4/5
f 298/8/5 292/8/5 291/8/5
f 298/5/5 291/5/5 297/5/5
f 299/5/5 293/5/5 292/5/5
f 299/8/5 292/8/5 298/8/5
f 300/5/5 293/5/5 299/5/5
f 301/4/5 295/4/5 294/4/5
f 302/4/5 295/4/5 301/4/5
f 303/7/5 296/7/5 295/7/5
f 303/4/5 295/4/5 302/4/5
f 304/7/5 296/7/5 303/7/5
f 305/5/5 298/5/5 297/5/5
f 305/7/5 296/7/5 304/7/5
f 305/5/5 297/5/5 296/5/5
f 306/5/5 298/5/5 305/5/5
f 307/6/5 299/6/5 298/6/5
f 307/5/5 298/5/5 306/5/5
f 308/4/5 300/4/5 299/4/5
f 308/6/5 299/6/5 307/6/5
f 309/4/5 300/4/5 308/4/5
f 310/1/6 311/1/6 316/1/6
f 314/1/6 315/1/6 316/1/6
f 313/1/6 314/1/6 316/1/6
f 312/1/6 313/1/6 316/1/6
f 311/1/6 312/1/6 316/1/6
f 316/1/6 315/1/6 317/1/6
f 316/1/6 317/1/6 318/1/6
f 318/1/6 317/1/6 319/1/6
f 318/1/6 319/1/6 320/1/6
f 320/1/6 319/1/6 321/1/6
f 320/1/6 321/1/6 322/1/6
f 322/1/6 321/1/6 323/1/6
f 322/1/6 323/1/6 324/1/6
f 324/1/6 323/1/6 325/1/6
f 325/1/6 323/1/6 326/1/6
f 326/1/6 323/1/6 327/1/6
f 327/1/6 323/1/6 328/1/6
f 328/1/6 323/1/6 329/1/6
f 330/6/6 331/6/6 333/6/6
f 331/8/6 332/8/6 334/8/6
f 333/6/6 331/6/6 334/6/6
f 334/8/6 332/8/6 335/8/6
f 335/8/6 332/8/6 336/8/6
f 336/8/6 332/8/6 337/8/6
f 337/8/6 332/8/6 338/8/6
f 338/8/6 332/8/6 339/8/6
f 339/8/6 332/8/6 340/8/6
f 333/5/6 334/5/6 341/5/6
f 334/4/6 335/4/6 341/4/6
f 335/7/6 336/7/6 342/7/6
f 341/4/6 335/4/6 342/4/6
f 342/7/6 336/7/6 343/7/6
f 336/5/6 337/5/6 344/5/6
f 343/7/6 336/7/6 344/7/6
f 344/5/6 337/5/6 345/5/6
f 337/8/6 338/8/6 346/8/6
f 345/5/6 337/5/6 346/5/6
f 338/7/6 339/7/6 347/7/6
f 346/8/6 338/8/6 347/8/6
f 339/5/6 340/5/6 348/5/6
f 347/7/6 339/7/6 348/7/6
f 348/5/6 340/5/6 349/5/6
f 333/5/6 341/5/6 350/5/6
f 342/7/6 343/7/6 351/7/6
f 350/5/6 341/5/6 351/5/6
f 341/7/6 342/7/6 351/7/6
f 344/4/6 345/4/6 352/4/6
f 351/7/6 343/7/6 352/7/6
f 343/4/6 344/4/6 352/4/6
f 345/5/6 346/5/6 353/5/6
f 352/4/6 345/4/6 353/4/6
f 346/6/6 347/6/6 354/6/6
f 353/5/6 346/5/6 354/5/6
f 347/5/6 348/5/6 355/5/6
f 354/6/6 347/6/6 355/6/6
f 348/4/6 349/4/6 356/4/6
f 355/5/6 348/5/6 356/5/6
f 356/4/6 349/4/6 357/4/6
f 350/6/6 351/6/6 358/6/6
f 352/8/6 353/8/6 359/8/6
f 358/6/6 351/6/6 359/6/6
f 351/8/6 352/8/6 359/8/6
f 359/8/6 353/8/6 360/8/6
f 360/8/6 353/8/6 361/8/6
f 361/8/6 353/8/6 362/8/6
f 353/6/6 354/6/6 363/6/6
f 362/8/6 353/8/6 363/8/6
f 356/8/6 357/8/6 364/8/6
f 363/6/6 354/6/6 364/6/6
f 354/8/6 355/8/6 364/8/6
f 355/8/6 356/8/6 364/8/6
f 364/8/6 357/8/6 365/8/6
f 365/8/6 357/8/6 366/8/6
f 360/8/6 361/8/6 367/8/6
f 359/5/6 360/5/6 367/5/6
f 361/5/6 362/5/6 368/5/6
f 367/8/6 361/8/6 368/8/6
f 362/4/6 363/4/6 369/4/6
f 368/5/6 362/5/6 369/5/6
f 363/7/6 364/7/6 370/7/6
f 369/4/6 363/4/6 370/4/6
f 364/7/6 365/7/6 370/7/6
f 365/5/6 366/5/6 371/5/6
f 370/7/6 365/7/6 371/7/6
f 371/5/6 366/5/6 372/5/6
f 358/7/6 359/7/6 373/7/6
f 359/5/6 367/5/6 374/5/6
f 373/7/6 359/7/6 374/7/6
f 367/6/6 368/6/6 375/6/6
f 374/5/6 367/5/6 375/5/6
f 368/5/6 369/5/6 376/5/6
f 375/6/6 368/6/6 376/6/6
f 369/7/6 370/7/6 377/7/6
f 376/5/6 369/5/6 377/5/6
f 370/4/6 371/4/6 378/4/6
f 377/7/6 370/7/6 378/7/6
f 371/4/6 372/4/6 378/4/6
f 372/5/6 366/5/6 379/5/6
f 378/4/6 372/4/6 379/4/6
f 379/5/6 366/5/6 380/5/6
f 373/8/6 374/8/6 381/8/6
f 375/8/6 376/8/6 381/8/6
f 374/8/6 375/8/6 381/8/6
f 381/8/6 376/8/6 382/8/6
f 376/6/6 377/6/6 383/6/6
f 382/8/6 376/8/6 383/8/6
f 377/8/6 378/8/6 384/8/6
f 383/6/6 377/6/6 384/6/6
f 378/8/6 379/8/6 384/8/6
f 384/8/6 379/8/6 385/8/6
f 385/8/6 379/8/6 386/8/6
f 386/8/6 379/8/6 387/8/6
f 379/6/6 380/6/6 388/6/6
f 387/8/6 379/8/6 388/8/6
f 388/6/6 380/6/6 389/6/6
f 382/7/6 383/7/6 390/7/6
f 381/5/6 382/5/6 390/5/6
f 383/4/6 384/4/6 391/4/6
f 390/7/6 383/7/6 391/7/6
f 384/4/6 385/4/6 391/4/6
f 391/4/6 385/4/6 392/4/6
f 385/5/6 386/5/6 393/5/6
f 392/4/6 385/4/6 393/4/6
f 386/8/6 387/8/6 394/8/6
f 393/5/6 386/5/6 394/5/6
f 387/5/6 388/5/6 395/5/6
f 394/8/6 387/8/6 395/8/6
f 388/7/6 389/7/6 396/7/6
f 395/5/6 388/5/6 396/5/6
f 396/7/6 389/7/6 397/7/6
f 381/5/6 390/5/6 398/5/6
f 390/4/6 391/4/6 399/4/6
f 398/5/6 390/5/6 399/5/6
f 399/4/6 391/4/6 400/4/6
f 391/7/6 392/7/6 401/7/6
f 400/4/6 391/4/6 401/4/6
f 392/5/6 393/5/6 402/5/6
f 401/7/6 392/7/6 402/7/6
f 393/5/6 394/5/6 402/5/6
f 402/5/6 394/5/6 403/5/6
f 394/6/6 395/6/6 404/6/6
f 403/5/6 394/5/6 404/5/6
f 395/4/6 396/4/6 405/4/6
f 404/6/6 395/6/6 405/6/6
f 396/5/6 397/5/6 406/5/6
f 405/4/6 396/4/6 406/4/6
f 406/5/6 397/5/6 407/5/6
f 398/6/6 399/6/6 408/6/6
f 399/6/6 400/6/6 408/6/6
f 400/8/6 401/8/6 409/8/6
f 408/6/6 400/6/6 409/6/6
f 402/8/6 403/8/6 409/8/6
f 401/8/6 402/8/6 409/8/6
f 403/6/6 404/6/6 410/6/6
f 409/8/6 403/8/6 410/8/6
f 405/8/6 406/8/6 411/8/6
f 410/6/6 404/6/6 411/6/6
f 406/8/6 407/8/6 411/8/6
f 404/8/6 405/8/6 411/8/6
f 411/8/6 407/8/6 412/8/6
