# MagicaVoxel @ Ephtracy

# group
o 

# material
mtllib env_8.mtl
usemtl palette

# normals
vn -1 0 0
vn 1 0 0
vn 0 0 1
vn 0 0 -1
vn 0 -1 0
vn 0 1 0

# texcoords
vt 0.537109 0.5
vt 0.599609 0.5

# verts
v -0.7 0 0.4
v -0.7 0 -0.8
v -0.7 0.1 0.4
v -0.7 0.1 -0.8
v -0.6 0 0.5
v -0.6 0 0.4
v -0.6 0 -0.8
v -0.6 0 -0.9
v -0.6 0.1 0.5
v -0.6 0.1 0.4
v -0.6 0.1 -0.8
v -0.6 0.1 -0.9
v -0.5 0.1 0.4
v -0.5 0.1 -0.8
v -0.5 0.2 0.4
v -0.5 0.2 -0.8
v -0.3 1.3 0.2
v -0.3 1.3 -0.6
v -0.3 2 0.2
v -0.3 2 -0.6
v -0.2 0.2 0.1
v -0.2 0.2 -0.5
v -0.2 1.1 0.1
v -0.2 1.1 0
v -0.2 1.1 -0.4
v -0.2 1.1 -0.5
v -0.2 1.3 0
v -0.2 1.3 -0.4
v -0.1 0.6 -0.5
v -0.1 0.6 -0.8
v -0.1 0.8 -0.5
v -0.1 0.8 -0.6
v -0.1 0.9 0.7
v -0.1 0.9 0.1
v -0.1 0.9 -0.5
v -0.1 0.9 -0.6
v -0.1 1 -0.7
v -0.1 1 -0.8
v -0.1 1.1 0.1
v -0.1 1.1 0
v -0.1 1.1 -0.4
v -0.1 1.1 -0.5
v -0.1 1.2 0.7
v -0.1 1.2 0.1
v -0.1 1.2 -0.5
v -0.1 1.2 -0.7
v -0.1 1.3 0.1
v -0.1 1.3 0
v -0.1 1.3 -0.4
v -0.1 1.3 -0.5
v -0.1 1.7 0.3
v -0.1 1.7 0.2
v -0.1 1.7 -0.6
v -0.1 1.7 -0.7
v -0.1 2 0.2
v -0.1 2 -0.1
v -0.1 2 -0.3
v -0.1 2 -0.6
v -0.1 2.2 0.3
v -0.1 2.2 -0.1
v -0.1 2.2 -0.3
v -0.1 2.2 -0.7
v 0 0.1 0.7
v 0 0.1 0.6
v 0 0.9 0.7
v 0 0.9 0.6
v 0 1.2 0.7
v 0 1.2 0.6
v 0 1.5 0.9
v 0 1.5 0.7
v 0 1.5 0.6
v 0 1.5 0.4
v 0 1.6 0.8
v 0 1.6 0.7
v 0 1.6 0.6
v 0 1.6 0.5
v 0 1.9 0.9
v 0 1.9 0.8
v 0 1.9 0.7
v 0 1.9 0.6
v 0 1.9 0.5
v 0 1.9 0.4
v 0.3 0.2 0.2
v 0.3 0.2 -0.6
v 0.3 0.3 0.2
v 0.3 0.3 -0.6
v 0.1 0.1 0.7
v 0.1 0.1 0.6
v 0.1 0.9 0.7
v 0.1 0.9 0.6
v 0.1 1.2 0.7
v 0.1 1.2 0.6
v 0.1 1.5 0.9
v 0.1 1.5 0.7
v 0.1 1.5 0.6
v 0.1 1.5 0.4
v 0.1 1.6 0.8
v 0.1 1.6 0.7
v 0.1 1.6 0.6
v 0.1 1.6 0.5
v 0.1 1.9 0.9
v 0.1 1.9 0.8
v 0.1 1.9 0.7
v 0.1 1.9 0.6
v 0.1 1.9 0.5
v 0.1 1.9 0.4
v 0.2 0.2 0.1
v 0.2 0.2 -0.5
v 0.2 0.5 0.1
v 0.2 0.5 -0.5
v 0.2 0.6 -0.5
v 0.2 0.6 -0.8
v 0.2 0.8 -0.5
v 0.2 0.8 -0.6
v 0.2 0.9 0.7
v 0.2 0.9 0.1
v 0.2 0.9 -0.5
v 0.2 0.9 -0.6
v 0.2 1 -0.7
v 0.2 1 -0.8
v 0.2 1.1 0
v 0.2 1.1 -0.4
v 0.2 1.2 0.7
v 0.2 1.2 0.1
v 0.2 1.2 -0.5
v 0.2 1.2 -0.7
v 0.2 1.3 0
v 0.2 1.3 -0.4
v 0.2 1.7 0.3
v 0.2 1.7 0.2
v 0.2 1.7 -0.6
v 0.2 1.7 -0.7
v 0.2 2 0.2
v 0.2 2 -0.1
v 0.2 2 -0.3
v 0.2 2 -0.6
v 0.2 2.2 0.3
v 0.2 2.2 -0.1
v 0.2 2.2 -0.3
v 0.2 2.2 -0.7
v 0.3 0.5 0.1
v 0.3 0.5 -0.5
v 0.3 1.1 0
v 0.3 1.1 -0.4
v 0.3 1.3 0.1
v 0.3 1.3 0
v 0.3 1.3 -0.4
v 0.3 1.3 -0.5
v 0.4 1.3 0.2
v 0.4 1.3 -0.6
v 0.4 1.4 -0.1
v 0.4 1.4 -0.3
v 0.4 1.7 -0.1
v 0.4 1.7 -0.3
v 0.4 2 0.2
v 0.4 2 -0.6
v 0.5 1.4 -0.1
v 0.5 1.4 -0.3
v 0.5 1.7 -0.1
v 0.5 1.7 -0.3
v 0.6 0.2 0.2
v 0.6 0.2 -0.6
v 0.6 0.3 0.2
v 0.6 0.3 -0.6
v 0.7 0 0.5
v 0.7 0 0.4
v 0.7 0 -0.8
v 0.7 0 -0.9
v 0.7 0.1 0.5
v 0.7 0.1 0.4
v 0.7 0.1 -0.8
v 0.7 0.1 -0.9
v 0.7 0.2 0.4
v 0.7 0.2 -0.8
v 0.8 0 0.4
v 0.8 0 -0.8
v 0.8 0.1 0.4
v 0.8 0.1 -0.8
v 0 1.5 0.9
v 0 1.9 0.9
v 0.1 1.5 0.9
v 0.1 1.9 0.9
v -0.1 0.9 0.7
v -0.1 1.2 0.7
v 0 0.1 0.7
v 0 0.9 0.7
v 0 1.2 0.7
v 0 1.5 0.7
v 0 1.6 0.7
v 0 1.9 0.7
v 0.1 0.1 0.7
v 0.1 0.9 0.7
v 0.1 1.2 0.7
v 0.1 1.5 0.7
v 0.1 1.6 0.7
v 0.1 1.9 0.7
v 0.2 0.9 0.7
v 0.2 1.2 0.7
v -0.6 0 0.5
v -0.6 0.1 0.5
v 0 1.6 0.5
v 0 1.9 0.5
v 0.1 1.6 0.5
v 0.1 1.9 0.5
v 0.7 0 0.5
v 0.7 0.1 0.5
v -0.7 0 0.4
v -0.7 0.1 0.4
v -0.6 0 0.4
v -0.6 0.1 0.4
v -0.5 0.1 0.4
v -0.5 0.2 0.4
v 0.7 0 0.4
v 0.7 0.1 0.4
v 0.7 0.2 0.4
v 0.8 0 0.4
v 0.8 0.1 0.4
v -0.1 1.7 0.3
v -0.1 2.2 0.3
v 0.2 1.7 0.3
v 0.2 2.2 0.3
v -0.3 1.3 0.2
v -0.3 2 0.2
v -0.1 1.7 0.2
v -0.1 2 0.2
v 0.2 1.7 0.2
v 0.2 2 0.2
v 0.3 0.2 0.2
v 0.3 0.3 0.2
v 0.4 1.3 0.2
v 0.4 2 0.2
v 0.6 0.2 0.2
v 0.6 0.3 0.2
v -0.2 0.2 0.1
v -0.2 1.1 0.1
v -0.1 0.9 0.1
v -0.1 1.1 0.1
v -0.1 1.2 0.1
v -0.1 1.3 0.1
v 0.2 0.2 0.1
v 0.2 0.5 0.1
v 0.2 0.9 0.1
v 0.2 1.2 0.1
v 0.3 0.5 0.1
v 0.3 1.3 0.1
v -0.2 1.1 0
v -0.2 1.3 0
v -0.1 1.1 0
v -0.1 1.3 0
v 0.4 1.4 -0.1
v 0.4 1.7 -0.1
v 0.5 1.4 -0.1
v 0.5 1.7 -0.1
v -0.1 2 -0.3
v -0.1 2.2 -0.3
v 0.2 2 -0.3
v 0.2 2.2 -0.3
v 0.2 1.1 -0.4
v 0.2 1.3 -0.4
v 0.3 1.1 -0.4
v 0.3 1.3 -0.4
v -0.1 0.8 -0.6
v -0.1 0.9 -0.6
v 0.2 0.8 -0.6
v 0.2 0.9 -0.6
v 0 1.6 0.8
v 0 1.9 0.8
v 0.1 1.6 0.8
v 0.1 1.9 0.8
v 0 0.1 0.6
v 0 0.9 0.6
v 0 1.2 0.6
v 0 1.5 0.6
v 0 1.6 0.6
v 0 1.9 0.6
v 0.1 0.1 0.6
v 0.1 0.9 0.6
v 0.1 1.2 0.6
v 0.1 1.5 0.6
v 0.1 1.6 0.6
v 0.1 1.9 0.6
v 0 1.5 0.4
v 0 1.9 0.4
v 0.1 1.5 0.4
v 0.1 1.9 0.4
v 0.2 1.1 0
v 0.2 1.3 0
v 0.3 1.1 0
v 0.3 1.3 0
v -0.1 2 -0.1
v -0.1 2.2 -0.1
v 0.2 2 -0.1
v 0.2 2.2 -0.1
v 0.4 1.4 -0.3
v 0.4 1.7 -0.3
v 0.5 1.4 -0.3
v 0.5 1.7 -0.3
v -0.2 1.1 -0.4
v -0.2 1.3 -0.4
v -0.1 1.1 -0.4
v -0.1 1.3 -0.4
v -0.2 0.2 -0.5
v -0.2 1.1 -0.5
v -0.1 0.6 -0.5
v -0.1 0.8 -0.5
v -0.1 0.9 -0.5
v -0.1 1.1 -0.5
v -0.1 1.2 -0.5
v -0.1 1.3 -0.5
v 0.2 0.2 -0.5
v 0.2 0.5 -0.5
v 0.2 0.6 -0.5
v 0.2 0.8 -0.5
v 0.2 0.9 -0.5
v 0.2 1.2 -0.5
v 0.3 0.5 -0.5
v 0.3 1.3 -0.5
v -0.3 1.3 -0.6
v -0.3 2 -0.6
v -0.1 1.7 -0.6
v -0.1 2 -0.6
v 0.2 1.7 -0.6
v 0.2 2 -0.6
v 0.3 0.2 -0.6
v 0.3 0.3 -0.6
v 0.4 1.3 -0.6
v 0.4 2 -0.6
v 0.6 0.2 -0.6
v 0.6 0.3 -0.6
v -0.1 1 -0.7
v -0.1 1.2 -0.7
v -0.1 1.7 -0.7
v -0.1 2.2 -0.7
v 0.2 1 -0.7
v 0.2 1.2 -0.7
v 0.2 1.7 -0.7
v 0.2 2.2 -0.7
v -0.7 0 -0.8
v -0.7 0.1 -0.8
v -0.6 0 -0.8
v -0.6 0.1 -0.8
v -0.5 0.1 -0.8
v -0.5 0.2 -0.8
v -0.1 0.6 -0.8
v -0.1 1 -0.8
v 0.2 0.6 -0.8
v 0.2 1 -0.8
v 0.7 0 -0.8
v 0.7 0.1 -0.8
v 0.7 0.2 -0.8
v 0.8 0 -0.8
v 0.8 0.1 -0.8
v -0.6 0 -0.9
v -0.6 0.1 -0.9
v 0.7 0 -0.9
v 0.7 0.1 -0.9
v -0.6 0 0.5
v 0.7 0 0.5
v -0.7 0 0.4
v -0.6 0 0.4
v 0.7 0 0.4
v 0.8 0 0.4
v -0.7 0 -0.8
v -0.6 0 -0.8
v 0.7 0 -0.8
v 0.8 0 -0.8
v -0.6 0 -0.9
v 0.7 0 -0.9
v 0 0.1 0.7
v 0.1 0.1 0.7
v 0 0.1 0.6
v 0.1 0.1 0.6
v 0.2 0.5 0.1
v 0.3 0.5 0.1
v 0.2 0.5 -0.5
v 0.3 0.5 -0.5
v -0.1 0.6 -0.5
v 0.2 0.6 -0.5
v -0.1 0.6 -0.8
v 0.2 0.6 -0.8
v -0.1 0.9 0.7
v 0 0.9 0.7
v 0.1 0.9 0.7
v 0.2 0.9 0.7
v 0 0.9 0.6
v 0.1 0.9 0.6
v -0.1 0.9 0.1
v 0.2 0.9 0.1
v -0.1 0.9 -0.5
v 0.2 0.9 -0.5
v -0.1 0.9 -0.6
v 0.2 0.9 -0.6
v -0.3 1.3 0.2
v 0.4 1.3 0.2
v -0.1 1.3 0.1
v 0.3 1.3 0.1
v -0.2 1.3 0
v -0.1 1.3 0
v 0.2 1.3 0
v 0.3 1.3 0
v -0.2 1.3 -0.4
v -0.1 1.3 -0.4
v 0.2 1.3 -0.4
v 0.3 1.3 -0.4
v -0.1 1.3 -0.5
v 0.3 1.3 -0.5
v -0.3 1.3 -0.6
v 0.4 1.3 -0.6
v 0.4 1.4 -0.1
v 0.5 1.4 -0.1
v 0.4 1.4 -0.3
v 0.5 1.4 -0.3
v 0 1.5 0.9
v 0.1 1.5 0.9
v 0 1.5 0.7
v 0.1 1.5 0.7
v 0 1.5 0.6
v 0.1 1.5 0.6
v 0 1.5 0.4
v 0.1 1.5 0.4
v -0.1 1.7 0.3
v 0.2 1.7 0.3
v -0.1 1.7 0.2
v 0.2 1.7 0.2
v -0.1 1.7 -0.6
v 0.2 1.7 -0.6
v -0.1 1.7 -0.7
v 0.2 1.7 -0.7
v -0.6 0.1 0.5
v 0.7 0.1 0.5
v -0.7 0.1 0.4
v -0.6 0.1 0.4
v -0.5 0.1 0.4
v 0.7 0.1 0.4
v 0.8 0.1 0.4
v -0.7 0.1 -0.8
v -0.6 0.1 -0.8
v -0.5 0.1 -0.8
v 0.7 0.1 -0.8
v 0.8 0.1 -0.8
v -0.6 0.1 -0.9
v 0.7 0.1 -0.9
v -0.5 0.2 0.4
v 0.7 0.2 0.4
v 0.3 0.2 0.2
v 0.6 0.2 0.2
v -0.2 0.2 0.1
v 0.2 0.2 0.1
v -0.2 0.2 -0.5
v 0.2 0.2 -0.5
v 0.3 0.2 -0.6
v 0.6 0.2 -0.6
v -0.5 0.2 -0.8
v 0.7 0.2 -0.8
v 0.3 0.3 0.2
v 0.6 0.3 0.2
v 0.3 0.3 -0.6
v 0.6 0.3 -0.6
v -0.1 0.8 -0.5
v 0.2 0.8 -0.5
v -0.1 0.8 -0.6
v 0.2 0.8 -0.6
v -0.1 1 -0.7
v 0.2 1 -0.7
v -0.1 1 -0.8
v 0.2 1 -0.8
v -0.2 1.1 0.1
v -0.1 1.1 0.1
v -0.2 1.1 0
v -0.1 1.1 0
v 0.2 1.1 0
v 0.3 1.1 0
v -0.2 1.1 -0.4
v -0.1 1.1 -0.4
v 0.2 1.1 -0.4
v 0.3 1.1 -0.4
v -0.2 1.1 -0.5
v -0.1 1.1 -0.5
v -0.1 1.2 0.7
v 0 1.2 0.7
v 0.1 1.2 0.7
v 0.2 1.2 0.7
v 0 1.2 0.6
v 0.1 1.2 0.6
v -0.1 1.2 0.1
v 0.2 1.2 0.1
v -0.1 1.2 -0.5
v 0.2 1.2 -0.5
v -0.1 1.2 -0.7
v 0.2 1.2 -0.7
v 0 1.6 0.8
v 0.1 1.6 0.8
v 0 1.6 0.7
v 0.1 1.6 0.7
v 0 1.6 0.6
v 0.1 1.6 0.6
v 0 1.6 0.5
v 0.1 1.6 0.5
v 0.4 1.7 -0.1
v 0.5 1.7 -0.1
v 0.4 1.7 -0.3
v 0.5 1.7 -0.3
v 0 1.9 0.9
v 0.1 1.9 0.9
v 0 1.9 0.8
v 0.1 1.9 0.8
v 0 1.9 0.7
v 0.1 1.9 0.7
v 0 1.9 0.6
v 0.1 1.9 0.6
v 0 1.9 0.5
v 0.1 1.9 0.5
v 0 1.9 0.4
v 0.1 1.9 0.4
v -0.3 2 0.2
v -0.1 2 0.2
v 0.2 2 0.2
v 0.4 2 0.2
v -0.1 2 -0.1
v 0.2 2 -0.1
v -0.1 2 -0.3
v 0.2 2 -0.3
v -0.3 2 -0.6
v -0.1 2 -0.6
v 0.2 2 -0.6
v 0.4 2 -0.6
v -0.1 2.2 0.3
v 0.2 2.2 0.3
v -0.1 2.2 -0.1
v 0.2 2.2 -0.1
v -0.1 2.2 -0.3
v 0.2 2.2 -0.3
v -0.1 2.2 -0.7
v 0.2 2.2 -0.7

# faces
f 3/2/1 2/2/1 1/2/1
f 4/2/1 2/2/1 3/2/1
f 9/2/1 6/2/1 5/2/1
f 10/2/1 6/2/1 9/2/1
f 11/2/1 8/2/1 7/2/1
f 12/2/1 8/2/1 11/2/1
f 15/2/1 14/2/1 13/2/1
f 16/2/1 14/2/1 15/2/1
f 19/2/1 18/2/1 17/2/1
f 20/2/1 18/2/1 19/2/1
f 23/2/1 22/2/1 21/2/1
f 24/2/1 22/2/1 23/2/1
f 25/2/1 22/2/1 24/2/1
f 26/2/1 22/2/1 25/2/1
f 27/2/1 25/2/1 24/2/1
f 28/2/1 25/2/1 27/2/1
f 31/2/1 30/2/1 29/2/1
f 32/2/1 30/2/1 31/2/1
f 36/2/1 30/2/1 32/2/1
f 37/2/1 30/2/1 36/2/1
f 37/2/1 36/2/1 35/2/1
f 38/2/1 30/2/1 37/2/1
f 39/2/1 34/2/1 33/2/1
f 42/2/1 37/2/1 35/2/1
f 43/2/1 40/2/1 39/2/1
f 43/2/1 39/2/1 33/2/1
f 44/2/1 40/2/1 43/2/1
f 45/2/1 42/2/1 41/2/1
f 45/2/1 37/2/1 42/2/1
f 46/2/1 37/2/1 45/2/1
f 47/2/1 40/2/1 44/2/1
f 48/2/1 40/2/1 47/2/1
f 49/2/1 45/2/1 41/2/1
f 50/2/1 45/2/1 49/2/1
f 55/2/1 52/2/1 51/2/1
f 58/2/1 54/2/1 53/2/1
f 59/2/1 56/2/1 55/2/1
f 59/2/1 55/2/1 51/2/1
f 60/2/1 56/2/1 59/2/1
f 61/2/1 58/2/1 57/2/1
f 62/2/1 54/2/1 58/2/1
f 62/2/1 58/2/1 61/2/1
f 65/1/1 64/1/1 63/1/1
f 66/1/1 64/1/1 65/1/1
f 70/1/1 68/1/1 67/1/1
f 71/1/1 68/1/1 70/1/1
f 73/1/1 71/1/1 70/1/1
f 73/1/1 72/1/1 71/1/1
f 73/1/1 70/1/1 69/1/1
f 74/1/1 72/1/1 73/1/1
f 75/1/1 72/1/1 74/1/1
f 76/1/1 72/1/1 75/1/1
f 77/1/1 73/1/1 69/1/1
f 78/1/1 73/1/1 77/1/1
f 79/1/1 75/1/1 74/1/1
f 80/1/1 75/1/1 79/1/1
f 81/1/1 72/1/1 76/1/1
f 82/1/1 72/1/1 81/1/1
f 85/1/1 84/1/1 83/1/1
f 86/1/1 84/1/1 85/1/1
f 87/1/2 88/1/2 89/1/2
f 89/1/2 88/1/2 90/1/2
f 91/1/2 92/1/2 94/1/2
f 94/1/2 92/1/2 95/1/2
f 94/1/2 95/1/2 97/1/2
f 95/1/2 96/1/2 97/1/2
f 93/1/2 94/1/2 97/1/2
f 97/1/2 96/1/2 98/1/2
f 98/1/2 96/1/2 99/1/2
f 99/1/2 96/1/2 100/1/2
f 93/1/2 97/1/2 101/1/2
f 101/1/2 97/1/2 102/1/2
f 98/1/2 99/1/2 103/1/2
f 103/1/2 99/1/2 104/1/2
f 100/1/2 96/1/2 105/1/2
f 105/1/2 96/1/2 106/1/2
f 107/2/2 108/2/2 109/2/2
f 109/2/2 108/2/2 110/2/2
f 111/2/2 112/2/2 113/2/2
f 113/2/2 112/2/2 114/2/2
f 114/2/2 112/2/2 118/2/2
f 118/2/2 112/2/2 119/2/2
f 117/2/2 118/2/2 119/2/2
f 119/2/2 112/2/2 120/2/2
f 115/2/2 116/2/2 123/2/2
f 123/2/2 116/2/2 124/2/2
f 117/2/2 119/2/2 125/2/2
f 125/2/2 119/2/2 126/2/2
f 121/2/2 122/2/2 127/2/2
f 127/2/2 122/2/2 128/2/2
f 129/2/2 130/2/2 133/2/2
f 131/2/2 132/2/2 136/2/2
f 133/2/2 134/2/2 137/2/2
f 129/2/2 133/2/2 137/2/2
f 137/2/2 134/2/2 138/2/2
f 135/2/2 136/2/2 139/2/2
f 136/2/2 132/2/2 140/2/2
f 139/2/2 136/2/2 140/2/2
f 141/2/2 142/2/2 143/2/2
f 143/2/2 142/2/2 144/2/2
f 141/2/2 143/2/2 145/2/2
f 145/2/2 143/2/2 146/2/2
f 144/2/2 142/2/2 147/2/2
f 147/2/2 142/2/2 148/2/2
f 149/2/2 150/2/2 151/2/2
f 151/2/2 150/2/2 152/2/2
f 149/2/2 151/2/2 153/2/2
f 152/2/2 150/2/2 154/2/2
f 149/2/2 153/2/2 155/2/2
f 153/2/2 154/2/2 155/2/2
f 154/2/2 150/2/2 156/2/2
f 155/2/2 154/2/2 156/2/2
f 157/2/2 158/2/2 159/2/2
f 159/2/2 158/2/2 160/2/2
f 161/1/2 162/1/2 163/1/2
f 163/1/2 162/1/2 164/1/2
f 165/2/2 166/2/2 169/2/2
f 169/2/2 166/2/2 170/2/2
f 167/2/2 168/2/2 171/2/2
f 171/2/2 168/2/2 172/2/2
f 170/2/2 171/2/2 173/2/2
f 173/2/2 171/2/2 174/2/2
f 175/2/2 176/2/2 177/2/2
f 177/2/2 176/2/2 178/2/2
f 181/1/3 180/1/3 179/1/3
f 182/1/3 180/1/3 181/1/3
f 186/2/3 184/2/3 183/2/3
f 187/2/3 184/2/3 186/2/3
f 191/1/3 186/1/3 185/1/3
f 192/2/3 187/2/3 186/2/3
f 192/1/3 186/1/3 191/1/3
f 193/1/3 188/1/3 187/1/3
f 193/2/3 187/2/3 192/2/3
f 194/1/3 188/1/3 193/1/3
f 195/1/3 190/1/3 189/1/3
f 196/1/3 190/1/3 195/1/3
f 197/2/3 193/2/3 192/2/3
f 198/2/3 193/2/3 197/2/3
f 203/1/3 202/1/3 201/1/3
f 204/1/3 202/1/3 203/1/3
f 205/2/3 200/2/3 199/2/3
f 206/2/3 200/2/3 205/2/3
f 209/2/3 208/2/3 207/2/3
f 210/2/3 208/2/3 209/2/3
f 214/2/3 212/2/3 211/2/3
f 215/2/3 212/2/3 214/2/3
f 216/2/3 214/2/3 213/2/3
f 217/2/3 214/2/3 216/2/3
f 220/2/3 219/2/3 218/2/3
f 221/2/3 219/2/3 220/2/3
f 224/2/3 223/2/3 222/2/3
f 225/2/3 223/2/3 224/2/3
f 226/2/3 224/2/3 222/2/3
f 230/2/3 226/2/3 222/2/3
f 230/2/3 227/2/3 226/2/3
f 231/2/3 227/2/3 230/2/3
f 232/1/3 229/1/3 228/1/3
f 233/1/3 229/1/3 232/1/3
f 236/2/3 235/2/3 234/2/3
f 237/2/3 235/2/3 236/2/3
f 240/2/3 236/2/3 234/2/3
f 241/2/3 236/2/3 240/2/3
f 242/2/3 236/2/3 241/2/3
f 243/2/3 239/2/3 238/2/3
f 244/2/3 242/2/3 241/2/3
f 244/2/3 243/2/3 242/2/3
f 245/2/3 239/2/3 243/2/3
f 245/2/3 243/2/3 244/2/3
f 248/2/3 247/2/3 246/2/3
f 249/2/3 247/2/3 248/2/3
f 252/2/3 251/2/3 250/2/3
f 253/2/3 251/2/3 252/2/3
f 256/2/3 255/2/3 254/2/3
f 257/2/3 255/2/3 256/2/3
f 260/2/3 259/2/3 258/2/3
f 261/2/3 259/2/3 260/2/3
f 264/2/3 263/2/3 262/2/3
f 265/2/3 263/2/3 264/2/3
f 266/1/4 267/1/4 268/1/4
f 268/1/4 267/1/4 269/1/4
f 270/1/4 271/1/4 276/1/4
f 276/1/4 271/1/4 277/1/4
f 272/1/4 273/1/4 278/1/4
f 278/1/4 273/1/4 279/1/4
f 274/1/4 275/1/4 280/1/4
f 280/1/4 275/1/4 281/1/4
f 282/1/4 283/1/4 284/1/4
f 284/1/4 283/1/4 285/1/4
f 286/2/4 287/2/4 288/2/4
f 288/2/4 287/2/4 289/2/4
f 290/2/4 291/2/4 292/2/4
f 292/2/4 291/2/4 293/2/4
f 294/2/4 295/2/4 296/2/4
f 296/2/4 295/2/4 297/2/4
f 298/2/4 299/2/4 300/2/4
f 300/2/4 299/2/4 301/2/4
f 302/2/4 303/2/4 304/2/4
f 304/2/4 303/2/4 305/2/4
f 305/2/4 303/2/4 306/2/4
f 306/2/4 303/2/4 307/2/4
f 302/2/4 304/2/4 310/2/4
f 310/2/4 304/2/4 311/2/4
f 311/2/4 304/2/4 312/2/4
f 305/2/4 306/2/4 313/2/4
f 313/2/4 306/2/4 314/2/4
f 308/2/4 309/2/4 315/2/4
f 313/2/4 314/2/4 316/2/4
f 314/2/4 315/2/4 316/2/4
f 311/2/4 312/2/4 316/2/4
f 312/2/4 313/2/4 316/2/4
f 315/2/4 309/2/4 317/2/4
f 316/2/4 315/2/4 317/2/4
f 318/2/4 319/2/4 320/2/4
f 320/2/4 319/2/4 321/2/4
f 318/2/4 320/2/4 322/2/4
f 318/2/4 322/2/4 326/2/4
f 322/2/4 323/2/4 326/2/4
f 326/2/4 323/2/4 327/2/4
f 324/1/4 325/1/4 328/1/4
f 328/1/4 325/1/4 329/1/4
f 330/2/4 331/2/4 334/2/4
f 334/2/4 331/2/4 335/2/4
f 332/2/4 333/2/4 336/2/4
f 336/2/4 333/2/4 337/2/4
f 338/2/4 339/2/4 340/2/4
f 340/2/4 339/2/4 341/2/4
f 344/2/4 345/2/4 346/2/4
f 346/2/4 345/2/4 347/2/4
f 342/2/4 343/2/4 349/2/4
f 349/2/4 343/2/4 350/2/4
f 348/2/4 349/2/4 351/2/4
f 351/2/4 349/2/4 352/2/4
f 353/2/4 354/2/4 355/2/4
f 355/2/4 354/2/4 356/2/4
f 360/2/5 358/2/5 357/2/5
f 361/2/5 358/2/5 360/2/5
f 363/2/5 360/2/5 359/2/5
f 363/2/5 362/2/5 361/2/5
f 363/2/5 361/2/5 360/2/5
f 364/2/5 362/2/5 363/2/5
f 365/2/5 362/2/5 364/2/5
f 366/2/5 362/2/5 365/2/5
f 367/2/5 365/2/5 364/2/5
f 368/2/5 365/2/5 367/2/5
f 371/1/5 370/1/5 369/1/5
f 372/1/5 370/1/5 371/1/5
f 375/2/5 374/2/5 373/2/5
f 376/2/5 374/2/5 375/2/5
f 379/2/5 378/2/5 377/2/5
f 380/2/5 378/2/5 379/2/5
f 385/2/5 382/2/5 381/2/5
f 386/2/5 384/2/5 383/2/5
f 387/2/5 385/2/5 381/2/5
f 387/2/5 386/2/5 385/2/5
f 388/2/5 384/2/5 386/2/5
f 388/2/5 386/2/5 387/2/5
f 391/2/5 390/2/5 389/2/5
f 392/2/5 390/2/5 391/2/5
f 395/2/5 394/2/5 393/2/5
f 396/2/5 394/2/5 395/2/5
f 397/2/5 395/2/5 393/2/5
f 398/2/5 395/2/5 397/2/5
f 400/2/5 394/2/5 396/2/5
f 401/2/5 397/2/5 393/2/5
f 403/2/5 400/2/5 399/2/5
f 404/2/5 394/2/5 400/2/5
f 404/2/5 400/2/5 403/2/5
f 405/2/5 402/2/5 401/2/5
f 406/2/5 394/2/5 404/2/5
f 407/2/5 405/2/5 401/2/5
f 407/2/5 406/2/5 405/2/5
f 407/2/5 401/2/5 393/2/5
f 408/2/5 394/2/5 406/2/5
f 408/2/5 406/2/5 407/2/5
f 411/2/5 410/2/5 409/2/5
f 412/2/5 410/2/5 411/2/5
f 415/1/5 414/1/5 413/1/5
f 416/1/5 414/1/5 415/1/5
f 419/1/5 418/1/5 417/1/5
f 420/1/5 418/1/5 419/1/5
f 423/2/5 422/2/5 421/2/5
f 424/2/5 422/2/5 423/2/5
f 427/2/5 426/2/5 425/2/5
f 428/2/5 426/2/5 427/2/5
f 429/2/6 430/2/6 432/2/6
f 432/2/6 430/2/6 433/2/6
f 433/2/6 430/2/6 434/2/6
f 431/2/6 432/2/6 436/2/6
f 432/2/6 433/2/6 436/2/6
f 436/2/6 433/2/6 437/2/6
f 437/2/6 433/2/6 438/2/6
f 434/2/6 435/2/6 439/2/6
f 439/2/6 435/2/6 440/2/6
f 437/2/6 438/2/6 441/2/6
f 438/2/6 439/2/6 441/2/6
f 441/2/6 439/2/6 442/2/6
f 443/2/6 444/2/6 445/2/6
f 445/2/6 444/2/6 446/2/6
f 443/2/6 445/2/6 447/2/6
f 447/2/6 445/2/6 448/2/6
f 443/2/6 447/2/6 449/2/6
f 448/2/6 445/2/6 450/2/6
f 450/2/6 445/2/6 451/2/6
f 449/2/6 450/2/6 451/2/6
f 446/2/6 444/2/6 452/2/6
f 449/2/6 451/2/6 453/2/6
f 451/2/6 452/2/6 453/2/6
f 443/2/6 449/2/6 453/2/6
f 452/2/6 444/2/6 454/2/6
f 453/2/6 452/2/6 454/2/6
f 455/1/6 456/1/6 457/1/6
f 457/1/6 456/1/6 458/1/6
f 459/2/6 460/2/6 461/2/6
f 461/2/6 460/2/6 462/2/6
f 463/2/6 464/2/6 465/2/6
f 465/2/6 464/2/6 466/2/6
f 467/2/6 468/2/6 469/2/6
f 469/2/6 468/2/6 470/2/6
f 471/2/6 472/2/6 475/2/6
f 475/2/6 472/2/6 476/2/6
f 473/2/6 474/2/6 477/2/6
f 477/2/6 474/2/6 478/2/6
f 479/2/6 480/2/6 483/2/6
f 481/2/6 482/2/6 484/2/6
f 479/2/6 483/2/6 485/2/6
f 483/2/6 484/2/6 485/2/6
f 484/2/6 482/2/6 486/2/6
f 485/2/6 484/2/6 486/2/6
f 487/2/6 488/2/6 489/2/6
f 489/2/6 488/2/6 490/2/6
f 491/1/6 492/1/6 493/1/6
f 493/1/6 492/1/6 494/1/6
f 495/1/6 496/1/6 497/1/6
f 497/1/6 496/1/6 498/1/6
f 499/2/6 500/2/6 501/2/6
f 501/2/6 500/2/6 502/2/6
f 503/1/6 504/1/6 505/1/6
f 505/1/6 504/1/6 506/1/6
f 507/1/6 508/1/6 509/1/6
f 509/1/6 508/1/6 510/1/6
f 511/1/6 512/1/6 513/1/6
f 513/1/6 512/1/6 514/1/6
f 515/2/6 516/2/6 519/2/6
f 517/2/6 518/2/6 520/2/6
f 515/2/6 519/2/6 521/2/6
f 519/2/6 520/2/6 521/2/6
f 520/2/6 518/2/6 522/2/6
f 521/2/6 520/2/6 522/2/6
f 515/2/6 521/2/6 523/2/6
f 523/2/6 521/2/6 524/2/6
f 522/2/6 518/2/6 525/2/6
f 525/2/6 518/2/6 526/2/6
f 527/2/6 528/2/6 529/2/6
f 529/2/6 528/2/6 530/2/6
f 531/2/6 532/2/6 533/2/6
f 533/2/6 532/2/6 534/2/6
