# MagicaVoxel @ Ephtracy

# group
o 

# material
mtllib env_9.mtl
usemtl palette

# normals
vn -1 0 0
vn 1 0 0
vn 0 0 1
vn 0 0 -1
vn 0 -1 0
vn 0 1 0

# texcoords
vt 0.537109 0.5
vt 0.599609 0.5

# verts
v -0.7 0 0.4
v -0.7 0 -0.8
v -0.7 0.1 0.4
v -0.7 0.1 -0.8
v -0.6 0 0.5
v -0.6 0 0.4
v -0.6 0 -0.8
v -0.6 0 -0.9
v -0.6 0.1 0.5
v -0.6 0.1 0.4
v -0.6 0.1 -0.8
v -0.6 0.1 -0.9
v -0.5 0.1 0.4
v -0.5 0.1 -0.8
v -0.5 0.2 0.4
v -0.5 0.2 -0.8
v -0.5 2 0.2
v -0.5 2 -0.5
v -0.5 2.1 0.2
v -0.5 2.1 -0.5
v -0.4 2 0.3
v -0.4 2 0.2
v -0.4 2 -0.5
v -0.4 2 -0.7
v -0.4 2.1 0.3
v -0.4 2.1 0.2
v -0.4 2.1 -0.5
v -0.4 2.1 -0.7
v -0.3 1.3 0.2
v -0.3 1.3 -0.6
v -0.3 2 0.4
v -0.3 2 0.3
v -0.3 2 0.2
v -0.3 2 -0.6
v -0.3 2 -0.7
v -0.3 2 -0.8
v -0.3 2.1 0.4
v -0.3 2.1 0.3
v -0.3 2.1 0.1
v -0.3 2.1 -0.5
v -0.3 2.1 -0.7
v -0.3 2.1 -0.8
v -0.3 2.3 0.1
v -0.3 2.3 -0.5
v -0.2 0.2 0.1
v -0.2 0.2 -0.5
v -0.2 1.1 0.1
v -0.2 1.1 0
v -0.2 1.1 -0.4
v -0.2 1.1 -0.5
v -0.2 1.3 0
v -0.2 1.3 -0.4
v -0.2 2 0.5
v -0.2 2 0.4
v -0.2 2 -0.8
v -0.2 2 -0.9
v -0.2 2.1 0.5
v -0.2 2.1 0.4
v -0.2 2.1 0.2
v -0.2 2.1 0.1
v -0.2 2.1 -0.5
v -0.2 2.1 -0.6
v -0.2 2.1 -0.8
v -0.2 2.1 -0.9
v -0.2 2.3 0.2
v -0.2 2.3 0.1
v -0.2 2.3 -0.5
v -0.2 2.3 -0.6
v -0.1 0.6 -0.5
v -0.1 0.6 -0.8
v -0.1 0.8 -0.5
v -0.1 0.8 -0.6
v -0.1 0.9 0.7
v -0.1 0.9 0.1
v -0.1 0.9 -0.5
v -0.1 0.9 -0.6
v -0.1 1 -0.7
v -0.1 1 -0.8
v -0.1 1.1 0.1
v -0.1 1.1 0
v -0.1 1.1 -0.4
v -0.1 1.1 -0.5
v -0.1 1.2 0.7
v -0.1 1.2 0.1
v -0.1 1.2 -0.5
v -0.1 1.2 -0.7
v -0.1 1.3 0.1
v -0.1 1.3 0
v -0.1 1.3 -0.4
v -0.1 1.3 -0.5
v -0.1 1.7 0.3
v -0.1 1.7 0.2
v -0.1 1.7 -0.6
v -0.1 1.7 -0.7
v -0.1 2 0.3
v -0.1 2 0.2
v -0.1 2 -0.6
v -0.1 2 -0.7
v 0 0.1 0.7
v 0 0.1 0.6
v 0 0.9 0.7
v 0 0.9 0.6
v 0 1.2 0.7
v 0 1.2 0.6
v 0 1.5 0.9
v 0 1.5 0.7
v 0 1.5 0.6
v 0 1.5 0.4
v 0 1.6 0.8
v 0 1.6 0.7
v 0 1.6 0.6
v 0 1.6 0.5
v 0 1.9 0.9
v 0 1.9 0.8
v 0 1.9 0.7
v 0 1.9 0.6
v 0 1.9 0.5
v 0 1.9 0.4
v 0 2 -0.8
v 0 2 -0.9
v 0 2.1 -0.8
v 0 2.1 -0.9
v 0.3 0.2 0.2
v 0.3 0.2 -0.6
v 0.3 0.3 0.2
v 0.3 0.3 -0.6
v -0.1 2 -0.8
v -0.1 2 -0.9
v -0.1 2.1 -0.8
v -0.1 2.1 -0.9
v 0.1 0.1 0.7
v 0.1 0.1 0.6
v 0.1 0.9 0.7
v 0.1 0.9 0.6
v 0.1 1.2 0.7
v 0.1 1.2 0.6
v 0.1 1.5 0.9
v 0.1 1.5 0.7
v 0.1 1.5 0.6
v 0.1 1.5 0.4
v 0.1 1.6 0.8
v 0.1 1.6 0.7
v 0.1 1.6 0.6
v 0.1 1.6 0.5
v 0.1 1.9 0.9
v 0.1 1.9 0.8
v 0.1 1.9 0.7
v 0.1 1.9 0.6
v 0.1 1.9 0.5
v 0.1 1.9 0.4
v 0.2 0.2 0.1
v 0.2 0.2 -0.5
v 0.2 0.5 0.1
v 0.2 0.5 -0.5
v 0.2 0.6 -0.5
v 0.2 0.6 -0.8
v 0.2 0.8 -0.5
v 0.2 0.8 -0.6
v 0.2 0.9 0.7
v 0.2 0.9 0.1
v 0.2 0.9 -0.5
v 0.2 0.9 -0.6
v 0.2 1 -0.7
v 0.2 1 -0.8
v 0.2 1.1 0
v 0.2 1.1 -0.4
v 0.2 1.2 0.7
v 0.2 1.2 0.1
v 0.2 1.2 -0.5
v 0.2 1.2 -0.7
v 0.2 1.3 0
v 0.2 1.3 -0.4
v 0.2 1.7 0.3
v 0.2 1.7 0.2
v 0.2 1.7 -0.6
v 0.2 1.7 -0.7
v 0.2 2 0.3
v 0.2 2 0.2
v 0.2 2 -0.6
v 0.2 2 -0.7
v 0.3 0.5 0.1
v 0.3 0.5 -0.5
v 0.3 1.1 0
v 0.3 1.1 -0.4
v 0.3 1.3 0.1
v 0.3 1.3 0
v 0.3 1.3 -0.4
v 0.3 1.3 -0.5
v 0.3 2 0.5
v 0.3 2 0.4
v 0.3 2 -0.8
v 0.3 2 -0.9
v 0.3 2.1 0.5
v 0.3 2.1 0.4
v 0.3 2.1 0.2
v 0.3 2.1 0.1
v 0.3 2.1 -0.5
v 0.3 2.1 -0.6
v 0.3 2.1 -0.8
v 0.3 2.1 -0.9
v 0.3 2.3 0.2
v 0.3 2.3 0.1
v 0.3 2.3 -0.5
v 0.3 2.3 -0.6
v 0.4 1.3 0.2
v 0.4 1.3 -0.6
v 0.4 1.4 -0.1
v 0.4 1.4 -0.3
v 0.4 1.7 -0.1
v 0.4 1.7 -0.3
v 0.4 2 0.4
v 0.4 2 0.3
v 0.4 2 0.2
v 0.4 2 -0.6
v 0.4 2.1 0.4
v 0.4 2.1 0.3
v 0.4 2.1 0.1
v 0.4 2.1 -0.5
v 0.4 2.3 0.1
v 0.4 2.3 -0.5
v 0.5 1.4 -0.1
v 0.5 1.4 -0.3
v 0.5 1.7 -0.1
v 0.5 1.7 -0.3
v 0.5 2 0.3
v 0.5 2 0.1
v 0.5 2 -0.3
v 0.5 2 -0.4
v 0.5 2 -0.6
v 0.5 2 -0.8
v 0.5 2.1 0.3
v 0.5 2.1 0.1
v 0.5 2.1 -0.3
v 0.5 2.1 -0.4
v 0.5 2.1 -0.6
v 0.5 2.1 -0.8
v 0.6 0.2 0.2
v 0.6 0.2 -0.6
v 0.6 0.3 0.2
v 0.6 0.3 -0.6
v 0.6 2 0.1
v 0.6 2 -0.3
v 0.6 2 -0.4
v 0.6 2 -0.6
v 0.6 2.1 0.1
v 0.6 2.1 -0.3
v 0.6 2.1 -0.4
v 0.6 2.1 -0.6
v 0.7 0 0.5
v 0.7 0 0.4
v 0.7 0 -0.8
v 0.7 0 -0.9
v 0.7 0.1 0.5
v 0.7 0.1 0.4
v 0.7 0.1 -0.8
v 0.7 0.1 -0.9
v 0.7 0.2 0.4
v 0.7 0.2 -0.8
v 0.8 0 0.4
v 0.8 0 -0.8
v 0.8 0.1 0.4
v 0.8 0.1 -0.8
v 0 1.5 0.9
v 0 1.9 0.9
v 0.1 1.5 0.9
v 0.1 1.9 0.9
v -0.1 0.9 0.7
v -0.1 1.2 0.7
v 0 0.1 0.7
v 0 0.9 0.7
v 0 1.2 0.7
v 0 1.5 0.7
v 0 1.6 0.7
v 0 1.9 0.7
v 0.1 0.1 0.7
v 0.1 0.9 0.7
v 0.1 1.2 0.7
v 0.1 1.5 0.7
v 0.1 1.6 0.7
v 0.1 1.9 0.7
v 0.2 0.9 0.7
v 0.2 1.2 0.7
v -0.6 0 0.5
v -0.6 0.1 0.5
v -0.2 2 0.5
v -0.2 2.1 0.5
v 0 1.6 0.5
v 0 1.9 0.5
v 0.1 1.6 0.5
v 0.1 1.9 0.5
v 0.3 2 0.5
v 0.3 2.1 0.5
v 0.7 0 0.5
v 0.7 0.1 0.5
v -0.7 0 0.4
v -0.7 0.1 0.4
v -0.6 0 0.4
v -0.6 0.1 0.4
v -0.5 0.1 0.4
v -0.5 0.2 0.4
v -0.3 2 0.4
v -0.3 2.1 0.4
v -0.2 2 0.4
v -0.2 2.1 0.4
v 0.3 2 0.4
v 0.3 2.1 0.4
v 0.4 2 0.4
v 0.4 2.1 0.4
v 0.7 0 0.4
v 0.7 0.1 0.4
v 0.7 0.2 0.4
v 0.8 0 0.4
v 0.8 0.1 0.4
v -0.4 2 0.3
v -0.4 2.1 0.3
v -0.3 2 0.3
v -0.3 2.1 0.3
v -0.1 1.7 0.3
v -0.1 2 0.3
v 0.2 1.7 0.3
v 0.2 2 0.3
v 0.4 2 0.3
v 0.4 2.1 0.3
v 0.5 2 0.3
v 0.5 2.1 0.3
v -0.5 2 0.2
v -0.5 2.1 0.2
v -0.4 2 0.2
v -0.4 2.1 0.2
v -0.3 1.3 0.2
v -0.3 2 0.2
v -0.2 2.1 0.2
v -0.2 2.3 0.2
v -0.1 1.7 0.2
v -0.1 2 0.2
v 0.2 1.7 0.2
v 0.2 2 0.2
v 0.3 0.2 0.2
v 0.3 0.3 0.2
v 0.3 2.1 0.2
v 0.3 2.3 0.2
v 0.4 1.3 0.2
v 0.4 2 0.2
v 0.6 0.2 0.2
v 0.6 0.3 0.2
v -0.3 2.1 0.1
v -0.3 2.3 0.1
v -0.2 0.2 0.1
v -0.2 1.1 0.1
v -0.2 2.1 0.1
v -0.2 2.3 0.1
v -0.1 0.9 0.1
v -0.1 1.1 0.1
v -0.1 1.2 0.1
v -0.1 1.3 0.1
v 0.2 0.2 0.1
v 0.2 0.5 0.1
v 0.2 0.9 0.1
v 0.2 1.2 0.1
v 0.3 0.5 0.1
v 0.3 1.3 0.1
v 0.3 2.1 0.1
v 0.3 2.3 0.1
v 0.4 2.1 0.1
v 0.4 2.3 0.1
v 0.5 2 0.1
v 0.5 2.1 0.1
v 0.6 2 0.1
v 0.6 2.1 0.1
v -0.2 1.1 0
v -0.2 1.3 0
v -0.1 1.1 0
v -0.1 1.3 0
v 0.4 1.4 -0.1
v 0.4 1.7 -0.1
v 0.5 1.4 -0.1
v 0.5 1.7 -0.1
v 0.2 1.1 -0.4
v 0.2 1.3 -0.4
v 0.3 1.1 -0.4
v 0.3 1.3 -0.4
v 0.5 2 -0.4
v 0.5 2.1 -0.4
v 0.6 2 -0.4
v 0.6 2.1 -0.4
v -0.1 0.8 -0.6
v -0.1 0.9 -0.6
v 0.2 0.8 -0.6
v 0.2 0.9 -0.6
v 0 1.6 0.8
v 0 1.9 0.8
v 0.1 1.6 0.8
v 0.1 1.9 0.8
v 0 0.1 0.6
v 0 0.9 0.6
v 0 1.2 0.6
v 0 1.5 0.6
v 0 1.6 0.6
v 0 1.9 0.6
v 0.1 0.1 0.6
v 0.1 0.9 0.6
v 0.1 1.2 0.6
v 0.1 1.5 0.6
v 0.1 1.6 0.6
v 0.1 1.9 0.6
v 0 1.5 0.4
v 0 1.9 0.4
v 0.1 1.5 0.4
v 0.1 1.9 0.4
v 0.2 1.1 0
v 0.2 1.3 0
v 0.3 1.1 0
v 0.3 1.3 0
v 0.4 1.4 -0.3
v 0.4 1.7 -0.3
v 0.5 1.4 -0.3
v 0.5 1.7 -0.3
v 0.5 2 -0.3
v 0.5 2.1 -0.3
v 0.6 2 -0.3
v 0.6 2.1 -0.3
v -0.2 1.1 -0.4
v -0.2 1.3 -0.4
v -0.1 1.1 -0.4
v -0.1 1.3 -0.4
v -0.5 2 -0.5
v -0.5 2.1 -0.5
v -0.4 2 -0.5
v -0.4 2.1 -0.5
v -0.3 2.1 -0.5
v -0.3 2.3 -0.5
v -0.2 0.2 -0.5
v -0.2 1.1 -0.5
v -0.2 2.1 -0.5
v -0.2 2.3 -0.5
v -0.1 0.6 -0.5
v -0.1 0.8 -0.5
v -0.1 0.9 -0.5
v -0.1 1.1 -0.5
v -0.1 1.2 -0.5
v -0.1 1.3 -0.5
v 0.2 0.2 -0.5
v 0.2 0.5 -0.5
v 0.2 0.6 -0.5
v 0.2 0.8 -0.5
v 0.2 0.9 -0.5
v 0.2 1.2 -0.5
v 0.3 0.5 -0.5
v 0.3 1.3 -0.5
v 0.3 2.1 -0.5
v 0.3 2.3 -0.5
v 0.4 2.1 -0.5
v 0.4 2.3 -0.5
v -0.3 1.3 -0.6
v -0.3 2 -0.6
v -0.2 2.1 -0.6
v -0.2 2.3 -0.6
v -0.1 1.7 -0.6
v -0.1 2 -0.6
v 0.2 1.7 -0.6
v 0.2 2 -0.6
v 0.3 0.2 -0.6
v 0.3 0.3 -0.6
v 0.3 2.1 -0.6
v 0.3 2.3 -0.6
v 0.4 1.3 -0.6
v 0.4 2 -0.6
v 0.5 2 -0.6
v 0.5 2.1 -0.6
v 0.6 0.2 -0.6
v 0.6 0.3 -0.6
v 0.6 2 -0.6
v 0.6 2.1 -0.6
v -0.4 2 -0.7
v -0.4 2.1 -0.7
v -0.3 2 -0.7
v -0.3 2.1 -0.7
v -0.1 1 -0.7
v -0.1 1.2 -0.7
v -0.1 1.7 -0.7
v -0.1 2 -0.7
v 0.2 1 -0.7
v 0.2 1.2 -0.7
v 0.2 1.7 -0.7
v 0.2 2 -0.7
v -0.7 0 -0.8
v -0.7 0.1 -0.8
v -0.6 0 -0.8
v -0.6 0.1 -0.8
v -0.5 0.1 -0.8
v -0.5 0.2 -0.8
v -0.3 2 -0.8
v -0.3 2.1 -0.8
v -0.2 2 -0.8
v -0.2 2.1 -0.8
v -0.1 0.6 -0.8
v -0.1 1 -0.8
v -0.1 2 -0.8
v -0.1 2.1 -0.8
v 0 2 -0.8
v 0 2.1 -0.8
v 0.2 0.6 -0.8
v 0.2 1 -0.8
v 0.3 2 -0.8
v 0.3 2.1 -0.8
v 0.5 2 -0.8
v 0.5 2.1 -0.8
v 0.7 0 -0.8
v 0.7 0.1 -0.8
v 0.7 0.2 -0.8
v 0.8 0 -0.8
v 0.8 0.1 -0.8
v -0.6 0 -0.9
v -0.6 0.1 -0.9
v -0.2 2 -0.9
v -0.2 2.1 -0.9
v -0.1 2 -0.9
v -0.1 2.1 -0.9
v 0 2 -0.9
v 0 2.1 -0.9
v 0.3 2 -0.9
v 0.3 2.1 -0.9
v 0.7 0 -0.9
v 0.7 0.1 -0.9
v -0.6 0 0.5
v 0.7 0 0.5
v -0.7 0 0.4
v -0.6 0 0.4
v 0.7 0 0.4
v 0.8 0 0.4
v -0.7 0 -0.8
v -0.6 0 -0.8
v 0.7 0 -0.8
v 0.8 0 -0.8
v -0.6 0 -0.9
v 0.7 0 -0.9
v 0 0.1 0.7
v 0.1 0.1 0.7
v 0 0.1 0.6
v 0.1 0.1 0.6
v 0.2 0.5 0.1
v 0.3 0.5 0.1
v 0.2 0.5 -0.5
v 0.3 0.5 -0.5
v -0.1 0.6 -0.5
v 0.2 0.6 -0.5
v -0.1 0.6 -0.8
v 0.2 0.6 -0.8
v -0.1 0.9 0.7
v 0 0.9 0.7
v 0.1 0.9 0.7
v 0.2 0.9 0.7
v 0 0.9 0.6
v 0.1 0.9 0.6
v -0.1 0.9 0.1
v 0.2 0.9 0.1
v -0.1 0.9 -0.5
v 0.2 0.9 -0.5
v -0.1 0.9 -0.6
v 0.2 0.9 -0.6
v -0.3 1.3 0.2
v 0.4 1.3 0.2
v -0.1 1.3 0.1
v 0.3 1.3 0.1
v -0.2 1.3 0
v -0.1 1.3 0
v 0.2 1.3 0
v 0.3 1.3 0
v -0.2 1.3 -0.4
v -0.1 1.3 -0.4
v 0.2 1.3 -0.4
v 0.3 1.3 -0.4
v -0.1 1.3 -0.5
v 0.3 1.3 -0.5
v -0.3 1.3 -0.6
v 0.4 1.3 -0.6
v 0.4 1.4 -0.1
v 0.5 1.4 -0.1
v 0.4 1.4 -0.3
v 0.5 1.4 -0.3
v 0 1.5 0.9
v 0.1 1.5 0.9
v 0 1.5 0.7
v 0.1 1.5 0.7
v 0 1.5 0.6
v 0.1 1.5 0.6
v 0 1.5 0.4
v 0.1 1.5 0.4
v -0.1 1.7 0.3
v 0.2 1.7 0.3
v -0.1 1.7 0.2
v 0.2 1.7 0.2
v -0.1 1.7 -0.6
v 0.2 1.7 -0.6
v -0.1 1.7 -0.7
v 0.2 1.7 -0.7
v -0.2 2 0.5
v 0.3 2 0.5
v -0.3 2 0.4
v -0.2 2 0.4
v 0.3 2 0.4
v 0.4 2 0.4
v -0.4 2 0.3
v -0.3 2 0.3
v -0.1 2 0.3
v 0.2 2 0.3
v 0.4 2 0.3
v 0.5 2 0.3
v -0.5 2 0.2
v -0.4 2 0.2
v -0.3 2 0.2
v -0.1 2 0.2
v 0.2 2 0.2
v 0.4 2 0.2
v 0.5 2 0.1
v 0.6 2 0.1
v 0.5 2 -0.3
v 0.6 2 -0.3
v 0.5 2 -0.4
v 0.6 2 -0.4
v -0.5 2 -0.5
v -0.4 2 -0.5
v -0.3 2 -0.6
v -0.1 2 -0.6
v 0.2 2 -0.6
v 0.4 2 -0.6
v 0.5 2 -0.6
v 0.6 2 -0.6
v -0.4 2 -0.7
v -0.3 2 -0.7
v -0.1 2 -0.7
v 0.2 2 -0.7
v -0.3 2 -0.8
v -0.2 2 -0.8
v -0.1 2 -0.8
v 0 2 -0.8
v 0.3 2 -0.8
v 0.5 2 -0.8
v -0.2 2 -0.9
v -0.1 2 -0.9
v 0 2 -0.9
v 0.3 2 -0.9
v -0.6 0.1 0.5
v 0.7 0.1 0.5
v -0.7 0.1 0.4
v -0.6 0.1 0.4
v -0.5 0.1 0.4
v 0.7 0.1 0.4
v 0.8 0.1 0.4
v -0.7 0.1 -0.8
v -0.6 0.1 -0.8
v -0.5 0.1 -0.8
v 0.7 0.1 -0.8
v 0.8 0.1 -0.8
v -0.6 0.1 -0.9
v 0.7 0.1 -0.9
v -0.5 0.2 0.4
v 0.7 0.2 0.4
v 0.3 0.2 0.2
v 0.6 0.2 0.2
v -0.2 0.2 0.1
v 0.2 0.2 0.1
v -0.2 0.2 -0.5
v 0.2 0.2 -0.5
v 0.3 0.2 -0.6
v 0.6 0.2 -0.6
v -0.5 0.2 -0.8
v 0.7 0.2 -0.8
v 0.3 0.3 0.2
v 0.6 0.3 0.2
v 0.3 0.3 -0.6
v 0.6 0.3 -0.6
v -0.1 0.8 -0.5
v 0.2 0.8 -0.5
v -0.1 0.8 -0.6
v 0.2 0.8 -0.6
v -0.1 1 -0.7
v 0.2 1 -0.7
v -0.1 1 -0.8
v 0.2 1 -0.8
v -0.2 1.1 0.1
v -0.1 1.1 0.1
v -0.2 1.1 0
v -0.1 1.1 0
v 0.2 1.1 0
v 0.3 1.1 0
v -0.2 1.1 -0.4
v -0.1 1.1 -0.4
v 0.2 1.1 -0.4
v 0.3 1.1 -0.4
v -0.2 1.1 -0.5
v -0.1 1.1 -0.5
v -0.1 1.2 0.7
v 0 1.2 0.7
v 0.1 1.2 0.7
v 0.2 1.2 0.7
v 0 1.2 0.6
v 0.1 1.2 0.6
v -0.1 1.2 0.1
v 0.2 1.2 0.1
v -0.1 1.2 -0.5
v 0.2 1.2 -0.5
v -0.1 1.2 -0.7
v 0.2 1.2 -0.7
v 0 1.6 0.8
v 0.1 1.6 0.8
v 0 1.6 0.7
v 0.1 1.6 0.7
v 0 1.6 0.6
v 0.1 1.6 0.6
v 0 1.6 0.5
v 0.1 1.6 0.5
v 0.4 1.7 -0.1
v 0.5 1.7 -0.1
v 0.4 1.7 -0.3
v 0.5 1.7 -0.3
v 0 1.9 0.9
v 0.1 1.9 0.9
v 0 1.9 0.8
v 0.1 1.9 0.8
v 0 1.9 0.7
v 0.1 1.9 0.7
v 0 1.9 0.6
v 0.1 1.9 0.6
v 0 1.9 0.5
v 0.1 1.9 0.5
v 0 1.9 0.4
v 0.1 1.9 0.4
v -0.2 2.1 0.5
v 0.3 2.1 0.5
v -0.3 2.1 0.4
v -0.2 2.1 0.4
v 0.3 2.1 0.4
v 0.4 2.1 0.4
v -0.4 2.1 0.3
v -0.3 2.1 0.3
v 0.4 2.1 0.3
v 0.5 2.1 0.3
v -0.5 2.1 0.2
v -0.4 2.1 0.2
v -0.2 2.1 0.2
v 0.3 2.1 0.2
v -0.3 2.1 0.1
v -0.2 2.1 0.1
v 0.3 2.1 0.1
v 0.4 2.1 0.1
v 0.5 2.1 0.1
v 0.6 2.1 0.1
v 0.5 2.1 -0.3
v 0.6 2.1 -0.3
v 0.5 2.1 -0.4
v 0.6 2.1 -0.4
v -0.5 2.1 -0.5
v -0.4 2.1 -0.5
v -0.3 2.1 -0.5
v -0.2 2.1 -0.5
v 0.3 2.1 -0.5
v 0.4 2.1 -0.5
v -0.2 2.1 -0.6
v 0.3 2.1 -0.6
v 0.5 2.1 -0.6
v 0.6 2.1 -0.6
v -0.4 2.1 -0.7
v -0.3 2.1 -0.7
v -0.3 2.1 -0.8
v -0.2 2.1 -0.8
v -0.1 2.1 -0.8
v 0 2.1 -0.8
v 0.3 2.1 -0.8
v 0.5 2.1 -0.8
v -0.2 2.1 -0.9
v -0.1 2.1 -0.9
v 0 2.1 -0.9
v 0.3 2.1 -0.9
v -0.2 2.3 0.2
v 0.3 2.3 0.2
v -0.3 2.3 0.1
v -0.2 2.3 0.1
v 0.3 2.3 0.1
v 0.4 2.3 0.1
v -0.3 2.3 -0.5
v -0.2 2.3 -0.5
v 0.3 2.3 -0.5
v 0.4 2.3 -0.5
v -0.2 2.3 -0.6
v 0.3 2.3 -0.6

# faces
f 3/2/1 2/2/1 1/2/1
f 4/2/1 2/2/1 3/2/1
f 9/2/1 6/2/1 5/2/1
f 10/2/1 6/2/1 9/2/1
f 11/2/1 8/2/1 7/2/1
f 12/2/1 8/2/1 11/2/1
f 15/2/1 14/2/1 13/2/1
f 16/2/1 14/2/1 15/2/1
f 19/1/1 18/1/1 17/1/1
f 20/1/1 18/1/1 19/1/1
f 25/1/1 22/1/1 21/1/1
f 26/1/1 22/1/1 25/1/1
f 27/1/1 24/1/1 23/1/1
f 28/1/1 24/1/1 27/1/1
f 33/2/1 30/2/1 29/2/1
f 34/2/1 30/2/1 33/2/1
f 37/1/1 32/1/1 31/1/1
f 38/1/1 32/1/1 37/1/1
f 41/1/1 36/1/1 35/1/1
f 42/1/1 36/1/1 41/1/1
f 43/1/1 40/1/1 39/1/1
f 44/1/1 40/1/1 43/1/1
f 47/2/1 46/2/1 45/2/1
f 48/2/1 46/2/1 47/2/1
f 49/2/1 46/2/1 48/2/1
f 50/2/1 46/2/1 49/2/1
f 51/2/1 49/2/1 48/2/1
f 52/2/1 49/2/1 51/2/1
f 57/1/1 54/1/1 53/1/1
f 58/1/1 54/1/1 57/1/1
f 63/1/1 56/1/1 55/1/1
f 64/1/1 56/1/1 63/1/1
f 65/1/1 60/1/1 59/1/1
f 66/1/1 60/1/1 65/1/1
f 67/1/1 62/1/1 61/1/1
f 68/1/1 62/1/1 67/1/1
f 71/2/1 70/2/1 69/2/1
f 72/2/1 70/2/1 71/2/1
f 76/2/1 70/2/1 72/2/1
f 77/2/1 70/2/1 76/2/1
f 77/2/1 76/2/1 75/2/1
f 78/2/1 70/2/1 77/2/1
f 79/2/1 74/2/1 73/2/1
f 82/2/1 77/2/1 75/2/1
f 83/2/1 80/2/1 79/2/1
f 83/2/1 79/2/1 73/2/1
f 84/2/1 80/2/1 83/2/1
f 85/2/1 82/2/1 81/2/1
f 85/2/1 77/2/1 82/2/1
f 86/2/1 77/2/1 85/2/1
f 87/2/1 80/2/1 84/2/1
f 88/2/1 80/2/1 87/2/1
f 89/2/1 85/2/1 81/2/1
f 90/2/1 85/2/1 89/2/1
f 95/2/1 92/2/1 91/2/1
f 96/2/1 92/2/1 95/2/1
f 97/2/1 94/2/1 93/2/1
f 98/2/1 94/2/1 97/2/1
f 101/1/1 100/1/1 99/1/1
f 102/1/1 100/1/1 101/1/1
f 106/1/1 104/1/1 103/1/1
f 107/1/1 104/1/1 106/1/1
f 109/1/1 107/1/1 106/1/1
f 109/1/1 108/1/1 107/1/1
f 109/1/1 106/1/1 105/1/1
f 110/1/1 108/1/1 109/1/1
f 111/1/1 108/1/1 110/1/1
f 112/1/1 108/1/1 111/1/1
f 113/1/1 109/1/1 105/1/1
f 114/1/1 109/1/1 113/1/1
f 115/1/1 111/1/1 110/1/1
f 116/1/1 111/1/1 115/1/1
f 117/1/1 108/1/1 112/1/1
f 118/1/1 108/1/1 117/1/1
f 121/1/1 120/1/1 119/1/1
f 122/1/1 120/1/1 121/1/1
f 125/1/1 124/1/1 123/1/1
f 126/1/1 124/1/1 125/1/1
f 127/1/2 128/1/2 129/1/2
f 129/1/2 128/1/2 130/1/2
f 131/1/2 132/1/2 133/1/2
f 133/1/2 132/1/2 134/1/2
f 135/1/2 136/1/2 138/1/2
f 138/1/2 136/1/2 139/1/2
f 138/1/2 139/1/2 141/1/2
f 139/1/2 140/1/2 141/1/2
f 137/1/2 138/1/2 141/1/2
f 141/1/2 140/1/2 142/1/2
f 142/1/2 140/1/2 143/1/2
f 143/1/2 140/1/2 144/1/2
f 137/1/2 141/1/2 145/1/2
f 145/1/2 141/1/2 146/1/2
f 142/1/2 143/1/2 147/1/2
f 147/1/2 143/1/2 148/1/2
f 144/1/2 140/1/2 149/1/2
f 149/1/2 140/1/2 150/1/2
f 151/2/2 152/2/2 153/2/2
f 153/2/2 152/2/2 154/2/2
f 155/2/2 156/2/2 157/2/2
f 157/2/2 156/2/2 158/2/2
f 158/2/2 156/2/2 162/2/2
f 162/2/2 156/2/2 163/2/2
f 161/2/2 162/2/2 163/2/2
f 163/2/2 156/2/2 164/2/2
f 159/2/2 160/2/2 167/2/2
f 167/2/2 160/2/2 168/2/2
f 161/2/2 163/2/2 169/2/2
f 169/2/2 163/2/2 170/2/2
f 165/2/2 166/2/2 171/2/2
f 171/2/2 166/2/2 172/2/2
f 173/2/2 174/2/2 177/2/2
f 177/2/2 174/2/2 178/2/2
f 175/2/2 176/2/2 179/2/2
f 179/2/2 176/2/2 180/2/2
f 181/2/2 182/2/2 183/2/2
f 183/2/2 182/2/2 184/2/2
f 181/2/2 183/2/2 185/2/2
f 185/2/2 183/2/2 186/2/2
f 184/2/2 182/2/2 187/2/2
f 187/2/2 182/2/2 188/2/2
f 189/1/2 190/1/2 193/1/2
f 193/1/2 190/1/2 194/1/2
f 191/1/2 192/1/2 199/1/2
f 199/1/2 192/1/2 200/1/2
f 195/1/2 196/1/2 201/1/2
f 201/1/2 196/1/2 202/1/2
f 197/1/2 198/1/2 203/1/2
f 203/1/2 198/1/2 204/1/2
f 205/2/2 206/2/2 207/2/2
f 207/2/2 206/2/2 208/2/2
f 205/2/2 207/2/2 209/2/2
f 208/2/2 206/2/2 210/2/2
f 205/2/2 209/2/2 213/2/2
f 209/2/2 210/2/2 213/2/2
f 210/2/2 206/2/2 214/2/2
f 213/2/2 210/2/2 214/2/2
f 211/1/2 212/1/2 215/1/2
f 215/1/2 212/1/2 216/1/2
f 217/1/2 218/1/2 219/1/2
f 219/1/2 218/1/2 220/1/2
f 221/2/2 222/2/2 223/2/2
f 223/2/2 222/2/2 224/2/2
f 225/1/2 226/1/2 231/1/2
f 231/1/2 226/1/2 232/1/2
f 227/1/2 228/1/2 233/1/2
f 233/1/2 228/1/2 234/1/2
f 229/1/2 230/1/2 235/1/2
f 235/1/2 230/1/2 236/1/2
f 237/1/2 238/1/2 239/1/2
f 239/1/2 238/1/2 240/1/2
f 241/1/2 242/1/2 245/1/2
f 245/1/2 242/1/2 246/1/2
f 243/1/2 244/1/2 247/1/2
f 247/1/2 244/1/2 248/1/2
f 249/2/2 250/2/2 253/2/2
f 253/2/2 250/2/2 254/2/2
f 251/2/2 252/2/2 255/2/2
f 255/2/2 252/2/2 256/2/2
f 254/2/2 255/2/2 257/2/2
f 257/2/2 255/2/2 258/2/2
f 259/2/2 260/2/2 261/2/2
f 261/2/2 260/2/2 262/2/2
f 265/1/3 264/1/3 263/1/3
f 266/1/3 264/1/3 265/1/3
f 270/2/3 268/2/3 267/2/3
f 271/2/3 268/2/3 270/2/3
f 275/1/3 270/1/3 269/1/3
f 276/2/3 271/2/3 270/2/3
f 276/1/3 270/1/3 275/1/3
f 277/1/3 272/1/3 271/1/3
f 277/2/3 271/2/3 276/2/3
f 278/1/3 272/1/3 277/1/3
f 279/1/3 274/1/3 273/1/3
f 280/1/3 274/1/3 279/1/3
f 281/2/3 277/2/3 276/2/3
f 282/2/3 277/2/3 281/2/3
f 289/1/3 288/1/3 287/1/3
f 290/1/3 288/1/3 289/1/3
f 291/1/3 286/1/3 285/1/3
f 292/1/3 286/1/3 291/1/3
f 293/2/3 284/2/3 283/2/3
f 294/2/3 284/2/3 293/2/3
f 297/2/3 296/2/3 295/2/3
f 298/2/3 296/2/3 297/2/3
f 303/1/3 302/1/3 301/1/3
f 304/1/3 302/1/3 303/1/3
f 307/1/3 306/1/3 305/1/3
f 308/1/3 306/1/3 307/1/3
f 310/2/3 300/2/3 299/2/3
f 311/2/3 300/2/3 310/2/3
f 312/2/3 310/2/3 309/2/3
f 313/2/3 310/2/3 312/2/3
f 316/1/3 315/1/3 314/1/3
f 317/1/3 315/1/3 316/1/3
f 320/2/3 319/2/3 318/2/3
f 321/2/3 319/2/3 320/2/3
f 324/1/3 323/1/3 322/1/3
f 325/1/3 323/1/3 324/1/3
f 328/1/3 327/1/3 326/1/3
f 329/1/3 327/1/3 328/1/3
f 334/2/3 331/2/3 330/2/3
f 335/2/3 331/2/3 334/2/3
f 336/2/3 334/2/3 330/2/3
f 340/1/3 333/1/3 332/1/3
f 341/1/3 333/1/3 340/1/3
f 342/2/3 337/2/3 336/2/3
f 342/2/3 336/2/3 330/2/3
f 343/2/3 337/2/3 342/2/3
f 344/1/3 339/1/3 338/1/3
f 345/1/3 339/1/3 344/1/3
f 350/1/3 347/1/3 346/1/3
f 351/1/3 347/1/3 350/1/3
f 352/2/3 349/2/3 348/2/3
f 353/2/3 349/2/3 352/2/3
f 356/2/3 352/2/3 348/2/3
f 357/2/3 352/2/3 356/2/3
f 358/2/3 352/2/3 357/2/3
f 359/2/3 355/2/3 354/2/3
f 360/2/3 358/2/3 357/2/3
f 360/2/3 359/2/3 358/2/3
f 361/2/3 355/2/3 359/2/3
f 361/2/3 359/2/3 360/2/3
f 364/1/3 363/1/3 362/1/3
f 365/1/3 363/1/3 364/1/3
f 368/1/3 367/1/3 366/1/3
f 369/1/3 367/1/3 368/1/3
f 372/2/3 371/2/3 370/2/3
f 373/2/3 371/2/3 372/2/3
f 376/2/3 375/2/3 374/2/3
f 377/2/3 375/2/3 376/2/3
f 380/2/3 379/2/3 378/2/3
f 381/2/3 379/2/3 380/2/3
f 384/1/3 383/1/3 382/1/3
f 385/1/3 383/1/3 384/1/3
f 388/2/3 387/2/3 386/2/3
f 389/2/3 387/2/3 388/2/3
f 390/1/4 391/1/4 392/1/4
f 392/1/4 391/1/4 393/1/4
f 394/1/4 395/1/4 400/1/4
f 400/1/4 395/1/4 401/1/4
f 396/1/4 397/1/4 402/1/4
f 402/1/4 397/1/4 403/1/4
f 398/1/4 399/1/4 404/1/4
f 404/1/4 399/1/4 405/1/4
f 406/1/4 407/1/4 408/1/4
f 408/1/4 407/1/4 409/1/4
f 410/2/4 411/2/4 412/2/4
f 412/2/4 411/2/4 413/2/4
f 414/2/4 415/2/4 416/2/4
f 416/2/4 415/2/4 417/2/4
f 418/1/4 419/1/4 420/1/4
f 420/1/4 419/1/4 421/1/4
f 422/2/4 423/2/4 424/2/4
f 424/2/4 423/2/4 425/2/4
f 426/1/4 427/1/4 428/1/4
f 428/1/4 427/1/4 429/1/4
f 430/1/4 431/1/4 434/1/4
f 434/1/4 431/1/4 435/1/4
f 432/2/4 433/2/4 436/2/4
f 436/2/4 433/2/4 437/2/4
f 437/2/4 433/2/4 438/2/4
f 438/2/4 433/2/4 439/2/4
f 432/2/4 436/2/4 442/2/4
f 442/2/4 436/2/4 443/2/4
f 443/2/4 436/2/4 444/2/4
f 437/2/4 438/2/4 445/2/4
f 445/2/4 438/2/4 446/2/4
f 440/2/4 441/2/4 447/2/4
f 445/2/4 446/2/4 448/2/4
f 446/2/4 447/2/4 448/2/4
f 443/2/4 444/2/4 448/2/4
f 444/2/4 445/2/4 448/2/4
f 447/2/4 441/2/4 449/2/4
f 448/2/4 447/2/4 449/2/4
f 450/1/4 451/1/4 452/1/4
f 452/1/4 451/1/4 453/1/4
f 454/2/4 455/2/4 458/2/4
f 458/2/4 455/2/4 459/2/4
f 454/2/4 458/2/4 460/2/4
f 456/1/4 457/1/4 464/1/4
f 464/1/4 457/1/4 465/1/4
f 460/2/4 461/2/4 466/2/4
f 454/2/4 460/2/4 466/2/4
f 466/2/4 461/2/4 467/2/4
f 462/1/4 463/1/4 470/1/4
f 470/1/4 463/1/4 471/1/4
f 468/1/4 469/1/4 472/1/4
f 472/1/4 469/1/4 473/1/4
f 474/1/4 475/1/4 476/1/4
f 476/1/4 475/1/4 477/1/4
f 478/2/4 479/2/4 482/2/4
f 482/2/4 479/2/4 483/2/4
f 480/2/4 481/2/4 484/2/4
f 484/2/4 481/2/4 485/2/4
f 486/2/4 487/2/4 488/2/4
f 488/2/4 487/2/4 489/2/4
f 492/1/4 493/1/4 494/1/4
f 494/1/4 493/1/4 495/1/4
f 498/1/4 499/1/4 500/1/4
f 500/1/4 499/1/4 501/1/4
f 496/2/4 497/2/4 502/2/4
f 502/2/4 497/2/4 503/2/4
f 504/1/4 505/1/4 506/1/4
f 506/1/4 505/1/4 507/1/4
f 490/2/4 491/2/4 509/2/4
f 509/2/4 491/2/4 510/2/4
f 508/2/4 509/2/4 511/2/4
f 511/2/4 509/2/4 512/2/4
f 515/1/4 516/1/4 517/1/4
f 517/1/4 516/1/4 518/1/4
f 519/1/4 520/1/4 521/1/4
f 521/1/4 520/1/4 522/1/4
f 513/2/4 514/2/4 523/2/4
f 523/2/4 514/2/4 524/2/4
f 528/2/5 526/2/5 525/2/5
f 529/2/5 526/2/5 528/2/5
f 531/2/5 528/2/5 527/2/5
f 531/2/5 530/2/5 529/2/5
f 531/2/5 529/2/5 528/2/5
f 532/2/5 530/2/5 531/2/5
f 533/2/5 530/2/5 532/2/5
f 534/2/5 530/2/5 533/2/5
f 535/2/5 533/2/5 532/2/5
f 536/2/5 533/2/5 535/2/5
f 539/1/5 538/1/5 537/1/5
f 540/1/5 538/1/5 539/1/5
f 543/2/5 542/2/5 541/2/5
f 544/2/5 542/2/5 543/2/5
f 547/2/5 546/2/5 545/2/5
f 548/2/5 546/2/5 547/2/5
f 553/2/5 550/2/5 549/2/5
f 554/2/5 552/2/5 551/2/5
f 555/2/5 553/2/5 549/2/5
f 555/2/5 554/2/5 553/2/5
f 556/2/5 552/2/5 554/2/5
f 556/2/5 554/2/5 555/2/5
f 559/2/5 558/2/5 557/2/5
f 560/2/5 558/2/5 559/2/5
f 563/2/5 562/2/5 561/2/5
f 564/2/5 562/2/5 563/2/5
f 565/2/5 563/2/5 561/2/5
f 566/2/5 563/2/5 565/2/5
f 568/2/5 562/2/5 564/2/5
f 569/2/5 565/2/5 561/2/5
f 571/2/5 568/2/5 567/2/5
f 572/2/5 562/2/5 568/2/5
f 572/2/5 568/2/5 571/2/5
f 573/2/5 570/2/5 569/2/5
f 574/2/5 562/2/5 572/2/5
f 575/2/5 573/2/5 569/2/5
f 575/2/5 574/2/5 573/2/5
f 575/2/5 569/2/5 561/2/5
f 576/2/5 562/2/5 574/2/5
f 576/2/5 574/2/5 575/2/5
f 579/2/5 578/2/5 577/2/5
f 580/2/5 578/2/5 579/2/5
f 583/1/5 582/1/5 581/1/5
f 584/1/5 582/1/5 583/1/5
f 587/1/5 586/1/5 585/1/5
f 588/1/5 586/1/5 587/1/5
f 591/2/5 590/2/5 589/2/5
f 592/2/5 590/2/5 591/2/5
f 595/2/5 594/2/5 593/2/5
f 596/2/5 594/2/5 595/2/5
f 600/1/5 598/1/5 597/1/5
f 601/1/5 598/1/5 600/1/5
f 604/1/5 600/1/5 599/1/5
f 604/1/5 602/1/5 601/1/5
f 604/1/5 601/1/5 600/1/5
f 605/1/5 602/1/5 604/1/5
f 606/1/5 602/1/5 605/1/5
f 607/1/5 602/1/5 606/1/5
f 610/1/5 604/1/5 603/1/5
f 610/1/5 605/1/5 604/1/5
f 611/1/5 605/1/5 610/1/5
f 612/1/5 605/1/5 611/1/5
f 613/1/5 607/1/5 606/1/5
f 613/1/5 608/1/5 607/1/5
f 614/1/5 608/1/5 613/1/5
f 615/1/5 608/1/5 614/1/5
f 617/1/5 615/1/5 614/1/5
f 617/1/5 616/1/5 615/1/5
f 618/1/5 616/1/5 617/1/5
f 619/1/5 617/1/5 614/1/5
f 621/1/5 611/1/5 610/1/5
f 621/1/5 610/1/5 609/1/5
f 622/1/5 611/1/5 621/1/5
f 623/1/5 611/1/5 622/1/5
f 626/1/5 620/1/5 619/1/5
f 626/1/5 619/1/5 614/1/5
f 627/1/5 620/1/5 626/1/5
f 628/1/5 620/1/5 627/1/5
f 629/1/5 624/1/5 623/1/5
f 629/1/5 623/1/5 622/1/5
f 630/1/5 624/1/5 629/1/5
f 631/1/5 624/1/5 630/1/5
f 632/1/5 627/1/5 626/1/5
f 632/1/5 626/1/5 625/1/5
f 633/1/5 631/1/5 630/1/5
f 633/1/5 632/1/5 631/1/5
f 634/1/5 632/1/5 633/1/5
f 635/1/5 632/1/5 634/1/5
f 636/1/5 632/1/5 635/1/5
f 637/1/5 627/1/5 632/1/5
f 637/1/5 632/1/5 636/1/5
f 638/1/5 627/1/5 637/1/5
f 639/1/5 635/1/5 634/1/5
f 640/1/5 635/1/5 639/1/5
f 641/1/5 637/1/5 636/1/5
f 642/1/5 637/1/5 641/1/5
f 643/2/6 644/2/6 646/2/6
f 646/2/6 644/2/6 647/2/6
f 647/2/6 644/2/6 648/2/6
f 645/2/6 646/2/6 650/2/6
f 646/2/6 647/2/6 650/2/6
f 650/2/6 647/2/6 651/2/6
f 651/2/6 647/2/6 652/2/6
f 648/2/6 649/2/6 653/2/6
f 653/2/6 649/2/6 654/2/6
f 651/2/6 652/2/6 655/2/6
f 652/2/6 653/2/6 655/2/6
f 655/2/6 653/2/6 656/2/6
f 657/2/6 658/2/6 659/2/6
f 659/2/6 658/2/6 660/2/6
f 657/2/6 659/2/6 661/2/6
f 661/2/6 659/2/6 662/2/6
f 657/2/6 661/2/6 663/2/6
f 662/2/6 659/2/6 664/2/6
f 664/2/6 659/2/6 665/2/6
f 663/2/6 664/2/6 665/2/6
f 660/2/6 658/2/6 666/2/6
f 663/2/6 665/2/6 667/2/6
f 665/2/6 666/2/6 667/2/6
f 657/2/6 663/2/6 667/2/6
f 666/2/6 658/2/6 668/2/6
f 667/2/6 666/2/6 668/2/6
f 669/1/6 670/1/6 671/1/6
f 671/1/6 670/1/6 672/1/6
f 673/2/6 674/2/6 675/2/6
f 675/2/6 674/2/6 676/2/6
f 677/2/6 678/2/6 679/2/6
f 679/2/6 678/2/6 680/2/6
f 681/2/6 682/2/6 683/2/6
f 683/2/6 682/2/6 684/2/6
f 685/2/6 686/2/6 689/2/6
f 689/2/6 686/2/6 690/2/6
f 687/2/6 688/2/6 691/2/6
f 691/2/6 688/2/6 692/2/6
f 693/2/6 694/2/6 697/2/6
f 695/2/6 696/2/6 698/2/6
f 693/2/6 697/2/6 699/2/6
f 697/2/6 698/2/6 699/2/6
f 698/2/6 696/2/6 700/2/6
f 699/2/6 698/2/6 700/2/6
f 701/2/6 702/2/6 703/2/6
f 703/2/6 702/2/6 704/2/6
f 705/1/6 706/1/6 707/1/6
f 707/1/6 706/1/6 708/1/6
f 709/1/6 710/1/6 711/1/6
f 711/1/6 710/1/6 712/1/6
f 713/2/6 714/2/6 715/2/6
f 715/2/6 714/2/6 716/2/6
f 717/1/6 718/1/6 719/1/6
f 719/1/6 718/1/6 720/1/6
f 721/1/6 722/1/6 723/1/6
f 723/1/6 722/1/6 724/1/6
f 725/1/6 726/1/6 727/1/6
f 727/1/6 726/1/6 728/1/6
f 729/1/6 730/1/6 732/1/6
f 732/1/6 730/1/6 733/1/6
f 731/1/6 732/1/6 736/1/6
f 733/1/6 734/1/6 736/1/6
f 732/1/6 733/1/6 736/1/6
f 736/1/6 734/1/6 737/1/6
f 735/1/6 736/1/6 740/1/6
f 737/1/6 738/1/6 740/1/6
f 736/1/6 737/1/6 740/1/6
f 740/1/6 738/1/6 741/1/6
f 741/1/6 738/1/6 742/1/6
f 739/1/6 740/1/6 743/1/6
f 740/1/6 741/1/6 743/1/6
f 743/1/6 741/1/6 744/1/6
f 742/1/6 738/1/6 745/1/6
f 745/1/6 738/1/6 746/1/6
f 746/1/6 738/1/6 747/1/6
f 747/1/6 748/1/6 749/1/6
f 746/1/6 747/1/6 749/1/6
f 749/1/6 748/1/6 750/1/6
f 746/1/6 749/1/6 751/1/6
f 739/1/6 743/1/6 753/1/6
f 753/1/6 743/1/6 754/1/6
f 754/1/6 743/1/6 755/1/6
f 751/1/6 752/1/6 758/1/6
f 746/1/6 751/1/6 758/1/6
f 755/1/6 756/1/6 759/1/6
f 754/1/6 755/1/6 759/1/6
f 757/1/6 758/1/6 760/1/6
f 758/1/6 752/1/6 761/1/6
f 760/1/6 758/1/6 761/1/6
f 761/1/6 752/1/6 762/1/6
f 754/1/6 759/1/6 763/1/6
f 759/1/6 760/1/6 763/1/6
f 760/1/6 761/1/6 763/1/6
f 763/1/6 761/1/6 764/1/6
f 764/1/6 761/1/6 765/1/6
f 765/1/6 761/1/6 766/1/6
f 766/1/6 761/1/6 767/1/6
f 767/1/6 761/1/6 768/1/6
f 768/1/6 761/1/6 769/1/6
f 769/1/6 761/1/6 770/1/6
f 766/1/6 767/1/6 771/1/6
f 771/1/6 767/1/6 772/1/6
f 768/1/6 769/1/6 773/1/6
f 773/1/6 769/1/6 774/1/6
f 775/1/6 776/1/6 778/1/6
f 778/1/6 776/1/6 779/1/6
f 777/1/6 778/1/6 781/1/6
f 779/1/6 780/1/6 781/1/6
f 778/1/6 779/1/6 781/1/6
f 781/1/6 780/1/6 782/1/6
f 782/1/6 780/1/6 783/1/6
f 783/1/6 780/1/6 784/1/6
f 782/1/6 783/1/6 785/1/6
f 785/1/6 783/1/6 786/1/6
