# MagicaVoxel @ Ephtracy

# group
o 

# material
mtllib porcini_4.mtl
usemtl palette

# normals
vn -1 0 0
vn 1 0 0
vn 0 0 1
vn 0 0 -1
vn 0 -1 0
vn 0 1 0

# texcoords
vt 0.908203 0.5
vt 0.939453 0.5

# verts
v -0.5 0.7 0.4
v -0.5 0.7 0.1
v -0.5 0.9 0.4
v -0.5 0.9 0.1
v -0.4 0 0.2
v -0.4 0 0.1
v -0.4 0.1 0.3
v -0.4 0.1 0.2
v -0.4 0.3 0.3
v -0.4 0.3 0.2
v -0.4 0.4 0.2
v -0.4 0.4 0.1
v -0.4 0.5 0.3
v -0.4 0.5 0.2
v -0.4 0.7 0.5
v -0.4 0.7 0.4
v -0.4 0.7 0.3
v -0.4 0.7 0.2
v -0.4 0.7 0.1
v -0.4 0.7 0
v -0.4 0.9 0.5
v -0.4 0.9 0.4
v -0.4 0.9 0.1
v -0.4 0.9 0
v -0.4 1 0.4
v -0.4 1 0.1
v -0.3 0 0.3
v -0.3 0 0.2
v -0.3 0 0.1
v -0.3 0 0
v -0.3 0.1 0.4
v -0.3 0.1 0.3
v -0.3 0.1 0.2
v -0.3 0.3 0.4
v -0.3 0.3 0.3
v -0.3 0.3 0.2
v -0.3 0.4 0.2
v -0.3 0.4 0.1
v -0.3 0.5 0.4
v -0.3 0.5 0.3
v -0.3 0.5 0.2
v -0.3 0.5 0.1
v -0.3 0.5 0
v -0.3 0.7 0.4
v -0.3 0.7 0.3
v -0.3 0.7 0.2
v -0.3 0.7 0.1
v -0.2 0 0.4
v -0.2 0 0.3
v -0.2 0.1 0.4
v -0.2 0.1 0.3
v -0.2 0.3 0.4
v -0.2 0.3 0.3
v -0.2 0.4 0.4
v -0.2 0.4 0.3
v 0 0 -0.2
v 0 0 -0.4
v 0 0.4 -0.2
v 0 0.4 -0.4
v 0.1 0 0
v 0.1 0 -0.2
v 0.1 0.4 0
v 0.1 0.4 -0.2
v 0.1 0.4 -0.4
v 0.1 0.6 -0.1
v 0.1 0.6 -0.2
v 0.1 0.6 -0.4
v 0.1 0.8 -0.1
v 0.1 0.8 -0.4
v 0.2 0.4 -0.1
v 0.2 0.4 -0.2
v 0.2 0.6 0
v 0.2 0.6 -0.1
v 0.2 0.6 -0.2
v 0.2 0.6 -0.4
v 0.2 0.6 -0.5
v 0.2 0.8 0
v 0.2 0.8 -0.1
v 0.2 0.8 -0.4
v 0.2 0.8 -0.5
v 0.2 0.9 -0.1
v 0.2 0.9 -0.4
v -0.1 0.4 0.1
v -0.1 0.4 0
v -0.1 0.5 0.4
v -0.1 0.5 0.3
v -0.1 0.5 0.2
v -0.1 0.5 0.1
v -0.1 0.5 0
v -0.1 0.7 0.4
v -0.1 0.7 0.3
v -0.1 0.7 0.2
v -0.1 0.7 0.1
v 0 0 0.4
v 0 0 0.3
v 0 0 0.1
v 0 0 0
v 0 0.4 0.4
v 0 0.4 0.3
v 0 0.4 0.2
v 0 0.4 0.1
v 0 0.4 0
v 0 0.5 0.2
v 0 0.7 0.5
v 0 0.7 0.4
v 0 0.7 0.3
v 0 0.7 0.2
v 0 0.7 0.1
v 0 0.7 0
v 0 0.9 0.5
v 0 0.9 0.4
v 0 0.9 0.1
v 0 0.9 0
v 0 1 0.4
v 0 1 0.1
v 0.1 0.3 0.3
v 0.1 0.3 0.1
v 0.1 0.4 0.3
v 0.1 0.4 0.2
v 0.1 0.5 0.2
v 0.1 0.5 0.1
v 0.1 0.7 0.4
v 0.1 0.7 0.1
v 0.1 0.9 0.4
v 0.1 0.9 0.1
v 0.2 0 0.3
v 0.2 0 0.1
v 0.2 0 -0.3
v 0.2 0 -0.4
v 0.2 0.1 -0.3
v 0.2 0.1 -0.4
v 0.2 0.3 0.3
v 0.2 0.3 0.1
v 0.3 0 0
v 0.3 0 -0.1
v 0.3 0 -0.2
v 0.3 0 -0.3
v 0.3 0.1 -0.2
v 0.3 0.1 -0.3
v 0.3 0.1 -0.4
v 0.3 0.4 0
v 0.3 0.4 -0.1
v 0.3 0.4 -0.3
v 0.3 0.4 -0.4
v 0.4 0 -0.1
v 0.4 0 -0.2
v 0.4 0.1 -0.2
v 0.4 0.1 -0.3
v 0.4 0.4 -0.2
v 0.4 0.4 -0.3
v 0.4 0.4 -0.4
v 0.4 0.6 -0.1
v 0.4 0.6 -0.2
v 0.4 0.6 -0.3
v 0.4 0.6 -0.4
v 0.5 0.4 -0.2
v 0.5 0.4 -0.3
v 0.5 0.6 0
v 0.5 0.6 -0.1
v 0.5 0.6 -0.2
v 0.5 0.6 -0.3
v 0.5 0.6 -0.4
v 0.5 0.6 -0.5
v 0.5 0.8 0
v 0.5 0.8 -0.1
v 0.5 0.8 -0.4
v 0.5 0.8 -0.5
v 0.5 0.9 -0.1
v 0.5 0.9 -0.4
v 0.6 0.6 -0.1
v 0.6 0.6 -0.4
v 0.6 0.8 -0.1
v 0.6 0.8 -0.4
v -0.4 0.7 0.5
v -0.4 0.9 0.5
v 0 0.7 0.5
v 0 0.9 0.5
v -0.5 0.7 0.4
v -0.5 0.9 0.4
v -0.4 0.7 0.4
v -0.4 0.9 0.4
v -0.4 1 0.4
v -0.3 0.1 0.4
v -0.3 0.3 0.4
v -0.3 0.5 0.4
v -0.3 0.7 0.4
v -0.2 0 0.4
v -0.2 0.1 0.4
v -0.2 0.3 0.4
v -0.2 0.4 0.4
v -0.1 0.5 0.4
v -0.1 0.7 0.4
v 0 0 0.4
v 0 0.4 0.4
v 0 0.7 0.4
v 0 0.9 0.4
v 0 1 0.4
v 0.1 0.7 0.4
v 0.1 0.9 0.4
v -0.4 0.1 0.3
v -0.4 0.3 0.3
v -0.4 0.5 0.3
v -0.4 0.7 0.3
v -0.3 0 0.3
v -0.3 0.1 0.3
v -0.3 0.3 0.3
v -0.3 0.5 0.3
v -0.3 0.7 0.3
v -0.2 0 0.3
v -0.2 0.1 0.3
v -0.2 0.3 0.3
v -0.2 0.4 0.3
v -0.1 0.5 0.3
v -0.1 0.7 0.3
v 0 0 0.3
v 0 0.4 0.3
v 0 0.7 0.3
v 0.1 0.3 0.3
v 0.1 0.4 0.3
v 0.2 0 0.3
v 0.2 0.3 0.3
v -0.4 0 0.2
v -0.4 0.1 0.2
v -0.4 0.3 0.2
v -0.4 0.4 0.2
v -0.3 0 0.2
v -0.3 0.1 0.2
v -0.3 0.3 0.2
v -0.3 0.4 0.2
v 0 0.4 0.2
v 0 0.5 0.2
v 0.1 0.4 0.2
v 0.1 0.5 0.2
v 0.1 0 0
v 0.1 0.4 0
v 0.2 0.6 0
v 0.2 0.8 0
v 0.3 0 0
v 0.3 0.4 0
v 0.5 0.6 0
v 0.5 0.8 0
v 0.1 0.6 -0.1
v 0.1 0.8 -0.1
v 0.2 0.4 -0.1
v 0.2 0.6 -0.1
v 0.2 0.8 -0.1
v 0.2 0.9 -0.1
v 0.3 0 -0.1
v 0.3 0.4 -0.1
v 0.4 0 -0.1
v 0.4 0.6 -0.1
v 0.5 0.6 -0.1
v 0.5 0.8 -0.1
v 0.5 0.9 -0.1
v 0.6 0.6 -0.1
v 0.6 0.8 -0.1
v 0 0 -0.2
v 0 0.4 -0.2
v 0.1 0 -0.2
v 0.1 0.4 -0.2
v 0.1 0.6 -0.2
v 0.2 0.4 -0.2
v 0.2 0.6 -0.2
v 0.4 0.4 -0.2
v 0.4 0.6 -0.2
v 0.5 0.4 -0.2
v 0.5 0.6 -0.2
v -0.4 0.5 0.2
v -0.4 0.7 0.2
v -0.3 0.5 0.2
v -0.3 0.7 0.2
v -0.1 0.5 0.2
v -0.1 0.7 0.2
v 0 0.5 0.2
v 0 0.7 0.2
v -0.5 0.7 0.1
v -0.5 0.9 0.1
v -0.4 0 0.1
v -0.4 0.4 0.1
v -0.4 0.7 0.1
v -0.4 0.9 0.1
v -0.4 1 0.1
v -0.3 0 0.1
v -0.3 0.4 0.1
v -0.3 0.5 0.1
v -0.3 0.7 0.1
v -0.1 0.4 0.1
v -0.1 0.5 0.1
v -0.1 0.7 0.1
v 0 0 0.1
v 0 0.4 0.1
v 0 0.7 0.1
v 0 0.9 0.1
v 0 1 0.1
v 0.1 0.3 0.1
v 0.1 0.5 0.1
v 0.1 0.7 0.1
v 0.1 0.9 0.1
v 0.2 0 0.1
v 0.2 0.3 0.1
v -0.4 0.7 0
v -0.4 0.9 0
v -0.3 0 0
v -0.3 0.5 0
v -0.1 0.4 0
v -0.1 0.5 0
v 0 0 0
v 0 0.4 0
v 0 0.7 0
v 0 0.9 0
v 0.3 0 -0.2
v 0.3 0.1 -0.2
v 0.4 0 -0.2
v 0.4 0.1 -0.2
v 0.2 0 -0.3
v 0.2 0.1 -0.3
v 0.3 0 -0.3
v 0.3 0.1 -0.3
v 0.3 0.4 -0.3
v 0.4 0.1 -0.3
v 0.4 0.4 -0.3
v 0.4 0.6 -0.3
v 0.5 0.4 -0.3
v 0.5 0.6 -0.3
v 0 0 -0.4
v 0 0.4 -0.4
v 0.1 0.4 -0.4
v 0.1 0.6 -0.4
v 0.1 0.8 -0.4
v 0.2 0 -0.4
v 0.2 0.1 -0.4
v 0.2 0.6 -0.4
v 0.2 0.8 -0.4
v 0.2 0.9 -0.4
v 0.3 0.1 -0.4
v 0.3 0.4 -0.4
v 0.4 0.4 -0.4
v 0.4 0.6 -0.4
v 0.5 0.6 -0.4
v 0.5 0.8 -0.4
v 0.5 0.9 -0.4
v 0.6 0.6 -0.4
v 0.6 0.8 -0.4
v 0.2 0.6 -0.5
v 0.2 0.8 -0.5
v 0.5 0.6 -0.5
v 0.5 0.8 -0.5
v -0.2 0 0.4
v 0 0 0.4
v -0.3 0 0.3
v -0.2 0 0.3
v 0 0 0.3
v 0.2 0 0.3
v -0.4 0 0.2
v -0.3 0 0.2
v -0.4 0 0.1
v -0.3 0 0.1
v 0 0 0.1
v 0.2 0 0.1
v -0.3 0 0
v 0 0 0
v 0.1 0 0
v 0.3 0 0
v 0.3 0 -0.1
v 0.4 0 -0.1
v 0 0 -0.2
v 0.1 0 -0.2
v 0.3 0 -0.2
v 0.4 0 -0.2
v 0.2 0 -0.3
v 0.3 0 -0.3
v 0 0 -0.4
v 0.2 0 -0.4
v -0.3 0.1 0.4
v -0.2 0.1 0.4
v -0.4 0.1 0.3
v -0.3 0.1 0.3
v -0.2 0.1 0.3
v -0.4 0.1 0.2
v -0.3 0.1 0.2
v 0.3 0.1 -0.2
v 0.4 0.1 -0.2
v 0.2 0.1 -0.3
v 0.3 0.1 -0.3
v 0.4 0.1 -0.3
v 0.2 0.1 -0.4
v 0.3 0.1 -0.4
v 0.4 0.4 -0.2
v 0.5 0.4 -0.2
v 0.3 0.4 -0.3
v 0.4 0.4 -0.3
v 0.5 0.4 -0.3
v 0.3 0.4 -0.4
v 0.4 0.4 -0.4
v -0.3 0.5 0.4
v -0.1 0.5 0.4
v -0.4 0.5 0.3
v -0.3 0.5 0.3
v -0.1 0.5 0.3
v -0.4 0.5 0.2
v -0.3 0.5 0.2
v 0.2 0.6 0
v 0.5 0.6 0
v 0.1 0.6 -0.1
v 0.2 0.6 -0.1
v 0.4 0.6 -0.1
v 0.5 0.6 -0.1
v 0.6 0.6 -0.1
v 0.1 0.6 -0.2
v 0.2 0.6 -0.2
v 0.4 0.6 -0.2
v 0.5 0.6 -0.2
v 0.4 0.6 -0.3
v 0.5 0.6 -0.3
v 0.2 0.6 -0.4
v 0.4 0.6 -0.4
v 0.5 0.6 -0.4
v 0.6 0.6 -0.4
v 0.2 0.6 -0.5
v 0.5 0.6 -0.5
v -0.4 0.7 0.5
v 0 0.7 0.5
v -0.5 0.7 0.4
v -0.4 0.7 0.4
v -0.3 0.7 0.4
v -0.1 0.7 0.4
v 0 0.7 0.4
v 0.1 0.7 0.4
v -0.4 0.7 0.3
v -0.3 0.7 0.3
v -0.1 0.7 0.3
v 0 0.7 0.3
v -0.4 0.7 0.2
v -0.3 0.7 0.2
v -0.1 0.7 0.2
v 0 0.7 0.2
v -0.5 0.7 0.1
v -0.4 0.7 0.1
v -0.3 0.7 0.1
v -0.1 0.7 0.1
v 0 0.7 0.1
v 0.1 0.7 0.1
v -0.4 0.7 0
v 0 0.7 0
v -0.3 0.3 0.4
v -0.2 0.3 0.4
v -0.4 0.3 0.3
v -0.3 0.3 0.3
v -0.2 0.3 0.3
v 0.1 0.3 0.3
v 0.2 0.3 0.3
v -0.4 0.3 0.2
v -0.3 0.3 0.2
v 0.1 0.3 0.1
v 0.2 0.3 0.1
v -0.2 0.4 0.4
v 0 0.4 0.4
v -0.2 0.4 0.3
v 0 0.4 0.3
v 0.1 0.4 0.3
v -0.4 0.4 0.2
v -0.3 0.4 0.2
v 0 0.4 0.2
v 0.1 0.4 0.2
v -0.4 0.4 0.1
v -0.3 0.4 0.1
v -0.1 0.4 0.1
v 0 0.4 0.1
v -0.1 0.4 0
v 0 0.4 0
v 0.1 0.4 0
v 0.3 0.4 0
v 0.2 0.4 -0.1
v 0.3 0.4 -0.1
v 0 0.4 -0.2
v 0.1 0.4 -0.2
v 0.2 0.4 -0.2
v 0 0.4 -0.4
v 0.1 0.4 -0.4
v -0.1 0.5 0.2
v 0 0.5 0.2
v 0.1 0.5 0.2
v -0.3 0.5 0.1
v -0.1 0.5 0.1
v 0.1 0.5 0.1
v -0.3 0.5 0
v -0.1 0.5 0
v 0.2 0.8 0
v 0.5 0.8 0
v 0.1 0.8 -0.1
v 0.2 0.8 -0.1
v 0.5 0.8 -0.1
v 0.6 0.8 -0.1
v 0.1 0.8 -0.4
v 0.2 0.8 -0.4
v 0.5 0.8 -0.4
v 0.6 0.8 -0.4
v 0.2 0.8 -0.5
v 0.5 0.8 -0.5
v -0.4 0.9 0.5
v 0 0.9 0.5
v -0.5 0.9 0.4
v -0.4 0.9 0.4
v 0 0.9 0.4
v 0.1 0.9 0.4
v -0.5 0.9 0.1
v -0.4 0.9 0.1
v 0 0.9 0.1
v 0.1 0.9 0.1
v -0.4 0.9 0
v 0 0.9 0
v 0.2 0.9 -0.1
v 0.5 0.9 -0.1
v 0.2 0.9 -0.4
v 0.5 0.9 -0.4
v -0.4 1 0.4
v 0 1 0.4
v -0.4 1 0.1
v 0 1 0.1

# faces
f 3/2/1 2/2/1 1/2/1
f 4/2/1 2/2/1 3/2/1
f 8/1/1 6/1/1 5/1/1
f 9/1/1 8/1/1 7/1/1
f 10/1/1 6/1/1 8/1/1
f 10/1/1 8/1/1 9/1/1
f 11/1/1 6/1/1 10/1/1
f 12/1/1 6/1/1 11/1/1
f 17/1/1 14/1/1 13/1/1
f 18/1/1 14/1/1 17/1/1
f 21/2/1 16/2/1 15/2/1
f 22/2/1 16/2/1 21/2/1
f 23/2/1 20/2/1 19/2/1
f 24/2/1 20/2/1 23/2/1
f 25/2/1 23/2/1 22/2/1
f 26/2/1 23/2/1 25/2/1
f 32/1/1 28/1/1 27/1/1
f 33/1/1 28/1/1 32/1/1
f 34/1/1 32/1/1 31/1/1
f 35/1/1 32/1/1 34/1/1
f 37/1/1 36/1/1 35/1/1
f 38/1/1 30/1/1 29/1/1
f 40/1/1 37/1/1 35/1/1
f 40/1/1 38/1/1 37/1/1
f 41/1/1 38/1/1 40/1/1
f 42/1/1 30/1/1 38/1/1
f 42/1/1 38/1/1 41/1/1
f 43/1/1 30/1/1 42/1/1
f 44/1/1 40/1/1 39/1/1
f 45/1/1 40/1/1 44/1/1
f 46/1/1 42/1/1 41/1/1
f 47/1/1 42/1/1 46/1/1
f 50/1/1 49/1/1 48/1/1
f 51/1/1 49/1/1 50/1/1
f 54/1/1 53/1/1 52/1/1
f 55/1/1 53/1/1 54/1/1
f 58/1/1 57/1/1 56/1/1
f 59/1/1 57/1/1 58/1/1
f 62/1/1 61/1/1 60/1/1
f 63/1/1 61/1/1 62/1/1
f 66/1/1 64/1/1 63/1/1
f 67/1/1 64/1/1 66/1/1
f 68/2/1 66/2/1 65/2/1
f 68/2/1 67/2/1 66/2/1
f 69/2/1 67/2/1 68/2/1
f 73/1/1 71/1/1 70/1/1
f 74/1/1 71/1/1 73/1/1
f 77/2/1 73/2/1 72/2/1
f 78/2/1 73/2/1 77/2/1
f 79/2/1 76/2/1 75/2/1
f 80/2/1 76/2/1 79/2/1
f 81/2/1 79/2/1 78/2/1
f 82/2/1 79/2/1 81/2/1
f 83/1/2 84/1/2 88/1/2
f 88/1/2 84/1/2 89/1/2
f 85/1/2 86/1/2 90/1/2
f 90/1/2 86/1/2 91/1/2
f 87/1/2 88/1/2 92/1/2
f 92/1/2 88/1/2 93/1/2
f 94/1/2 95/1/2 98/1/2
f 98/1/2 95/1/2 99/1/2
f 96/1/2 97/1/2 101/1/2
f 101/1/2 97/1/2 102/1/2
f 99/1/2 100/1/2 103/1/2
f 99/1/2 103/1/2 106/1/2
f 106/1/2 103/1/2 107/1/2
f 104/2/2 105/2/2 110/2/2
f 110/2/2 105/2/2 111/2/2
f 108/2/2 109/2/2 112/2/2
f 112/2/2 109/2/2 113/2/2
f 111/2/2 112/2/2 114/2/2
f 114/2/2 112/2/2 115/2/2
f 116/1/2 117/1/2 118/1/2
f 118/1/2 117/1/2 119/1/2
f 119/1/2 117/1/2 120/1/2
f 120/1/2 117/1/2 121/1/2
f 122/2/2 123/2/2 124/2/2
f 124/2/2 123/2/2 125/2/2
f 128/1/2 129/1/2 130/1/2
f 130/1/2 129/1/2 131/1/2
f 126/1/2 127/1/2 132/1/2
f 132/1/2 127/1/2 133/1/2
f 136/1/2 137/1/2 138/1/2
f 138/1/2 137/1/2 139/1/2
f 134/1/2 135/1/2 141/1/2
f 141/1/2 135/1/2 142/1/2
f 139/1/2 140/1/2 143/1/2
f 143/1/2 140/1/2 144/1/2
f 145/1/2 146/1/2 147/1/2
f 145/1/2 147/1/2 149/1/2
f 147/1/2 148/1/2 149/1/2
f 149/1/2 148/1/2 150/1/2
f 145/1/2 149/1/2 152/1/2
f 152/1/2 149/1/2 153/1/2
f 150/1/2 151/1/2 154/1/2
f 154/1/2 151/1/2 155/1/2
f 156/1/2 157/1/2 160/1/2
f 160/1/2 157/1/2 161/1/2
f 158/2/2 159/2/2 164/2/2
f 164/2/2 159/2/2 165/2/2
f 162/2/2 163/2/2 166/2/2
f 166/2/2 163/2/2 167/2/2
f 165/2/2 166/2/2 168/2/2
f 168/2/2 166/2/2 169/2/2
f 170/2/2 171/2/2 172/2/2
f 172/2/2 171/2/2 173/2/2
f 176/2/3 175/2/3 174/2/3
f 177/2/3 175/2/3 176/2/3
f 180/2/3 179/2/3 178/2/3
f 181/2/3 179/2/3 180/2/3
f 188/1/3 184/1/3 183/1/3
f 189/1/3 184/1/3 188/1/3
f 191/1/3 186/1/3 185/1/3
f 192/1/3 186/1/3 191/1/3
f 193/1/3 190/1/3 189/1/3
f 193/1/3 188/1/3 187/1/3
f 193/1/3 189/1/3 188/1/3
f 194/1/3 190/1/3 193/1/3
f 196/2/3 182/2/3 181/2/3
f 197/2/3 182/2/3 196/2/3
f 198/2/3 196/2/3 195/2/3
f 199/2/3 196/2/3 198/2/3
f 205/1/3 201/1/3 200/1/3
f 206/1/3 201/1/3 205/1/3
f 207/1/3 203/1/3 202/1/3
f 208/1/3 203/1/3 207/1/3
f 209/1/3 205/1/3 204/1/3
f 210/1/3 205/1/3 209/1/3
f 211/1/3 207/1/3 206/1/3
f 212/1/3 207/1/3 211/1/3
f 213/1/3 207/1/3 212/1/3
f 216/1/3 213/1/3 212/1/3
f 216/1/3 214/1/3 213/1/3
f 217/1/3 214/1/3 216/1/3
f 218/1/3 216/1/3 215/1/3
f 219/1/3 216/1/3 218/1/3
f 220/1/3 218/1/3 215/1/3
f 221/1/3 218/1/3 220/1/3
f 226/1/3 223/1/3 222/1/3
f 227/1/3 223/1/3 226/1/3
f 228/1/3 225/1/3 224/1/3
f 229/1/3 225/1/3 228/1/3
f 232/1/3 231/1/3 230/1/3
f 233/1/3 231/1/3 232/1/3
f 238/1/3 235/1/3 234/1/3
f 239/1/3 235/1/3 238/1/3
f 240/2/3 237/2/3 236/2/3
f 241/2/3 237/2/3 240/2/3
f 245/2/3 243/2/3 242/2/3
f 246/2/3 243/2/3 245/2/3
f 249/1/3 245/1/3 244/1/3
f 250/1/3 249/1/3 248/1/3
f 251/1/3 245/1/3 249/1/3
f 251/1/3 249/1/3 250/1/3
f 253/2/3 247/2/3 246/2/3
f 254/2/3 247/2/3 253/2/3
f 255/2/3 253/2/3 252/2/3
f 256/2/3 253/2/3 255/2/3
f 259/1/3 258/1/3 257/1/3
f 260/1/3 258/1/3 259/1/3
f 262/1/3 261/1/3 260/1/3
f 263/1/3 261/1/3 262/1/3
f 266/1/3 265/1/3 264/1/3
f 267/1/3 265/1/3 266/1/3
f 268/1/4 269/1/4 270/1/4
f 270/1/4 269/1/4 271/1/4
f 272/1/4 273/1/4 274/1/4
f 274/1/4 273/1/4 275/1/4
f 276/2/4 277/2/4 280/2/4
f 280/2/4 277/2/4 281/2/4
f 278/1/4 279/1/4 283/1/4
f 283/1/4 279/1/4 284/1/4
f 285/1/4 286/1/4 288/1/4
f 288/1/4 286/1/4 289/1/4
f 287/1/4 288/1/4 291/1/4
f 281/2/4 282/2/4 293/2/4
f 293/2/4 282/2/4 294/2/4
f 290/1/4 291/1/4 295/1/4
f 291/1/4 288/1/4 296/1/4
f 295/1/4 291/1/4 296/1/4
f 292/2/4 293/2/4 297/2/4
f 297/2/4 293/2/4 298/2/4
f 290/1/4 295/1/4 299/1/4
f 299/1/4 295/1/4 300/1/4
f 303/1/4 304/1/4 305/1/4
f 305/1/4 304/1/4 306/1/4
f 303/1/4 305/1/4 307/1/4
f 307/1/4 305/1/4 308/1/4
f 301/2/4 302/2/4 309/2/4
f 309/2/4 302/2/4 310/2/4
f 311/1/4 312/1/4 313/1/4
f 313/1/4 312/1/4 314/1/4
f 315/1/4 316/1/4 317/1/4
f 317/1/4 316/1/4 318/1/4
f 318/1/4 319/1/4 320/1/4
f 320/1/4 319/1/4 321/1/4
f 321/1/4 322/1/4 323/1/4
f 323/1/4 322/1/4 324/1/4
f 325/1/4 326/1/4 327/1/4
f 325/1/4 327/1/4 330/1/4
f 327/1/4 328/1/4 330/1/4
f 330/1/4 328/1/4 331/1/4
f 328/2/4 329/2/4 332/2/4
f 331/1/4 328/1/4 332/1/4
f 332/2/4 329/2/4 333/2/4
f 331/1/4 332/1/4 335/1/4
f 335/1/4 332/1/4 336/1/4
f 336/1/4 332/1/4 337/1/4
f 337/1/4 332/1/4 338/1/4
f 333/2/4 334/2/4 340/2/4
f 340/2/4 334/2/4 341/2/4
f 339/2/4 340/2/4 342/2/4
f 342/2/4 340/2/4 343/2/4
f 344/2/4 345/2/4 346/2/4
f 346/2/4 345/2/4 347/2/4
f 351/1/5 349/1/5 348/1/5
f 352/1/5 349/1/5 351/1/5
f 355/1/5 351/1/5 350/1/5
f 355/1/5 353/1/5 352/1/5
f 355/1/5 352/1/5 351/1/5
f 356/1/5 355/1/5 354/1/5
f 357/1/5 353/1/5 355/1/5
f 357/1/5 355/1/5 356/1/5
f 358/1/5 353/1/5 357/1/5
f 359/1/5 353/1/5 358/1/5
f 360/1/5 358/1/5 357/1/5
f 361/1/5 358/1/5 360/1/5
f 364/1/5 363/1/5 362/1/5
f 367/1/5 364/1/5 362/1/5
f 367/1/5 365/1/5 364/1/5
f 368/1/5 365/1/5 367/1/5
f 369/1/5 365/1/5 368/1/5
f 370/1/5 367/1/5 366/1/5
f 370/1/5 368/1/5 367/1/5
f 371/1/5 368/1/5 370/1/5
f 372/1/5 370/1/5 366/1/5
f 373/1/5 370/1/5 372/1/5
f 377/1/5 375/1/5 374/1/5
f 378/1/5 375/1/5 377/1/5
f 379/1/5 377/1/5 376/1/5
f 380/1/5 377/1/5 379/1/5
f 384/1/5 382/1/5 381/1/5
f 385/1/5 382/1/5 384/1/5
f 386/1/5 384/1/5 383/1/5
f 387/1/5 384/1/5 386/1/5
f 391/1/5 389/1/5 388/1/5
f 392/1/5 389/1/5 391/1/5
f 393/1/5 391/1/5 390/1/5
f 394/1/5 391/1/5 393/1/5
f 398/1/5 396/1/5 395/1/5
f 399/1/5 396/1/5 398/1/5
f 400/1/5 398/1/5 397/1/5
f 401/1/5 398/1/5 400/1/5
f 405/2/5 403/2/5 402/2/5
f 406/2/5 403/2/5 405/2/5
f 407/2/5 403/2/5 406/2/5
f 409/2/5 405/2/5 404/2/5
f 410/2/5 405/2/5 409/2/5
f 411/2/5 408/2/5 407/2/5
f 411/2/5 407/2/5 406/2/5
f 412/2/5 408/2/5 411/2/5
f 414/2/5 408/2/5 412/2/5
f 416/2/5 414/2/5 413/2/5
f 417/2/5 408/2/5 414/2/5
f 417/2/5 414/2/5 416/2/5
f 418/2/5 408/2/5 417/2/5
f 419/2/5 416/2/5 415/2/5
f 419/2/5 417/2/5 416/2/5
f 420/2/5 417/2/5 419/2/5
f 424/2/5 422/2/5 421/2/5
f 425/2/5 422/2/5 424/2/5
f 426/2/5 422/2/5 425/2/5
f 427/2/5 422/2/5 426/2/5
f 429/2/5 424/2/5 423/2/5
f 429/2/5 425/2/5 424/2/5
f 430/2/5 425/2/5 429/2/5
f 431/2/5 428/2/5 427/2/5
f 431/2/5 427/2/5 426/2/5
f 432/2/5 428/2/5 431/2/5
f 433/2/5 429/2/5 423/2/5
f 436/2/5 428/2/5 432/2/5
f 437/2/5 434/2/5 433/2/5
f 437/2/5 433/2/5 423/2/5
f 438/2/5 434/2/5 437/2/5
f 439/2/5 434/2/5 438/2/5
f 440/2/5 436/2/5 435/2/5
f 441/2/5 428/2/5 436/2/5
f 441/2/5 436/2/5 440/2/5
f 442/2/5 428/2/5 441/2/5
f 443/2/5 439/2/5 438/2/5
f 443/2/5 440/2/5 439/2/5
f 443/2/5 441/2/5 440/2/5
f 444/2/5 441/2/5 443/2/5
f 445/1/6 446/1/6 448/1/6
f 448/1/6 446/1/6 449/1/6
f 447/1/6 448/1/6 452/1/6
f 452/1/6 448/1/6 453/1/6
f 450/1/6 451/1/6 454/1/6
f 454/1/6 451/1/6 455/1/6
f 456/1/6 457/1/6 458/1/6
f 458/1/6 457/1/6 459/1/6
f 459/1/6 460/1/6 463/1/6
f 463/1/6 460/1/6 464/1/6
f 461/1/6 462/1/6 465/1/6
f 465/1/6 462/1/6 466/1/6
f 467/1/6 468/1/6 469/1/6
f 469/1/6 468/1/6 470/1/6
f 471/1/6 472/1/6 473/1/6
f 473/1/6 472/1/6 474/1/6
f 471/1/6 473/1/6 476/1/6
f 476/1/6 473/1/6 477/1/6
f 475/1/6 476/1/6 478/1/6
f 478/1/6 476/1/6 479/1/6
f 480/1/6 481/1/6 484/1/6
f 481/1/6 482/1/6 484/1/6
f 484/1/6 482/1/6 485/1/6
f 483/1/6 484/1/6 486/1/6
f 486/1/6 484/1/6 487/1/6
f 488/2/6 489/2/6 491/2/6
f 491/2/6 489/2/6 492/2/6
f 490/2/6 491/2/6 494/2/6
f 494/2/6 491/2/6 495/2/6
f 492/2/6 493/2/6 496/2/6
f 496/2/6 493/2/6 497/2/6
f 495/2/6 496/2/6 498/2/6
f 498/2/6 496/2/6 499/2/6
f 500/2/6 501/2/6 503/2/6
f 503/2/6 501/2/6 504/2/6
f 502/2/6 503/2/6 506/2/6
f 506/2/6 503/2/6 507/2/6
f 504/2/6 505/2/6 508/2/6
f 508/2/6 505/2/6 509/2/6
f 507/2/6 508/2/6 510/2/6
f 510/2/6 508/2/6 511/2/6
f 512/2/6 513/2/6 514/2/6
f 514/2/6 513/2/6 515/2/6
f 516/2/6 517/2/6 518/2/6
f 518/2/6 517/2/6 519/2/6
