# MagicaVoxel @ Ephtracy

# group
o 

# material
mtllib enoki_2.mtl
usemtl palette

# normals
vn -1 0 0
vn 1 0 0
vn 0 0 1
vn 0 0 -1
vn 0 -1 0
vn 0 1 0

# texcoords
vt 0.970703 0.5
vt 0.974609 0.5

# verts
v -0.6 0 0.2
v -0.6 0 0
v -0.6 0.1 0.2
v -0.6 0.1 0
v -0.6 0.2 0.2
v -0.6 0.2 0
v -0.4 0 0
v -0.4 0 -0.2
v -0.4 0.1 0
v -0.4 0.2 0
v -0.4 0.4 0
v -0.4 0.4 -0.2
v -0.4 0.7 0
v -0.4 0.7 -0.2
v -0.2 0 0.2
v -0.2 0 0
v -0.2 0 -0.2
v -0.2 0 -0.4
v -0.2 0.2 -0.2
v -0.2 0.2 -0.4
v -0.2 0.3 0.2
v -0.2 0.3 0
v -0.2 0.4 -0.2
v -0.2 0.5 -0.2
v -0.2 0.5 -0.4
v -5.96046e-08 0 0.4
v -5.96046e-08 0 0.2
v -5.96046e-08 0 0
v -5.96046e-08 0 -0.2
v -5.96046e-08 0.1 0
v -5.96046e-08 0.1 -0.2
v -5.96046e-08 0.2 0.4
v -5.96046e-08 0.2 0.2
v 0.2 0 0.2
v 0.2 0 0
v 0.2 0 -0.2
v 0.2 0 -0.4
v 0.2 0.1 0
v 0.2 0.1 -0.2
v 0.2 0.2 0.2
v 0.2 0.2 0
v 0.2 0.3 0.2
v 0.2 0.3 0
v 0.2 0.3 -0.2
v 0.2 0.3 -0.4
v 0.4 0 0
v 0.4 0 -0.2
v 0.4 0.2 0
v 0.4 0.3 0
v 0.4 0.3 -0.2
v 0.4 0.5 0
v 0.4 0.5 -0.2
v -0.4 0 0.2
v -0.4 0 0
v -0.4 0.1 0.2
v -0.4 0.1 0
v -0.4 0.2 0.2
v -0.4 0.2 0
v -0.2 0 0
v -0.2 0 -0.2
v -0.2 0.2 -0.2
v -0.2 0.3 0
v -0.2 0.4 0
v -0.2 0.4 -0.2
v -0.2 0.5 -0.2
v -0.2 0.7 0
v -0.2 0.7 -0.2
v -5.96046e-08 0 0.2
v -5.96046e-08 0 0
v -5.96046e-08 0 -0.2
v -5.96046e-08 0 -0.4
v -5.96046e-08 0.1 0
v -5.96046e-08 0.1 -0.2
v -5.96046e-08 0.2 0.2
v -5.96046e-08 0.2 -0.2
v -5.96046e-08 0.2 -0.4
v -5.96046e-08 0.3 0.2
v -5.96046e-08 0.3 0
v -5.96046e-08 0.5 -0.2
v -5.96046e-08 0.5 -0.4
v 0.2 0 0.4
v 0.2 0 0.2
v 0.2 0 0
v 0.2 0 -0.2
v 0.2 0.1 0.4
v 0.2 0.1 0.3
v 0.2 0.1 0
v 0.2 0.1 -0.2
v 0.2 0.2 0.4
v 0.2 0.2 0.3
v 0.2 0.2 0.2
v 0.4 0 0.2
v 0.4 0 0
v 0.4 0 -0.2
v 0.4 0 -0.4
v 0.4 0.2 0.2
v 0.4 0.2 0
v 0.4 0.3 0.2
v 0.4 0.3 0
v 0.4 0.3 -0.2
v 0.4 0.3 -0.4
v 0.6 0 0
v 0.6 0 -0.2
v 0.6 0.3 0
v 0.6 0.3 -0.2
v 0.6 0.5 0
v 0.6 0.5 -0.2
v -5.96046e-08 0 0.4
v -5.96046e-08 0.2 0.4
v 0.1 0.1 0.4
v 0.1 0.2 0.4
v 0.2 0 0.4
v 0.2 0.1 0.4
v 0.2 0.2 0.4
v -0.6 0 0.2
v -0.6 0.1 0.2
v -0.6 0.2 0.2
v -0.4 0 0.2
v -0.4 0.1 0.2
v -0.4 0.2 0.2
v -0.2 0 0.2
v -0.2 0.3 0.2
v -5.96046e-08 0 0.2
v -5.96046e-08 0.2 0.2
v -5.96046e-08 0.3 0.2
v 0.2 0 0.2
v 0.2 0.2 0.2
v 0.2 0.3 0.2
v 0.4 0 0.2
v 0.4 0.2 0.2
v 0.4 0.3 0.2
v -0.4 0 0
v -0.4 0.1 0
v -0.4 0.2 0
v -0.4 0.4 0
v -0.4 0.7 0
v -0.2 0 0
v -0.2 0.3 0
v -0.2 0.4 0
v -0.2 0.7 0
v -5.96046e-08 0 0
v -5.96046e-08 0.1 0
v 0.2 0 0
v 0.2 0.1 0
v 0.4 0 0
v 0.4 0.2 0
v 0.4 0.3 0
v 0.4 0.5 0
v 0.6 0 0
v 0.6 0.3 0
v 0.6 0.5 0
v -0.2 0 -0.2
v -0.2 0.2 -0.2
v -0.2 0.4 -0.2
v -0.2 0.5 -0.2
v -5.96046e-08 0 -0.2
v -5.96046e-08 0.1 -0.2
v -5.96046e-08 0.2 -0.2
v -5.96046e-08 0.5 -0.2
v 0.2 0 -0.2
v 0.2 0.1 -0.2
v 0.2 0.3 -0.2
v 0.4 0 -0.2
v 0.4 0.3 -0.2
v -5.96046e-08 0 0.2
v -5.96046e-08 0.2 0.2
v 0.2 0 0.2
v 0.2 0.2 0.2
v -0.6 0 0
v -0.6 0.1 0
v -0.6 0.2 0
v -0.4 0 0
v -0.4 0.1 0
v -0.4 0.2 0
v -0.2 0 0
v -0.2 0.3 0
v -5.96046e-08 0 0
v -5.96046e-08 0.1 0
v -5.96046e-08 0.3 0
v 0.2 0 0
v 0.2 0.1 0
v 0.2 0.2 0
v 0.2 0.3 0
v 0.4 0 0
v 0.4 0.2 0
v 0.4 0.3 0
v -0.4 0 -0.2
v -0.4 0.4 -0.2
v -0.4 0.7 -0.2
v -0.2 0 -0.2
v -0.2 0.2 -0.2
v -0.2 0.4 -0.2
v -0.2 0.5 -0.2
v -0.2 0.7 -0.2
v -5.96046e-08 0 -0.2
v -5.96046e-08 0.1 -0.2
v 0.2 0 -0.2
v 0.2 0.1 -0.2
v 0.4 0 -0.2
v 0.4 0.3 -0.2
v 0.4 0.5 -0.2
v 0.6 0 -0.2
v 0.6 0.3 -0.2
v 0.6 0.5 -0.2
v -0.2 0 -0.4
v -0.2 0.2 -0.4
v -0.2 0.5 -0.4
v -5.96046e-08 0 -0.4
v -5.96046e-08 0.2 -0.4
v -5.96046e-08 0.5 -0.4
v 0.2 0 -0.4
v 0.2 0.3 -0.4
v 0.4 0 -0.4
v 0.4 0.3 -0.4
v -5.96046e-08 0 0.4
v 0.2 0 0.4
v -0.6 0 0.2
v -0.4 0 0.2
v -0.2 0 0.2
v -5.96046e-08 0 0.2
v 0.2 0 0.2
v 0.4 0 0.2
v -0.6 0 0
v -0.4 0 0
v -0.2 0 0
v -5.96046e-08 0 0
v 0.2 0 0
v 0.4 0 0
v 0.6 0 0
v -0.4 0 -0.2
v -0.2 0 -0.2
v -5.96046e-08 0 -0.2
v 0.2 0 -0.2
v 0.4 0 -0.2
v 0.6 0 -0.2
v -0.2 0 -0.4
v -5.96046e-08 0 -0.4
v 0.2 0 -0.4
v 0.4 0 -0.4
v -5.96046e-08 0.1 0
v 0.2 0.1 0
v -5.96046e-08 0.1 -0.2
v 0.2 0.1 -0.2
v -5.96046e-08 0.2 0.4
v 0.1 0.2 0.4
v 0.2 0.2 0.4
v 0.1 0.2 0.3
v 0.2 0.2 0.3
v -0.6 0.2 0.2
v -0.4 0.2 0.2
v -5.96046e-08 0.2 0.2
v 0.2 0.2 0.2
v -0.6 0.2 0
v -0.4 0.2 0
v -0.2 0.3 0.2
v -5.96046e-08 0.3 0.2
v 0.2 0.3 0.2
v 0.4 0.3 0.2
v -0.2 0.3 0
v -5.96046e-08 0.3 0
v 0.2 0.3 0
v 0.4 0.3 0
v 0.2 0.3 -0.2
v 0.4 0.3 -0.2
v 0.2 0.3 -0.4
v 0.4 0.3 -0.4
v 0.4 0.5 0
v 0.6 0.5 0
v -0.2 0.5 -0.2
v -5.96046e-08 0.5 -0.2
v 0.4 0.5 -0.2
v 0.6 0.5 -0.2
v -0.2 0.5 -0.4
v -5.96046e-08 0.5 -0.4
v -0.4 0.7 0
v -0.2 0.7 0
v -0.4 0.7 -0.2
v -0.2 0.7 -0.2

# faces
f 3/1/1 2/1/1 1/1/1
f 4/1/1 2/1/1 3/1/1
f 5/2/1 4/2/1 3/2/1
f 6/2/1 4/2/1 5/2/1
f 9/1/1 8/1/1 7/1/1
f 10/1/1 8/1/1 9/1/1
f 11/1/1 8/1/1 10/1/1
f 12/1/1 8/1/1 11/1/1
f 13/2/1 12/2/1 11/2/1
f 14/2/1 12/2/1 13/2/1
f 19/1/1 18/1/1 17/1/1
f 20/1/1 18/1/1 19/1/1
f 21/1/1 16/1/1 15/1/1
f 22/1/1 16/1/1 21/1/1
f 23/2/1 20/2/1 19/2/1
f 24/2/1 20/2/1 23/2/1
f 25/2/1 20/2/1 24/2/1
f 30/1/1 29/1/1 28/1/1
f 31/1/1 29/1/1 30/1/1
f 32/1/1 27/1/1 26/1/1
f 33/1/1 27/1/1 32/1/1
f 38/1/1 35/1/1 34/1/1
f 39/1/1 37/1/1 36/1/1
f 40/1/1 38/1/1 34/1/1
f 41/1/1 38/1/1 40/1/1
f 42/2/1 41/2/1 40/2/1
f 43/2/1 41/2/1 42/2/1
f 44/1/1 37/1/1 39/1/1
f 45/1/1 37/1/1 44/1/1
f 48/1/1 47/1/1 46/1/1
f 49/1/1 47/1/1 48/1/1
f 50/1/1 47/1/1 49/1/1
f 51/2/1 50/2/1 49/2/1
f 52/2/1 50/2/1 51/2/1
f 53/1/2 54/1/2 55/1/2
f 55/1/2 54/1/2 56/1/2
f 55/2/2 56/2/2 57/2/2
f 57/2/2 56/2/2 58/2/2
f 59/1/2 60/1/2 61/1/2
f 59/1/2 61/1/2 62/1/2
f 62/1/2 61/1/2 63/1/2
f 63/1/2 61/1/2 64/1/2
f 63/2/2 64/2/2 65/2/2
f 63/2/2 65/2/2 66/2/2
f 66/2/2 65/2/2 67/2/2
f 68/1/2 69/1/2 72/1/2
f 70/1/2 71/1/2 73/1/2
f 68/1/2 72/1/2 74/1/2
f 73/1/2 71/1/2 75/1/2
f 75/1/2 71/1/2 76/1/2
f 74/1/2 72/1/2 77/1/2
f 77/1/2 72/1/2 78/1/2
f 75/2/2 76/2/2 79/2/2
f 79/2/2 76/2/2 80/2/2
f 81/1/2 82/1/2 85/1/2
f 85/1/2 82/1/2 86/1/2
f 83/1/2 84/1/2 87/1/2
f 87/1/2 84/1/2 88/1/2
f 85/2/2 86/2/2 89/2/2
f 86/1/2 82/1/2 90/1/2
f 89/2/2 86/2/2 90/2/2
f 90/1/2 82/1/2 91/1/2
f 92/1/2 93/1/2 96/1/2
f 96/1/2 93/1/2 97/1/2
f 96/2/2 97/2/2 98/2/2
f 98/2/2 97/2/2 99/2/2
f 94/1/2 95/1/2 100/1/2
f 100/1/2 95/1/2 101/1/2
f 102/1/2 103/1/2 104/1/2
f 104/1/2 103/1/2 105/1/2
f 104/2/2 105/2/2 106/2/2
f 106/2/2 105/2/2 107/2/2
f 110/1/3 109/1/3 108/1/3
f 111/1/3 109/1/3 110/1/3
f 112/1/3 110/1/3 108/1/3
f 113/2/3 111/2/3 110/2/3
f 113/1/3 110/1/3 112/1/3
f 114/2/3 111/2/3 113/2/3
f 118/1/3 116/1/3 115/1/3
f 119/2/3 117/2/3 116/2/3
f 119/1/3 116/1/3 118/1/3
f 120/2/3 117/2/3 119/2/3
f 123/1/3 122/1/3 121/1/3
f 124/1/3 122/1/3 123/1/3
f 125/1/3 122/1/3 124/1/3
f 129/1/3 127/1/3 126/1/3
f 130/2/3 128/2/3 127/2/3
f 130/1/3 127/1/3 129/1/3
f 131/2/3 128/2/3 130/2/3
f 137/1/3 133/1/3 132/1/3
f 137/1/3 134/1/3 133/1/3
f 137/1/3 135/1/3 134/1/3
f 138/1/3 135/1/3 137/1/3
f 139/2/3 136/2/3 135/2/3
f 139/1/3 135/1/3 138/1/3
f 140/2/3 136/2/3 139/2/3
f 143/1/3 142/1/3 141/1/3
f 144/1/3 142/1/3 143/1/3
f 149/1/3 146/1/3 145/1/3
f 149/1/3 147/1/3 146/1/3
f 150/2/3 148/2/3 147/2/3
f 150/1/3 147/1/3 149/1/3
f 151/2/3 148/2/3 150/2/3
f 156/1/3 153/1/3 152/1/3
f 157/1/3 153/1/3 156/1/3
f 158/2/3 155/2/3 154/2/3
f 158/1/3 153/1/3 157/1/3
f 158/2/3 154/2/3 153/2/3
f 159/2/3 155/2/3 158/2/3
f 163/1/3 161/1/3 160/1/3
f 163/1/3 162/1/3 161/1/3
f 164/1/3 162/1/3 163/1/3
f 165/1/4 166/1/4 167/1/4
f 167/1/4 166/1/4 168/1/4
f 169/1/4 170/1/4 172/1/4
f 170/2/4 171/2/4 173/2/4
f 172/1/4 170/1/4 173/1/4
f 173/2/4 171/2/4 174/2/4
f 175/1/4 176/1/4 177/1/4
f 177/1/4 176/1/4 178/1/4
f 178/1/4 176/1/4 179/1/4
f 180/1/4 181/1/4 184/1/4
f 181/1/4 182/1/4 184/1/4
f 182/2/4 183/2/4 185/2/4
f 184/1/4 182/1/4 185/1/4
f 185/2/4 183/2/4 186/2/4
f 187/1/4 188/1/4 190/1/4
f 190/1/4 188/1/4 191/1/4
f 188/2/4 189/2/4 192/2/4
f 191/1/4 188/1/4 192/1/4
f 192/2/4 189/2/4 193/2/4
f 193/2/4 189/2/4 194/2/4
f 195/1/4 196/1/4 197/1/4
f 197/1/4 196/1/4 198/1/4
f 199/1/4 200/1/4 202/1/4
f 200/2/4 201/2/4 203/2/4
f 202/1/4 200/1/4 203/1/4
f 203/2/4 201/2/4 204/2/4
f 205/1/4 206/1/4 208/1/4
f 206/2/4 207/2/4 209/2/4
f 208/1/4 206/1/4 209/1/4
f 209/2/4 207/2/4 210/2/4
f 211/1/4 212/1/4 213/1/4
f 213/1/4 212/1/4 214/1/4
f 220/1/5 216/1/5 215/1/5
f 221/1/5 216/1/5 220/1/5
f 223/1/5 218/1/5 217/1/5
f 224/1/5 218/1/5 223/1/5
f 225/1/5 220/1/5 219/1/5
f 226/1/5 220/1/5 225/1/5
f 227/1/5 222/1/5 221/1/5
f 228/1/5 222/1/5 227/1/5
f 230/1/5 225/1/5 224/1/5
f 231/1/5 225/1/5 230/1/5
f 232/1/5 227/1/5 226/1/5
f 233/1/5 227/1/5 232/1/5
f 234/1/5 229/1/5 228/1/5
f 235/1/5 229/1/5 234/1/5
f 236/1/5 232/1/5 231/1/5
f 237/1/5 232/1/5 236/1/5
f 238/1/5 234/1/5 233/1/5
f 239/1/5 234/1/5 238/1/5
f 240/1/6 241/1/6 242/1/6
f 242/1/6 241/1/6 243/1/6
f 244/1/6 245/1/6 247/1/6
f 245/2/6 246/2/6 247/2/6
f 247/2/6 246/2/6 248/2/6
f 244/1/6 247/1/6 251/1/6
f 247/1/6 248/1/6 251/1/6
f 251/1/6 248/1/6 252/1/6
f 249/2/6 250/2/6 253/2/6
f 253/2/6 250/2/6 254/2/6
f 255/1/6 256/1/6 259/1/6
f 259/1/6 256/1/6 260/1/6
f 257/2/6 258/2/6 261/2/6
f 261/2/6 258/2/6 262/2/6
f 263/1/6 264/1/6 265/1/6
f 265/1/6 264/1/6 266/1/6
f 267/2/6 268/2/6 271/2/6
f 271/2/6 268/2/6 272/2/6
f 269/2/6 270/2/6 273/2/6
f 273/2/6 270/2/6 274/2/6
f 275/2/6 276/2/6 277/2/6
f 277/2/6 276/2/6 278/2/6
