# MagicaVoxel @ Ephtracy

# group
o pumpkin_3-0-carrot_1

# material
mtllib pumpkin_3.mtl
usemtl palette

# normals
vn -1 0 0
vn 1 0 0
vn 0 0 1
vn 0 0 -1
vn 0 -1 0
vn 0 1 0

# texcoords
vt 0.853516 0.5
vt 0.857422 0.5
vt 0.884766 0.5
vt 0.947266 0.5
vt 0.978516 0.5

# verts
v -1.2 0.8 0.2
v -1.2 0.8 -0.9
v -1.2 0.9 0.2
v -1.2 0.9 -0.9
v -0.9 0.9 0.1
v -0.9 0.9 -0.6
v -0.9 1.1 0.1
v -0.9 1.1 -0.6
v -0.7 0.8 0.6
v -0.7 0.8 0.2
v -0.7 0.9 0.6
v -0.7 0.9 0.2
v -0.6 -0.1 -0.2
v -0.6 -0.1 -1.1
v -0.6 0.2 -0.2
v -0.6 0.2 -1.1
v -0.6 0.9 0.5
v -0.6 0.9 0.1
v -0.6 1.1 0.5
v -0.6 1.1 0.1
v -0.5 -0.1 -1.1
v -0.5 -0.1 -1.2
v -0.5 0.2 -1.1
v -0.5 0.2 -1.2
v -0.3 -0.5 0.5
v -0.3 -0.5 0
v -0.3 -0.2 0
v -0.3 -0.2 -0.2
v -0.3 -0.1 0.5
v -0.3 -0.1 0.1
v -0.3 -0.1 0
v -0.3 -0.1 -0.2
v -0.3 0.2 0.1
v -0.3 0.2 -0.2
v -0.3 0.5 0.5
v -0.3 0.5 0
v -0.3 0.8 0.5
v -0.3 0.8 0
v 0 -1 1
v 0 -1 -0.2
v 0 -0.5 0.5
v 0 -0.5 0
v 0 -0.5 -0.2
v 0 -0.5 -0.3
v 0 -0.2 0
v 0 -0.2 -0.2
v 0 -0.2 -0.3
v 0 -0.1 1
v 0 -0.1 0.5
v 0 -0.1 0.1
v 0 -0.1 -0.2
v 0 -0.1 -0.3
v 0 0.2 0.5
v 0 0.2 0.4
v 0 0.2 0.1
v 0 0.2 0
v 0 0.4 0.8
v 0 0.4 0.5
v 0 0.5 0.5
v 0 0.5 0.4
v 0 0.5 0
v 0 0.6 0.8
v 0 0.6 0.5
v 0 0.8 0.4
v 0 0.8 0.1
v 0 0.9 0.4
v 0 0.9 0.1
v 0.4 -0.4 0.1
v 0.4 -0.4 -0.2
v 0.4 -0.2 0.4
v 0.4 -0.2 0.1
v 0.4 -0.1 0.4
v 0.4 -0.1 0
v 0.4 -0.1 -0.2
v 0.4 0.1 0.1
v 0.4 0.1 0
v 0.4 0.1 -0.2
v 0.4 0.2 0.4
v 0.4 0.2 0.1
v 0.4 0.4 1.2
v 0.4 0.4 0.8
v 0.4 0.5 0.4
v 0.4 0.5 0.1
v 0.4 0.6 1.2
v 0.4 0.6 0.8
v 0.4 0.6 0.4
v 0.4 0.8 0.4
v 0.4 0.8 0.1
v 0.7 -0.7 0.7
v 0.7 -0.7 0.1
v 0.7 -0.2 0.7
v 0.7 -0.2 0.1
v 0.7 0.2 0.4
v 0.7 0.2 0.1
v 0.7 0.4 0.5
v 0.7 0.4 0.4
v 0.7 0.5 0.5
v 0.7 0.5 0.4
v 0.7 0.5 0.1
v 1 0.4 1
v 1 0.4 0.5
v 1 0.5 1
v 1 0.5 0.5
v -0.3 0.8 0.6
v -0.3 0.8 0.5
v -0.3 0.9 0.6
v -0.3 0.9 0.5
v -0.2 -0.4 0.4
v -0.2 -0.4 0.1
v -0.2 -0.2 0.4
v -0.2 -0.2 0.1
v -0.2 -0.1 0
v -0.2 -0.1 -0.2
v -0.2 0.1 0
v -0.2 0.1 -0.2
v -0.2 0.6 0.4
v -0.2 0.6 0.1
v -0.2 0.9 0.4
v -0.2 0.9 0.1
v -0.2 0.9 -0.3
v -0.2 0.9 -0.6
v -0.2 1.1 -0.3
v -0.2 1.1 -0.6
v -0.1 -0.1 -1
v -0.1 -0.1 -1.2
v -0.1 0.2 -1
v -0.1 0.2 -1.2
v 0 0.8 -0.5
v 0 0.8 -0.9
v 0 0.9 -0.5
v 0 0.9 -0.9
v 0.0999999 -0.7 0.7
v 0.0999999 -0.7 0.1
v 0.0999999 -0.4 0.4
v 0.0999999 -0.4 0.1
v 0.0999999 -0.4 -0.2
v 0.0999999 -0.2 0.7
v 0.0999999 -0.2 0.4
v 0.0999999 -0.2 0.1
v 0.0999999 -0.1 0.4
v 0.0999999 -0.1 0.1
v 0.0999999 -0.1 0
v 0.0999999 -0.1 -0.2
v 0.0999999 -0.1 -0.3
v 0.0999999 -0.1 -1
v 0.0999999 0.1 0.1
v 0.0999999 0.1 0
v 0.0999999 0.2 0.5
v 0.0999999 0.2 0.4
v 0.0999999 0.2 -0.3
v 0.0999999 0.2 -1
v 0.0999999 0.4 0.7
v 0.0999999 0.4 0.5
v 0.0999999 0.5 0.7
v 0.0999999 0.5 0.4
v 0.0999999 0.6 0.4
v 0.0999999 0.6 0.1
v 0.0999999 0.9 0.5
v 0.0999999 0.9 0
v 0.0999999 0.9 -0.3
v 0.0999999 1.1 0.5
v 0.0999999 1.1 -0.3
v 0.2 0.8 0
v 0.2 0.8 -0.5
v 0.2 0.9 0
v 0.2 0.9 -0.5
v 0.5 -0.5 -0.2
v 0.5 -0.5 -0.3
v 0.5 -0.1 0.5
v 0.5 -0.1 0
v 0.5 -0.1 -0.2
v 0.5 0.1 0.4
v 0.5 0.1 0
v 0.5 0.2 0.5
v 0.5 0.2 0.4
v 0.5 0.2 0
v 0.5 0.2 -0.3
v 0.5 0.4 1
v 0.5 0.4 0.7
v 0.5 0.5 1
v 0.5 0.5 0.7
v 0.5 0.6 0.5
v 0.5 0.6 0.4
v 0.5 0.6 0
v 0.5 0.9 0.5
v 0.5 0.9 0
v 0.8 0.1 0.4
v 0.8 0.1 0
v 0.8 0.4 0.4
v 0.8 0.6 0.4
v 0.8 0.6 0
v 1 -1 1
v 1 -1 -0.2
v 1 -0.1 1
v 1 -0.1 -0.2
v 1.2 0.4 1.2
v 1.2 0.4 0.4
v 1.2 0.6 1.2
v 1.2 0.6 0.4
v 0.4 0.4 1.2
v 0.4 0.6 1.2
v 1.2 0.4 1.2
v 1.2 0.6 1.2
v 0 -1 1
v 0 -0.1 1
v 1 -1 1
v 1 -0.1 1
v 0 0.4 0.8
v 0 0.6 0.8
v 0.4 0.4 0.8
v 0.4 0.6 0.8
v -0.7 0.8 0.6
v -0.7 0.9 0.6
v -0.3 0.8 0.6
v -0.3 0.9 0.6
v -0.6 0.9 0.5
v -0.6 1.1 0.5
v -0.3 -0.5 0.5
v -0.3 -0.1 0.5
v -0.3 0.5 0.5
v -0.3 0.8 0.5
v -0.3 0.9 0.5
v 0 -0.5 0.5
v 0 -0.1 0.5
v 0 0.2 0.5
v 0 0.4 0.5
v 0 0.5 0.5
v 0 0.6 0.5
v 0.0999999 0.2 0.5
v 0.0999999 0.4 0.5
v 0.0999999 0.9 0.5
v 0.0999999 1.1 0.5
v 0.5 -0.1 0.5
v 0.5 0.2 0.5
v 0.5 0.6 0.5
v 0.5 0.9 0.5
v 0.7 0.4 0.5
v 0.7 0.5 0.5
v 1 0.4 0.5
v 1 0.5 0.5
v 0.5 0.1 0.4
v 0.5 0.2 0.4
v 0.7 0.2 0.4
v 0.7 0.4 0.4
v 0.8 0.1 0.4
v 0.8 0.4 0.4
v -1.2 0.8 0.2
v -1.2 0.9 0.2
v -0.7 0.8 0.2
v -0.7 0.9 0.2
v -0.9 0.9 0.1
v -0.9 1.1 0.1
v -0.6 0.9 0.1
v -0.6 1.1 0.1
v -0.3 -0.1 0.1
v -0.3 0.2 0.1
v -0.2 -0.4 0.1
v -0.2 -0.2 0.1
v -0.2 0.6 0.1
v -0.2 0.9 0.1
v 0 -0.4 0.1
v 0 -0.2 0.1
v 0 -0.1 0.1
v 0 0.2 0.1
v 0 0.8 0.1
v 0 0.9 0.1
v 0.0999999 -0.7 0.1
v 0.0999999 -0.4 0.1
v 0.0999999 -0.2 0.1
v 0.0999999 0.1 0.1
v 0.0999999 0.6 0.1
v 0.4 -0.4 0.1
v 0.4 -0.2 0.1
v 0.4 0.1 0.1
v 0.4 0.2 0.1
v 0.4 0.5 0.1
v 0.4 0.8 0.1
v 0.7 -0.7 0.1
v 0.7 -0.2 0.1
v 0.7 0.2 0.1
v 0.7 0.5 0.1
v -0.6 -0.1 -0.2
v -0.6 0.2 -0.2
v -0.3 -0.1 -0.2
v -0.3 0.2 -0.2
v -0.2 -0.1 -0.2
v -0.2 0.1 -0.2
v 0 -0.1 -0.2
v 0.0999999 -0.4 -0.2
v 0.0999999 -0.1 -0.2
v 0.0999999 0.1 -0.2
v 0.4 -0.4 -0.2
v 0.4 -0.1 -0.2
v 0.4 0.1 -0.2
v 0.5 0.4 1
v 0.5 0.5 1
v 1 0.4 1
v 1 0.5 1
v 0.0999999 -0.7 0.7
v 0.0999999 -0.2 0.7
v 0.0999999 0.4 0.7
v 0.0999999 0.5 0.7
v 0.5 0.4 0.7
v 0.5 0.5 0.7
v 0.7 -0.7 0.7
v 0.7 -0.2 0.7
v -0.2 -0.4 0.4
v -0.2 -0.2 0.4
v -0.2 0.6 0.4
v -0.2 0.9 0.4
v 0 -0.4 0.4
v 0 -0.2 0.4
v 0 0.8 0.4
v 0 0.9 0.4
v 0.0999999 -0.4 0.4
v 0.0999999 -0.2 0.4
v 0.0999999 -0.1 0.4
v 0.0999999 0.2 0.4
v 0.0999999 0.5 0.4
v 0.0999999 0.6 0.4
v 0.4 -0.2 0.4
v 0.4 -0.1 0.4
v 0.4 0.2 0.4
v 0.4 0.5 0.4
v 0.4 0.6 0.4
v 0.4 0.8 0.4
v 0.8 0.4 0.4
v 0.8 0.6 0.4
v 1.2 0.4 0.4
v 1.2 0.6 0.4
v -0.3 -0.5 0
v -0.3 -0.2 0
v -0.3 0.5 0
v -0.3 0.8 0
v -0.2 -0.1 0
v -0.2 0.1 0
v 0 -0.5 0
v 0 -0.2 0
v 0 -0.1 0
v 0 0.2 0
v 0 0.5 0
v 0.0999999 -0.1 0
v 0.0999999 0.1 0
v 0.0999999 0.8 0
v 0.2 0.8 0
v 0.2 0.9 0
v 0.5 0.1 0
v 0.5 0.2 0
v 0.5 0.6 0
v 0.5 0.9 0
v 0.8 0.1 0
v 0.8 0.6 0
v -0.3 -0.2 -0.2
v -0.3 -0.1 -0.2
v 0 -1 -0.2
v 0 -0.5 -0.2
v 0 -0.2 -0.2
v 0 -0.1 -0.2
v 0.5 -0.5 -0.2
v 0.5 -0.1 -0.2
v 1 -1 -0.2
v 1 -0.1 -0.2
v -0.2 0.9 -0.3
v -0.2 1.1 -0.3
v 0 -0.5 -0.3
v 0 -0.2 -0.3
v 0 -0.1 -0.3
v 0.0999999 -0.2 -0.3
v 0.0999999 -0.1 -0.3
v 0.0999999 0.2 -0.3
v 0.0999999 0.9 -0.3
v 0.0999999 1.1 -0.3
v 0.5 -0.5 -0.3
v 0.5 0.2 -0.3
v 0 0.8 -0.5
v 0 0.9 -0.5
v 0.2 0.8 -0.5
v 0.2 0.9 -0.5
v -0.9 0.9 -0.6
v -0.9 1.1 -0.6
v -0.2 0.9 -0.6
v -0.2 1.1 -0.6
v -1.2 0.8 -0.9
v -1.2 0.9 -0.9
v 0 0.8 -0.9
v 0 0.9 -0.9
v -0.1 -0.1 -1
v -0.1 0.2 -1
v 0.0999999 -0.1 -1
v 0.0999999 0.2 -1
v -0.6 -0.1 -1.1
v -0.6 0.2 -1.1
v -0.5 -0.1 -1.1
v -0.5 0.2 -1.1
v -0.5 -0.1 -1.2
v -0.5 0.2 -1.2
v -0.1 -0.1 -1.2
v -0.1 0.2 -1.2
v 0 -1 1
v 1 -1 1
v 0 -1 -0.2
v 1 -1 -0.2
v -0.3 -0.5 0.5
v 0 -0.5 0.5
v -0.3 -0.5 0
v 0 -0.5 0
v 0 -0.5 -0.2
v 0.5 -0.5 -0.2
v 0 -0.5 -0.3
v 0.5 -0.5 -0.3
v 0.0999999 -0.2 0.7
v 0.7 -0.2 0.7
v -0.2 -0.2 0.4
v 0 -0.2 0.4
v 0.0999999 -0.2 0.4
v 0.4 -0.2 0.4
v -0.2 -0.2 0.1
v 0 -0.2 0.1
v 0.0999999 -0.2 0.1
v 0.4 -0.2 0.1
v 0.7 -0.2 0.1
v -0.3 -0.2 0
v 0 -0.2 0
v -0.3 -0.2 -0.2
v 0 -0.2 -0.2
v -0.6 -0.1 -0.2
v -0.3 -0.1 -0.2
v 0 -0.1 -0.2
v 0 -0.1 -0.3
v 0.0999999 -0.1 -0.3
v -0.1 -0.1 -1
v 0.0999999 -0.1 -1
v -0.6 -0.1 -1.1
v -0.5 -0.1 -1.1
v -0.5 -0.1 -1.2
v -0.1 -0.1 -1.2
v 0.5 0.1 0.4
v 0.8 0.1 0.4
v 0.0999999 0.1 0.1
v 0.4 0.1 0.1
v -0.2 0.1 0
v 0.0999999 0.1 0
v 0.4 0.1 0
v 0.5 0.1 0
v 0.8 0.1 0
v -0.2 0.1 -0.2
v 0.0999999 0.1 -0.2
v 0.4 0.1 -0.2
v 0.4 0.4 1.2
v 1.2 0.4 1.2
v 0.5 0.4 1
v 1 0.4 1
v 0 0.4 0.8
v 0.4 0.4 0.8
v 0.0999999 0.4 0.7
v 0.5 0.4 0.7
v 0 0.4 0.5
v 0.0999999 0.4 0.5
v 0.7 0.4 0.5
v 1 0.4 0.5
v 0.7 0.4 0.4
v 0.8 0.4 0.4
v 1.2 0.4 0.4
v 0.5 0.5 1
v 1 0.5 1
v 0.0999999 0.5 0.7
v 0.5 0.5 0.7
v -0.3 0.5 0.5
v 0 0.5 0.5
v 0.7 0.5 0.5
v 1 0.5 0.5
v 0 0.5 0.4
v 0.0999999 0.5 0.4
v 0.4 0.5 0.4
v 0.7 0.5 0.4
v 0.4 0.5 0.1
v 0.7 0.5 0.1
v -0.3 0.5 0
v 0 0.5 0
v -0.7 0.8 0.6
v -0.3 0.8 0.6
v -0.6 0.8 0.5
v -0.3 0.8 0.5
v 0 0.8 0.4
v 0.4 0.8 0.4
v -1.2 0.8 0.2
v -0.7 0.8 0.2
v -0.9 0.8 0.1
v -0.6 0.8 0.1
v 0 0.8 0.1
v 0.4 0.8 0.1
v -0.3 0.8 0
v 0.0999999 0.8 0
v 0.2 0.8 0
v -0.2 0.8 -0.3
v 0.0999999 0.8 -0.3
v 0 0.8 -0.5
v 0.2 0.8 -0.5
v -0.9 0.8 -0.6
v -0.2 0.8 -0.6
v -1.2 0.8 -0.9
v 0 0.8 -0.9
v -0.2 0.9 0.4
v 0 0.9 0.4
v -0.2 0.9 0.1
v 0 0.9 0.1
v 0.0999999 -0.7 0.7
v 0.7 -0.7 0.7
v 0.0999999 -0.7 0.1
v 0.7 -0.7 0.1
v -0.2 -0.4 0.4
v 0 -0.4 0.4
v 0.0999999 -0.4 0.4
v -0.2 -0.4 0.1
v 0 -0.4 0.1
v 0.0999999 -0.4 0.1
v 0.4 -0.4 0.1
v 0.0999999 -0.4 -0.2
v 0.4 -0.4 -0.2
v 0 -0.1 1
v 1 -0.1 1
v -0.3 -0.1 0.5
v 0 -0.1 0.5
v 0.5 -0.1 0.5
v -0.3 -0.1 0.1
v 0 -0.1 0.1
v -0.2 -0.1 0
v 0 -0.1 0
v 0.0999999 -0.1 0
v 0.5 -0.1 0
v -0.2 -0.1 -0.2
v 0 -0.1 -0.2
v 0.0999999 -0.1 -0.2
v 0.5 -0.1 -0.2
v 1 -0.1 -0.2
v 0.0999999 0.2 0.5
v 0.5 0.2 0.5
v 0.0999999 0.2 0.4
v 0.4 0.2 0.4
v 0.5 0.2 0.4
v 0.7 0.2 0.4
v -0.3 0.2 0.1
v 0 0.2 0.1
v 0.4 0.2 0.1
v 0.7 0.2 0.1
v 0 0.2 0
v 0.5 0.2 0
v -0.6 0.2 -0.2
v -0.3 0.2 -0.2
v 0.0999999 0.2 -0.2
v 0.0999999 0.2 -0.3
v 0.5 0.2 -0.3
v -0.1 0.2 -1
v 0.0999999 0.2 -1
v -0.6 0.2 -1.1
v -0.5 0.2 -1.1
v -0.5 0.2 -1.2
v -0.1 0.2 -1.2
v 0.4 0.6 1.2
v 1.2 0.6 1.2
v 0 0.6 0.8
v 0.4 0.6 0.8
v 0 0.6 0.5
v 0.5 0.6 0.5
v -0.2 0.6 0.4
v 0.0999999 0.6 0.4
v 0.5 0.6 0.4
v 0.8 0.6 0.4
v 1.2 0.6 0.4
v -0.2 0.6 0.1
v 0.0999999 0.6 0.1
v 0.5 0.6 0
v 0.8 0.6 0
v -0.7 0.9 0.6
v -0.3 0.9 0.6
v -0.6 0.9 0.5
v -0.3 0.9 0.5
v 0.0999999 0.9 0.5
v 0.5 0.9 0.5
v -1.2 0.9 0.2
v -0.7 0.9 0.2
v -0.9 0.9 0.1
v -0.6 0.9 0.1
v 0.0999999 0.9 0
v 0.2 0.9 0
v 0.5 0.9 0
v -0.2 0.9 -0.3
v 0.0999999 0.9 -0.3
v 0 0.9 -0.5
v 0.2 0.9 -0.5
v -0.9 0.9 -0.6
v -0.2 0.9 -0.6
v -1.2 0.9 -0.9
v 0 0.9 -0.9
v -0.6 1.1 0.5
v 0.0999999 1.1 0.5
v -0.9 1.1 0.1
v -0.6 1.1 0.1
v -0.2 1.1 -0.3
v 0.0999999 1.1 -0.3
v -0.9 1.1 -0.6
v -0.2 1.1 -0.6

# faces
f 3/1/1 2/1/1 1/1/1
f 4/1/1 2/1/1 3/1/1
f 7/4/1 6/4/1 5/4/1
f 8/4/1 6/4/1 7/4/1
f 11/1/1 10/1/1 9/1/1
f 12/1/1 10/1/1 11/1/1
f 15/3/1 14/3/1 13/3/1
f 16/3/1 14/3/1 15/3/1
f 19/4/1 18/4/1 17/4/1
f 20/4/1 18/4/1 19/4/1
f 23/3/1 22/3/1 21/3/1
f 24/3/1 22/3/1 23/3/1
f 27/5/1 26/5/1 25/5/1
f 29/5/1 27/5/1 25/5/1
f 30/5/1 27/5/1 29/5/1
f 31/1/1 28/1/1 27/1/1
f 31/5/1 27/5/1 30/5/1
f 32/1/1 28/1/1 31/1/1
f 33/1/1 31/1/1 30/1/1
f 33/1/1 32/1/1 31/1/1
f 34/1/1 32/1/1 33/1/1
f 37/5/1 36/5/1 35/5/1
f 38/5/1 36/5/1 37/5/1
f 41/2/1 40/2/1 39/2/1
f 42/2/1 40/2/1 41/2/1
f 43/2/1 40/2/1 42/2/1
f 45/2/1 43/2/1 42/2/1
f 46/1/1 44/1/1 43/1/1
f 46/2/1 43/2/1 45/2/1
f 47/1/1 44/1/1 46/1/1
f 48/2/1 41/2/1 39/2/1
f 49/2/1 41/2/1 48/2/1
f 51/3/1 47/3/1 46/3/1
f 52/3/1 47/3/1 51/3/1
f 53/5/1 50/5/1 49/5/1
f 54/5/1 50/5/1 53/5/1
f 55/5/1 50/5/1 54/5/1
f 58/1/1 54/1/1 53/1/1
f 59/1/1 54/1/1 58/1/1
f 59/1/1 58/1/1 57/1/1
f 60/5/1 56/5/1 55/5/1
f 60/1/1 54/1/1 59/1/1
f 60/5/1 55/5/1 54/5/1
f 61/5/1 56/5/1 60/5/1
f 62/1/1 59/1/1 57/1/1
f 63/1/1 59/1/1 62/1/1
f 66/5/1 65/5/1 64/5/1
f 67/5/1 65/5/1 66/5/1
f 71/2/1 69/2/1 68/2/1
f 72/2/1 71/2/1 70/2/1
f 73/2/1 69/2/1 71/2/1
f 73/2/1 71/2/1 72/2/1
f 74/2/1 69/2/1 73/2/1
f 75/5/1 73/5/1 72/5/1
f 76/1/1 74/1/1 73/1/1
f 76/5/1 73/5/1 75/5/1
f 77/1/1 74/1/1 76/1/1
f 78/5/1 75/5/1 72/5/1
f 79/5/1 75/5/1 78/5/1
f 84/1/1 81/1/1 80/1/1
f 85/1/1 81/1/1 84/1/1
f 86/5/1 83/5/1 82/5/1
f 87/5/1 83/5/1 86/5/1
f 88/5/1 83/5/1 87/5/1
f 91/2/1 90/2/1 89/2/1
f 92/2/1 90/2/1 91/2/1
f 96/5/1 94/5/1 93/5/1
f 97/1/1 96/1/1 95/1/1
f 98/5/1 94/5/1 96/5/1
f 98/1/1 96/1/1 97/1/1
f 99/5/1 94/5/1 98/5/1
f 102/1/1 101/1/1 100/1/1
f 103/1/1 101/1/1 102/1/1
f 104/1/2 105/1/2 106/1/2
f 106/1/2 105/1/2 107/1/2
f 108/5/2 109/5/2 110/5/2
f 110/5/2 109/5/2 111/5/2
f 112/1/2 113/1/2 114/1/2
f 114/1/2 113/1/2 115/1/2
f 116/5/2 117/5/2 118/5/2
f 118/5/2 117/5/2 119/5/2
f 120/4/2 121/4/2 122/4/2
f 122/4/2 121/4/2 123/4/2
f 124/3/2 125/3/2 126/3/2
f 126/3/2 125/3/2 127/3/2
f 128/1/2 129/1/2 130/1/2
f 130/1/2 129/1/2 131/1/2
f 132/2/2 133/2/2 134/2/2
f 134/2/2 133/2/2 135/2/2
f 132/2/2 134/2/2 137/2/2
f 137/2/2 134/2/2 138/2/2
f 135/2/2 136/2/2 139/2/2
f 138/2/2 139/2/2 140/2/2
f 139/2/2 136/2/2 141/2/2
f 140/2/2 139/2/2 141/2/2
f 141/2/2 136/2/2 142/2/2
f 142/2/2 136/2/2 143/2/2
f 140/5/2 141/5/2 146/5/2
f 141/1/2 142/1/2 146/1/2
f 146/1/2 142/1/2 147/1/2
f 140/5/2 146/5/2 149/5/2
f 144/3/2 145/3/2 150/3/2
f 150/3/2 145/3/2 151/3/2
f 148/1/2 149/1/2 153/1/2
f 152/1/2 153/1/2 154/1/2
f 149/5/2 146/5/2 155/5/2
f 154/1/2 153/1/2 155/1/2
f 153/1/2 149/1/2 155/1/2
f 155/5/2 146/5/2 156/5/2
f 156/5/2 146/5/2 157/5/2
f 158/4/2 159/4/2 161/4/2
f 159/4/2 160/4/2 161/4/2
f 161/4/2 160/4/2 162/4/2
f 163/1/2 164/1/2 165/1/2
f 165/1/2 164/1/2 166/1/2
f 167/1/2 168/1/2 171/1/2
f 169/5/2 170/5/2 172/5/2
f 170/1/2 171/1/2 173/1/2
f 172/5/2 170/5/2 173/5/2
f 169/5/2 172/5/2 174/5/2
f 174/5/2 172/5/2 175/5/2
f 173/1/2 171/1/2 176/1/2
f 171/1/2 168/1/2 177/1/2
f 176/1/2 171/1/2 177/1/2
f 178/1/2 179/1/2 180/1/2
f 180/1/2 179/1/2 181/1/2
f 182/5/2 183/5/2 185/5/2
f 183/5/2 184/5/2 185/5/2
f 185/5/2 184/5/2 186/5/2
f 187/5/2 188/5/2 189/5/2
f 189/5/2 188/5/2 190/5/2
f 190/5/2 188/5/2 191/5/2
f 192/2/2 193/2/2 194/2/2
f 194/2/2 193/2/2 195/2/2
f 196/1/2 197/1/2 198/1/2
f 198/1/2 197/1/2 199/1/2
f 202/1/3 201/1/3 200/1/3
f 203/1/3 201/1/3 202/1/3
f 206/2/3 205/2/3 204/2/3
f 207/2/3 205/2/3 206/2/3
f 210/1/3 209/1/3 208/1/3
f 211/1/3 209/1/3 210/1/3
f 214/1/3 213/1/3 212/1/3
f 215/1/3 213/1/3 214/1/3
f 222/4/3 217/4/3 216/4/3
f 223/5/3 219/5/3 218/5/3
f 224/5/3 219/5/3 223/5/3
f 227/5/3 221/5/3 220/5/3
f 227/5/3 222/5/3 221/5/3
f 228/5/3 222/5/3 227/5/3
f 229/1/3 226/1/3 225/1/3
f 229/5/3 225/5/3 224/5/3
f 230/1/3 226/1/3 229/1/3
f 231/5/3 222/5/3 228/5/3
f 231/4/3 217/4/3 222/4/3
f 232/4/3 217/4/3 231/4/3
f 233/5/3 229/5/3 224/5/3
f 234/5/3 229/5/3 233/5/3
f 235/5/3 231/5/3 228/5/3
f 236/5/3 231/5/3 235/5/3
f 239/1/3 238/1/3 237/1/3
f 240/1/3 238/1/3 239/1/3
f 243/5/3 242/5/3 241/5/3
f 245/5/3 243/5/3 241/5/3
f 245/5/3 244/5/3 243/5/3
f 246/5/3 244/5/3 245/5/3
f 249/1/3 248/1/3 247/1/3
f 250/1/3 248/1/3 249/1/3
f 253/4/3 252/4/3 251/4/3
f 254/4/3 252/4/3 253/4/3
f 261/5/3 258/5/3 257/5/3
f 262/5/3 258/5/3 261/5/3
f 263/1/3 256/1/3 255/1/3
f 264/1/3 256/1/3 263/1/3
f 265/5/3 260/5/3 259/5/3
f 266/5/3 260/5/3 265/5/3
f 268/2/3 262/2/3 261/2/3
f 269/2/3 262/2/3 268/2/3
f 271/5/3 265/5/3 259/5/3
f 272/2/3 268/2/3 267/2/3
f 274/5/3 271/5/3 270/5/3
f 275/5/3 271/5/3 274/5/3
f 276/5/3 271/5/3 275/5/3
f 277/5/3 265/5/3 271/5/3
f 277/5/3 271/5/3 276/5/3
f 278/2/3 273/2/3 272/2/3
f 278/2/3 272/2/3 267/2/3
f 279/2/3 273/2/3 278/2/3
f 280/5/3 276/5/3 275/5/3
f 281/5/3 276/5/3 280/5/3
f 284/3/3 283/3/3 282/3/3
f 285/3/3 283/3/3 284/3/3
f 288/3/3 287/3/3 286/3/3
f 290/3/3 287/3/3 288/3/3
f 291/3/3 287/3/3 290/3/3
f 292/1/3 290/1/3 289/1/3
f 292/1/3 291/1/3 290/1/3
f 293/1/3 291/1/3 292/1/3
f 294/1/3 291/1/3 293/1/3
f 295/1/4 296/1/4 297/1/4
f 297/1/4 296/1/4 298/1/4
f 301/1/4 302/1/4 303/1/4
f 303/1/4 302/1/4 304/1/4
f 299/2/4 300/2/4 305/2/4
f 305/2/4 300/2/4 306/2/4
f 307/5/4 308/5/4 311/5/4
f 311/5/4 308/5/4 312/5/4
f 309/5/4 310/5/4 313/5/4
f 313/5/4 310/5/4 314/5/4
f 311/2/4 312/2/4 315/2/4
f 315/2/4 312/2/4 316/2/4
f 309/5/4 313/5/4 320/5/4
f 316/2/4 317/2/4 321/2/4
f 317/5/4 318/5/4 322/5/4
f 321/2/4 317/2/4 322/2/4
f 322/5/4 318/5/4 323/5/4
f 319/1/4 320/1/4 324/1/4
f 320/5/4 313/5/4 325/5/4
f 324/1/4 320/1/4 325/1/4
f 325/5/4 313/5/4 326/5/4
f 327/1/4 328/1/4 329/1/4
f 329/1/4 328/1/4 330/1/4
f 331/5/4 332/5/4 337/5/4
f 337/5/4 332/5/4 338/5/4
f 335/1/4 336/1/4 339/1/4
f 333/5/4 334/5/4 341/5/4
f 339/1/4 336/1/4 342/1/4
f 342/1/4 336/1/4 343/1/4
f 340/5/4 341/5/4 344/5/4
f 341/5/4 334/5/4 344/5/4
f 340/5/4 344/5/4 345/5/4
f 340/5/4 345/5/4 348/5/4
f 345/5/4 346/5/4 348/5/4
f 348/5/4 346/5/4 349/5/4
f 349/5/4 346/5/4 350/5/4
f 347/5/4 348/5/4 351/5/4
f 348/5/4 349/5/4 351/5/4
f 351/5/4 349/5/4 352/5/4
f 353/1/4 354/1/4 357/1/4
f 357/1/4 354/1/4 358/1/4
f 355/2/4 356/2/4 359/2/4
f 355/2/4 359/2/4 361/2/4
f 359/2/4 360/2/4 361/2/4
f 361/2/4 360/2/4 362/2/4
f 365/1/4 366/1/4 368/1/4
f 366/3/4 367/3/4 368/3/4
f 368/3/4 367/3/4 369/3/4
f 363/4/4 364/4/4 371/4/4
f 371/4/4 364/4/4 372/4/4
f 369/1/4 370/1/4 373/1/4
f 365/1/4 368/1/4 373/1/4
f 368/1/4 369/1/4 373/1/4
f 373/1/4 370/1/4 374/1/4
f 375/1/4 376/1/4 377/1/4
f 377/1/4 376/1/4 378/1/4
f 379/4/4 380/4/4 381/4/4
f 381/4/4 380/4/4 382/4/4
f 383/1/4 384/1/4 385/1/4
f 385/1/4 384/1/4 386/1/4
f 387/3/4 388/3/4 389/3/4
f 389/3/4 388/3/4 390/3/4
f 391/3/4 392/3/4 393/3/4
f 393/3/4 392/3/4 394/3/4
f 395/3/4 396/3/4 397/3/4
f 397/3/4 396/3/4 398/3/4
f 401/2/5 400/2/5 399/2/5
f 402/2/5 400/2/5 401/2/5
f 405/5/5 404/5/5 403/5/5
f 406/5/5 404/5/5 405/5/5
f 409/1/5 408/1/5 407/1/5
f 410/1/5 408/1/5 409/1/5
f 415/2/5 412/2/5 411/2/5
f 416/2/5 412/2/5 415/2/5
f 417/5/5 414/5/5 413/5/5
f 418/2/5 415/2/5 414/2/5
f 418/5/5 414/5/5 417/5/5
f 419/2/5 415/2/5 418/2/5
f 420/2/5 412/2/5 416/2/5
f 421/2/5 412/2/5 420/2/5
f 424/1/5 423/1/5 422/1/5
f 425/1/5 423/1/5 424/1/5
f 429/3/5 427/3/5 426/3/5
f 429/3/5 428/3/5 427/3/5
f 431/3/5 429/3/5 426/3/5
f 431/3/5 430/3/5 429/3/5
f 432/3/5 430/3/5 431/3/5
f 433/3/5 431/3/5 426/3/5
f 434/3/5 431/3/5 433/3/5
f 435/3/5 431/3/5 434/3/5
f 436/3/5 431/3/5 435/3/5
f 442/5/5 440/5/5 439/5/5
f 443/5/5 440/5/5 442/5/5
f 444/5/5 438/5/5 437/5/5
f 445/5/5 438/5/5 444/5/5
f 446/1/5 443/1/5 442/1/5
f 446/1/5 442/1/5 441/1/5
f 447/1/5 443/1/5 446/1/5
f 448/1/5 443/1/5 447/1/5
f 451/1/5 450/1/5 449/1/5
f 452/1/5 450/1/5 451/1/5
f 454/1/5 451/1/5 449/1/5
f 455/1/5 454/1/5 453/1/5
f 456/1/5 451/1/5 454/1/5
f 456/1/5 454/1/5 455/1/5
f 457/1/5 455/1/5 453/1/5
f 458/1/5 455/1/5 457/1/5
f 460/1/5 450/1/5 452/1/5
f 461/1/5 460/1/5 459/1/5
f 462/1/5 460/1/5 461/1/5
f 463/1/5 450/1/5 460/1/5
f 463/1/5 460/1/5 462/1/5
f 467/1/5 465/1/5 464/1/5
f 470/1/5 465/1/5 467/1/5
f 470/1/5 467/1/5 466/1/5
f 471/1/5 465/1/5 470/1/5
f 472/5/5 469/5/5 468/5/5
f 473/1/5 470/1/5 466/1/5
f 474/1/5 470/1/5 473/1/5
f 475/1/5 470/1/5 474/1/5
f 476/5/5 475/5/5 474/5/5
f 477/5/5 475/5/5 476/5/5
f 478/5/5 472/5/5 468/5/5
f 479/5/5 472/5/5 478/5/5
f 482/1/5 481/1/5 480/1/5
f 483/1/5 481/1/5 482/1/5
f 487/1/5 482/1/5 480/1/5
f 488/1/5 487/1/5 486/1/5
f 489/4/5 483/4/5 482/4/5
f 489/1/5 487/1/5 488/1/5
f 489/1/5 482/1/5 487/1/5
f 490/5/5 485/5/5 484/5/5
f 491/5/5 485/5/5 490/5/5
f 492/4/5 483/4/5 489/4/5
f 492/4/5 489/4/5 488/4/5
f 495/4/5 493/4/5 492/4/5
f 496/1/5 494/1/5 493/1/5
f 496/4/5 493/4/5 495/4/5
f 497/1/5 496/1/5 495/1/5
f 498/1/5 494/1/5 496/1/5
f 498/1/5 496/1/5 497/1/5
f 499/1/5 488/1/5 486/1/5
f 499/4/5 492/4/5 488/4/5
f 499/4/5 495/4/5 492/4/5
f 500/1/5 497/1/5 495/1/5
f 500/4/5 495/4/5 499/4/5
f 501/1/5 499/1/5 486/1/5
f 501/1/5 500/1/5 499/1/5
f 502/1/5 497/1/5 500/1/5
f 502/1/5 500/1/5 501/1/5
f 505/4/5 504/4/5 503/4/5
f 506/4/5 504/4/5 505/4/5
f 507/2/6 508/2/6 509/2/6
f 509/2/6 508/2/6 510/2/6
f 511/5/6 512/5/6 514/5/6
f 512/2/6 513/2/6 515/2/6
f 514/5/6 512/5/6 515/5/6
f 515/2/6 513/2/6 516/2/6
f 516/2/6 517/2/6 518/2/6
f 518/2/6 517/2/6 519/2/6
f 520/2/6 521/2/6 523/2/6
f 523/2/6 521/2/6 524/2/6
f 522/5/6 523/5/6 525/5/6
f 525/5/6 523/5/6 526/5/6
f 524/2/6 521/2/6 530/2/6
f 527/1/6 528/1/6 531/1/6
f 528/2/6 529/2/6 532/2/6
f 531/1/6 528/1/6 532/1/6
f 532/2/6 529/2/6 533/2/6
f 530/2/6 521/2/6 534/2/6
f 534/2/6 521/2/6 535/2/6
f 536/5/6 537/5/6 538/5/6
f 538/5/6 537/5/6 539/5/6
f 539/5/6 537/5/6 540/5/6
f 540/5/6 541/5/6 544/5/6
f 539/5/6 540/5/6 544/5/6
f 544/5/6 541/5/6 545/5/6
f 542/1/6 543/1/6 546/1/6
f 542/1/6 546/1/6 549/1/6
f 546/1/6 547/1/6 549/1/6
f 549/1/6 547/1/6 550/1/6
f 548/3/6 549/3/6 551/3/6
f 550/1/6 547/1/6 551/1/6
f 549/3/6 550/3/6 551/3/6
f 551/1/6 547/1/6 552/1/6
f 548/3/6 551/3/6 553/3/6
f 553/3/6 551/3/6 554/3/6
f 548/3/6 553/3/6 555/3/6
f 555/3/6 553/3/6 556/3/6
f 556/3/6 553/3/6 557/3/6
f 557/3/6 553/3/6 558/3/6
f 559/1/6 560/1/6 562/1/6
f 561/1/6 562/1/6 563/1/6
f 562/1/6 560/1/6 564/1/6
f 563/1/6 562/1/6 564/1/6
f 564/1/6 560/1/6 567/1/6
f 567/1/6 560/1/6 568/1/6
f 568/1/6 560/1/6 569/1/6
f 565/5/6 566/5/6 570/5/6
f 570/5/6 566/5/6 571/5/6
f 567/5/6 568/5/6 572/5/6
f 572/5/6 568/5/6 573/5/6
f 574/1/6 575/1/6 576/1/6
f 576/1/6 575/1/6 577/1/6
f 574/1/6 576/1/6 581/1/6
f 580/1/6 581/1/6 582/1/6
f 581/1/6 576/1/6 583/1/6
f 582/1/6 581/1/6 583/1/6
f 578/5/6 579/5/6 584/5/6
f 584/5/6 579/5/6 585/5/6
f 585/5/6 579/5/6 586/5/6
f 584/1/6 585/1/6 588/1/6
f 587/1/6 588/1/6 589/1/6
f 588/1/6 585/1/6 590/1/6
f 589/1/6 588/1/6 590/1/6
f 580/1/6 582/1/6 591/1/6
f 587/1/6 589/1/6 592/1/6
f 580/1/6 591/1/6 593/1/6
f 591/1/6 592/1/6 593/1/6
f 592/1/6 589/1/6 594/1/6
f 593/1/6 592/1/6 594/1/6
f 595/4/6 596/4/6 598/4/6
f 598/4/6 596/4/6 599/4/6
f 597/4/6 598/4/6 599/4/6
f 599/4/6 596/4/6 600/4/6
f 597/4/6 599/4/6 601/4/6
f 601/4/6 599/4/6 602/4/6
