# MagicaVoxel @ Ephtracy

# group
o 

# material
mtllib NPC5_rightleg_1.mtl
usemtl palette

# normals
vn -1 0 0
vn 1 0 0
vn 0 0 1
vn 0 0 -1
vn 0 -1 0
vn 0 1 0

# texcoords
vt 0.552734 0.5
vt 0.611328 0.5
vt 0.974609 0.5
vt 0.990234 0.5

# verts
v -0.8 -2.2 0.8
v -0.8 -2.2 -0.8
v -0.8 -2.1 0.8
v -0.8 -2.1 -0.8
v -0.8 0 0.8
v -0.8 0 -0.8
v 0.8 -2.2 0.8
v 0.8 -2.2 -0.8
v 0.8 -2.1 0.8
v 0.8 -2.1 -0.8
v 0.8 -1.5 0.5
v 0.8 -1.5 -0.1
v 0.8 -1.1 -0.5
v 0.8 -1.1 -0.8
v 0.8 -0.8 0.5
v 0.8 -0.8 -0.1
v 0.8 -0.3 -0.5
v 0.8 -0.3 -0.8
v 0.8 0 0.8
v 0.8 0 -0.8
v -0.8 -2.2 0.8
v -0.8 -2.1 0.8
v -0.8 0 0.8
v 0.8 -2.2 0.8
v 0.8 -2.1 0.8
v 0.8 0 0.8
v -0.8 -2.2 -0.8
v -0.8 -2.1 -0.8
v -0.8 0 -0.8
v -0.1 -1.1 -0.8
v -0.1 -0.3 -0.8
v 0.8 -2.2 -0.8
v 0.8 -2.1 -0.8
v 0.8 -1.1 -0.8
v 0.8 -0.3 -0.8
v 0.8 0 -0.8
v -0.8 -2.2 0.8
v 0.8 -2.2 0.8
v -0.8 -2.2 -0.8
v 0.8 -2.2 -0.8
v -0.8 0 0.8
v 0.8 0 0.8
v -0.8 0 -0.8
v 0.8 0 -0.8

# faces
f 3/3/1 2/3/1 1/3/1
f 4/3/1 2/3/1 3/3/1
f 5/2/1 4/2/1 3/2/1
f 6/2/1 4/2/1 5/2/1
f 7/3/2 8/3/2 9/3/2
f 9/3/2 8/3/2 10/3/2
f 9/2/2 10/2/2 11/2/2
f 11/2/2 10/2/2 12/2/2
f 12/2/2 10/2/2 13/2/2
f 13/2/2 10/2/2 14/2/2
f 9/2/2 11/2/2 15/2/2
f 11/1/2 12/1/2 15/1/2
f 12/2/2 13/2/2 16/2/2
f 15/1/2 12/1/2 16/1/2
f 13/1/2 14/1/2 17/1/2
f 16/2/2 13/2/2 17/2/2
f 15/2/2 16/2/2 17/2/2
f 17/1/2 14/1/2 18/1/2
f 9/2/2 15/2/2 19/2/2
f 15/2/2 17/2/2 19/2/2
f 17/2/2 18/2/2 19/2/2
f 19/2/2 18/2/2 20/2/2
f 24/3/3 22/3/3 21/3/3
f 25/2/3 23/2/3 22/2/3
f 25/3/3 22/3/3 24/3/3
f 26/2/3 23/2/3 25/2/3
f 28/2/4 29/2/4 30/2/4
f 30/2/4 29/2/4 31/2/4
f 27/3/4 28/3/4 32/3/4
f 28/2/4 30/2/4 33/2/4
f 32/3/4 28/3/4 33/3/4
f 30/1/4 31/1/4 34/1/4
f 33/2/4 30/2/4 34/2/4
f 31/2/4 29/2/4 35/2/4
f 34/1/4 31/1/4 35/1/4
f 35/2/4 29/2/4 36/2/4
f 39/3/5 38/3/5 37/3/5
f 40/3/5 38/3/5 39/3/5
f 41/2/6 42/2/6 43/2/6
f 43/2/6 42/2/6 44/2/6
