# MagicaVoxel @ Ephtracy

# group
o 

# material
mtllib oyster_2.mtl
usemtl palette

# normals
vn -1 0 0
vn 1 0 0
vn 0 0 1
vn 0 0 -1
vn 0 -1 0
vn 0 1 0

# texcoords
vt 0.908203 0.5
vt 0.912109 0.5
vt 0.916016 0.5

# verts
v -0.5 0 5.96046e-08
v -0.5 0 -0.2
v -0.5 0.6 0.2
v -0.5 0.6 5.96046e-08
v -0.5 0.6 -0.2
v -0.5 0.6 -0.6
v -0.5 0.8 0.2
v -0.5 0.8 -0.6
v -0.3 0 0.6
v -0.3 0 0.4
v -0.3 0 0.2
v -0.3 0.2 0.6
v -0.3 0.2 0.4
v -0.3 0.4 0.6
v -0.3 0.4 0.4
v -0.3 0.4 0.2
v -0.3 0.4 5.96046e-08
v -0.3 0.6 0.6
v -0.3 0.6 0.2
v -0.3 0.6 5.96046e-08
v -0.1 0 0.2
v -0.1 0 5.96046e-08
v -0.1 0.2 5.96046e-08
v -0.1 0.2 -0.4
v -0.1 0.4 0.2
v -0.1 0.4 -0.2
v -0.1 0.4 -0.4
v 0.1 0 5.96046e-08
v 0.1 0 -0.2
v 0.1 0.2 5.96046e-08
v 0.1 0.2 -0.2
v -0.3 0 5.96046e-08
v -0.3 0 -0.2
v -0.3 0.4 5.96046e-08
v -0.3 0.4 -0.2
v -0.3 0.6 0.2
v -0.3 0.6 5.96046e-08
v -0.3 0.6 -0.4
v -0.3 0.6 -0.6
v -0.3 0.8 0.2
v -0.3 0.8 5.96046e-08
v -0.3 0.8 -0.4
v -0.3 0.8 -0.6
v -0.1 0 0.6
v -0.1 0 0.4
v -0.1 0 0.2
v -0.1 0.2 0.6
v -0.1 0.2 0.4
v -0.1 0.2 0.2
v -0.1 0.4 0.6
v -0.1 0.4 0.4
v -0.1 0.4 5.96046e-08
v -0.1 0.4 -0.2
v -0.1 0.6 0.6
v -0.1 0.6 0.4
v -0.1 0.6 5.96046e-08
v -0.1 0.6 -0.2
v -0.1 0.6 -0.4
v -0.1 0.8 5.96046e-08
v -0.1 0.8 -0.4
v 0.1 0.2 0.4
v 0.1 0.2 0.2
v 0.1 0.2 -0.2
v 0.1 0.2 -0.4
v 0.1 0.4 0.4
v 0.1 0.4 0.2
v 0.1 0.4 5.96046e-08
v 0.1 0.4 -0.2
v 0.1 0.4 -0.4
v 0.1 0.6 0.4
v 0.1 0.6 5.96046e-08
v 0.3 0 5.96046e-08
v 0.3 0 -0.2
v 0.3 0.2 0.2
v 0.3 0.2 5.96046e-08
v 0.3 0.4 0.2
v 0.3 0.4 -0.2
v 0.5 0 0.2
v 0.5 0 5.96046e-08
v 0.5 0.2 0.2
v 0.5 0.2 5.96046e-08
v -0.3 0 0.6
v -0.3 0.2 0.6
v -0.3 0.4 0.6
v -0.3 0.6 0.6
v -0.1 0 0.6
v -0.1 0.2 0.6
v -0.1 0.4 0.6
v -0.1 0.6 0.6
v -0.3 0.2 0.4
v -0.3 0.4 0.4
v -0.1 0.2 0.4
v -0.1 0.4 0.4
v -0.1 0.6 0.4
v 0.1 0.2 0.4
v 0.1 0.4 0.4
v 0.1 0.6 0.4
v -0.5 0.6 0.2
v -0.5 0.8 0.2
v -0.3 0.6 0.2
v -0.3 0.8 0.2
v -0.1 0 0.2
v -0.1 0.2 0.2
v 0.1 0.2 0.2
v 0.1 0.4 0.2
v 0.3 0.2 0.2
v 0.3 0.4 0.2
v 0.5 0 0.2
v 0.5 0.2 0.2
v -0.5 0 5.96046e-08
v -0.5 0.6 5.96046e-08
v -0.3 0 5.96046e-08
v -0.3 0.4 5.96046e-08
v -0.3 0.6 5.96046e-08
v -0.3 0.8 5.96046e-08
v -0.1 0.6 5.96046e-08
v -0.1 0.8 5.96046e-08
v -0.3 0 0.2
v -0.3 0.4 0.2
v -0.1 0 0.2
v -0.1 0.4 0.2
v -0.1 0 5.96046e-08
v -0.1 0.2 5.96046e-08
v -0.1 0.4 5.96046e-08
v -0.1 0.6 5.96046e-08
v 0.1 0 5.96046e-08
v 0.1 0.2 5.96046e-08
v 0.1 0.4 5.96046e-08
v 0.1 0.6 5.96046e-08
v 0.3 0 5.96046e-08
v 0.3 0.2 5.96046e-08
v 0.5 0 5.96046e-08
v 0.5 0.2 5.96046e-08
v -0.5 0 -0.2
v -0.5 0.6 -0.2
v -0.3 0 -0.2
v -0.3 0.4 -0.2
v -0.3 0.6 -0.2
v -0.1 0.4 -0.2
v -0.1 0.6 -0.2
v 0.1 0 -0.2
v 0.1 0.2 -0.2
v 0.1 0.4 -0.2
v 0.3 0 -0.2
v 0.3 0.4 -0.2
v -0.3 0.6 -0.4
v -0.3 0.8 -0.4
v -0.1 0.2 -0.4
v -0.1 0.4 -0.4
v -0.1 0.6 -0.4
v -0.1 0.8 -0.4
v 0.1 0.2 -0.4
v 0.1 0.4 -0.4
v -0.5 0.6 -0.6
v -0.5 0.8 -0.6
v -0.3 0.6 -0.6
v -0.3 0.8 -0.6
v -0.3 0 0.6
v -0.1 0 0.6
v -0.3 0 0.4
v -0.1 0 0.4
v -0.3 0 0.2
v -0.1 0 0.2
v 0.5 0 0.2
v -0.5 0 5.96046e-08
v -0.3 0 5.96046e-08
v -0.1 0 5.96046e-08
v 0.1 0 5.96046e-08
v 0.3 0 5.96046e-08
v 0.5 0 5.96046e-08
v -0.5 0 -0.2
v -0.3 0 -0.2
v 0.1 0 -0.2
v 0.3 0 -0.2
v -0.1 0.2 0.4
v 0.1 0.2 0.4
v -0.1 0.2 0.2
v 0.1 0.2 0.2
v -0.1 0.2 5.96046e-08
v 0.1 0.2 5.96046e-08
v 0.1 0.2 -0.2
v -0.1 0.2 -0.4
v 0.1 0.2 -0.4
v -0.3 0.4 0.6
v -0.1 0.4 0.6
v -0.3 0.4 0.4
v -0.1 0.4 0.4
v -0.3 0.4 0.2
v -0.1 0.4 0.2
v -0.3 0.4 5.96046e-08
v -0.3 0.4 -0.2
v -0.1 0.4 -0.2
v -0.5 0.6 0.2
v -0.3 0.6 0.2
v -0.5 0.6 5.96046e-08
v -0.3 0.6 5.96046e-08
v -0.5 0.6 -0.2
v -0.3 0.6 -0.2
v -0.1 0.6 -0.2
v -0.3 0.6 -0.4
v -0.1 0.6 -0.4
v -0.5 0.6 -0.6
v -0.3 0.6 -0.6
v -0.3 0.2 0.6
v -0.1 0.2 0.6
v -0.3 0.2 0.4
v -0.1 0.2 0.4
v 0.3 0.2 0.2
v 0.5 0.2 0.2
v 0.3 0.2 5.96046e-08
v 0.5 0.2 5.96046e-08
v 0.1 0.4 0.2
v 0.3 0.4 0.2
v -0.1 0.4 5.96046e-08
v 0.1 0.4 5.96046e-08
v -0.1 0.4 -0.2
v 0.1 0.4 -0.2
v 0.3 0.4 -0.2
v -0.1 0.4 -0.4
v 0.1 0.4 -0.4
v -0.3 0.6 0.6
v -0.1 0.6 0.6
v -0.1 0.6 0.4
v 0.1 0.6 0.4
v -0.3 0.6 0.2
v -0.3 0.6 5.96046e-08
v -0.1 0.6 5.96046e-08
v 0.1 0.6 5.96046e-08
v -0.5 0.8 0.2
v -0.3 0.8 0.2
v -0.3 0.8 5.96046e-08
v -0.1 0.8 5.96046e-08
v -0.3 0.8 -0.4
v -0.1 0.8 -0.4
v -0.5 0.8 -0.6
v -0.3 0.8 -0.6

# faces
f 4/3/1 2/3/1 1/3/1
f 5/3/1 2/3/1 4/3/1
f 7/3/1 4/3/1 3/3/1
f 7/3/1 6/3/1 5/3/1
f 7/3/1 5/3/1 4/3/1
f 8/3/1 6/3/1 7/3/1
f 12/1/1 10/1/1 9/1/1
f 13/2/1 11/2/1 10/2/1
f 13/1/1 10/1/1 12/1/1
f 15/2/1 11/2/1 13/2/1
f 16/2/1 11/2/1 15/2/1
f 18/2/1 15/2/1 14/2/1
f 18/2/1 17/2/1 16/2/1
f 18/2/1 16/2/1 15/2/1
f 19/2/1 17/2/1 18/2/1
f 20/2/1 17/2/1 19/2/1
f 23/1/1 22/1/1 21/1/1
f 25/1/1 23/1/1 21/1/1
f 25/1/1 24/1/1 23/1/1
f 26/1/1 24/1/1 25/1/1
f 27/1/1 24/1/1 26/1/1
f 30/1/1 29/1/1 28/1/1
f 31/1/1 29/1/1 30/1/1
f 32/3/2 33/3/2 34/3/2
f 34/3/2 33/3/2 35/3/2
f 36/3/2 37/3/2 40/3/2
f 40/3/2 37/3/2 41/3/2
f 38/3/2 39/3/2 42/3/2
f 42/3/2 39/3/2 43/3/2
f 44/1/2 45/1/2 47/1/2
f 45/2/2 46/2/2 48/2/2
f 47/1/2 45/1/2 48/1/2
f 48/2/2 46/2/2 49/2/2
f 50/2/2 51/2/2 54/2/2
f 54/2/2 51/2/2 55/2/2
f 52/2/2 53/2/2 56/2/2
f 56/2/2 53/2/2 57/2/2
f 57/3/2 58/3/2 59/3/2
f 56/3/2 57/3/2 59/3/2
f 59/3/2 58/3/2 60/3/2
f 61/1/2 62/1/2 65/1/2
f 65/1/2 62/1/2 66/1/2
f 63/1/2 64/1/2 68/1/2
f 68/1/2 64/1/2 69/1/2
f 66/2/2 67/2/2 70/2/2
f 65/2/2 66/2/2 70/2/2
f 70/2/2 67/2/2 71/2/2
f 72/1/2 73/1/2 75/1/2
f 74/1/2 75/1/2 76/1/2
f 75/1/2 73/1/2 77/1/2
f 76/1/2 75/1/2 77/1/2
f 78/1/2 79/1/2 80/1/2
f 80/1/2 79/1/2 81/1/2
f 86/1/3 83/1/3 82/1/3
f 87/1/3 83/1/3 86/1/3
f 88/2/3 85/2/3 84/2/3
f 89/2/3 85/2/3 88/2/3
f 92/2/3 91/2/3 90/2/3
f 93/2/3 91/2/3 92/2/3
f 95/1/3 93/1/3 92/1/3
f 96/2/3 94/2/3 93/2/3
f 96/1/3 93/1/3 95/1/3
f 97/2/3 94/2/3 96/2/3
f 100/3/3 99/3/3 98/3/3
f 101/3/3 99/3/3 100/3/3
f 104/1/3 103/1/3 102/1/3
f 106/1/3 104/1/3 102/1/3
f 106/1/3 105/1/3 104/1/3
f 107/1/3 105/1/3 106/1/3
f 108/1/3 106/1/3 102/1/3
f 109/1/3 106/1/3 108/1/3
f 112/3/3 111/3/3 110/3/3
f 113/3/3 111/3/3 112/3/3
f 114/3/3 111/3/3 113/3/3
f 116/3/3 115/3/3 114/3/3
f 117/3/3 115/3/3 116/3/3
f 118/2/4 119/2/4 120/2/4
f 120/2/4 119/2/4 121/2/4
f 122/1/4 123/1/4 126/1/4
f 126/1/4 123/1/4 127/1/4
f 124/2/4 125/2/4 128/2/4
f 128/2/4 125/2/4 129/2/4
f 130/1/4 131/1/4 132/1/4
f 132/1/4 131/1/4 133/1/4
f 134/3/4 135/3/4 136/3/4
f 136/3/4 135/3/4 137/3/4
f 137/3/4 135/3/4 138/3/4
f 137/2/4 138/2/4 139/2/4
f 139/2/4 138/2/4 140/2/4
f 141/1/4 142/1/4 144/1/4
f 142/1/4 143/1/4 144/1/4
f 144/1/4 143/1/4 145/1/4
f 146/3/4 147/3/4 150/3/4
f 150/3/4 147/3/4 151/3/4
f 148/1/4 149/1/4 152/1/4
f 152/1/4 149/1/4 153/1/4
f 154/3/4 155/3/4 156/3/4
f 156/3/4 155/3/4 157/3/4
f 160/1/5 159/1/5 158/1/5
f 161/1/5 159/1/5 160/1/5
f 162/2/5 161/2/5 160/2/5
f 163/2/5 161/2/5 162/2/5
f 167/1/5 164/1/5 163/1/5
f 168/1/5 164/1/5 167/1/5
f 169/1/5 164/1/5 168/1/5
f 170/1/5 164/1/5 169/1/5
f 171/3/5 166/3/5 165/3/5
f 172/3/5 166/3/5 171/3/5
f 173/1/5 169/1/5 168/1/5
f 174/1/5 169/1/5 173/1/5
f 177/1/5 176/1/5 175/1/5
f 178/1/5 176/1/5 177/1/5
f 181/1/5 180/1/5 179/1/5
f 182/1/5 181/1/5 179/1/5
f 183/1/5 181/1/5 182/1/5
f 186/2/5 185/2/5 184/2/5
f 187/2/5 185/2/5 186/2/5
f 190/2/5 189/2/5 188/2/5
f 191/2/5 189/2/5 190/2/5
f 192/2/5 189/2/5 191/2/5
f 195/3/5 194/3/5 193/3/5
f 196/3/5 194/3/5 195/3/5
f 200/3/5 198/3/5 197/3/5
f 200/3/5 199/3/5 198/3/5
f 201/3/5 199/3/5 200/3/5
f 202/3/5 200/3/5 197/3/5
f 203/3/5 200/3/5 202/3/5
f 204/1/6 205/1/6 206/1/6
f 206/1/6 205/1/6 207/1/6
f 208/1/6 209/1/6 210/1/6
f 210/1/6 209/1/6 211/1/6
f 212/1/6 213/1/6 215/1/6
f 214/1/6 215/1/6 216/1/6
f 215/1/6 213/1/6 217/1/6
f 216/1/6 215/1/6 217/1/6
f 217/1/6 213/1/6 218/1/6
f 216/1/6 217/1/6 219/1/6
f 219/1/6 217/1/6 220/1/6
f 221/2/6 222/2/6 223/2/6
f 221/2/6 223/2/6 225/2/6
f 223/2/6 224/2/6 225/2/6
f 225/2/6 224/2/6 226/2/6
f 226/2/6 224/2/6 227/2/6
f 227/2/6 224/2/6 228/2/6
f 229/3/6 230/3/6 231/3/6
f 229/3/6 231/3/6 233/3/6
f 231/3/6 232/3/6 233/3/6
f 233/3/6 232/3/6 234/3/6
f 229/3/6 233/3/6 235/3/6
f 235/3/6 233/3/6 236/3/6
