# MagicaVoxel @ Ephtracy

# group
o 

# material
mtllib NPC8_rightleg_1.mtl
usemtl palette

# normals
vn -1 0 0
vn 1 0 0
vn 0 0 1
vn 0 0 -1
vn 0 -1 0
vn 0 1 0

# texcoords
vt 0.478516 0.5
vt 0.736328 0.5
vt 0.759766 0.5
vt 0.923828 0.5

# verts
v -0.8 -2.2 0.8
v -0.8 -2.2 -0.8
v -0.8 -1.8 0.8
v -0.8 -1.8 -0.8
v -0.8 -1.4 0.8
v -0.8 -1.4 -0.8
v -0.8 -1 0.8
v -0.8 -1 -0.8
v -0.8 -0.2 0.8
v -0.8 -0.2 -0.8
v -0.8 0 0.8
v -0.8 0 -0.8
v 0.8 -2.2 0.8
v 0.8 -2.2 -0.8
v 0.8 -1.8 0.8
v 0.8 -1.8 -0.8
v 0.8 -1.4 0.8
v 0.8 -1.4 -0.8
v 0.8 -1 0.8
v 0.8 -1 -0.8
v 0.8 -0.2 0.8
v 0.8 -0.2 -0.8
v 0.8 0 0.8
v 0.8 0 -0.8
v -0.8 -2.2 0.8
v -0.8 -1.8 0.8
v -0.8 -1.4 0.8
v -0.8 -1 0.8
v -0.8 -0.2 0.8
v -0.8 0 0.8
v 0.8 -2.2 0.8
v 0.8 -1.8 0.8
v 0.8 -1.4 0.8
v 0.8 -1 0.8
v 0.8 -0.2 0.8
v 0.8 0 0.8
v -0.8 -2.2 -0.8
v -0.8 -1.8 -0.8
v -0.8 -1.4 -0.8
v -0.8 -1 -0.8
v -0.8 -0.2 -0.8
v -0.8 0 -0.8
v 0.8 -2.2 -0.8
v 0.8 -1.8 -0.8
v 0.8 -1.4 -0.8
v 0.8 -1 -0.8
v 0.8 -0.2 -0.8
v 0.8 0 -0.8
v -0.8 -2.2 0.8
v 0.8 -2.2 0.8
v -0.8 -2.2 -0.8
v 0.8 -2.2 -0.8
v -0.8 0 0.8
v 0.8 0 0.8
v -0.8 0 -0.8
v 0.8 0 -0.8

# faces
f 3/4/1 2/4/1 1/4/1
f 4/4/1 2/4/1 3/4/1
f 5/1/1 4/1/1 3/1/1
f 6/1/1 4/1/1 5/1/1
f 7/2/1 6/2/1 5/2/1
f 8/2/1 6/2/1 7/2/1
f 9/3/1 8/3/1 7/3/1
f 10/3/1 8/3/1 9/3/1
f 11/2/1 10/2/1 9/2/1
f 12/2/1 10/2/1 11/2/1
f 13/4/2 14/4/2 15/4/2
f 15/4/2 14/4/2 16/4/2
f 15/1/2 16/1/2 17/1/2
f 17/1/2 16/1/2 18/1/2
f 17/2/2 18/2/2 19/2/2
f 19/2/2 18/2/2 20/2/2
f 19/3/2 20/3/2 21/3/2
f 21/3/2 20/3/2 22/3/2
f 21/2/2 22/2/2 23/2/2
f 23/2/2 22/2/2 24/2/2
f 31/4/3 26/4/3 25/4/3
f 32/1/3 27/1/3 26/1/3
f 32/4/3 26/4/3 31/4/3
f 33/2/3 28/2/3 27/2/3
f 33/1/3 27/1/3 32/1/3
f 34/3/3 29/3/3 28/3/3
f 34/2/3 28/2/3 33/2/3
f 35/2/3 30/2/3 29/2/3
f 35/3/3 29/3/3 34/3/3
f 36/2/3 30/2/3 35/2/3
f 37/4/4 38/4/4 43/4/4
f 38/1/4 39/1/4 44/1/4
f 43/4/4 38/4/4 44/4/4
f 39/2/4 40/2/4 45/2/4
f 44/1/4 39/1/4 45/1/4
f 40/3/4 41/3/4 46/3/4
f 45/2/4 40/2/4 46/2/4
f 41/2/4 42/2/4 47/2/4
f 46/3/4 41/3/4 47/3/4
f 47/2/4 42/2/4 48/2/4
f 51/4/5 50/4/5 49/4/5
f 52/4/5 50/4/5 51/4/5
f 53/2/6 54/2/6 55/2/6
f 55/2/6 54/2/6 56/2/6
