# MagicaVoxel @ Ephtracy

# group
o 

# material
mtllib flooor_1.mtl
usemtl palette

# normals
vn -1 0 0
vn 1 0 0
vn 0 0 1
vn 0 0 -1
vn 0 -1 0
vn 0 1 0

# texcoords
vt 0.0175781 0.5
vt 0.0292969 0.5
vt 0.392578 0.5
vt 0.396484 0.5
vt 0.474609 0.5
vt 0.849609 0.5
vt 0.853516 0.5

# verts
v -1 -0.9 1
v -1 -0.9 0.6
v -1 -0.9 0.2
v -1 -0.9 -0.2
v -1 -0.9 -0.6
v -1 -0.9 -1
v -1 -0.5 1
v -1 -0.5 0.6
v -1 -0.5 0.2
v -1 -0.5 -0.2
v -1 -0.5 -0.6
v -1 -0.5 -1
v -1 -0.1 1
v -1 -0.1 0.6
v -1 -0.1 0.2
v -1 -0.1 -0.2
v -1 -0.1 -0.6
v -1 -0.1 -1
v -1 0.1 1
v -1 0.1 -1
v -1 0.4 1
v -1 0.4 -1
v -1 0.8 1
v -1 0.8 0.6
v -1 0.8 0.4
v -1 0.8 -0.4
v -1 0.8 -0.6
v -1 0.8 -1
v -1 0.9 1
v -1 0.9 0.6
v -1 0.9 0.4
v -1 0.9 -0.4
v -1 0.9 -0.6
v -1 0.9 -1
v 0.8 -0.5 0.8
v 0.8 -0.5 0.6
v 0.8 -0.5 0.2
v 0.8 -0.5 -0.2
v 0.8 -0.5 -0.6
v 0.8 -0.5 -0.8
v 0.8 -0.1 0.8
v 0.8 -0.1 0.6
v 0.8 -0.1 0.2
v 0.8 -0.1 -0.2
v 0.8 -0.1 -0.6
v 0.8 -0.1 -0.8
v -0.8 -0.5 0.8
v -0.8 -0.5 0.6
v -0.8 -0.5 0.2
v -0.8 -0.5 -0.2
v -0.8 -0.5 -0.6
v -0.8 -0.5 -0.8
v -0.8 -0.1 0.8
v -0.8 -0.1 0.6
v -0.8 -0.1 0.2
v -0.8 -0.1 -0.2
v -0.8 -0.1 -0.6
v -0.8 -0.1 -0.8
v 1 -0.9 1
v 1 -0.9 0.6
v 1 -0.9 0.2
v 1 -0.9 -0.2
v 1 -0.9 -0.6
v 1 -0.9 -1
v 1 -0.5 1
v 1 -0.5 0.6
v 1 -0.5 0.2
v 1 -0.5 -0.2
v 1 -0.5 -0.6
v 1 -0.5 -1
v 1 -0.1 1
v 1 -0.1 0.6
v 1 -0.1 0.2
v 1 -0.1 -0.2
v 1 -0.1 -0.6
v 1 -0.1 -1
v 1 0.1 1
v 1 0.1 -1
v 1 0.4 1
v 1 0.4 -1
v 1 0.8 1
v 1 0.8 0.6
v 1 0.8 0.4
v 1 0.8 -0.4
v 1 0.8 -0.6
v 1 0.8 -1
v 1 0.9 1
v 1 0.9 0.6
v 1 0.9 0.4
v 1 0.9 -0.4
v 1 0.9 -0.6
v 1 0.9 -1
v -1 -0.9 1
v -1 -0.5 1
v -1 -0.1 1
v -1 0.1 1
v -1 0.4 1
v -1 0.8 1
v -1 0.9 1
v -0.6 -0.9 1
v -0.6 -0.5 1
v -0.6 -0.1 1
v -0.6 0.8 1
v -0.6 0.9 1
v -0.4 0.8 1
v -0.4 0.9 1
v -0.2 -0.9 1
v -0.2 -0.5 1
v -0.2 -0.1 1
v 0.2 -0.9 1
v 0.2 -0.5 1
v 0.2 -0.1 1
v 0.4 0.8 1
v 0.4 0.9 1
v 0.6 -0.9 1
v 0.6 -0.5 1
v 0.6 -0.1 1
v 0.6 0.8 1
v 0.6 0.9 1
v 1 -0.9 1
v 1 -0.5 1
v 1 -0.1 1
v 1 0.1 1
v 1 0.4 1
v 1 0.8 1
v 1 0.9 1
v -0.8 -0.5 -0.8
v -0.8 -0.1 -0.8
v -0.6 -0.5 -0.8
v -0.6 -0.1 -0.8
v -0.2 -0.5 -0.8
v -0.2 -0.1 -0.8
v 0.2 -0.5 -0.8
v 0.2 -0.1 -0.8
v 0.6 -0.5 -0.8
v 0.6 -0.1 -0.8
v 0.8 -0.5 -0.8
v 0.8 -0.1 -0.8
v -0.8 -0.5 0.8
v -0.8 -0.1 0.8
v -0.6 -0.5 0.8
v -0.6 -0.1 0.8
v -0.2 -0.5 0.8
v -0.2 -0.1 0.8
v 0.2 -0.5 0.8
v 0.2 -0.1 0.8
v 0.6 -0.5 0.8
v 0.6 -0.1 0.8
v 0.8 -0.5 0.8
v 0.8 -0.1 0.8
v -1 -0.9 -1
v -1 -0.5 -1
v -1 -0.1 -1
v -1 0.1 -1
v -1 0.4 -1
v -1 0.8 -1
v -1 0.9 -1
v -0.6 -0.9 -1
v -0.6 -0.5 -1
v -0.6 -0.1 -1
v -0.6 0.8 -1
v -0.6 0.9 -1
v -0.4 0.8 -1
v -0.4 0.9 -1
v -0.2 -0.9 -1
v -0.2 -0.5 -1
v -0.2 -0.1 -1
v 0.2 -0.9 -1
v 0.2 -0.5 -1
v 0.2 -0.1 -1
v 0.4 0.8 -1
v 0.4 0.9 -1
v 0.6 -0.9 -1
v 0.6 -0.5 -1
v 0.6 -0.1 -1
v 0.6 0.8 -1
v 0.6 0.9 -1
v 1 -0.9 -1
v 1 -0.5 -1
v 1 -0.1 -1
v 1 0.1 -1
v 1 0.4 -1
v 1 0.8 -1
v 1 0.9 -1
v -1 -0.9 1
v -0.6 -0.9 1
v -0.2 -0.9 1
v 0.2 -0.9 1
v 0.6 -0.9 1
v 1 -0.9 1
v -0.8 -0.9 0.8
v -0.6 -0.9 0.8
v -0.2 -0.9 0.8
v 0.2 -0.9 0.8
v 0.6 -0.9 0.8
v 0.8 -0.9 0.8
v -1 -0.9 0.6
v -0.8 -0.9 0.6
v 0.8 -0.9 0.6
v 1 -0.9 0.6
v -1 -0.9 0.2
v -0.8 -0.9 0.2
v 0.8 -0.9 0.2
v 1 -0.9 0.2
v -1 -0.9 -0.2
v -0.8 -0.9 -0.2
v 0.8 -0.9 -0.2
v 1 -0.9 -0.2
v -1 -0.9 -0.6
v -0.8 -0.9 -0.6
v 0.8 -0.9 -0.6
v 1 -0.9 -0.6
v -0.8 -0.9 -0.8
v -0.6 -0.9 -0.8
v -0.2 -0.9 -0.8
v 0.2 -0.9 -0.8
v 0.6 -0.9 -0.8
v 0.8 -0.9 -0.8
v -1 -0.9 -1
v -0.6 -0.9 -1
v -0.2 -0.9 -1
v 0.2 -0.9 -1
v 0.6 -0.9 -1
v 1 -0.9 -1
v -0.8 -0.1 0.8
v -0.6 -0.1 0.8
v -0.2 -0.1 0.8
v 0.2 -0.1 0.8
v 0.6 -0.1 0.8
v 0.8 -0.1 0.8
v -0.8 -0.1 0.6
v 0.8 -0.1 0.6
v -0.8 -0.1 0.2
v 0.8 -0.1 0.2
v -0.8 -0.1 -0.2
v 0.8 -0.1 -0.2
v -0.8 -0.1 -0.6
v 0.8 -0.1 -0.6
v -0.8 -0.1 -0.8
v -0.6 -0.1 -0.8
v -0.2 -0.1 -0.8
v 0.2 -0.1 -0.8
v 0.6 -0.1 -0.8
v 0.8 -0.1 -0.8
v -0.8 -0.5 0.8
v -0.6 -0.5 0.8
v -0.2 -0.5 0.8
v 0.2 -0.5 0.8
v 0.6 -0.5 0.8
v 0.8 -0.5 0.8
v -0.8 -0.5 0.6
v 0.8 -0.5 0.6
v -0.8 -0.5 0.2
v 0.8 -0.5 0.2
v -0.8 -0.5 -0.2
v 0.8 -0.5 -0.2
v -0.8 -0.5 -0.6
v 0.8 -0.5 -0.6
v -0.8 -0.5 -0.8
v -0.6 -0.5 -0.8
v -0.2 -0.5 -0.8
v 0.2 -0.5 -0.8
v 0.6 -0.5 -0.8
v 0.8 -0.5 -0.8
v -1 0.9 1
v -0.6 0.9 1
v -0.4 0.9 1
v 0.4 0.9 1
v 0.6 0.9 1
v 1 0.9 1
v -0.7 0.9 0.7
v -0.6 0.9 0.7
v -0.4 0.9 0.7
v -0.3 0.9 0.7
v 0.3 0.9 0.7
v 0.4 0.9 0.7
v 0.6 0.9 0.7
v 0.7 0.9 0.7
v -1 0.9 0.6
v -0.7 0.9 0.6
v -0.3 0.9 0.6
v 0.3 0.9 0.6
v 0.7 0.9 0.6
v 1 0.9 0.6
v -1 0.9 0.4
v -0.7 0.9 0.4
v -0.3 0.9 0.4
v 0.3 0.9 0.4
v 0.7 0.9 0.4
v 1 0.9 0.4
v -0.7 0.9 0.3
v -0.6 0.9 0.3
v -0.4 0.9 0.3
v -0.3 0.9 0.3
v 0.3 0.9 0.3
v 0.4 0.9 0.3
v 0.6 0.9 0.3
v 0.7 0.9 0.3
v -0.7 0.9 -0.3
v -0.6 0.9 -0.3
v -0.4 0.9 -0.3
v -0.3 0.9 -0.3
v 0.3 0.9 -0.3
v 0.4 0.9 -0.3
v 0.6 0.9 -0.3
v 0.7 0.9 -0.3
v -1 0.9 -0.4
v -0.7 0.9 -0.4
v -0.3 0.9 -0.4
v 0.3 0.9 -0.4
v 0.7 0.9 -0.4
v 1 0.9 -0.4
v -1 0.9 -0.6
v -0.7 0.9 -0.6
v -0.3 0.9 -0.6
v 0.3 0.9 -0.6
v 0.7 0.9 -0.6
v 1 0.9 -0.6
v -0.7 0.9 -0.7
v -0.6 0.9 -0.7
v -0.4 0.9 -0.7
v -0.3 0.9 -0.7
v 0.3 0.9 -0.7
v 0.4 0.9 -0.7
v 0.6 0.9 -0.7
v 0.7 0.9 -0.7
v -1 0.9 -1
v -0.6 0.9 -1
v -0.4 0.9 -1
v 0.4 0.9 -1
v 0.6 0.9 -1
v 1 0.9 -1

# faces
f 7/7/1 2/7/1 1/7/1
f 8/6/1 3/6/1 2/6/1
f 8/7/1 2/7/1 7/7/1
f 9/7/1 4/7/1 3/7/1
f 9/6/1 3/6/1 8/6/1
f 10/6/1 5/6/1 4/6/1
f 10/7/1 4/7/1 9/7/1
f 11/7/1 6/7/1 5/7/1
f 11/6/1 5/6/1 10/6/1
f 12/7/1 6/7/1 11/7/1
f 13/6/1 8/6/1 7/6/1
f 14/7/1 9/7/1 8/7/1
f 14/6/1 8/6/1 13/6/1
f 15/6/1 10/6/1 9/6/1
f 15/7/1 9/7/1 14/7/1
f 16/7/1 11/7/1 10/7/1
f 16/6/1 10/6/1 15/6/1
f 17/6/1 12/6/1 11/6/1
f 17/7/1 11/7/1 16/7/1
f 18/6/1 12/6/1 17/6/1
f 19/1/1 14/1/1 13/1/1
f 19/1/1 15/1/1 14/1/1
f 19/1/1 18/1/1 17/1/1
f 19/1/1 17/1/1 16/1/1
f 19/1/1 16/1/1 15/1/1
f 20/1/1 18/1/1 19/1/1
f 21/2/1 20/2/1 19/2/1
f 22/2/1 20/2/1 21/2/1
f 23/1/1 22/1/1 21/1/1
f 24/1/1 22/1/1 23/1/1
f 25/1/1 22/1/1 24/1/1
f 26/1/1 22/1/1 25/1/1
f 27/1/1 22/1/1 26/1/1
f 28/1/1 22/1/1 27/1/1
f 29/4/1 24/4/1 23/4/1
f 30/3/1 25/3/1 24/3/1
f 30/4/1 24/4/1 29/4/1
f 31/4/1 26/4/1 25/4/1
f 31/3/1 25/3/1 30/3/1
f 32/3/1 27/3/1 26/3/1
f 32/4/1 26/4/1 31/4/1
f 33/4/1 28/4/1 27/4/1
f 33/3/1 27/3/1 32/3/1
f 34/4/1 28/4/1 33/4/1
f 41/6/1 36/6/1 35/6/1
f 42/7/1 37/7/1 36/7/1
f 42/6/1 36/6/1 41/6/1
f 43/6/1 38/6/1 37/6/1
f 43/7/1 37/7/1 42/7/1
f 44/7/1 39/7/1 38/7/1
f 44/6/1 38/6/1 43/6/1
f 45/6/1 40/6/1 39/6/1
f 45/7/1 39/7/1 44/7/1
f 46/6/1 40/6/1 45/6/1
f 47/6/2 48/6/2 53/6/2
f 48/7/2 49/7/2 54/7/2
f 53/6/2 48/6/2 54/6/2
f 49/6/2 50/6/2 55/6/2
f 54/7/2 49/7/2 55/7/2
f 50/7/2 51/7/2 56/7/2
f 55/6/2 50/6/2 56/6/2
f 51/6/2 52/6/2 57/6/2
f 56/7/2 51/7/2 57/7/2
f 57/6/2 52/6/2 58/6/2
f 59/7/2 60/7/2 65/7/2
f 60/6/2 61/6/2 66/6/2
f 65/7/2 60/7/2 66/7/2
f 61/7/2 62/7/2 67/7/2
f 66/6/2 61/6/2 67/6/2
f 62/6/2 63/6/2 68/6/2
f 67/7/2 62/7/2 68/7/2
f 63/7/2 64/7/2 69/7/2
f 68/6/2 63/6/2 69/6/2
f 69/7/2 64/7/2 70/7/2
f 65/6/2 66/6/2 71/6/2
f 66/7/2 67/7/2 72/7/2
f 71/6/2 66/6/2 72/6/2
f 67/6/2 68/6/2 73/6/2
f 72/7/2 67/7/2 73/7/2
f 68/7/2 69/7/2 74/7/2
f 73/6/2 68/6/2 74/6/2
f 69/6/2 70/6/2 75/6/2
f 74/7/2 69/7/2 75/7/2
f 75/6/2 70/6/2 76/6/2
f 71/1/2 72/1/2 77/1/2
f 72/1/2 73/1/2 77/1/2
f 75/1/2 76/1/2 77/1/2
f 74/1/2 75/1/2 77/1/2
f 73/1/2 74/1/2 77/1/2
f 77/1/2 76/1/2 78/1/2
f 77/2/2 78/2/2 79/2/2
f 79/2/2 78/2/2 80/2/2
f 79/1/2 80/1/2 81/1/2
f 81/1/2 80/1/2 82/1/2
f 82/1/2 80/1/2 83/1/2
f 83/1/2 80/1/2 84/1/2
f 84/1/2 80/1/2 85/1/2
f 85/1/2 80/1/2 86/1/2
f 81/4/2 82/4/2 87/4/2
f 82/3/2 83/3/2 88/3/2
f 87/4/2 82/4/2 88/4/2
f 83/4/2 84/4/2 89/4/2
f 88/3/2 83/3/2 89/3/2
f 84/3/2 85/3/2 90/3/2
f 89/4/2 84/4/2 90/4/2
f 85/4/2 86/4/2 91/4/2
f 90/3/2 85/3/2 91/3/2
f 91/4/2 86/4/2 92/4/2
f 100/7/3 94/7/3 93/7/3
f 101/6/3 95/6/3 94/6/3
f 101/7/3 94/7/3 100/7/3
f 102/1/3 96/1/3 95/1/3
f 102/6/3 95/6/3 101/6/3
f 103/4/3 99/4/3 98/4/3
f 103/1/3 98/1/3 97/1/3
f 104/4/3 99/4/3 103/4/3
f 105/1/3 103/1/3 97/1/3
f 105/3/3 104/3/3 103/3/3
f 106/3/3 104/3/3 105/3/3
f 107/6/3 101/6/3 100/6/3
f 108/7/3 102/7/3 101/7/3
f 108/6/3 101/6/3 107/6/3
f 109/1/3 96/1/3 102/1/3
f 109/7/3 102/7/3 108/7/3
f 110/7/3 108/7/3 107/7/3
f 111/6/3 109/6/3 108/6/3
f 111/7/3 108/7/3 110/7/3
f 112/1/3 96/1/3 109/1/3
f 112/6/3 109/6/3 111/6/3
f 113/1/3 105/1/3 97/1/3
f 113/4/3 106/4/3 105/4/3
f 114/4/3 106/4/3 113/4/3
f 115/6/3 111/6/3 110/6/3
f 116/7/3 112/7/3 111/7/3
f 116/6/3 111/6/3 115/6/3
f 117/1/3 96/1/3 112/1/3
f 117/7/3 112/7/3 116/7/3
f 118/1/3 113/1/3 97/1/3
f 118/3/3 114/3/3 113/3/3
f 119/3/3 114/3/3 118/3/3
f 120/7/3 116/7/3 115/7/3
f 121/6/3 117/6/3 116/6/3
f 121/7/3 116/7/3 120/7/3
f 122/1/3 96/1/3 117/1/3
f 122/6/3 117/6/3 121/6/3
f 123/2/3 97/2/3 96/2/3
f 123/1/3 96/1/3 122/1/3
f 124/1/3 118/1/3 97/1/3
f 124/2/3 97/2/3 123/2/3
f 125/4/3 119/4/3 118/4/3
f 125/1/3 118/1/3 124/1/3
f 126/4/3 119/4/3 125/4/3
f 129/6/3 128/6/3 127/6/3
f 130/6/3 128/6/3 129/6/3
f 131/7/3 130/7/3 129/7/3
f 132/7/3 130/7/3 131/7/3
f 133/6/3 132/6/3 131/6/3
f 134/6/3 132/6/3 133/6/3
f 135/7/3 134/7/3 133/7/3
f 136/7/3 134/7/3 135/7/3
f 137/6/3 136/6/3 135/6/3
f 138/6/3 136/6/3 137/6/3
f 139/6/4 140/6/4 141/6/4
f 141/6/4 140/6/4 142/6/4
f 141/7/4 142/7/4 143/7/4
f 143/7/4 142/7/4 144/7/4
f 143/6/4 144/6/4 145/6/4
f 145/6/4 144/6/4 146/6/4
f 145/7/4 146/7/4 147/7/4
f 147/7/4 146/7/4 148/7/4
f 147/6/4 148/6/4 149/6/4
f 149/6/4 148/6/4 150/6/4
f 151/7/4 152/7/4 158/7/4
f 152/6/4 153/6/4 159/6/4
f 158/7/4 152/7/4 159/7/4
f 153/1/4 154/1/4 160/1/4
f 159/6/4 153/6/4 160/6/4
f 156/4/4 157/4/4 161/4/4
f 155/1/4 156/1/4 161/1/4
f 161/4/4 157/4/4 162/4/4
f 155/1/4 161/1/4 163/1/4
f 161/3/4 162/3/4 163/3/4
f 163/3/4 162/3/4 164/3/4
f 158/6/4 159/6/4 165/6/4
f 159/7/4 160/7/4 166/7/4
f 165/6/4 159/6/4 166/6/4
f 160/1/4 154/1/4 167/1/4
f 166/7/4 160/7/4 167/7/4
f 165/7/4 166/7/4 168/7/4
f 166/6/4 167/6/4 169/6/4
f 168/7/4 166/7/4 169/7/4
f 167/1/4 154/1/4 170/1/4
f 169/6/4 167/6/4 170/6/4
f 155/1/4 163/1/4 171/1/4
f 163/4/4 164/4/4 171/4/4
f 171/4/4 164/4/4 172/4/4
f 168/6/4 169/6/4 173/6/4
f 169/7/4 170/7/4 174/7/4
f 173/6/4 169/6/4 174/6/4
f 170/1/4 154/1/4 175/1/4
f 174/7/4 170/7/4 175/7/4
f 155/1/4 171/1/4 176/1/4
f 171/3/4 172/3/4 176/3/4
f 176/3/4 172/3/4 177/3/4
f 173/7/4 174/7/4 178/7/4
f 174/6/4 175/6/4 179/6/4
f 178/7/4 174/7/4 179/7/4
f 175/1/4 154/1/4 180/1/4
f 179/6/4 175/6/4 180/6/4
f 154/2/4 155/2/4 181/2/4
f 180/1/4 154/1/4 181/1/4
f 155/1/4 176/1/4 182/1/4
f 181/2/4 155/2/4 182/2/4
f 176/4/4 177/4/4 183/4/4
f 182/1/4 176/1/4 183/1/4
f 183/4/4 177/4/4 184/4/4
f 191/7/5 186/7/5 185/7/5
f 192/6/5 187/6/5 186/6/5
f 192/7/5 186/7/5 191/7/5
f 193/7/5 188/7/5 187/7/5
f 193/6/5 187/6/5 192/6/5
f 194/6/5 189/6/5 188/6/5
f 194/7/5 188/7/5 193/7/5
f 195/7/5 190/7/5 189/7/5
f 195/6/5 189/6/5 194/6/5
f 196/7/5 190/7/5 195/7/5
f 197/7/5 191/7/5 185/7/5
f 198/2/5 194/2/5 193/2/5
f 198/7/5 191/7/5 197/7/5
f 198/2/5 192/2/5 191/2/5
f 198/2/5 196/2/5 195/2/5
f 198/2/5 195/2/5 194/2/5
f 198/2/5 193/2/5 192/2/5
f 199/7/5 190/7/5 196/7/5
f 199/2/5 196/2/5 198/2/5
f 200/7/5 190/7/5 199/7/5
f 201/6/5 198/6/5 197/6/5
f 202/2/5 199/2/5 198/2/5
f 202/6/5 198/6/5 201/6/5
f 203/6/5 200/6/5 199/6/5
f 203/2/5 199/2/5 202/2/5
f 204/6/5 200/6/5 203/6/5
f 205/7/5 202/7/5 201/7/5
f 206/2/5 203/2/5 202/2/5
f 206/7/5 202/7/5 205/7/5
f 207/7/5 204/7/5 203/7/5
f 207/2/5 203/2/5 206/2/5
f 208/7/5 204/7/5 207/7/5
f 209/6/5 206/6/5 205/6/5
f 210/2/5 207/2/5 206/2/5
f 210/6/5 206/6/5 209/6/5
f 211/6/5 208/6/5 207/6/5
f 211/2/5 207/2/5 210/2/5
f 212/6/5 208/6/5 211/6/5
f 213/7/5 210/7/5 209/7/5
f 213/2/5 211/2/5 210/2/5
f 214/2/5 211/2/5 213/2/5
f 215/2/5 211/2/5 214/2/5
f 216/2/5 211/2/5 215/2/5
f 217/2/5 211/2/5 216/2/5
f 218/7/5 212/7/5 211/7/5
f 218/2/5 211/2/5 217/2/5
f 219/7/5 213/7/5 209/7/5
f 219/7/5 214/7/5 213/7/5
f 220/6/5 215/6/5 214/6/5
f 220/7/5 214/7/5 219/7/5
f 221/7/5 216/7/5 215/7/5
f 221/6/5 215/6/5 220/6/5
f 222/6/5 217/6/5 216/6/5
f 222/7/5 216/7/5 221/7/5
f 223/7/5 218/7/5 217/7/5
f 223/6/5 217/6/5 222/6/5
f 224/7/5 212/7/5 218/7/5
f 224/7/5 218/7/5 223/7/5
f 231/1/5 226/1/5 225/1/5
f 231/1/5 230/1/5 229/1/5
f 231/1/5 229/1/5 228/1/5
f 231/1/5 228/1/5 227/1/5
f 231/1/5 227/1/5 226/1/5
f 232/1/5 230/1/5 231/1/5
f 233/1/5 232/1/5 231/1/5
f 234/1/5 232/1/5 233/1/5
f 235/1/5 234/1/5 233/1/5
f 236/1/5 234/1/5 235/1/5
f 237/1/5 236/1/5 235/1/5
f 238/1/5 236/1/5 237/1/5
f 239/1/5 238/1/5 237/1/5
f 240/1/5 238/1/5 239/1/5
f 241/1/5 238/1/5 240/1/5
f 242/1/5 238/1/5 241/1/5
f 243/1/5 238/1/5 242/1/5
f 244/1/5 238/1/5 243/1/5
f 245/5/6 246/5/6 251/5/6
f 249/5/6 250/5/6 251/5/6
f 248/5/6 249/5/6 251/5/6
f 247/5/6 248/5/6 251/5/6
f 246/5/6 247/5/6 251/5/6
f 251/5/6 250/5/6 252/5/6
f 251/5/6 252/5/6 253/5/6
f 253/5/6 252/5/6 254/5/6
f 253/5/6 254/5/6 255/5/6
f 255/5/6 254/5/6 256/5/6
f 255/5/6 256/5/6 257/5/6
f 257/5/6 256/5/6 258/5/6
f 257/5/6 258/5/6 259/5/6
f 259/5/6 258/5/6 260/5/6
f 260/5/6 258/5/6 261/5/6
f 261/5/6 258/5/6 262/5/6
f 262/5/6 258/5/6 263/5/6
f 263/5/6 258/5/6 264/5/6
f 265/4/6 266/4/6 271/4/6
f 266/3/6 267/3/6 272/3/6
f 271/4/6 266/4/6 272/4/6
f 267/4/6 268/4/6 273/4/6
f 272/3/6 267/3/6 273/3/6
f 273/4/6 268/4/6 274/4/6
f 274/4/6 268/4/6 275/4/6
f 268/3/6 269/3/6 276/3/6
f 275/4/6 268/4/6 276/4/6
f 269/4/6 270/4/6 277/4/6
f 276/3/6 269/3/6 277/3/6
f 277/4/6 270/4/6 278/4/6
f 265/4/6 271/4/6 279/4/6
f 271/3/6 272/3/6 280/3/6
f 279/4/6 271/4/6 280/4/6
f 272/3/6 273/3/6 280/3/6
f 273/3/6 274/3/6 280/3/6
f 274/4/6 275/4/6 281/4/6
f 280/3/6 274/3/6 281/3/6
f 275/3/6 276/3/6 282/3/6
f 281/4/6 275/4/6 282/4/6
f 277/3/6 278/3/6 282/3/6
f 276/3/6 277/3/6 282/3/6
f 278/4/6 270/4/6 283/4/6
f 282/3/6 278/3/6 283/3/6
f 283/4/6 270/4/6 284/4/6
f 280/3/6 281/3/6 285/3/6
f 281/3/6 282/3/6 285/3/6
f 283/3/6 284/3/6 285/3/6
f 282/3/6 283/3/6 285/3/6
f 279/3/6 280/3/6 285/3/6
f 285/3/6 284/3/6 286/3/6
f 286/3/6 284/3/6 287/3/6
f 287/3/6 284/3/6 288/3/6
f 288/3/6 284/3/6 289/3/6
f 289/3/6 284/3/6 290/3/6
f 285/4/6 286/4/6 291/4/6
f 286/3/6 287/3/6 291/3/6
f 291/3/6 287/3/6 292/3/6
f 292/3/6 287/3/6 293/3/6
f 287/4/6 288/4/6 294/4/6
f 293/3/6 287/3/6 294/3/6
f 288/3/6 289/3/6 295/3/6
f 294/4/6 288/4/6 295/4/6
f 295/3/6 289/3/6 296/3/6
f 296/3/6 289/3/6 297/3/6
f 289/4/6 290/4/6 298/4/6
f 297/3/6 289/3/6 298/3/6
f 285/4/6 291/4/6 299/4/6
f 291/4/6 292/4/6 299/4/6
f 292/3/6 293/3/6 300/3/6
f 299/4/6 292/4/6 300/4/6
f 293/4/6 294/4/6 301/4/6
f 300/3/6 293/3/6 301/3/6
f 294/4/6 295/4/6 301/4/6
f 295/4/6 296/4/6 301/4/6
f 301/4/6 296/4/6 302/4/6
f 302/4/6 296/4/6 303/4/6
f 296/3/6 297/3/6 304/3/6
f 303/4/6 296/4/6 304/4/6
f 297/4/6 298/4/6 305/4/6
f 304/3/6 297/3/6 305/3/6
f 298/4/6 290/4/6 306/4/6
f 305/4/6 298/4/6 306/4/6
f 285/4/6 299/4/6 307/4/6
f 299/3/6 300/3/6 308/3/6
f 307/4/6 299/4/6 308/4/6
f 300/3/6 301/3/6 308/3/6
f 301/3/6 302/3/6 308/3/6
f 302/4/6 303/4/6 309/4/6
f 308/3/6 302/3/6 309/3/6
f 304/3/6 305/3/6 310/3/6
f 309/4/6 303/4/6 310/4/6
f 303/3/6 304/3/6 310/3/6
f 305/3/6 306/3/6 310/3/6
f 306/4/6 290/4/6 311/4/6
f 310/3/6 306/3/6 311/3/6
f 311/4/6 290/4/6 312/4/6
f 307/3/6 308/3/6 313/3/6
f 309/3/6 310/3/6 313/3/6
f 311/3/6 312/3/6 313/3/6
f 310/3/6 311/3/6 313/3/6
f 308/3/6 309/3/6 313/3/6
f 313/3/6 312/3/6 314/3/6
f 314/3/6 312/3/6 315/3/6
f 315/3/6 312/3/6 316/3/6
f 316/3/6 312/3/6 317/3/6
f 317/3/6 312/3/6 318/3/6
f 313/4/6 314/4/6 319/4/6
f 314/3/6 315/3/6 319/3/6
f 319/3/6 315/3/6 320/3/6
f 320/3/6 315/3/6 321/3/6
f 315/4/6 316/4/6 322/4/6
f 321/3/6 315/3/6 322/3/6
f 316/3/6 317/3/6 323/3/6
f 322/4/6 316/4/6 323/4/6
f 323/3/6 317/3/6 324/3/6
f 324/3/6 317/3/6 325/3/6
f 317/4/6 318/4/6 326/4/6
f 325/3/6 317/3/6 326/3/6
f 313/4/6 319/4/6 327/4/6
f 319/4/6 320/4/6 327/4/6
f 320/3/6 321/3/6 328/3/6
f 327/4/6 320/4/6 328/4/6
f 321/4/6 322/4/6 329/4/6
f 328/3/6 321/3/6 329/3/6
f 322/4/6 323/4/6 329/4/6
f 323/4/6 324/4/6 329/4/6
f 324/3/6 325/3/6 330/3/6
f 329/4/6 324/4/6 330/4/6
f 325/4/6 326/4/6 331/4/6
f 330/3/6 325/3/6 331/3/6
f 326/4/6 318/4/6 332/4/6
f 331/4/6 326/4/6 332/4/6
