# MagicaVoxel @ Ephtracy

# group
o 

# material
mtllib NPC1_rightleg_1.mtl
usemtl palette

# normals
vn -1 0 0
vn 1 0 0
vn 0 0 1
vn 0 0 -1
vn 0 -1 0
vn 0 1 0

# texcoords
vt 0.818359 0.5
vt 0.849609 0.5
vt 0.923828 0.5
vt 0.982422 0.5

# verts
v -0.8 -2.2 0.8
v -0.8 -2.2 -0.8
v -0.8 -1.8 0.8
v -0.8 -1.8 -0.8
v -0.8 -1.4 0.8
v -0.8 -1.4 -0.8
v -0.8 -1.2 0.8
v -0.8 -1.2 -0.8
v -0.8 0 0.8
v -0.8 0 -0.8
v 0.8 -2.2 0.8
v 0.8 -2.2 -0.8
v 0.8 -1.8 0.8
v 0.8 -1.8 -0.8
v 0.8 -1.4 0.8
v 0.8 -1.4 -0.8
v 0.8 -1.2 0.8
v 0.8 -1.2 -0.8
v 0.8 0 0.8
v 0.8 0 -0.8
v -0.8 -2.2 0.8
v -0.8 -1.8 0.8
v -0.8 -1.4 0.8
v -0.8 -1.2 0.8
v -0.8 0 0.8
v 0.8 -2.2 0.8
v 0.8 -1.8 0.8
v 0.8 -1.4 0.8
v 0.8 -1.2 0.8
v 0.8 0 0.8
v -0.8 -2.2 -0.8
v -0.8 -1.8 -0.8
v -0.8 -1.4 -0.8
v -0.8 -1.2 -0.8
v -0.8 0 -0.8
v 0.8 -2.2 -0.8
v 0.8 -1.8 -0.8
v 0.8 -1.4 -0.8
v 0.8 -1.2 -0.8
v 0.8 0 -0.8
v -0.8 -2.2 0.8
v 0.8 -2.2 0.8
v -0.8 -2.2 -0.8
v 0.8 -2.2 -0.8
v -0.8 0 0.8
v 0.8 0 0.8
v -0.8 0 -0.8
v 0.8 0 -0.8

# faces
f 3/3/1 2/3/1 1/3/1
f 4/3/1 2/3/1 3/3/1
f 5/4/1 4/4/1 3/4/1
f 6/4/1 4/4/1 5/4/1
f 7/1/1 6/1/1 5/1/1
f 8/1/1 6/1/1 7/1/1
f 9/2/1 8/2/1 7/2/1
f 10/2/1 8/2/1 9/2/1
f 11/3/2 12/3/2 13/3/2
f 13/3/2 12/3/2 14/3/2
f 13/4/2 14/4/2 15/4/2
f 15/4/2 14/4/2 16/4/2
f 15/1/2 16/1/2 17/1/2
f 17/1/2 16/1/2 18/1/2
f 17/2/2 18/2/2 19/2/2
f 19/2/2 18/2/2 20/2/2
f 26/3/3 22/3/3 21/3/3
f 27/4/3 23/4/3 22/4/3
f 27/3/3 22/3/3 26/3/3
f 28/1/3 24/1/3 23/1/3
f 28/4/3 23/4/3 27/4/3
f 29/2/3 25/2/3 24/2/3
f 29/1/3 24/1/3 28/1/3
f 30/2/3 25/2/3 29/2/3
f 31/3/4 32/3/4 36/3/4
f 32/4/4 33/4/4 37/4/4
f 36/3/4 32/3/4 37/3/4
f 33/1/4 34/1/4 38/1/4
f 37/4/4 33/4/4 38/4/4
f 34/2/4 35/2/4 39/2/4
f 38/1/4 34/1/4 39/1/4
f 39/2/4 35/2/4 40/2/4
f 43/3/5 42/3/5 41/3/5
f 44/3/5 42/3/5 43/3/5
f 45/2/6 46/2/6 47/2/6
f 47/2/6 46/2/6 48/2/6
