# MagicaVoxel @ Ephtracy

# group
o 

# material
mtllib tomatos_1.mtl
usemtl palette

# normals
vn -1 0 0
vn 1 0 0
vn 0 0 1
vn 0 0 -1
vn 0 -1 0
vn 0 1 0

# texcoords
vt 0.580078 0.5
vt 0.763672 0.5

# verts
v -0.1 -0.6 0
v -0.1 -0.6 -0.2
v -0.1 -0.5 0
v -0.1 -0.5 -0.2
v 0 -0.6 0.1
v 0 -0.6 0
v 0 -0.5 0
v 0 -0.5 -0.1
v 0 -0.3 0.1
v 0 -0.3 0
v 0 0.7 0
v 0 0.7 -0.1
v 0.1 -0.6 0.1
v 0.1 -0.6 0
v 0.1 -0.6 -0.1
v 0.1 -0.6 -0.2
v 0.1 -0.5 -0.1
v 0.1 -0.5 -0.2
v 0.1 -0.3 0.1
v 0.1 -0.3 0
v 0.1 0.7 0
v 0.1 0.7 -0.1
v 0 -0.6 0.1
v 0 -0.3 0.1
v 0.1 -0.6 0.1
v 0.1 -0.3 0.1
v -0.1 -0.6 0
v -0.1 -0.5 0
v 0 -0.6 0
v 0 -0.5 0
v 0 -0.3 0
v 0 0.7 0
v 0.1 -0.3 0
v 0.1 0.7 0
v 0 -0.5 -0.1
v 0 0.7 -0.1
v 0.1 -0.5 -0.1
v 0.1 0.7 -0.1
v -0.1 -0.6 -0.2
v -0.1 -0.5 -0.2
v 0.1 -0.6 -0.2
v 0.1 -0.5 -0.2
v 0 -0.6 0.1
v 0.1 -0.6 0.1
v -0.1 -0.6 0
v 0 -0.6 0
v 0.1 -0.6 0
v 0 -0.6 -0.1
v 0.1 -0.6 -0.1
v -0.1 -0.6 -0.2
v 0.1 -0.6 -0.2
v -0.1 -0.5 0
v 0 -0.5 0
v 0 -0.5 -0.1
v 0.1 -0.5 -0.1
v -0.1 -0.5 -0.2
v 0.1 -0.5 -0.2
v 0 -0.3 0.1
v 0.1 -0.3 0.1
v 0 -0.3 0
v 0.1 -0.3 0
v 0 0.7 0
v 0.1 0.7 0
v 0 0.7 -0.1
v 0.1 0.7 -0.1

# faces
f 3/2/1 2/2/1 1/2/1
f 4/2/1 2/2/1 3/2/1
f 7/2/1 6/2/1 5/2/1
f 9/2/1 7/2/1 5/2/1
f 10/1/1 8/1/1 7/1/1
f 10/2/1 7/2/1 9/2/1
f 11/1/1 8/1/1 10/1/1
f 12/1/1 8/1/1 11/1/1
f 14/1/2 15/1/2 17/1/2
f 15/2/2 16/2/2 17/2/2
f 17/2/2 16/2/2 18/2/2
f 13/2/2 14/2/2 19/2/2
f 14/1/2 17/1/2 20/1/2
f 19/2/2 14/2/2 20/2/2
f 20/1/2 17/1/2 21/1/2
f 21/1/2 17/1/2 22/1/2
f 25/2/3 24/2/3 23/2/3
f 26/2/3 24/2/3 25/2/3
f 29/2/3 28/2/3 27/2/3
f 30/2/3 28/2/3 29/2/3
f 33/1/3 32/1/3 31/1/3
f 34/1/3 32/1/3 33/1/3
f 35/1/4 36/1/4 37/1/4
f 37/1/4 36/1/4 38/1/4
f 39/2/4 40/2/4 41/2/4
f 41/2/4 40/2/4 42/2/4
f 46/2/5 44/2/5 43/2/5
f 47/2/5 44/2/5 46/2/5
f 48/2/5 46/2/5 45/2/5
f 48/1/5 47/1/5 46/1/5
f 49/1/5 47/1/5 48/1/5
f 50/2/5 48/2/5 45/2/5
f 50/2/5 49/2/5 48/2/5
f 51/2/5 49/2/5 50/2/5
f 52/2/6 53/2/6 54/2/6
f 52/2/6 54/2/6 56/2/6
f 54/2/6 55/2/6 56/2/6
f 56/2/6 55/2/6 57/2/6
f 58/2/6 59/2/6 60/2/6
f 60/2/6 59/2/6 61/2/6
f 62/1/6 63/1/6 64/1/6
f 64/1/6 63/1/6 65/1/6
