# MagicaVoxel @ Ephtracy

# group
o 

# material
mtllib tomatos_2.mtl
usemtl palette

# normals
vn -1 0 0
vn 1 0 0
vn 0 0 1
vn 0 0 -1
vn 0 -1 0
vn 0 1 0

# texcoords
vt 0.580078 0.5
vt 0.763672 0.5

# verts
v -0.1 -0.6 0
v -0.1 -0.6 -0.2
v -0.1 -0.5 0
v -0.1 -0.5 -0.2
v -0.1 -0.1 0
v -0.1 -0.1 -0.1
v -0.1 0.1 0
v -0.1 0.1 -0.1
v 0 -0.6 0.1
v 0 -0.6 0
v 0 -0.5 0
v 0 -0.5 -0.1
v 0 -0.3 0.1
v 0 -0.3 0
v 0 -0.2 -0.1
v 0 -0.2 -0.2
v 0 -0.1 0
v 0 -0.1 -0.1
v 0 -0.1 -0.2
v 0 0.1 0.1
v 0 0.1 0
v 0 0.1 -0.1
v 0 0.3 0.1
v 0 0.3 0
v 0 0.7 0
v 0 0.7 -0.1
v 0.1 -0.6 0.1
v 0.1 -0.6 0
v 0.1 -0.6 -0.1
v 0.1 -0.6 -0.2
v 0.1 -0.5 -0.1
v 0.1 -0.5 -0.2
v 0.1 -0.3 0.1
v 0.1 -0.3 0
v 0.1 -0.3 -0.1
v 0.1 -0.2 0
v 0.1 -0.2 -0.1
v 0.1 -0.2 -0.2
v 0.1 -0.1 -0.1
v 0.1 -0.1 -0.2
v 0.1 0.1 0.1
v 0.1 0.1 0
v 0.1 0.3 0.1
v 0.1 0.3 0
v 0.1 0.7 0
v 0.1 0.7 -0.1
v 0.2 -0.3 0
v 0.2 -0.3 -0.1
v 0.2 -0.2 0
v 0.2 -0.2 -0.1
v 0 -0.6 0.1
v 0 -0.3 0.1
v 0 0.1 0.1
v 0 0.3 0.1
v 0.1 -0.6 0.1
v 0.1 -0.3 0.1
v 0.1 0.1 0.1
v 0.1 0.3 0.1
v -0.1 -0.6 0
v -0.1 -0.5 0
v -0.1 -0.1 0
v -0.1 0.1 0
v 0 -0.6 0
v 0 -0.5 0
v 0 -0.3 0
v 0 -0.1 0
v 0 0.1 0
v 0 0.3 0
v 0 0.7 0
v 0.1 -0.3 0
v 0.1 -0.2 0
v 0.1 0.1 0
v 0.1 0.3 0
v 0.1 0.7 0
v 0.2 -0.3 0
v 0.2 -0.2 0
v -0.1 -0.1 -0.1
v -0.1 0.1 -0.1
v 0 -0.5 -0.1
v 0 -0.2 -0.1
v 0 -0.1 -0.1
v 0 0.1 -0.1
v 0 0.7 -0.1
v 0.1 -0.5 -0.1
v 0.1 -0.3 -0.1
v 0.1 -0.2 -0.1
v 0.1 -0.1 -0.1
v 0.1 0.7 -0.1
v 0.2 -0.3 -0.1
v 0.2 -0.2 -0.1
v -0.1 -0.6 -0.2
v -0.1 -0.5 -0.2
v 0 -0.2 -0.2
v 0 -0.1 -0.2
v 0.1 -0.6 -0.2
v 0.1 -0.5 -0.2
v 0.1 -0.2 -0.2
v 0.1 -0.1 -0.2
v 0 -0.6 0.1
v 0.1 -0.6 0.1
v -0.1 -0.6 0
v 0 -0.6 0
v 0.1 -0.6 0
v 0 -0.6 -0.1
v 0.1 -0.6 -0.1
v -0.1 -0.6 -0.2
v 0.1 -0.6 -0.2
v 0.1 -0.3 0
v 0.2 -0.3 0
v 0.1 -0.3 -0.1
v 0.2 -0.3 -0.1
v 0 -0.2 -0.1
v 0.1 -0.2 -0.1
v 0 -0.2 -0.2
v 0.1 -0.2 -0.2
v -0.1 -0.1 0
v 0 -0.1 0
v -0.1 -0.1 -0.1
v 0 -0.1 -0.1
v 0 0.1 0.1
v 0.1 0.1 0.1
v 0 0.1 0
v 0.1 0.1 0
v -0.1 -0.5 0
v 0 -0.5 0
v 0 -0.5 -0.1
v 0.1 -0.5 -0.1
v -0.1 -0.5 -0.2
v 0.1 -0.5 -0.2
v 0 -0.3 0.1
v 0.1 -0.3 0.1
v 0 -0.3 0
v 0.1 -0.3 0
v 0.1 -0.2 0
v 0.2 -0.2 0
v 0.1 -0.2 -0.1
v 0.2 -0.2 -0.1
v 0 -0.1 -0.1
v 0.1 -0.1 -0.1
v 0 -0.1 -0.2
v 0.1 -0.1 -0.2
v -0.1 0.1 0
v 0 0.1 0
v -0.1 0.1 -0.1
v 0 0.1 -0.1
v 0 0.3 0.1
v 0.1 0.3 0.1
v 0 0.3 0
v 0.1 0.3 0
v 0 0.7 0
v 0.1 0.7 0
v 0 0.7 -0.1
v 0.1 0.7 -0.1

# faces
f 3/2/1 2/2/1 1/2/1
f 4/2/1 2/2/1 3/2/1
f 7/2/1 6/2/1 5/2/1
f 8/2/1 6/2/1 7/2/1
f 11/2/1 10/2/1 9/2/1
f 13/2/1 11/2/1 9/2/1
f 14/1/1 12/1/1 11/1/1
f 14/2/1 11/2/1 13/2/1
f 15/1/1 12/1/1 14/1/1
f 17/1/1 15/1/1 14/1/1
f 18/2/1 16/2/1 15/2/1
f 18/1/1 15/1/1 17/1/1
f 19/2/1 16/2/1 18/2/1
f 23/2/1 21/2/1 20/2/1
f 24/1/1 22/1/1 21/1/1
f 24/2/1 21/2/1 23/2/1
f 25/1/1 22/1/1 24/1/1
f 26/1/1 22/1/1 25/1/1
f 28/1/2 29/1/2 31/1/2
f 29/2/2 30/2/2 31/2/2
f 31/2/2 30/2/2 32/2/2
f 27/2/2 28/2/2 33/2/2
f 28/1/2 31/1/2 34/1/2
f 33/2/2 28/2/2 34/2/2
f 34/1/2 31/1/2 35/1/2
f 36/1/2 37/1/2 39/1/2
f 37/2/2 38/2/2 39/2/2
f 39/2/2 38/2/2 40/2/2
f 36/1/2 39/1/2 42/1/2
f 41/2/2 42/2/2 43/2/2
f 42/1/2 39/1/2 44/1/2
f 43/2/2 42/2/2 44/2/2
f 44/1/2 39/1/2 45/1/2
f 45/1/2 39/1/2 46/1/2
f 47/2/2 48/2/2 49/2/2
f 49/2/2 48/2/2 50/2/2
f 55/2/3 52/2/3 51/2/3
f 56/2/3 52/2/3 55/2/3
f 57/2/3 54/2/3 53/2/3
f 58/2/3 54/2/3 57/2/3
f 63/2/3 60/2/3 59/2/3
f 64/2/3 60/2/3 63/2/3
f 66/2/3 62/2/3 61/2/3
f 67/2/3 62/2/3 66/2/3
f 70/1/3 66/1/3 65/1/3
f 70/1/3 67/1/3 66/1/3
f 71/1/3 67/1/3 70/1/3
f 72/1/3 67/1/3 71/1/3
f 73/1/3 69/1/3 68/1/3
f 74/1/3 69/1/3 73/1/3
f 75/2/3 71/2/3 70/2/3
f 76/2/3 71/2/3 75/2/3
f 77/2/4 78/2/4 81/2/4
f 81/2/4 78/2/4 82/2/4
f 79/1/4 80/1/4 84/1/4
f 84/1/4 80/1/4 85/1/4
f 85/1/4 80/1/4 86/1/4
f 82/1/4 83/1/4 87/1/4
f 81/1/4 82/1/4 87/1/4
f 87/1/4 83/1/4 88/1/4
f 85/2/4 86/2/4 89/2/4
f 89/2/4 86/2/4 90/2/4
f 91/2/4 92/2/4 95/2/4
f 95/2/4 92/2/4 96/2/4
f 93/2/4 94/2/4 97/2/4
f 97/2/4 94/2/4 98/2/4
f 102/2/5 100/2/5 99/2/5
f 103/2/5 100/2/5 102/2/5
f 104/2/5 102/2/5 101/2/5
f 104/1/5 103/1/5 102/1/5
f 105/1/5 103/1/5 104/1/5
f 106/2/5 104/2/5 101/2/5
f 106/2/5 105/2/5 104/2/5
f 107/2/5 105/2/5 106/2/5
f 110/2/5 109/2/5 108/2/5
f 111/2/5 109/2/5 110/2/5
f 114/2/5 113/2/5 112/2/5
f 115/2/5 113/2/5 114/2/5
f 118/2/5 117/2/5 116/2/5
f 119/2/5 117/2/5 118/2/5
f 122/2/5 121/2/5 120/2/5
f 123/2/5 121/2/5 122/2/5
f 124/2/6 125/2/6 126/2/6
f 124/2/6 126/2/6 128/2/6
f 126/2/6 127/2/6 128/2/6
f 128/2/6 127/2/6 129/2/6
f 130/2/6 131/2/6 132/2/6
f 132/2/6 131/2/6 133/2/6
f 134/2/6 135/2/6 136/2/6
f 136/2/6 135/2/6 137/2/6
f 138/2/6 139/2/6 140/2/6
f 140/2/6 139/2/6 141/2/6
f 142/2/6 143/2/6 144/2/6
f 144/2/6 143/2/6 145/2/6
f 146/2/6 147/2/6 148/2/6
f 148/2/6 147/2/6 149/2/6
f 150/1/6 151/1/6 152/1/6
f 152/1/6 151/1/6 153/1/6
