# MagicaVoxel @ Ephtracy

# group
o carrot_1

# material
mtllib trash_1-0-carrot_1.mtl
usemtl palette

# normals
vn -1 0 0
vn 1 0 0
vn 0 0 1
vn 0 0 -1
vn 0 -1 0
vn 0 1 0

# texcoords
vt 0.626953 0.5
vt 0.630859 0.5
vt 0.634766 0.5
vt 0.638672 0.5

# verts
v -1.2 0.3 0
v -1.2 0.3 -0.2
v -1.2 0.5 0
v -1.2 0.5 -0.2
v -1 0.3 0.2
v -1 0.3 0
v -1 0.5 0.2
v -1 0.5 0
v -0.8 0.5 0.2
v -0.8 0.5 0
v -0.8 0.5 -0.2
v -0.8 0.7 0.2
v -0.8 0.7 0
v -0.8 0.7 -0.2
v -0.2 0.1 0.2
v -0.2 0.1 -0.2
v -0.2 0.5 0.2
v -0.2 0.5 0
v -0.2 0.5 -0.2
v 0 0.1 -0.2
v 0 0.1 -0.4
v 0 0.3 -0.4
v 0 0.3 -0.6
v 0 0.5 0.2
v 0 0.5 0
v 0 0.5 -0.2
v 0 0.5 -0.4
v 0 0.7 0.2
v 0 0.7 0
v 0 0.7 -0.2
v 0 0.7 -0.4
v 0 0.7 -0.6
v 0 0.7 -0.8
v 0 0.9 -0.6
v 0 0.9 -0.8
v 0 0.9 -1
v 0 1.3 -0.4
v 0 1.3 -0.6
v 0 1.3 -0.8
v 0 1.3 -1
v 0 1.5 -0.4
v 0 1.5 -0.6
v 0 1.5 -0.8
v 0.2 0.1 0.4
v 0.2 0.1 0.2
v 0.2 0.3 0.4
v 0.2 0.3 0.2
v 0.2 0.5 -0.2
v 0.2 0.5 -0.4
v 0.2 0.7 -0.2
v 0.2 0.7 -0.4
v 0.2 0.7 -0.6
v 0.2 0.9 -0.4
v 0.2 0.9 -0.6
v 0.6 0.3 0.2
v 0.6 0.3 0
v 0.6 0.5 0.2
v 0.6 0.5 0
v 0.8 0.5 0.2
v 0.8 0.5 0
v 0.8 0.5 -0.2
v 0.8 0.9 0.2
v 0.8 0.9 0
v 0.8 0.9 -0.2
v 1 0.9 0.2
v 1 0.9 0
v 1 0.9 -0.2
v 1 1.1 0.2
v 1 1.1 0
v 1 1.1 -0.2
v -0.6 0.3 0.2
v -0.6 0.3 -0.2
v -0.6 0.5 0.2
v -0.6 0.5 0
v -0.6 0.5 -0.2
v -0.2 0.5 0.2
v -0.2 0.5 0
v -0.2 0.5 -0.2
v -0.2 0.7 0.2
v -0.2 0.7 0
v -0.2 0.7 -0.2
v 0.2 0.3 -0.4
v 0.2 0.3 -0.6
v 0.2 0.5 0.2
v 0.2 0.5 0
v 0.2 0.5 -0.4
v 0.2 0.5 -0.6
v 0.2 0.7 0.2
v 0.2 0.7 0
v 0.2 1.3 -0.4
v 0.2 1.3 -0.6
v 0.2 1.5 -0.4
v 0.2 1.5 -0.6
v 0.4 0.1 -0.2
v 0.4 0.1 -0.4
v 0.4 0.3 0.2
v 0.4 0.3 0
v 0.4 0.5 0.2
v 0.4 0.5 0
v 0.4 0.5 -0.2
v 0.4 0.5 -0.4
v 0.4 0.5 -0.6
v 0.4 0.7 0
v 0.4 0.7 -0.2
v 0.4 0.7 -0.4
v 0.4 0.7 -0.6
v 0.4 0.7 -0.8
v 0.4 0.9 -0.4
v 0.4 0.9 -0.8
v 0.4 0.9 -1
v 0.4 1.3 -0.6
v 0.4 1.3 -0.8
v 0.4 1.3 -1
v 0.4 1.5 -0.6
v 0.4 1.5 -0.8
v 0.6 0.1 0.4
v 0.6 0.1 -0.2
v 0.6 0.3 0.4
v 0.6 0.3 0.2
v 0.6 0.3 -0.2
v 0.8 0.3 0.2
v 0.8 0.3 -0.2
v 0.8 0.5 0.2
v 0.8 0.5 0
v 0.8 0.5 -0.2
v 1 0.5 0.2
v 1 0.5 0
v 1 0.5 -0.2
v 1 0.9 0.2
v 1 0.9 0
v 1 0.9 -0.2
v 1.4 0.9 0.2
v 1.4 0.9 0
v 1.4 1.1 0.2
v 1.4 1.1 0
v 1.6 0.9 0
v 1.6 0.9 -0.2
v 1.6 1.1 0
v 1.6 1.1 -0.2
v 0.2 0.1 0.4
v 0.2 0.3 0.4
v 0.4 0.1 0.4
v 0.4 0.3 0.4
v 0.6 0.1 0.4
v 0.6 0.3 0.4
v -1 0.3 0.2
v -1 0.5 0.2
v -0.8 0.3 0.2
v -0.8 0.5 0.2
v -0.8 0.7 0.2
v -0.6 0.3 0.2
v -0.6 0.5 0.2
v -0.2 0.1 0.2
v -0.2 0.5 0.2
v -0.2 0.7 0.2
v 0 0.3 0.2
v 0 0.5 0.2
v 0 0.7 0.2
v 0.2 0.1 0.2
v 0.2 0.3 0.2
v 0.2 0.5 0.2
v 0.2 0.7 0.2
v 0.4 0.3 0.2
v 0.4 0.5 0.2
v 0.6 0.3 0.2
v 0.6 0.5 0.2
v 0.8 0.3 0.2
v 0.8 0.5 0.2
v 0.8 0.9 0.2
v 1 0.5 0.2
v 1 0.9 0.2
v 1 1.1 0.2
v 1.4 0.9 0.2
v 1.4 1.1 0.2
v -1.2 0.3 0
v -1.2 0.5 0
v -1 0.3 0
v -1 0.5 0
v 0.2 0.5 0
v 0.2 0.7 0
v 0.4 0.3 0
v 0.4 0.5 0
v 0.4 0.7 0
v 0.6 0.3 0
v 0.6 0.5 0
v 1.4 0.9 0
v 1.4 1.1 0
v 1.6 0.9 0
v 1.6 1.1 0
v 0 0.5 -0.4
v 0 0.7 -0.4
v 0 1.3 -0.4
v 0 1.5 -0.4
v 0.2 0.5 -0.4
v 0.2 0.7 -0.4
v 0.2 0.9 -0.4
v 0.2 1.3 -0.4
v 0.2 1.5 -0.4
v 0.4 0.7 -0.4
v 0.4 0.9 -0.4
v 0 0.7 -0.6
v 0 0.9 -0.6
v 0.2 0.7 -0.6
v 0.2 0.9 -0.6
v 0.2 1.3 -0.6
v 0.2 1.5 -0.6
v 0.4 1.3 -0.6
v 0.4 1.5 -0.6
v 0 0.9 -0.8
v 0 1.3 -0.8
v 0.2 0.9 -0.8
v 0.2 1.3 -0.8
v 0.4 0.9 -0.8
v 0.4 1.3 -0.8
v -1.2 0.3 -0.2
v -1.2 0.5 -0.2
v -1 0.3 -0.2
v -1 0.5 -0.2
v -0.8 0.5 -0.2
v -0.8 0.7 -0.2
v -0.6 0.3 -0.2
v -0.6 0.5 -0.2
v -0.2 0.1 -0.2
v -0.2 0.5 -0.2
v -0.2 0.7 -0.2
v 0 0.1 -0.2
v 0 0.5 -0.2
v 0 0.7 -0.2
v 0.2 0.5 -0.2
v 0.2 0.7 -0.2
v 0.4 0.1 -0.2
v 0.4 0.5 -0.2
v 0.6 0.1 -0.2
v 0.6 0.3 -0.2
v 0.6 0.5 -0.2
v 0.8 0.3 -0.2
v 0.8 0.5 -0.2
v 0.8 0.9 -0.2
v 1 0.5 -0.2
v 1 0.9 -0.2
v 1 1.1 -0.2
v 1.6 0.9 -0.2
v 1.6 1.1 -0.2
v 0 0.1 -0.4
v 0 0.3 -0.4
v 0.2 0.3 -0.4
v 0.2 0.5 -0.4
v 0.4 0.1 -0.4
v 0.4 0.5 -0.4
v 0 0.3 -0.6
v 0 0.7 -0.6
v 0.2 0.3 -0.6
v 0.2 0.5 -0.6
v 0.2 0.7 -0.6
v 0.4 0.5 -0.6
v 0.4 0.7 -0.6
v 0 0.7 -0.8
v 0 0.9 -0.8
v 0 1.3 -0.8
v 0 1.5 -0.8
v 0.2 0.7 -0.8
v 0.2 0.9 -0.8
v 0.2 1.3 -0.8
v 0.2 1.5 -0.8
v 0.4 0.7 -0.8
v 0.4 0.9 -0.8
v 0.4 1.3 -0.8
v 0.4 1.5 -0.8
v 0 0.9 -1
v 0 1.3 -1
v 0.4 0.9 -1
v 0.4 1.3 -1
v 0.2 0.1 0.4
v 0.4 0.1 0.4
v 0.6 0.1 0.4
v -0.2 0.1 0.2
v 0.2 0.1 0.2
v 0.4 0.1 0.2
v 0 0.1 0
v 0.2 0.1 0
v -0.2 0.1 -0.2
v 0 0.1 -0.2
v 0.2 0.1 -0.2
v 0.4 0.1 -0.2
v 0.6 0.1 -0.2
v 0 0.1 -0.4
v 0.4 0.1 -0.4
v -1 0.3 0.2
v -0.8 0.3 0.2
v -0.6 0.3 0.2
v 0.6 0.3 0.2
v 0.8 0.3 0.2
v -1.2 0.3 0
v -1 0.3 0
v -0.8 0.3 0
v -1.2 0.3 -0.2
v -1 0.3 -0.2
v -0.6 0.3 -0.2
v 0.6 0.3 -0.2
v 0.8 0.3 -0.2
v 0 0.3 -0.4
v 0.2 0.3 -0.4
v 0 0.3 -0.6
v 0.2 0.3 -0.6
v -0.6 0.5 0.2
v -0.2 0.5 0.2
v 0.8 0.5 0.2
v 1 0.5 0.2
v -0.6 0.5 0
v -0.2 0.5 0
v 0.8 0.5 0
v 1 0.5 0
v -0.6 0.5 -0.2
v -0.2 0.5 -0.2
v 0.8 0.5 -0.2
v 1 0.5 -0.2
v 0.2 0.5 -0.4
v 0.4 0.5 -0.4
v 0.2 0.5 -0.6
v 0.4 0.5 -0.6
v 0 0.7 -0.6
v 0.2 0.7 -0.6
v 0.4 0.7 -0.6
v 0 0.7 -0.8
v 0.2 0.7 -0.8
v 0.4 0.7 -0.8
v 1 0.9 0.2
v 1.4 0.9 0.2
v 1 0.9 0
v 1.4 0.9 0
v 1.6 0.9 0
v 1 0.9 -0.2
v 1.6 0.9 -0.2
v 0 0.9 -0.8
v 0.2 0.9 -0.8
v 0.4 0.9 -0.8
v 0 0.9 -1
v 0.4 0.9 -1
v 0 1.3 -0.4
v 0.2 1.3 -0.4
v 0 1.3 -0.6
v 0.2 1.3 -0.6
v 0.4 1.3 -0.6
v 0 1.3 -0.8
v 0.2 1.3 -0.8
v 0.4 1.3 -0.8
v 0.2 0.3 0.4
v 0.4 0.3 0.4
v 0.6 0.3 0.4
v 0.2 0.3 0.2
v 0.4 0.3 0.2
v 0.6 0.3 0.2
v 0.4 0.3 0
v 0.6 0.3 0
v -1 0.5 0.2
v -0.8 0.5 0.2
v -0.2 0.5 0.2
v 0 0.5 0.2
v 0.2 0.5 0.2
v 0.4 0.5 0.2
v 0.6 0.5 0.2
v 0.8 0.5 0.2
v -1.2 0.5 0
v -1 0.5 0
v -0.8 0.5 0
v -0.2 0.5 0
v 0 0.5 0
v 0.2 0.5 0
v 0.4 0.5 0
v 0.6 0.5 0
v 0.8 0.5 0
v -1.2 0.5 -0.2
v -1 0.5 -0.2
v -0.8 0.5 -0.2
v -0.2 0.5 -0.2
v 0 0.5 -0.2
v 0.2 0.5 -0.2
v 0.4 0.5 -0.2
v 0.6 0.5 -0.2
v 0.8 0.5 -0.2
v 0 0.5 -0.4
v 0.2 0.5 -0.4
v -0.8 0.7 0.2
v -0.2 0.7 0.2
v 0 0.7 0.2
v 0.2 0.7 0.2
v -0.8 0.7 0
v -0.2 0.7 0
v 0 0.7 0
v 0.2 0.7 0
v 0.4 0.7 0
v -0.8 0.7 -0.2
v -0.2 0.7 -0.2
v 0 0.7 -0.2
v 0.2 0.7 -0.2
v 0.4 0.7 -0.2
v 0 0.7 -0.4
v 0.2 0.7 -0.4
v 0.4 0.7 -0.4
v 0 0.7 -0.6
v 0.2 0.7 -0.6
v 0.8 0.9 0.2
v 1 0.9 0.2
v 0.8 0.9 0
v 1 0.9 0
v 0.8 0.9 -0.2
v 1 0.9 -0.2
v 0.2 0.9 -0.4
v 0.4 0.9 -0.4
v 0 0.9 -0.6
v 0.2 0.9 -0.6
v 0 0.9 -0.8
v 0.2 0.9 -0.8
v 0.4 0.9 -0.8
v 1 1.1 0.2
v 1.4 1.1 0.2
v 1 1.1 0
v 1.4 1.1 0
v 1.6 1.1 0
v 1 1.1 -0.2
v 1.6 1.1 -0.2
v 0 1.3 -0.8
v 0.2 1.3 -0.8
v 0.4 1.3 -0.8
v 0 1.3 -1
v 0.4 1.3 -1
v 0 1.5 -0.4
v 0.2 1.5 -0.4
v 0 1.5 -0.6
v 0.2 1.5 -0.6
v 0.4 1.5 -0.6
v 0 1.5 -0.8
v 0.2 1.5 -0.8
v 0.4 1.5 -0.8

# faces
f 3/2/1 2/2/1 1/2/1
f 4/2/1 2/2/1 3/2/1
f 7/2/1 6/2/1 5/2/1
f 8/2/1 6/2/1 7/2/1
f 12/2/1 10/2/1 9/2/1
f 13/1/1 11/1/1 10/1/1
f 13/2/1 10/2/1 12/2/1
f 14/1/1 11/1/1 13/1/1
f 17/1/1 16/1/1 15/1/1
f 18/1/1 16/1/1 17/1/1
f 19/1/1 16/1/1 18/1/1
f 22/1/1 21/1/1 20/1/1
f 26/1/1 22/1/1 20/1/1
f 26/1/1 23/1/1 22/1/1
f 27/1/1 23/1/1 26/1/1
f 28/3/1 25/3/1 24/3/1
f 29/4/1 26/4/1 25/4/1
f 29/3/1 25/3/1 28/3/1
f 30/4/1 26/4/1 29/4/1
f 31/1/1 23/1/1 27/1/1
f 32/1/1 23/1/1 31/1/1
f 34/1/1 33/1/1 32/1/1
f 35/1/1 33/1/1 34/1/1
f 39/1/1 36/1/1 35/1/1
f 40/1/1 36/1/1 39/1/1
f 41/2/1 38/2/1 37/2/1
f 42/1/1 39/1/1 38/1/1
f 42/2/1 38/2/1 41/2/1
f 43/1/1 39/1/1 42/1/1
f 46/2/1 45/2/1 44/2/1
f 47/2/1 45/2/1 46/2/1
f 50/2/1 49/2/1 48/2/1
f 51/2/1 49/2/1 50/2/1
f 53/2/1 52/2/1 51/2/1
f 54/2/1 52/2/1 53/2/1
f 57/2/1 56/2/1 55/2/1
f 58/2/1 56/2/1 57/2/1
f 62/2/1 60/2/1 59/2/1
f 63/1/1 61/1/1 60/1/1
f 63/2/1 60/2/1 62/2/1
f 64/1/1 61/1/1 63/1/1
f 68/1/1 66/1/1 65/1/1
f 69/2/1 67/2/1 66/2/1
f 69/1/1 66/1/1 68/1/1
f 70/2/1 67/2/1 69/2/1
f 71/1/2 72/1/2 73/1/2
f 73/1/2 72/1/2 74/1/2
f 74/1/2 72/1/2 75/1/2
f 76/2/2 77/2/2 79/2/2
f 77/1/2 78/1/2 80/1/2
f 79/2/2 77/2/2 80/2/2
f 80/1/2 78/1/2 81/1/2
f 82/1/2 83/1/2 86/1/2
f 86/1/2 83/1/2 87/1/2
f 84/3/2 85/3/2 88/3/2
f 88/3/2 85/3/2 89/3/2
f 90/2/2 91/2/2 92/2/2
f 92/2/2 91/2/2 93/2/2
f 96/3/2 97/3/2 98/3/2
f 98/3/2 97/3/2 99/3/2
f 94/1/2 95/1/2 100/1/2
f 100/1/2 95/1/2 101/1/2
f 99/4/2 100/4/2 103/4/2
f 100/2/2 101/2/2 104/2/2
f 103/4/2 100/4/2 104/4/2
f 101/1/2 102/1/2 105/1/2
f 104/2/2 101/2/2 105/2/2
f 105/1/2 102/1/2 106/1/2
f 106/2/2 107/2/2 108/2/2
f 105/2/2 106/2/2 108/2/2
f 108/2/2 107/2/2 109/2/2
f 109/1/2 110/1/2 112/1/2
f 112/1/2 110/1/2 113/1/2
f 111/2/2 112/2/2 114/2/2
f 114/2/2 112/2/2 115/2/2
f 116/1/2 117/1/2 118/1/2
f 118/1/2 117/1/2 119/1/2
f 119/1/2 117/1/2 120/1/2
f 121/2/2 122/2/2 123/2/2
f 123/2/2 122/2/2 124/2/2
f 124/2/2 122/2/2 125/2/2
f 126/2/2 127/2/2 129/2/2
f 127/1/2 128/1/2 130/1/2
f 129/2/2 127/2/2 130/2/2
f 130/1/2 128/1/2 131/1/2
f 132/1/2 133/1/2 134/1/2
f 134/1/2 133/1/2 135/1/2
f 136/2/2 137/2/2 138/2/2
f 138/2/2 137/2/2 139/2/2
f 142/2/3 141/2/3 140/2/3
f 143/2/3 141/2/3 142/2/3
f 144/1/3 143/1/3 142/1/3
f 145/1/3 143/1/3 144/1/3
f 148/2/3 147/2/3 146/2/3
f 149/2/3 147/2/3 148/2/3
f 151/1/3 149/1/3 148/1/3
f 152/2/3 150/2/3 149/2/3
f 152/1/3 149/1/3 151/1/3
f 154/2/3 150/2/3 152/2/3
f 155/2/3 150/2/3 154/2/3
f 156/1/3 154/1/3 153/1/3
f 157/1/3 154/1/3 156/1/3
f 159/1/3 156/1/3 153/1/3
f 160/4/3 157/4/3 156/4/3
f 160/1/3 156/1/3 159/1/3
f 161/3/3 158/3/3 157/3/3
f 161/4/3 157/4/3 160/4/3
f 162/3/3 158/3/3 161/3/3
f 163/3/3 161/3/3 160/3/3
f 164/3/3 161/3/3 163/3/3
f 167/2/3 166/2/3 165/2/3
f 168/2/3 166/2/3 167/2/3
f 170/2/3 169/2/3 168/2/3
f 171/2/3 169/2/3 170/2/3
f 173/1/3 172/1/3 171/1/3
f 174/1/3 172/1/3 173/1/3
f 177/2/3 176/2/3 175/2/3
f 178/2/3 176/2/3 177/2/3
f 182/4/3 180/4/3 179/4/3
f 183/4/3 180/4/3 182/4/3
f 184/1/3 182/1/3 181/1/3
f 185/1/3 182/1/3 184/1/3
f 188/2/3 187/2/3 186/2/3
f 189/2/3 187/2/3 188/2/3
f 194/1/3 191/1/3 190/1/3
f 195/1/3 191/1/3 194/1/3
f 197/2/3 193/2/3 192/2/3
f 198/2/3 193/2/3 197/2/3
f 199/2/3 196/2/3 195/2/3
f 200/2/3 196/2/3 199/2/3
f 203/1/3 202/1/3 201/1/3
f 204/1/3 202/1/3 203/1/3
f 207/2/3 206/2/3 205/2/3
f 208/2/3 206/2/3 207/2/3
f 211/1/3 210/1/3 209/1/3
f 212/1/3 210/1/3 211/1/3
f 213/1/3 212/1/3 211/1/3
f 214/1/3 212/1/3 213/1/3
f 215/2/4 216/2/4 217/2/4
f 217/2/4 216/2/4 218/2/4
f 217/1/4 218/1/4 219/1/4
f 217/1/4 219/1/4 221/1/4
f 219/1/4 220/1/4 221/1/4
f 221/1/4 220/1/4 222/1/4
f 222/1/4 220/1/4 224/1/4
f 224/1/4 220/1/4 225/1/4
f 223/1/4 224/1/4 226/1/4
f 226/1/4 224/1/4 227/1/4
f 227/4/4 228/4/4 229/4/4
f 229/4/4 228/4/4 230/4/4
f 231/1/4 232/1/4 233/1/4
f 233/1/4 232/1/4 234/1/4
f 234/1/4 232/1/4 235/1/4
f 234/2/4 235/2/4 236/2/4
f 236/2/4 235/2/4 237/2/4
f 237/1/4 238/1/4 239/1/4
f 239/1/4 238/1/4 240/1/4
f 240/2/4 241/2/4 242/2/4
f 242/2/4 241/2/4 243/2/4
f 244/1/4 245/1/4 246/1/4
f 244/1/4 246/1/4 248/1/4
f 246/1/4 247/1/4 248/1/4
f 248/1/4 247/1/4 249/1/4
f 250/1/4 251/1/4 252/1/4
f 252/1/4 251/1/4 253/1/4
f 253/1/4 251/1/4 254/1/4
f 253/1/4 254/1/4 255/1/4
f 255/1/4 254/1/4 256/1/4
f 257/1/4 258/1/4 261/1/4
f 261/1/4 258/1/4 262/1/4
f 259/1/4 260/1/4 263/1/4
f 263/1/4 260/1/4 264/1/4
f 261/2/4 262/2/4 265/2/4
f 265/2/4 262/2/4 266/2/4
f 263/2/4 264/2/4 267/2/4
f 267/2/4 264/2/4 268/2/4
f 269/1/4 270/1/4 271/1/4
f 271/1/4 270/1/4 272/1/4
f 277/2/5 274/2/5 273/2/5
f 278/1/5 275/1/5 274/1/5
f 278/2/5 274/2/5 277/2/5
f 279/1/5 277/1/5 276/1/5
f 279/1/5 278/1/5 277/1/5
f 280/1/5 278/1/5 279/1/5
f 281/1/5 279/1/5 276/1/5
f 282/2/5 280/2/5 279/2/5
f 282/1/5 279/1/5 281/1/5
f 283/1/5 278/1/5 280/1/5
f 283/2/5 280/2/5 282/2/5
f 284/1/5 275/1/5 278/1/5
f 284/1/5 278/1/5 283/1/5
f 285/1/5 275/1/5 284/1/5
f 286/1/5 283/1/5 282/1/5
f 286/1/5 284/1/5 283/1/5
f 287/1/5 284/1/5 286/1/5
f 294/2/5 289/2/5 288/2/5
f 295/1/5 290/1/5 289/1/5
f 295/2/5 289/2/5 294/2/5
f 296/2/5 294/2/5 293/2/5
f 297/1/5 295/1/5 294/1/5
f 297/2/5 294/2/5 296/2/5
f 298/1/5 290/1/5 295/1/5
f 298/1/5 295/1/5 297/1/5
f 299/2/5 292/2/5 291/2/5
f 300/2/5 292/2/5 299/2/5
f 303/1/5 302/1/5 301/1/5
f 304/1/5 302/1/5 303/1/5
f 309/2/5 306/2/5 305/2/5
f 310/2/5 306/2/5 309/2/5
f 311/2/5 308/2/5 307/2/5
f 312/2/5 308/2/5 311/2/5
f 313/1/5 310/1/5 309/1/5
f 314/1/5 310/1/5 313/1/5
f 315/1/5 312/1/5 311/1/5
f 316/1/5 312/1/5 315/1/5
f 319/1/5 318/1/5 317/1/5
f 320/1/5 318/1/5 319/1/5
f 324/1/5 322/1/5 321/1/5
f 325/2/5 323/2/5 322/2/5
f 325/1/5 322/1/5 324/1/5
f 326/2/5 323/2/5 325/2/5
f 329/1/5 328/1/5 327/1/5
f 330/1/5 328/1/5 329/1/5
f 332/2/5 330/2/5 329/2/5
f 332/2/5 331/2/5 330/2/5
f 333/2/5 331/2/5 332/2/5
f 337/1/5 335/1/5 334/1/5
f 337/1/5 336/1/5 335/1/5
f 338/1/5 336/1/5 337/1/5
f 341/2/5 340/2/5 339/2/5
f 342/2/5 340/2/5 341/2/5
f 344/1/5 342/1/5 341/1/5
f 345/2/5 343/2/5 342/2/5
f 345/1/5 342/1/5 344/1/5
f 346/2/5 343/2/5 345/2/5
f 347/2/6 348/2/6 350/2/6
f 348/1/6 349/1/6 351/1/6
f 350/2/6 348/2/6 351/2/6
f 351/1/6 349/1/6 352/1/6
f 351/1/6 352/1/6 353/1/6
f 353/1/6 352/1/6 354/1/6
f 355/2/6 356/2/6 364/2/6
f 364/2/6 356/2/6 365/2/6
f 357/1/6 358/1/6 366/1/6
f 366/1/6 358/1/6 367/1/6
f 359/3/6 360/3/6 368/3/6
f 368/3/6 360/3/6 369/3/6
f 361/2/6 362/2/6 370/2/6
f 370/2/6 362/2/6 371/2/6
f 363/2/6 364/2/6 372/2/6
f 364/1/6 365/1/6 373/1/6
f 372/2/6 364/2/6 373/2/6
f 373/1/6 365/1/6 374/1/6
f 366/1/6 367/1/6 375/1/6
f 375/1/6 367/1/6 376/1/6
f 369/1/6 370/1/6 378/1/6
f 370/2/6 371/2/6 379/2/6
f 378/1/6 370/1/6 379/1/6
f 379/2/6 371/2/6 380/2/6
f 376/1/6 377/1/6 381/1/6
f 381/1/6 377/1/6 382/1/6
f 383/2/6 384/2/6 387/2/6
f 387/2/6 384/2/6 388/2/6
f 385/3/6 386/3/6 389/3/6
f 389/3/6 386/3/6 390/3/6
f 387/1/6 388/1/6 392/1/6
f 392/1/6 388/1/6 393/1/6
f 390/4/6 391/4/6 394/4/6
f 389/4/6 390/4/6 394/4/6
f 394/4/6 391/4/6 395/4/6
f 395/4/6 391/4/6 396/4/6
f 395/2/6 396/2/6 398/2/6
f 398/2/6 396/2/6 399/2/6
f 397/1/6 398/1/6 400/1/6
f 400/1/6 398/1/6 401/1/6
f 402/2/6 403/2/6 404/2/6
f 404/2/6 403/2/6 405/2/6
f 404/1/6 405/1/6 406/1/6
f 406/1/6 405/1/6 407/1/6
f 408/2/6 409/2/6 411/2/6
f 410/1/6 411/1/6 412/1/6
f 411/2/6 409/2/6 413/2/6
f 412/1/6 411/1/6 413/1/6
f 413/2/6 409/2/6 414/2/6
f 415/1/6 416/1/6 417/1/6
f 417/1/6 416/1/6 418/1/6
f 417/2/6 418/2/6 420/2/6
f 418/2/6 419/2/6 420/2/6
f 420/2/6 419/2/6 421/2/6
f 422/1/6 423/1/6 425/1/6
f 423/1/6 424/1/6 425/1/6
f 425/1/6 424/1/6 426/1/6
f 427/2/6 428/2/6 429/2/6
f 429/2/6 428/2/6 430/2/6
f 429/1/6 430/1/6 432/1/6
f 430/2/6 431/2/6 433/2/6
f 432/1/6 430/1/6 433/1/6
f 433/2/6 431/2/6 434/2/6
