# MagicaVoxel @ Ephtracy

# group
o 

# material
mtllib shiitake_3.mtl
usemtl palette

# normals
vn -1 0 0
vn 1 0 0
vn 0 0 1
vn 0 0 -1
vn 0 -1 0
vn 0 1 0

# texcoords
vt 0.845703 0.5
vt 0.849609 0.5

# verts
v -0.4 0.5 0.4
v -0.4 0.5 0
v -0.4 0.6 0.4
v -0.4 0.6 0
v -0.3 0 0.2
v -0.3 0 0
v -0.3 0.1 0.2
v -0.3 0.1 0.1
v -0.3 0.1 0
v -0.3 0.1 -0.1
v -0.3 0.3 0.2
v -0.3 0.3 0.1
v -0.3 0.3 0
v -0.3 0.3 -0.1
v -0.3 0.4 0.3
v -0.3 0.4 0.2
v -0.3 0.4 0.1
v -0.3 0.4 0
v -0.3 0.5 0.3
v -0.3 0.5 0.2
v -0.3 0.5 0.1
v -0.3 0.6 0.3
v -0.3 0.6 0.1
v -0.3 0.7 0.3
v -0.3 0.7 0.1
v 0 0.3 0.5
v 0 0.3 0.2
v 0 0.4 0.5
v 0 0.4 0.2
v 0 0.5 -0.1
v 0 0.5 -0.5
v 0 0.6 -0.1
v 0 0.6 -0.5
v 0.1 0 0.5
v 0.1 0 0.3
v 0.1 0 -0.1
v 0.1 0 -0.3
v 0.1 0.1 0.5
v 0.1 0.1 0.3
v 0.1 0.1 0
v 0.1 0.1 -0.1
v 0.1 0.1 -0.2
v 0.1 0.1 -0.3
v 0.1 0.2 0.5
v 0.1 0.2 0.4
v 0.1 0.2 0.3
v 0.1 0.2 0.2
v 0.1 0.3 0.4
v 0.1 0.3 0.2
v 0.1 0.3 0
v 0.1 0.3 -0.1
v 0.1 0.3 -0.2
v 0.1 0.3 -0.3
v 0.1 0.4 0.4
v 0.1 0.4 0.2
v 0.1 0.4 -0.1
v 0.1 0.4 -0.2
v 0.1 0.4 -0.3
v 0.1 0.4 -0.4
v 0.1 0.5 0.4
v 0.1 0.5 0.2
v 0.1 0.5 -0.2
v 0.1 0.5 -0.3
v 0.1 0.5 -0.4
v 0.1 0.6 -0.2
v 0.1 0.6 -0.4
v 0.1 0.7 -0.2
v 0.1 0.7 -0.4
v -0.2 0.1 0.1
v -0.2 0.1 0
v -0.2 0.2 0.1
v -0.2 0.2 0
v -0.1 0 0.2
v -0.1 0 0
v -0.1 0.1 0.2
v -0.1 0.1 0
v -0.1 0.1 -0.1
v -0.1 0.2 0.1
v -0.1 0.2 0
v -0.1 0.3 0.2
v -0.1 0.3 0.1
v -0.1 0.3 0
v -0.1 0.3 -0.1
v -0.1 0.4 0.3
v -0.1 0.4 0.2
v -0.1 0.4 0.1
v -0.1 0.4 0
v -0.1 0.5 0.3
v -0.1 0.5 0.2
v -0.1 0.5 0.1
v -0.1 0.6 0.3
v -0.1 0.6 0.1
v -0.1 0.7 0.3
v -0.1 0.7 0.1
v 0 0.5 0.4
v 0 0.5 0
v 0 0.6 0.4
v 0 0.6 0
v 0.2 0.1 -0.1
v 0.2 0.1 -0.2
v 0.2 0.2 -0.1
v 0.2 0.2 -0.2
v 0.3 0 0.5
v 0.3 0 0.3
v 0.3 0 -0.1
v 0.3 0 -0.3
v 0.3 0.1 0.5
v 0.3 0.1 0.3
v 0.3 0.1 0
v 0.3 0.1 -0.1
v 0.3 0.1 -0.3
v 0.3 0.2 0.5
v 0.3 0.2 0.4
v 0.3 0.2 0.3
v 0.3 0.2 0.2
v 0.3 0.2 -0.1
v 0.3 0.2 -0.2
v 0.3 0.3 0.4
v 0.3 0.3 0.2
v 0.3 0.3 0
v 0.3 0.3 -0.1
v 0.3 0.3 -0.2
v 0.3 0.3 -0.3
v 0.3 0.4 0.4
v 0.3 0.4 0.2
v 0.3 0.4 -0.1
v 0.3 0.4 -0.2
v 0.3 0.4 -0.3
v 0.3 0.4 -0.4
v 0.3 0.5 0.4
v 0.3 0.5 0.2
v 0.3 0.5 -0.2
v 0.3 0.5 -0.3
v 0.3 0.5 -0.4
v 0.3 0.6 -0.2
v 0.3 0.6 -0.4
v 0.3 0.7 -0.2
v 0.3 0.7 -0.4
v 0.4 0.3 0.5
v 0.4 0.3 0.2
v 0.4 0.4 0.5
v 0.4 0.4 0.2
v 0.4 0.5 -0.1
v 0.4 0.5 -0.5
v 0.4 0.6 -0.1
v 0.4 0.6 -0.5
v 0 0.3 0.5
v 0 0.4 0.5
v 0.1 0 0.5
v 0.1 0.1 0.5
v 0.1 0.2 0.5
v 0.3 0 0.5
v 0.3 0.1 0.5
v 0.3 0.2 0.5
v 0.4 0.3 0.5
v 0.4 0.4 0.5
v -0.4 0.5 0.4
v -0.4 0.6 0.4
v 0 0.5 0.4
v 0 0.6 0.4
v 0.1 0.2 0.4
v 0.1 0.3 0.4
v 0.1 0.4 0.4
v 0.1 0.5 0.4
v 0.3 0.2 0.4
v 0.3 0.3 0.4
v 0.3 0.4 0.4
v 0.3 0.5 0.4
v -0.3 0.4 0.3
v -0.3 0.5 0.3
v -0.3 0.6 0.3
v -0.3 0.7 0.3
v -0.1 0.4 0.3
v -0.1 0.5 0.3
v -0.1 0.6 0.3
v -0.1 0.7 0.3
v -0.3 0 0.2
v -0.3 0.1 0.2
v -0.3 0.3 0.2
v -0.3 0.4 0.2
v -0.1 0 0.2
v -0.1 0.1 0.2
v -0.1 0.3 0.2
v -0.1 0.4 0.2
v -0.3 0.1 0.1
v -0.3 0.3 0.1
v -0.2 0.1 0.1
v -0.2 0.2 0.1
v -0.1 0.2 0.1
v -0.1 0.3 0.1
v -0.2 0.1 0
v -0.2 0.2 0
v -0.1 0.1 0
v -0.1 0.2 0
v 0.1 0.1 0
v 0.1 0.3 0
v 0.3 0.1 0
v 0.3 0.3 0
v 0 0.5 -0.1
v 0 0.6 -0.1
v 0.1 0 -0.1
v 0.1 0.1 -0.1
v 0.1 0.3 -0.1
v 0.1 0.4 -0.1
v 0.3 0 -0.1
v 0.3 0.1 -0.1
v 0.3 0.3 -0.1
v 0.3 0.4 -0.1
v 0.4 0.5 -0.1
v 0.4 0.6 -0.1
v 0.1 0.4 -0.2
v 0.1 0.5 -0.2
v 0.1 0.6 -0.2
v 0.1 0.7 -0.2
v 0.3 0.4 -0.2
v 0.3 0.5 -0.2
v 0.3 0.6 -0.2
v 0.3 0.7 -0.2
v 0.1 0 0.3
v 0.1 0.1 0.3
v 0.1 0.2 0.3
v 0.3 0 0.3
v 0.3 0.1 0.3
v 0.3 0.2 0.3
v 0 0.3 0.2
v 0 0.4 0.2
v 0.1 0.2 0.2
v 0.1 0.3 0.2
v 0.1 0.4 0.2
v 0.1 0.5 0.2
v 0.3 0.2 0.2
v 0.3 0.3 0.2
v 0.3 0.4 0.2
v 0.3 0.5 0.2
v 0.4 0.3 0.2
v 0.4 0.4 0.2
v -0.3 0.4 0.1
v -0.3 0.5 0.1
v -0.3 0.6 0.1
v -0.3 0.7 0.1
v -0.1 0.4 0.1
v -0.1 0.5 0.1
v -0.1 0.6 0.1
v -0.1 0.7 0.1
v -0.4 0.5 0
v -0.4 0.6 0
v -0.3 0 0
v -0.3 0.1 0
v -0.3 0.3 0
v -0.3 0.4 0
v -0.1 0 0
v -0.1 0.1 0
v -0.1 0.3 0
v -0.1 0.4 0
v 0 0.5 0
v 0 0.6 0
v -0.3 0.1 -0.1
v -0.3 0.3 -0.1
v -0.1 0.1 -0.1
v -0.1 0.3 -0.1
v 0.2 0.1 -0.1
v 0.2 0.2 -0.1
v 0.3 0.1 -0.1
v 0.3 0.2 -0.1
v 0.1 0.1 -0.2
v 0.1 0.3 -0.2
v 0.2 0.1 -0.2
v 0.2 0.2 -0.2
v 0.3 0.2 -0.2
v 0.3 0.3 -0.2
v 0.1 0 -0.3
v 0.1 0.1 -0.3
v 0.1 0.3 -0.3
v 0.1 0.4 -0.3
v 0.3 0 -0.3
v 0.3 0.1 -0.3
v 0.3 0.3 -0.3
v 0.3 0.4 -0.3
v 0.1 0.4 -0.4
v 0.1 0.5 -0.4
v 0.1 0.6 -0.4
v 0.1 0.7 -0.4
v 0.3 0.4 -0.4
v 0.3 0.5 -0.4
v 0.3 0.6 -0.4
v 0.3 0.7 -0.4
v 0 0.5 -0.5
v 0 0.6 -0.5
v 0.4 0.5 -0.5
v 0.4 0.6 -0.5
v 0.1 0 0.5
v 0.3 0 0.5
v 0.1 0 0.3
v 0.3 0 0.3
v -0.3 0 0.2
v -0.1 0 0.2
v -0.3 0 0
v -0.1 0 0
v 0.1 0 -0.1
v 0.3 0 -0.1
v 0.1 0 -0.3
v 0.3 0 -0.3
v -0.3 0.1 0
v -0.1 0.1 0
v 0.1 0.1 0
v 0.3 0.1 0
v -0.3 0.1 -0.1
v -0.1 0.1 -0.1
v 0.1 0.1 -0.1
v 0.3 0.1 -0.1
v 0.1 0.2 0.3
v 0.3 0.2 0.3
v 0.1 0.2 0.2
v 0.3 0.2 0.2
v -0.2 0.2 0.1
v -0.1 0.2 0.1
v -0.2 0.2 0
v -0.1 0.2 0
v 0.2 0.2 -0.1
v 0.3 0.2 -0.1
v 0.2 0.2 -0.2
v 0.3 0.2 -0.2
v 0 0.3 0.5
v 0.4 0.3 0.5
v 0.1 0.3 0.4
v 0.3 0.3 0.4
v -0.3 0.3 0.2
v -0.1 0.3 0.2
v 0 0.3 0.2
v 0.1 0.3 0.2
v 0.3 0.3 0.2
v 0.4 0.3 0.2
v -0.3 0.3 0.1
v -0.1 0.3 0.1
v 0.1 0.3 -0.2
v 0.3 0.3 -0.2
v 0.1 0.3 -0.3
v 0.3 0.3 -0.3
v -0.3 0.4 0.3
v -0.1 0.4 0.3
v -0.3 0.4 0.2
v -0.1 0.4 0.2
v 0.1 0.4 -0.3
v 0.3 0.4 -0.3
v 0.1 0.4 -0.4
v 0.3 0.4 -0.4
v -0.4 0.5 0.4
v 0 0.5 0.4
v -0.3 0.5 0.3
v -0.1 0.5 0.3
v -0.3 0.5 0.2
v -0.1 0.5 0.2
v -0.3 0.5 0.1
v -0.1 0.5 0.1
v -0.4 0.5 0
v 0 0.5 0
v 0 0.5 -0.1
v 0.4 0.5 -0.1
v 0.1 0.5 -0.2
v 0.3 0.5 -0.2
v 0.1 0.5 -0.3
v 0.3 0.5 -0.3
v 0.1 0.5 -0.4
v 0.3 0.5 -0.4
v 0 0.5 -0.5
v 0.4 0.5 -0.5
v -0.3 0.1 0.2
v -0.1 0.1 0.2
v -0.3 0.1 0.1
v -0.2 0.1 0.1
v -0.2 0.1 0
v -0.1 0.1 0
v 0.2 0.1 -0.1
v 0.3 0.1 -0.1
v 0.1 0.1 -0.2
v 0.2 0.1 -0.2
v 0.1 0.1 -0.3
v 0.3 0.1 -0.3
v 0.1 0.2 0.5
v 0.3 0.2 0.5
v 0.1 0.2 0.4
v 0.3 0.2 0.4
v -0.3 0.3 0
v -0.1 0.3 0
v 0.1 0.3 0
v 0.3 0.3 0
v -0.3 0.3 -0.1
v -0.1 0.3 -0.1
v 0.1 0.3 -0.1
v 0.3 0.3 -0.1
v 0 0.4 0.5
v 0.4 0.4 0.5
v 0.1 0.4 0.4
v 0.3 0.4 0.4
v 0 0.4 0.2
v 0.1 0.4 0.2
v 0.3 0.4 0.2
v 0.4 0.4 0.2
v -0.3 0.4 0.1
v -0.1 0.4 0.1
v -0.3 0.4 0
v -0.1 0.4 0
v 0.1 0.4 -0.1
v 0.3 0.4 -0.1
v 0.1 0.4 -0.2
v 0.3 0.4 -0.2
v 0.1 0.5 0.4
v 0.3 0.5 0.4
v 0.1 0.5 0.2
v 0.3 0.5 0.2
v -0.4 0.6 0.4
v 0 0.6 0.4
v -0.3 0.6 0.3
v -0.1 0.6 0.3
v -0.3 0.6 0.1
v -0.1 0.6 0.1
v -0.4 0.6 0
v 0 0.6 0
v 0 0.6 -0.1
v 0.4 0.6 -0.1
v 0.1 0.6 -0.2
v 0.3 0.6 -0.2
v 0.1 0.6 -0.4
v 0.3 0.6 -0.4
v 0 0.6 -0.5
v 0.4 0.6 -0.5
v -0.3 0.7 0.3
v -0.1 0.7 0.3
v -0.3 0.7 0.1
v -0.1 0.7 0.1
v 0.1 0.7 -0.2
v 0.3 0.7 -0.2
v 0.1 0.7 -0.4
v 0.3 0.7 -0.4

# faces
f 3/2/1 2/2/1 1/2/1
f 4/2/1 2/2/1 3/2/1
f 7/2/1 6/2/1 5/2/1
f 8/2/1 6/2/1 7/2/1
f 9/2/1 6/2/1 8/2/1
f 12/1/1 10/1/1 9/1/1
f 12/1/1 9/1/1 8/1/1
f 13/1/1 10/1/1 12/1/1
f 14/1/1 10/1/1 13/1/1
f 16/1/1 12/1/1 11/1/1
f 16/1/1 13/1/1 12/1/1
f 17/1/1 13/1/1 16/1/1
f 18/1/1 13/1/1 17/1/1
f 19/2/1 16/2/1 15/2/1
f 20/1/1 17/1/1 16/1/1
f 20/2/1 16/2/1 19/2/1
f 21/1/1 17/1/1 20/1/1
f 24/2/1 23/2/1 22/2/1
f 25/2/1 23/2/1 24/2/1
f 28/2/1 27/2/1 26/2/1
f 29/2/1 27/2/1 28/2/1
f 32/2/1 31/2/1 30/2/1
f 33/2/1 31/2/1 32/2/1
f 38/2/1 35/2/1 34/2/1
f 39/2/1 35/2/1 38/2/1
f 41/2/1 37/2/1 36/2/1
f 42/2/1 37/2/1 41/2/1
f 43/2/1 37/2/1 42/2/1
f 44/1/1 39/1/1 38/1/1
f 45/1/1 39/1/1 44/1/1
f 46/1/1 39/1/1 45/1/1
f 48/2/1 47/2/1 46/2/1
f 48/2/1 46/2/1 45/2/1
f 49/2/1 47/2/1 48/2/1
f 50/1/1 41/1/1 40/1/1
f 50/1/1 42/1/1 41/1/1
f 51/1/1 42/1/1 50/1/1
f 52/1/1 42/1/1 51/1/1
f 56/1/1 53/1/1 52/1/1
f 56/1/1 52/1/1 51/1/1
f 57/1/1 53/1/1 56/1/1
f 58/1/1 53/1/1 57/1/1
f 60/2/1 55/2/1 54/2/1
f 61/2/1 55/2/1 60/2/1
f 62/1/1 58/1/1 57/1/1
f 63/2/1 59/2/1 58/2/1
f 63/1/1 58/1/1 62/1/1
f 64/2/1 59/2/1 63/2/1
f 67/2/1 66/2/1 65/2/1
f 68/2/1 66/2/1 67/2/1
f 69/1/2 70/1/2 71/1/2
f 71/1/2 70/1/2 72/1/2
f 73/2/2 74/2/2 75/2/2
f 75/2/2 74/2/2 76/2/2
f 76/1/2 77/1/2 79/1/2
f 78/1/2 79/1/2 81/1/2
f 79/1/2 77/1/2 82/1/2
f 81/1/2 79/1/2 82/1/2
f 82/1/2 77/1/2 83/1/2
f 80/1/2 81/1/2 85/1/2
f 81/1/2 82/1/2 85/1/2
f 85/1/2 82/1/2 86/1/2
f 86/1/2 82/1/2 87/1/2
f 84/2/2 85/2/2 88/2/2
f 85/1/2 86/1/2 89/1/2
f 88/2/2 85/2/2 89/2/2
f 89/1/2 86/1/2 90/1/2
f 91/2/2 92/2/2 93/2/2
f 93/2/2 92/2/2 94/2/2
f 95/2/2 96/2/2 97/2/2
f 97/2/2 96/2/2 98/2/2
f 99/1/2 100/1/2 101/1/2
f 101/1/2 100/1/2 102/1/2
f 103/2/2 104/2/2 107/2/2
f 107/2/2 104/2/2 108/2/2
f 105/2/2 106/2/2 110/2/2
f 110/2/2 106/2/2 111/2/2
f 107/1/2 108/1/2 112/1/2
f 112/1/2 108/1/2 113/1/2
f 113/1/2 108/1/2 114/1/2
f 109/1/2 110/1/2 116/1/2
f 114/2/2 115/2/2 118/2/2
f 113/2/2 114/2/2 118/2/2
f 118/2/2 115/2/2 119/2/2
f 116/1/2 117/1/2 120/1/2
f 109/1/2 116/1/2 120/1/2
f 120/1/2 117/1/2 121/1/2
f 121/1/2 117/1/2 122/1/2
f 122/1/2 123/1/2 126/1/2
f 121/1/2 122/1/2 126/1/2
f 126/1/2 123/1/2 127/1/2
f 127/1/2 123/1/2 128/1/2
f 124/2/2 125/2/2 130/2/2
f 130/2/2 125/2/2 131/2/2
f 127/1/2 128/1/2 132/1/2
f 128/2/2 129/2/2 133/2/2
f 132/1/2 128/1/2 133/1/2
f 133/2/2 129/2/2 134/2/2
f 135/2/2 136/2/2 137/2/2
f 137/2/2 136/2/2 138/2/2
f 139/2/2 140/2/2 141/2/2
f 141/2/2 140/2/2 142/2/2
f 143/2/2 144/2/2 145/2/2
f 145/2/2 144/2/2 146/2/2
f 152/2/3 150/2/3 149/2/3
f 153/1/3 151/1/3 150/1/3
f 153/2/3 150/2/3 152/2/3
f 154/1/3 151/1/3 153/1/3
f 155/2/3 148/2/3 147/2/3
f 156/2/3 148/2/3 155/2/3
f 159/2/3 158/2/3 157/2/3
f 160/2/3 158/2/3 159/2/3
f 165/2/3 162/2/3 161/2/3
f 166/2/3 162/2/3 165/2/3
f 167/2/3 164/2/3 163/2/3
f 168/2/3 164/2/3 167/2/3
f 173/2/3 170/2/3 169/2/3
f 174/2/3 170/2/3 173/2/3
f 175/2/3 172/2/3 171/2/3
f 176/2/3 172/2/3 175/2/3
f 181/2/3 178/2/3 177/2/3
f 182/2/3 178/2/3 181/2/3
f 183/1/3 180/1/3 179/1/3
f 184/1/3 180/1/3 183/1/3
f 187/1/3 186/1/3 185/1/3
f 188/1/3 186/1/3 187/1/3
f 189/1/3 186/1/3 188/1/3
f 190/1/3 186/1/3 189/1/3
f 193/1/3 192/1/3 191/1/3
f 194/1/3 192/1/3 193/1/3
f 197/1/3 196/1/3 195/1/3
f 198/1/3 196/1/3 197/1/3
f 205/2/3 202/2/3 201/2/3
f 206/2/3 202/2/3 205/2/3
f 207/1/3 204/1/3 203/1/3
f 208/1/3 204/1/3 207/1/3
f 209/2/3 200/2/3 199/2/3
f 210/2/3 200/2/3 209/2/3
f 215/1/3 212/1/3 211/1/3
f 216/1/3 212/1/3 215/1/3
f 217/2/3 214/2/3 213/2/3
f 218/2/3 214/2/3 217/2/3
f 219/2/4 220/2/4 222/2/4
f 220/1/4 221/1/4 223/1/4
f 222/2/4 220/2/4 223/2/4
f 223/1/4 221/1/4 224/1/4
f 225/2/4 226/2/4 228/2/4
f 228/2/4 226/2/4 229/2/4
f 227/2/4 228/2/4 231/2/4
f 229/2/4 230/2/4 231/2/4
f 228/2/4 229/2/4 231/2/4
f 231/2/4 230/2/4 232/2/4
f 232/2/4 230/2/4 233/2/4
f 233/2/4 230/2/4 234/2/4
f 232/2/4 233/2/4 235/2/4
f 235/2/4 233/2/4 236/2/4
f 237/1/4 238/1/4 241/1/4
f 241/1/4 238/1/4 242/1/4
f 239/2/4 240/2/4 243/2/4
f 243/2/4 240/2/4 244/2/4
f 247/2/4 248/2/4 251/2/4
f 251/2/4 248/2/4 252/2/4
f 249/1/4 250/1/4 253/1/4
f 253/1/4 250/1/4 254/1/4
f 245/2/4 246/2/4 255/2/4
f 255/2/4 246/2/4 256/2/4
f 257/1/4 258/1/4 259/1/4
f 259/1/4 258/1/4 260/1/4
f 261/1/4 262/1/4 263/1/4
f 263/1/4 262/1/4 264/1/4
f 265/1/4 266/1/4 267/1/4
f 267/1/4 266/1/4 268/1/4
f 268/1/4 266/1/4 269/1/4
f 269/1/4 266/1/4 270/1/4
f 271/2/4 272/2/4 275/2/4
f 275/2/4 272/2/4 276/2/4
f 273/1/4 274/1/4 277/1/4
f 277/1/4 274/1/4 278/1/4
f 279/2/4 280/2/4 283/2/4
f 283/2/4 280/2/4 284/2/4
f 281/2/4 282/2/4 285/2/4
f 285/2/4 282/2/4 286/2/4
f 287/2/4 288/2/4 289/2/4
f 289/2/4 288/2/4 290/2/4
f 293/2/5 292/2/5 291/2/5
f 294/2/5 292/2/5 293/2/5
f 297/2/5 296/2/5 295/2/5
f 298/2/5 296/2/5 297/2/5
f 301/2/5 300/2/5 299/2/5
f 302/2/5 300/2/5 301/2/5
f 307/1/5 304/1/5 303/1/5
f 308/1/5 304/1/5 307/1/5
f 309/1/5 306/1/5 305/1/5
f 310/1/5 306/1/5 309/1/5
f 313/2/5 312/2/5 311/2/5
f 314/2/5 312/2/5 313/2/5
f 317/1/5 316/1/5 315/1/5
f 318/1/5 316/1/5 317/1/5
f 321/1/5 320/1/5 319/1/5
f 322/1/5 320/1/5 321/1/5
f 325/2/5 324/2/5 323/2/5
f 326/2/5 324/2/5 325/2/5
f 329/2/5 325/2/5 323/2/5
f 330/2/5 325/2/5 329/2/5
f 331/2/5 324/2/5 326/2/5
f 332/2/5 324/2/5 331/2/5
f 333/1/5 328/1/5 327/1/5
f 334/1/5 328/1/5 333/1/5
f 337/1/5 336/1/5 335/1/5
f 338/1/5 336/1/5 337/1/5
f 341/2/5 340/2/5 339/2/5
f 342/2/5 340/2/5 341/2/5
f 345/2/5 344/2/5 343/2/5
f 346/2/5 344/2/5 345/2/5
f 349/2/5 348/2/5 347/2/5
f 350/2/5 348/2/5 349/2/5
f 351/2/5 349/2/5 347/2/5
f 352/2/5 348/2/5 350/2/5
f 353/2/5 351/2/5 347/2/5
f 354/2/5 348/2/5 352/2/5
f 355/2/5 353/2/5 347/2/5
f 355/2/5 354/2/5 353/2/5
f 356/2/5 348/2/5 354/2/5
f 356/2/5 354/2/5 355/2/5
f 359/2/5 358/2/5 357/2/5
f 360/2/5 358/2/5 359/2/5
f 361/2/5 359/2/5 357/2/5
f 362/2/5 358/2/5 360/2/5
f 363/2/5 361/2/5 357/2/5
f 364/2/5 358/2/5 362/2/5
f 365/2/5 363/2/5 357/2/5
f 365/2/5 364/2/5 363/2/5
f 366/2/5 358/2/5 364/2/5
f 366/2/5 364/2/5 365/2/5
f 367/2/6 368/2/6 369/2/6
f 369/2/6 368/2/6 370/2/6
f 370/2/6 368/2/6 371/2/6
f 371/2/6 368/2/6 372/2/6
f 373/2/6 374/2/6 376/2/6
f 375/2/6 376/2/6 377/2/6
f 376/2/6 374/2/6 378/2/6
f 377/2/6 376/2/6 378/2/6
f 379/1/6 380/1/6 381/1/6
f 381/1/6 380/1/6 382/1/6
f 383/1/6 384/1/6 387/1/6
f 387/1/6 384/1/6 388/1/6
f 385/1/6 386/1/6 389/1/6
f 389/1/6 386/1/6 390/1/6
f 391/2/6 392/2/6 393/2/6
f 393/2/6 392/2/6 394/2/6
f 391/2/6 393/2/6 395/2/6
f 395/2/6 393/2/6 396/2/6
f 394/2/6 392/2/6 397/2/6
f 397/2/6 392/2/6 398/2/6
f 399/1/6 400/1/6 401/1/6
f 401/1/6 400/1/6 402/1/6
f 403/1/6 404/1/6 405/1/6
f 405/1/6 404/1/6 406/1/6
f 407/2/6 408/2/6 409/2/6
f 409/2/6 408/2/6 410/2/6
f 411/2/6 412/2/6 413/2/6
f 413/2/6 412/2/6 414/2/6
f 411/2/6 413/2/6 415/2/6
f 414/2/6 412/2/6 416/2/6
f 411/2/6 415/2/6 417/2/6
f 415/2/6 416/2/6 417/2/6
f 416/2/6 412/2/6 418/2/6
f 417/2/6 416/2/6 418/2/6
f 419/2/6 420/2/6 421/2/6
f 421/2/6 420/2/6 422/2/6
f 419/2/6 421/2/6 423/2/6
f 422/2/6 420/2/6 424/2/6
f 419/2/6 423/2/6 425/2/6
f 423/2/6 424/2/6 425/2/6
f 424/2/6 420/2/6 426/2/6
f 425/2/6 424/2/6 426/2/6
f 427/2/6 428/2/6 429/2/6
f 429/2/6 428/2/6 430/2/6
f 431/2/6 432/2/6 433/2/6
f 433/2/6 432/2/6 434/2/6
