# MagicaVoxel @ Ephtracy

# group
o 

# material
mtllib testfloor_2.mtl
usemtl palette

# normals
vn -1 0 0
vn 1 0 0
vn 0 0 1
vn 0 0 -1
vn 0 -1 0
vn 0 1 0

# texcoords
vt 0.0175781 0.5
vt 0.0292969 0.5
vt 0.0957031 0.5
vt 0.0996094 0.5
vt 0.474609 0.5
vt 0.849609 0.5
vt 0.853516 0.5

# verts
v -1 -0.9 1
v -1 -0.9 0.6
v -1 -0.9 0.2
v -1 -0.9 -0.2
v -1 -0.9 -0.6
v -1 -0.9 -1
v -1 -0.5 1
v -1 -0.5 0.6
v -1 -0.5 0.2
v -1 -0.5 -0.2
v -1 -0.5 -0.6
v -1 -0.5 -1
v -1 -0.1 1
v -1 -0.1 0.6
v -1 -0.1 0.2
v -1 -0.1 -0.2
v -1 -0.1 -0.6
v -1 -0.1 -1
v -1 0.1 1
v -1 0.1 -1
v -1 0.4 1
v -1 0.4 -1
v -1 0.8 1
v -1 0.8 0.5
v -1 0.8 0
v -1 0.8 -0.5
v -1 0.8 -1
v -1 0.9 1
v -1 0.9 0.5
v -1 0.9 0
v -1 0.9 -0.5
v -1 0.9 -1
v 0.8 -0.5 0.8
v 0.8 -0.5 0.6
v 0.8 -0.5 0.2
v 0.8 -0.5 -0.2
v 0.8 -0.5 -0.6
v 0.8 -0.5 -0.8
v 0.8 -0.1 0.8
v 0.8 -0.1 0.6
v 0.8 -0.1 0.2
v 0.8 -0.1 -0.2
v 0.8 -0.1 -0.6
v 0.8 -0.1 -0.8
v -0.8 -0.5 0.8
v -0.8 -0.5 0.6
v -0.8 -0.5 0.2
v -0.8 -0.5 -0.2
v -0.8 -0.5 -0.6
v -0.8 -0.5 -0.8
v -0.8 -0.1 0.8
v -0.8 -0.1 0.6
v -0.8 -0.1 0.2
v -0.8 -0.1 -0.2
v -0.8 -0.1 -0.6
v -0.8 -0.1 -0.8
v 1 -0.9 1
v 1 -0.9 0.6
v 1 -0.9 0.2
v 1 -0.9 -0.2
v 1 -0.9 -0.6
v 1 -0.9 -1
v 1 -0.5 1
v 1 -0.5 0.6
v 1 -0.5 0.2
v 1 -0.5 -0.2
v 1 -0.5 -0.6
v 1 -0.5 -1
v 1 -0.1 1
v 1 -0.1 0.6
v 1 -0.1 0.2
v 1 -0.1 -0.2
v 1 -0.1 -0.6
v 1 -0.1 -1
v 1 0.1 1
v 1 0.1 -1
v 1 0.4 1
v 1 0.4 -1
v 1 0.8 1
v 1 0.8 0.5
v 1 0.8 0
v 1 0.8 -0.5
v 1 0.8 -1
v 1 0.9 1
v 1 0.9 0.5
v 1 0.9 0
v 1 0.9 -0.5
v 1 0.9 -1
v -1 -0.9 1
v -1 -0.5 1
v -1 -0.1 1
v -1 0.1 1
v -1 0.4 1
v -1 0.8 1
v -1 0.9 1
v -0.6 -0.9 1
v -0.6 -0.5 1
v -0.6 -0.1 1
v -0.5 0.8 1
v -0.5 0.9 1
v -0.2 -0.9 1
v -0.2 -0.5 1
v -0.2 -0.1 1
v 0 0.8 1
v 0 0.9 1
v 0.2 -0.9 1
v 0.2 -0.5 1
v 0.2 -0.1 1
v 0.5 0.8 1
v 0.5 0.9 1
v 0.6 -0.9 1
v 0.6 -0.5 1
v 0.6 -0.1 1
v 1 -0.9 1
v 1 -0.5 1
v 1 -0.1 1
v 1 0.1 1
v 1 0.4 1
v 1 0.8 1
v 1 0.9 1
v -0.8 -0.5 -0.8
v -0.8 -0.1 -0.8
v -0.6 -0.5 -0.8
v -0.6 -0.1 -0.8
v -0.2 -0.5 -0.8
v -0.2 -0.1 -0.8
v 0.2 -0.5 -0.8
v 0.2 -0.1 -0.8
v 0.6 -0.5 -0.8
v 0.6 -0.1 -0.8
v 0.8 -0.5 -0.8
v 0.8 -0.1 -0.8
v -0.8 -0.5 0.8
v -0.8 -0.1 0.8
v -0.6 -0.5 0.8
v -0.6 -0.1 0.8
v -0.2 -0.5 0.8
v -0.2 -0.1 0.8
v 0.2 -0.5 0.8
v 0.2 -0.1 0.8
v 0.6 -0.5 0.8
v 0.6 -0.1 0.8
v 0.8 -0.5 0.8
v 0.8 -0.1 0.8
v -1 -0.9 -1
v -1 -0.5 -1
v -1 -0.1 -1
v -1 0.1 -1
v -1 0.4 -1
v -1 0.8 -1
v -1 0.9 -1
v -0.6 -0.9 -1
v -0.6 -0.5 -1
v -0.6 -0.1 -1
v -0.5 0.8 -1
v -0.5 0.9 -1
v -0.2 -0.9 -1
v -0.2 -0.5 -1
v -0.2 -0.1 -1
v 0 0.8 -1
v 0 0.9 -1
v 0.2 -0.9 -1
v 0.2 -0.5 -1
v 0.2 -0.1 -1
v 0.5 0.8 -1
v 0.5 0.9 -1
v 0.6 -0.9 -1
v 0.6 -0.5 -1
v 0.6 -0.1 -1
v 1 -0.9 -1
v 1 -0.5 -1
v 1 -0.1 -1
v 1 0.1 -1
v 1 0.4 -1
v 1 0.8 -1
v 1 0.9 -1
v -1 -0.9 1
v -0.6 -0.9 1
v -0.2 -0.9 1
v 0.2 -0.9 1
v 0.6 -0.9 1
v 1 -0.9 1
v -0.8 -0.9 0.8
v -0.6 -0.9 0.8
v -0.2 -0.9 0.8
v 0.2 -0.9 0.8
v 0.6 -0.9 0.8
v 0.8 -0.9 0.8
v -1 -0.9 0.6
v -0.8 -0.9 0.6
v 0.8 -0.9 0.6
v 1 -0.9 0.6
v -1 -0.9 0.2
v -0.8 -0.9 0.2
v 0.8 -0.9 0.2
v 1 -0.9 0.2
v -1 -0.9 -0.2
v -0.8 -0.9 -0.2
v 0.8 -0.9 -0.2
v 1 -0.9 -0.2
v -1 -0.9 -0.6
v -0.8 -0.9 -0.6
v 0.8 -0.9 -0.6
v 1 -0.9 -0.6
v -0.8 -0.9 -0.8
v -0.6 -0.9 -0.8
v -0.2 -0.9 -0.8
v 0.2 -0.9 -0.8
v 0.6 -0.9 -0.8
v 0.8 -0.9 -0.8
v -1 -0.9 -1
v -0.6 -0.9 -1
v -0.2 -0.9 -1
v 0.2 -0.9 -1
v 0.6 -0.9 -1
v 1 -0.9 -1
v -0.8 -0.1 0.8
v -0.6 -0.1 0.8
v -0.2 -0.1 0.8
v 0.2 -0.1 0.8
v 0.6 -0.1 0.8
v 0.8 -0.1 0.8
v -0.8 -0.1 0.6
v 0.8 -0.1 0.6
v -0.8 -0.1 0.2
v 0.8 -0.1 0.2
v -0.8 -0.1 -0.2
v 0.8 -0.1 -0.2
v -0.8 -0.1 -0.6
v 0.8 -0.1 -0.6
v -0.8 -0.1 -0.8
v -0.6 -0.1 -0.8
v -0.2 -0.1 -0.8
v 0.2 -0.1 -0.8
v 0.6 -0.1 -0.8
v 0.8 -0.1 -0.8
v -0.8 -0.5 0.8
v -0.6 -0.5 0.8
v -0.2 -0.5 0.8
v 0.2 -0.5 0.8
v 0.6 -0.5 0.8
v 0.8 -0.5 0.8
v -0.8 -0.5 0.6
v 0.8 -0.5 0.6
v -0.8 -0.5 0.2
v 0.8 -0.5 0.2
v -0.8 -0.5 -0.2
v 0.8 -0.5 -0.2
v -0.8 -0.5 -0.6
v 0.8 -0.5 -0.6
v -0.8 -0.5 -0.8
v -0.6 -0.5 -0.8
v -0.2 -0.5 -0.8
v 0.2 -0.5 -0.8
v 0.6 -0.5 -0.8
v 0.8 -0.5 -0.8
v -1 0.9 1
v -0.5 0.9 1
v 0 0.9 1
v 0.5 0.9 1
v 1 0.9 1
v -1 0.9 0.5
v -0.5 0.9 0.5
v 0 0.9 0.5
v 0.5 0.9 0.5
v 1 0.9 0.5
v -1 0.9 0
v -0.5 0.9 0
v 0 0.9 0
v 0.5 0.9 0
v 1 0.9 0
v -1 0.9 -0.5
v -0.5 0.9 -0.5
v 0 0.9 -0.5
v 0.5 0.9 -0.5
v 1 0.9 -0.5
v -1 0.9 -1
v -0.5 0.9 -1
v 0 0.9 -1
v 0.5 0.9 -1
v 1 0.9 -1

# faces
f 7/7/1 2/7/1 1/7/1
f 8/6/1 3/6/1 2/6/1
f 8/7/1 2/7/1 7/7/1
f 9/7/1 4/7/1 3/7/1
f 9/6/1 3/6/1 8/6/1
f 10/6/1 5/6/1 4/6/1
f 10/7/1 4/7/1 9/7/1
f 11/7/1 6/7/1 5/7/1
f 11/6/1 5/6/1 10/6/1
f 12/7/1 6/7/1 11/7/1
f 13/6/1 8/6/1 7/6/1
f 14/7/1 9/7/1 8/7/1
f 14/6/1 8/6/1 13/6/1
f 15/6/1 10/6/1 9/6/1
f 15/7/1 9/7/1 14/7/1
f 16/7/1 11/7/1 10/7/1
f 16/6/1 10/6/1 15/6/1
f 17/6/1 12/6/1 11/6/1
f 17/7/1 11/7/1 16/7/1
f 18/6/1 12/6/1 17/6/1
f 19/1/1 14/1/1 13/1/1
f 19/1/1 15/1/1 14/1/1
f 19/1/1 18/1/1 17/1/1
f 19/1/1 17/1/1 16/1/1
f 19/1/1 16/1/1 15/1/1
f 20/1/1 18/1/1 19/1/1
f 21/2/1 20/2/1 19/2/1
f 22/2/1 20/2/1 21/2/1
f 23/1/1 22/1/1 21/1/1
f 24/1/1 22/1/1 23/1/1
f 25/1/1 22/1/1 24/1/1
f 26/1/1 22/1/1 25/1/1
f 27/1/1 22/1/1 26/1/1
f 28/4/1 24/4/1 23/4/1
f 29/3/1 25/3/1 24/3/1
f 29/4/1 24/4/1 28/4/1
f 30/4/1 26/4/1 25/4/1
f 30/3/1 25/3/1 29/3/1
f 31/3/1 27/3/1 26/3/1
f 31/4/1 26/4/1 30/4/1
f 32/3/1 27/3/1 31/3/1
f 39/6/1 34/6/1 33/6/1
f 40/7/1 35/7/1 34/7/1
f 40/6/1 34/6/1 39/6/1
f 41/6/1 36/6/1 35/6/1
f 41/7/1 35/7/1 40/7/1
f 42/7/1 37/7/1 36/7/1
f 42/6/1 36/6/1 41/6/1
f 43/6/1 38/6/1 37/6/1
f 43/7/1 37/7/1 42/7/1
f 44/6/1 38/6/1 43/6/1
f 45/6/2 46/6/2 51/6/2
f 46/7/2 47/7/2 52/7/2
f 51/6/2 46/6/2 52/6/2
f 47/6/2 48/6/2 53/6/2
f 52/7/2 47/7/2 53/7/2
f 48/7/2 49/7/2 54/7/2
f 53/6/2 48/6/2 54/6/2
f 49/6/2 50/6/2 55/6/2
f 54/7/2 49/7/2 55/7/2
f 55/6/2 50/6/2 56/6/2
f 57/7/2 58/7/2 63/7/2
f 58/6/2 59/6/2 64/6/2
f 63/7/2 58/7/2 64/7/2
f 59/7/2 60/7/2 65/7/2
f 64/6/2 59/6/2 65/6/2
f 60/6/2 61/6/2 66/6/2
f 65/7/2 60/7/2 66/7/2
f 61/7/2 62/7/2 67/7/2
f 66/6/2 61/6/2 67/6/2
f 67/7/2 62/7/2 68/7/2
f 63/6/2 64/6/2 69/6/2
f 64/7/2 65/7/2 70/7/2
f 69/6/2 64/6/2 70/6/2
f 65/6/2 66/6/2 71/6/2
f 70/7/2 65/7/2 71/7/2
f 66/7/2 67/7/2 72/7/2
f 71/6/2 66/6/2 72/6/2
f 67/6/2 68/6/2 73/6/2
f 72/7/2 67/7/2 73/7/2
f 73/6/2 68/6/2 74/6/2
f 69/1/2 70/1/2 75/1/2
f 70/1/2 71/1/2 75/1/2
f 73/1/2 74/1/2 75/1/2
f 72/1/2 73/1/2 75/1/2
f 71/1/2 72/1/2 75/1/2
f 75/1/2 74/1/2 76/1/2
f 75/2/2 76/2/2 77/2/2
f 77/2/2 76/2/2 78/2/2
f 77/1/2 78/1/2 79/1/2
f 79/1/2 78/1/2 80/1/2
f 80/1/2 78/1/2 81/1/2
f 81/1/2 78/1/2 82/1/2
f 82/1/2 78/1/2 83/1/2
f 79/3/2 80/3/2 84/3/2
f 80/4/2 81/4/2 85/4/2
f 84/3/2 80/3/2 85/3/2
f 81/3/2 82/3/2 86/3/2
f 85/4/2 81/4/2 86/4/2
f 82/4/2 83/4/2 87/4/2
f 86/3/2 82/3/2 87/3/2
f 87/4/2 83/4/2 88/4/2
f 96/7/3 90/7/3 89/7/3
f 97/6/3 91/6/3 90/6/3
f 97/7/3 90/7/3 96/7/3
f 98/1/3 92/1/3 91/1/3
f 98/6/3 91/6/3 97/6/3
f 99/4/3 95/4/3 94/4/3
f 99/1/3 94/1/3 93/1/3
f 100/4/3 95/4/3 99/4/3
f 101/6/3 97/6/3 96/6/3
f 102/7/3 98/7/3 97/7/3
f 102/6/3 97/6/3 101/6/3
f 103/1/3 92/1/3 98/1/3
f 103/7/3 98/7/3 102/7/3
f 104/1/3 99/1/3 93/1/3
f 104/3/3 100/3/3 99/3/3
f 105/3/3 100/3/3 104/3/3
f 106/7/3 102/7/3 101/7/3
f 107/6/3 103/6/3 102/6/3
f 107/7/3 102/7/3 106/7/3
f 108/1/3 92/1/3 103/1/3
f 108/6/3 103/6/3 107/6/3
f 109/1/3 104/1/3 93/1/3
f 109/4/3 105/4/3 104/4/3
f 110/4/3 105/4/3 109/4/3
f 111/6/3 107/6/3 106/6/3
f 112/7/3 108/7/3 107/7/3
f 112/6/3 107/6/3 111/6/3
f 113/1/3 92/1/3 108/1/3
f 113/7/3 108/7/3 112/7/3
f 114/7/3 112/7/3 111/7/3
f 115/6/3 113/6/3 112/6/3
f 115/7/3 112/7/3 114/7/3
f 116/1/3 92/1/3 113/1/3
f 116/6/3 113/6/3 115/6/3
f 117/2/3 93/2/3 92/2/3
f 117/1/3 92/1/3 116/1/3
f 118/1/3 109/1/3 93/1/3
f 118/2/3 93/2/3 117/2/3
f 119/3/3 110/3/3 109/3/3
f 119/1/3 109/1/3 118/1/3
f 120/3/3 110/3/3 119/3/3
f 123/6/3 122/6/3 121/6/3
f 124/6/3 122/6/3 123/6/3
f 125/7/3 124/7/3 123/7/3
f 126/7/3 124/7/3 125/7/3
f 127/6/3 126/6/3 125/6/3
f 128/6/3 126/6/3 127/6/3
f 129/7/3 128/7/3 127/7/3
f 130/7/3 128/7/3 129/7/3
f 131/6/3 130/6/3 129/6/3
f 132/6/3 130/6/3 131/6/3
f 133/6/4 134/6/4 135/6/4
f 135/6/4 134/6/4 136/6/4
f 135/7/4 136/7/4 137/7/4
f 137/7/4 136/7/4 138/7/4
f 137/6/4 138/6/4 139/6/4
f 139/6/4 138/6/4 140/6/4
f 139/7/4 140/7/4 141/7/4
f 141/7/4 140/7/4 142/7/4
f 141/6/4 142/6/4 143/6/4
f 143/6/4 142/6/4 144/6/4
f 145/7/4 146/7/4 152/7/4
f 146/6/4 147/6/4 153/6/4
f 152/7/4 146/7/4 153/7/4
f 147/1/4 148/1/4 154/1/4
f 153/6/4 147/6/4 154/6/4
f 150/3/4 151/3/4 155/3/4
f 149/1/4 150/1/4 155/1/4
f 155/3/4 151/3/4 156/3/4
f 152/6/4 153/6/4 157/6/4
f 153/7/4 154/7/4 158/7/4
f 157/6/4 153/6/4 158/6/4
f 154/1/4 148/1/4 159/1/4
f 158/7/4 154/7/4 159/7/4
f 149/1/4 155/1/4 160/1/4
f 155/4/4 156/4/4 160/4/4
f 160/4/4 156/4/4 161/4/4
f 157/7/4 158/7/4 162/7/4
f 158/6/4 159/6/4 163/6/4
f 162/7/4 158/7/4 163/7/4
f 159/1/4 148/1/4 164/1/4
f 163/6/4 159/6/4 164/6/4
f 149/1/4 160/1/4 165/1/4
f 160/3/4 161/3/4 165/3/4
f 165/3/4 161/3/4 166/3/4
f 162/6/4 163/6/4 167/6/4
f 163/7/4 164/7/4 168/7/4
f 167/6/4 163/6/4 168/6/4
f 164/1/4 148/1/4 169/1/4
f 168/7/4 164/7/4 169/7/4
f 167/7/4 168/7/4 170/7/4
f 168/6/4 169/6/4 171/6/4
f 170/7/4 168/7/4 171/7/4
f 169/1/4 148/1/4 172/1/4
f 171/6/4 169/6/4 172/6/4
f 148/2/4 149/2/4 173/2/4
f 172/1/4 148/1/4 173/1/4
f 149/1/4 165/1/4 174/1/4
f 173/2/4 149/2/4 174/2/4
f 165/4/4 166/4/4 175/4/4
f 174/1/4 165/1/4 175/1/4
f 175/4/4 166/4/4 176/4/4
f 183/7/5 178/7/5 177/7/5
f 184/6/5 179/6/5 178/6/5
f 184/7/5 178/7/5 183/7/5
f 185/7/5 180/7/5 179/7/5
f 185/6/5 179/6/5 184/6/5
f 186/6/5 181/6/5 180/6/5
f 186/7/5 180/7/5 185/7/5
f 187/7/5 182/7/5 181/7/5
f 187/6/5 181/6/5 186/6/5
f 188/7/5 182/7/5 187/7/5
f 189/7/5 183/7/5 177/7/5
f 190/2/5 186/2/5 185/2/5
f 190/7/5 183/7/5 189/7/5
f 190/2/5 184/2/5 183/2/5
f 190/2/5 188/2/5 187/2/5
f 190/2/5 187/2/5 186/2/5
f 190/2/5 185/2/5 184/2/5
f 191/7/5 182/7/5 188/7/5
f 191/2/5 188/2/5 190/2/5
f 192/7/5 182/7/5 191/7/5
f 193/6/5 190/6/5 189/6/5
f 194/2/5 191/2/5 190/2/5
f 194/6/5 190/6/5 193/6/5
f 195/6/5 192/6/5 191/6/5
f 195/2/5 191/2/5 194/2/5
f 196/6/5 192/6/5 195/6/5
f 197/7/5 194/7/5 193/7/5
f 198/2/5 195/2/5 194/2/5
f 198/7/5 194/7/5 197/7/5
f 199/7/5 196/7/5 195/7/5
f 199/2/5 195/2/5 198/2/5
f 200/7/5 196/7/5 199/7/5
f 201/6/5 198/6/5 197/6/5
f 202/2/5 199/2/5 198/2/5
f 202/6/5 198/6/5 201/6/5
f 203/6/5 200/6/5 199/6/5
f 203/2/5 199/2/5 202/2/5
f 204/6/5 200/6/5 203/6/5
f 205/7/5 202/7/5 201/7/5
f 205/2/5 203/2/5 202/2/5
f 206/2/5 203/2/5 205/2/5
f 207/2/5 203/2/5 206/2/5
f 208/2/5 203/2/5 207/2/5
f 209/2/5 203/2/5 208/2/5
f 210/7/5 204/7/5 203/7/5
f 210/2/5 203/2/5 209/2/5
f 211/7/5 205/7/5 201/7/5
f 211/7/5 206/7/5 205/7/5
f 212/6/5 207/6/5 206/6/5
f 212/7/5 206/7/5 211/7/5
f 213/7/5 208/7/5 207/7/5
f 213/6/5 207/6/5 212/6/5
f 214/6/5 209/6/5 208/6/5
f 214/7/5 208/7/5 213/7/5
f 215/7/5 210/7/5 209/7/5
f 215/6/5 209/6/5 214/6/5
f 216/7/5 204/7/5 210/7/5
f 216/7/5 210/7/5 215/7/5
f 223/1/5 218/1/5 217/1/5
f 223/1/5 222/1/5 221/1/5
f 223/1/5 221/1/5 220/1/5
f 223/1/5 220/1/5 219/1/5
f 223/1/5 219/1/5 218/1/5
f 224/1/5 222/1/5 223/1/5
f 225/1/5 224/1/5 223/1/5
f 226/1/5 224/1/5 225/1/5
f 227/1/5 226/1/5 225/1/5
f 228/1/5 226/1/5 227/1/5
f 229/1/5 228/1/5 227/1/5
f 230/1/5 228/1/5 229/1/5
f 231/1/5 230/1/5 229/1/5
f 232/1/5 230/1/5 231/1/5
f 233/1/5 230/1/5 232/1/5
f 234/1/5 230/1/5 233/1/5
f 235/1/5 230/1/5 234/1/5
f 236/1/5 230/1/5 235/1/5
f 237/5/6 238/5/6 243/5/6
f 241/5/6 242/5/6 243/5/6
f 240/5/6 241/5/6 243/5/6
f 239/5/6 240/5/6 243/5/6
f 238/5/6 239/5/6 243/5/6
f 243/5/6 242/5/6 244/5/6
f 243/5/6 244/5/6 245/5/6
f 245/5/6 244/5/6 246/5/6
f 245/5/6 246/5/6 247/5/6
f 247/5/6 246/5/6 248/5/6
f 247/5/6 248/5/6 249/5/6
f 249/5/6 248/5/6 250/5/6
f 249/5/6 250/5/6 251/5/6
f 251/5/6 250/5/6 252/5/6
f 252/5/6 250/5/6 253/5/6
f 253/5/6 250/5/6 254/5/6
f 254/5/6 250/5/6 255/5/6
f 255/5/6 250/5/6 256/5/6
f 257/4/6 258/4/6 262/4/6
f 258/3/6 259/3/6 263/3/6
f 262/4/6 258/4/6 263/4/6
f 259/4/6 260/4/6 264/4/6
f 263/3/6 259/3/6 264/3/6
f 260/3/6 261/3/6 265/3/6
f 264/4/6 260/4/6 265/4/6
f 265/3/6 261/3/6 266/3/6
f 262/3/6 263/3/6 267/3/6
f 263/4/6 264/4/6 268/4/6
f 267/3/6 263/3/6 268/3/6
f 264/3/6 265/3/6 269/3/6
f 268/4/6 264/4/6 269/4/6
f 265/4/6 266/4/6 270/4/6
f 269/3/6 265/3/6 270/3/6
f 270/4/6 266/4/6 271/4/6
f 267/4/6 268/4/6 272/4/6
f 268/3/6 269/3/6 273/3/6
f 272/4/6 268/4/6 273/4/6
f 269/4/6 270/4/6 274/4/6
f 273/3/6 269/3/6 274/3/6
f 270/3/6 271/3/6 275/3/6
f 274/4/6 270/4/6 275/4/6
f 275/3/6 271/3/6 276/3/6
f 272/3/6 273/3/6 277/3/6
f 273/4/6 274/4/6 278/4/6
f 277/3/6 273/3/6 278/3/6
f 274/3/6 275/3/6 279/3/6
f 278/4/6 274/4/6 279/4/6
f 275/4/6 276/4/6 280/4/6
f 279/3/6 275/3/6 280/3/6
f 280/4/6 276/4/6 281/4/6
