# MagicaVoxel @ Ephtracy

# group
o carrot_1

# material
mtllib potatos_2-0-carrot_1.mtl
usemtl palette

# normals
vn -1 0 0
vn 1 0 0
vn 0 0 1
vn 0 0 -1
vn 0 -1 0
vn 0 1 0

# texcoords
vt 0.947266 0.5
vt 0.978516 0.5

# verts
v -0.4 0.5 -5.96046e-08
v -0.4 0.5 -0.8
v -0.4 0.7 -5.96046e-08
v -0.4 0.7 -0.8
v -0.2 0.5 0.2
v -0.2 0.5 -5.96046e-08
v -0.2 0.7 0.2
v -0.2 0.7 -5.96046e-08
v 0 0.1 0.2
v 0 0.1 -0.2
v 0 0.3 -5.96046e-08
v 0 0.3 -0.2
v 0 0.5 0.2
v 0 0.5 -5.96046e-08
v 0 0.5 -0.2
v 0 0.7 0.2
v 0 0.7 -0.2
v 0 0.9 0.4
v 0 0.9 0.2
v 0 0.9 -0.2
v 0 1.1 0.4
v 0 1.1 0.2
v 0.2 0.9 0.6
v 0.2 0.9 0.4
v 0.2 1.1 0.6
v 0.2 1.1 0.4
v 0.4 0.9 0.8
v 0.4 0.9 0.6
v 0.4 0.9 0.2
v 0.4 0.9 -5.96046e-08
v 0.4 0.9 -0.2
v 0.4 1.1 0.8
v 0.4 1.1 0.6
v 0.4 1.1 0.2
v 0.4 1.1 -0.2
v 0 0.5 -0.6
v 0 0.5 -0.8
v 0 0.7 -0.6
v 0 0.7 -0.8
v 0.2 0.5 -0.4
v 0.2 0.5 -0.6
v 0.2 0.7 -0.4
v 0.2 0.7 -0.6
v 0.4 0.1 0.2
v 0.4 0.1 -0.2
v 0.4 0.3 -5.96046e-08
v 0.4 0.3 -0.2
v 0.4 0.5 -0.2
v 0.4 0.5 -0.4
v 0.4 0.7 -0.2
v 0.4 0.7 -0.4
v 0.4 0.9 0.2
v 0.4 0.9 -5.96046e-08
v 0.4 0.9 -0.2
v 0.6 0.9 -5.96046e-08
v 0.6 0.9 -0.2
v 0.6 1.1 -5.96046e-08
v 0.6 1.1 -0.2
v 0.8 0.9 0.8
v 0.8 0.9 -5.96046e-08
v 0.8 1.1 0.8
v 0.8 1.1 -5.96046e-08
v 0.4 0.9 0.8
v 0.4 1.1 0.8
v 0.8 0.9 0.8
v 0.8 1.1 0.8
v 0.2 0.9 0.6
v 0.2 1.1 0.6
v 0.4 0.9 0.6
v 0.4 1.1 0.6
v 0 0.9 0.4
v 0 1.1 0.4
v 0.2 0.9 0.4
v 0.2 1.1 0.4
v -0.2 0.5 0.2
v -0.2 0.7 0.2
v 0 0.1 0.2
v 0 0.5 0.2
v 0 0.7 0.2
v 0 0.9 0.2
v 0.4 0.1 0.2
v 0.4 0.9 0.2
v -0.4 0.5 -5.96046e-08
v -0.4 0.7 -5.96046e-08
v -0.2 0.5 -5.96046e-08
v -0.2 0.7 -5.96046e-08
v 0 0.9 0.2
v 0 1.1 0.2
v 0.4 0.9 0.2
v 0.4 1.1 0.2
v 0.6 0.9 -5.96046e-08
v 0.6 1.1 -5.96046e-08
v 0.8 0.9 -5.96046e-08
v 0.8 1.1 -5.96046e-08
v 0 0.1 -0.2
v 0 0.3 -0.2
v 0 0.5 -0.2
v 0 0.7 -0.2
v 0 0.9 -0.2
v 0.2 0.7 -0.2
v 0.2 0.9 -0.2
v 0.4 0.1 -0.2
v 0.4 0.3 -0.2
v 0.4 0.5 -0.2
v 0.4 0.7 -0.2
v 0.4 0.9 -0.2
v 0.4 1.1 -0.2
v 0.6 0.9 -0.2
v 0.6 1.1 -0.2
v 0.2 0.5 -0.4
v 0.2 0.7 -0.4
v 0.4 0.5 -0.4
v 0.4 0.7 -0.4
v 0 0.5 -0.6
v 0 0.7 -0.6
v 0.2 0.5 -0.6
v 0.2 0.7 -0.6
v -0.4 0.5 -0.8
v -0.4 0.7 -0.8
v 0 0.5 -0.8
v 0 0.7 -0.8
v 0 0.1 0.2
v 0.4 0.1 0.2
v 0 0.1 -0.2
v 0.4 0.1 -0.2
v -0.2 0.5 0.2
v 0 0.5 0.2
v -0.4 0.5 -5.96046e-08
v -0.2 0.5 -5.96046e-08
v 0 0.5 -5.96046e-08
v -0.2 0.5 -0.2
v 0 0.5 -0.2
v 0.4 0.5 -0.2
v 0.2 0.5 -0.4
v 0.4 0.5 -0.4
v -0.2 0.5 -0.6
v 0 0.5 -0.6
v 0.2 0.5 -0.6
v -0.4 0.5 -0.8
v 0 0.5 -0.8
v 0.4 0.9 0.8
v 0.8 0.9 0.8
v 0.2 0.9 0.6
v 0.4 0.9 0.6
v 0.6 0.9 0.6
v 0 0.9 0.4
v 0.2 0.9 0.4
v 0 0.9 0.2
v 0.4 0.9 0.2
v 0.6 0.9 0.2
v 0.4 0.9 -5.96046e-08
v 0.6 0.9 -5.96046e-08
v 0.8 0.9 -5.96046e-08
v 0.4 0.9 -0.2
v 0.6 0.9 -0.2
v -0.2 0.7 0.2
v 0 0.7 0.2
v -0.4 0.7 -5.96046e-08
v -0.2 0.7 -5.96046e-08
v -0.2 0.7 -0.2
v 0 0.7 -0.2
v 0.2 0.7 -0.2
v 0.4 0.7 -0.2
v 0.2 0.7 -0.4
v 0.4 0.7 -0.4
v -0.2 0.7 -0.6
v 0 0.7 -0.6
v 0.2 0.7 -0.6
v -0.4 0.7 -0.8
v 0 0.7 -0.8
v 0 0.9 0.2
v 0.4 0.9 0.2
v 0.2 0.9 -5.96046e-08
v 0.4 0.9 -5.96046e-08
v 0 0.9 -0.2
v 0.2 0.9 -0.2
v 0.4 0.9 -0.2
v 0.4 1.1 0.8
v 0.8 1.1 0.8
v 0.2 1.1 0.6
v 0.4 1.1 0.6
v 0.6 1.1 0.6
v 0 1.1 0.4
v 0.2 1.1 0.4
v 0 1.1 0.2
v 0.4 1.1 0.2
v 0.6 1.1 0.2
v 0.6 1.1 -5.96046e-08
v 0.8 1.1 -5.96046e-08
v 0.4 1.1 -0.2
v 0.6 1.1 -0.2

# faces
f 3/1/1 2/1/1 1/1/1
f 4/1/1 2/1/1 3/1/1
f 7/1/1 6/1/1 5/1/1
f 8/1/1 6/1/1 7/1/1
f 11/1/1 10/1/1 9/1/1
f 12/1/1 10/1/1 11/1/1
f 13/1/1 11/1/1 9/1/1
f 14/2/1 12/2/1 11/2/1
f 14/1/1 11/1/1 13/1/1
f 15/2/1 12/2/1 14/2/1
f 19/1/1 17/1/1 16/1/1
f 20/1/1 17/1/1 19/1/1
f 21/2/1 19/2/1 18/2/1
f 22/2/1 19/2/1 21/2/1
f 25/2/1 24/2/1 23/2/1
f 26/2/1 24/2/1 25/2/1
f 32/1/1 28/1/1 27/1/1
f 33/1/1 28/1/1 32/1/1
f 34/1/1 31/1/1 30/1/1
f 34/1/1 30/1/1 29/1/1
f 35/1/1 31/1/1 34/1/1
f 36/1/2 37/1/2 38/1/2
f 38/1/2 37/1/2 39/1/2
f 40/2/2 41/2/2 42/2/2
f 42/2/2 41/2/2 43/2/2
f 44/1/2 45/1/2 46/1/2
f 46/1/2 45/1/2 47/1/2
f 46/2/2 47/2/2 48/2/2
f 46/2/2 48/2/2 50/2/2
f 48/2/2 49/2/2 50/2/2
f 50/2/2 49/2/2 51/2/2
f 44/1/2 46/1/2 52/1/2
f 46/2/2 50/2/2 53/2/2
f 52/1/2 46/1/2 53/1/2
f 53/2/2 50/2/2 54/2/2
f 55/1/2 56/1/2 57/1/2
f 57/1/2 56/1/2 58/1/2
f 59/1/2 60/1/2 61/1/2
f 61/1/2 60/1/2 62/1/2
f 65/1/3 64/1/3 63/1/3
f 66/1/3 64/1/3 65/1/3
f 69/2/3 68/2/3 67/2/3
f 70/2/3 68/2/3 69/2/3
f 73/2/3 72/2/3 71/2/3
f 74/2/3 72/2/3 73/2/3
f 78/1/3 76/1/3 75/1/3
f 79/1/3 76/1/3 78/1/3
f 81/1/3 78/1/3 77/1/3
f 81/1/3 80/1/3 79/1/3
f 81/1/3 79/1/3 78/1/3
f 82/1/3 80/1/3 81/1/3
f 85/1/3 84/1/3 83/1/3
f 86/1/3 84/1/3 85/1/3
f 87/2/4 88/2/4 89/2/4
f 89/2/4 88/2/4 90/2/4
f 91/1/4 92/1/4 93/1/4
f 93/1/4 92/1/4 94/1/4
f 98/1/4 99/1/4 100/1/4
f 100/1/4 99/1/4 101/1/4
f 95/1/4 96/1/4 102/1/4
f 96/2/4 97/2/4 103/2/4
f 102/1/4 96/1/4 103/1/4
f 103/2/4 97/2/4 104/2/4
f 100/2/4 101/2/4 105/2/4
f 105/2/4 101/2/4 106/2/4
f 106/1/4 107/1/4 108/1/4
f 108/1/4 107/1/4 109/1/4
f 110/2/4 111/2/4 112/2/4
f 112/2/4 111/2/4 113/2/4
f 114/2/4 115/2/4 116/2/4
f 116/2/4 115/2/4 117/2/4
f 118/1/4 119/1/4 120/1/4
f 120/1/4 119/1/4 121/1/4
f 124/1/5 123/1/5 122/1/5
f 125/1/5 123/1/5 124/1/5
f 129/1/5 127/1/5 126/1/5
f 130/1/5 127/1/5 129/1/5
f 131/1/5 129/1/5 128/1/5
f 131/1/5 130/1/5 129/1/5
f 132/1/5 130/1/5 131/1/5
f 134/2/5 132/2/5 131/2/5
f 134/2/5 133/2/5 132/2/5
f 135/2/5 133/2/5 134/2/5
f 136/1/5 131/1/5 128/1/5
f 136/2/5 134/2/5 131/2/5
f 137/2/5 134/2/5 136/2/5
f 138/2/5 134/2/5 137/2/5
f 139/1/5 136/1/5 128/1/5
f 139/1/5 137/1/5 136/1/5
f 140/1/5 137/1/5 139/1/5
f 144/1/5 142/1/5 141/1/5
f 145/1/5 142/1/5 144/1/5
f 147/2/5 144/2/5 143/2/5
f 147/2/5 145/2/5 144/2/5
f 148/2/5 147/2/5 146/2/5
f 149/2/5 145/2/5 147/2/5
f 149/2/5 147/2/5 148/2/5
f 150/1/5 142/1/5 145/1/5
f 150/2/5 145/2/5 149/2/5
f 151/1/5 150/1/5 149/1/5
f 152/1/5 142/1/5 150/1/5
f 152/1/5 150/1/5 151/1/5
f 153/1/5 142/1/5 152/1/5
f 154/1/5 152/1/5 151/1/5
f 155/1/5 152/1/5 154/1/5
f 156/1/6 157/1/6 159/1/6
f 159/1/6 157/1/6 160/1/6
f 158/1/6 159/1/6 160/1/6
f 160/1/6 157/1/6 161/1/6
f 160/2/6 161/2/6 164/2/6
f 162/2/6 163/2/6 164/2/6
f 161/2/6 162/2/6 164/2/6
f 164/2/6 163/2/6 165/2/6
f 158/1/6 160/1/6 166/1/6
f 160/2/6 164/2/6 166/2/6
f 166/2/6 164/2/6 167/2/6
f 167/2/6 164/2/6 168/2/6
f 158/1/6 166/1/6 169/1/6
f 166/1/6 167/1/6 169/1/6
f 169/1/6 167/1/6 170/1/6
f 171/1/6 172/1/6 173/1/6
f 173/1/6 172/1/6 174/1/6
f 171/1/6 173/1/6 175/1/6
f 173/2/6 174/2/6 176/2/6
f 175/1/6 173/1/6 176/1/6
f 176/2/6 174/2/6 177/2/6
f 178/1/6 179/1/6 181/1/6
f 181/1/6 179/1/6 182/1/6
f 180/2/6 181/2/6 184/2/6
f 181/2/6 182/2/6 184/2/6
f 183/2/6 184/2/6 185/2/6
f 184/2/6 182/2/6 186/2/6
f 185/2/6 184/2/6 186/2/6
f 182/1/6 179/1/6 187/1/6
f 186/2/6 182/2/6 187/2/6
f 187/1/6 179/1/6 188/1/6
f 186/1/6 187/1/6 188/1/6
f 188/1/6 179/1/6 189/1/6
f 186/1/6 188/1/6 190/1/6
f 190/1/6 188/1/6 191/1/6
