# MagicaVoxel @ Ephtracy

# group
o carrot_1

# material
mtllib potatos_3-0-carrot_1.mtl
usemtl palette

# normals
vn -1 0 0
vn 1 0 0
vn 0 0 1
vn 0 0 -1
vn 0 -1 0
vn 0 1 0

# texcoords
vt 0.884766 0.5
vt 0.888672 0.5
vt 0.947266 0.5
vt 0.978516 0.5

# verts
v -0.6 0.3 0.6
v -0.6 0.3 0.2
v -0.6 0.5 0.6
v -0.6 0.5 0.2
v -0.4 0.3 0.2
v -0.4 0.3 -5.96046e-08
v -0.4 0.5 0.2
v -0.4 0.5 -5.96046e-08
v -0.4 0.5 -0.8
v -0.4 0.7 -5.96046e-08
v -0.4 0.7 -0.8
v -0.4 1.1 -5.96046e-08
v -0.4 1.1 -0.2
v -0.4 1.1 -0.4
v -0.4 1.1 -0.6
v -0.4 1.1 -0.8
v -0.4 1.3 -5.96046e-08
v -0.4 1.3 -0.2
v -0.4 1.3 -0.4
v -0.4 1.3 -0.6
v -0.4 1.3 -0.8
v -0.2 0.3 -5.96046e-08
v -0.2 0.3 -0.2
v -0.2 0.5 0.2
v -0.2 0.5 -5.96046e-08
v -0.2 0.5 -0.2
v -0.2 0.7 0.2
v -0.2 0.7 -5.96046e-08
v -0.2 1.1 0.2
v -0.2 1.1 -5.96046e-08
v -0.2 1.3 0.2
v -0.2 1.3 -5.96046e-08
v -5.96046e-08 0.1 0.2
v -5.96046e-08 0.1 -0.2
v -5.96046e-08 0.3 0.2
v -5.96046e-08 0.3 -0.2
v -5.96046e-08 0.7 0.2
v -5.96046e-08 0.7 -0.2
v -5.96046e-08 0.9 0.4
v -5.96046e-08 0.9 0.2
v -5.96046e-08 0.9 -0.2
v -5.96046e-08 0.9 -0.4
v -5.96046e-08 1.1 0.4
v -5.96046e-08 1.1 0.2
v -5.96046e-08 1.1 -0.2
v -5.96046e-08 1.1 -0.4
v -5.96046e-08 1.3 0.2
v -5.96046e-08 1.3 -0.2
v -5.96046e-08 1.5 0.2
v -5.96046e-08 1.5 -0.2
v 0.2 0.9 0.6
v 0.2 0.9 0.4
v 0.2 0.9 -0.4
v 0.2 0.9 -0.6
v 0.2 1.1 0.6
v 0.2 1.1 0.4
v 0.2 1.1 -0.4
v 0.2 1.1 -0.6
v 0.4 0.9 0.8
v 0.4 0.9 0.6
v 0.4 1.1 0.8
v 0.4 1.1 0.6
v -5.96046e-08 0.5 -0.6
v -5.96046e-08 0.5 -0.8
v -5.96046e-08 0.7 -0.6
v -5.96046e-08 0.7 -0.8
v -5.96046e-08 1.1 -0.6
v -5.96046e-08 1.1 -0.8
v -5.96046e-08 1.3 -0.6
v -5.96046e-08 1.3 -0.8
v 0.2 0.3 0.6
v 0.2 0.3 0.4
v 0.2 0.5 0.6
v 0.2 0.5 0.4
v 0.2 0.5 -0.4
v 0.2 0.5 -0.6
v 0.2 0.7 -0.4
v 0.2 0.7 -0.6
v 0.2 1.1 -0.4
v 0.2 1.1 -0.6
v 0.2 1.3 -0.4
v 0.2 1.3 -0.6
v 0.4 0.1 0.2
v 0.4 0.1 -0.2
v 0.4 0.3 0.4
v 0.4 0.3 0.2
v 0.4 0.5 0.4
v 0.4 0.5 0.2
v 0.4 0.5 -0.2
v 0.4 0.5 -0.4
v 0.4 0.7 -0.2
v 0.4 0.7 -0.4
v 0.4 0.9 0.2
v 0.4 0.9 -5.96046e-08
v 0.4 0.9 -0.2
v 0.4 1.1 0.2
v 0.4 1.1 -5.96046e-08
v 0.4 1.1 -0.2
v 0.4 1.1 -0.4
v 0.4 1.3 -0.2
v 0.4 1.3 -0.4
v 0.4 1.5 0.2
v 0.4 1.5 -0.2
v 0.6 0.9 0.2
v 0.6 0.9 -5.96046e-08
v 0.6 1.1 0.2
v 0.6 1.1 -5.96046e-08
v 0.8 0.9 0.8
v 0.8 0.9 0.6
v 0.8 0.9 0.2
v 0.8 0.9 -5.96046e-08
v 0.8 0.9 -0.2
v 0.8 1.1 0.8
v 0.8 1.1 0.6
v 0.8 1.1 0.2
v 0.8 1.1 -5.96046e-08
v 0.8 1.1 -0.2
v 1 0.9 -0.2
v 1 0.9 -0.6
v 1 1.1 -0.2
v 1 1.1 -0.6
v 0.4 0.9 0.8
v 0.4 1.1 0.8
v 0.6 0.9 0.8
v 0.6 1.1 0.8
v 0.8 0.9 0.8
v 0.8 1.1 0.8
v -0.6 0.3 0.6
v -0.6 0.5 0.6
v 0.2 0.3 0.6
v 0.2 0.5 0.6
v 0.2 0.9 0.6
v 0.2 1.1 0.6
v 0.4 0.9 0.6
v 0.4 1.1 0.6
v -5.96046e-08 0.9 0.4
v -5.96046e-08 1.1 0.4
v 0.2 0.3 0.4
v 0.2 0.5 0.4
v 0.2 0.9 0.4
v 0.2 1.1 0.4
v 0.4 0.3 0.4
v 0.4 0.5 0.4
v -0.2 0.5 0.2
v -0.2 0.7 0.2
v -0.2 1.1 0.2
v -0.2 1.3 0.2
v -5.96046e-08 0.1 0.2
v -5.96046e-08 0.3 0.2
v -5.96046e-08 0.5 0.2
v -5.96046e-08 0.7 0.2
v -5.96046e-08 0.9 0.2
v -5.96046e-08 1.1 0.2
v -5.96046e-08 1.3 0.2
v -5.96046e-08 1.5 0.2
v 0.2 0.9 0.2
v 0.2 1.1 0.2
v 0.4 0.1 0.2
v 0.4 0.3 0.2
v 0.4 0.5 0.2
v 0.4 0.9 0.2
v 0.4 1.1 0.2
v 0.4 1.5 0.2
v -0.4 0.5 -5.96046e-08
v -0.4 0.7 -5.96046e-08
v -0.4 1.1 -5.96046e-08
v -0.4 1.3 -5.96046e-08
v -0.2 0.5 -5.96046e-08
v -0.2 0.7 -5.96046e-08
v -0.2 1.1 -5.96046e-08
v -0.2 1.3 -5.96046e-08
v 0.6 0.9 -5.96046e-08
v 0.6 1.1 -5.96046e-08
v 0.8 0.9 -5.96046e-08
v 0.8 1.1 -5.96046e-08
v 0.8 0.9 -0.2
v 0.8 1.1 -0.2
v 1 0.9 -0.2
v 1 1.1 -0.2
v -0.6 0.3 0.2
v -0.6 0.5 0.2
v -0.4 0.3 0.2
v -0.4 0.5 0.2
v 0.6 0.9 0.2
v 0.6 1.1 0.2
v 0.8 0.9 0.2
v 0.8 1.1 0.2
v -0.4 0.3 -5.96046e-08
v -0.4 0.5 -5.96046e-08
v -0.2 0.3 -5.96046e-08
v -0.2 0.5 -5.96046e-08
v -0.2 0.3 -0.2
v -0.2 0.5 -0.2
v -5.96046e-08 0.1 -0.2
v -5.96046e-08 0.3 -0.2
v -5.96046e-08 0.5 -0.2
v -5.96046e-08 0.7 -0.2
v -5.96046e-08 0.9 -0.2
v -5.96046e-08 1.3 -0.2
v -5.96046e-08 1.5 -0.2
v 0.2 1.3 -0.2
v 0.4 0.1 -0.2
v 0.4 0.5 -0.2
v 0.4 0.7 -0.2
v 0.4 0.9 -0.2
v 0.4 1.3 -0.2
v 0.4 1.5 -0.2
v -5.96046e-08 0.9 -0.4
v -5.96046e-08 1.1 -0.4
v 0.2 0.5 -0.4
v 0.2 0.7 -0.4
v 0.2 0.9 -0.4
v 0.2 1.1 -0.4
v 0.2 1.3 -0.4
v 0.4 0.5 -0.4
v 0.4 0.7 -0.4
v 0.4 1.1 -0.4
v 0.4 1.3 -0.4
v -5.96046e-08 0.5 -0.6
v -5.96046e-08 0.7 -0.6
v -5.96046e-08 1.1 -0.6
v -5.96046e-08 1.3 -0.6
v 0.2 0.5 -0.6
v 0.2 0.7 -0.6
v 0.2 0.9 -0.6
v 0.2 1.1 -0.6
v 0.2 1.3 -0.6
v 1 0.9 -0.6
v 1 1.1 -0.6
v -0.4 0.5 -0.8
v -0.4 0.7 -0.8
v -0.4 1.1 -0.8
v -0.4 1.3 -0.8
v -0.2 1.1 -0.8
v -0.2 1.3 -0.8
v -5.96046e-08 0.5 -0.8
v -5.96046e-08 0.7 -0.8
v -5.96046e-08 1.1 -0.8
v -5.96046e-08 1.3 -0.8
v -5.96046e-08 0.1 0.2
v 0.4 0.1 0.2
v -5.96046e-08 0.1 -0.2
v 0.4 0.1 -0.2
v -0.6 0.3 0.6
v 0.2 0.3 0.6
v -0.4 0.3 0.4
v -5.96046e-08 0.3 0.4
v 0.2 0.3 0.4
v 0.4 0.3 0.4
v -0.6 0.3 0.2
v -0.4 0.3 0.2
v -5.96046e-08 0.3 0.2
v 0.4 0.3 0.2
v -0.4 0.3 -5.96046e-08
v -0.2 0.3 -5.96046e-08
v -0.2 0.3 -0.2
v -5.96046e-08 0.3 -0.2
v -0.4 0.5 -5.96046e-08
v -0.2 0.5 -5.96046e-08
v -0.2 0.5 -0.2
v -5.96046e-08 0.5 -0.2
v 0.4 0.5 -0.2
v 0.2 0.5 -0.4
v 0.4 0.5 -0.4
v -0.2 0.5 -0.6
v -5.96046e-08 0.5 -0.6
v 0.2 0.5 -0.6
v -0.4 0.5 -0.8
v -5.96046e-08 0.5 -0.8
v 0.4 0.9 0.8
v 0.6 0.9 0.8
v 0.8 0.9 0.8
v 0.2 0.9 0.6
v 0.4 0.9 0.6
v 0.6 0.9 0.6
v 0.8 0.9 0.6
v -5.96046e-08 0.9 0.4
v 0.2 0.9 0.4
v 0.4 0.9 0.4
v 0.6 0.9 0.4
v -5.96046e-08 0.9 0.2
v 0.2 0.9 0.2
v 0.4 0.9 0.2
v 0.6 0.9 0.2
v 0.8 0.9 0.2
v 0.4 0.9 -5.96046e-08
v 0.6 0.9 -5.96046e-08
v 0.8 0.9 -5.96046e-08
v -5.96046e-08 0.9 -0.2
v 0.4 0.9 -0.2
v 0.6 0.9 -0.2
v 0.8 0.9 -0.2
v 1 0.9 -0.2
v -5.96046e-08 0.9 -0.4
v 0.2 0.9 -0.4
v 0.4 0.9 -0.4
v 0.6 0.9 -0.4
v 0.8 0.9 -0.4
v 0.2 0.9 -0.6
v 1 0.9 -0.6
v -0.2 1.1 0.2
v -5.96046e-08 1.1 0.2
v -0.4 1.1 -5.96046e-08
v -0.2 1.1 -5.96046e-08
v -0.4 1.1 -0.2
v -0.2 1.1 -0.2
v -5.96046e-08 1.1 -0.2
v -0.4 1.1 -0.4
v -0.2 1.1 -0.4
v -5.96046e-08 1.1 -0.4
v 0.2 1.1 -0.4
v -0.4 1.1 -0.6
v -0.2 1.1 -0.6
v -5.96046e-08 1.1 -0.6
v 0.2 1.1 -0.6
v -0.4 1.1 -0.8
v -0.2 1.1 -0.8
v -5.96046e-08 1.1 -0.8
v -0.6 0.5 0.6
v 0.2 0.5 0.6
v -0.4 0.5 0.4
v -5.96046e-08 0.5 0.4
v 0.2 0.5 0.4
v 0.4 0.5 0.4
v -0.6 0.5 0.2
v -0.4 0.5 0.2
v -0.2 0.5 0.2
v -5.96046e-08 0.5 0.2
v 0.4 0.5 0.2
v -0.4 0.5 -5.96046e-08
v -0.2 0.5 -5.96046e-08
v -0.2 0.7 0.2
v -5.96046e-08 0.7 0.2
v -0.4 0.7 -5.96046e-08
v -0.2 0.7 -5.96046e-08
v -0.2 0.7 -0.2
v -5.96046e-08 0.7 -0.2
v 0.4 0.7 -0.2
v 0.2 0.7 -0.4
v 0.4 0.7 -0.4
v -0.2 0.7 -0.6
v -5.96046e-08 0.7 -0.6
v 0.2 0.7 -0.6
v -0.4 0.7 -0.8
v -5.96046e-08 0.7 -0.8
v 0.4 1.1 0.8
v 0.6 1.1 0.8
v 0.8 1.1 0.8
v 0.2 1.1 0.6
v 0.4 1.1 0.6
v 0.6 1.1 0.6
v 0.8 1.1 0.6
v -5.96046e-08 1.1 0.4
v 0.2 1.1 0.4
v 0.4 1.1 0.4
v 0.6 1.1 0.4
v -5.96046e-08 1.1 0.2
v 0.2 1.1 0.2
v 0.4 1.1 0.2
v 0.6 1.1 0.2
v 0.8 1.1 0.2
v 0.4 1.1 -5.96046e-08
v 0.6 1.1 -5.96046e-08
v 0.8 1.1 -5.96046e-08
v 0.4 1.1 -0.2
v 0.6 1.1 -0.2
v 0.8 1.1 -0.2
v 1 1.1 -0.2
v 0.2 1.1 -0.4
v 0.4 1.1 -0.4
v 0.6 1.1 -0.4
v 0.8 1.1 -0.4
v 0.2 1.1 -0.6
v 1 1.1 -0.6
v -0.2 1.3 0.2
v -5.96046e-08 1.3 0.2
v -0.4 1.3 -5.96046e-08
v -0.2 1.3 -5.96046e-08
v -0.4 1.3 -0.2
v -0.2 1.3 -0.2
v -5.96046e-08 1.3 -0.2
v 0.2 1.3 -0.2
v 0.4 1.3 -0.2
v -0.4 1.3 -0.4
v -0.2 1.3 -0.4
v -5.96046e-08 1.3 -0.4
v 0.2 1.3 -0.4
v 0.4 1.3 -0.4
v -0.4 1.3 -0.6
v -0.2 1.3 -0.6
v -5.96046e-08 1.3 -0.6
v 0.2 1.3 -0.6
v -0.4 1.3 -0.8
v -0.2 1.3 -0.8
v -5.96046e-08 1.3 -0.8
v -5.96046e-08 1.5 0.2
v 0.4 1.5 0.2
v -5.96046e-08 1.5 -0.2
v 0.4 1.5 -0.2

# faces
f 3/3/1 2/3/1 1/3/1
f 4/3/1 2/3/1 3/3/1
f 7/4/1 6/4/1 5/4/1
f 8/4/1 6/4/1 7/4/1
f 10/3/1 9/3/1 8/3/1
f 11/3/1 9/3/1 10/3/1
f 17/3/1 13/3/1 12/3/1
f 18/2/1 14/2/1 13/2/1
f 18/3/1 13/3/1 17/3/1
f 19/3/1 15/3/1 14/3/1
f 19/2/1 14/2/1 18/2/1
f 20/2/1 16/2/1 15/2/1
f 20/3/1 15/3/1 19/3/1
f 21/2/1 16/2/1 20/2/1
f 25/4/1 23/4/1 22/4/1
f 26/4/1 23/4/1 25/4/1
f 27/3/1 25/3/1 24/3/1
f 28/3/1 25/3/1 27/3/1
f 31/3/1 30/3/1 29/3/1
f 32/3/1 30/3/1 31/3/1
f 35/1/1 34/1/1 33/1/1
f 36/1/1 34/1/1 35/1/1
f 40/1/1 38/1/1 37/1/1
f 41/1/1 38/1/1 40/1/1
f 43/2/1 40/2/1 39/2/1
f 44/4/1 41/4/1 40/4/1
f 44/2/1 40/2/1 43/2/1
f 45/3/1 42/3/1 41/3/1
f 45/4/1 41/4/1 44/4/1
f 46/3/1 42/3/1 45/3/1
f 49/1/1 48/1/1 47/1/1
f 50/1/1 48/1/1 49/1/1
f 55/4/1 52/4/1 51/4/1
f 56/4/1 52/4/1 55/4/1
f 57/3/1 54/3/1 53/3/1
f 58/3/1 54/3/1 57/3/1
f 61/3/1 60/3/1 59/3/1
f 62/3/1 60/3/1 61/3/1
f 63/3/2 64/3/2 65/3/2
f 65/3/2 64/3/2 66/3/2
f 67/3/2 68/3/2 69/3/2
f 69/3/2 68/3/2 70/3/2
f 71/3/2 72/3/2 73/3/2
f 73/3/2 72/3/2 74/3/2
f 75/4/2 76/4/2 77/4/2
f 77/4/2 76/4/2 78/4/2
f 79/4/2 80/4/2 81/4/2
f 81/4/2 80/4/2 82/4/2
f 83/1/2 84/1/2 86/1/2
f 85/3/2 86/3/2 87/3/2
f 86/1/2 84/1/2 88/1/2
f 87/3/2 86/3/2 88/3/2
f 88/1/2 84/1/2 89/1/2
f 89/4/2 90/4/2 91/4/2
f 88/1/2 89/1/2 91/1/2
f 91/4/2 90/4/2 92/4/2
f 88/1/2 91/1/2 93/1/2
f 93/1/2 91/1/2 94/1/2
f 94/1/2 91/1/2 95/1/2
f 97/1/2 98/1/2 100/1/2
f 98/4/2 99/4/2 100/4/2
f 96/1/2 97/1/2 100/1/2
f 100/4/2 99/4/2 101/4/2
f 96/1/2 100/1/2 102/1/2
f 102/1/2 100/1/2 103/1/2
f 104/1/2 105/1/2 106/1/2
f 106/1/2 105/1/2 107/1/2
f 108/2/2 109/2/2 113/2/2
f 109/3/2 110/3/2 114/3/2
f 113/2/2 109/2/2 114/2/2
f 114/3/2 110/3/2 115/3/2
f 111/4/2 112/4/2 116/4/2
f 116/4/2 112/4/2 117/4/2
f 118/3/2 119/3/2 120/3/2
f 120/3/2 119/3/2 121/3/2
f 124/3/3 123/3/3 122/3/3
f 125/3/3 123/3/3 124/3/3
f 126/2/3 125/2/3 124/2/3
f 127/2/3 125/2/3 126/2/3
f 130/3/3 129/3/3 128/3/3
f 131/3/3 129/3/3 130/3/3
f 134/4/3 133/4/3 132/4/3
f 135/4/3 133/4/3 134/4/3
f 140/2/3 137/2/3 136/2/3
f 141/2/3 137/2/3 140/2/3
f 142/3/3 139/3/3 138/3/3
f 143/3/3 139/3/3 142/3/3
f 150/3/3 145/3/3 144/3/3
f 151/3/3 145/3/3 150/3/3
f 153/3/3 147/3/3 146/3/3
f 154/3/3 147/3/3 153/3/3
f 156/1/3 152/1/3 151/1/3
f 156/1/3 151/1/3 150/1/3
f 157/1/3 155/1/3 154/1/3
f 157/1/3 154/1/3 153/1/3
f 158/1/3 149/1/3 148/1/3
f 159/1/3 149/1/3 158/1/3
f 160/1/3 156/1/3 150/1/3
f 161/1/3 156/1/3 160/1/3
f 162/1/3 155/1/3 157/1/3
f 163/1/3 155/1/3 162/1/3
f 168/3/3 165/3/3 164/3/3
f 169/3/3 165/3/3 168/3/3
f 170/3/3 167/3/3 166/3/3
f 171/3/3 167/3/3 170/3/3
f 174/4/3 173/4/3 172/4/3
f 175/4/3 173/4/3 174/4/3
f 178/3/3 177/3/3 176/3/3
f 179/3/3 177/3/3 178/3/3
f 180/3/4 181/3/4 182/3/4
f 182/3/4 181/3/4 183/3/4
f 184/3/4 185/3/4 186/3/4
f 186/3/4 185/3/4 187/3/4
f 188/4/4 189/4/4 190/4/4
f 190/4/4 189/4/4 191/4/4
f 192/4/4 193/4/4 195/4/4
f 195/4/4 193/4/4 196/4/4
f 199/1/4 200/1/4 201/1/4
f 194/1/4 195/1/4 202/1/4
f 195/1/4 196/1/4 202/1/4
f 202/1/4 196/1/4 203/1/4
f 197/1/4 198/1/4 204/1/4
f 204/1/4 198/1/4 205/1/4
f 201/1/4 200/1/4 206/1/4
f 206/1/4 200/1/4 207/1/4
f 208/3/4 209/3/4 212/3/4
f 212/3/4 209/3/4 213/3/4
f 210/4/4 211/4/4 215/4/4
f 215/4/4 211/4/4 216/4/4
f 213/4/4 214/4/4 217/4/4
f 217/4/4 214/4/4 218/4/4
f 219/4/4 220/4/4 223/4/4
f 223/4/4 220/4/4 224/4/4
f 221/4/4 222/4/4 226/4/4
f 226/4/4 222/4/4 227/4/4
f 225/3/4 226/3/4 228/3/4
f 228/3/4 226/3/4 229/3/4
f 232/2/4 233/2/4 234/2/4
f 234/2/4 233/2/4 235/2/4
f 230/3/4 231/3/4 236/3/4
f 236/3/4 231/3/4 237/3/4
f 234/3/4 235/3/4 238/3/4
f 238/3/4 235/3/4 239/3/4
f 242/1/5 241/1/5 240/1/5
f 243/1/5 241/1/5 242/1/5
f 246/3/5 245/3/5 244/3/5
f 247/3/5 245/3/5 246/3/5
f 248/3/5 245/3/5 247/3/5
f 250/3/5 246/3/5 244/3/5
f 251/4/5 247/4/5 246/4/5
f 251/3/5 246/3/5 250/3/5
f 252/3/5 249/3/5 248/3/5
f 252/4/5 247/4/5 251/4/5
f 252/3/5 248/3/5 247/3/5
f 253/3/5 249/3/5 252/3/5
f 254/4/5 252/4/5 251/4/5
f 255/4/5 252/4/5 254/4/5
f 256/4/5 252/4/5 255/4/5
f 257/4/5 252/4/5 256/4/5
f 260/3/5 259/3/5 258/3/5
f 263/4/5 261/4/5 260/4/5
f 263/4/5 262/4/5 261/4/5
f 264/4/5 262/4/5 263/4/5
f 265/3/5 260/3/5 258/3/5
f 265/4/5 263/4/5 260/4/5
f 266/4/5 263/4/5 265/4/5
f 267/4/5 263/4/5 266/4/5
f 268/3/5 265/3/5 258/3/5
f 268/3/5 266/3/5 265/3/5
f 269/3/5 266/3/5 268/3/5
f 274/3/5 271/3/5 270/3/5
f 275/2/5 272/2/5 271/2/5
f 275/3/5 271/3/5 274/3/5
f 276/2/5 272/2/5 275/2/5
f 278/4/5 274/4/5 273/4/5
f 279/1/5 275/1/5 274/1/5
f 279/4/5 274/4/5 278/4/5
f 280/3/5 276/3/5 275/3/5
f 280/1/5 275/1/5 279/1/5
f 281/2/5 278/2/5 277/2/5
f 282/4/5 279/4/5 278/4/5
f 282/2/5 278/2/5 281/2/5
f 283/2/5 280/2/5 279/2/5
f 283/4/5 279/4/5 282/4/5
f 284/3/5 276/3/5 280/3/5
f 284/2/5 280/2/5 283/2/5
f 285/3/5 276/3/5 284/3/5
f 286/1/5 284/1/5 283/1/5
f 287/1/5 284/1/5 286/1/5
f 290/4/5 287/4/5 286/4/5
f 290/4/5 288/4/5 287/4/5
f 291/4/5 288/4/5 290/4/5
f 292/4/5 288/4/5 291/4/5
f 294/3/5 290/3/5 289/3/5
f 295/3/5 290/3/5 294/3/5
f 296/2/5 291/2/5 290/2/5
f 296/3/5 290/3/5 295/3/5
f 297/1/5 292/1/5 291/1/5
f 297/2/5 291/2/5 296/2/5
f 298/3/5 293/3/5 292/3/5
f 298/1/5 292/1/5 297/1/5
f 299/3/5 296/3/5 295/3/5
f 299/3/5 298/3/5 297/3/5
f 299/3/5 297/3/5 296/3/5
f 300/3/5 293/3/5 298/3/5
f 300/3/5 298/3/5 299/3/5
f 304/3/5 302/3/5 301/3/5
f 305/3/5 304/3/5 303/3/5
f 306/3/5 302/3/5 304/3/5
f 306/3/5 304/3/5 305/3/5
f 307/3/5 302/3/5 306/3/5
f 308/2/5 306/2/5 305/2/5
f 309/4/5 307/4/5 306/4/5
f 309/2/5 306/2/5 308/2/5
f 310/4/5 307/4/5 309/4/5
f 312/3/5 309/3/5 308/3/5
f 313/1/5 310/1/5 309/1/5
f 313/3/5 309/3/5 312/3/5
f 314/4/5 311/4/5 310/4/5
f 314/1/5 310/1/5 313/1/5
f 315/4/5 311/4/5 314/4/5
f 316/2/5 313/2/5 312/2/5
f 317/3/5 314/3/5 313/3/5
f 317/2/5 313/2/5 316/2/5
f 318/3/5 314/3/5 317/3/5
f 319/3/6 320/3/6 321/3/6
f 321/3/6 320/3/6 322/3/6
f 322/3/6 320/3/6 323/3/6
f 319/3/6 321/3/6 325/3/6
f 321/4/6 322/4/6 326/4/6
f 325/3/6 321/3/6 326/3/6
f 326/4/6 322/4/6 327/4/6
f 323/3/6 324/3/6 328/3/6
f 327/4/6 322/4/6 328/4/6
f 322/3/6 323/3/6 328/3/6
f 328/3/6 324/3/6 329/3/6
f 326/4/6 327/4/6 330/4/6
f 330/4/6 327/4/6 331/4/6
f 332/3/6 333/3/6 335/3/6
f 335/3/6 333/3/6 336/3/6
f 334/3/6 335/3/6 336/3/6
f 336/3/6 333/3/6 337/3/6
f 336/4/6 337/4/6 339/4/6
f 337/4/6 338/4/6 339/4/6
f 339/4/6 338/4/6 340/4/6
f 334/3/6 336/3/6 341/3/6
f 336/4/6 339/4/6 341/4/6
f 341/4/6 339/4/6 342/4/6
f 342/4/6 339/4/6 343/4/6
f 334/3/6 341/3/6 344/3/6
f 341/3/6 342/3/6 344/3/6
f 344/3/6 342/3/6 345/3/6
f 346/3/6 347/3/6 350/3/6
f 347/2/6 348/2/6 351/2/6
f 350/3/6 347/3/6 351/3/6
f 351/2/6 348/2/6 352/2/6
f 349/4/6 350/4/6 354/4/6
f 350/1/6 351/1/6 355/1/6
f 354/4/6 350/4/6 355/4/6
f 351/3/6 352/3/6 356/3/6
f 355/1/6 351/1/6 356/1/6
f 353/2/6 354/2/6 357/2/6
f 354/4/6 355/4/6 358/4/6
f 357/2/6 354/2/6 358/2/6
f 355/2/6 356/2/6 359/2/6
f 358/4/6 355/4/6 359/4/6
f 356/3/6 352/3/6 360/3/6
f 359/2/6 356/2/6 360/2/6
f 360/3/6 352/3/6 361/3/6
f 359/1/6 360/1/6 362/1/6
f 362/1/6 360/1/6 363/1/6
f 362/4/6 363/4/6 365/4/6
f 363/4/6 364/4/6 365/4/6
f 365/4/6 364/4/6 366/4/6
f 366/4/6 364/4/6 367/4/6
f 365/2/6 366/2/6 370/2/6
f 366/1/6 367/1/6 371/1/6
f 370/2/6 366/2/6 371/2/6
f 367/3/6 368/3/6 372/3/6
f 371/1/6 367/1/6 372/1/6
f 369/3/6 370/3/6 373/3/6
f 370/3/6 371/3/6 373/3/6
f 371/3/6 372/3/6 373/3/6
f 372/3/6 368/3/6 374/3/6
f 373/3/6 372/3/6 374/3/6
f 375/3/6 376/3/6 378/3/6
f 377/3/6 378/3/6 379/3/6
f 378/3/6 376/3/6 380/3/6
f 379/3/6 378/3/6 380/3/6
f 380/3/6 376/3/6 381/3/6
f 379/2/6 380/2/6 384/2/6
f 380/4/6 381/4/6 385/4/6
f 384/2/6 380/2/6 385/2/6
f 381/2/6 382/2/6 386/2/6
f 385/4/6 381/4/6 386/4/6
f 382/4/6 383/4/6 387/4/6
f 386/2/6 382/2/6 387/2/6
f 387/4/6 383/4/6 388/4/6
f 384/3/6 385/3/6 389/3/6
f 385/1/6 386/1/6 390/1/6
f 389/3/6 385/3/6 390/3/6
f 386/4/6 387/4/6 391/4/6
f 390/1/6 386/1/6 391/1/6
f 391/4/6 387/4/6 392/4/6
f 389/2/6 390/2/6 393/2/6
f 390/3/6 391/3/6 394/3/6
f 393/2/6 390/2/6 394/2/6
f 394/3/6 391/3/6 395/3/6
f 396/1/6 397/1/6 398/1/6
f 398/1/6 397/1/6 399/1/6
