# MagicaVoxel @ Ephtracy

# group
o 

# material
mtllib fish_1.mtl
usemtl palette

# normals
vn -1 0 0
vn 1 0 0
vn 0 0 1
vn 0 0 -1
vn 0 -1 0
vn 0 1 0

# texcoords
vt 0.970703 0.5
vt 0.974609 0.5

# verts
v -0.6 -0.3 0.1
v -0.6 -0.3 -0.2
v -0.6 -0.2 0
v -0.6 -0.2 -0.1
v -0.6 -0.1 0
v -0.6 -0.1 -0.1
v -0.6 0 0.1
v -0.6 0 -0.2
v -0.5 -0.4 0.2
v -0.5 -0.4 -0.3
v -0.5 -0.3 0.1
v -0.5 -0.3 -0.2
v -0.5 -0.2 0
v -0.5 -0.2 -0.1
v -0.5 -0.1 0
v -0.5 -0.1 -0.1
v -0.5 0 0.1
v -0.5 0 -0.2
v -0.5 0.3 0.2
v -0.5 0.3 -0.3
v -0.4 -0.1 0.3
v -0.4 -0.1 0.2
v -0.4 -0.1 -0.3
v -0.4 -0.1 -0.4
v -0.4 0 0.3
v -0.4 0 0.2
v -0.4 0 -0.3
v -0.4 0 -0.4
v -0.4 0.2 0.3
v -0.4 0.2 0.2
v -0.4 0.2 -0.3
v -0.4 0.2 -0.4
v -0.4 0.3 0.1
v -0.4 0.3 -0.2
v -0.4 0.4 0.1
v -0.4 0.4 -0.2
v -0.3 -0.5 0
v -0.3 -0.5 -0.1
v -0.3 -0.4 0
v -0.3 -0.4 -0.1
v -0.3 0.4 0
v -0.3 0.4 -0.1
v -0.3 0.5 0
v -0.3 0.5 -0.1
v -0.2 -0.7 0
v -0.2 -0.7 -0.1
v -0.2 -0.5 0
v -0.2 -0.5 -0.1
v -0.1 0.5 0
v -0.1 0.5 -0.1
v -0.1 0.7 0
v -0.1 0.7 -0.1
v 0.1 0.7 0
v 0.1 0.7 -0.1
v 0.1 0.8 0
v 0.1 0.8 -0.1
v -0.1 -0.1 0.3
v -0.1 -0.1 0.2
v -0.1 -0.1 -0.3
v -0.1 -0.1 -0.4
v -0.1 0.2 0.3
v -0.1 0.2 0.2
v -0.1 0.2 -0.3
v -0.1 0.2 -0.4
v 0.2 -0.5 0
v 0.2 -0.5 -0.1
v 0.2 -0.4 0
v 0.2 -0.4 -0.1
v 0.3 -0.6 0
v 0.3 -0.6 -0.1
v 0.3 -0.5 0
v 0.3 -0.5 -0.1
v 0.3 0.4 0
v 0.3 0.4 -0.1
v 0.3 0.6 0
v 0.3 0.6 -0.1
v 0.4 -0.4 0.2
v 0.4 -0.4 0.1
v 0.4 -0.4 -0.2
v 0.4 -0.4 -0.3
v 0.4 0.3 0.2
v 0.4 0.3 0.1
v 0.4 0.3 -0.2
v 0.4 0.3 -0.3
v 0.4 0.4 0.1
v 0.4 0.4 -0.2
v 0.4 0.6 0
v 0.4 0.6 -0.1
v 0.4 0.7 0
v 0.4 0.7 -0.1
v 0.5 -0.7 0
v 0.5 -0.7 -0.1
v 0.5 -0.6 0
v 0.5 -0.6 -0.1
v 0.5 -0.4 0.1
v 0.5 -0.4 -0.2
v 0.5 0.3 0.1
v 0.5 0.3 -0.2
v 0.7 0.7 0
v 0.7 0.7 -0.1
v 0.7 0.8 0
v 0.7 0.8 -0.1
v -0.4 -0.1 0.3
v -0.4 0 0.3
v -0.4 0.2 0.3
v -0.2 0 0.3
v -0.2 0.2 0.3
v -0.1 -0.1 0.3
v -0.1 0.2 0.3
v -0.5 -0.4 0.2
v -0.5 0.3 0.2
v -0.4 -0.1 0.2
v -0.4 0 0.2
v -0.4 0.2 0.2
v -0.2 0.2 0.2
v -0.1 -0.1 0.2
v -0.1 0.2 0.2
v -5.96046e-08 -0.4 0.2
v -5.96046e-08 0.3 0.2
v 0.1 -0.4 0.2
v 0.1 0.3 0.2
v 0.2 -0.4 0.2
v 0.2 0.3 0.2
v 0.3 -0.4 0.2
v 0.3 0.3 0.2
v 0.4 -0.4 0.2
v 0.4 0.3 0.2
v -0.6 -0.3 0.1
v -0.6 0 0.1
v -0.5 -0.3 0.1
v -0.5 0 0.1
v -0.4 0.3 0.1
v -0.4 0.4 0.1
v -5.96046e-08 0.3 0.1
v -5.96046e-08 0.4 0.1
v 0.1 0.3 0.1
v 0.1 0.4 0.1
v 0.2 0.3 0.1
v 0.2 0.4 0.1
v 0.3 0.3 0.1
v 0.3 0.4 0.1
v 0.4 -0.4 0.1
v 0.4 0.3 0.1
v 0.4 0.4 0.1
v 0.5 -0.4 0.1
v 0.5 0.3 0.1
v -0.3 -0.5 0
v -0.3 -0.4 0
v -0.3 0.4 0
v -0.3 0.5 0
v -0.2 -0.7 0
v -0.2 -0.5 0
v -0.2 -0.4 0
v -0.1 -0.6 0
v -0.1 -0.5 0
v -0.1 0.4 0
v -0.1 0.5 0
v -0.1 0.7 0
v -5.96046e-08 -0.4 0
v -5.96046e-08 0.4 0
v -5.96046e-08 0.5 0
v -5.96046e-08 0.6 0
v 0.1 -0.4 0
v 0.1 0.4 0
v 0.1 0.6 0
v 0.1 0.7 0
v 0.1 0.8 0
v 0.2 -0.5 0
v 0.2 -0.4 0
v 0.2 0.4 0
v 0.3 -0.6 0
v 0.3 -0.5 0
v 0.3 0.4 0
v 0.3 0.6 0
v 0.4 0.6 0
v 0.4 0.7 0
v 0.5 -0.7 0
v 0.5 -0.6 0
v 0.7 0.7 0
v 0.7 0.8 0
v -0.6 -0.2 -0.1
v -0.6 -0.1 -0.1
v -0.5 -0.2 -0.1
v -0.5 -0.1 -0.1
v -0.6 -0.2 0
v -0.6 -0.1 0
v -0.5 -0.2 0
v -0.5 -0.1 0
v -0.3 -0.5 -0.1
v -0.3 -0.4 -0.1
v -0.3 0.4 -0.1
v -0.3 0.5 -0.1
v -0.2 -0.7 -0.1
v -0.2 -0.5 -0.1
v -0.2 -0.4 -0.1
v -0.1 -0.6 -0.1
v -0.1 -0.5 -0.1
v -0.1 0.4 -0.1
v -0.1 0.5 -0.1
v -0.1 0.7 -0.1
v -5.96046e-08 -0.4 -0.1
v -5.96046e-08 0.4 -0.1
v -5.96046e-08 0.5 -0.1
v -5.96046e-08 0.6 -0.1
v 0.1 -0.4 -0.1
v 0.1 0.4 -0.1
v 0.1 0.6 -0.1
v 0.1 0.7 -0.1
v 0.1 0.8 -0.1
v 0.2 -0.5 -0.1
v 0.2 -0.4 -0.1
v 0.2 0.4 -0.1
v 0.3 -0.6 -0.1
v 0.3 -0.5 -0.1
v 0.3 0.4 -0.1
v 0.3 0.6 -0.1
v 0.4 0.6 -0.1
v 0.4 0.7 -0.1
v 0.5 -0.7 -0.1
v 0.5 -0.6 -0.1
v 0.7 0.7 -0.1
v 0.7 0.8 -0.1
v -0.6 -0.3 -0.2
v -0.6 0 -0.2
v -0.5 -0.3 -0.2
v -0.5 0 -0.2
v -0.4 0.3 -0.2
v -0.4 0.4 -0.2
v -5.96046e-08 0.3 -0.2
v -5.96046e-08 0.4 -0.2
v 0.1 0.3 -0.2
v 0.1 0.4 -0.2
v 0.2 0.3 -0.2
v 0.2 0.4 -0.2
v 0.3 0.3 -0.2
v 0.3 0.4 -0.2
v 0.4 -0.4 -0.2
v 0.4 0.3 -0.2
v 0.4 0.4 -0.2
v 0.5 -0.4 -0.2
v 0.5 0.3 -0.2
v -0.5 -0.4 -0.3
v -0.5 0.3 -0.3
v -0.4 -0.1 -0.3
v -0.4 0 -0.3
v -0.4 0.2 -0.3
v -0.2 0.2 -0.3
v -0.1 -0.1 -0.3
v -0.1 0.2 -0.3
v -5.96046e-08 -0.4 -0.3
v -5.96046e-08 0.3 -0.3
v 0.1 -0.4 -0.3
v 0.1 0.3 -0.3
v 0.2 -0.4 -0.3
v 0.2 0.3 -0.3
v 0.3 -0.4 -0.3
v 0.3 0.3 -0.3
v 0.4 -0.4 -0.3
v 0.4 0.3 -0.3
v -0.4 -0.1 -0.4
v -0.4 0 -0.4
v -0.4 0.2 -0.4
v -0.2 0 -0.4
v -0.2 0.2 -0.4
v -0.1 -0.1 -0.4
v -0.1 0.2 -0.4
v -0.2 -0.7 0
v 0.5 -0.7 0
v -0.2 -0.7 -0.1
v 0.5 -0.7 -0.1
v -0.3 -0.5 0
v -0.2 -0.5 0
v -0.3 -0.5 -0.1
v -0.2 -0.5 -0.1
v -0.5 -0.4 0.2
v -5.96046e-08 -0.4 0.2
v 0.1 -0.4 0.2
v 0.2 -0.4 0.2
v 0.3 -0.4 0.2
v 0.4 -0.4 0.2
v 0.4 -0.4 0.1
v 0.5 -0.4 0.1
v -0.3 -0.4 0
v -0.2 -0.4 0
v -5.96046e-08 -0.4 0
v 0.1 -0.4 0
v 0.2 -0.4 0
v -0.3 -0.4 -0.1
v -0.2 -0.4 -0.1
v -5.96046e-08 -0.4 -0.1
v 0.1 -0.4 -0.1
v 0.2 -0.4 -0.1
v 0.4 -0.4 -0.2
v 0.5 -0.4 -0.2
v -0.5 -0.4 -0.3
v -5.96046e-08 -0.4 -0.3
v 0.1 -0.4 -0.3
v 0.2 -0.4 -0.3
v 0.3 -0.4 -0.3
v 0.4 -0.4 -0.3
v -0.6 -0.3 0.1
v -0.5 -0.3 0.1
v -0.6 -0.3 -0.2
v -0.5 -0.3 -0.2
v -0.4 -0.1 0.3
v -0.1 -0.1 0.3
v -0.4 -0.1 0.2
v -0.1 -0.1 0.2
v -0.6 -0.1 0
v -0.5 -0.1 0
v -0.6 -0.1 -0.1
v -0.5 -0.1 -0.1
v -0.4 -0.1 -0.3
v -0.1 -0.1 -0.3
v -0.4 -0.1 -0.4
v -0.1 -0.1 -0.4
v 0.3 0.6 0
v 0.4 0.6 0
v 0.3 0.6 -0.1
v 0.4 0.6 -0.1
v 0.4 0.7 0
v 0.7 0.7 0
v 0.4 0.7 -0.1
v 0.7 0.7 -0.1
v 0.3 -0.6 0
v 0.5 -0.6 0
v 0.3 -0.6 -0.1
v 0.5 -0.6 -0.1
v 0.2 -0.5 0
v 0.3 -0.5 0
v 0.2 -0.5 -0.1
v 0.3 -0.5 -0.1
v -0.6 -0.2 0
v -0.5 -0.2 0
v -0.6 -0.2 -0.1
v -0.5 -0.2 -0.1
v -0.6 0 0.1
v -0.5 0 0.1
v -0.6 0 -0.2
v -0.5 0 -0.2
v -0.4 0.2 0.3
v -0.2 0.2 0.3
v -0.1 0.2 0.3
v -0.4 0.2 0.2
v -0.2 0.2 0.2
v -0.1 0.2 0.2
v -0.4 0.2 -0.3
v -0.2 0.2 -0.3
v -0.1 0.2 -0.3
v -0.4 0.2 -0.4
v -0.2 0.2 -0.4
v -0.1 0.2 -0.4
v -0.5 0.3 0.2
v -5.96046e-08 0.3 0.2
v 0.1 0.3 0.2
v 0.2 0.3 0.2
v 0.3 0.3 0.2
v 0.4 0.3 0.2
v -0.4 0.3 0.1
v -5.96046e-08 0.3 0.1
v 0.1 0.3 0.1
v 0.2 0.3 0.1
v 0.3 0.3 0.1
v 0.4 0.3 0.1
v 0.5 0.3 0.1
v -0.4 0.3 -0.2
v -5.96046e-08 0.3 -0.2
v 0.1 0.3 -0.2
v 0.2 0.3 -0.2
v 0.3 0.3 -0.2
v 0.4 0.3 -0.2
v 0.5 0.3 -0.2
v -0.5 0.3 -0.3
v -5.96046e-08 0.3 -0.3
v 0.1 0.3 -0.3
v 0.2 0.3 -0.3
v 0.3 0.3 -0.3
v 0.4 0.3 -0.3
v -0.4 0.4 0.1
v -5.96046e-08 0.4 0.1
v 0.1 0.4 0.1
v 0.2 0.4 0.1
v 0.3 0.4 0.1
v 0.4 0.4 0.1
v -0.3 0.4 0
v -0.1 0.4 0
v -5.96046e-08 0.4 0
v 0.1 0.4 0
v 0.2 0.4 0
v 0.3 0.4 0
v -0.3 0.4 -0.1
v -0.1 0.4 -0.1
v -5.96046e-08 0.4 -0.1
v 0.1 0.4 -0.1
v 0.2 0.4 -0.1
v 0.3 0.4 -0.1
v -0.4 0.4 -0.2
v -5.96046e-08 0.4 -0.2
v 0.1 0.4 -0.2
v 0.2 0.4 -0.2
v 0.3 0.4 -0.2
v 0.4 0.4 -0.2
v -0.3 0.5 0
v -0.1 0.5 0
v -0.3 0.5 -0.1
v -0.1 0.5 -0.1
v -0.1 0.7 0
v 0.1 0.7 0
v -0.1 0.7 -0.1
v 0.1 0.7 -0.1
v 0.1 0.8 0
v 0.7 0.8 0
v 0.1 0.8 -0.1
v 0.7 0.8 -0.1

# faces
f 3/2/1 2/2/1 1/2/1
f 4/2/1 2/2/1 3/2/1
f 5/2/1 3/2/1 1/2/1
f 6/2/1 2/2/1 4/2/1
f 7/2/1 5/2/1 1/2/1
f 7/2/1 6/2/1 5/2/1
f 8/2/1 2/2/1 6/2/1
f 8/2/1 6/2/1 7/2/1
f 11/1/1 10/1/1 9/1/1
f 12/1/1 10/1/1 11/1/1
f 15/1/1 14/1/1 13/1/1
f 16/1/1 14/1/1 15/1/1
f 17/1/1 11/1/1 9/1/1
f 18/1/1 10/1/1 12/1/1
f 19/1/1 17/1/1 9/1/1
f 19/1/1 18/1/1 17/1/1
f 20/1/1 10/1/1 18/1/1
f 20/1/1 18/1/1 19/1/1
f 25/1/1 22/1/1 21/1/1
f 26/1/1 22/1/1 25/1/1
f 27/1/1 24/1/1 23/1/1
f 28/1/1 24/1/1 27/1/1
f 29/2/1 26/2/1 25/2/1
f 30/2/1 26/2/1 29/2/1
f 31/2/1 28/2/1 27/2/1
f 32/2/1 28/2/1 31/2/1
f 35/1/1 34/1/1 33/1/1
f 36/1/1 34/1/1 35/1/1
f 39/2/1 38/2/1 37/2/1
f 40/2/1 38/2/1 39/2/1
f 43/2/1 42/2/1 41/2/1
f 44/2/1 42/2/1 43/2/1
f 47/2/1 46/2/1 45/2/1
f 48/2/1 46/2/1 47/2/1
f 51/2/1 50/2/1 49/2/1
f 52/2/1 50/2/1 51/2/1
f 55/2/1 54/2/1 53/2/1
f 56/2/1 54/2/1 55/2/1
f 57/1/2 58/1/2 61/1/2
f 61/1/2 58/1/2 62/1/2
f 59/1/2 60/1/2 63/1/2
f 63/1/2 60/1/2 64/1/2
f 65/1/2 66/1/2 67/1/2
f 67/1/2 66/1/2 68/1/2
f 69/1/2 70/1/2 71/1/2
f 71/1/2 70/1/2 72/1/2
f 73/1/2 74/1/2 75/1/2
f 75/1/2 74/1/2 76/1/2
f 77/1/2 78/1/2 81/1/2
f 81/1/2 78/1/2 82/1/2
f 79/1/2 80/1/2 83/1/2
f 83/1/2 80/1/2 84/1/2
f 82/1/2 83/1/2 85/1/2
f 85/1/2 83/1/2 86/1/2
f 87/1/2 88/1/2 89/1/2
f 89/1/2 88/1/2 90/1/2
f 91/2/2 92/2/2 93/2/2
f 93/2/2 92/2/2 94/2/2
f 95/1/2 96/1/2 97/1/2
f 97/1/2 96/1/2 98/1/2
f 99/2/2 100/2/2 101/2/2
f 101/2/2 100/2/2 102/2/2
f 106/1/3 104/1/3 103/1/3
f 106/2/3 105/2/3 104/2/3
f 107/2/3 105/2/3 106/2/3
f 108/1/3 106/1/3 103/1/3
f 108/1/3 107/1/3 106/1/3
f 109/1/3 107/1/3 108/1/3
f 112/1/3 111/1/3 110/1/3
f 113/1/3 111/1/3 112/1/3
f 114/1/3 111/1/3 113/1/3
f 115/1/3 111/1/3 114/1/3
f 116/1/3 112/1/3 110/1/3
f 117/1/3 111/1/3 115/1/3
f 118/1/3 116/1/3 110/1/3
f 118/1/3 117/1/3 116/1/3
f 119/1/3 111/1/3 117/1/3
f 119/1/3 117/1/3 118/1/3
f 120/2/3 119/2/3 118/2/3
f 121/2/3 119/2/3 120/2/3
f 122/1/3 121/1/3 120/1/3
f 123/1/3 121/1/3 122/1/3
f 124/2/3 123/2/3 122/2/3
f 125/2/3 123/2/3 124/2/3
f 126/1/3 125/1/3 124/1/3
f 127/1/3 125/1/3 126/1/3
f 130/2/3 129/2/3 128/2/3
f 131/2/3 129/2/3 130/2/3
f 134/1/3 133/1/3 132/1/3
f 135/1/3 133/1/3 134/1/3
f 136/2/3 135/2/3 134/2/3
f 137/2/3 135/2/3 136/2/3
f 138/1/3 137/1/3 136/1/3
f 139/1/3 137/1/3 138/1/3
f 140/2/3 139/2/3 138/2/3
f 141/2/3 139/2/3 140/2/3
f 143/1/3 141/1/3 140/1/3
f 144/1/3 141/1/3 143/1/3
f 145/1/3 143/1/3 142/1/3
f 146/1/3 143/1/3 145/1/3
f 152/2/3 148/2/3 147/2/3
f 153/2/3 148/2/3 152/2/3
f 154/2/3 152/2/3 151/2/3
f 155/1/3 153/1/3 152/1/3
f 155/2/3 152/2/3 154/2/3
f 156/2/3 150/2/3 149/2/3
f 157/2/3 150/2/3 156/2/3
f 159/1/3 153/1/3 155/1/3
f 159/1/3 155/1/3 154/1/3
f 160/1/3 157/1/3 156/1/3
f 161/2/3 158/2/3 157/2/3
f 161/1/3 157/1/3 160/1/3
f 162/2/3 158/2/3 161/2/3
f 163/1/3 159/1/3 154/1/3
f 164/1/3 161/1/3 160/1/3
f 164/1/3 162/1/3 161/1/3
f 165/2/3 158/2/3 162/2/3
f 165/1/3 162/1/3 164/1/3
f 166/2/3 158/2/3 165/2/3
f 168/1/3 163/1/3 154/1/3
f 169/1/3 163/1/3 168/1/3
f 170/1/3 165/1/3 164/1/3
f 170/1/3 166/1/3 165/1/3
f 171/2/3 154/2/3 151/2/3
f 171/1/3 168/1/3 154/1/3
f 172/1/3 168/1/3 171/1/3
f 173/1/3 166/1/3 170/1/3
f 174/1/3 166/1/3 173/1/3
f 175/1/3 166/1/3 174/1/3
f 176/2/3 167/2/3 166/2/3
f 176/1/3 166/1/3 175/1/3
f 177/2/3 171/2/3 151/2/3
f 178/2/3 171/2/3 177/2/3
f 179/2/3 167/2/3 176/2/3
f 180/2/3 167/2/3 179/2/3
f 183/2/3 182/2/3 181/2/3
f 184/2/3 182/2/3 183/2/3
f 185/2/4 186/2/4 187/2/4
f 187/2/4 186/2/4 188/2/4
f 189/2/4 190/2/4 194/2/4
f 194/2/4 190/2/4 195/2/4
f 193/2/4 194/2/4 196/2/4
f 194/1/4 195/1/4 197/1/4
f 196/2/4 194/2/4 197/2/4
f 191/2/4 192/2/4 198/2/4
f 198/2/4 192/2/4 199/2/4
f 197/1/4 195/1/4 201/1/4
f 196/1/4 197/1/4 201/1/4
f 198/1/4 199/1/4 202/1/4
f 199/2/4 200/2/4 203/2/4
f 202/1/4 199/1/4 203/1/4
f 203/2/4 200/2/4 204/2/4
f 196/1/4 201/1/4 205/1/4
f 202/1/4 203/1/4 206/1/4
f 203/1/4 204/1/4 206/1/4
f 204/2/4 200/2/4 207/2/4
f 206/1/4 204/1/4 207/1/4
f 207/2/4 200/2/4 208/2/4
f 196/1/4 205/1/4 210/1/4
f 210/1/4 205/1/4 211/1/4
f 206/1/4 207/1/4 212/1/4
f 207/1/4 208/1/4 212/1/4
f 193/2/4 196/2/4 213/2/4
f 196/1/4 210/1/4 213/1/4
f 213/1/4 210/1/4 214/1/4
f 212/1/4 208/1/4 215/1/4
f 215/1/4 208/1/4 216/1/4
f 216/1/4 208/1/4 217/1/4
f 208/2/4 209/2/4 218/2/4
f 217/1/4 208/1/4 218/1/4
f 193/2/4 213/2/4 219/2/4
f 219/2/4 213/2/4 220/2/4
f 218/2/4 209/2/4 221/2/4
f 221/2/4 209/2/4 222/2/4
f 223/2/4 224/2/4 225/2/4
f 225/2/4 224/2/4 226/2/4
f 227/1/4 228/1/4 229/1/4
f 229/1/4 228/1/4 230/1/4
f 229/2/4 230/2/4 231/2/4
f 231/2/4 230/2/4 232/2/4
f 231/1/4 232/1/4 233/1/4
f 233/1/4 232/1/4 234/1/4
f 233/2/4 234/2/4 235/2/4
f 235/2/4 234/2/4 236/2/4
f 235/1/4 236/1/4 238/1/4
f 238/1/4 236/1/4 239/1/4
f 237/1/4 238/1/4 240/1/4
f 240/1/4 238/1/4 241/1/4
f 242/1/4 243/1/4 244/1/4
f 244/1/4 243/1/4 245/1/4
f 245/1/4 243/1/4 246/1/4
f 246/1/4 243/1/4 247/1/4
f 242/1/4 244/1/4 248/1/4
f 247/1/4 243/1/4 249/1/4
f 242/1/4 248/1/4 250/1/4
f 248/1/4 249/1/4 250/1/4
f 249/1/4 243/1/4 251/1/4
f 250/1/4 249/1/4 251/1/4
f 250/2/4 251/2/4 252/2/4
f 252/2/4 251/2/4 253/2/4
f 252/1/4 253/1/4 254/1/4
f 254/1/4 253/1/4 255/1/4
f 254/2/4 255/2/4 256/2/4
f 256/2/4 255/2/4 257/2/4
f 256/1/4 257/1/4 258/1/4
f 258/1/4 257/1/4 259/1/4
f 260/1/4 261/1/4 263/1/4
f 261/2/4 262/2/4 263/2/4
f 263/2/4 262/2/4 264/2/4
f 260/1/4 263/1/4 265/1/4
f 263/1/4 264/1/4 265/1/4
f 265/1/4 264/1/4 266/1/4
f 269/2/5 268/2/5 267/2/5
f 270/2/5 268/2/5 269/2/5
f 273/2/5 272/2/5 271/2/5
f 274/2/5 272/2/5 273/2/5
f 281/1/5 280/1/5 279/1/5
f 283/1/5 276/1/5 275/1/5
f 284/1/5 276/1/5 283/1/5
f 285/2/5 277/2/5 276/2/5
f 285/1/5 276/1/5 284/1/5
f 286/1/5 278/1/5 277/1/5
f 286/2/5 277/2/5 285/2/5
f 287/2/5 279/2/5 278/2/5
f 287/1/5 278/1/5 286/1/5
f 288/1/5 283/1/5 275/1/5
f 292/2/5 279/2/5 287/2/5
f 293/1/5 282/1/5 281/1/5
f 293/1/5 281/1/5 279/1/5
f 294/1/5 282/1/5 293/1/5
f 295/1/5 288/1/5 275/1/5
f 295/1/5 289/1/5 288/1/5
f 295/1/5 290/1/5 289/1/5
f 296/2/5 291/2/5 290/2/5
f 296/1/5 290/1/5 295/1/5
f 297/1/5 292/1/5 291/1/5
f 297/2/5 291/2/5 296/2/5
f 298/2/5 279/2/5 292/2/5
f 298/1/5 292/1/5 297/1/5
f 299/1/5 293/1/5 279/1/5
f 299/2/5 279/2/5 298/2/5
f 300/1/5 293/1/5 299/1/5
f 303/2/5 302/2/5 301/2/5
f 304/2/5 302/2/5 303/2/5
f 307/1/5 306/1/5 305/1/5
f 308/1/5 306/1/5 307/1/5
f 311/2/5 310/2/5 309/2/5
f 312/2/5 310/2/5 311/2/5
f 315/1/5 314/1/5 313/1/5
f 316/1/5 314/1/5 315/1/5
f 319/1/5 318/1/5 317/1/5
f 320/1/5 318/1/5 319/1/5
f 323/2/5 322/2/5 321/2/5
f 324/2/5 322/2/5 323/2/5
f 325/2/6 326/2/6 327/2/6
f 327/2/6 326/2/6 328/2/6
f 329/1/6 330/1/6 331/1/6
f 331/1/6 330/1/6 332/1/6
f 333/2/6 334/2/6 335/2/6
f 335/2/6 334/2/6 336/2/6
f 337/2/6 338/2/6 339/2/6
f 339/2/6 338/2/6 340/2/6
f 341/2/6 342/2/6 344/2/6
f 342/1/6 343/1/6 345/1/6
f 344/2/6 342/2/6 345/2/6
f 345/1/6 343/1/6 346/1/6
f 347/2/6 348/2/6 350/2/6
f 348/1/6 349/1/6 351/1/6
f 350/2/6 348/2/6 351/2/6
f 351/1/6 349/1/6 352/1/6
f 353/1/6 354/1/6 359/1/6
f 354/2/6 355/2/6 360/2/6
f 359/1/6 354/1/6 360/1/6
f 355/1/6 356/1/6 361/1/6
f 360/2/6 355/2/6 361/2/6
f 356/2/6 357/2/6 362/2/6
f 361/1/6 356/1/6 362/1/6
f 357/1/6 358/1/6 363/1/6
f 362/2/6 357/2/6 363/2/6
f 363/1/6 358/1/6 364/1/6
f 353/1/6 359/1/6 366/1/6
f 364/1/6 365/1/6 371/1/6
f 371/1/6 365/1/6 372/1/6
f 353/1/6 366/1/6 373/1/6
f 366/1/6 367/1/6 373/1/6
f 367/2/6 368/2/6 374/2/6
f 373/1/6 367/1/6 374/1/6
f 368/1/6 369/1/6 375/1/6
f 374/2/6 368/2/6 375/2/6
f 369/2/6 370/2/6 376/2/6
f 375/1/6 369/1/6 376/1/6
f 370/1/6 371/1/6 377/1/6
f 376/2/6 370/2/6 377/2/6
f 377/1/6 371/1/6 378/1/6
f 379/1/6 380/1/6 385/1/6
f 385/1/6 380/1/6 386/1/6
f 380/2/6 381/2/6 387/2/6
f 386/1/6 380/1/6 387/1/6
f 381/1/6 382/1/6 388/1/6
f 387/2/6 381/2/6 388/2/6
f 382/2/6 383/2/6 389/2/6
f 388/1/6 382/1/6 389/1/6
f 383/1/6 384/1/6 390/1/6
f 389/2/6 383/2/6 390/2/6
f 379/1/6 385/1/6 391/1/6
f 390/1/6 384/1/6 396/1/6
f 379/1/6 391/1/6 397/1/6
f 391/1/6 392/1/6 397/1/6
f 392/1/6 393/1/6 397/1/6
f 393/2/6 394/2/6 398/2/6
f 397/1/6 393/1/6 398/1/6
f 394/1/6 395/1/6 399/1/6
f 398/2/6 394/2/6 399/2/6
f 395/2/6 396/2/6 400/2/6
f 399/1/6 395/1/6 400/1/6
f 396/1/6 384/1/6 401/1/6
f 400/2/6 396/2/6 401/2/6
f 401/1/6 384/1/6 402/1/6
f 403/2/6 404/2/6 405/2/6
f 405/2/6 404/2/6 406/2/6
f 407/2/6 408/2/6 409/2/6
f 409/2/6 408/2/6 410/2/6
f 411/2/6 412/2/6 413/2/6
f 413/2/6 412/2/6 414/2/6
