# MagicaVoxel @ Ephtracy

# group
o 

# material
mtllib fish_2.mtl
usemtl palette

# normals
vn -1 0 0
vn 1 0 0
vn 0 0 1
vn 0 0 -1
vn 0 -1 0
vn 0 1 0

# texcoords
vt 0.970703 0.5
vt 0.974609 0.5

# verts
v -0.4 -0.2 0
v -0.4 -0.2 -0.1
v -0.4 0.3 0
v -0.4 0.3 -0.1
v -0.2 -0.3 0
v -0.2 -0.3 -0.1
v -0.2 -0.2 0
v -0.2 -0.2 -0.1
v -0.2 0.3 0
v -0.2 0.3 -0.1
v -0.2 0.4 0
v -0.2 0.4 -0.1
v 0 -0.1 0
v 0 -0.1 -0.1
v 0 0.1 0
v 0 0.1 -0.1
v 0.1 -0.2 0
v 0.1 -0.2 -0.1
v 0.1 -0.1 0
v 0.1 -0.1 -0.1
v 0.1 0.1 0
v 0.1 0.1 -0.1
v 0.1 0.3 0
v 0.1 0.3 -0.1
v 0.2 -0.3 0
v 0.2 -0.3 -0.1
v 0.2 -0.2 0
v 0.2 -0.2 -0.1
v 0.4 0.3 0
v 0.4 0.3 -0.1
v 0.4 0.4 0
v 0.4 0.4 -0.1
v -0.4 -0.2 0
v -0.4 0.3 0
v -0.3 -0.2 0
v -0.3 0.3 0
v -0.2 -0.3 0
v -0.2 -0.2 0
v -0.2 0.3 0
v -0.2 0.4 0
v -0.1 -0.1 0
v -0.1 0.2 0
v 0 -0.2 0
v 0 -0.1 0
v 0 0.1 0
v 0 0.2 0
v 0 0.3 0
v 0.1 -0.2 0
v 0.1 -0.1 0
v 0.1 0.1 0
v 0.1 0.3 0
v 0.2 -0.3 0
v 0.2 -0.2 0
v 0.4 0.3 0
v 0.4 0.4 0
v -0.4 -0.2 -0.1
v -0.4 0.3 -0.1
v -0.3 -0.2 -0.1
v -0.3 0.3 -0.1
v -0.2 -0.3 -0.1
v -0.2 -0.2 -0.1
v -0.2 0.3 -0.1
v -0.2 0.4 -0.1
v -0.1 -0.1 -0.1
v -0.1 0.2 -0.1
v 0 -0.2 -0.1
v 0 -0.1 -0.1
v 0 0.1 -0.1
v 0 0.2 -0.1
v 0 0.3 -0.1
v 0.1 -0.2 -0.1
v 0.1 -0.1 -0.1
v 0.1 0.1 -0.1
v 0.1 0.3 -0.1
v 0.2 -0.3 -0.1
v 0.2 -0.2 -0.1
v 0.4 0.3 -0.1
v 0.4 0.4 -0.1
v -0.2 -0.3 0
v 0.2 -0.3 0
v -0.2 -0.3 -0.1
v 0.2 -0.3 -0.1
v -0.4 -0.2 0
v -0.3 -0.2 0
v -0.2 -0.2 0
v -0.4 -0.2 -0.1
v -0.3 -0.2 -0.1
v -0.2 -0.2 -0.1
v 0 0.1 0
v 0.1 0.1 0
v 0 0.1 -0.1
v 0.1 0.1 -0.1
v 0.1 0.3 0
v 0.4 0.3 0
v 0.1 0.3 -0.1
v 0.4 0.3 -0.1
v 0.1 -0.2 0
v 0.2 -0.2 0
v 0.1 -0.2 -0.1
v 0.2 -0.2 -0.1
v 0 -0.1 0
v 0.1 -0.1 0
v 0 -0.1 -0.1
v 0.1 -0.1 -0.1
v -0.4 0.3 0
v -0.3 0.3 0
v -0.2 0.3 0
v -0.4 0.3 -0.1
v -0.3 0.3 -0.1
v -0.2 0.3 -0.1
v -0.2 0.4 0
v 0.4 0.4 0
v -0.2 0.4 -0.1
v 0.4 0.4 -0.1

# faces
f 3/1/1 2/1/1 1/1/1
f 4/1/1 2/1/1 3/1/1
f 7/2/1 6/2/1 5/2/1
f 8/2/1 6/2/1 7/2/1
f 11/2/1 10/2/1 9/2/1
f 12/2/1 10/2/1 11/2/1
f 13/1/2 14/1/2 15/1/2
f 15/1/2 14/1/2 16/1/2
f 17/1/2 18/1/2 19/1/2
f 19/1/2 18/1/2 20/1/2
f 21/1/2 22/1/2 23/1/2
f 23/1/2 22/1/2 24/1/2
f 25/2/2 26/2/2 27/2/2
f 27/2/2 26/2/2 28/2/2
f 29/2/2 30/2/2 31/2/2
f 31/2/2 30/2/2 32/2/2
f 35/1/3 34/1/3 33/1/3
f 36/1/3 34/1/3 35/1/3
f 38/2/3 36/2/3 35/2/3
f 39/2/3 36/2/3 38/2/3
f 41/2/3 39/2/3 38/2/3
f 41/2/3 40/2/3 39/2/3
f 41/2/3 38/2/3 37/2/3
f 42/2/3 40/2/3 41/2/3
f 43/2/3 41/2/3 37/2/3
f 44/1/3 42/1/3 41/1/3
f 44/2/3 41/2/3 43/2/3
f 45/1/3 42/1/3 44/1/3
f 46/2/3 40/2/3 42/2/3
f 46/1/3 42/1/3 45/1/3
f 47/2/3 40/2/3 46/2/3
f 48/2/3 43/2/3 37/2/3
f 48/1/3 44/1/3 43/1/3
f 49/1/3 44/1/3 48/1/3
f 50/1/3 47/1/3 46/1/3
f 50/1/3 46/1/3 45/1/3
f 51/2/3 40/2/3 47/2/3
f 51/1/3 47/1/3 50/1/3
f 52/2/3 48/2/3 37/2/3
f 53/2/3 48/2/3 52/2/3
f 54/2/3 40/2/3 51/2/3
f 55/2/3 40/2/3 54/2/3
f 56/1/4 57/1/4 58/1/4
f 58/1/4 57/1/4 59/1/4
f 58/2/4 59/2/4 61/2/4
f 61/2/4 59/2/4 62/2/4
f 61/2/4 62/2/4 64/2/4
f 62/2/4 63/2/4 64/2/4
f 60/2/4 61/2/4 64/2/4
f 64/2/4 63/2/4 65/2/4
f 60/2/4 64/2/4 66/2/4
f 64/1/4 65/1/4 67/1/4
f 66/2/4 64/2/4 67/2/4
f 67/1/4 65/1/4 68/1/4
f 65/2/4 63/2/4 69/2/4
f 68/1/4 65/1/4 69/1/4
f 69/2/4 63/2/4 70/2/4
f 60/2/4 66/2/4 71/2/4
f 66/1/4 67/1/4 71/1/4
f 71/1/4 67/1/4 72/1/4
f 69/1/4 70/1/4 73/1/4
f 68/1/4 69/1/4 73/1/4
f 70/2/4 63/2/4 74/2/4
f 73/1/4 70/1/4 74/1/4
f 60/2/4 71/2/4 75/2/4
f 75/2/4 71/2/4 76/2/4
f 74/2/4 63/2/4 77/2/4
f 77/2/4 63/2/4 78/2/4
f 81/2/5 80/2/5 79/2/5
f 82/2/5 80/2/5 81/2/5
f 86/1/5 84/1/5 83/1/5
f 87/2/5 85/2/5 84/2/5
f 87/1/5 84/1/5 86/1/5
f 88/2/5 85/2/5 87/2/5
f 91/1/5 90/1/5 89/1/5
f 92/1/5 90/1/5 91/1/5
f 95/2/5 94/2/5 93/2/5
f 96/2/5 94/2/5 95/2/5
f 97/2/6 98/2/6 99/2/6
f 99/2/6 98/2/6 100/2/6
f 101/1/6 102/1/6 103/1/6
f 103/1/6 102/1/6 104/1/6
f 105/1/6 106/1/6 108/1/6
f 106/2/6 107/2/6 109/2/6
f 108/1/6 106/1/6 109/1/6
f 109/2/6 107/2/6 110/2/6
f 111/2/6 112/2/6 113/2/6
f 113/2/6 112/2/6 114/2/6
