# MagicaVoxel @ Ephtracy

# group
o 

# material
mtllib eggplant_6.mtl
usemtl palette

# normals
vn -1 0 0
vn 1 0 0
vn 0 0 1
vn 0 0 -1
vn 0 -1 0
vn 0 1 0

# texcoords
vt 0.748047 0.5
vt 0.759766 0.5
vt 0.763672 0.5
vt 0.779297 0.5

# verts
v -0.2 -0.3 0.1
v -0.2 -0.3 -0.2
v -0.2 0.2 0.1
v -0.2 0.2 -0.2
v -0.1 -0.4 0.1
v -0.1 -0.4 -0.2
v -0.1 -0.3 0.2
v -0.1 -0.3 0.1
v -0.1 -0.3 -0.2
v -0.1 -0.3 -0.3
v -0.1 0.2 0.2
v -0.1 0.2 0.1
v -0.1 0.2 -0.2
v -0.1 0.2 -0.3
v -0.1 0.3 0.1
v -0.1 0.3 -0.3
v -0.1 0.4 -0.1
v -0.1 0.4 -0.2
v -0.1 0.5 -0.1
v -0.1 0.5 -0.2
v 0 0.3 0
v 0 0.3 -0.1
v 0 0.4 -0.1
v 0 0.5 0
v 0 0.5 -0.1
v 0.1 0.2 0.2
v 0.1 0.2 0.1
v 0.1 0.3 0.2
v 0.1 0.3 0.1
v 0 0.2 -0.2
v 0 0.2 -0.3
v 0 0.3 -0.2
v 0 0.3 -0.3
v 0 0.4 -0.1
v 0 0.4 -0.2
v 0 0.5 -0.1
v 0 0.5 -0.2
v 0.1 0.3 0
v 0.1 0.3 -0.1
v 0.1 0.5 0
v 0.1 0.5 -0.1
v 0.2 -0.4 0.1
v 0.2 -0.4 -0.2
v 0.2 -0.3 0.2
v 0.2 -0.3 0.1
v 0.2 -0.3 -0.2
v 0.2 -0.3 -0.3
v 0.2 0.2 0.2
v 0.2 0.2 0.1
v 0.2 0.2 0
v 0.2 0.2 -0.1
v 0.2 0.2 -0.2
v 0.2 0.2 -0.3
v 0.2 0.3 0.2
v 0.2 0.3 0
v 0.2 0.3 -0.1
v 0.2 0.3 -0.2
v 0.3 -0.3 0.1
v 0.3 -0.3 -0.2
v 0.3 0.2 0.1
v 0.3 0.2 0
v 0.3 0.2 -0.1
v 0.3 0.2 -0.2
v 0.3 0.3 0
v 0.3 0.3 -0.1
v -0.1 -0.3 0.2
v -0.1 0.2 0.2
v 0.1 0.2 0.2
v 0.1 0.3 0.2
v 0.2 -0.3 0.2
v 0.2 0.2 0.2
v 0.2 0.3 0.2
v -0.2 -0.3 0.1
v -0.2 0.2 0.1
v -0.1 -0.4 0.1
v -0.1 -0.3 0.1
v -0.1 0.2 0.1
v -0.1 0.3 0.1
v 0.1 0.2 0.1
v 0.1 0.3 0.1
v 0.2 -0.4 0.1
v 0.2 -0.3 0.1
v 0.2 0.2 0.1
v 0.3 -0.3 0.1
v 0.3 0.2 0.1
v 0 0.3 0
v 0 0.5 0
v 0.1 0.3 0
v 0.1 0.5 0
v 0.2 0.2 0
v 0.2 0.3 0
v 0.3 0.2 0
v 0.3 0.3 0
v -0.1 0.4 -0.1
v -0.1 0.5 -0.1
v 0 0.4 -0.1
v 0 0.5 -0.1
v 0 0.3 -0.1
v 0 0.4 -0.1
v 0 0.5 -0.1
v 0.1 0.3 -0.1
v 0.1 0.5 -0.1
v 0.2 0.2 -0.1
v 0.2 0.3 -0.1
v 0.3 0.2 -0.1
v 0.3 0.3 -0.1
v -0.2 -0.3 -0.2
v -0.2 0.2 -0.2
v -0.1 -0.4 -0.2
v -0.1 -0.3 -0.2
v -0.1 0.2 -0.2
v -0.1 0.4 -0.2
v -0.1 0.5 -0.2
v 0 0.2 -0.2
v 0 0.3 -0.2
v 0 0.4 -0.2
v 0 0.5 -0.2
v 0.2 -0.4 -0.2
v 0.2 -0.3 -0.2
v 0.2 0.2 -0.2
v 0.2 0.3 -0.2
v 0.3 -0.3 -0.2
v 0.3 0.2 -0.2
v -0.1 -0.3 -0.3
v -0.1 0.2 -0.3
v -0.1 0.3 -0.3
v 0 0.2 -0.3
v 0 0.3 -0.3
v 0.2 -0.3 -0.3
v 0.2 0.2 -0.3
v -0.1 -0.4 0.1
v 0.2 -0.4 0.1
v -0.1 -0.4 -0.2
v 0.2 -0.4 -0.2
v -0.1 -0.3 0.2
v 0.2 -0.3 0.2
v -0.2 -0.3 0.1
v -0.1 -0.3 0.1
v 0.2 -0.3 0.1
v 0.3 -0.3 0.1
v -0.2 -0.3 -0.2
v -0.1 -0.3 -0.2
v 0.2 -0.3 -0.2
v 0.3 -0.3 -0.2
v -0.1 -0.3 -0.3
v 0.2 -0.3 -0.3
v -0.1 0.4 -0.1
v 0 0.4 -0.1
v -0.1 0.4 -0.2
v 0 0.4 -0.2
v -0.1 0.2 0.2
v 0.1 0.2 0.2
v -0.2 0.2 0.1
v -0.1 0.2 0.1
v 0.1 0.2 0.1
v 0.2 0.2 0.1
v 0.3 0.2 0.1
v 0.2 0.2 0
v 0.3 0.2 0
v 0.2 0.2 -0.1
v 0.3 0.2 -0.1
v -0.2 0.2 -0.2
v -0.1 0.2 -0.2
v 0 0.2 -0.2
v 0.2 0.2 -0.2
v 0.3 0.2 -0.2
v 0 0.2 -0.3
v 0.2 0.2 -0.3
v 0.1 0.3 0.2
v 0.2 0.3 0.2
v -0.1 0.3 0.1
v 0.1 0.3 0.1
v 0 0.3 0
v 0.1 0.3 0
v 0.2 0.3 0
v 0.3 0.3 0
v 0 0.3 -0.1
v 0.1 0.3 -0.1
v 0.2 0.3 -0.1
v 0.3 0.3 -0.1
v 0 0.3 -0.2
v 0.2 0.3 -0.2
v -0.1 0.3 -0.3
v 0 0.3 -0.3
v 0 0.5 0
v 0.1 0.5 0
v -0.1 0.5 -0.1
v 0 0.5 -0.1
v 0.1 0.5 -0.1
v -0.1 0.5 -0.2
v 0 0.5 -0.2

# faces
f 3/1/1 2/1/1 1/1/1
f 4/1/1 2/1/1 3/1/1
f 8/1/1 6/1/1 5/1/1
f 9/1/1 6/1/1 8/1/1
f 11/1/1 8/1/1 7/1/1
f 12/1/1 8/1/1 11/1/1
f 13/1/1 10/1/1 9/1/1
f 14/1/1 10/1/1 13/1/1
f 15/3/1 13/3/1 12/3/1
f 15/3/1 14/3/1 13/3/1
f 16/3/1 14/3/1 15/3/1
f 19/2/1 18/2/1 17/2/1
f 20/2/1 18/2/1 19/2/1
f 23/2/1 22/2/1 21/2/1
f 24/2/1 23/2/1 21/2/1
f 25/2/1 23/2/1 24/2/1
f 28/3/1 27/3/1 26/3/1
f 29/3/1 27/3/1 28/3/1
f 30/3/2 31/3/2 32/3/2
f 32/3/2 31/3/2 33/3/2
f 34/2/2 35/2/2 36/2/2
f 36/2/2 35/2/2 37/2/2
f 38/2/2 39/2/2 40/2/2
f 40/2/2 39/2/2 41/2/2
f 42/1/2 43/1/2 45/1/2
f 45/1/2 43/1/2 46/1/2
f 44/1/2 45/1/2 48/1/2
f 48/1/2 45/1/2 49/1/2
f 46/1/2 47/1/2 52/1/2
f 52/1/2 47/1/2 53/1/2
f 49/3/2 50/3/2 54/3/2
f 48/3/2 49/3/2 54/3/2
f 54/3/2 50/3/2 55/3/2
f 51/3/2 52/3/2 56/3/2
f 56/3/2 52/3/2 57/3/2
f 58/1/2 59/1/2 60/1/2
f 60/1/2 59/1/2 61/1/2
f 61/1/2 59/1/2 62/1/2
f 62/1/2 59/1/2 63/1/2
f 61/3/2 62/3/2 64/3/2
f 64/3/2 62/3/2 65/3/2
f 68/1/3 67/1/3 66/1/3
f 70/1/3 68/1/3 66/1/3
f 71/3/3 69/3/3 68/3/3
f 71/1/3 68/1/3 70/1/3
f 72/3/3 69/3/3 71/3/3
f 76/1/3 74/1/3 73/1/3
f 77/1/3 74/1/3 76/1/3
f 79/3/3 78/3/3 77/3/3
f 80/3/3 78/3/3 79/3/3
f 81/1/3 76/1/3 75/1/3
f 82/1/3 76/1/3 81/1/3
f 84/1/3 83/1/3 82/1/3
f 85/1/3 83/1/3 84/1/3
f 88/2/3 87/2/3 86/2/3
f 89/2/3 87/2/3 88/2/3
f 92/3/3 91/3/3 90/3/3
f 93/3/3 91/3/3 92/3/3
f 96/2/3 95/2/3 94/2/3
f 97/2/3 95/2/3 96/2/3
f 98/2/4 99/2/4 101/2/4
f 99/2/4 100/2/4 101/2/4
f 101/2/4 100/2/4 102/2/4
f 103/3/4 104/3/4 105/3/4
f 105/3/4 104/3/4 106/3/4
f 107/1/4 108/1/4 110/1/4
f 110/1/4 108/1/4 111/1/4
f 112/2/4 113/2/4 116/2/4
f 116/2/4 113/2/4 117/2/4
f 109/1/4 110/1/4 118/1/4
f 118/1/4 110/1/4 119/1/4
f 114/3/4 115/3/4 120/3/4
f 120/3/4 115/3/4 121/3/4
f 119/1/4 120/1/4 122/1/4
f 122/1/4 120/1/4 123/1/4
f 124/1/4 125/1/4 127/1/4
f 125/3/4 126/3/4 127/3/4
f 127/3/4 126/3/4 128/3/4
f 124/1/4 127/1/4 129/1/4
f 129/1/4 127/1/4 130/1/4
f 133/1/5 132/1/5 131/1/5
f 134/1/5 132/1/5 133/1/5
f 138/1/5 136/1/5 135/1/5
f 139/1/5 136/1/5 138/1/5
f 141/1/5 138/1/5 137/1/5
f 142/1/5 138/1/5 141/1/5
f 143/1/5 140/1/5 139/1/5
f 144/1/5 140/1/5 143/1/5
f 145/1/5 143/1/5 142/1/5
f 146/1/5 143/1/5 145/1/5
f 149/2/5 148/2/5 147/2/5
f 150/2/5 148/2/5 149/2/5
f 151/1/6 152/1/6 154/1/6
f 154/1/6 152/1/6 155/1/6
f 156/1/6 157/1/6 158/1/6
f 158/1/6 157/1/6 159/1/6
f 153/1/6 154/1/6 162/1/6
f 162/1/6 154/1/6 163/1/6
f 160/1/6 161/1/6 165/1/6
f 165/1/6 161/1/6 166/1/6
f 164/1/6 165/1/6 167/1/6
f 167/1/6 165/1/6 168/1/6
f 169/3/6 170/3/6 172/3/6
f 171/3/6 172/3/6 173/3/6
f 172/3/6 170/3/6 174/3/6
f 173/3/6 172/3/6 174/3/6
f 174/3/6 170/3/6 175/3/6
f 171/3/6 173/3/6 177/3/6
f 175/3/6 176/3/6 178/3/6
f 174/3/6 175/3/6 178/3/6
f 178/3/6 176/3/6 179/3/6
f 179/3/6 176/3/6 180/3/6
f 171/3/6 177/3/6 181/3/6
f 177/3/6 178/3/6 181/3/6
f 178/3/6 179/3/6 181/3/6
f 181/3/6 179/3/6 182/3/6
f 171/3/6 181/3/6 183/3/6
f 183/3/6 181/3/6 184/3/6
f 185/2/6 186/2/6 188/2/6
f 188/2/6 186/2/6 189/2/6
f 187/2/6 188/2/6 190/2/6
f 190/2/6 188/2/6 191/2/6
