# MagicaVoxel @ Ephtracy

# group
o 

# material
mtllib eggplant_5.mtl
usemtl palette

# normals
vn -1 0 0
vn 1 0 0
vn 0 0 1
vn 0 0 -1
vn 0 -1 0
vn 0 1 0

# texcoords
vt 0.748047 0.5
vt 0.755859 0.5
vt 0.779297 0.5

# verts
v -0.3 -0.8 -0.1
v -0.3 -0.8 -0.2
v -0.3 -0.7 -0.1
v -0.3 -0.7 -0.2
v -0.3 0.1 -0.4
v -0.3 0.1 -0.5
v -0.3 0.2 -0.4
v -0.3 0.2 -0.5
v -0.3 0.3 0.4
v -0.3 0.3 0.3
v -0.3 0.4 0.4
v -0.3 0.4 0.3
v -0.2 -0.8 -0.2
v -0.2 -0.8 -0.4
v -0.2 -0.7 -0.1
v -0.2 -0.7 -0.2
v -0.2 -0.7 -0.3
v -0.2 -0.7 -0.4
v -0.2 -0.6 0.1
v -0.2 -0.6 -0.1
v -0.2 -0.6 -0.2
v -0.2 -0.3 -0.1
v -0.2 -0.3 -0.2
v -0.2 -0.3 -0.3
v -0.2 -0.3 -0.4
v -0.2 -0.3 -0.6
v -0.2 -0.2 0.1
v -0.2 -0.2 0
v -0.2 -0.2 -0.1
v -0.2 -0.1 0.5
v -0.2 -0.1 0.3
v -0.2 -0.1 0
v -0.2 -0.1 -0.1
v -0.2 0 0
v -0.2 0 -0.1
v -0.2 0 -0.2
v -0.2 0.1 -0.1
v -0.2 0.1 -0.2
v -0.2 0.1 -0.4
v -0.2 0.1 -0.5
v -0.2 0.1 -0.6
v -0.2 0.2 -0.1
v -0.2 0.2 -0.2
v -0.2 0.2 -0.4
v -0.2 0.2 -0.5
v -0.2 0.3 0.5
v -0.2 0.3 0.4
v -0.2 0.3 0.3
v -0.2 0.3 0.1
v -0.2 0.3 0
v -0.2 0.3 -0.2
v -0.2 0.3 -0.5
v -0.2 0.4 0.5
v -0.2 0.4 0.4
v -0.2 0.4 0.3
v -0.2 0.4 0.1
v -0.2 0.4 0
v -0.2 0.5 0.4
v -0.2 0.5 0.1
v -0.2 0.6 0
v -0.2 0.6 -0.1
v -0.2 0.6 -0.2
v -0.2 0.9 -0.1
v -0.2 0.9 -0.2
v -0.1 -0.8 -0.1
v -0.1 -0.8 -0.2
v -0.1 -0.8 -0.4
v -0.1 -0.8 -0.5
v -0.1 -0.7 -0.1
v -0.1 -0.7 -0.2
v -0.1 -0.7 -0.4
v -0.1 -0.7 -0.5
v 0 0.8 -0.1
v 0 0.8 -0.2
v 0 0.9 -0.1
v 0 0.9 -0.2
v 0.2 0.3 -0.1
v 0.2 0.3 -0.3
v 0.2 0.7 0
v 0.2 0.7 -0.1
v 0.2 0.7 -0.3
v 0.2 0.8 0
v 0.2 0.8 -0.1
v 0.2 0.8 -0.2
v 0.2 0.8 -0.3
v -0.2 -0.8 -0.1
v -0.2 -0.8 -0.2
v -0.2 -0.7 -0.1
v -0.2 -0.7 -0.2
v -0.1 -0.8 -0.2
v -0.1 -0.8 -0.4
v -0.1 -0.7 -0.1
v -0.1 -0.7 -0.2
v -0.1 -0.7 -0.3
v -0.1 -0.7 -0.4
v -0.1 -0.6 -0.1
v -0.1 -0.6 -0.2
v -0.1 -0.3 -0.1
v -0.1 -0.3 -0.2
v -0.1 -0.2 -0.1
v -0.1 -0.1 -0.1
v -0.1 0 0
v -0.1 0 -0.1
v -0.1 0 -0.2
v -0.1 0.1 -0.1
v -0.1 0.1 -0.2
v -0.1 0.2 -0.1
v -0.1 0.2 -0.2
v -0.1 0.2 -0.4
v -0.1 0.2 -0.5
v -0.1 0.3 0.5
v -0.1 0.3 0.4
v -0.1 0.3 0.1
v -0.1 0.3 0
v -0.1 0.3 -0.2
v -0.1 0.3 -0.5
v -0.1 0.4 0.5
v -0.1 0.4 0.4
v -0.1 0.4 0.3
v -0.1 0.4 0.1
v -0.1 0.4 0
v -0.1 0.5 0.4
v -0.1 0.5 0.1
v -0.1 0.6 0
v -0.1 0.6 -0.1
v -0.1 0.6 -0.2
v -0.1 0.7 -0.1
v -0.1 0.7 -0.2
v -0.1 0.8 -0.1
v -0.1 0.8 -0.2
v -0.1 0.9 -0.1
v -0.1 0.9 -0.2
v 0 -0.8 -0.1
v 0 -0.8 -0.2
v 0 -0.8 -0.4
v 0 -0.8 -0.5
v 0 -0.7 -0.1
v 0 -0.7 -0.2
v 0 -0.7 -0.3
v 0 -0.7 -0.4
v 0 -0.7 -0.5
v 0 -0.6 0.1
v 0 -0.6 -0.1
v 0 -0.3 -0.2
v 0 -0.3 -0.3
v 0 -0.3 -0.4
v 0 -0.3 -0.6
v 0 -0.2 0.1
v 0 -0.2 0
v 0 -0.2 -0.1
v 0 -0.1 0.5
v 0 -0.1 0.3
v 0 -0.1 0
v 0 -0.1 -0.1
v 0 0.1 -0.4
v 0 0.1 -0.5
v 0 0.1 -0.6
v 0 0.2 -0.4
v 0 0.2 -0.5
v 0 0.3 0.5
v 0 0.3 0.4
v 0 0.3 0.3
v 0 0.4 0.4
v 0 0.4 0.3
v 0 0.7 -0.1
v 0 0.7 -0.2
v 0 0.8 -0.1
v 0 0.8 -0.2
v 0.3 0.7 0
v 0.3 0.7 -0.1
v 0.3 0.7 -0.3
v 0.3 0.8 0
v 0.3 0.8 -0.1
v 0.3 0.8 -0.2
v 0.3 0.8 -0.3
v 0.3 0.9 -0.1
v 0.3 0.9 -0.2
v 0.4 0.3 -0.1
v 0.4 0.3 -0.3
v 0.4 0.7 -0.1
v 0.4 0.7 -0.3
v -0.2 -0.1 0.5
v -0.2 0.3 0.5
v -0.2 0.4 0.5
v -0.1 0.3 0.5
v -0.1 0.4 0.5
v 0 -0.1 0.5
v 0 0.3 0.5
v -0.3 0.3 0.4
v -0.3 0.4 0.4
v -0.2 0.3 0.4
v -0.2 0.4 0.4
v -0.2 0.5 0.4
v -0.1 0.3 0.4
v -0.1 0.4 0.4
v -0.1 0.5 0.4
v 0 0.3 0.4
v 0 0.4 0.4
v -0.2 -0.6 0.1
v -0.2 -0.2 0.1
v -0.2 0.3 0.1
v -0.2 0.4 0.1
v -0.1 0.3 0.1
v -0.1 0.4 0.1
v 0 -0.6 0.1
v 0 -0.2 0.1
v -0.2 -0.2 0
v -0.2 -0.1 0
v -0.2 0 0
v -0.2 0.3 0
v -0.2 0.4 0
v -0.2 0.6 0
v -0.1 0 0
v -0.1 0.3 0
v -0.1 0.4 0
v -0.1 0.6 0
v 0 -0.2 0
v 0 -0.1 0
v 0.2 0.7 0
v 0.2 0.8 0
v 0.3 0.7 0
v 0.3 0.8 0
v -0.3 -0.8 -0.1
v -0.3 -0.7 -0.1
v -0.2 -0.8 -0.1
v -0.2 -0.7 -0.1
v -0.2 -0.6 -0.1
v -0.2 -0.1 -0.1
v -0.2 0 -0.1
v -0.2 0.6 -0.1
v -0.2 0.9 -0.1
v -0.1 -0.8 -0.1
v -0.1 -0.7 -0.1
v -0.1 -0.6 -0.1
v -0.1 -0.1 -0.1
v -0.1 0 -0.1
v -0.1 0.6 -0.1
v -0.1 0.7 -0.1
v -0.1 0.8 -0.1
v -0.1 0.9 -0.1
v 0 -0.8 -0.1
v 0 -0.7 -0.1
v 0 0.7 -0.1
v 0 0.8 -0.1
v 0 0.9 -0.1
v 0.2 0.3 -0.1
v 0.2 0.7 -0.1
v 0.2 0.8 -0.1
v 0.3 0.7 -0.1
v 0.3 0.8 -0.1
v 0.3 0.9 -0.1
v 0.4 0.3 -0.1
v 0.4 0.7 -0.1
v -0.2 -0.8 -0.2
v -0.2 -0.7 -0.2
v -0.2 -0.6 -0.2
v -0.2 -0.3 -0.2
v -0.2 0.2 -0.2
v -0.2 0.3 -0.2
v -0.1 -0.8 -0.2
v -0.1 -0.7 -0.2
v -0.1 -0.6 -0.2
v -0.1 -0.3 -0.2
v -0.1 0.2 -0.2
v -0.1 0.3 -0.2
v 0 -0.7 -0.2
v 0 -0.3 -0.2
v -0.3 0.1 -0.4
v -0.3 0.2 -0.4
v -0.2 -0.3 -0.4
v -0.2 0.1 -0.4
v -0.2 0.2 -0.4
v -0.1 -0.8 -0.4
v -0.1 -0.7 -0.4
v -0.1 0.2 -0.4
v 0 -0.8 -0.4
v 0 -0.7 -0.4
v 0 -0.3 -0.4
v 0 0.1 -0.4
v 0 0.2 -0.4
v -0.3 0.3 0.3
v -0.3 0.4 0.3
v -0.2 -0.1 0.3
v -0.2 0.3 0.3
v -0.2 0.4 0.3
v -0.1 0.4 0.3
v 0 -0.1 0.3
v 0 0.3 0.3
v 0 0.4 0.3
v -0.2 0.4 0.1
v -0.2 0.5 0.1
v -0.1 0.4 0.1
v -0.1 0.5 0.1
v -0.2 -0.6 -0.1
v -0.2 -0.3 -0.1
v -0.2 0 -0.1
v -0.2 0.1 -0.1
v -0.2 0.2 -0.1
v -0.2 0.6 -0.1
v -0.1 -0.6 -0.1
v -0.1 -0.3 -0.1
v -0.1 -0.2 -0.1
v -0.1 -0.1 -0.1
v -0.1 0 -0.1
v -0.1 0.1 -0.1
v -0.1 0.2 -0.1
v -0.1 0.6 -0.1
v 0 -0.6 -0.1
v 0 -0.2 -0.1
v 0 -0.1 -0.1
v -0.3 -0.8 -0.2
v -0.3 -0.7 -0.2
v -0.2 -0.8 -0.2
v -0.2 -0.7 -0.2
v -0.2 -0.3 -0.2
v -0.2 0 -0.2
v -0.2 0.1 -0.2
v -0.2 0.2 -0.2
v -0.2 0.6 -0.2
v -0.2 0.9 -0.2
v -0.1 -0.8 -0.2
v -0.1 -0.7 -0.2
v -0.1 -0.3 -0.2
v -0.1 0 -0.2
v -0.1 0.1 -0.2
v -0.1 0.2 -0.2
v -0.1 0.6 -0.2
v -0.1 0.7 -0.2
v -0.1 0.8 -0.2
v -0.1 0.9 -0.2
v 0 -0.8 -0.2
v 0 -0.7 -0.2
v 0 0.7 -0.2
v 0 0.8 -0.2
v 0 0.9 -0.2
v 0.2 0.8 -0.2
v 0.3 0.8 -0.2
v 0.3 0.9 -0.2
v -0.2 -0.7 -0.3
v -0.2 -0.3 -0.3
v -0.1 -0.7 -0.3
v 0 -0.7 -0.3
v 0 -0.3 -0.3
v 0.2 0.3 -0.3
v 0.2 0.7 -0.3
v 0.2 0.8 -0.3
v 0.3 0.7 -0.3
v 0.3 0.8 -0.3
v 0.4 0.3 -0.3
v 0.4 0.7 -0.3
v -0.2 -0.8 -0.4
v -0.2 -0.7 -0.4
v -0.1 -0.8 -0.4
v -0.1 -0.7 -0.4
v -0.3 0.1 -0.5
v -0.3 0.2 -0.5
v -0.2 0.1 -0.5
v -0.2 0.2 -0.5
v -0.2 0.3 -0.5
v -0.1 -0.8 -0.5
v -0.1 -0.7 -0.5
v -0.1 0.2 -0.5
v -0.1 0.3 -0.5
v 0 -0.8 -0.5
v 0 -0.7 -0.5
v 0 0.1 -0.5
v 0 0.2 -0.5
v -0.2 -0.3 -0.6
v -0.2 0.1 -0.6
v 0 -0.3 -0.6
v 0 0.1 -0.6
v -0.3 -0.8 -0.1
v -0.2 -0.8 -0.1
v -0.1 -0.8 -0.1
v 0 -0.8 -0.1
v -0.3 -0.8 -0.2
v -0.2 -0.8 -0.2
v -0.1 -0.8 -0.2
v 0 -0.8 -0.2
v -0.2 -0.8 -0.4
v -0.1 -0.8 -0.4
v 0 -0.8 -0.4
v -0.1 -0.8 -0.5
v 0 -0.8 -0.5
v -0.2 -0.7 -0.1
v -0.1 -0.7 -0.1
v -0.2 -0.7 -0.2
v -0.1 -0.7 -0.2
v 0 -0.7 -0.2
v -0.1 -0.7 -0.3
v 0 -0.7 -0.3
v -0.2 -0.6 0.1
v 0 -0.6 0.1
v -0.2 -0.6 -0.1
v -0.1 -0.6 -0.1
v 0 -0.6 -0.1
v -0.2 -0.3 -0.1
v -0.1 -0.3 -0.1
v -0.2 -0.3 -0.2
v -0.1 -0.3 -0.2
v -0.2 -0.3 -0.4
v 0 -0.3 -0.4
v -0.2 -0.3 -0.6
v 0 -0.3 -0.6
v -0.2 -0.1 0.5
v 0 -0.1 0.5
v -0.2 -0.1 0.3
v 0 -0.1 0.3
v -0.2 0 0
v -0.1 0 0
v -0.2 0 -0.1
v -0.1 0 -0.1
v -0.2 0.1 -0.1
v -0.1 0.1 -0.1
v -0.2 0.1 -0.2
v -0.1 0.1 -0.2
v -0.3 0.1 -0.4
v -0.2 0.1 -0.4
v -0.3 0.1 -0.5
v -0.2 0.1 -0.5
v -0.2 0.2 -0.2
v -0.1 0.2 -0.2
v -0.2 0.2 -0.4
v -0.1 0.2 -0.4
v -0.3 0.3 0.4
v -0.2 0.3 0.4
v -0.3 0.3 0.3
v -0.2 0.3 0.3
v -0.2 0.3 0.1
v -0.1 0.3 0.1
v -0.2 0.3 0
v -0.1 0.3 0
v 0.2 0.3 -0.1
v 0.4 0.3 -0.1
v 0.2 0.3 -0.3
v 0.4 0.3 -0.3
v -0.2 0.4 0.3
v -0.1 0.4 0.3
v -0.2 0.4 0.1
v -0.1 0.4 0.1
v -0.2 0.6 -0.1
v -0.1 0.6 -0.1
v -0.2 0.6 -0.2
v -0.1 0.6 -0.2
v 0.2 0.7 0
v 0.3 0.7 0
v -0.1 0.7 -0.1
v 0 0.7 -0.1
v 0.2 0.7 -0.1
v 0.3 0.7 -0.1
v -0.1 0.7 -0.2
v 0 0.7 -0.2
v 0 0.8 -0.1
v 0.2 0.8 -0.1
v 0 0.8 -0.2
v 0.2 0.8 -0.2
v -0.3 -0.7 -0.1
v -0.2 -0.7 -0.1
v -0.1 -0.7 -0.1
v 0 -0.7 -0.1
v -0.3 -0.7 -0.2
v -0.2 -0.7 -0.2
v -0.1 -0.7 -0.2
v 0 -0.7 -0.2
v -0.2 -0.7 -0.3
v -0.1 -0.7 -0.3
v -0.2 -0.7 -0.4
v -0.1 -0.7 -0.4
v 0 -0.7 -0.4
v -0.1 -0.7 -0.5
v 0 -0.7 -0.5
v -0.2 -0.6 -0.1
v -0.1 -0.6 -0.1
v -0.2 -0.6 -0.2
v -0.1 -0.6 -0.2
v -0.2 -0.3 -0.2
v -0.1 -0.3 -0.2
v 0 -0.3 -0.2
v -0.2 -0.3 -0.3
v 0 -0.3 -0.3
v -0.2 -0.2 0.1
v 0 -0.2 0.1
v -0.2 -0.2 0
v 0 -0.2 0
v -0.2 -0.1 0
v 0 -0.1 0
v -0.2 -0.1 -0.1
v -0.1 -0.1 -0.1
v 0 -0.1 -0.1
v -0.2 0 -0.1
v -0.1 0 -0.1
v -0.2 0 -0.2
v -0.1 0 -0.2
v -0.2 0.1 -0.5
v 0 0.1 -0.5
v -0.2 0.1 -0.6
v 0 0.1 -0.6
v -0.2 0.2 -0.1
v -0.1 0.2 -0.1
v -0.2 0.2 -0.2
v -0.1 0.2 -0.2
v -0.3 0.2 -0.4
v -0.2 0.2 -0.4
v -0.1 0.2 -0.4
v 0 0.2 -0.4
v -0.3 0.2 -0.5
v -0.2 0.2 -0.5
v -0.1 0.2 -0.5
v 0 0.2 -0.5
v -0.1 0.3 0.5
v 0 0.3 0.5
v -0.1 0.3 0.4
v 0 0.3 0.4
v -0.2 0.3 -0.2
v -0.1 0.3 -0.2
v -0.2 0.3 -0.5
v -0.1 0.3 -0.5
v -0.2 0.4 0.5
v -0.1 0.4 0.5
v -0.3 0.4 0.4
v -0.2 0.4 0.4
v -0.1 0.4 0.4
v 0 0.4 0.4
v -0.3 0.4 0.3
v -0.2 0.4 0.3
v -0.1 0.4 0.3
v 0 0.4 0.3
v -0.2 0.4 0.1
v -0.1 0.4 0.1
v -0.2 0.4 0
v -0.1 0.4 0
v -0.2 0.5 0.4
v -0.1 0.5 0.4
v -0.2 0.5 0.1
v -0.1 0.5 0.1
v -0.2 0.6 0
v -0.1 0.6 0
v -0.2 0.6 -0.1
v -0.1 0.6 -0.1
v 0.3 0.7 -0.1
v 0.4 0.7 -0.1
v 0.3 0.7 -0.3
v 0.4 0.7 -0.3
v 0.2 0.8 0
v 0.3 0.8 0
v -0.1 0.8 -0.1
v 0 0.8 -0.1
v 0.2 0.8 -0.1
v 0.3 0.8 -0.1
v -0.1 0.8 -0.2
v 0 0.8 -0.2
v 0.2 0.8 -0.2
v 0.3 0.8 -0.2
v 0.2 0.8 -0.3
v 0.3 0.8 -0.3
v -0.2 0.9 -0.1
v -0.1 0.9 -0.1
v 0 0.9 -0.1
v 0.3 0.9 -0.1
v -0.2 0.9 -0.2
v -0.1 0.9 -0.2
v 0 0.9 -0.2
v 0.3 0.9 -0.2

# faces
f 3/2/1 2/2/1 1/2/1
f 4/2/1 2/2/1 3/2/1
f 7/3/1 6/3/1 5/3/1
f 8/3/1 6/3/1 7/3/1
f 11/3/1 10/3/1 9/3/1
f 12/3/1 10/3/1 11/3/1
f 16/2/1 14/2/1 13/2/1
f 17/2/1 14/2/1 16/2/1
f 18/2/1 14/2/1 17/2/1
f 20/2/1 16/2/1 15/2/1
f 20/2/1 17/2/1 16/2/1
f 21/2/1 17/2/1 20/2/1
f 22/1/1 20/1/1 19/1/1
f 23/2/1 17/2/1 21/2/1
f 24/2/1 17/2/1 23/2/1
f 27/1/1 22/1/1 19/1/1
f 28/1/1 22/1/1 27/1/1
f 29/2/1 23/2/1 22/2/1
f 29/1/1 22/1/1 28/1/1
f 32/3/1 29/3/1 28/3/1
f 33/2/1 23/2/1 29/2/1
f 33/3/1 29/3/1 32/3/1
f 35/2/1 23/2/1 33/2/1
f 36/2/1 23/2/1 35/2/1
f 37/2/1 35/2/1 34/2/1
f 39/1/1 26/1/1 25/1/1
f 40/1/1 26/1/1 39/1/1
f 41/1/1 26/1/1 40/1/1
f 42/2/1 38/2/1 37/2/1
f 42/2/1 37/2/1 34/2/1
f 43/2/1 38/2/1 42/2/1
f 46/1/1 31/1/1 30/1/1
f 47/1/1 31/1/1 46/1/1
f 48/1/1 31/1/1 47/1/1
f 50/2/1 42/2/1 34/2/1
f 51/2/1 45/2/1 44/2/1
f 51/2/1 44/2/1 43/2/1
f 52/2/1 45/2/1 51/2/1
f 53/2/1 47/2/1 46/2/1
f 54/2/1 47/2/1 53/2/1
f 56/2/1 50/2/1 49/2/1
f 57/2/1 42/2/1 50/2/1
f 57/2/1 50/2/1 56/2/1
f 58/2/1 55/2/1 54/2/1
f 58/2/1 56/2/1 55/2/1
f 59/2/1 56/2/1 58/2/1
f 60/2/1 42/2/1 57/2/1
f 61/2/1 42/2/1 60/2/1
f 63/2/1 62/2/1 61/2/1
f 64/2/1 62/2/1 63/2/1
f 69/2/1 66/2/1 65/2/1
f 70/2/1 66/2/1 69/2/1
f 71/2/1 68/2/1 67/2/1
f 72/2/1 68/2/1 71/2/1
f 75/2/1 74/2/1 73/2/1
f 76/2/1 74/2/1 75/2/1
f 80/1/1 78/1/1 77/1/1
f 81/1/1 78/1/1 80/1/1
f 82/3/1 80/3/1 79/3/1
f 82/3/1 81/3/1 80/3/1
f 83/3/1 81/3/1 82/3/1
f 84/3/1 81/3/1 83/3/1
f 85/3/1 81/3/1 84/3/1
f 86/2/2 87/2/2 88/2/2
f 88/2/2 87/2/2 89/2/2
f 90/2/2 91/2/2 93/2/2
f 93/2/2 91/2/2 94/2/2
f 94/2/2 91/2/2 95/2/2
f 92/2/2 93/2/2 96/2/2
f 96/2/2 93/2/2 97/2/2
f 98/2/2 99/2/2 100/2/2
f 100/2/2 99/2/2 101/2/2
f 101/2/2 99/2/2 103/2/2
f 103/2/2 99/2/2 104/2/2
f 102/2/2 103/2/2 105/2/2
f 102/2/2 105/2/2 107/2/2
f 105/2/2 106/2/2 107/2/2
f 107/2/2 106/2/2 108/2/2
f 102/2/2 107/2/2 114/2/2
f 108/2/2 109/2/2 115/2/2
f 109/2/2 110/2/2 115/2/2
f 115/2/2 110/2/2 116/2/2
f 111/2/2 112/2/2 117/2/2
f 117/2/2 112/2/2 118/2/2
f 113/2/2 114/2/2 120/2/2
f 114/2/2 107/2/2 121/2/2
f 120/2/2 114/2/2 121/2/2
f 118/2/2 119/2/2 122/2/2
f 119/2/2 120/2/2 122/2/2
f 122/2/2 120/2/2 123/2/2
f 121/2/2 107/2/2 124/2/2
f 124/2/2 107/2/2 125/2/2
f 125/2/2 126/2/2 127/2/2
f 127/2/2 126/2/2 128/2/2
f 129/2/2 130/2/2 131/2/2
f 131/2/2 130/2/2 132/2/2
f 133/2/2 134/2/2 137/2/2
f 137/2/2 134/2/2 138/2/2
f 135/2/2 136/2/2 140/2/2
f 140/2/2 136/2/2 141/2/2
f 138/2/2 139/2/2 144/2/2
f 144/2/2 139/2/2 145/2/2
f 142/1/2 143/1/2 148/1/2
f 148/1/2 143/1/2 149/1/2
f 149/1/2 143/1/2 150/1/2
f 149/3/2 150/3/2 153/3/2
f 153/3/2 150/3/2 154/3/2
f 146/1/2 147/1/2 155/1/2
f 155/1/2 147/1/2 156/1/2
f 156/1/2 147/1/2 157/1/2
f 155/3/2 156/3/2 158/3/2
f 158/3/2 156/3/2 159/3/2
f 151/1/2 152/1/2 160/1/2
f 160/1/2 152/1/2 161/1/2
f 161/1/2 152/1/2 162/1/2
f 161/3/2 162/3/2 163/3/2
f 163/3/2 162/3/2 164/3/2
f 165/2/2 166/2/2 167/2/2
f 167/2/2 166/2/2 168/2/2
f 169/3/2 170/3/2 172/3/2
f 170/3/2 171/3/2 172/3/2
f 172/3/2 171/3/2 173/3/2
f 173/3/2 171/3/2 174/3/2
f 174/3/2 171/3/2 175/3/2
f 173/2/2 174/2/2 176/2/2
f 176/2/2 174/2/2 177/2/2
f 178/1/2 179/1/2 180/1/2
f 180/1/2 179/1/2 181/1/2
f 185/1/3 183/1/3 182/1/3
f 185/2/3 184/2/3 183/2/3
f 186/2/3 184/2/3 185/2/3
f 187/1/3 185/1/3 182/1/3
f 188/1/3 185/1/3 187/1/3
f 191/3/3 190/3/3 189/3/3
f 192/3/3 190/3/3 191/3/3
f 195/2/3 193/2/3 192/2/3
f 196/2/3 193/2/3 195/2/3
f 197/3/3 195/3/3 194/3/3
f 198/3/3 195/3/3 197/3/3
f 203/2/3 202/2/3 201/2/3
f 204/2/3 202/2/3 203/2/3
f 205/1/3 200/1/3 199/1/3
f 206/1/3 200/1/3 205/1/3
f 213/2/3 210/2/3 209/2/3
f 214/2/3 210/2/3 213/2/3
f 215/2/3 212/2/3 211/2/3
f 216/2/3 212/2/3 215/2/3
f 217/3/3 208/3/3 207/3/3
f 218/3/3 208/3/3 217/3/3
f 221/3/3 220/3/3 219/3/3
f 222/3/3 220/3/3 221/3/3
f 225/2/3 224/2/3 223/2/3
f 226/2/3 224/2/3 225/2/3
f 233/2/3 227/2/3 226/2/3
f 234/2/3 227/2/3 233/2/3
f 235/2/3 229/2/3 228/2/3
f 236/2/3 229/2/3 235/2/3
f 237/2/3 231/2/3 230/2/3
f 238/2/3 231/2/3 237/2/3
f 239/2/3 231/2/3 238/2/3
f 240/2/3 231/2/3 239/2/3
f 241/2/3 233/2/3 232/2/3
f 242/2/3 233/2/3 241/2/3
f 243/2/3 239/2/3 238/2/3
f 244/2/3 239/2/3 243/2/3
f 248/2/3 245/2/3 244/2/3
f 249/1/3 247/1/3 246/1/3
f 250/2/3 245/2/3 248/2/3
f 251/2/3 245/2/3 250/2/3
f 252/1/3 249/1/3 246/1/3
f 253/1/3 249/1/3 252/1/3
f 260/2/3 255/2/3 254/2/3
f 261/2/3 255/2/3 260/2/3
f 262/2/3 257/2/3 256/2/3
f 263/2/3 257/2/3 262/2/3
f 264/2/3 259/2/3 258/2/3
f 265/2/3 259/2/3 264/2/3
f 266/2/3 263/2/3 262/2/3
f 266/2/3 262/2/3 261/2/3
f 267/2/3 263/2/3 266/2/3
f 271/3/3 269/3/3 268/3/3
f 272/3/3 269/3/3 271/3/3
f 275/3/3 272/3/3 271/3/3
f 276/2/3 274/2/3 273/2/3
f 277/2/3 274/2/3 276/2/3
f 278/1/3 271/1/3 270/1/3
f 279/3/3 275/3/3 271/3/3
f 279/1/3 271/1/3 278/1/3
f 280/3/3 275/3/3 279/3/3
f 281/3/4 282/3/4 284/3/4
f 284/3/4 282/3/4 285/3/4
f 284/3/4 285/3/4 286/3/4
f 283/1/4 284/1/4 287/1/4
f 284/3/4 286/3/4 288/3/4
f 287/1/4 284/1/4 288/1/4
f 288/3/4 286/3/4 289/3/4
f 290/2/4 291/2/4 292/2/4
f 292/2/4 291/2/4 293/2/4
f 294/1/4 295/1/4 300/1/4
f 300/1/4 295/1/4 301/1/4
f 296/2/4 297/2/4 304/2/4
f 304/2/4 297/2/4 305/2/4
f 298/2/4 299/2/4 306/2/4
f 306/2/4 299/2/4 307/2/4
f 300/1/4 301/1/4 308/1/4
f 301/1/4 302/1/4 308/1/4
f 302/3/4 303/3/4 309/3/4
f 308/1/4 302/1/4 309/1/4
f 309/3/4 303/3/4 310/3/4
f 311/2/4 312/2/4 313/2/4
f 313/2/4 312/2/4 314/2/4
f 315/2/4 316/2/4 323/2/4
f 323/2/4 316/2/4 324/2/4
f 317/2/4 318/2/4 325/2/4
f 325/2/4 318/2/4 326/2/4
f 319/2/4 320/2/4 327/2/4
f 327/2/4 320/2/4 328/2/4
f 328/2/4 320/2/4 329/2/4
f 329/2/4 320/2/4 330/2/4
f 321/2/4 322/2/4 331/2/4
f 331/2/4 322/2/4 332/2/4
f 328/2/4 329/2/4 333/2/4
f 333/2/4 329/2/4 334/2/4
f 334/2/4 335/2/4 336/2/4
f 336/2/4 335/2/4 337/2/4
f 337/2/4 335/2/4 338/2/4
f 339/2/4 340/2/4 341/2/4
f 341/2/4 340/2/4 342/2/4
f 342/2/4 340/2/4 343/2/4
f 344/1/4 345/1/4 347/1/4
f 345/3/4 346/3/4 347/3/4
f 347/3/4 346/3/4 348/3/4
f 344/1/4 347/1/4 349/1/4
f 349/1/4 347/1/4 350/1/4
f 351/2/4 352/2/4 353/2/4
f 353/2/4 352/2/4 354/2/4
f 355/3/4 356/3/4 357/3/4
f 357/3/4 356/3/4 358/3/4
f 357/3/4 358/3/4 362/3/4
f 358/2/4 359/2/4 362/2/4
f 362/2/4 359/2/4 363/2/4
f 360/2/4 361/2/4 364/2/4
f 364/2/4 361/2/4 365/2/4
f 357/3/4 362/3/4 366/3/4
f 366/3/4 362/3/4 367/3/4
f 368/1/4 369/1/4 370/1/4
f 370/1/4 369/1/4 371/1/4
f 376/2/5 373/2/5 372/2/5
f 377/2/5 373/2/5 376/2/5
f 378/2/5 375/2/5 374/2/5
f 379/2/5 375/2/5 378/2/5
f 380/2/5 378/2/5 377/2/5
f 381/2/5 378/2/5 380/2/5
f 383/2/5 382/2/5 381/2/5
f 384/2/5 382/2/5 383/2/5
f 387/2/5 386/2/5 385/2/5
f 388/2/5 386/2/5 387/2/5
f 390/2/5 389/2/5 388/2/5
f 391/2/5 389/2/5 390/2/5
f 394/1/5 393/1/5 392/1/5
f 395/1/5 393/1/5 394/1/5
f 396/1/5 393/1/5 395/1/5
f 399/2/5 398/2/5 397/2/5
f 400/2/5 398/2/5 399/2/5
f 403/1/5 402/1/5 401/1/5
f 404/1/5 402/1/5 403/1/5
f 407/1/5 406/1/5 405/1/5
f 408/1/5 406/1/5 407/1/5
f 411/2/5 410/2/5 409/2/5
f 412/2/5 410/2/5 411/2/5
f 415/2/5 414/2/5 413/2/5
f 416/2/5 414/2/5 415/2/5
f 419/3/5 418/3/5 417/3/5
f 420/3/5 418/3/5 419/3/5
f 423/2/5 422/2/5 421/2/5
f 424/2/5 422/2/5 423/2/5
f 427/3/5 426/3/5 425/3/5
f 428/3/5 426/3/5 427/3/5
f 431/2/5 430/2/5 429/2/5
f 432/2/5 430/2/5 431/2/5
f 435/1/5 434/1/5 433/1/5
f 436/1/5 434/1/5 435/1/5
f 439/2/5 438/2/5 437/2/5
f 440/2/5 438/2/5 439/2/5
f 443/2/5 442/2/5 441/2/5
f 444/2/5 442/2/5 443/2/5
f 449/3/5 446/3/5 445/3/5
f 450/3/5 446/3/5 449/3/5
f 451/2/5 448/2/5 447/2/5
f 452/2/5 448/2/5 451/2/5
f 455/2/5 454/2/5 453/2/5
f 456/2/5 454/2/5 455/2/5
f 457/2/6 458/2/6 461/2/6
f 461/2/6 458/2/6 462/2/6
f 459/2/6 460/2/6 463/2/6
f 463/2/6 460/2/6 464/2/6
f 465/2/6 466/2/6 467/2/6
f 467/2/6 466/2/6 468/2/6
f 468/2/6 469/2/6 470/2/6
f 470/2/6 469/2/6 471/2/6
f 472/2/6 473/2/6 474/2/6
f 474/2/6 473/2/6 475/2/6
f 476/2/6 477/2/6 479/2/6
f 477/2/6 478/2/6 479/2/6
f 479/2/6 478/2/6 480/2/6
f 481/1/6 482/1/6 483/1/6
f 483/1/6 482/1/6 484/1/6
f 485/3/6 486/3/6 487/3/6
f 487/3/6 486/3/6 488/3/6
f 488/3/6 486/3/6 489/3/6
f 490/2/6 491/2/6 492/2/6
f 492/2/6 491/2/6 493/2/6
f 494/1/6 495/1/6 496/1/6
f 496/1/6 495/1/6 497/1/6
f 498/2/6 499/2/6 500/2/6
f 500/2/6 499/2/6 501/2/6
f 502/3/6 503/3/6 506/3/6
f 506/3/6 503/3/6 507/3/6
f 504/3/6 505/3/6 508/3/6
f 508/3/6 505/3/6 509/3/6
f 510/1/6 511/1/6 512/1/6
f 512/1/6 511/1/6 513/1/6
f 514/2/6 515/2/6 516/2/6
f 516/2/6 515/2/6 517/2/6
f 518/2/6 519/2/6 521/2/6
f 521/2/6 519/2/6 522/2/6
f 520/3/6 521/3/6 524/3/6
f 524/3/6 521/3/6 525/3/6
f 522/3/6 523/3/6 526/3/6
f 526/3/6 523/3/6 527/3/6
f 528/2/6 529/2/6 530/2/6
f 530/2/6 529/2/6 531/2/6
f 532/2/6 533/2/6 534/2/6
f 534/2/6 533/2/6 535/2/6
f 536/2/6 537/2/6 538/2/6
f 538/2/6 537/2/6 539/2/6
f 540/1/6 541/1/6 542/1/6
f 542/1/6 541/1/6 543/1/6
f 544/3/6 545/3/6 548/3/6
f 548/3/6 545/3/6 549/3/6
f 546/2/6 547/2/6 550/2/6
f 550/2/6 547/2/6 551/2/6
f 552/3/6 553/3/6 554/3/6
f 554/3/6 553/3/6 555/3/6
f 556/2/6 557/2/6 560/2/6
f 560/2/6 557/2/6 561/2/6
f 558/2/6 559/2/6 562/2/6
f 562/2/6 559/2/6 563/2/6
