# MagicaVoxel @ Ephtracy

# group
o 

# material
mtllib YFloor_1.mtl
usemtl palette

# normals
vn -1 0 0
vn 1 0 0
vn 0 0 1
vn 0 0 -1
vn 0 -1 0
vn 0 1 0

# texcoords
vt 0.306641 0.5
vt 0.970703 0.5
vt 0.978516 0.5
vt 0.982422 0.5

# verts
v -0.5 -0.4 0.5
v -0.5 -0.4 0.4
v -0.5 -0.4 0.2
v -0.5 -0.4 0
v -0.5 -0.4 -0.2
v -0.5 -0.4 -0.4
v -0.5 -0.4 -0.5
v -0.5 -0.2 0.5
v -0.5 -0.2 0.4
v -0.5 -0.2 0.2
v -0.5 -0.2 0
v -0.5 -0.2 -0.2
v -0.5 -0.2 -0.4
v -0.5 -0.2 -0.5
v -0.5 0 0.5
v -0.5 0 0.4
v -0.5 0 0.2
v -0.5 0 0
v -0.5 0 -0.2
v -0.5 0 -0.4
v -0.5 0 -0.5
v -0.5 0.5 0.5
v -0.5 0.5 -0.5
v 0.4 -0.3 0.4
v 0.4 -0.3 0.2
v 0.4 -0.3 0
v 0.4 -0.3 -0.2
v 0.4 -0.3 -0.4
v 0.4 -0.2 0.4
v 0.4 -0.2 0.2
v 0.4 -0.2 0
v 0.4 -0.2 -0.2
v 0.4 -0.2 -0.4
v 0.4 0 0.4
v 0.4 0 0.2
v 0.4 0 0
v 0.4 0 -0.2
v 0.4 0 -0.4
v 0.4 0.4 0.4
v 0.4 0.4 -0.4
v -0.4 -0.3 0.4
v -0.4 -0.3 0.2
v -0.4 -0.3 0
v -0.4 -0.3 -0.2
v -0.4 -0.3 -0.4
v -0.4 -0.2 0.4
v -0.4 -0.2 0.2
v -0.4 -0.2 0
v -0.4 -0.2 -0.2
v -0.4 -0.2 -0.4
v -0.4 0 0.4
v -0.4 0 0.2
v -0.4 0 0
v -0.4 0 -0.2
v -0.4 0 -0.4
v -0.4 0.4 0.4
v -0.4 0.4 -0.4
v 0.5 -0.4 0.5
v 0.5 -0.4 0.4
v 0.5 -0.4 0.2
v 0.5 -0.4 0
v 0.5 -0.4 -0.2
v 0.5 -0.4 -0.4
v 0.5 -0.4 -0.5
v 0.5 -0.2 0.5
v 0.5 -0.2 0.4
v 0.5 -0.2 0.2
v 0.5 -0.2 0
v 0.5 -0.2 -0.2
v 0.5 -0.2 -0.4
v 0.5 -0.2 -0.5
v 0.5 0 0.5
v 0.5 0 0.4
v 0.5 0 0.2
v 0.5 0 0
v 0.5 0 -0.2
v 0.5 0 -0.4
v 0.5 0 -0.5
v 0.5 0.5 0.5
v 0.5 0.5 -0.5
v -0.5 -0.4 0.5
v -0.5 -0.2 0.5
v -0.5 0 0.5
v -0.5 0.5 0.5
v -0.3 -0.4 0.5
v -0.3 -0.2 0.5
v -0.3 0 0.5
v -0.1 -0.4 0.5
v -0.1 -0.2 0.5
v -0.1 0 0.5
v 0.1 -0.4 0.5
v 0.1 -0.2 0.5
v 0.1 0 0.5
v 0.3 -0.4 0.5
v 0.3 -0.2 0.5
v 0.3 0 0.5
v 0.5 -0.4 0.5
v 0.5 -0.2 0.5
v 0.5 0 0.5
v 0.5 0.5 0.5
v -0.4 -0.3 -0.4
v -0.4 -0.2 -0.4
v -0.4 0 -0.4
v -0.4 0.4 -0.4
v -0.3 -0.3 -0.4
v -0.3 -0.2 -0.4
v -0.3 0 -0.4
v -0.1 -0.3 -0.4
v -0.1 -0.2 -0.4
v -0.1 0 -0.4
v 0.1 -0.3 -0.4
v 0.1 -0.2 -0.4
v 0.1 0 -0.4
v 0.3 -0.3 -0.4
v 0.3 -0.2 -0.4
v 0.3 0 -0.4
v 0.4 -0.3 -0.4
v 0.4 -0.2 -0.4
v 0.4 0 -0.4
v 0.4 0.4 -0.4
v -0.4 -0.3 0.4
v -0.4 -0.2 0.4
v -0.4 0 0.4
v -0.4 0.4 0.4
v -0.3 -0.3 0.4
v -0.3 -0.2 0.4
v -0.3 0 0.4
v -0.1 -0.3 0.4
v -0.1 -0.2 0.4
v -0.1 0 0.4
v 0.1 -0.3 0.4
v 0.1 -0.2 0.4
v 0.1 0 0.4
v 0.3 -0.3 0.4
v 0.3 -0.2 0.4
v 0.3 0 0.4
v 0.4 -0.3 0.4
v 0.4 -0.2 0.4
v 0.4 0 0.4
v 0.4 0.4 0.4
v -0.5 -0.4 -0.5
v -0.5 -0.2 -0.5
v -0.5 0 -0.5
v -0.5 0.5 -0.5
v -0.3 -0.4 -0.5
v -0.3 -0.2 -0.5
v -0.3 0 -0.5
v -0.1 -0.4 -0.5
v -0.1 -0.2 -0.5
v -0.1 0 -0.5
v 0.1 -0.4 -0.5
v 0.1 -0.2 -0.5
v 0.1 0 -0.5
v 0.3 -0.4 -0.5
v 0.3 -0.2 -0.5
v 0.3 0 -0.5
v 0.5 -0.4 -0.5
v 0.5 -0.2 -0.5
v 0.5 0 -0.5
v 0.5 0.5 -0.5
v -0.5 -0.4 0.5
v -0.3 -0.4 0.5
v -0.1 -0.4 0.5
v 0.1 -0.4 0.5
v 0.3 -0.4 0.5
v 0.5 -0.4 0.5
v -0.5 -0.4 0.4
v -0.4 -0.4 0.4
v -0.3 -0.4 0.4
v -0.1 -0.4 0.4
v 0.1 -0.4 0.4
v 0.3 -0.4 0.4
v 0.4 -0.4 0.4
v 0.5 -0.4 0.4
v -0.5 -0.4 0.2
v -0.4 -0.4 0.2
v 0.4 -0.4 0.2
v 0.5 -0.4 0.2
v -0.5 -0.4 0
v -0.4 -0.4 0
v 0.4 -0.4 0
v 0.5 -0.4 0
v -0.5 -0.4 -0.2
v -0.4 -0.4 -0.2
v 0.4 -0.4 -0.2
v 0.5 -0.4 -0.2
v -0.5 -0.4 -0.4
v -0.4 -0.4 -0.4
v -0.3 -0.4 -0.4
v -0.1 -0.4 -0.4
v 0.1 -0.4 -0.4
v 0.3 -0.4 -0.4
v 0.4 -0.4 -0.4
v 0.5 -0.4 -0.4
v -0.5 -0.4 -0.5
v -0.3 -0.4 -0.5
v -0.1 -0.4 -0.5
v 0.1 -0.4 -0.5
v 0.3 -0.4 -0.5
v 0.5 -0.4 -0.5
v -0.4 0.4 0.4
v 0.4 0.4 0.4
v -0.4 0.4 -0.4
v 0.4 0.4 -0.4
v -0.4 -0.3 0.4
v -0.3 -0.3 0.4
v -0.1 -0.3 0.4
v 0.1 -0.3 0.4
v 0.3 -0.3 0.4
v 0.4 -0.3 0.4
v -0.4 -0.3 0.2
v 0.4 -0.3 0.2
v -0.4 -0.3 0
v 0.4 -0.3 0
v -0.4 -0.3 -0.2
v 0.4 -0.3 -0.2
v -0.4 -0.3 -0.4
v -0.3 -0.3 -0.4
v -0.1 -0.3 -0.4
v 0.1 -0.3 -0.4
v 0.3 -0.3 -0.4
v 0.4 -0.3 -0.4
v -0.5 0.5 0.5
v 0.5 0.5 0.5
v -0.5 0.5 -0.5
v 0.5 0.5 -0.5

# faces
f 8/3/1 2/3/1 1/3/1
f 9/4/1 3/4/1 2/4/1
f 9/3/1 2/3/1 8/3/1
f 10/3/1 4/3/1 3/3/1
f 10/4/1 3/4/1 9/4/1
f 11/4/1 5/4/1 4/4/1
f 11/3/1 4/3/1 10/3/1
f 12/3/1 6/3/1 5/3/1
f 12/4/1 5/4/1 11/4/1
f 13/4/1 7/4/1 6/4/1
f 13/3/1 6/3/1 12/3/1
f 14/4/1 7/4/1 13/4/1
f 15/4/1 9/4/1 8/4/1
f 16/3/1 10/3/1 9/3/1
f 16/4/1 9/4/1 15/4/1
f 17/4/1 11/4/1 10/4/1
f 17/3/1 10/3/1 16/3/1
f 18/3/1 12/3/1 11/3/1
f 18/4/1 11/4/1 17/4/1
f 19/4/1 13/4/1 12/4/1
f 19/3/1 12/3/1 18/3/1
f 20/3/1 14/3/1 13/3/1
f 20/4/1 13/4/1 19/4/1
f 21/3/1 14/3/1 20/3/1
f 22/2/1 17/2/1 16/2/1
f 22/2/1 16/2/1 15/2/1
f 22/2/1 21/2/1 20/2/1
f 22/2/1 20/2/1 19/2/1
f 22/2/1 19/2/1 18/2/1
f 22/2/1 18/2/1 17/2/1
f 23/2/1 21/2/1 22/2/1
f 29/4/1 25/4/1 24/4/1
f 30/3/1 26/3/1 25/3/1
f 30/4/1 25/4/1 29/4/1
f 31/4/1 27/4/1 26/4/1
f 31/3/1 26/3/1 30/3/1
f 32/3/1 28/3/1 27/3/1
f 32/4/1 27/4/1 31/4/1
f 33/3/1 28/3/1 32/3/1
f 34/3/1 30/3/1 29/3/1
f 35/4/1 31/4/1 30/4/1
f 35/3/1 30/3/1 34/3/1
f 36/3/1 32/3/1 31/3/1
f 36/4/1 31/4/1 35/4/1
f 37/4/1 33/4/1 32/4/1
f 37/3/1 32/3/1 36/3/1
f 38/4/1 33/4/1 37/4/1
f 39/2/1 35/2/1 34/2/1
f 39/2/1 36/2/1 35/2/1
f 39/2/1 38/2/1 37/2/1
f 39/2/1 37/2/1 36/2/1
f 40/2/1 38/2/1 39/2/1
f 41/4/2 42/4/2 46/4/2
f 42/3/2 43/3/2 47/3/2
f 46/4/2 42/4/2 47/4/2
f 43/4/2 44/4/2 48/4/2
f 47/3/2 43/3/2 48/3/2
f 44/3/2 45/3/2 49/3/2
f 48/4/2 44/4/2 49/4/2
f 49/3/2 45/3/2 50/3/2
f 46/3/2 47/3/2 51/3/2
f 47/4/2 48/4/2 52/4/2
f 51/3/2 47/3/2 52/3/2
f 48/3/2 49/3/2 53/3/2
f 52/4/2 48/4/2 53/4/2
f 49/4/2 50/4/2 54/4/2
f 53/3/2 49/3/2 54/3/2
f 54/4/2 50/4/2 55/4/2
f 51/2/2 52/2/2 56/2/2
f 52/2/2 53/2/2 56/2/2
f 54/2/2 55/2/2 56/2/2
f 53/2/2 54/2/2 56/2/2
f 56/2/2 55/2/2 57/2/2
f 58/3/2 59/3/2 65/3/2
f 59/4/2 60/4/2 66/4/2
f 65/3/2 59/3/2 66/3/2
f 60/3/2 61/3/2 67/3/2
f 66/4/2 60/4/2 67/4/2
f 61/4/2 62/4/2 68/4/2
f 67/3/2 61/3/2 68/3/2
f 62/3/2 63/3/2 69/3/2
f 68/4/2 62/4/2 69/4/2
f 63/4/2 64/4/2 70/4/2
f 69/3/2 63/3/2 70/3/2
f 70/4/2 64/4/2 71/4/2
f 65/4/2 66/4/2 72/4/2
f 66/3/2 67/3/2 73/3/2
f 72/4/2 66/4/2 73/4/2
f 67/4/2 68/4/2 74/4/2
f 73/3/2 67/3/2 74/3/2
f 68/3/2 69/3/2 75/3/2
f 74/4/2 68/4/2 75/4/2
f 69/4/2 70/4/2 76/4/2
f 75/3/2 69/3/2 76/3/2
f 70/3/2 71/3/2 77/3/2
f 76/4/2 70/4/2 77/4/2
f 77/3/2 71/3/2 78/3/2
f 73/2/2 74/2/2 79/2/2
f 72/2/2 73/2/2 79/2/2
f 77/2/2 78/2/2 79/2/2
f 76/2/2 77/2/2 79/2/2
f 75/2/2 76/2/2 79/2/2
f 74/2/2 75/2/2 79/2/2
f 79/2/2 78/2/2 80/2/2
f 85/3/3 82/3/3 81/3/3
f 86/4/3 83/4/3 82/4/3
f 86/3/3 82/3/3 85/3/3
f 87/2/3 84/2/3 83/2/3
f 87/4/3 83/4/3 86/4/3
f 88/4/3 86/4/3 85/4/3
f 89/3/3 87/3/3 86/3/3
f 89/4/3 86/4/3 88/4/3
f 90/2/3 84/2/3 87/2/3
f 90/3/3 87/3/3 89/3/3
f 91/3/3 89/3/3 88/3/3
f 92/4/3 90/4/3 89/4/3
f 92/3/3 89/3/3 91/3/3
f 93/2/3 84/2/3 90/2/3
f 93/4/3 90/4/3 92/4/3
f 94/4/3 92/4/3 91/4/3
f 95/3/3 93/3/3 92/3/3
f 95/4/3 92/4/3 94/4/3
f 96/2/3 84/2/3 93/2/3
f 96/3/3 93/3/3 95/3/3
f 97/3/3 95/3/3 94/3/3
f 98/4/3 96/4/3 95/4/3
f 98/3/3 95/3/3 97/3/3
f 99/2/3 84/2/3 96/2/3
f 99/4/3 96/4/3 98/4/3
f 100/2/3 84/2/3 99/2/3
f 105/4/3 102/4/3 101/4/3
f 106/3/3 103/3/3 102/3/3
f 106/4/3 102/4/3 105/4/3
f 107/2/3 104/2/3 103/2/3
f 107/3/3 103/3/3 106/3/3
f 108/3/3 106/3/3 105/3/3
f 109/4/3 107/4/3 106/4/3
f 109/3/3 106/3/3 108/3/3
f 110/2/3 104/2/3 107/2/3
f 110/4/3 107/4/3 109/4/3
f 111/4/3 109/4/3 108/4/3
f 112/3/3 110/3/3 109/3/3
f 112/4/3 109/4/3 111/4/3
f 113/2/3 104/2/3 110/2/3
f 113/3/3 110/3/3 112/3/3
f 114/3/3 112/3/3 111/3/3
f 115/4/3 113/4/3 112/4/3
f 115/3/3 112/3/3 114/3/3
f 116/2/3 104/2/3 113/2/3
f 116/4/3 113/4/3 115/4/3
f 117/4/3 115/4/3 114/4/3
f 118/3/3 116/3/3 115/3/3
f 118/4/3 115/4/3 117/4/3
f 119/2/3 104/2/3 116/2/3
f 119/3/3 116/3/3 118/3/3
f 120/2/3 104/2/3 119/2/3
f 121/3/4 122/3/4 125/3/4
f 122/4/4 123/4/4 126/4/4
f 125/3/4 122/3/4 126/3/4
f 123/2/4 124/2/4 127/2/4
f 126/4/4 123/4/4 127/4/4
f 125/4/4 126/4/4 128/4/4
f 126/3/4 127/3/4 129/3/4
f 128/4/4 126/4/4 129/4/4
f 127/2/4 124/2/4 130/2/4
f 129/3/4 127/3/4 130/3/4
f 128/3/4 129/3/4 131/3/4
f 129/4/4 130/4/4 132/4/4
f 131/3/4 129/3/4 132/3/4
f 130/2/4 124/2/4 133/2/4
f 132/4/4 130/4/4 133/4/4
f 131/4/4 132/4/4 134/4/4
f 132/3/4 133/3/4 135/3/4
f 134/4/4 132/4/4 135/4/4
f 133/2/4 124/2/4 136/2/4
f 135/3/4 133/3/4 136/3/4
f 134/3/4 135/3/4 137/3/4
f 135/4/4 136/4/4 138/4/4
f 137/3/4 135/3/4 138/3/4
f 136/2/4 124/2/4 139/2/4
f 138/4/4 136/4/4 139/4/4
f 139/2/4 124/2/4 140/2/4
f 141/4/4 142/4/4 145/4/4
f 142/3/4 143/3/4 146/3/4
f 145/4/4 142/4/4 146/4/4
f 143/2/4 144/2/4 147/2/4
f 146/3/4 143/3/4 147/3/4
f 145/3/4 146/3/4 148/3/4
f 146/4/4 147/4/4 149/4/4
f 148/3/4 146/3/4 149/3/4
f 147/2/4 144/2/4 150/2/4
f 149/4/4 147/4/4 150/4/4
f 148/4/4 149/4/4 151/4/4
f 149/3/4 150/3/4 152/3/4
f 151/4/4 149/4/4 152/4/4
f 150/2/4 144/2/4 153/2/4
f 152/3/4 150/3/4 153/3/4
f 151/3/4 152/3/4 154/3/4
f 152/4/4 153/4/4 155/4/4
f 154/3/4 152/3/4 155/3/4
f 153/2/4 144/2/4 156/2/4
f 155/4/4 153/4/4 156/4/4
f 154/4/4 155/4/4 157/4/4
f 155/3/4 156/3/4 158/3/4
f 157/4/4 155/4/4 158/4/4
f 156/2/4 144/2/4 159/2/4
f 158/3/4 156/3/4 159/3/4
f 159/2/4 144/2/4 160/2/4
f 167/3/5 162/3/5 161/3/5
f 168/3/5 162/3/5 167/3/5
f 169/4/5 163/4/5 162/4/5
f 169/3/5 162/3/5 168/3/5
f 170/3/5 164/3/5 163/3/5
f 170/4/5 163/4/5 169/4/5
f 171/4/5 165/4/5 164/4/5
f 171/3/5 164/3/5 170/3/5
f 172/3/5 166/3/5 165/3/5
f 172/4/5 165/4/5 171/4/5
f 173/3/5 166/3/5 172/3/5
f 174/3/5 166/3/5 173/3/5
f 175/4/5 168/4/5 167/4/5
f 176/1/5 171/1/5 170/1/5
f 176/4/5 168/4/5 175/4/5
f 176/1/5 169/1/5 168/1/5
f 176/1/5 170/1/5 169/1/5
f 176/1/5 173/1/5 172/1/5
f 176/1/5 172/1/5 171/1/5
f 177/4/5 174/4/5 173/4/5
f 177/1/5 173/1/5 176/1/5
f 178/4/5 174/4/5 177/4/5
f 179/3/5 176/3/5 175/3/5
f 180/1/5 177/1/5 176/1/5
f 180/3/5 176/3/5 179/3/5
f 181/3/5 178/3/5 177/3/5
f 181/1/5 177/1/5 180/1/5
f 182/3/5 178/3/5 181/3/5
f 183/4/5 180/4/5 179/4/5
f 184/1/5 181/1/5 180/1/5
f 184/4/5 180/4/5 183/4/5
f 185/4/5 182/4/5 181/4/5
f 185/1/5 181/1/5 184/1/5
f 186/4/5 182/4/5 185/4/5
f 187/3/5 184/3/5 183/3/5
f 188/1/5 185/1/5 184/1/5
f 188/3/5 184/3/5 187/3/5
f 189/1/5 185/1/5 188/1/5
f 190/1/5 185/1/5 189/1/5
f 191/1/5 185/1/5 190/1/5
f 192/1/5 185/1/5 191/1/5
f 193/3/5 186/3/5 185/3/5
f 193/1/5 185/1/5 192/1/5
f 194/3/5 186/3/5 193/3/5
f 195/4/5 188/4/5 187/4/5
f 195/4/5 189/4/5 188/4/5
f 196/3/5 190/3/5 189/3/5
f 196/4/5 189/4/5 195/4/5
f 197/4/5 191/4/5 190/4/5
f 197/3/5 190/3/5 196/3/5
f 198/3/5 192/3/5 191/3/5
f 198/4/5 191/4/5 197/4/5
f 199/4/5 194/4/5 193/4/5
f 199/3/5 192/3/5 198/3/5
f 199/4/5 193/4/5 192/4/5
f 200/4/5 194/4/5 199/4/5
f 203/2/5 202/2/5 201/2/5
f 204/2/5 202/2/5 203/2/5
f 205/1/6 206/1/6 211/1/6
f 209/1/6 210/1/6 211/1/6
f 208/1/6 209/1/6 211/1/6
f 207/1/6 208/1/6 211/1/6
f 206/1/6 207/1/6 211/1/6
f 211/1/6 210/1/6 212/1/6
f 211/1/6 212/1/6 213/1/6
f 213/1/6 212/1/6 214/1/6
f 213/1/6 214/1/6 215/1/6
f 215/1/6 214/1/6 216/1/6
f 215/1/6 216/1/6 217/1/6
f 217/1/6 216/1/6 218/1/6
f 218/1/6 216/1/6 219/1/6
f 219/1/6 216/1/6 220/1/6
f 220/1/6 216/1/6 221/1/6
f 221/1/6 216/1/6 222/1/6
f 223/2/6 224/2/6 225/2/6
f 225/2/6 224/2/6 226/2/6
