# MagicaVoxel @ Ephtracy

# group
o 

# material
mtllib YFloor_2.mtl
usemtl palette

# normals
vn -1 0 0
vn 1 0 0
vn 0 0 1
vn 0 0 -1
vn 0 -1 0
vn 0 1 0

# texcoords
vt 0.306641 0.5
vt 0.978516 0.5
vt 0.982422 0.5
vt 0.990234 0.5

# verts
v -0.5 -0.4 0.5
v -0.5 -0.4 0.4
v -0.5 -0.4 0.2
v -0.5 -0.4 0
v -0.5 -0.4 -0.2
v -0.5 -0.4 -0.4
v -0.5 -0.4 -0.5
v -0.5 -0.2 0.5
v -0.5 -0.2 0.4
v -0.5 -0.2 0.2
v -0.5 -0.2 0
v -0.5 -0.2 -0.2
v -0.5 -0.2 -0.4
v -0.5 -0.2 -0.5
v -0.5 0 0.5
v -0.5 0 0.4
v -0.5 0 0.2
v -0.5 0 0
v -0.5 0 -0.2
v -0.5 0 -0.4
v -0.5 0 -0.5
v -0.5 0.5 0.5
v -0.5 0.5 -0.5
v 0.4 -0.3 0.4
v 0.4 -0.3 0.2
v 0.4 -0.3 0
v 0.4 -0.3 -0.2
v 0.4 -0.3 -0.4
v 0.4 -0.2 0.4
v 0.4 -0.2 0.2
v 0.4 -0.2 0
v 0.4 -0.2 -0.2
v 0.4 -0.2 -0.4
v 0.4 0 0.4
v 0.4 0 0.2
v 0.4 0 0
v 0.4 0 -0.2
v 0.4 0 -0.4
v 0.4 0.4 0.4
v 0.4 0.4 -0.4
v -0.4 -0.3 0.4
v -0.4 -0.3 0.2
v -0.4 -0.3 0
v -0.4 -0.3 -0.2
v -0.4 -0.3 -0.4
v -0.4 -0.2 0.4
v -0.4 -0.2 0.2
v -0.4 -0.2 0
v -0.4 -0.2 -0.2
v -0.4 -0.2 -0.4
v -0.4 0 0.4
v -0.4 0 0.2
v -0.4 0 0
v -0.4 0 -0.2
v -0.4 0 -0.4
v -0.4 0.4 0.4
v -0.4 0.4 -0.4
v 0.5 -0.4 0.5
v 0.5 -0.4 0.4
v 0.5 -0.4 0.2
v 0.5 -0.4 0
v 0.5 -0.4 -0.2
v 0.5 -0.4 -0.4
v 0.5 -0.4 -0.5
v 0.5 -0.2 0.5
v 0.5 -0.2 0.4
v 0.5 -0.2 0.2
v 0.5 -0.2 0
v 0.5 -0.2 -0.2
v 0.5 -0.2 -0.4
v 0.5 -0.2 -0.5
v 0.5 0 0.5
v 0.5 0 0.4
v 0.5 0 0.2
v 0.5 0 0
v 0.5 0 -0.2
v 0.5 0 -0.4
v 0.5 0 -0.5
v 0.5 0.5 0.5
v 0.5 0.5 -0.5
v -0.5 -0.4 0.5
v -0.5 -0.2 0.5
v -0.5 0 0.5
v -0.5 0.5 0.5
v -0.3 -0.4 0.5
v -0.3 -0.2 0.5
v -0.3 0 0.5
v -0.1 -0.4 0.5
v -0.1 -0.2 0.5
v -0.1 0 0.5
v 0.1 -0.4 0.5
v 0.1 -0.2 0.5
v 0.1 0 0.5
v 0.3 -0.4 0.5
v 0.3 -0.2 0.5
v 0.3 0 0.5
v 0.5 -0.4 0.5
v 0.5 -0.2 0.5
v 0.5 0 0.5
v 0.5 0.5 0.5
v -0.4 -0.3 -0.4
v -0.4 -0.2 -0.4
v -0.4 0 -0.4
v -0.4 0.4 -0.4
v -0.3 -0.3 -0.4
v -0.3 -0.2 -0.4
v -0.3 0 -0.4
v -0.1 -0.3 -0.4
v -0.1 -0.2 -0.4
v -0.1 0 -0.4
v 0.1 -0.3 -0.4
v 0.1 -0.2 -0.4
v 0.1 0 -0.4
v 0.3 -0.3 -0.4
v 0.3 -0.2 -0.4
v 0.3 0 -0.4
v 0.4 -0.3 -0.4
v 0.4 -0.2 -0.4
v 0.4 0 -0.4
v 0.4 0.4 -0.4
v -0.4 -0.3 0.4
v -0.4 -0.2 0.4
v -0.4 0 0.4
v -0.4 0.4 0.4
v -0.3 -0.3 0.4
v -0.3 -0.2 0.4
v -0.3 0 0.4
v -0.1 -0.3 0.4
v -0.1 -0.2 0.4
v -0.1 0 0.4
v 0.1 -0.3 0.4
v 0.1 -0.2 0.4
v 0.1 0 0.4
v 0.3 -0.3 0.4
v 0.3 -0.2 0.4
v 0.3 0 0.4
v 0.4 -0.3 0.4
v 0.4 -0.2 0.4
v 0.4 0 0.4
v 0.4 0.4 0.4
v -0.5 -0.4 -0.5
v -0.5 -0.2 -0.5
v -0.5 0 -0.5
v -0.5 0.5 -0.5
v -0.3 -0.4 -0.5
v -0.3 -0.2 -0.5
v -0.3 0 -0.5
v -0.1 -0.4 -0.5
v -0.1 -0.2 -0.5
v -0.1 0 -0.5
v 0.1 -0.4 -0.5
v 0.1 -0.2 -0.5
v 0.1 0 -0.5
v 0.3 -0.4 -0.5
v 0.3 -0.2 -0.5
v 0.3 0 -0.5
v 0.5 -0.4 -0.5
v 0.5 -0.2 -0.5
v 0.5 0 -0.5
v 0.5 0.5 -0.5
v -0.5 -0.4 0.5
v -0.3 -0.4 0.5
v -0.1 -0.4 0.5
v 0.1 -0.4 0.5
v 0.3 -0.4 0.5
v 0.5 -0.4 0.5
v -0.5 -0.4 0.4
v -0.4 -0.4 0.4
v -0.3 -0.4 0.4
v -0.1 -0.4 0.4
v 0.1 -0.4 0.4
v 0.3 -0.4 0.4
v 0.4 -0.4 0.4
v 0.5 -0.4 0.4
v -0.5 -0.4 0.2
v -0.4 -0.4 0.2
v 0.4 -0.4 0.2
v 0.5 -0.4 0.2
v -0.5 -0.4 0
v -0.4 -0.4 0
v 0.4 -0.4 0
v 0.5 -0.4 0
v -0.5 -0.4 -0.2
v -0.4 -0.4 -0.2
v 0.4 -0.4 -0.2
v 0.5 -0.4 -0.2
v -0.5 -0.4 -0.4
v -0.4 -0.4 -0.4
v -0.3 -0.4 -0.4
v -0.1 -0.4 -0.4
v 0.1 -0.4 -0.4
v 0.3 -0.4 -0.4
v 0.4 -0.4 -0.4
v 0.5 -0.4 -0.4
v -0.5 -0.4 -0.5
v -0.3 -0.4 -0.5
v -0.1 -0.4 -0.5
v 0.1 -0.4 -0.5
v 0.3 -0.4 -0.5
v 0.5 -0.4 -0.5
v -0.4 0.4 0.4
v 0.4 0.4 0.4
v -0.4 0.4 -0.4
v 0.4 0.4 -0.4
v -0.4 -0.3 0.4
v -0.3 -0.3 0.4
v -0.1 -0.3 0.4
v 0.1 -0.3 0.4
v 0.3 -0.3 0.4
v 0.4 -0.3 0.4
v -0.4 -0.3 0.2
v 0.4 -0.3 0.2
v -0.4 -0.3 0
v 0.4 -0.3 0
v -0.4 -0.3 -0.2
v 0.4 -0.3 -0.2
v -0.4 -0.3 -0.4
v -0.3 -0.3 -0.4
v -0.1 -0.3 -0.4
v 0.1 -0.3 -0.4
v 0.3 -0.3 -0.4
v 0.4 -0.3 -0.4
v -0.5 0.5 0.5
v 0.5 0.5 0.5
v -0.5 0.5 -0.5
v 0.5 0.5 -0.5

# faces
f 8/2/1 2/2/1 1/2/1
f 9/3/1 3/3/1 2/3/1
f 9/2/1 2/2/1 8/2/1
f 10/2/1 4/2/1 3/2/1
f 10/3/1 3/3/1 9/3/1
f 11/3/1 5/3/1 4/3/1
f 11/2/1 4/2/1 10/2/1
f 12/2/1 6/2/1 5/2/1
f 12/3/1 5/3/1 11/3/1
f 13/3/1 7/3/1 6/3/1
f 13/2/1 6/2/1 12/2/1
f 14/3/1 7/3/1 13/3/1
f 15/3/1 9/3/1 8/3/1
f 16/2/1 10/2/1 9/2/1
f 16/3/1 9/3/1 15/3/1
f 17/3/1 11/3/1 10/3/1
f 17/2/1 10/2/1 16/2/1
f 18/2/1 12/2/1 11/2/1
f 18/3/1 11/3/1 17/3/1
f 19/3/1 13/3/1 12/3/1
f 19/2/1 12/2/1 18/2/1
f 20/2/1 14/2/1 13/2/1
f 20/3/1 13/3/1 19/3/1
f 21/2/1 14/2/1 20/2/1
f 22/4/1 17/4/1 16/4/1
f 22/4/1 16/4/1 15/4/1
f 22/4/1 21/4/1 20/4/1
f 22/4/1 20/4/1 19/4/1
f 22/4/1 19/4/1 18/4/1
f 22/4/1 18/4/1 17/4/1
f 23/4/1 21/4/1 22/4/1
f 29/3/1 25/3/1 24/3/1
f 30/2/1 26/2/1 25/2/1
f 30/3/1 25/3/1 29/3/1
f 31/3/1 27/3/1 26/3/1
f 31/2/1 26/2/1 30/2/1
f 32/2/1 28/2/1 27/2/1
f 32/3/1 27/3/1 31/3/1
f 33/2/1 28/2/1 32/2/1
f 34/2/1 30/2/1 29/2/1
f 35/3/1 31/3/1 30/3/1
f 35/2/1 30/2/1 34/2/1
f 36/2/1 32/2/1 31/2/1
f 36/3/1 31/3/1 35/3/1
f 37/3/1 33/3/1 32/3/1
f 37/2/1 32/2/1 36/2/1
f 38/3/1 33/3/1 37/3/1
f 39/4/1 35/4/1 34/4/1
f 39/4/1 36/4/1 35/4/1
f 39/4/1 38/4/1 37/4/1
f 39/4/1 37/4/1 36/4/1
f 40/4/1 38/4/1 39/4/1
f 41/3/2 42/3/2 46/3/2
f 42/2/2 43/2/2 47/2/2
f 46/3/2 42/3/2 47/3/2
f 43/3/2 44/3/2 48/3/2
f 47/2/2 43/2/2 48/2/2
f 44/2/2 45/2/2 49/2/2
f 48/3/2 44/3/2 49/3/2
f 49/2/2 45/2/2 50/2/2
f 46/2/2 47/2/2 51/2/2
f 47/3/2 48/3/2 52/3/2
f 51/2/2 47/2/2 52/2/2
f 48/2/2 49/2/2 53/2/2
f 52/3/2 48/3/2 53/3/2
f 49/3/2 50/3/2 54/3/2
f 53/2/2 49/2/2 54/2/2
f 54/3/2 50/3/2 55/3/2
f 51/4/2 52/4/2 56/4/2
f 52/4/2 53/4/2 56/4/2
f 54/4/2 55/4/2 56/4/2
f 53/4/2 54/4/2 56/4/2
f 56/4/2 55/4/2 57/4/2
f 58/2/2 59/2/2 65/2/2
f 59/3/2 60/3/2 66/3/2
f 65/2/2 59/2/2 66/2/2
f 60/2/2 61/2/2 67/2/2
f 66/3/2 60/3/2 67/3/2
f 61/3/2 62/3/2 68/3/2
f 67/2/2 61/2/2 68/2/2
f 62/2/2 63/2/2 69/2/2
f 68/3/2 62/3/2 69/3/2
f 63/3/2 64/3/2 70/3/2
f 69/2/2 63/2/2 70/2/2
f 70/3/2 64/3/2 71/3/2
f 65/3/2 66/3/2 72/3/2
f 66/2/2 67/2/2 73/2/2
f 72/3/2 66/3/2 73/3/2
f 67/3/2 68/3/2 74/3/2
f 73/2/2 67/2/2 74/2/2
f 68/2/2 69/2/2 75/2/2
f 74/3/2 68/3/2 75/3/2
f 69/3/2 70/3/2 76/3/2
f 75/2/2 69/2/2 76/2/2
f 70/2/2 71/2/2 77/2/2
f 76/3/2 70/3/2 77/3/2
f 77/2/2 71/2/2 78/2/2
f 73/4/2 74/4/2 79/4/2
f 72/4/2 73/4/2 79/4/2
f 77/4/2 78/4/2 79/4/2
f 76/4/2 77/4/2 79/4/2
f 75/4/2 76/4/2 79/4/2
f 74/4/2 75/4/2 79/4/2
f 79/4/2 78/4/2 80/4/2
f 85/2/3 82/2/3 81/2/3
f 86/3/3 83/3/3 82/3/3
f 86/2/3 82/2/3 85/2/3
f 87/4/3 84/4/3 83/4/3
f 87/3/3 83/3/3 86/3/3
f 88/3/3 86/3/3 85/3/3
f 89/2/3 87/2/3 86/2/3
f 89/3/3 86/3/3 88/3/3
f 90/4/3 84/4/3 87/4/3
f 90/2/3 87/2/3 89/2/3
f 91/2/3 89/2/3 88/2/3
f 92/3/3 90/3/3 89/3/3
f 92/2/3 89/2/3 91/2/3
f 93/4/3 84/4/3 90/4/3
f 93/3/3 90/3/3 92/3/3
f 94/3/3 92/3/3 91/3/3
f 95/2/3 93/2/3 92/2/3
f 95/3/3 92/3/3 94/3/3
f 96/4/3 84/4/3 93/4/3
f 96/2/3 93/2/3 95/2/3
f 97/2/3 95/2/3 94/2/3
f 98/3/3 96/3/3 95/3/3
f 98/2/3 95/2/3 97/2/3
f 99/4/3 84/4/3 96/4/3
f 99/3/3 96/3/3 98/3/3
f 100/4/3 84/4/3 99/4/3
f 105/3/3 102/3/3 101/3/3
f 106/2/3 103/2/3 102/2/3
f 106/3/3 102/3/3 105/3/3
f 107/4/3 104/4/3 103/4/3
f 107/2/3 103/2/3 106/2/3
f 108/2/3 106/2/3 105/2/3
f 109/3/3 107/3/3 106/3/3
f 109/2/3 106/2/3 108/2/3
f 110/4/3 104/4/3 107/4/3
f 110/3/3 107/3/3 109/3/3
f 111/3/3 109/3/3 108/3/3
f 112/2/3 110/2/3 109/2/3
f 112/3/3 109/3/3 111/3/3
f 113/4/3 104/4/3 110/4/3
f 113/2/3 110/2/3 112/2/3
f 114/2/3 112/2/3 111/2/3
f 115/3/3 113/3/3 112/3/3
f 115/2/3 112/2/3 114/2/3
f 116/4/3 104/4/3 113/4/3
f 116/3/3 113/3/3 115/3/3
f 117/3/3 115/3/3 114/3/3
f 118/2/3 116/2/3 115/2/3
f 118/3/3 115/3/3 117/3/3
f 119/4/3 104/4/3 116/4/3
f 119/2/3 116/2/3 118/2/3
f 120/4/3 104/4/3 119/4/3
f 121/2/4 122/2/4 125/2/4
f 122/3/4 123/3/4 126/3/4
f 125/2/4 122/2/4 126/2/4
f 123/4/4 124/4/4 127/4/4
f 126/3/4 123/3/4 127/3/4
f 125/3/4 126/3/4 128/3/4
f 126/2/4 127/2/4 129/2/4
f 128/3/4 126/3/4 129/3/4
f 127/4/4 124/4/4 130/4/4
f 129/2/4 127/2/4 130/2/4
f 128/2/4 129/2/4 131/2/4
f 129/3/4 130/3/4 132/3/4
f 131/2/4 129/2/4 132/2/4
f 130/4/4 124/4/4 133/4/4
f 132/3/4 130/3/4 133/3/4
f 131/3/4 132/3/4 134/3/4
f 132/2/4 133/2/4 135/2/4
f 134/3/4 132/3/4 135/3/4
f 133/4/4 124/4/4 136/4/4
f 135/2/4 133/2/4 136/2/4
f 134/2/4 135/2/4 137/2/4
f 135/3/4 136/3/4 138/3/4
f 137/2/4 135/2/4 138/2/4
f 136/4/4 124/4/4 139/4/4
f 138/3/4 136/3/4 139/3/4
f 139/4/4 124/4/4 140/4/4
f 141/3/4 142/3/4 145/3/4
f 142/2/4 143/2/4 146/2/4
f 145/3/4 142/3/4 146/3/4
f 143/4/4 144/4/4 147/4/4
f 146/2/4 143/2/4 147/2/4
f 145/2/4 146/2/4 148/2/4
f 146/3/4 147/3/4 149/3/4
f 148/2/4 146/2/4 149/2/4
f 147/4/4 144/4/4 150/4/4
f 149/3/4 147/3/4 150/3/4
f 148/3/4 149/3/4 151/3/4
f 149/2/4 150/2/4 152/2/4
f 151/3/4 149/3/4 152/3/4
f 150/4/4 144/4/4 153/4/4
f 152/2/4 150/2/4 153/2/4
f 151/2/4 152/2/4 154/2/4
f 152/3/4 153/3/4 155/3/4
f 154/2/4 152/2/4 155/2/4
f 153/4/4 144/4/4 156/4/4
f 155/3/4 153/3/4 156/3/4
f 154/3/4 155/3/4 157/3/4
f 155/2/4 156/2/4 158/2/4
f 157/3/4 155/3/4 158/3/4
f 156/4/4 144/4/4 159/4/4
f 158/2/4 156/2/4 159/2/4
f 159/4/4 144/4/4 160/4/4
f 167/2/5 162/2/5 161/2/5
f 168/2/5 162/2/5 167/2/5
f 169/3/5 163/3/5 162/3/5
f 169/2/5 162/2/5 168/2/5
f 170/2/5 164/2/5 163/2/5
f 170/3/5 163/3/5 169/3/5
f 171/3/5 165/3/5 164/3/5
f 171/2/5 164/2/5 170/2/5
f 172/2/5 166/2/5 165/2/5
f 172/3/5 165/3/5 171/3/5
f 173/2/5 166/2/5 172/2/5
f 174/2/5 166/2/5 173/2/5
f 175/3/5 168/3/5 167/3/5
f 176/1/5 171/1/5 170/1/5
f 176/3/5 168/3/5 175/3/5
f 176/1/5 169/1/5 168/1/5
f 176/1/5 170/1/5 169/1/5
f 176/1/5 173/1/5 172/1/5
f 176/1/5 172/1/5 171/1/5
f 177/3/5 174/3/5 173/3/5
f 177/1/5 173/1/5 176/1/5
f 178/3/5 174/3/5 177/3/5
f 179/2/5 176/2/5 175/2/5
f 180/1/5 177/1/5 176/1/5
f 180/2/5 176/2/5 179/2/5
f 181/2/5 178/2/5 177/2/5
f 181/1/5 177/1/5 180/1/5
f 182/2/5 178/2/5 181/2/5
f 183/3/5 180/3/5 179/3/5
f 184/1/5 181/1/5 180/1/5
f 184/3/5 180/3/5 183/3/5
f 185/3/5 182/3/5 181/3/5
f 185/1/5 181/1/5 184/1/5
f 186/3/5 182/3/5 185/3/5
f 187/2/5 184/2/5 183/2/5
f 188/1/5 185/1/5 184/1/5
f 188/2/5 184/2/5 187/2/5
f 189/1/5 185/1/5 188/1/5
f 190/1/5 185/1/5 189/1/5
f 191/1/5 185/1/5 190/1/5
f 192/1/5 185/1/5 191/1/5
f 193/2/5 186/2/5 185/2/5
f 193/1/5 185/1/5 192/1/5
f 194/2/5 186/2/5 193/2/5
f 195/3/5 188/3/5 187/3/5
f 195/3/5 189/3/5 188/3/5
f 196/2/5 190/2/5 189/2/5
f 196/3/5 189/3/5 195/3/5
f 197/3/5 191/3/5 190/3/5
f 197/2/5 190/2/5 196/2/5
f 198/2/5 192/2/5 191/2/5
f 198/3/5 191/3/5 197/3/5
f 199/3/5 194/3/5 193/3/5
f 199/2/5 192/2/5 198/2/5
f 199/3/5 193/3/5 192/3/5
f 200/3/5 194/3/5 199/3/5
f 203/4/5 202/4/5 201/4/5
f 204/4/5 202/4/5 203/4/5
f 205/1/6 206/1/6 211/1/6
f 209/1/6 210/1/6 211/1/6
f 208/1/6 209/1/6 211/1/6
f 207/1/6 208/1/6 211/1/6
f 206/1/6 207/1/6 211/1/6
f 211/1/6 210/1/6 212/1/6
f 211/1/6 212/1/6 213/1/6
f 213/1/6 212/1/6 214/1/6
f 213/1/6 214/1/6 215/1/6
f 215/1/6 214/1/6 216/1/6
f 215/1/6 216/1/6 217/1/6
f 217/1/6 216/1/6 218/1/6
f 218/1/6 216/1/6 219/1/6
f 219/1/6 216/1/6 220/1/6
f 220/1/6 216/1/6 221/1/6
f 221/1/6 216/1/6 222/1/6
f 223/4/6 224/4/6 225/4/6
f 225/4/6 224/4/6 226/4/6
