# MagicaVoxel @ Ephtracy

# group
o 

# material
mtllib NPC3_leftarm_1.mtl
usemtl palette

# normals
vn -1 0 0
vn 1 0 0
vn 0 0 1
vn 0 0 -1
vn 0 -1 0
vn 0 1 0

# texcoords
vt 0.732422 0.5
vt 0.783203 0.5
vt 0.798828 0.5
vt 0.845703 0.5
vt 0.958984 0.5

# verts
v -0.9 -0.9 0
v -0.9 -0.9 -1.2
v -0.9 0.9 0
v -0.9 0.9 -1.2
v -0.8 -0.8 -1.2
v -0.8 -0.8 -1.8
v -0.8 -0.8 -2.2
v -0.8 0.8 -1.2
v -0.8 0.8 -1.8
v -0.8 0.8 -2.2
v 0.8 -0.8 -1.2
v 0.8 -0.8 -1.8
v 0.8 -0.8 -2.2
v 0.8 0.8 -1.2
v 0.8 0.8 -1.8
v 0.8 0.8 -2.2
v 0.9 -0.9 0
v 0.9 -0.9 -1.2
v 0.9 0.9 0
v 0.9 0.9 -1.2
v -0.9 -0.9 0
v -0.9 0.9 0
v 0.9 -0.9 0
v 0.9 0.9 0
v -0.9 -0.9 -1.2
v -0.9 0.9 -1.2
v -0.8 -0.8 -1.2
v -0.8 0.8 -1.2
v 0.8 -0.8 -1.2
v 0.8 0.8 -1.2
v 0.9 -0.9 -1.2
v 0.9 0.9 -1.2
v -0.8 -0.8 -2.2
v -0.8 0.8 -2.2
v 0.8 -0.8 -2.2
v 0.8 0.8 -2.2
v -0.9 -0.9 0
v 0.9 -0.9 0
v -0.9 -0.9 -1.2
v 0.9 -0.9 -1.2
v -0.8 -0.8 -1.2
v 0.8 -0.8 -1.2
v -0.8 -0.8 -1.8
v 0.8 -0.8 -1.8
v -0.8 -0.8 -2.2
v 0.8 -0.8 -2.2
v -0.8 0.8 -1.2
v 0.8 0.8 -1.2
v -0.8 0.8 -1.8
v 0.8 0.8 -1.8
v -0.8 0.8 -2.2
v 0.8 0.8 -2.2
v -0.9 0.9 0
v 0.9 0.9 0
v -0.9 0.9 -1.2
v 0.9 0.9 -1.2

# faces
f 3/1/1 2/1/1 1/1/1
f 4/1/1 2/1/1 3/1/1
f 8/2/1 6/2/1 5/2/1
f 9/3/1 7/3/1 6/3/1
f 9/2/1 6/2/1 8/2/1
f 10/3/1 7/3/1 9/3/1
f 11/2/2 12/2/2 14/2/2
f 12/3/2 13/3/2 15/3/2
f 14/2/2 12/2/2 15/2/2
f 15/3/2 13/3/2 16/3/2
f 17/1/2 18/1/2 19/1/2
f 19/1/2 18/1/2 20/1/2
f 23/1/3 22/1/3 21/1/3
f 24/1/3 22/1/3 23/1/3
f 25/1/4 26/1/4 27/1/4
f 27/1/4 26/1/4 28/1/4
f 25/1/4 27/1/4 29/1/4
f 28/1/4 26/1/4 30/1/4
f 25/1/4 29/1/4 31/1/4
f 29/1/4 30/1/4 31/1/4
f 30/1/4 26/1/4 32/1/4
f 31/1/4 30/1/4 32/1/4
f 33/3/4 34/3/4 35/3/4
f 35/3/4 34/3/4 36/3/4
f 39/1/5 38/1/5 37/1/5
f 40/1/5 38/1/5 39/1/5
f 43/2/5 42/2/5 41/2/5
f 44/2/5 42/2/5 43/2/5
f 45/3/5 44/3/5 43/3/5
f 46/3/5 44/3/5 45/3/5
f 47/2/6 48/2/6 49/2/6
f 49/2/6 48/2/6 50/2/6
f 49/3/6 50/3/6 51/3/6
f 51/3/6 50/3/6 52/3/6
f 53/1/6 54/1/6 55/1/6
f 55/1/6 54/1/6 56/1/6
