# MagicaVoxel @ Ephtracy

# group
o 

# material
mtllib NPC3_rightarm_1.mtl
usemtl palette

# normals
vn -1 0 0
vn 1 0 0
vn 0 0 1
vn 0 0 -1
vn 0 -1 0
vn 0 1 0

# texcoords
vt 0.732422 0.5
vt 0.783203 0.5
vt 0.798828 0.5
vt 0.845703 0.5
vt 0.958984 0.5

# verts
v -0.9 -0.9 1.2
v -0.9 -0.9 0
v -0.9 0.9 1.2
v -0.9 0.9 0
v -0.8 -0.8 2.2
v -0.8 -0.8 1.8
v -0.8 -0.8 1.2
v -0.8 0.8 2.2
v -0.8 0.8 1.8
v -0.8 0.8 1.2
v 0.8 -0.8 2.2
v 0.8 -0.8 1.8
v 0.8 -0.8 1.2
v 0.8 0.8 2.2
v 0.8 0.8 1.8
v 0.8 0.8 1.2
v 0.9 -0.9 1.2
v 0.9 -0.9 0
v 0.9 0.9 1.2
v 0.9 0.9 0
v -0.8 -0.8 2.2
v -0.8 0.8 2.2
v 0.8 -0.8 2.2
v 0.8 0.8 2.2
v -0.9 -0.9 1.2
v -0.9 0.9 1.2
v -0.8 -0.8 1.2
v -0.8 0.8 1.2
v 0.8 -0.8 1.2
v 0.8 0.8 1.2
v 0.9 -0.9 1.2
v 0.9 0.9 1.2
v -0.9 -0.9 0
v -0.9 0.9 0
v 0.9 -0.9 0
v 0.9 0.9 0
v -0.9 -0.9 1.2
v 0.9 -0.9 1.2
v -0.9 -0.9 0
v 0.9 -0.9 0
v -0.8 -0.8 2.2
v 0.8 -0.8 2.2
v -0.8 -0.8 1.8
v 0.8 -0.8 1.8
v -0.8 -0.8 1.2
v 0.8 -0.8 1.2
v -0.8 0.8 2.2
v 0.8 0.8 2.2
v -0.8 0.8 1.8
v 0.8 0.8 1.8
v -0.8 0.8 1.2
v 0.8 0.8 1.2
v -0.9 0.9 1.2
v 0.9 0.9 1.2
v -0.9 0.9 0
v 0.9 0.9 0

# faces
f 3/1/1 2/1/1 1/1/1
f 4/1/1 2/1/1 3/1/1
f 8/3/1 6/3/1 5/3/1
f 9/2/1 7/2/1 6/2/1
f 9/3/1 6/3/1 8/3/1
f 10/2/1 7/2/1 9/2/1
f 11/3/2 12/3/2 14/3/2
f 12/2/2 13/2/2 15/2/2
f 14/3/2 12/3/2 15/3/2
f 15/2/2 13/2/2 16/2/2
f 17/1/2 18/1/2 19/1/2
f 19/1/2 18/1/2 20/1/2
f 23/3/3 22/3/3 21/3/3
f 24/3/3 22/3/3 23/3/3
f 27/1/3 26/1/3 25/1/3
f 28/1/3 26/1/3 27/1/3
f 29/1/3 27/1/3 25/1/3
f 30/1/3 26/1/3 28/1/3
f 31/1/3 29/1/3 25/1/3
f 31/1/3 30/1/3 29/1/3
f 32/1/3 26/1/3 30/1/3
f 32/1/3 30/1/3 31/1/3
f 33/1/4 34/1/4 35/1/4
f 35/1/4 34/1/4 36/1/4
f 39/1/5 38/1/5 37/1/5
f 40/1/5 38/1/5 39/1/5
f 43/3/5 42/3/5 41/3/5
f 44/3/5 42/3/5 43/3/5
f 45/2/5 44/2/5 43/2/5
f 46/2/5 44/2/5 45/2/5
f 47/3/6 48/3/6 49/3/6
f 49/3/6 48/3/6 50/3/6
f 49/2/6 50/2/6 51/2/6
f 51/2/6 50/2/6 52/2/6
f 53/1/6 54/1/6 55/1/6
f 55/1/6 54/1/6 56/1/6
