# MagicaVoxel @ Ephtracy

# group
o 

# material
mtllib table_1.mtl
usemtl palette

# normals
vn -1 0 0
vn 1 0 0
vn 0 0 1
vn 0 0 -1
vn 0 -1 0
vn 0 1 0

# texcoords
vt 0.849609 0.5
vt 0.876953 0.5
vt 0.880859 0.5

# verts
v -0.7 1.2 1
v -0.7 1.2 -1.1
v -0.7 1.3 1
v -0.7 1.3 -1.1
v -0.6 0 0.9
v -0.6 0 0.8
v -0.6 0 -0.9
v -0.6 0 -1
v -0.6 1.1 0.8
v -0.6 1.1 0.7
v -0.6 1.1 -0.8
v -0.6 1.1 -0.9
v -0.6 1.2 0.9
v -0.6 1.2 0.7
v -0.6 1.2 -0.8
v -0.6 1.2 -1
v 0.5 1.1 0.9
v 0.5 1.1 0.8
v 0.5 1.1 -0.9
v 0.5 1.1 -1
v 0.5 1.2 0.9
v 0.5 1.2 0.8
v 0.5 1.2 -0.9
v 0.5 1.2 -1
v 0.6 0 0.9
v 0.6 0 0.8
v 0.6 0 -0.9
v 0.6 0 -1
v 0.6 1.1 0.9
v 0.6 1.1 0.8
v 0.6 1.1 0.7
v 0.6 1.1 -0.8
v 0.6 1.1 -0.9
v 0.6 1.1 -1
v 0.6 1.2 0.8
v 0.6 1.2 0.7
v 0.6 1.2 -0.8
v 0.6 1.2 -0.9
v -0.5 0 0.9
v -0.5 0 0.8
v -0.5 0 -0.9
v -0.5 0 -1
v -0.5 1.1 0.9
v -0.5 1.1 0.8
v -0.5 1.1 0.7
v -0.5 1.1 -0.8
v -0.5 1.1 -0.9
v -0.5 1.1 -1
v -0.5 1.2 0.8
v -0.5 1.2 0.7
v -0.5 1.2 -0.8
v -0.5 1.2 -0.9
v -0.4 1.1 0.9
v -0.4 1.1 0.8
v -0.4 1.1 -0.9
v -0.4 1.1 -1
v -0.4 1.2 0.9
v -0.4 1.2 0.8
v -0.4 1.2 -0.9
v -0.4 1.2 -1
v 0.7 0 0.9
v 0.7 0 0.8
v 0.7 0 -0.9
v 0.7 0 -1
v 0.7 1.1 0.8
v 0.7 1.1 0.7
v 0.7 1.1 -0.8
v 0.7 1.1 -0.9
v 0.7 1.1 -1
v 0.7 1.2 0.9
v 0.7 1.2 0.7
v 0.7 1.2 -0.8
v 0.7 1.2 -1
v 0.8 1.2 1
v 0.8 1.2 -1.1
v 0.8 1.3 1
v 0.8 1.3 -1.1
v -0.7 1.2 1
v -0.7 1.3 1
v 0.8 1.2 1
v 0.8 1.3 1
v -0.6 0 0.9
v -0.6 1.2 0.9
v -0.5 0 0.9
v -0.5 1.1 0.9
v -0.4 1.1 0.9
v -0.4 1.2 0.9
v 0.5 1.1 0.9
v 0.5 1.2 0.9
v 0.6 0 0.9
v 0.6 1.1 0.9
v 0.7 0 0.9
v 0.7 1.2 0.9
v -0.6 1.1 -0.8
v -0.6 1.2 -0.8
v -0.5 1.1 -0.8
v -0.5 1.2 -0.8
v 0.6 1.1 -0.8
v 0.6 1.2 -0.8
v 0.7 1.1 -0.8
v 0.7 1.2 -0.8
v -0.6 0 -0.9
v -0.6 1.1 -0.9
v -0.5 0 -0.9
v -0.5 1.1 -0.9
v -0.5 1.2 -0.9
v -0.4 1.1 -0.9
v -0.4 1.2 -0.9
v 0.5 1.1 -0.9
v 0.5 1.2 -0.9
v 0.6 0 -0.9
v 0.6 1.1 -0.9
v 0.6 1.2 -0.9
v 0.7 0 -0.9
v 0.7 1.1 -0.9
v -0.6 0 0.8
v -0.6 1.1 0.8
v -0.5 0 0.8
v -0.5 1.1 0.8
v -0.5 1.2 0.8
v -0.4 1.1 0.8
v -0.4 1.2 0.8
v 0.5 1.1 0.8
v 0.5 1.2 0.8
v 0.6 0 0.8
v 0.6 1.1 0.8
v 0.6 1.2 0.8
v 0.7 0 0.8
v 0.7 1.1 0.8
v -0.6 1.1 0.7
v -0.6 1.2 0.7
v -0.5 1.1 0.7
v -0.5 1.2 0.7
v 0.6 1.1 0.7
v 0.6 1.2 0.7
v 0.7 1.1 0.7
v 0.7 1.2 0.7
v -0.6 0 -1
v -0.6 1.2 -1
v -0.5 0 -1
v -0.5 1.1 -1
v -0.4 1.1 -1
v -0.4 1.2 -1
v 0.5 1.1 -1
v 0.5 1.2 -1
v 0.6 0 -1
v 0.6 1.1 -1
v 0.7 0 -1
v 0.7 1.1 -1
v 0.7 1.2 -1
v -0.7 1.2 -1.1
v -0.7 1.3 -1.1
v 0.8 1.2 -1.1
v 0.8 1.3 -1.1
v -0.6 0 0.9
v -0.5 0 0.9
v 0.6 0 0.9
v 0.7 0 0.9
v -0.6 0 0.8
v -0.5 0 0.8
v 0.6 0 0.8
v 0.7 0 0.8
v -0.6 0 -0.9
v -0.5 0 -0.9
v 0.6 0 -0.9
v 0.7 0 -0.9
v -0.6 0 -1
v -0.5 0 -1
v 0.6 0 -1
v 0.7 0 -1
v -0.5 1.1 0.9
v -0.4 1.1 0.9
v 0.5 1.1 0.9
v 0.6 1.1 0.9
v -0.6 1.1 0.8
v -0.5 1.1 0.8
v -0.4 1.1 0.8
v 0.5 1.1 0.8
v 0.6 1.1 0.8
v 0.7 1.1 0.8
v -0.6 1.1 0.7
v -0.5 1.1 0.7
v 0.6 1.1 0.7
v 0.7 1.1 0.7
v -0.6 1.1 -0.8
v -0.5 1.1 -0.8
v 0.6 1.1 -0.8
v 0.7 1.1 -0.8
v -0.6 1.1 -0.9
v -0.5 1.1 -0.9
v -0.4 1.1 -0.9
v 0.5 1.1 -0.9
v 0.6 1.1 -0.9
v 0.7 1.1 -0.9
v -0.5 1.1 -1
v -0.4 1.1 -1
v 0.5 1.1 -1
v 0.6 1.1 -1
v -0.7 1.2 1
v 0.8 1.2 1
v -0.6 1.2 0.9
v -0.4 1.2 0.9
v -0.2 1.2 0.9
v -0.1 1.2 0.9
v 0.3 1.2 0.9
v 0.5 1.2 0.9
v 0.7 1.2 0.9
v -0.5 1.2 0.8
v -0.4 1.2 0.8
v -0.3 1.2 0.8
v -0.2 1.2 0.8
v 0 1.2 0.8
v 0.1 1.2 0.8
v 0.2 1.2 0.8
v 0.3 1.2 0.8
v 0.5 1.2 0.8
v 0.6 1.2 0.8
v -0.6 1.2 0.7
v -0.5 1.2 0.7
v -0.3 1.2 0.7
v -0.2 1.2 0.7
v 0 1.2 0.7
v 0.1 1.2 0.7
v 0.5 1.2 0.7
v 0.6 1.2 0.7
v 0.7 1.2 0.7
v -0.6 1.2 0.6
v -0.5 1.2 0.6
v -0.3 1.2 0.6
v -0.2 1.2 0.6
v -0.1 1.2 0.6
v 0.6 1.2 0.6
v 0.7 1.2 0.6
v -0.5 1.2 0.5
v -0.4 1.2 0.5
v -0.1 1.2 0.5
v 0 1.2 0.5
v 0.2 1.2 0.5
v 0.3 1.2 0.5
v 0.6 1.2 0.5
v 0.7 1.2 0.5
v -0.6 1.2 0.4
v -0.5 1.2 0.4
v -0.4 1.2 0.4
v -0.3 1.2 0.4
v 0.2 1.2 0.4
v 0.3 1.2 0.4
v 0.5 1.2 0.4
v 0.6 1.2 0.4
v -0.6 1.2 0.3
v -0.5 1.2 0.3
v 0.5 1.2 0.3
v 0.6 1.2 0.3
v -0.4 1.2 0.2
v -0.3 1.2 0.2
v -0.1 1.2 0.2
v 0 1.2 0.2
v 0.2 1.2 0.2
v 0.3 1.2 0.2
v 0.5 1.2 0.2
v 0.6 1.2 0.2
v -0.5 1.2 0.1
v -0.4 1.2 0.1
v -0.3 1.2 0.1
v -0.2 1.2 0.1
v 0.2 1.2 0.1
v 0.3 1.2 0.1
v -0.3 1.2 0
v -0.2 1.2 0
v -0.1 1.2 0
v 0 1.2 0
v 0.1 1.2 0
v 0.2 1.2 0
v 0.3 1.2 0
v 0.5 1.2 0
v 0.6 1.2 0
v -0.6 1.2 -0.1
v -0.5 1.2 -0.1
v -0.3 1.2 -0.1
v -0.2 1.2 -0.1
v 0.5 1.2 -0.1
v 0.6 1.2 -0.1
v -0.6 1.2 -0.2
v -0.5 1.2 -0.2
v -0.3 1.2 -0.2
v -0.2 1.2 -0.2
v -0.1 1.2 -0.2
v 0 1.2 -0.2
v 0.1 1.2 -0.2
v 0.2 1.2 -0.2
v -0.5 1.2 -0.3
v -0.4 1.2 -0.3
v 0.6 1.2 -0.3
v 0.7 1.2 -0.3
v -0.3 1.2 -0.4
v -0.2 1.2 -0.4
v -0.1 1.2 -0.4
v 0 1.2 -0.4
v 0.1 1.2 -0.4
v 0.2 1.2 -0.4
v -0.3 1.2 -0.5
v -0.2 1.2 -0.5
v -0.1 1.2 -0.5
v 0 1.2 -0.5
v 0.1 1.2 -0.5
v 0.2 1.2 -0.5
v 0.3 1.2 -0.5
v 0.5 1.2 -0.5
v 0.6 1.2 -0.5
v 0.2 1.2 -0.6
v 0.3 1.2 -0.6
v 0.5 1.2 -0.6
v 0.6 1.2 -0.6
v -0.6 1.2 -0.7
v -0.5 1.2 -0.7
v -0.4 1.2 -0.7
v 0 1.2 -0.7
v 0.1 1.2 -0.7
v 0.2 1.2 -0.7
v 0.3 1.2 -0.7
v 0.5 1.2 -0.7
v 0.6 1.2 -0.7
v -0.6 1.2 -0.8
v -0.5 1.2 -0.8
v -0.2 1.2 -0.8
v -0.1 1.2 -0.8
v 0.5 1.2 -0.8
v 0.6 1.2 -0.8
v 0.7 1.2 -0.8
v -0.5 1.2 -0.9
v -0.4 1.2 -0.9
v -0.3 1.2 -0.9
v -0.2 1.2 -0.9
v 0 1.2 -0.9
v 0.1 1.2 -0.9
v 0.2 1.2 -0.9
v 0.3 1.2 -0.9
v 0.5 1.2 -0.9
v 0.6 1.2 -0.9
v -0.6 1.2 -1
v -0.4 1.2 -1
v -0.2 1.2 -1
v -0.1 1.2 -1
v 0.5 1.2 -1
v 0.7 1.2 -1
v -0.7 1.2 -1.1
v 0.8 1.2 -1.1
v -0.7 1.3 1
v 0.8 1.3 1
v -0.5 1.3 0.9
v -0.2 1.3 0.9
v -0.1 1.3 0.9
v 0.3 1.3 0.9
v 0.5 1.3 0.9
v 0.6 1.3 0.9
v 0.7 1.3 0.9
v -0.5 1.3 0.8
v -0.4 1.3 0.8
v -0.3 1.3 0.8
v -0.2 1.3 0.8
v 0 1.3 0.8
v 0.1 1.3 0.8
v 0.2 1.3 0.8
v 0.3 1.3 0.8
v 0.5 1.3 0.8
v -0.6 1.3 0.7
v -0.5 1.3 0.7
v -0.3 1.3 0.7
v -0.2 1.3 0.7
v 0 1.3 0.7
v 0.1 1.3 0.7
v 0.5 1.3 0.7
v 0.6 1.3 0.7
v 0.7 1.3 0.7
v -0.6 1.3 0.6
v -0.5 1.3 0.6
v -0.3 1.3 0.6
v -0.2 1.3 0.6
v -0.1 1.3 0.6
v 0.6 1.3 0.6
v 0.7 1.3 0.6
v -0.5 1.3 0.5
v -0.4 1.3 0.5
v -0.1 1.3 0.5
v 0 1.3 0.5
v 0.2 1.3 0.5
v 0.3 1.3 0.5
v 0.6 1.3 0.5
v 0.7 1.3 0.5
v -0.6 1.3 0.4
v -0.5 1.3 0.4
v -0.4 1.3 0.4
v -0.3 1.3 0.4
v 0.2 1.3 0.4
v 0.3 1.3 0.4
v 0.5 1.3 0.4
v 0.6 1.3 0.4
v -0.6 1.3 0.3
v -0.5 1.3 0.3
v 0.5 1.3 0.3
v 0.6 1.3 0.3
v -0.4 1.3 0.2
v -0.3 1.3 0.2
v -0.1 1.3 0.2
v 0 1.3 0.2
v 0.2 1.3 0.2
v 0.3 1.3 0.2
v 0.5 1.3 0.2
v 0.6 1.3 0.2
v -0.5 1.3 0.1
v -0.4 1.3 0.1
v -0.3 1.3 0.1
v -0.2 1.3 0.1
v 0.2 1.3 0.1
v 0.3 1.3 0.1
v -0.3 1.3 0
v -0.2 1.3 0
v -0.1 1.3 0
v 0 1.3 0
v 0.1 1.3 0
v 0.2 1.3 0
v 0.3 1.3 0
v 0.5 1.3 0
v 0.6 1.3 0
v -0.6 1.3 -0.1
v -0.5 1.3 -0.1
v -0.3 1.3 -0.1
v -0.2 1.3 -0.1
v 0.5 1.3 -0.1
v 0.6 1.3 -0.1
v -0.6 1.3 -0.2
v -0.5 1.3 -0.2
v -0.3 1.3 -0.2
v -0.2 1.3 -0.2
v -0.1 1.3 -0.2
v 0 1.3 -0.2
v 0.1 1.3 -0.2
v 0.2 1.3 -0.2
v -0.5 1.3 -0.3
v -0.4 1.3 -0.3
v 0.6 1.3 -0.3
v 0.7 1.3 -0.3
v -0.3 1.3 -0.4
v -0.2 1.3 -0.4
v -0.1 1.3 -0.4
v 0 1.3 -0.4
v 0.1 1.3 -0.4
v 0.2 1.3 -0.4
v -0.3 1.3 -0.5
v -0.2 1.3 -0.5
v -0.1 1.3 -0.5
v 0 1.3 -0.5
v 0.1 1.3 -0.5
v 0.2 1.3 -0.5
v 0.3 1.3 -0.5
v 0.5 1.3 -0.5
v 0.6 1.3 -0.5
v 0.2 1.3 -0.6
v 0.3 1.3 -0.6
v 0.5 1.3 -0.6
v 0.6 1.3 -0.6
v -0.6 1.3 -0.7
v -0.5 1.3 -0.7
v -0.4 1.3 -0.7
v 0 1.3 -0.7
v 0.1 1.3 -0.7
v 0.2 1.3 -0.7
v 0.3 1.3 -0.7
v 0.5 1.3 -0.7
v 0.6 1.3 -0.7
v -0.2 1.3 -0.8
v -0.1 1.3 -0.8
v 0.5 1.3 -0.8
v 0.6 1.3 -0.8
v 0.7 1.3 -0.8
v -0.6 1.3 -0.9
v -0.5 1.3 -0.9
v -0.4 1.3 -0.9
v -0.3 1.3 -0.9
v -0.2 1.3 -0.9
v 0 1.3 -0.9
v 0.1 1.3 -0.9
v 0.2 1.3 -0.9
v 0.3 1.3 -0.9
v 0.5 1.3 -0.9
v 0.6 1.3 -0.9
v 0.7 1.3 -0.9
v -0.5 1.3 -1
v -0.2 1.3 -1
v -0.1 1.3 -1
v 0.6 1.3 -1
v 0.7 1.3 -1
v -0.7 1.3 -1.1
v 0.8 1.3 -1.1

# faces
f 3/2/1 2/2/1 1/2/1
f 4/2/1 2/2/1 3/2/1
f 9/2/1 6/2/1 5/2/1
f 12/2/1 8/2/1 7/2/1
f 13/2/1 10/2/1 9/2/1
f 13/2/1 9/2/1 5/2/1
f 14/2/1 10/2/1 13/2/1
f 15/2/1 12/2/1 11/2/1
f 16/2/1 8/2/1 12/2/1
f 16/2/1 12/2/1 15/2/1
f 21/2/1 18/2/1 17/2/1
f 22/2/1 18/2/1 21/2/1
f 23/3/1 20/3/1 19/3/1
f 24/3/1 20/3/1 23/3/1
f 29/2/1 26/2/1 25/2/1
f 30/2/1 26/2/1 29/2/1
f 33/2/1 28/2/1 27/2/1
f 34/2/1 28/2/1 33/2/1
f 35/2/1 31/2/1 30/2/1
f 36/2/1 31/2/1 35/2/1
f 37/3/1 33/3/1 32/3/1
f 38/3/1 33/3/1 37/3/1
f 39/2/2 40/2/2 43/2/2
f 43/2/2 40/2/2 44/2/2
f 41/2/2 42/2/2 47/2/2
f 47/2/2 42/2/2 48/2/2
f 44/2/2 45/2/2 49/2/2
f 49/2/2 45/2/2 50/2/2
f 46/2/2 47/2/2 51/2/2
f 51/2/2 47/2/2 52/2/2
f 53/2/2 54/2/2 57/2/2
f 57/2/2 54/2/2 58/2/2
f 55/2/2 56/2/2 59/2/2
f 59/2/2 56/2/2 60/2/2
f 61/2/2 62/2/2 65/2/2
f 63/2/2 64/2/2 68/2/2
f 68/2/2 64/2/2 69/2/2
f 65/2/2 66/2/2 70/2/2
f 61/2/2 65/2/2 70/2/2
f 70/2/2 66/2/2 71/2/2
f 68/3/2 69/3/2 72/3/2
f 67/3/2 68/3/2 72/3/2
f 72/3/2 69/3/2 73/3/2
f 74/2/2 75/2/2 76/2/2
f 76/2/2 75/2/2 77/2/2
f 80/2/3 79/2/3 78/2/3
f 81/2/3 79/2/3 80/2/3
f 84/2/3 83/2/3 82/2/3
f 85/2/3 83/2/3 84/2/3
f 86/2/3 83/2/3 85/2/3
f 87/2/3 83/2/3 86/2/3
f 91/2/3 89/2/3 88/2/3
f 92/2/3 91/2/3 90/2/3
f 93/2/3 89/2/3 91/2/3
f 93/2/3 91/2/3 92/2/3
f 96/2/3 95/2/3 94/2/3
f 97/2/3 95/2/3 96/2/3
f 100/3/3 99/3/3 98/3/3
f 101/3/3 99/3/3 100/3/3
f 104/2/3 103/2/3 102/2/3
f 105/2/3 103/2/3 104/2/3
f 107/2/3 106/2/3 105/2/3
f 108/2/3 106/2/3 107/2/3
f 112/3/3 110/3/3 109/3/3
f 113/3/3 110/3/3 112/3/3
f 114/2/3 112/2/3 111/2/3
f 115/2/3 112/2/3 114/2/3
f 116/2/4 117/2/4 118/2/4
f 118/2/4 117/2/4 119/2/4
f 119/2/4 120/2/4 121/2/4
f 121/2/4 120/2/4 122/2/4
f 123/2/4 124/2/4 126/2/4
f 126/2/4 124/2/4 127/2/4
f 125/2/4 126/2/4 128/2/4
f 128/2/4 126/2/4 129/2/4
f 130/2/4 131/2/4 132/2/4
f 132/2/4 131/2/4 133/2/4
f 134/2/4 135/2/4 136/2/4
f 136/2/4 135/2/4 137/2/4
f 138/2/4 139/2/4 140/2/4
f 140/2/4 139/2/4 141/2/4
f 141/2/4 139/2/4 142/2/4
f 142/2/4 139/2/4 143/2/4
f 144/3/4 145/3/4 147/3/4
f 146/2/4 147/2/4 148/2/4
f 147/3/4 145/3/4 149/3/4
f 148/2/4 147/2/4 149/2/4
f 149/3/4 145/3/4 150/3/4
f 151/2/4 152/2/4 153/2/4
f 153/2/4 152/2/4 154/2/4
f 159/2/5 156/2/5 155/2/5
f 160/2/5 156/2/5 159/2/5
f 161/2/5 158/2/5 157/2/5
f 162/2/5 158/2/5 161/2/5
f 167/2/5 164/2/5 163/2/5
f 168/2/5 164/2/5 167/2/5
f 169/2/5 166/2/5 165/2/5
f 170/2/5 166/2/5 169/2/5
f 176/2/5 172/2/5 171/2/5
f 177/2/5 172/2/5 176/2/5
f 178/2/5 174/2/5 173/2/5
f 179/2/5 174/2/5 178/2/5
f 181/2/5 176/2/5 175/2/5
f 182/2/5 176/2/5 181/2/5
f 183/2/5 180/2/5 179/2/5
f 184/2/5 180/2/5 183/2/5
f 189/2/5 186/2/5 185/2/5
f 190/2/5 186/2/5 189/2/5
f 193/3/5 188/3/5 187/3/5
f 194/3/5 188/3/5 193/3/5
f 195/2/5 191/2/5 190/2/5
f 196/2/5 191/2/5 195/2/5
f 197/3/5 193/3/5 192/3/5
f 198/3/5 193/3/5 197/3/5
f 201/2/5 200/2/5 199/2/5
f 202/2/5 200/2/5 201/2/5
f 203/2/5 200/2/5 202/2/5
f 204/2/5 200/2/5 203/2/5
f 205/2/5 200/2/5 204/2/5
f 206/2/5 200/2/5 205/2/5
f 207/2/5 200/2/5 206/2/5
f 209/3/5 203/3/5 202/3/5
f 210/3/5 203/3/5 209/3/5
f 211/1/5 204/1/5 203/1/5
f 211/3/5 203/3/5 210/3/5
f 212/3/5 205/3/5 204/3/5
f 213/3/5 205/3/5 212/3/5
f 214/3/5 205/3/5 213/3/5
f 215/1/5 206/1/5 205/1/5
f 215/3/5 205/3/5 214/3/5
f 216/1/5 206/1/5 215/1/5
f 218/2/5 201/2/5 199/2/5
f 219/1/5 209/1/5 208/1/5
f 220/3/5 210/3/5 209/3/5
f 220/2/5 211/2/5 210/2/5
f 221/1/5 204/1/5 211/1/5
f 221/2/5 211/2/5 220/2/5
f 222/3/5 212/3/5 204/3/5
f 222/1/5 213/1/5 212/1/5
f 223/3/5 214/3/5 213/3/5
f 223/1/5 213/1/5 222/1/5
f 224/2/5 217/2/5 216/2/5
f 224/3/5 216/3/5 215/3/5
f 225/2/5 217/2/5 224/2/5
f 226/2/5 200/2/5 207/2/5
f 227/3/5 219/3/5 218/3/5
f 227/2/5 218/2/5 199/2/5
f 228/1/5 209/1/5 219/1/5
f 228/3/5 219/3/5 227/3/5
f 229/3/5 220/3/5 209/3/5
f 229/3/5 221/3/5 220/3/5
f 230/1/5 204/1/5 221/1/5
f 230/3/5 221/3/5 229/3/5
f 231/3/5 222/3/5 204/3/5
f 231/1/5 204/1/5 230/1/5
f 232/1/5 225/1/5 224/1/5
f 232/3/5 226/3/5 225/3/5
f 233/2/5 200/2/5 226/2/5
f 233/3/5 226/3/5 232/3/5
f 234/1/5 209/1/5 228/1/5
f 234/2/5 228/2/5 227/2/5
f 235/3/5 229/3/5 209/3/5
f 235/1/5 209/1/5 234/1/5
f 236/3/5 222/3/5 231/3/5
f 236/3/5 231/3/5 230/3/5
f 237/2/5 223/2/5 222/2/5
f 237/3/5 222/3/5 236/3/5
f 238/3/5 214/3/5 223/3/5
f 238/2/5 215/2/5 214/2/5
f 239/3/5 224/3/5 215/3/5
f 239/2/5 215/2/5 238/2/5
f 240/1/5 232/1/5 224/1/5
f 240/2/5 233/2/5 232/2/5
f 241/2/5 200/2/5 233/2/5
f 241/2/5 233/2/5 240/2/5
f 242/2/5 227/2/5 199/2/5
f 242/2/5 234/2/5 227/2/5
f 243/3/5 235/3/5 234/3/5
f 243/2/5 234/2/5 242/2/5
f 244/3/5 229/3/5 235/3/5
f 244/3/5 235/3/5 243/3/5
f 245/2/5 230/2/5 229/2/5
f 245/3/5 229/3/5 244/3/5
f 246/1/5 239/1/5 238/1/5
f 246/3/5 238/3/5 223/3/5
f 247/3/5 224/3/5 239/3/5
f 247/1/5 239/1/5 246/1/5
f 248/1/5 240/1/5 224/1/5
f 248/3/5 224/3/5 247/3/5
f 249/3/5 241/3/5 240/3/5
f 249/1/5 240/1/5 248/1/5
f 250/1/5 243/1/5 242/1/5
f 250/2/5 242/2/5 199/2/5
f 251/3/5 244/3/5 243/3/5
f 251/1/5 243/1/5 250/1/5
f 252/3/5 249/3/5 248/3/5
f 252/3/5 248/3/5 247/3/5
f 253/3/5 241/3/5 249/3/5
f 253/3/5 249/3/5 252/3/5
f 254/3/5 244/3/5 251/3/5
f 254/1/5 245/1/5 244/1/5
f 255/2/5 230/2/5 245/2/5
f 255/1/5 245/1/5 254/1/5
f 256/1/5 237/1/5 236/1/5
f 256/3/5 236/3/5 230/3/5
f 257/2/5 223/2/5 237/2/5
f 257/1/5 237/1/5 256/1/5
f 258/2/5 247/2/5 246/2/5
f 258/3/5 246/3/5 223/3/5
f 259/3/5 252/3/5 247/3/5
f 259/2/5 247/2/5 258/2/5
f 260/1/5 253/1/5 252/1/5
f 260/3/5 252/3/5 259/3/5
f 261/3/5 241/3/5 253/3/5
f 261/1/5 253/1/5 260/1/5
f 262/2/5 251/2/5 250/2/5
f 262/3/5 254/3/5 251/3/5
f 262/3/5 255/3/5 254/3/5
f 263/3/5 255/3/5 262/3/5
f 264/2/5 230/2/5 255/2/5
f 264/3/5 255/3/5 263/3/5
f 265/3/5 256/3/5 230/3/5
f 265/2/5 230/2/5 264/2/5
f 265/3/5 257/3/5 256/3/5
f 266/3/5 258/3/5 223/3/5
f 266/3/5 260/3/5 259/3/5
f 266/3/5 259/3/5 258/3/5
f 267/3/5 260/3/5 266/3/5
f 268/3/5 264/3/5 263/3/5
f 268/3/5 265/3/5 264/3/5
f 269/3/5 257/3/5 265/3/5
f 269/3/5 265/3/5 268/3/5
f 270/3/5 257/3/5 269/3/5
f 271/2/5 223/2/5 257/2/5
f 271/3/5 257/3/5 270/3/5
f 272/3/5 266/3/5 223/3/5
f 272/2/5 223/2/5 271/2/5
f 273/1/5 267/1/5 266/1/5
f 273/3/5 266/3/5 272/3/5
f 274/3/5 260/3/5 267/3/5
f 274/1/5 267/1/5 273/1/5
f 275/2/5 261/2/5 260/2/5
f 275/3/5 260/3/5 274/3/5
f 276/3/5 241/3/5 261/3/5
f 276/2/5 261/2/5 275/2/5
f 277/2/5 250/2/5 199/2/5
f 277/2/5 262/2/5 250/2/5
f 278/1/5 263/1/5 262/1/5
f 278/2/5 262/2/5 277/2/5
f 279/3/5 268/3/5 263/3/5
f 279/2/5 269/2/5 268/2/5
f 280/3/5 270/3/5 269/3/5
f 280/2/5 269/2/5 279/2/5
f 281/1/5 276/1/5 275/1/5
f 281/3/5 275/3/5 274/3/5
f 282/3/5 241/3/5 276/3/5
f 282/1/5 276/1/5 281/1/5
f 283/2/5 277/2/5 199/2/5
f 283/3/5 278/3/5 277/3/5
f 284/1/5 263/1/5 278/1/5
f 284/3/5 278/3/5 283/3/5
f 285/3/5 279/3/5 263/3/5
f 285/3/5 280/3/5 279/3/5
f 286/3/5 270/3/5 280/3/5
f 286/3/5 280/3/5 285/3/5
f 287/1/5 271/1/5 270/1/5
f 287/3/5 270/3/5 286/3/5
f 288/3/5 273/3/5 272/3/5
f 288/1/5 271/1/5 287/1/5
f 288/3/5 272/3/5 271/3/5
f 289/3/5 273/3/5 288/3/5
f 290/2/5 274/2/5 273/2/5
f 290/3/5 273/3/5 289/3/5
f 291/1/5 263/1/5 284/1/5
f 291/2/5 284/2/5 283/2/5
f 292/3/5 285/3/5 263/3/5
f 292/1/5 263/1/5 291/1/5
f 293/2/5 282/2/5 281/2/5
f 293/3/5 241/3/5 282/3/5
f 294/2/5 200/2/5 241/2/5
f 294/3/5 241/3/5 293/3/5
f 295/3/5 285/3/5 292/3/5
f 295/3/5 292/3/5 291/3/5
f 295/2/5 286/2/5 285/2/5
f 296/3/5 287/3/5 286/3/5
f 296/2/5 286/2/5 295/2/5
f 297/2/5 288/2/5 287/2/5
f 297/3/5 287/3/5 296/3/5
f 298/3/5 289/3/5 288/3/5
f 298/2/5 288/2/5 297/2/5
f 299/1/5 290/1/5 289/1/5
f 299/3/5 289/3/5 298/3/5
f 300/2/5 274/2/5 290/2/5
f 300/1/5 290/1/5 299/1/5
f 301/3/5 295/3/5 291/3/5
f 301/1/5 296/1/5 295/1/5
f 302/3/5 297/3/5 296/3/5
f 302/1/5 296/1/5 301/1/5
f 303/1/5 298/1/5 297/1/5
f 303/3/5 297/3/5 302/3/5
f 304/3/5 299/3/5 298/3/5
f 304/1/5 298/1/5 303/1/5
f 304/3/5 300/3/5 299/3/5
f 305/3/5 300/3/5 304/3/5
f 306/2/5 274/2/5 300/2/5
f 306/3/5 300/3/5 305/3/5
f 307/3/5 281/3/5 274/3/5
f 307/2/5 274/2/5 306/2/5
f 308/2/5 293/2/5 281/2/5
f 308/3/5 281/3/5 307/3/5
f 309/1/5 294/1/5 293/1/5
f 309/2/5 293/2/5 308/2/5
f 310/3/5 306/3/5 305/3/5
f 310/1/5 307/1/5 306/1/5
f 311/3/5 309/3/5 308/3/5
f 311/1/5 307/1/5 310/1/5
f 311/3/5 308/3/5 307/3/5
f 312/3/5 309/3/5 311/3/5
f 313/1/5 294/1/5 309/1/5
f 313/3/5 309/3/5 312/3/5
f 314/2/5 283/2/5 199/2/5
f 314/2/5 291/2/5 283/2/5
f 315/3/5 301/3/5 291/3/5
f 315/2/5 291/2/5 314/2/5
f 316/3/5 301/3/5 315/3/5
f 317/2/5 305/2/5 304/2/5
f 317/3/5 303/3/5 302/3/5
f 317/3/5 304/3/5 303/3/5
f 318/3/5 312/3/5 311/3/5
f 318/2/5 305/2/5 317/2/5
f 318/3/5 310/3/5 305/3/5
f 318/3/5 311/3/5 310/3/5
f 319/3/5 312/3/5 318/3/5
f 320/3/5 312/3/5 319/3/5
f 321/2/5 313/2/5 312/2/5
f 321/3/5 312/3/5 320/3/5
f 322/1/5 294/1/5 313/1/5
f 322/2/5 313/2/5 321/2/5
f 323/2/5 314/2/5 199/2/5
f 323/3/5 315/3/5 314/3/5
f 324/1/5 316/1/5 315/1/5
f 324/3/5 315/3/5 323/3/5
f 325/3/5 317/3/5 302/3/5
f 325/2/5 302/2/5 301/2/5
f 326/3/5 317/3/5 325/3/5
f 327/3/5 321/3/5 320/3/5
f 327/3/5 322/3/5 321/3/5
f 328/1/5 294/1/5 322/1/5
f 328/3/5 322/3/5 327/3/5
f 329/2/5 200/2/5 294/2/5
f 329/1/5 294/1/5 328/1/5
f 330/1/5 316/1/5 324/1/5
f 331/3/5 301/3/5 316/3/5
f 331/1/5 316/1/5 330/1/5
f 332/2/5 325/2/5 301/2/5
f 332/3/5 301/3/5 331/3/5
f 333/1/5 326/1/5 325/1/5
f 333/2/5 325/2/5 332/2/5
f 334/3/5 317/3/5 326/3/5
f 334/1/5 318/1/5 317/1/5
f 335/3/5 319/3/5 318/3/5
f 335/1/5 318/1/5 334/1/5
f 336/2/5 320/2/5 319/2/5
f 336/3/5 319/3/5 335/3/5
f 337/3/5 327/3/5 320/3/5
f 337/2/5 320/2/5 336/2/5
f 338/2/5 328/2/5 327/2/5
f 338/3/5 327/3/5 337/3/5
f 339/2/5 328/2/5 338/2/5
f 340/2/5 323/2/5 199/2/5
f 341/3/5 332/3/5 331/3/5
f 341/3/5 333/3/5 332/3/5
f 342/1/5 326/1/5 333/1/5
f 342/3/5 333/3/5 341/3/5
f 343/3/5 337/3/5 336/3/5
f 343/1/5 326/1/5 342/1/5
f 343/3/5 335/3/5 334/3/5
f 343/3/5 338/3/5 337/3/5
f 343/3/5 334/3/5 326/3/5
f 343/3/5 336/3/5 335/3/5
f 344/3/5 338/3/5 343/3/5
f 345/2/5 200/2/5 329/2/5
f 346/2/5 341/2/5 340/2/5
f 346/2/5 345/2/5 344/2/5
f 346/2/5 344/2/5 343/2/5
f 346/2/5 342/2/5 341/2/5
f 346/2/5 340/2/5 199/2/5
f 346/2/5 343/2/5 342/2/5
f 347/2/5 200/2/5 345/2/5
f 347/2/5 345/2/5 346/2/5
f 348/2/6 349/2/6 350/2/6
f 350/2/6 349/2/6 351/2/6
f 351/2/6 349/2/6 352/2/6
f 352/2/6 349/2/6 353/2/6
f 353/2/6 349/2/6 354/2/6
f 354/2/6 349/2/6 355/2/6
f 355/2/6 349/2/6 356/2/6
f 348/2/6 350/2/6 357/2/6
f 350/3/6 351/3/6 357/3/6
f 357/3/6 351/3/6 358/3/6
f 358/3/6 351/3/6 359/3/6
f 351/1/6 352/1/6 360/1/6
f 359/3/6 351/3/6 360/3/6
f 352/3/6 353/3/6 361/3/6
f 361/3/6 353/3/6 362/3/6
f 362/3/6 353/3/6 363/3/6
f 353/1/6 354/1/6 364/1/6
f 363/3/6 353/3/6 364/3/6
f 354/2/6 355/2/6 365/2/6
f 364/1/6 354/1/6 365/1/6
f 348/2/6 357/2/6 366/2/6
f 357/1/6 358/1/6 367/1/6
f 366/2/6 357/2/6 367/2/6
f 358/3/6 359/3/6 368/3/6
f 359/2/6 360/2/6 368/2/6
f 360/1/6 352/1/6 369/1/6
f 368/2/6 360/2/6 369/2/6
f 352/3/6 361/3/6 370/3/6
f 361/1/6 362/1/6 370/1/6
f 362/3/6 363/3/6 371/3/6
f 370/1/6 362/1/6 371/1/6
f 365/2/6 355/2/6 372/2/6
f 364/3/6 365/3/6 372/3/6
f 355/1/6 356/1/6 373/1/6
f 372/2/6 355/2/6 373/2/6
f 356/2/6 349/2/6 374/2/6
f 373/1/6 356/1/6 374/1/6
f 348/2/6 366/2/6 375/2/6
f 366/3/6 367/3/6 375/3/6
f 367/1/6 358/1/6 376/1/6
f 375/3/6 367/3/6 376/3/6
f 358/3/6 368/3/6 377/3/6
f 368/3/6 369/3/6 377/3/6
f 369/1/6 352/1/6 378/1/6
f 377/3/6 369/3/6 378/3/6
f 352/3/6 370/3/6 379/3/6
f 378/1/6 352/1/6 379/1/6
f 372/1/6 373/1/6 380/1/6
f 373/3/6 374/3/6 380/3/6
f 374/2/6 349/2/6 381/2/6
f 380/3/6 374/3/6 381/3/6
f 376/1/6 358/1/6 382/1/6
f 375/2/6 376/2/6 382/2/6
f 358/3/6 377/3/6 383/3/6
f 382/1/6 358/1/6 383/1/6
f 379/3/6 370/3/6 384/3/6
f 378/3/6 379/3/6 384/3/6
f 370/2/6 371/2/6 385/2/6
f 384/3/6 370/3/6 385/3/6
f 363/2/6 364/2/6 386/2/6
f 371/3/6 363/3/6 386/3/6
f 364/3/6 372/3/6 387/3/6
f 386/2/6 364/2/6 387/2/6
f 372/1/6 380/1/6 388/1/6
f 380/2/6 381/2/6 388/2/6
f 381/2/6 349/2/6 389/2/6
f 388/2/6 381/2/6 389/2/6
f 348/2/6 375/2/6 390/2/6
f 375/2/6 382/2/6 390/2/6
f 382/3/6 383/3/6 391/3/6
f 390/2/6 382/2/6 391/2/6
f 383/3/6 377/3/6 392/3/6
f 391/3/6 383/3/6 392/3/6
f 377/2/6 378/2/6 393/2/6
f 392/3/6 377/3/6 393/3/6
f 371/3/6 386/3/6 394/3/6
f 386/1/6 387/1/6 394/1/6
f 387/3/6 372/3/6 395/3/6
f 394/1/6 387/1/6 395/1/6
f 372/1/6 388/1/6 396/1/6
f 395/3/6 372/3/6 396/3/6
f 388/3/6 389/3/6 397/3/6
f 396/1/6 388/1/6 397/1/6
f 390/1/6 391/1/6 398/1/6
f 348/2/6 390/2/6 398/2/6
f 391/3/6 392/3/6 399/3/6
f 398/1/6 391/1/6 399/1/6
f 396/3/6 397/3/6 400/3/6
f 395/3/6 396/3/6 400/3/6
f 397/3/6 389/3/6 401/3/6
f 400/3/6 397/3/6 401/3/6
f 399/3/6 392/3/6 402/3/6
f 392/1/6 393/1/6 402/1/6
f 393/2/6 378/2/6 403/2/6
f 402/1/6 393/1/6 403/1/6
f 384/1/6 385/1/6 404/1/6
f 378/3/6 384/3/6 404/3/6
f 385/2/6 371/2/6 405/2/6
f 404/1/6 385/1/6 405/1/6
f 394/2/6 395/2/6 406/2/6
f 371/3/6 394/3/6 406/3/6
f 395/3/6 400/3/6 407/3/6
f 406/2/6 395/2/6 407/2/6
f 400/1/6 401/1/6 408/1/6
f 407/3/6 400/3/6 408/3/6
f 401/3/6 389/3/6 409/3/6
f 408/1/6 401/1/6 409/1/6
f 399/3/6 402/3/6 410/3/6
f 398/2/6 399/2/6 410/2/6
f 402/3/6 403/3/6 410/3/6
f 410/3/6 403/3/6 411/3/6
f 403/2/6 378/2/6 412/2/6
f 411/3/6 403/3/6 412/3/6
f 378/3/6 404/3/6 413/3/6
f 412/2/6 378/2/6 413/2/6
f 404/3/6 405/3/6 413/3/6
f 371/3/6 406/3/6 414/3/6
f 407/3/6 408/3/6 414/3/6
f 406/3/6 407/3/6 414/3/6
f 414/3/6 408/3/6 415/3/6
f 411/3/6 412/3/6 416/3/6
f 412/3/6 413/3/6 416/3/6
f 413/3/6 405/3/6 417/3/6
f 416/3/6 413/3/6 417/3/6
f 417/3/6 405/3/6 418/3/6
f 405/2/6 371/2/6 419/2/6
f 418/3/6 405/3/6 419/3/6
f 371/3/6 414/3/6 420/3/6
f 419/2/6 371/2/6 420/2/6
f 414/1/6 415/1/6 421/1/6
f 420/3/6 414/3/6 421/3/6
f 415/3/6 408/3/6 422/3/6
f 421/1/6 415/1/6 422/1/6
f 408/2/6 409/2/6 423/2/6
f 422/3/6 408/3/6 423/3/6
f 409/3/6 389/3/6 424/3/6
f 423/2/6 409/2/6 424/2/6
f 348/2/6 398/2/6 425/2/6
f 398/2/6 410/2/6 425/2/6
f 410/1/6 411/1/6 426/1/6
f 425/2/6 410/2/6 426/2/6
f 411/3/6 416/3/6 427/3/6
f 416/2/6 417/2/6 427/2/6
f 417/3/6 418/3/6 428/3/6
f 427/2/6 417/2/6 428/2/6
f 422/3/6 423/3/6 429/3/6
f 423/1/6 424/1/6 429/1/6
f 424/3/6 389/3/6 430/3/6
f 429/1/6 424/1/6 430/1/6
f 348/2/6 425/2/6 431/2/6
f 425/3/6 426/3/6 431/3/6
f 426/1/6 411/1/6 432/1/6
f 431/3/6 426/3/6 432/3/6
f 411/3/6 427/3/6 433/3/6
f 427/3/6 428/3/6 433/3/6
f 428/3/6 418/3/6 434/3/6
f 433/3/6 428/3/6 434/3/6
f 418/1/6 419/1/6 435/1/6
f 434/3/6 418/3/6 435/3/6
f 420/3/6 421/3/6 436/3/6
f 435/1/6 419/1/6 436/1/6
f 419/3/6 420/3/6 436/3/6
f 436/3/6 421/3/6 437/3/6
f 421/2/6 422/2/6 438/2/6
f 437/3/6 421/3/6 438/3/6
f 432/1/6 411/1/6 439/1/6
f 431/2/6 432/2/6 439/2/6
f 411/3/6 433/3/6 440/3/6
f 439/1/6 411/1/6 440/1/6
f 430/3/6 389/3/6 441/3/6
f 429/2/6 430/2/6 441/2/6
f 389/2/6 349/2/6 442/2/6
f 441/3/6 389/3/6 442/3/6
f 440/3/6 433/3/6 443/3/6
f 439/3/6 440/3/6 443/3/6
f 433/2/6 434/2/6 443/2/6
f 434/3/6 435/3/6 444/3/6
f 443/2/6 434/2/6 444/2/6
f 435/2/6 436/2/6 445/2/6
f 444/3/6 435/3/6 445/3/6
f 436/3/6 437/3/6 446/3/6
f 445/2/6 436/2/6 446/2/6
f 437/1/6 438/1/6 447/1/6
f 446/3/6 437/3/6 447/3/6
f 438/2/6 422/2/6 448/2/6
f 447/1/6 438/1/6 448/1/6
f 439/3/6 443/3/6 449/3/6
f 443/1/6 444/1/6 449/1/6
f 444/3/6 445/3/6 450/3/6
f 449/1/6 444/1/6 450/1/6
f 445/1/6 446/1/6 451/1/6
f 450/3/6 445/3/6 451/3/6
f 446/3/6 447/3/6 452/3/6
f 451/1/6 446/1/6 452/1/6
f 447/3/6 448/3/6 452/3/6
f 452/3/6 448/3/6 453/3/6
f 448/2/6 422/2/6 454/2/6
f 453/3/6 448/3/6 454/3/6
f 422/3/6 429/3/6 455/3/6
f 454/2/6 422/2/6 455/2/6
f 429/2/6 441/2/6 456/2/6
f 455/3/6 429/3/6 456/3/6
f 441/1/6 442/1/6 457/1/6
f 456/2/6 441/2/6 457/2/6
f 454/1/6 455/1/6 458/1/6
f 453/3/6 454/3/6 458/3/6
f 456/3/6 457/3/6 459/3/6
f 458/1/6 455/1/6 459/1/6
f 455/3/6 456/3/6 459/3/6
f 459/3/6 457/3/6 460/3/6
f 457/1/6 442/1/6 461/1/6
f 460/3/6 457/3/6 461/3/6
f 348/2/6 431/2/6 462/2/6
f 431/2/6 439/2/6 462/2/6
f 439/3/6 449/3/6 463/3/6
f 462/2/6 439/2/6 463/2/6
f 463/3/6 449/3/6 464/3/6
f 450/3/6 451/3/6 465/3/6
f 452/2/6 453/2/6 465/2/6
f 451/3/6 452/3/6 465/3/6
f 459/3/6 460/3/6 466/3/6
f 465/2/6 453/2/6 466/2/6
f 453/3/6 458/3/6 466/3/6
f 458/3/6 459/3/6 466/3/6
f 466/3/6 460/3/6 467/3/6
f 467/3/6 460/3/6 468/3/6
f 460/2/6 461/2/6 469/2/6
f 468/3/6 460/3/6 469/3/6
f 461/1/6 442/1/6 470/1/6
f 469/2/6 461/2/6 470/2/6
f 450/3/6 465/3/6 471/3/6
f 449/2/6 450/2/6 471/2/6
f 471/3/6 465/3/6 472/3/6
f 468/3/6 469/3/6 473/3/6
f 469/3/6 470/3/6 473/3/6
f 470/1/6 442/1/6 474/1/6
f 473/3/6 470/3/6 474/3/6
f 442/2/6 349/2/6 475/2/6
f 474/1/6 442/1/6 475/1/6
f 348/2/6 462/2/6 476/2/6
f 462/3/6 463/3/6 476/3/6
f 463/1/6 464/1/6 477/1/6
f 476/3/6 463/3/6 477/3/6
f 464/3/6 449/3/6 478/3/6
f 477/1/6 464/1/6 478/1/6
f 449/2/6 471/2/6 479/2/6
f 478/3/6 449/3/6 479/3/6
f 471/1/6 472/1/6 480/1/6
f 479/2/6 471/2/6 480/2/6
f 472/3/6 465/3/6 481/3/6
f 465/1/6 466/1/6 481/1/6
f 466/3/6 467/3/6 482/3/6
f 481/1/6 466/1/6 482/1/6
f 467/2/6 468/2/6 483/2/6
f 482/3/6 467/3/6 483/3/6
f 468/3/6 473/3/6 484/3/6
f 483/2/6 468/2/6 484/2/6
f 473/2/6 474/2/6 485/2/6
f 484/3/6 473/3/6 485/3/6
f 474/3/6 475/3/6 486/3/6
f 485/2/6 474/2/6 486/2/6
f 475/2/6 349/2/6 487/2/6
f 486/3/6 475/3/6 487/3/6
f 476/2/6 477/2/6 488/2/6
f 478/3/6 479/3/6 488/3/6
f 479/3/6 480/3/6 488/3/6
f 477/3/6 478/3/6 488/3/6
f 480/1/6 472/1/6 489/1/6
f 488/3/6 480/3/6 489/3/6
f 481/3/6 482/3/6 490/3/6
f 489/1/6 472/1/6 490/1/6
f 482/3/6 483/3/6 490/3/6
f 472/3/6 481/3/6 490/3/6
f 484/3/6 485/3/6 490/3/6
f 485/3/6 486/3/6 490/3/6
f 483/3/6 484/3/6 490/3/6
f 486/1/6 487/1/6 491/1/6
f 490/3/6 486/3/6 491/3/6
f 487/2/6 349/2/6 492/2/6
f 491/1/6 487/1/6 492/1/6
f 476/2/6 488/2/6 493/2/6
f 488/2/6 489/2/6 493/2/6
f 491/2/6 492/2/6 493/2/6
f 348/2/6 476/2/6 493/2/6
f 490/2/6 491/2/6 493/2/6
f 489/2/6 490/2/6 493/2/6
f 492/2/6 349/2/6 494/2/6
f 493/2/6 492/2/6 494/2/6
