# MagicaVoxel @ Ephtracy

# group
o carrot_1

# material
mtllib pumpkin_3-0-carrot_1.mtl
usemtl palette

# normals
vn -1 0 0
vn 1 0 0
vn 0 0 1
vn 0 0 -1
vn 0 -1 0
vn 0 1 0

# texcoords
vt 0.00195313 0.5
vt 0.00585938 0.5
vt 0.884766 0.5
vt 0.888672 0.5
vt 0.947266 0.5
vt 0.978516 0.5

# verts
v -0.6 1.1 -5.96046e-08
v -0.6 1.1 -0.2
v -0.6 1.1 -0.4
v -0.6 1.3 -5.96046e-08
v -0.6 1.3 -0.2
v -0.6 1.3 -0.4
v -0.4 0.5 -0.2
v -0.4 0.5 -0.4
v -0.4 0.5 -0.6
v -0.4 0.7 -0.2
v -0.4 0.7 -0.4
v -0.4 0.7 -0.6
v -0.4 1.1 0.2
v -0.4 1.1 -5.96046e-08
v -0.4 1.3 0.2
v -0.4 1.3 -5.96046e-08
v -0.2 0.3 0.2
v -0.2 0.3 -5.96046e-08
v -0.2 0.5 0.2
v -0.2 0.5 -5.96046e-08
v -0.2 0.5 -0.2
v -0.2 0.7 -5.96046e-08
v -0.2 0.7 -0.2
v -0.2 0.9 0.2
v -0.2 0.9 -5.96046e-08
v -0.2 1.1 0.2
v -0.2 1.1 -5.96046e-08
v -5.96046e-08 0.1 0.4
v -5.96046e-08 0.1 0.2
v -5.96046e-08 0.1 -5.96046e-08
v -5.96046e-08 0.3 0.4
v -5.96046e-08 0.3 0.2
v -5.96046e-08 0.3 -5.96046e-08
v -5.96046e-08 0.3 -0.2
v -5.96046e-08 0.5 0.4
v -5.96046e-08 0.5 0.2
v -5.96046e-08 0.5 -5.96046e-08
v -5.96046e-08 0.5 -0.2
v -5.96046e-08 0.7 0.4
v -5.96046e-08 0.7 0.2
v -5.96046e-08 0.7 -5.96046e-08
v -5.96046e-08 0.9 0.4
v -5.96046e-08 0.9 0.2
v -5.96046e-08 0.9 -5.96046e-08
v 0.2 0.7 0.6
v 0.2 0.7 0.4
v 0.2 0.9 0.6
v 0.2 0.9 0.4
v -0.2 1.1 -0.2
v -0.2 1.1 -0.4
v -0.2 1.3 -0.2
v -0.2 1.3 -0.4
v -5.96046e-08 0.5 -0.2
v -5.96046e-08 0.5 -0.4
v -5.96046e-08 0.5 -0.6
v -5.96046e-08 0.7 -0.2
v -5.96046e-08 0.7 -0.4
v -5.96046e-08 0.7 -0.6
v -5.96046e-08 1.1 0.2
v -5.96046e-08 1.1 -5.96046e-08
v -5.96046e-08 1.1 -0.2
v -5.96046e-08 1.3 0.2
v -5.96046e-08 1.3 -5.96046e-08
v -5.96046e-08 1.3 -0.2
v 0.2 0.3 -5.96046e-08
v 0.2 0.3 -0.2
v 0.2 0.5 0.2
v 0.2 0.5 -5.96046e-08
v 0.2 0.5 -0.2
v 0.2 0.7 0.2
v 0.2 0.7 -5.96046e-08
v 0.2 0.7 -0.2
v 0.2 0.9 0.2
v 0.2 0.9 -5.96046e-08
v 0.2 1.1 0.2
v 0.2 1.1 -5.96046e-08
v 0.4 0.1 0.4
v 0.4 0.1 0.2
v 0.4 0.1 -5.96046e-08
v 0.4 0.3 0.4
v 0.4 0.3 0.2
v 0.4 0.3 -5.96046e-08
v 0.4 0.5 0.4
v 0.4 0.5 0.2
v 0.4 0.5 -5.96046e-08
v 0.4 0.7 0.2
v 0.4 0.7 -5.96046e-08
v 0.4 0.9 0.2
v 0.4 0.9 -5.96046e-08
v 0.6 0.7 0.6
v 0.6 0.7 0.4
v 0.6 0.7 0.2
v 0.6 0.9 0.6
v 0.6 0.9 0.4
v 0.6 0.9 0.2
v 0.2 0.7 0.6
v 0.2 0.9 0.6
v 0.4 0.7 0.6
v 0.4 0.9 0.6
v 0.6 0.7 0.6
v 0.6 0.9 0.6
v -5.96046e-08 0.1 0.4
v -5.96046e-08 0.3 0.4
v -5.96046e-08 0.5 0.4
v -5.96046e-08 0.7 0.4
v -5.96046e-08 0.9 0.4
v 0.2 0.1 0.4
v 0.2 0.3 0.4
v 0.2 0.5 0.4
v 0.2 0.7 0.4
v 0.2 0.9 0.4
v 0.4 0.1 0.4
v 0.4 0.3 0.4
v 0.4 0.5 0.4
v -0.4 1.1 0.2
v -0.4 1.3 0.2
v -0.2 0.3 0.2
v -0.2 0.5 0.2
v -0.2 0.9 0.2
v -0.2 1.1 0.2
v -0.2 1.3 0.2
v -5.96046e-08 0.3 0.2
v -5.96046e-08 0.5 0.2
v -5.96046e-08 0.7 0.2
v -5.96046e-08 0.9 0.2
v -5.96046e-08 1.1 0.2
v -5.96046e-08 1.3 0.2
v 0.2 0.5 0.2
v 0.2 0.7 0.2
v 0.2 0.9 0.2
v 0.2 1.1 0.2
v -0.6 1.1 -5.96046e-08
v -0.6 1.3 -5.96046e-08
v -0.4 1.1 -5.96046e-08
v -0.4 1.3 -5.96046e-08
v -0.2 0.5 -5.96046e-08
v -0.2 0.7 -5.96046e-08
v -5.96046e-08 0.5 -5.96046e-08
v -5.96046e-08 0.7 -5.96046e-08
v -0.4 0.5 -0.2
v -0.4 0.7 -0.2
v -0.2 0.5 -0.2
v -0.2 0.7 -0.2
v 0.4 0.7 0.2
v 0.4 0.9 0.2
v 0.6 0.7 0.2
v 0.6 0.9 0.2
v -0.2 0.3 -5.96046e-08
v -0.2 0.5 -5.96046e-08
v -0.2 0.9 -5.96046e-08
v -0.2 1.1 -5.96046e-08
v -5.96046e-08 0.1 -5.96046e-08
v -5.96046e-08 0.3 -5.96046e-08
v -5.96046e-08 0.5 -5.96046e-08
v -5.96046e-08 0.7 -5.96046e-08
v -5.96046e-08 0.9 -5.96046e-08
v -5.96046e-08 1.1 -5.96046e-08
v 0.2 0.1 -5.96046e-08
v 0.2 0.3 -5.96046e-08
v 0.2 0.5 -5.96046e-08
v 0.2 0.7 -5.96046e-08
v 0.2 0.9 -5.96046e-08
v 0.2 1.1 -5.96046e-08
v 0.4 0.1 -5.96046e-08
v 0.4 0.3 -5.96046e-08
v 0.4 0.5 -5.96046e-08
v 0.4 0.7 -5.96046e-08
v 0.4 0.9 -5.96046e-08
v -0.2 1.1 -0.2
v -0.2 1.3 -0.2
v -5.96046e-08 0.3 -0.2
v -5.96046e-08 0.5 -0.2
v -5.96046e-08 0.7 -0.2
v -5.96046e-08 1.1 -0.2
v -5.96046e-08 1.3 -0.2
v 0.2 0.3 -0.2
v 0.2 0.5 -0.2
v 0.2 0.7 -0.2
v -0.6 1.1 -0.4
v -0.6 1.3 -0.4
v -0.2 1.1 -0.4
v -0.2 1.3 -0.4
v -0.4 0.5 -0.6
v -0.4 0.7 -0.6
v -0.2 0.5 -0.6
v -0.2 0.7 -0.6
v -5.96046e-08 0.5 -0.6
v -5.96046e-08 0.7 -0.6
v -5.96046e-08 0.1 0.4
v 0.2 0.1 0.4
v 0.4 0.1 0.4
v -5.96046e-08 0.1 0.2
v 0.2 0.1 0.2
v 0.4 0.1 0.2
v -5.96046e-08 0.1 -5.96046e-08
v 0.2 0.1 -5.96046e-08
v 0.4 0.1 -5.96046e-08
v -0.2 0.3 0.2
v -5.96046e-08 0.3 0.2
v -0.2 0.3 -5.96046e-08
v -5.96046e-08 0.3 -5.96046e-08
v 0.2 0.3 -5.96046e-08
v -5.96046e-08 0.3 -0.2
v 0.2 0.3 -0.2
v -0.2 0.5 -5.96046e-08
v -5.96046e-08 0.5 -5.96046e-08
v -0.4 0.5 -0.2
v -0.2 0.5 -0.2
v -5.96046e-08 0.5 -0.2
v -0.4 0.5 -0.4
v -0.2 0.5 -0.4
v -5.96046e-08 0.5 -0.4
v -0.4 0.5 -0.6
v -0.2 0.5 -0.6
v -5.96046e-08 0.5 -0.6
v 0.2 0.7 0.6
v 0.4 0.7 0.6
v 0.6 0.7 0.6
v -5.96046e-08 0.7 0.4
v 0.2 0.7 0.4
v 0.4 0.7 0.4
v 0.6 0.7 0.4
v -5.96046e-08 0.7 0.2
v 0.2 0.7 0.2
v 0.4 0.7 0.2
v 0.6 0.7 0.2
v 0.2 0.7 -5.96046e-08
v 0.4 0.7 -5.96046e-08
v -0.2 0.9 0.2
v -5.96046e-08 0.9 0.2
v -0.2 0.9 -5.96046e-08
v -5.96046e-08 0.9 -5.96046e-08
v -0.4 1.1 0.2
v -0.2 1.1 0.2
v -0.6 1.1 -5.96046e-08
v -0.4 1.1 -5.96046e-08
v -0.2 1.1 -5.96046e-08
v -5.96046e-08 1.1 -5.96046e-08
v -0.6 1.1 -0.2
v -0.4 1.1 -0.2
v -0.2 1.1 -0.2
v -5.96046e-08 1.1 -0.2
v -0.6 1.1 -0.4
v -0.2 1.1 -0.4
v -5.96046e-08 0.5 0.4
v 0.2 0.5 0.4
v 0.4 0.5 0.4
v -0.2 0.5 0.2
v -5.96046e-08 0.5 0.2
v 0.2 0.5 0.2
v 0.4 0.5 0.2
v -0.2 0.5 -5.96046e-08
v -5.96046e-08 0.5 -5.96046e-08
v 0.2 0.5 -5.96046e-08
v 0.4 0.5 -5.96046e-08
v -0.2 0.7 -5.96046e-08
v -5.96046e-08 0.7 -5.96046e-08
v 0.2 0.7 -5.96046e-08
v -0.4 0.7 -0.2
v -0.2 0.7 -0.2
v -5.96046e-08 0.7 -0.2
v 0.2 0.7 -0.2
v -0.4 0.7 -0.4
v -0.2 0.7 -0.4
v -5.96046e-08 0.7 -0.4
v -0.4 0.7 -0.6
v -0.2 0.7 -0.6
v -5.96046e-08 0.7 -0.6
v 0.2 0.9 0.6
v 0.4 0.9 0.6
v 0.6 0.9 0.6
v -5.96046e-08 0.9 0.4
v 0.2 0.9 0.4
v 0.4 0.9 0.4
v 0.6 0.9 0.4
v -5.96046e-08 0.9 0.2
v 0.2 0.9 0.2
v 0.4 0.9 0.2
v 0.6 0.9 0.2
v 0.2 0.9 -5.96046e-08
v 0.4 0.9 -5.96046e-08
v -5.96046e-08 1.1 0.2
v 0.2 1.1 0.2
v -5.96046e-08 1.1 -5.96046e-08
v 0.2 1.1 -5.96046e-08
v -0.4 1.3 0.2
v -0.2 1.3 0.2
v -5.96046e-08 1.3 0.2
v -0.6 1.3 -5.96046e-08
v -0.4 1.3 -5.96046e-08
v -0.2 1.3 -5.96046e-08
v -5.96046e-08 1.3 -5.96046e-08
v -0.6 1.3 -0.2
v -0.4 1.3 -0.2
v -0.2 1.3 -0.2
v -5.96046e-08 1.3 -0.2
v -0.6 1.3 -0.4
v -0.2 1.3 -0.4

# faces
f 4/6/1 2/6/1 1/6/1
f 5/3/1 3/3/1 2/3/1
f 5/6/1 2/6/1 4/6/1
f 6/3/1 3/3/1 5/3/1
f 10/5/1 8/5/1 7/5/1
f 11/6/1 9/6/1 8/6/1
f 11/5/1 8/5/1 10/5/1
f 12/6/1 9/6/1 11/6/1
f 15/6/1 14/6/1 13/6/1
f 16/6/1 14/6/1 15/6/1
f 19/4/1 18/4/1 17/4/1
f 20/4/1 18/4/1 19/4/1
f 22/3/1 21/3/1 20/3/1
f 23/3/1 21/3/1 22/3/1
f 26/3/1 25/3/1 24/3/1
f 27/3/1 25/3/1 26/3/1
f 31/4/1 29/4/1 28/4/1
f 32/3/1 30/3/1 29/3/1
f 32/4/1 29/4/1 31/4/1
f 33/3/1 30/3/1 32/3/1
f 35/2/1 32/2/1 31/2/1
f 36/2/1 32/2/1 35/2/1
f 37/6/1 34/6/1 33/6/1
f 38/6/1 34/6/1 37/6/1
f 40/3/1 37/3/1 36/3/1
f 41/3/1 37/3/1 40/3/1
f 42/6/1 40/6/1 39/6/1
f 43/3/1 41/3/1 40/3/1
f 43/6/1 40/6/1 42/6/1
f 44/3/1 41/3/1 43/3/1
f 47/6/1 46/6/1 45/6/1
f 48/6/1 46/6/1 47/6/1
f 49/3/2 50/3/2 51/3/2
f 51/3/2 50/3/2 52/3/2
f 53/6/2 54/6/2 56/6/2
f 54/5/2 55/5/2 57/5/2
f 56/6/2 54/6/2 57/6/2
f 57/5/2 55/5/2 58/5/2
f 59/5/2 60/5/2 62/5/2
f 60/3/2 61/3/2 63/3/2
f 62/5/2 60/5/2 63/5/2
f 63/3/2 61/3/2 64/3/2
f 65/6/2 66/6/2 68/6/2
f 68/6/2 66/6/2 69/6/2
f 67/3/2 68/3/2 70/3/2
f 68/5/2 69/5/2 71/5/2
f 70/3/2 68/3/2 71/3/2
f 71/5/2 69/5/2 72/5/2
f 73/3/2 74/3/2 75/3/2
f 75/3/2 74/3/2 76/3/2
f 77/2/2 78/2/2 80/2/2
f 78/4/2 79/4/2 81/4/2
f 80/2/2 78/2/2 81/2/2
f 81/4/2 79/4/2 82/4/2
f 80/1/2 81/1/2 83/1/2
f 81/2/2 82/2/2 84/2/2
f 83/1/2 81/1/2 84/1/2
f 84/2/2 82/2/2 85/2/2
f 86/5/2 87/5/2 88/5/2
f 88/5/2 87/5/2 89/5/2
f 90/3/2 91/3/2 93/3/2
f 91/5/2 92/5/2 94/5/2
f 93/3/2 91/3/2 94/3/2
f 94/5/2 92/5/2 95/5/2
f 98/6/3 97/6/3 96/6/3
f 99/6/3 97/6/3 98/6/3
f 100/3/3 99/3/3 98/3/3
f 101/3/3 99/3/3 100/3/3
f 107/4/3 103/4/3 102/4/3
f 108/2/3 104/2/3 103/2/3
f 108/4/3 103/4/3 107/4/3
f 109/2/3 104/2/3 108/2/3
f 110/6/3 106/6/3 105/6/3
f 111/6/3 106/6/3 110/6/3
f 112/2/3 108/2/3 107/2/3
f 113/1/3 109/1/3 108/1/3
f 113/2/3 108/2/3 112/2/3
f 114/1/3 109/1/3 113/1/3
f 120/6/3 116/6/3 115/6/3
f 121/6/3 116/6/3 120/6/3
f 122/4/3 118/4/3 117/4/3
f 123/4/3 118/4/3 122/4/3
f 125/3/3 120/3/3 119/3/3
f 126/5/3 121/5/3 120/5/3
f 126/3/3 120/3/3 125/3/3
f 127/5/3 121/5/3 126/5/3
f 128/3/3 124/3/3 123/3/3
f 129/3/3 124/3/3 128/3/3
f 130/3/3 126/3/3 125/3/3
f 131/3/3 126/3/3 130/3/3
f 134/6/3 133/6/3 132/6/3
f 135/6/3 133/6/3 134/6/3
f 138/3/3 137/3/3 136/3/3
f 139/3/3 137/3/3 138/3/3
f 142/5/3 141/5/3 140/5/3
f 143/5/3 141/5/3 142/5/3
f 144/5/4 145/5/4 146/5/4
f 146/5/4 145/5/4 147/5/4
f 148/4/4 149/4/4 153/4/4
f 153/4/4 149/4/4 154/4/4
f 150/3/4 151/3/4 156/3/4
f 156/3/4 151/3/4 157/3/4
f 152/3/4 153/3/4 158/3/4
f 158/3/4 153/3/4 159/3/4
f 156/3/4 157/3/4 161/3/4
f 155/3/4 156/3/4 161/3/4
f 161/3/4 157/3/4 162/3/4
f 162/3/4 157/3/4 163/3/4
f 158/4/4 159/4/4 164/4/4
f 159/2/4 160/2/4 165/2/4
f 164/4/4 159/4/4 165/4/4
f 165/2/4 160/2/4 166/2/4
f 161/5/4 162/5/4 167/5/4
f 167/5/4 162/5/4 168/5/4
f 169/3/4 170/3/4 174/3/4
f 174/3/4 170/3/4 175/3/4
f 171/6/4 172/6/4 176/6/4
f 172/5/4 173/5/4 177/5/4
f 176/6/4 172/6/4 177/6/4
f 177/5/4 173/5/4 178/5/4
f 179/3/4 180/3/4 181/3/4
f 181/3/4 180/3/4 182/3/4
f 183/6/4 184/6/4 185/6/4
f 185/6/4 184/6/4 186/6/4
f 185/5/4 186/5/4 187/5/4
f 187/5/4 186/5/4 188/5/4
f 192/4/5 190/4/5 189/4/5
f 193/2/5 191/2/5 190/2/5
f 193/4/5 190/4/5 192/4/5
f 194/2/5 191/2/5 193/2/5
f 195/3/5 193/3/5 192/3/5
f 196/4/5 194/4/5 193/4/5
f 196/3/5 193/3/5 195/3/5
f 197/4/5 194/4/5 196/4/5
f 200/4/5 199/4/5 198/4/5
f 201/4/5 199/4/5 200/4/5
f 203/6/5 202/6/5 201/6/5
f 204/6/5 202/6/5 203/6/5
f 208/3/5 206/3/5 205/3/5
f 209/3/5 206/3/5 208/3/5
f 210/5/5 208/5/5 207/5/5
f 211/6/5 209/6/5 208/6/5
f 211/5/5 208/5/5 210/5/5
f 212/6/5 209/6/5 211/6/5
f 213/6/5 211/6/5 210/6/5
f 214/5/5 212/5/5 211/5/5
f 214/6/5 211/6/5 213/6/5
f 215/5/5 212/5/5 214/5/5
f 220/6/5 217/6/5 216/6/5
f 221/3/5 218/3/5 217/3/5
f 221/6/5 217/6/5 220/6/5
f 222/3/5 218/3/5 221/3/5
f 223/6/5 220/6/5 219/6/5
f 224/3/5 221/3/5 220/3/5
f 224/6/5 220/6/5 223/6/5
f 225/5/5 222/5/5 221/5/5
f 225/3/5 221/3/5 224/3/5
f 226/5/5 222/5/5 225/5/5
f 227/5/5 225/5/5 224/5/5
f 228/5/5 225/5/5 227/5/5
f 231/3/5 230/3/5 229/3/5
f 232/3/5 230/3/5 231/3/5
f 236/6/5 234/6/5 233/6/5
f 237/6/5 234/6/5 236/6/5
f 239/6/5 236/6/5 235/6/5
f 240/5/5 237/5/5 236/5/5
f 240/6/5 236/6/5 239/6/5
f 241/3/5 238/3/5 237/3/5
f 241/5/5 237/5/5 240/5/5
f 242/3/5 238/3/5 241/3/5
f 243/3/5 240/3/5 239/3/5
f 243/3/5 241/3/5 240/3/5
f 244/3/5 241/3/5 243/3/5
f 245/2/6 246/2/6 249/2/6
f 246/1/6 247/1/6 250/1/6
f 249/2/6 246/2/6 250/2/6
f 250/1/6 247/1/6 251/1/6
f 248/4/6 249/4/6 252/4/6
f 252/4/6 249/4/6 253/4/6
f 250/2/6 251/2/6 254/2/6
f 254/2/6 251/2/6 255/2/6
f 256/3/6 257/3/6 260/3/6
f 257/5/6 258/5/6 261/5/6
f 260/3/6 257/3/6 261/3/6
f 261/5/6 258/5/6 262/5/6
f 259/5/6 260/5/6 263/5/6
f 260/6/6 261/6/6 264/6/6
f 263/5/6 260/5/6 264/5/6
f 264/6/6 261/6/6 265/6/6
f 263/6/6 264/6/6 266/6/6
f 264/5/6 265/5/6 267/5/6
f 266/6/6 264/6/6 267/6/6
f 267/5/6 265/5/6 268/5/6
f 269/6/6 270/6/6 273/6/6
f 270/3/6 271/3/6 274/3/6
f 273/6/6 270/6/6 274/6/6
f 274/3/6 271/3/6 275/3/6
f 272/6/6 273/6/6 276/6/6
f 273/3/6 274/3/6 277/3/6
f 276/6/6 273/6/6 277/6/6
f 274/5/6 275/5/6 278/5/6
f 277/3/6 274/3/6 278/3/6
f 278/5/6 275/5/6 279/5/6
f 277/5/6 278/5/6 280/5/6
f 280/5/6 278/5/6 281/5/6
f 282/3/6 283/3/6 284/3/6
f 284/3/6 283/3/6 285/3/6
f 286/6/6 287/6/6 290/6/6
f 287/5/6 288/5/6 291/5/6
f 290/6/6 287/6/6 291/6/6
f 291/5/6 288/5/6 292/5/6
f 289/6/6 290/6/6 293/6/6
f 290/5/6 291/5/6 294/5/6
f 293/6/6 290/6/6 294/6/6
f 291/3/6 292/3/6 295/3/6
f 294/5/6 291/5/6 295/5/6
f 295/3/6 292/3/6 296/3/6
f 293/3/6 294/3/6 297/3/6
f 294/3/6 295/3/6 297/3/6
f 297/3/6 295/3/6 298/3/6
