# MagicaVoxel @ Ephtracy

# group
o carrot_1

# material
mtllib pumpkin_1-0-carrot_1.mtl
usemtl palette

# normals
vn -1 0 0
vn 1 0 0
vn 0 0 1
vn 0 0 -1
vn 0 -1 0
vn 0 1 0

# texcoords
vt 0.947266 0.5
vt 0.978516 0.5

# verts
v -0.4 0.5 -0.2
v -0.4 0.5 -0.4
v -0.4 0.5 -0.6
v -0.4 0.7 -0.2
v -0.4 0.7 -0.4
v -0.4 0.7 -0.6
v -0.2 0.3 -5.96046e-08
v -0.2 0.3 -0.4
v -0.2 0.5 -5.96046e-08
v -0.2 0.5 -0.2
v -0.2 0.5 -0.4
v 0 0.1 0.2
v 0 0.1 -5.96046e-08
v 0 0.3 0.2
v 0 0.3 -5.96046e-08
v 0 0.5 0.2
v 0 0.5 -5.96046e-08
v 0 0.5 -0.2
v 0 0.7 -5.96046e-08
v 0 0.7 -0.2
v 0 0.5 -0.2
v 0 0.5 -0.4
v 0 0.5 -0.6
v 0 0.7 -0.2
v 0 0.7 -0.6
v 0.2 0.1 0.2
v 0.2 0.1 -5.96046e-08
v 0.2 0.3 0.2
v 0.2 0.3 -5.96046e-08
v 0.2 0.3 -0.4
v 0.2 0.5 0.2
v 0.2 0.5 -5.96046e-08
v 0.2 0.5 -0.2
v 0.2 0.5 -0.4
v 0.2 0.7 -5.96046e-08
v 0.2 0.7 -0.2
v 0 0.1 0.2
v 0 0.3 0.2
v 0 0.5 0.2
v 0.2 0.1 0.2
v 0.2 0.3 0.2
v 0.2 0.5 0.2
v -0.2 0.3 -5.96046e-08
v -0.2 0.5 -5.96046e-08
v 0 0.3 -5.96046e-08
v 0 0.5 -5.96046e-08
v 0 0.7 -5.96046e-08
v 0.2 0.5 -5.96046e-08
v 0.2 0.7 -5.96046e-08
v -0.4 0.5 -0.2
v -0.4 0.7 -0.2
v -0.2 0.5 -0.2
v -0.2 0.7 -0.2
v 0 0.5 -0.2
v 0 0.7 -0.2
v 0 0.1 -5.96046e-08
v 0 0.3 -5.96046e-08
v 0.2 0.1 -5.96046e-08
v 0.2 0.3 -5.96046e-08
v 0 0.5 -0.2
v 0 0.7 -0.2
v 0.2 0.5 -0.2
v 0.2 0.7 -0.2
v -0.2 0.3 -0.4
v -0.2 0.5 -0.4
v 0 0.5 -0.4
v 0.2 0.3 -0.4
v 0.2 0.5 -0.4
v -0.4 0.5 -0.6
v -0.4 0.7 -0.6
v 0 0.5 -0.6
v 0 0.7 -0.6
v 0 0.1 0.2
v 0.2 0.1 0.2
v 0 0.1 -5.96046e-08
v 0.2 0.1 -5.96046e-08
v -0.2 0.3 -5.96046e-08
v 0 0.3 -5.96046e-08
v 0.2 0.3 -5.96046e-08
v -0.2 0.3 -0.4
v 0.2 0.3 -0.4
v -0.4 0.5 -0.2
v -0.2 0.5 -0.2
v -0.4 0.5 -0.4
v -0.2 0.5 -0.4
v 0 0.5 -0.4
v -0.4 0.5 -0.6
v 0 0.5 -0.6
v 0 0.5 0.2
v 0.2 0.5 0.2
v -0.2 0.5 -5.96046e-08
v 0 0.5 -5.96046e-08
v 0.2 0.5 -5.96046e-08
v -0.2 0.5 -0.2
v 0 0.5 -0.2
v 0.2 0.5 -0.2
v 0 0.5 -0.4
v 0.2 0.5 -0.4
v 0 0.7 -5.96046e-08
v 0.2 0.7 -5.96046e-08
v -0.4 0.7 -0.2
v -0.2 0.7 -0.2
v 0 0.7 -0.2
v 0.2 0.7 -0.2
v -0.4 0.7 -0.4
v -0.2 0.7 -0.4
v -0.4 0.7 -0.6
v 0 0.7 -0.6

# faces
f 4/1/1 2/1/1 1/1/1
f 5/2/1 3/2/1 2/2/1
f 5/1/1 2/1/1 4/1/1
f 6/2/1 3/2/1 5/2/1
f 9/2/1 8/2/1 7/2/1
f 10/2/1 8/2/1 9/2/1
f 11/2/1 8/2/1 10/2/1
f 14/2/1 13/2/1 12/2/1
f 15/2/1 13/2/1 14/2/1
f 16/1/1 15/1/1 14/1/1
f 17/1/1 15/1/1 16/1/1
f 19/1/1 18/1/1 17/1/1
f 20/1/1 18/1/1 19/1/1
f 21/2/2 22/2/2 24/2/2
f 22/2/2 23/2/2 24/2/2
f 24/2/2 23/2/2 25/2/2
f 26/2/2 27/2/2 28/2/2
f 28/2/2 27/2/2 29/2/2
f 28/1/2 29/1/2 31/1/2
f 29/2/2 30/2/2 32/2/2
f 31/1/2 29/1/2 32/1/2
f 32/2/2 30/2/2 33/2/2
f 33/2/2 30/2/2 34/2/2
f 32/1/2 33/1/2 35/1/2
f 35/1/2 33/1/2 36/1/2
f 40/2/3 38/2/3 37/2/3
f 41/1/3 39/1/3 38/1/3
f 41/2/3 38/2/3 40/2/3
f 42/1/3 39/1/3 41/1/3
f 45/2/3 44/2/3 43/2/3
f 46/2/3 44/2/3 45/2/3
f 48/1/3 47/1/3 46/1/3
f 49/1/3 47/1/3 48/1/3
f 52/1/3 51/1/3 50/1/3
f 53/1/3 51/1/3 52/1/3
f 54/2/3 53/2/3 52/2/3
f 55/2/3 53/2/3 54/2/3
f 56/2/4 57/2/4 58/2/4
f 58/2/4 57/2/4 59/2/4
f 60/1/4 61/1/4 62/1/4
f 62/1/4 61/1/4 63/1/4
f 64/2/4 65/2/4 66/2/4
f 64/2/4 66/2/4 67/2/4
f 67/2/4 66/2/4 68/2/4
f 69/2/4 70/2/4 71/2/4
f 71/2/4 70/2/4 72/2/4
f 75/2/5 74/2/5 73/2/5
f 76/2/5 74/2/5 75/2/5
f 80/2/5 78/2/5 77/2/5
f 80/2/5 79/2/5 78/2/5
f 81/2/5 79/2/5 80/2/5
f 84/1/5 83/1/5 82/1/5
f 85/1/5 83/1/5 84/1/5
f 87/2/5 85/2/5 84/2/5
f 87/2/5 86/2/5 85/2/5
f 88/2/5 86/2/5 87/2/5
f 89/1/6 90/1/6 92/1/6
f 92/1/6 90/1/6 93/1/6
f 91/2/6 92/2/6 94/2/6
f 94/2/6 92/2/6 95/2/6
f 95/2/6 96/2/6 97/2/6
f 97/2/6 96/2/6 98/2/6
f 99/1/6 100/1/6 103/1/6
f 103/1/6 100/1/6 104/1/6
f 101/1/6 102/1/6 105/1/6
f 102/2/6 103/2/6 106/2/6
f 105/1/6 102/1/6 106/1/6
f 105/2/6 106/2/6 107/2/6
f 106/2/6 103/2/6 108/2/6
f 107/2/6 106/2/6 108/2/6
