# MagicaVoxel @ Ephtracy

# group
o 

# material
mtllib NPC6_leftarm_1.mtl
usemtl palette

# normals
vn -1 0 0
vn 1 0 0
vn 0 0 1
vn 0 0 -1
vn 0 -1 0
vn 0 1 0

# texcoords
vt 0.474609 0.5
vt 0.501953 0.5
vt 0.845703 0.5
vt 0.958984 0.5
vt 0.974609 0.5
vt 0.990234 0.5

# verts
v -0.9 -0.9 0
v -0.9 -0.9 -1.2
v -0.9 0.9 0
v -0.9 0.9 -1.2
v -0.8 -0.8 -1.2
v -0.8 -0.8 -1.8
v -0.8 -0.8 -1.9
v -0.8 -0.8 -2.2
v -0.8 0.8 -1.2
v -0.8 0.8 -1.8
v -0.8 0.8 -1.9
v -0.8 0.8 -2.2
v 0.8 -0.8 -1.2
v 0.8 -0.8 -1.8
v 0.8 -0.8 -1.9
v 0.8 -0.8 -2.2
v 0.8 0.8 -1.2
v 0.8 0.8 -1.8
v 0.8 0.8 -1.9
v 0.8 0.8 -2.2
v 0.9 -0.9 0
v 0.9 -0.9 -1.2
v 0.9 0.9 0
v 0.9 0.9 -1.2
v -0.9 -0.9 0
v -0.9 0.9 0
v 0.9 -0.9 0
v 0.9 0.9 0
v -0.9 -0.9 -1.2
v -0.9 0.9 -1.2
v -0.8 -0.8 -1.2
v -0.8 0.8 -1.2
v 0.8 -0.8 -1.2
v 0.8 0.8 -1.2
v 0.9 -0.9 -1.2
v 0.9 0.9 -1.2
v -0.8 -0.8 -2.2
v -0.8 0.8 -2.2
v 0.8 -0.8 -2.2
v 0.8 0.8 -2.2
v -0.9 -0.9 0
v 0.9 -0.9 0
v -0.9 -0.9 -1.2
v 0.9 -0.9 -1.2
v -0.8 -0.8 -1.2
v 0.8 -0.8 -1.2
v -0.8 -0.8 -1.8
v 0.8 -0.8 -1.8
v -0.8 -0.8 -1.9
v 0.8 -0.8 -1.9
v -0.8 -0.8 -2.2
v 0.8 -0.8 -2.2
v -0.8 0.8 -1.2
v 0.8 0.8 -1.2
v -0.8 0.8 -1.8
v 0.8 0.8 -1.8
v -0.8 0.8 -1.9
v 0.8 0.8 -1.9
v -0.8 0.8 -2.2
v 0.8 0.8 -2.2
v -0.9 0.9 0
v 0.9 0.9 0
v -0.9 0.9 -1.2
v 0.9 0.9 -1.2

# faces
f 3/6/1 2/6/1 1/6/1
f 4/6/1 2/6/1 3/6/1
f 9/2/1 6/2/1 5/2/1
f 10/1/1 7/1/1 6/1/1
f 10/2/1 6/2/1 9/2/1
f 11/5/1 8/5/1 7/5/1
f 11/1/1 7/1/1 10/1/1
f 12/5/1 8/5/1 11/5/1
f 13/2/2 14/2/2 17/2/2
f 14/1/2 15/1/2 18/1/2
f 17/2/2 14/2/2 18/2/2
f 15/5/2 16/5/2 19/5/2
f 18/1/2 15/1/2 19/1/2
f 19/5/2 16/5/2 20/5/2
f 21/6/2 22/6/2 23/6/2
f 23/6/2 22/6/2 24/6/2
f 27/6/3 26/6/3 25/6/3
f 28/6/3 26/6/3 27/6/3
f 29/6/4 30/6/4 31/6/4
f 31/6/4 30/6/4 32/6/4
f 29/6/4 31/6/4 33/6/4
f 32/6/4 30/6/4 34/6/4
f 29/6/4 33/6/4 35/6/4
f 33/6/4 34/6/4 35/6/4
f 34/6/4 30/6/4 36/6/4
f 35/6/4 34/6/4 36/6/4
f 37/5/4 38/5/4 39/5/4
f 39/5/4 38/5/4 40/5/4
f 43/6/5 42/6/5 41/6/5
f 44/6/5 42/6/5 43/6/5
f 47/2/5 46/2/5 45/2/5
f 48/2/5 46/2/5 47/2/5
f 49/1/5 48/1/5 47/1/5
f 50/1/5 48/1/5 49/1/5
f 51/5/5 50/5/5 49/5/5
f 52/5/5 50/5/5 51/5/5
f 53/2/6 54/2/6 55/2/6
f 55/2/6 54/2/6 56/2/6
f 55/1/6 56/1/6 57/1/6
f 57/1/6 56/1/6 58/1/6
f 57/5/6 58/5/6 59/5/6
f 59/5/6 58/5/6 60/5/6
f 61/6/6 62/6/6 63/6/6
f 63/6/6 62/6/6 64/6/6
