# MagicaVoxel @ Ephtracy

# group
o 

# material
mtllib NPC6_rightarm_1.mtl
usemtl palette

# normals
vn -1 0 0
vn 1 0 0
vn 0 0 1
vn 0 0 -1
vn 0 -1 0
vn 0 1 0

# texcoords
vt 0.474609 0.5
vt 0.501953 0.5
vt 0.845703 0.5
vt 0.958984 0.5
vt 0.974609 0.5
vt 0.990234 0.5

# verts
v -0.9 -0.9 1.2
v -0.9 -0.9 0
v -0.9 0.9 1.2
v -0.9 0.9 0
v -0.8 -0.8 2.2
v -0.8 -0.8 1.9
v -0.8 -0.8 1.8
v -0.8 -0.8 1.2
v -0.8 0.8 2.2
v -0.8 0.8 1.9
v -0.8 0.8 1.8
v -0.8 0.8 1.2
v 0.8 -0.8 2.2
v 0.8 -0.8 1.9
v 0.8 -0.8 1.8
v 0.8 -0.8 1.2
v 0.8 0.8 2.2
v 0.8 0.8 1.9
v 0.8 0.8 1.8
v 0.8 0.8 1.2
v 0.9 -0.9 1.2
v 0.9 -0.9 0
v 0.9 0.9 1.2
v 0.9 0.9 0
v -0.8 -0.8 2.2
v -0.8 0.8 2.2
v 0.8 -0.8 2.2
v 0.8 0.8 2.2
v -0.9 -0.9 1.2
v -0.9 0.9 1.2
v -0.8 -0.8 1.2
v -0.8 0.8 1.2
v 0.8 -0.8 1.2
v 0.8 0.8 1.2
v 0.9 -0.9 1.2
v 0.9 0.9 1.2
v -0.9 -0.9 0
v -0.9 0.9 0
v 0.9 -0.9 0
v 0.9 0.9 0
v -0.9 -0.9 1.2
v 0.9 -0.9 1.2
v -0.9 -0.9 0
v 0.9 -0.9 0
v -0.8 -0.8 2.2
v 0.8 -0.8 2.2
v -0.8 -0.8 1.9
v 0.8 -0.8 1.9
v -0.8 -0.8 1.8
v 0.8 -0.8 1.8
v -0.8 -0.8 1.2
v 0.8 -0.8 1.2
v -0.8 0.8 2.2
v 0.8 0.8 2.2
v -0.8 0.8 1.9
v 0.8 0.8 1.9
v -0.8 0.8 1.8
v 0.8 0.8 1.8
v -0.8 0.8 1.2
v 0.8 0.8 1.2
v -0.9 0.9 1.2
v 0.9 0.9 1.2
v -0.9 0.9 0
v 0.9 0.9 0

# faces
f 3/6/1 2/6/1 1/6/1
f 4/6/1 2/6/1 3/6/1
f 9/5/1 6/5/1 5/5/1
f 10/1/1 7/1/1 6/1/1
f 10/5/1 6/5/1 9/5/1
f 11/2/1 8/2/1 7/2/1
f 11/1/1 7/1/1 10/1/1
f 12/2/1 8/2/1 11/2/1
f 13/5/2 14/5/2 17/5/2
f 14/1/2 15/1/2 18/1/2
f 17/5/2 14/5/2 18/5/2
f 15/2/2 16/2/2 19/2/2
f 18/1/2 15/1/2 19/1/2
f 19/2/2 16/2/2 20/2/2
f 21/6/2 22/6/2 23/6/2
f 23/6/2 22/6/2 24/6/2
f 27/5/3 26/5/3 25/5/3
f 28/5/3 26/5/3 27/5/3
f 31/6/3 30/6/3 29/6/3
f 32/6/3 30/6/3 31/6/3
f 33/6/3 31/6/3 29/6/3
f 34/6/3 30/6/3 32/6/3
f 35/6/3 33/6/3 29/6/3
f 35/6/3 34/6/3 33/6/3
f 36/6/3 30/6/3 34/6/3
f 36/6/3 34/6/3 35/6/3
f 37/6/4 38/6/4 39/6/4
f 39/6/4 38/6/4 40/6/4
f 43/6/5 42/6/5 41/6/5
f 44/6/5 42/6/5 43/6/5
f 47/5/5 46/5/5 45/5/5
f 48/5/5 46/5/5 47/5/5
f 49/1/5 48/1/5 47/1/5
f 50/1/5 48/1/5 49/1/5
f 51/2/5 50/2/5 49/2/5
f 52/2/5 50/2/5 51/2/5
f 53/5/6 54/5/6 55/5/6
f 55/5/6 54/5/6 56/5/6
f 55/1/6 56/1/6 57/1/6
f 57/1/6 56/1/6 58/1/6
f 57/2/6 58/2/6 59/2/6
f 59/2/6 58/2/6 60/2/6
f 61/6/6 62/6/6 63/6/6
f 63/6/6 62/6/6 64/6/6
