# MagicaVoxel @ Ephtracy

# group
o 

# material
mtllib oyster_4.mtl
usemtl palette

# normals
vn -1 0 0
vn 1 0 0
vn 0 0 1
vn 0 0 -1
vn 0 -1 0
vn 0 1 0

# texcoords
vt 0.876953 0.5
vt 0.912109 0.5
vt 0.919922 0.5

# verts
v -0.1 -0.2 0.2
v -0.1 -0.2 0.1
v -0.1 -0.1 0.1
v -0.1 -0.1 0
v -0.1 0 0.4
v -0.1 0 0.2
v -0.1 0 0
v -0.1 0 -0.1
v -0.1 0.1 0.4
v -0.1 0.1 0.1
v -0.1 0.1 0
v -0.1 0.1 -0.1
v -0.1 0.2 0.3
v -0.1 0.2 0.1
v -0.1 0.2 0
v -0.1 0.2 -0.2
v -0.1 0.3 0.3
v -0.1 0.3 -0.2
v 0 -0.2 -0.1
v 0 -0.2 -0.2
v 0 0 -0.1
v 0 0.1 0
v 0 0.1 -0.1
v 0 0.1 -0.2
v 0 0.1 -0.4
v 0 0.2 0
v 0 0.2 -0.2
v 0 0.2 -0.4
v 0 -0.2 0.2
v 0 -0.2 0.1
v 0 -0.1 0.1
v 0 -0.1 0
v 0 0 0.4
v 0 0 0.3
v 0 0 0.2
v 0 0 0.1
v 0 0 0
v 0 0 -0.1
v 0 0.1 0.4
v 0 0.1 0.3
v 0 0.1 0
v 0 0.1 -0.1
v 0 0.2 0.3
v 0 0.2 0.2
v 0 0.2 -0.1
v 0 0.2 -0.2
v 0 0.3 0.3
v 0 0.3 0.2
v 0 0.3 -0.1
v 0 0.3 -0.2
v 0.1 -0.2 -0.1
v 0.1 -0.2 -0.2
v 0.1 0 0.3
v 0.1 0 0
v 0.1 0.1 0.3
v 0.1 0.1 0.1
v 0.1 0.1 0
v 0.1 0.1 -0.1
v 0.1 0.1 -0.2
v 0.1 0.1 -0.3
v 0.1 0.1 -0.4
v 0.1 0.2 0.2
v 0.1 0.2 0.1
v 0.1 0.2 0
v 0.1 0.2 -0.1
v 0.1 0.2 -0.3
v 0.1 0.2 -0.4
v 0.1 0.3 0.2
v 0.1 0.3 -0.1
v 0.2 0.1 0
v 0.2 0.1 -0.3
v 0.2 0.2 0
v 0.2 0.2 -0.3
v -0.1 0 0.4
v -0.1 0.1 0.4
v 0 0 0.4
v 0 0.1 0.4
v -0.1 0.2 0.3
v -0.1 0.3 0.3
v 0 0 0.3
v 0 0.1 0.3
v 0 0.2 0.3
v 0 0.3 0.3
v 0.1 0 0.3
v 0.1 0.1 0.3
v -0.1 -0.2 0.2
v -0.1 0 0.2
v 0 -0.2 0.2
v 0 0 0.2
v 0 0.2 0.2
v 0 0.3 0.2
v 0.1 0.2 0.2
v 0.1 0.3 0.2
v -0.1 0.1 0.1
v -0.1 0.2 0.1
v 0 0.1 0.1
v 0 0.2 0.1
v 0.1 0.1 0.1
v 0.1 0.2 0.1
v 0.1 0.1 0
v 0.1 0.2 0
v 0.2 0.1 0
v 0.2 0.2 0
v 0 -0.2 -0.1
v 0 0 -0.1
v 0 0.1 -0.1
v 0.1 -0.2 -0.1
v 0.1 0.1 -0.1
v -0.1 -0.2 0.1
v -0.1 -0.1 0.1
v 0 -0.2 0.1
v 0 -0.1 0.1
v -0.1 -0.1 0
v -0.1 0 0
v -0.1 0.1 0
v -0.1 0.2 0
v 0 -0.1 0
v 0 0 0
v 0 0.1 0
v 0 0.2 0
v 0.1 0 0
v 0.1 0.1 0
v -0.1 0 -0.1
v -0.1 0.1 -0.1
v 0 0 -0.1
v 0 0.1 -0.1
v 0 0.2 -0.1
v 0 0.3 -0.1
v 0.1 0.2 -0.1
v 0.1 0.3 -0.1
v -0.1 0.2 -0.2
v -0.1 0.3 -0.2
v 0 -0.2 -0.2
v 0 0.1 -0.2
v 0 0.2 -0.2
v 0 0.3 -0.2
v 0.1 -0.2 -0.2
v 0.1 0.1 -0.2
v 0.1 0.1 -0.3
v 0.1 0.2 -0.3
v 0.2 0.1 -0.3
v 0.2 0.2 -0.3
v 0 0.1 -0.4
v 0 0.2 -0.4
v 0.1 0.1 -0.4
v 0.1 0.2 -0.4
v -0.1 -0.2 0.2
v 0 -0.2 0.2
v -0.1 -0.2 0.1
v 0 -0.2 0.1
v 0 -0.2 -0.1
v 0.1 -0.2 -0.1
v 0 -0.2 -0.2
v 0.1 -0.2 -0.2
v -0.1 -0.1 0.1
v 0 -0.1 0.1
v -0.1 -0.1 0
v 0 -0.1 0
v -0.1 0 0.4
v 0 0 0.4
v 0 0 0.3
v 0.1 0 0.3
v -0.1 0 0.2
v 0 0 0.2
v 0 0 0.1
v -0.1 0 0
v 0 0 0
v 0.1 0 0
v -0.1 0 -0.1
v 0 0 -0.1
v 0 0.1 0
v 0.1 0.1 0
v 0.2 0.1 0
v 0 0.1 -0.1
v 0.1 0.1 -0.1
v 0 0.1 -0.2
v 0.1 0.1 -0.2
v 0.1 0.1 -0.3
v 0.2 0.1 -0.3
v 0 0.1 -0.4
v 0.1 0.1 -0.4
v -0.1 0.2 0.3
v 0 0.2 0.3
v 0 0.2 0.2
v 0.1 0.2 0.2
v -0.1 0.2 0.1
v 0 0.2 0.1
v 0.1 0.2 0.1
v -0.1 0.2 0
v 0 0.2 0
v -0.1 0.2 -0.2
v 0 0.2 -0.2
v -0.1 0.1 0.4
v 0 0.1 0.4
v 0 0.1 0.3
v 0.1 0.1 0.3
v -0.1 0.1 0.1
v 0 0.1 0.1
v 0.1 0.1 0.1
v -0.1 0.1 0
v 0 0.1 0
v -0.1 0.1 -0.1
v 0 0.1 -0.1
v 0.1 0.2 0
v 0.2 0.2 0
v 0 0.2 -0.1
v 0.1 0.2 -0.1
v 0 0.2 -0.2
v 0.1 0.2 -0.3
v 0.2 0.2 -0.3
v 0 0.2 -0.4
v 0.1 0.2 -0.4
v -0.1 0.3 0.3
v 0 0.3 0.3
v 0 0.3 0.2
v 0.1 0.3 0.2
v 0 0.3 -0.1
v 0.1 0.3 -0.1
v -0.1 0.3 -0.2
v 0 0.3 -0.2

# faces
f 3/3/1 2/3/1 1/3/1
f 6/3/1 3/3/1 1/3/1
f 7/1/1 4/1/1 3/1/1
f 9/3/1 6/3/1 5/3/1
f 10/3/1 3/3/1 6/3/1
f 10/3/1 6/3/1 9/3/1
f 10/1/1 7/1/1 3/1/1
f 11/3/1 8/3/1 7/3/1
f 11/1/1 7/1/1 10/1/1
f 12/3/1 8/3/1 11/3/1
f 14/1/1 11/1/1 10/1/1
f 15/1/1 11/1/1 14/1/1
f 17/1/1 15/1/1 14/1/1
f 17/1/1 16/1/1 15/1/1
f 17/1/1 14/1/1 13/1/1
f 18/1/1 16/1/1 17/1/1
f 21/2/1 20/2/1 19/2/1
f 23/2/1 20/2/1 21/2/1
f 24/2/1 20/2/1 23/2/1
f 26/2/1 23/2/1 22/2/1
f 26/2/1 25/2/1 24/2/1
f 26/2/1 24/2/1 23/2/1
f 27/2/1 25/2/1 26/2/1
f 28/2/1 25/2/1 27/2/1
f 29/3/2 30/3/2 31/3/2
f 29/3/2 31/3/2 35/3/2
f 31/1/2 32/1/2 36/1/2
f 35/3/2 31/3/2 36/3/2
f 36/1/2 32/1/2 37/1/2
f 33/3/2 34/3/2 39/3/2
f 39/3/2 34/3/2 40/3/2
f 37/3/2 38/3/2 41/3/2
f 41/3/2 38/3/2 42/3/2
f 43/1/2 44/1/2 47/1/2
f 47/1/2 44/1/2 48/1/2
f 45/1/2 46/1/2 49/1/2
f 49/1/2 46/1/2 50/1/2
f 53/3/2 54/3/2 55/3/2
f 55/3/2 54/3/2 56/3/2
f 56/3/2 54/3/2 57/3/2
f 51/2/2 52/2/2 58/2/2
f 58/2/2 52/2/2 59/2/2
f 56/2/2 57/2/2 63/2/2
f 63/2/2 57/2/2 64/2/2
f 60/2/2 61/2/2 66/2/2
f 66/2/2 61/2/2 67/2/2
f 64/1/2 65/1/2 68/1/2
f 62/1/2 63/1/2 68/1/2
f 63/1/2 64/1/2 68/1/2
f 68/1/2 65/1/2 69/1/2
f 70/2/2 71/2/2 72/2/2
f 72/2/2 71/2/2 73/2/2
f 76/3/3 75/3/3 74/3/3
f 77/3/3 75/3/3 76/3/3
f 82/1/3 79/1/3 78/1/3
f 83/1/3 79/1/3 82/1/3
f 84/3/3 81/3/3 80/3/3
f 85/3/3 81/3/3 84/3/3
f 88/3/3 87/3/3 86/3/3
f 89/3/3 87/3/3 88/3/3
f 92/1/3 91/1/3 90/1/3
f 93/1/3 91/1/3 92/1/3
f 96/1/3 95/1/3 94/1/3
f 97/1/3 95/1/3 96/1/3
f 98/2/3 97/2/3 96/2/3
f 99/2/3 97/2/3 98/2/3
f 102/2/3 101/2/3 100/2/3
f 103/2/3 101/2/3 102/2/3
f 107/2/3 105/2/3 104/2/3
f 107/2/3 106/2/3 105/2/3
f 108/2/3 106/2/3 107/2/3
f 109/3/4 110/3/4 111/3/4
f 111/3/4 110/3/4 112/3/4
f 113/1/4 114/1/4 117/1/4
f 117/1/4 114/1/4 118/1/4
f 115/1/4 116/1/4 119/1/4
f 119/1/4 116/1/4 120/1/4
f 118/3/4 119/3/4 121/3/4
f 121/3/4 119/3/4 122/3/4
f 123/3/4 124/3/4 125/3/4
f 125/3/4 124/3/4 126/3/4
f 127/1/4 128/1/4 129/1/4
f 129/1/4 128/1/4 130/1/4
f 131/1/4 132/1/4 135/1/4
f 135/1/4 132/1/4 136/1/4
f 133/2/4 134/2/4 137/2/4
f 137/2/4 134/2/4 138/2/4
f 139/2/4 140/2/4 141/2/4
f 141/2/4 140/2/4 142/2/4
f 143/2/4 144/2/4 145/2/4
f 145/2/4 144/2/4 146/2/4
f 149/3/5 148/3/5 147/3/5
f 150/3/5 148/3/5 149/3/5
f 153/2/5 152/2/5 151/2/5
f 154/2/5 152/2/5 153/2/5
f 157/1/5 156/1/5 155/1/5
f 158/1/5 156/1/5 157/1/5
f 161/3/5 160/3/5 159/3/5
f 163/3/5 161/3/5 159/3/5
f 163/3/5 162/3/5 161/3/5
f 164/3/5 162/3/5 163/3/5
f 165/3/5 162/3/5 164/3/5
f 167/3/5 162/3/5 165/3/5
f 168/3/5 162/3/5 167/3/5
f 169/3/5 167/3/5 166/3/5
f 170/3/5 167/3/5 169/3/5
f 174/2/5 172/2/5 171/2/5
f 174/2/5 173/2/5 172/2/5
f 175/2/5 173/2/5 174/2/5
f 177/2/5 173/2/5 175/2/5
f 178/2/5 173/2/5 177/2/5
f 178/2/5 177/2/5 176/2/5
f 179/2/5 173/2/5 178/2/5
f 180/2/5 178/2/5 176/2/5
f 181/2/5 178/2/5 180/2/5
f 184/1/5 183/1/5 182/1/5
f 186/1/5 184/1/5 182/1/5
f 186/1/5 185/1/5 184/1/5
f 187/1/5 185/1/5 186/1/5
f 188/1/5 185/1/5 187/1/5
f 191/1/5 190/1/5 189/1/5
f 192/1/5 190/1/5 191/1/5
f 193/3/6 194/3/6 195/3/6
f 193/3/6 195/3/6 197/3/6
f 195/3/6 196/3/6 197/3/6
f 197/3/6 196/3/6 198/3/6
f 198/3/6 196/3/6 199/3/6
f 200/3/6 201/3/6 202/3/6
f 202/3/6 201/3/6 203/3/6
f 204/2/6 205/2/6 207/2/6
f 206/2/6 207/2/6 208/2/6
f 207/2/6 205/2/6 209/2/6
f 208/2/6 207/2/6 209/2/6
f 209/2/6 205/2/6 210/2/6
f 208/2/6 209/2/6 211/2/6
f 211/2/6 209/2/6 212/2/6
f 213/1/6 214/1/6 215/1/6
f 213/1/6 215/1/6 217/1/6
f 215/1/6 216/1/6 217/1/6
f 217/1/6 216/1/6 218/1/6
f 213/1/6 217/1/6 219/1/6
f 219/1/6 217/1/6 220/1/6
