# MagicaVoxel @ Ephtracy

# group
o 

# material
mtllib oyster_3.mtl
usemtl palette

# normals
vn -1 0 0
vn 1 0 0
vn 0 0 1
vn 0 0 -1
vn 0 -1 0
vn 0 1 0

# texcoords
vt 0.876953 0.5
vt 0.908203 0.5
vt 0.912109 0.5
vt 0.916016 0.5
vt 0.919922 0.5

# verts
v -0.3 -0.2 0.3
v -0.3 -0.2 0.1
v -0.3 -0.2 0
v -0.3 -0.1 0.3
v -0.3 -0.1 0.1
v -0.3 0 0.3
v -0.3 0 0.1
v -0.3 0.1 0.3
v -0.3 0.1 0.1
v -0.3 0.2 0.2
v -0.3 0.2 0.1
v -0.3 0.2 0
v -0.3 0.2 -0.2
v -0.3 0.3 0.2
v -0.3 0.3 -0.2
v -0.2 -0.2 -0.1
v -0.2 -0.2 -0.2
v -0.2 0.1 0
v -0.2 0.1 -0.1
v -0.2 0.1 -0.2
v -0.2 0.1 -0.4
v -0.2 0.2 0
v -0.2 0.2 -0.2
v -0.2 0.2 -0.4
v -0.1 -0.2 0.1
v -0.1 -0.2 0
v -0.1 -0.1 0.1
v -0.1 -0.1 0
v -0.1 0 0.1
v -0.1 0 0
v -0.1 0 -0.1
v -0.1 0.1 0
v -0.1 0.1 -0.1
v 0 -0.2 0
v 0 -0.2 -0.1
v 0 -0.1 0
v 0 -0.1 -0.1
v 0 -0.1 -0.3
v 0 0 0
v 0 0 -0.2
v 0 0 -0.3
v 0.1 -0.2 0.1
v 0.1 -0.2 0
v 0.1 -0.1 0.1
v 0.1 -0.1 0
v -0.2 -0.2 0.3
v -0.2 -0.2 0.2
v -0.2 -0.2 0.1
v -0.2 -0.2 0
v -0.2 -0.1 0.3
v -0.2 -0.1 0.2
v -0.2 -0.1 0.1
v -0.2 0 0.3
v -0.2 0 0.2
v -0.2 0 0.1
v -0.2 0 0
v -0.2 0.1 0.3
v -0.2 0.1 0.2
v -0.2 0.1 0.1
v -0.2 0.1 0
v -0.2 0.2 0.2
v -0.2 0.2 0.1
v -0.2 0.2 0
v -0.2 0.2 -0.1
v -0.2 0.2 -0.2
v -0.2 0.3 0.2
v -0.2 0.3 0.1
v -0.2 0.3 -0.1
v -0.2 0.3 -0.2
v -0.1 -0.2 0.2
v -0.1 -0.2 0.1
v -0.1 -0.2 -0.1
v -0.1 -0.2 -0.2
v -0.1 -0.1 0.2
v -0.1 -0.1 0.1
v -0.1 0 -0.1
v -0.1 0 -0.2
v -0.1 0.1 0
v -0.1 0.1 -0.1
v -0.1 0.1 -0.3
v -0.1 0.1 -0.4
v -0.1 0.2 0.1
v -0.1 0.2 0
v -0.1 0.2 -0.1
v -0.1 0.2 -0.3
v -0.1 0.2 -0.4
v -0.1 0.3 0.1
v -0.1 0.3 -0.1
v 0 -0.2 0.1
v 0 -0.2 0
v 0 -0.1 0.1
v 0 -0.1 0
v 0 0 0.2
v 0 0 0.1
v 0 0 -0.1
v 0 0 -0.2
v 0 0.1 0.2
v 0 0.1 0.1
v 0 0.1 -0.1
v 0 0.1 -0.2
v 0 0.1 -0.3
v 0 0.2 -0.1
v 0 0.2 -0.3
v 0.1 -0.1 0.1
v 0.1 -0.1 0
v 0.1 -0.1 -0.2
v 0.1 -0.1 -0.3
v 0.1 0 0.1
v 0.1 0 0
v 0.1 0 -0.1
v 0.1 0 -0.2
v 0.1 0 -0.3
v 0.1 0.1 0.1
v 0.1 0.1 -0.1
v 0.2 -0.2 0.1
v 0.2 -0.2 0
v 0.2 -0.1 0.1
v 0.2 -0.1 0
v 0.2 -0.1 -0.1
v 0.2 -0.1 -0.2
v 0.2 0 0
v 0.2 0 -0.2
v 0.3 -0.2 0
v 0.3 -0.2 -0.1
v 0.3 -0.1 0
v 0.3 -0.1 -0.1
v -0.3 -0.2 0.3
v -0.3 -0.1 0.3
v -0.3 0 0.3
v -0.3 0.1 0.3
v -0.2 -0.2 0.3
v -0.2 -0.1 0.3
v -0.2 0 0.3
v -0.2 0.1 0.3
v -0.3 0.2 0.2
v -0.3 0.3 0.2
v -0.2 -0.2 0.2
v -0.2 -0.1 0.2
v -0.2 0 0.2
v -0.2 0.1 0.2
v -0.2 0.2 0.2
v -0.2 0.3 0.2
v -0.1 -0.2 0.2
v -0.1 -0.1 0.2
v -0.1 0 0.2
v -0.1 0.1 0.2
v 0 0 0.2
v 0 0.1 0.2
v -0.3 -0.1 0.1
v -0.3 0 0.1
v -0.3 0.1 0.1
v -0.3 0.2 0.1
v -0.2 -0.1 0.1
v -0.2 0 0.1
v -0.2 0.1 0.1
v -0.2 0.2 0.1
v -0.2 0.3 0.1
v -0.1 -0.2 0.1
v -0.1 -0.1 0.1
v -0.1 0 0.1
v -0.1 0.2 0.1
v -0.1 0.3 0.1
v 0 -0.2 0.1
v 0 -0.1 0.1
v 0 0 0.1
v 0 0.1 0.1
v 0.1 -0.2 0.1
v 0.1 -0.1 0.1
v 0.1 0 0.1
v 0.1 0.1 0.1
v 0.2 -0.2 0.1
v 0.2 -0.1 0.1
v -0.2 0.1 0
v -0.2 0.2 0
v -0.1 0.1 0
v -0.1 0.2 0
v 0 -0.2 0
v 0 -0.1 0
v 0.1 -0.2 0
v 0.1 -0.1 0
v 0.1 0 0
v 0.2 -0.2 0
v 0.2 -0.1 0
v 0.2 0 0
v 0.3 -0.2 0
v 0.3 -0.1 0
v -0.2 -0.2 -0.1
v -0.2 0.1 -0.1
v -0.1 -0.2 -0.1
v -0.1 0 -0.1
v -0.1 0.1 -0.1
v -0.1 0.2 -0.1
v 0 0.1 -0.1
v 0 0.2 -0.1
v -0.2 -0.2 0.1
v -0.2 -0.1 0.1
v -0.1 -0.2 0.1
v -0.1 -0.1 0.1
v -0.3 -0.2 0
v -0.3 0.2 0
v -0.2 -0.2 0
v -0.2 0 0
v -0.2 0.1 0
v -0.2 0.2 0
v -0.1 -0.2 0
v -0.1 -0.1 0
v -0.1 0 0
v -0.1 0.1 0
v 0 -0.2 0
v 0 -0.1 0
v 0 0 0
v -0.2 0.2 -0.1
v -0.2 0.3 -0.1
v -0.1 0.2 -0.1
v -0.1 0.3 -0.1
v 0 -0.2 -0.1
v 0 -0.1 -0.1
v 0 0 -0.1
v 0 0.1 -0.1
v 0.1 0 -0.1
v 0.1 0.1 -0.1
v 0.2 -0.1 -0.1
v 0.3 -0.2 -0.1
v 0.3 -0.1 -0.1
v -0.3 0.2 -0.2
v -0.3 0.3 -0.2
v -0.2 -0.2 -0.2
v -0.2 0.1 -0.2
v -0.2 0.2 -0.2
v -0.2 0.3 -0.2
v -0.1 -0.2 -0.2
v -0.1 0 -0.2
v -0.1 0.1 -0.2
v 0 0 -0.2
v 0 0.1 -0.2
v 0.1 -0.1 -0.2
v 0.1 0 -0.2
v 0.2 -0.1 -0.2
v 0.2 0 -0.2
v -0.1 0.1 -0.3
v -0.1 0.2 -0.3
v 0 -0.1 -0.3
v 0 0 -0.3
v 0 0.1 -0.3
v 0 0.2 -0.3
v 0.1 -0.1 -0.3
v 0.1 0 -0.3
v -0.2 0.1 -0.4
v -0.2 0.2 -0.4
v -0.1 0.1 -0.4
v -0.1 0.2 -0.4
v -0.3 -0.2 0.3
v -0.2 -0.2 0.3
v -0.2 -0.2 0.2
v -0.1 -0.2 0.2
v -0.3 -0.2 0.1
v -0.2 -0.2 0.1
v -0.1 -0.2 0.1
v 0 -0.2 0.1
v 0.1 -0.2 0.1
v 0.2 -0.2 0.1
v -0.3 -0.2 0
v -0.2 -0.2 0
v -0.1 -0.2 0
v 0 -0.2 0
v 0.1 -0.2 0
v 0.2 -0.2 0
v 0.3 -0.2 0
v -0.2 -0.2 -0.1
v -0.1 -0.2 -0.1
v 0 -0.2 -0.1
v 0.3 -0.2 -0.1
v -0.2 -0.2 -0.2
v -0.1 -0.2 -0.2
v 0 -0.1 0.1
v 0.1 -0.1 0.1
v 0 -0.1 0
v 0.1 -0.1 0
v 0 -0.1 -0.1
v 0.2 -0.1 -0.1
v 0.1 -0.1 -0.2
v 0.2 -0.1 -0.2
v 0 -0.1 -0.3
v 0.1 -0.1 -0.3
v -0.3 0 0.3
v -0.2 0 0.3
v -0.2 0 0.2
v -0.1 0 0.2
v 0 0 0.2
v -0.3 0 0.1
v -0.2 0 0.1
v -0.1 0 0.1
v 0 0 0.1
v -0.2 0 0
v -0.1 0 0
v 0 0 0
v -0.1 0 -0.1
v -0.1 0 -0.2
v 0 0 -0.2
v -0.2 0.1 0
v -0.1 0.1 0
v -0.2 0.1 -0.1
v -0.1 0.1 -0.1
v -0.2 0.1 -0.2
v -0.1 0.1 -0.2
v 0 0.1 -0.2
v -0.1 0.1 -0.3
v 0 0.1 -0.3
v -0.2 0.1 -0.4
v -0.1 0.1 -0.4
v -0.3 0.2 0.2
v -0.2 0.2 0.2
v -0.3 0.2 0.1
v -0.2 0.2 0.1
v -0.1 0.2 0.1
v -0.3 0.2 0
v -0.2 0.2 0
v -0.1 0.2 0
v -0.3 0.2 -0.2
v -0.2 0.2 -0.2
v -0.3 -0.1 0.3
v -0.2 -0.1 0.3
v -0.2 -0.1 0.2
v -0.1 -0.1 0.2
v -0.3 -0.1 0.1
v -0.2 -0.1 0.1
v -0.1 -0.1 0.1
v 0.1 -0.1 0.1
v 0.2 -0.1 0.1
v 0.1 -0.1 0
v 0.2 -0.1 0
v 0.3 -0.1 0
v 0.2 -0.1 -0.1
v 0.3 -0.1 -0.1
v 0.1 0 0
v 0.2 0 0
v 0 0 -0.1
v 0.1 0 -0.1
v 0 0 -0.2
v 0.1 0 -0.2
v 0.2 0 -0.2
v 0 0 -0.3
v 0.1 0 -0.3
v -0.3 0.1 0.3
v -0.2 0.1 0.3
v -0.2 0.1 0.2
v -0.1 0.1 0.2
v 0 0.1 0.2
v -0.3 0.1 0.1
v -0.2 0.1 0.1
v 0 0.1 0.1
v 0.1 0.1 0.1
v -0.2 0.1 0
v -0.1 0.1 0
v -0.1 0.1 -0.1
v 0 0.1 -0.1
v 0.1 0.1 -0.1
v -0.2 0.2 -0.1
v -0.1 0.2 -0.1
v 0 0.2 -0.1
v -0.2 0.2 -0.2
v -0.1 0.2 -0.3
v 0 0.2 -0.3
v -0.2 0.2 -0.4
v -0.1 0.2 -0.4
v -0.3 0.3 0.2
v -0.2 0.3 0.2
v -0.2 0.3 0.1
v -0.1 0.3 0.1
v -0.2 0.3 -0.1
v -0.1 0.3 -0.1
v -0.3 0.3 -0.2
v -0.2 0.3 -0.2

# faces
f 4/1/1 2/1/1 1/1/1
f 5/5/1 3/5/1 2/5/1
f 5/1/1 2/1/1 4/1/1
f 7/5/1 3/5/1 5/5/1
f 8/2/1 7/2/1 6/2/1
f 9/5/1 3/5/1 7/5/1
f 9/2/1 7/2/1 8/2/1
f 11/5/1 3/5/1 9/5/1
f 12/5/1 3/5/1 11/5/1
f 14/5/1 11/5/1 10/5/1
f 14/5/1 13/5/1 12/5/1
f 14/5/1 12/5/1 11/5/1
f 15/5/1 13/5/1 14/5/1
f 19/4/1 17/4/1 16/4/1
f 20/4/1 17/4/1 19/4/1
f 22/4/1 19/4/1 18/4/1
f 22/4/1 21/4/1 20/4/1
f 22/4/1 20/4/1 19/4/1
f 23/4/1 21/4/1 22/4/1
f 24/4/1 21/4/1 23/4/1
f 27/1/1 26/1/1 25/1/1
f 28/1/1 26/1/1 27/1/1
f 29/3/1 28/3/1 27/3/1
f 30/3/1 28/3/1 29/3/1
f 32/3/1 31/3/1 30/3/1
f 33/3/1 31/3/1 32/3/1
f 36/2/1 35/2/1 34/2/1
f 37/2/1 35/2/1 36/2/1
f 39/2/1 37/2/1 36/2/1
f 39/2/1 38/2/1 37/2/1
f 40/2/1 38/2/1 39/2/1
f 41/2/1 38/2/1 40/2/1
f 44/2/1 43/2/1 42/2/1
f 45/2/1 43/2/1 44/2/1
f 46/1/2 47/1/2 50/1/2
f 50/1/2 47/1/2 51/1/2
f 48/5/2 49/5/2 52/5/2
f 52/5/2 49/5/2 55/5/2
f 55/5/2 49/5/2 56/5/2
f 53/2/2 54/2/2 57/2/2
f 57/2/2 54/2/2 58/2/2
f 59/5/2 60/5/2 62/5/2
f 62/5/2 60/5/2 63/5/2
f 61/5/2 62/5/2 66/5/2
f 66/5/2 62/5/2 67/5/2
f 64/5/2 65/5/2 68/5/2
f 68/5/2 65/5/2 69/5/2
f 70/1/2 71/1/2 74/1/2
f 74/1/2 71/1/2 75/1/2
f 72/4/2 73/4/2 76/4/2
f 76/4/2 73/4/2 77/4/2
f 78/4/2 79/4/2 83/4/2
f 83/4/2 79/4/2 84/4/2
f 80/4/2 81/4/2 85/4/2
f 85/4/2 81/4/2 86/4/2
f 83/5/2 84/5/2 87/5/2
f 82/5/2 83/5/2 87/5/2
f 87/5/2 84/5/2 88/5/2
f 89/1/2 90/1/2 91/1/2
f 91/1/2 90/1/2 92/1/2
f 93/3/2 94/3/2 97/3/2
f 97/3/2 94/3/2 98/3/2
f 95/3/2 96/3/2 99/3/2
f 99/3/2 96/3/2 100/3/2
f 100/4/2 101/4/2 102/4/2
f 99/4/2 100/4/2 102/4/2
f 102/4/2 101/4/2 103/4/2
f 104/2/2 105/2/2 108/2/2
f 108/2/2 105/2/2 109/2/2
f 106/2/2 107/2/2 111/2/2
f 111/2/2 107/2/2 112/2/2
f 109/3/2 110/3/2 113/3/2
f 108/3/2 109/3/2 113/3/2
f 113/3/2 110/3/2 114/3/2
f 115/2/2 116/2/2 117/2/2
f 117/2/2 116/2/2 118/2/2
f 119/2/2 120/2/2 121/2/2
f 118/2/2 119/2/2 121/2/2
f 121/2/2 120/2/2 122/2/2
f 123/2/2 124/2/2 125/2/2
f 125/2/2 124/2/2 126/2/2
f 131/1/3 128/1/3 127/1/3
f 132/1/3 128/1/3 131/1/3
f 133/2/3 130/2/3 129/2/3
f 134/2/3 130/2/3 133/2/3
f 141/5/3 136/5/3 135/5/3
f 142/5/3 136/5/3 141/5/3
f 143/1/3 138/1/3 137/1/3
f 144/1/3 138/1/3 143/1/3
f 145/2/3 140/2/3 139/2/3
f 146/2/3 140/2/3 145/2/3
f 147/3/3 146/3/3 145/3/3
f 148/3/3 146/3/3 147/3/3
f 153/5/3 150/5/3 149/5/3
f 154/5/3 150/5/3 153/5/3
f 155/5/3 152/5/3 151/5/3
f 156/5/3 152/5/3 155/5/3
f 161/5/3 157/5/3 156/5/3
f 162/5/3 157/5/3 161/5/3
f 163/1/3 159/1/3 158/1/3
f 164/3/3 160/3/3 159/3/3
f 164/1/3 159/1/3 163/1/3
f 165/3/3 160/3/3 164/3/3
f 168/2/3 165/2/3 164/2/3
f 169/3/3 166/3/3 165/3/3
f 169/2/3 165/2/3 168/2/3
f 170/3/3 166/3/3 169/3/3
f 171/2/3 168/2/3 167/2/3
f 172/2/3 168/2/3 171/2/3
f 175/4/3 174/4/3 173/4/3
f 176/4/3 174/4/3 175/4/3
f 179/2/3 178/2/3 177/2/3
f 180/2/3 178/2/3 179/2/3
f 183/2/3 181/2/3 180/2/3
f 184/2/3 181/2/3 183/2/3
f 185/2/3 183/2/3 182/2/3
f 186/2/3 183/2/3 185/2/3
f 189/4/3 188/4/3 187/4/3
f 190/4/3 188/4/3 189/4/3
f 191/4/3 188/4/3 190/4/3
f 193/4/3 192/4/3 191/4/3
f 194/4/3 192/4/3 193/4/3
f 195/1/4 196/1/4 197/1/4
f 197/1/4 196/1/4 198/1/4
f 199/5/4 200/5/4 201/5/4
f 201/5/4 200/5/4 202/5/4
f 202/5/4 200/5/4 203/5/4
f 203/5/4 200/5/4 204/5/4
f 202/2/4 203/2/4 207/2/4
f 207/2/4 203/2/4 208/2/4
f 205/1/4 206/1/4 209/1/4
f 206/3/4 207/3/4 210/3/4
f 209/1/4 206/1/4 210/1/4
f 210/3/4 207/3/4 211/3/4
f 212/5/4 213/5/4 214/5/4
f 214/5/4 213/5/4 215/5/4
f 218/3/4 219/3/4 220/3/4
f 220/3/4 219/3/4 221/3/4
f 216/2/4 217/2/4 222/2/4
f 216/2/4 222/2/4 223/2/4
f 223/2/4 222/2/4 224/2/4
f 225/5/4 226/5/4 229/5/4
f 229/5/4 226/5/4 230/5/4
f 227/4/4 228/4/4 231/4/4
f 231/4/4 228/4/4 232/4/4
f 232/4/4 228/4/4 233/4/4
f 232/3/4 233/3/4 234/3/4
f 234/3/4 233/3/4 235/3/4
f 236/2/4 237/2/4 238/2/4
f 238/2/4 237/2/4 239/2/4
f 240/4/4 241/4/4 244/4/4
f 244/4/4 241/4/4 245/4/4
f 242/2/4 243/2/4 246/2/4
f 246/2/4 243/2/4 247/2/4
f 248/4/4 249/4/4 250/4/4
f 250/4/4 249/4/4 251/4/4
f 254/1/5 253/1/5 252/1/5
f 256/1/5 254/1/5 252/1/5
f 256/1/5 255/1/5 254/1/5
f 257/1/5 255/1/5 256/1/5
f 258/1/5 255/1/5 257/1/5
f 262/5/5 257/5/5 256/5/5
f 263/5/5 257/5/5 262/5/5
f 264/1/5 259/1/5 258/1/5
f 265/1/5 259/1/5 264/1/5
f 266/2/5 261/2/5 260/2/5
f 267/2/5 261/2/5 266/2/5
f 271/2/5 268/2/5 267/2/5
f 271/2/5 267/2/5 266/2/5
f 271/2/5 266/2/5 265/2/5
f 272/2/5 268/2/5 271/2/5
f 273/4/5 270/4/5 269/4/5
f 274/4/5 270/4/5 273/4/5
f 277/2/5 276/2/5 275/2/5
f 278/2/5 276/2/5 277/2/5
f 281/2/5 280/2/5 279/2/5
f 282/2/5 280/2/5 281/2/5
f 283/2/5 281/2/5 279/2/5
f 284/2/5 281/2/5 283/2/5
f 287/2/5 286/2/5 285/2/5
f 290/2/5 287/2/5 285/2/5
f 290/2/5 288/2/5 287/2/5
f 291/2/5 288/2/5 290/2/5
f 292/3/5 289/3/5 288/3/5
f 292/2/5 288/2/5 291/2/5
f 293/3/5 289/3/5 292/3/5
f 294/2/5 292/2/5 291/2/5
f 295/2/5 292/2/5 294/2/5
f 297/3/5 296/3/5 295/3/5
f 298/3/5 296/3/5 297/3/5
f 299/3/5 296/3/5 298/3/5
f 302/4/5 301/4/5 300/4/5
f 303/4/5 301/4/5 302/4/5
f 307/4/5 305/4/5 304/4/5
f 307/4/5 306/4/5 305/4/5
f 308/4/5 306/4/5 307/4/5
f 309/4/5 307/4/5 304/4/5
f 310/4/5 307/4/5 309/4/5
f 313/5/5 312/5/5 311/5/5
f 314/5/5 312/5/5 313/5/5
f 317/5/5 315/5/5 314/5/5
f 318/5/5 315/5/5 317/5/5
f 319/5/5 317/5/5 316/5/5
f 320/5/5 317/5/5 319/5/5
f 321/1/6 322/1/6 323/1/6
f 321/1/6 323/1/6 325/1/6
f 323/1/6 324/1/6 325/1/6
f 325/1/6 324/1/6 326/1/6
f 326/1/6 324/1/6 327/1/6
f 328/2/6 329/2/6 330/2/6
f 330/2/6 329/2/6 331/2/6
f 331/2/6 332/2/6 333/2/6
f 333/2/6 332/2/6 334/2/6
f 335/2/6 336/2/6 338/2/6
f 337/2/6 338/2/6 339/2/6
f 338/2/6 336/2/6 340/2/6
f 339/2/6 338/2/6 340/2/6
f 340/2/6 336/2/6 341/2/6
f 339/2/6 340/2/6 342/2/6
f 342/2/6 340/2/6 343/2/6
f 344/2/6 345/2/6 346/2/6
f 344/2/6 346/2/6 349/2/6
f 346/2/6 347/2/6 349/2/6
f 349/2/6 347/2/6 350/2/6
f 347/3/6 348/3/6 351/3/6
f 350/2/6 347/2/6 353/2/6
f 351/3/6 352/3/6 354/3/6
f 353/2/6 347/2/6 354/2/6
f 347/3/6 351/3/6 354/3/6
f 354/3/6 352/3/6 355/3/6
f 355/3/6 352/3/6 356/3/6
f 356/3/6 352/3/6 357/3/6
f 358/4/6 359/4/6 361/4/6
f 359/4/6 360/4/6 361/4/6
f 361/4/6 360/4/6 362/4/6
f 362/4/6 360/4/6 363/4/6
f 361/4/6 362/4/6 364/4/6
f 364/4/6 362/4/6 365/4/6
f 366/5/6 367/5/6 368/5/6
f 366/5/6 368/5/6 370/5/6
f 368/5/6 369/5/6 370/5/6
f 370/5/6 369/5/6 371/5/6
f 366/5/6 370/5/6 372/5/6
f 372/5/6 370/5/6 373/5/6
