# MagicaVoxel @ Ephtracy

# group
o 

# material
mtllib NPC5_leftarm_1.mtl
usemtl palette

# normals
vn -1 0 0
vn 1 0 0
vn 0 0 1
vn 0 0 -1
vn 0 -1 0
vn 0 1 0

# texcoords
vt 0.611328 0.5
vt 0.845703 0.5
vt 0.958984 0.5
vt 0.974609 0.5
vt 0.990234 0.5

# verts
v -0.9 -0.9 0
v -0.9 -0.9 -1.2
v -0.9 0.9 0
v -0.9 0.9 -1.2
v -0.8 -0.8 -1.2
v -0.8 -0.8 -1.9
v -0.8 -0.8 -2.2
v -0.8 0.8 -1.2
v -0.8 0.8 -1.9
v -0.8 0.8 -2.2
v 0.8 -0.8 -1.2
v 0.8 -0.8 -1.9
v 0.8 -0.8 -2.2
v 0.8 0.8 -1.2
v 0.8 0.8 -1.9
v 0.8 0.8 -2.2
v 0.9 -0.9 0
v 0.9 -0.9 -1.2
v 0.9 0.9 0
v 0.9 0.9 -1.2
v -0.9 -0.9 0
v -0.9 0.9 0
v 0.9 -0.9 0
v 0.9 0.9 0
v -0.9 -0.9 -1.2
v -0.9 0.9 -1.2
v -0.8 -0.8 -1.2
v -0.8 0.8 -1.2
v 0.8 -0.8 -1.2
v 0.8 0.8 -1.2
v 0.9 -0.9 -1.2
v 0.9 0.9 -1.2
v -0.8 -0.8 -2.2
v -0.8 0.8 -2.2
v 0.8 -0.8 -2.2
v 0.8 0.8 -2.2
v -0.9 -0.9 0
v 0.9 -0.9 0
v -0.9 -0.9 -1.2
v 0.9 -0.9 -1.2
v -0.8 -0.8 -1.2
v 0.8 -0.8 -1.2
v -0.8 -0.8 -1.9
v 0.8 -0.8 -1.9
v -0.8 -0.8 -2.2
v 0.8 -0.8 -2.2
v -0.8 0.8 -1.2
v 0.8 0.8 -1.2
v -0.8 0.8 -1.9
v 0.8 0.8 -1.9
v -0.8 0.8 -2.2
v 0.8 0.8 -2.2
v -0.9 0.9 0
v 0.9 0.9 0
v -0.9 0.9 -1.2
v 0.9 0.9 -1.2

# faces
f 3/5/1 2/5/1 1/5/1
f 4/5/1 2/5/1 3/5/1
f 8/1/1 6/1/1 5/1/1
f 9/4/1 7/4/1 6/4/1
f 9/1/1 6/1/1 8/1/1
f 10/4/1 7/4/1 9/4/1
f 11/1/2 12/1/2 14/1/2
f 12/4/2 13/4/2 15/4/2
f 14/1/2 12/1/2 15/1/2
f 15/4/2 13/4/2 16/4/2
f 17/5/2 18/5/2 19/5/2
f 19/5/2 18/5/2 20/5/2
f 23/5/3 22/5/3 21/5/3
f 24/5/3 22/5/3 23/5/3
f 25/5/4 26/5/4 27/5/4
f 27/5/4 26/5/4 28/5/4
f 25/5/4 27/5/4 29/5/4
f 28/5/4 26/5/4 30/5/4
f 25/5/4 29/5/4 31/5/4
f 29/5/4 30/5/4 31/5/4
f 30/5/4 26/5/4 32/5/4
f 31/5/4 30/5/4 32/5/4
f 33/4/4 34/4/4 35/4/4
f 35/4/4 34/4/4 36/4/4
f 39/5/5 38/5/5 37/5/5
f 40/5/5 38/5/5 39/5/5
f 43/1/5 42/1/5 41/1/5
f 44/1/5 42/1/5 43/1/5
f 45/4/5 44/4/5 43/4/5
f 46/4/5 44/4/5 45/4/5
f 47/1/6 48/1/6 49/1/6
f 49/1/6 48/1/6 50/1/6
f 49/4/6 50/4/6 51/4/6
f 51/4/6 50/4/6 52/4/6
f 53/5/6 54/5/6 55/5/6
f 55/5/6 54/5/6 56/5/6
