# MagicaVoxel @ Ephtracy

# group
o 

# material
mtllib enoki_4.mtl
usemtl palette

# normals
vn -1 0 0
vn 1 0 0
vn 0 0 1
vn 0 0 -1
vn 0 -1 0
vn 0 1 0

# texcoords
vt 0.970703 0.5
vt 0.974609 0.5
vt 0.978516 0.5

# verts
v -0.5 0.6 0.2
v -0.5 0.6 0
v -0.5 0.7 0.2
v -0.5 0.7 0
v -0.4 0.6 0.3
v -0.4 0.6 0.2
v -0.4 0.7 0.3
v -0.4 0.7 0.2
v -0.3 0 0.2
v -0.3 0 0
v -0.3 0.4 0.2
v -0.3 0.4 0
v -0.3 0.5 0.4
v -0.3 0.5 0.2
v -0.3 0.6 0.4
v -0.3 0.6 0.3
v -0.3 0.6 0.2
v -0.3 0.6 0
v -0.3 0.9 -0.2
v -0.3 0.9 -0.4
v -0.3 1 -0.2
v -0.3 1 -0.4
v -0.2 0 0
v -0.2 0 -0.2
v -0.2 0.2 0
v -0.2 0.2 -0.2
v -0.2 0.5 0.5
v -0.2 0.5 0.4
v -0.2 0.6 0.5
v -0.2 0.6 0.4
v -0.2 0.9 -0.1
v -0.2 0.9 -0.2
v -0.2 0.9 -0.4
v -0.2 0.9 -0.5
v -0.2 1 -0.1
v -0.2 1 -0.2
v -0.2 1 -0.4
v -0.2 1 -0.5
v -0.1 0 0.3
v -0.1 0 0.2
v -0.1 0 -0.2
v -0.1 0 -0.3
v -0.1 0.2 0
v -0.1 0.2 -0.2
v -0.1 0.5 0.3
v -0.1 0.5 0.2
v -0.1 0.5 0
v -0.1 0.5 -0.2
v -0.1 0.7 0.2
v -0.1 0.7 0
v -0.1 0.8 0.2
v -0.1 0.8 0
v -0.1 0.9 -0.2
v -0.1 0.9 -0.3
v 0 0 0.2
v 0 0 0
v 0 0.1 0.2
v 0 0.1 0
v 0 0.2 0
v 0 0.5 0.2
v 0 0.5 0
v 0 0.6 0.2
v 0 0.7 0.3
v 0 0.7 0.2
v 0 0.7 0
v 0 0.7 -0.1
v 0 0.8 0.3
v 0 0.8 0.2
v 0 0.8 0
v 0 0.8 -0.1
v 0.1 0.2 0.4
v 0.1 0.2 0.2
v 0.1 0.3 0.4
v 0.1 0.3 0.2
v 0.2 0 0.3
v 0.2 0 0.2
v 0.2 0 0
v 0.2 0 -0.2
v 0.2 0.1 0.2
v 0.2 0.1 0
v 0.2 0.2 0.5
v 0.2 0.2 0.4
v 0.2 0.2 0.3
v 0.2 0.2 0.2
v 0.2 0.3 0.5
v 0.2 0.3 0.4
v 0.2 0.5 0
v 0.2 0.5 -0.2
v 0.2 0.6 0
v 0.2 0.6 -0.2
v 0.2 0.8 -0.2
v 0.2 0.8 -0.4
v 0.2 0.9 -0.2
v 0.2 0.9 -0.4
v 0.3 0 -0.2
v 0.3 0 -0.3
v 0.3 0.4 0.2
v 0.3 0.4 0
v 0.3 0.5 0.2
v 0.3 0.5 0.1
v 0.3 0.5 0
v 0.3 0.5 -0.2
v 0.3 0.6 -0.2
v 0.3 0.8 -0.1
v 0.3 0.8 -0.2
v 0.3 0.8 -0.3
v 0.3 0.8 -0.4
v 0.3 0.8 -0.5
v 0.3 0.9 -0.1
v 0.3 0.9 -0.2
v 0.3 0.9 -0.4
v 0.3 0.9 -0.5
v 0.4 0 0.1
v 0.4 0 0
v 0.4 0.3 0.2
v 0.4 0.3 0.1
v 0.4 0.3 0
v 0.4 0.4 0.3
v 0.4 0.4 0.2
v 0.4 0.4 0
v 0.4 0.5 0.3
v 0.4 0.5 0.2
v -0.2 0 0.2
v -0.2 0 0
v -0.2 0.2 0
v -0.2 0.4 0.2
v -0.2 0.4 0
v -0.2 0.5 0.2
v -0.2 0.6 0.3
v -0.2 0.6 0.2
v -0.2 0.6 0
v -0.2 0.7 0.3
v -0.2 0.7 0.2
v -0.1 0.6 0.2
v -0.1 0.6 0
v -0.1 0.7 0.2
v -0.1 0.7 0
v 0 0 0.3
v 0 0 0.2
v 0 0 0
v 0 0 -0.2
v 0 0 -0.3
v 0 0.1 0.2
v 0 0.1 0
v 0 0.2 0
v 0 0.2 -0.2
v 0 0.5 0.5
v 0 0.5 0.4
v 0 0.5 0.3
v 0 0.5 0.2
v 0 0.5 0
v 0 0.5 -0.2
v 0 0.6 0.5
v 0 0.6 0.4
v 0 0.9 -0.1
v 0 0.9 -0.2
v 0 0.9 -0.3
v 0 0.9 -0.4
v 0 0.9 -0.5
v 0 1 -0.1
v 0 1 -0.2
v 0 1 -0.4
v 0 1 -0.5
v 0.1 0.1 0.2
v 0.1 0.1 0
v 0.1 0.2 0.2
v 0.1 0.3 0.2
v 0.1 0.5 0.4
v 0.1 0.5 0.2
v 0.1 0.5 0.1
v 0.1 0.5 0
v 0.1 0.6 0.4
v 0.1 0.6 0.2
v 0.1 0.6 0.1
v 0.1 0.6 0
v 0.1 0.7 0.2
v 0.1 0.7 0
v 0.1 0.9 -0.2
v 0.1 0.9 -0.4
v 0.1 1 -0.2
v 0.1 1 -0.4
v 0.2 0 0.2
v 0.2 0 0
v 0.2 0.1 0.2
v 0.2 0.1 0
v 0.2 0.7 0.3
v 0.2 0.7 0.2
v 0.2 0.7 0
v 0.2 0.7 -0.1
v 0.2 0.8 0.3
v 0.2 0.8 0.2
v 0.2 0.8 0
v 0.2 0.8 -0.1
v 0.3 0 0.3
v 0.3 0 0.2
v 0.3 0 0
v 0.3 0 -0.2
v 0.3 0.2 0.5
v 0.3 0.2 0.4
v 0.3 0.2 0.3
v 0.3 0.2 0.2
v 0.3 0.3 0.5
v 0.3 0.3 0.4
v 0.3 0.4 0
v 0.3 0.5 0
v 0.3 0.5 -0.2
v 0.3 0.7 0.2
v 0.3 0.7 0
v 0.3 0.8 0.2
v 0.3 0.8 0
v 0.4 0 -0.2
v 0.4 0 -0.3
v 0.4 0.2 0.4
v 0.4 0.2 0.2
v 0.4 0.3 0.4
v 0.4 0.3 0.2
v 0.4 0.5 0.1
v 0.4 0.5 0
v 0.4 0.5 -0.2
v 0.4 0.6 0.1
v 0.4 0.6 0
v 0.4 0.6 -0.2
v 0.4 0.8 -0.2
v 0.4 0.8 -0.3
v 0.5 0 0.1
v 0.5 0 0
v 0.5 0.3 0.1
v 0.5 0.3 0
v 0.5 0.5 0
v 0.5 0.5 -0.2
v 0.5 0.6 0
v 0.5 0.6 -0.2
v 0.5 0.8 -0.1
v 0.5 0.8 -0.2
v 0.5 0.8 -0.4
v 0.5 0.8 -0.5
v 0.5 0.9 -0.1
v 0.5 0.9 -0.2
v 0.5 0.9 -0.4
v 0.5 0.9 -0.5
v 0.6 0.3 0.2
v 0.6 0.3 0
v 0.6 0.4 0.3
v 0.6 0.4 0.2
v 0.6 0.5 0.3
v 0.6 0.5 0.2
v 0.6 0.5 0
v 0.6 0.8 -0.2
v 0.6 0.8 -0.4
v 0.6 0.9 -0.2
v 0.6 0.9 -0.4
v -0.2 0.5 0.5
v -0.2 0.6 0.5
v 0 0.5 0.5
v 0 0.6 0.5
v 0.2 0.2 0.5
v 0.2 0.3 0.5
v 0.3 0.2 0.5
v 0.3 0.3 0.5
v -0.3 0.5 0.4
v -0.3 0.6 0.4
v -0.2 0.5 0.4
v -0.2 0.6 0.4
v 0 0.5 0.4
v 0 0.6 0.4
v 0.1 0.2 0.4
v 0.1 0.3 0.4
v 0.1 0.5 0.4
v 0.1 0.6 0.4
v 0.2 0.2 0.4
v 0.2 0.3 0.4
v 0.3 0.2 0.4
v 0.3 0.3 0.4
v 0.4 0.2 0.4
v 0.4 0.3 0.4
v -0.4 0.6 0.3
v -0.4 0.7 0.3
v -0.3 0.6 0.3
v -0.2 0.6 0.3
v -0.2 0.7 0.3
v -0.1 0 0.3
v -0.1 0.5 0.3
v 0 0 0.3
v 0 0.5 0.3
v 0 0.7 0.3
v 0 0.8 0.3
v 0.2 0 0.3
v 0.2 0.2 0.3
v 0.2 0.7 0.3
v 0.2 0.8 0.3
v 0.3 0 0.3
v 0.3 0.2 0.3
v 0.4 0.4 0.3
v 0.4 0.5 0.3
v 0.6 0.4 0.3
v 0.6 0.5 0.3
v -0.5 0.6 0.2
v -0.5 0.7 0.2
v -0.4 0.6 0.2
v -0.4 0.7 0.2
v -0.3 0 0.2
v -0.3 0.4 0.2
v -0.3 0.5 0.2
v -0.2 0 0.2
v -0.2 0.4 0.2
v -0.2 0.5 0.2
v -0.2 0.6 0.2
v -0.2 0.7 0.2
v -0.1 0.6 0.2
v -0.1 0.7 0.2
v -0.1 0.8 0.2
v 0 0 0.2
v 0 0.1 0.2
v 0 0.5 0.2
v 0 0.6 0.2
v 0 0.7 0.2
v 0 0.8 0.2
v 0.1 0.1 0.2
v 0.1 0.2 0.2
v 0.1 0.3 0.2
v 0.1 0.5 0.2
v 0.1 0.6 0.2
v 0.1 0.7 0.2
v 0.2 0 0.2
v 0.2 0.1 0.2
v 0.2 0.7 0.2
v 0.2 0.8 0.2
v 0.3 0.4 0.2
v 0.3 0.5 0.2
v 0.3 0.7 0.2
v 0.3 0.8 0.2
v 0.4 0.3 0.2
v 0.4 0.4 0.2
v 0.4 0.5 0.2
v 0.6 0.3 0.2
v 0.6 0.4 0.2
v 0.1 0.5 0.1
v 0.1 0.6 0.1
v 0.2 0.5 0.1
v 0.2 0.6 0.1
v 0.3 0.5 0.1
v 0.4 0 0.1
v 0.4 0.3 0.1
v 0.4 0.5 0.1
v 0.4 0.6 0.1
v 0.5 0 0.1
v 0.5 0.3 0.1
v -0.2 0 0
v -0.2 0.2 0
v -0.1 0.2 0
v -0.1 0.5 0
v 0 0 0
v 0 0.1 0
v 0 0.2 0
v 0 0.5 0
v 0.2 0 0
v 0.2 0.1 0
v 0.2 0.5 0
v 0.3 0 0
v 0.3 0.4 0
v 0.3 0.5 0
v 0.4 0.5 0
v 0.4 0.6 0
v 0.5 0.5 0
v 0.5 0.6 0
v -0.2 0.9 -0.1
v -0.2 1 -0.1
v 0 0.9 -0.1
v 0 1 -0.1
v 0.3 0.8 -0.1
v 0.3 0.9 -0.1
v 0.5 0.8 -0.1
v 0.5 0.9 -0.1
v -0.3 0.9 -0.2
v -0.3 1 -0.2
v -0.2 0.9 -0.2
v -0.2 1 -0.2
v -0.1 0.5 -0.2
v -0.1 0.9 -0.2
v 0 0.5 -0.2
v 0 0.9 -0.2
v 0 1 -0.2
v 0.1 0.9 -0.2
v 0.1 1 -0.2
v 0.2 0.8 -0.2
v 0.2 0.9 -0.2
v 0.3 0 -0.2
v 0.3 0.5 -0.2
v 0.3 0.6 -0.2
v 0.3 0.8 -0.2
v 0.3 0.9 -0.2
v 0.4 0 -0.2
v 0.4 0.5 -0.2
v 0.4 0.6 -0.2
v 0.4 0.8 -0.2
v 0.5 0.8 -0.2
v 0.5 0.9 -0.2
v 0.6 0.8 -0.2
v 0.6 0.9 -0.2
v -0.2 0.5 0.2
v -0.2 0.6 0.2
v -0.1 0 0.2
v -0.1 0.5 0.2
v -0.1 0.6 0.2
v 0 0 0.2
v 0 0.1 0.2
v 0 0.5 0.2
v 0 0.6 0.2
v 0.1 0.2 0.2
v 0.1 0.3 0.2
v 0.2 0 0.2
v 0.2 0.1 0.2
v 0.2 0.2 0.2
v 0.2 0.3 0.2
v 0.3 0 0.2
v 0.3 0.2 0.2
v 0.4 0.2 0.2
v 0.4 0.3 0.2
v -0.5 0.6 0
v -0.5 0.7 0
v -0.4 0.6 0
v -0.4 0.7 0
v -0.3 0 0
v -0.3 0.4 0
v -0.3 0.6 0
v -0.2 0 0
v -0.2 0.2 0
v -0.2 0.4 0
v -0.2 0.6 0
v -0.2 0.7 0
v -0.1 0.6 0
v -0.1 0.7 0
v -0.1 0.8 0
v 0 0 0
v 0 0.1 0
v 0 0.2 0
v 0 0.5 0
v 0 0.7 0
v 0 0.8 0
v 0.1 0.1 0
v 0.1 0.5 0
v 0.1 0.6 0
v 0.1 0.7 0
v 0.2 0 0
v 0.2 0.1 0
v 0.2 0.5 0
v 0.2 0.6 0
v 0.2 0.7 0
v 0.2 0.8 0
v 0.3 0.4 0
v 0.3 0.5 0
v 0.3 0.7 0
v 0.3 0.8 0
v 0.4 0 0
v 0.4 0.3 0
v 0.4 0.4 0
v 0.4 0.5 0
v 0.5 0 0
v 0.5 0.3 0
v 0.5 0.5 0
v 0.6 0.3 0
v 0.6 0.5 0
v 0 0.7 -0.1
v 0 0.8 -0.1
v 0.2 0.7 -0.1
v 0.2 0.8 -0.1
v -0.2 0 -0.2
v -0.2 0.2 -0.2
v -0.1 0 -0.2
v -0.1 0.2 -0.2
v 0.2 0 -0.2
v 0.2 0.5 -0.2
v 0.2 0.6 -0.2
v 0.3 0 -0.2
v 0.3 0.5 -0.2
v 0.3 0.6 -0.2
v 0.4 0.5 -0.2
v 0.4 0.6 -0.2
v 0.5 0.5 -0.2
v 0.5 0.6 -0.2
v -0.1 0 -0.3
v -0.1 0.9 -0.3
v 0 0 -0.3
v 0 0.9 -0.3
v 0.3 0 -0.3
v 0.3 0.8 -0.3
v 0.4 0 -0.3
v 0.4 0.8 -0.3
v -0.3 0.9 -0.4
v -0.3 1 -0.4
v -0.2 0.9 -0.4
v -0.2 1 -0.4
v 0 0.9 -0.4
v 0 1 -0.4
v 0.1 0.9 -0.4
v 0.1 1 -0.4
v 0.2 0.8 -0.4
v 0.2 0.9 -0.4
v 0.3 0.8 -0.4
v 0.3 0.9 -0.4
v 0.5 0.8 -0.4
v 0.5 0.9 -0.4
v 0.6 0.8 -0.4
v 0.6 0.9 -0.4
v -0.2 0.9 -0.5
v -0.2 1 -0.5
v 0 0.9 -0.5
v 0 1 -0.5
v 0.3 0.8 -0.5
v 0.3 0.9 -0.5
v 0.5 0.8 -0.5
v 0.5 0.9 -0.5
v -0.1 0 0.3
v 0 0 0.3
v 0.2 0 0.3
v 0.3 0 0.3
v -0.3 0 0.2
v -0.2 0 0.2
v -0.1 0 0.2
v 0 0 0.2
v 0.2 0 0.2
v 0.3 0 0.2
v 0.4 0 0.1
v 0.5 0 0.1
v -0.3 0 0
v -0.2 0 0
v 0 0 0
v 0.2 0 0
v 0.3 0 0
v 0.4 0 0
v 0.5 0 0
v -0.2 0 -0.2
v -0.1 0 -0.2
v 0 0 -0.2
v 0.2 0 -0.2
v 0.3 0 -0.2
v 0.4 0 -0.2
v -0.1 0 -0.3
v 0 0 -0.3
v 0.3 0 -0.3
v 0.4 0 -0.3
v 0.2 0.2 0.5
v 0.3 0.2 0.5
v 0.1 0.2 0.4
v 0.2 0.2 0.4
v 0.3 0.2 0.4
v 0.4 0.2 0.4
v 0.2 0.2 0.3
v 0.3 0.2 0.3
v 0.1 0.2 0.2
v 0.2 0.2 0.2
v 0.3 0.2 0.2
v 0.4 0.2 0.2
v 0.4 0.3 0.2
v 0.6 0.3 0.2
v 0.4 0.3 0.1
v 0.5 0.3 0.1
v 0.5 0.3 0
v 0.6 0.3 0
v 0.4 0.4 0.3
v 0.6 0.4 0.3
v 0.3 0.4 0.2
v 0.4 0.4 0.2
v 0.6 0.4 0.2
v 0.3 0.4 0
v 0.4 0.4 0
v -0.2 0.5 0.5
v 0 0.5 0.5
v -0.3 0.5 0.4
v -0.2 0.5 0.4
v 0 0.5 0.4
v 0.1 0.5 0.4
v -0.2 0.5 0.3
v -0.1 0.5 0.3
v 0 0.5 0.3
v -0.3 0.5 0.2
v -0.2 0.5 0.2
v -0.1 0.5 0.2
v 0 0.5 0.2
v 0.1 0.5 0.2
v 0.1 0.5 0.1
v 0.2 0.5 0.1
v 0.3 0.5 0.1
v 0.1 0.5 0
v 0.2 0.5 0
v 0.3 0.5 0
v 0.4 0.5 0
v 0.5 0.5 0
v 0.3 0.5 -0.2
v 0.4 0.5 -0.2
v 0.5 0.5 -0.2
v -0.4 0.6 0.3
v -0.3 0.6 0.3
v -0.5 0.6 0.2
v -0.4 0.6 0.2
v -0.3 0.6 0.2
v -0.2 0.6 0.2
v -0.1 0.6 0.2
v -0.5 0.6 0
v -0.4 0.6 0
v -0.3 0.6 0
v -0.2 0.6 0
v -0.1 0.6 0
v 0 0.7 0.3
v 0.2 0.7 0.3
v -0.1 0.7 0.2
v 0 0.7 0.2
v 0.1 0.7 0.2
v 0.2 0.7 0.2
v 0.3 0.7 0.2
v -0.1 0.7 0
v 0 0.7 0
v 0.1 0.7 0
v 0.2 0.7 0
v 0.3 0.7 0
v 0 0.7 -0.1
v 0.2 0.7 -0.1
v 0.3 0.8 -0.1
v 0.5 0.8 -0.1
v 0.2 0.8 -0.2
v 0.3 0.8 -0.2
v 0.4 0.8 -0.2
v 0.5 0.8 -0.2
v 0.6 0.8 -0.2
v 0.3 0.8 -0.3
v 0.4 0.8 -0.3
v 0.2 0.8 -0.4
v 0.3 0.8 -0.4
v 0.5 0.8 -0.4
v 0.6 0.8 -0.4
v 0.3 0.8 -0.5
v 0.5 0.8 -0.5
v -0.2 0.9 -0.1
v 0 0.9 -0.1
v -0.3 0.9 -0.2
v -0.2 0.9 -0.2
v -0.1 0.9 -0.2
v 0 0.9 -0.2
v 0.1 0.9 -0.2
v -0.1 0.9 -0.3
v 0 0.9 -0.3
v -0.3 0.9 -0.4
v -0.2 0.9 -0.4
v 0 0.9 -0.4
v 0.1 0.9 -0.4
v -0.2 0.9 -0.5
v 0 0.9 -0.5
v 0.1 0.1 0.2
v 0.2 0.1 0.2
v 0.1 0.1 0
v 0.2 0.1 0
v -0.2 0.2 0
v -0.1 0.2 0
v -0.2 0.2 -0.2
v -0.1 0.2 -0.2
v 0.2 0.3 0.5
v 0.3 0.3 0.5
v 0.1 0.3 0.4
v 0.2 0.3 0.4
v 0.3 0.3 0.4
v 0.4 0.3 0.4
v 0.1 0.3 0.2
v 0.2 0.3 0.2
v 0.4 0.3 0.2
v 0.4 0.5 0.3
v 0.6 0.5 0.3
v 0.3 0.5 0.2
v 0.4 0.5 0.2
v 0.6 0.5 0.2
v 0.3 0.5 0.1
v 0.4 0.5 0.1
v -0.1 0.5 0
v 0 0.5 0
v 0.4 0.5 0
v 0.5 0.5 0
v 0.6 0.5 0
v -0.1 0.5 -0.2
v 0 0.5 -0.2
v -0.2 0.6 0.5
v 0 0.6 0.5
v -0.3 0.6 0.4
v -0.2 0.6 0.4
v 0 0.6 0.4
v 0.1 0.6 0.4
v -0.3 0.6 0.3
v -0.2 0.6 0.3
v -0.1 0.6 0.3
v -0.2 0.6 0.2
v -0.1 0.6 0.2
v 0 0.6 0.2
v 0.1 0.6 0.2
v 0.1 0.6 0.1
v 0.2 0.6 0.1
v 0.4 0.6 0.1
v 0.1 0.6 0
v 0.2 0.6 0
v 0.4 0.6 0
v 0.5 0.6 0
v 0.2 0.6 -0.2
v 0.3 0.6 -0.2
v 0.4 0.6 -0.2
v 0.5 0.6 -0.2
v -0.4 0.7 0.3
v -0.2 0.7 0.3
v -0.5 0.7 0.2
v -0.4 0.7 0.2
v -0.2 0.7 0.2
v -0.1 0.7 0.2
v -0.5 0.7 0
v -0.4 0.7 0
v -0.2 0.7 0
v -0.1 0.7 0
v 0 0.8 0.3
v 0.2 0.8 0.3
v -0.1 0.8 0.2
v 0 0.8 0.2
v 0.2 0.8 0.2
v 0.3 0.8 0.2
v -0.1 0.8 0
v 0 0.8 0
v 0.2 0.8 0
v 0.3 0.8 0
v 0 0.8 -0.1
v 0.2 0.8 -0.1
v 0.3 0.9 -0.1
v 0.5 0.9 -0.1
v 0.2 0.9 -0.2
v 0.3 0.9 -0.2
v 0.5 0.9 -0.2
v 0.6 0.9 -0.2
v 0.2 0.9 -0.4
v 0.3 0.9 -0.4
v 0.5 0.9 -0.4
v 0.6 0.9 -0.4
v 0.3 0.9 -0.5
v 0.5 0.9 -0.5
v -0.2 1 -0.1
v 0 1 -0.1
v -0.3 1 -0.2
v -0.2 1 -0.2
v 0 1 -0.2
v 0.1 1 -0.2
v -0.3 1 -0.4
v -0.2 1 -0.4
v 0 1 -0.4
v 0.1 1 -0.4
v -0.2 1 -0.5
v 0 1 -0.5

# faces
f 3/3/1 2/3/1 1/3/1
f 4/3/1 2/3/1 3/3/1
f 7/3/1 6/3/1 5/3/1
f 8/3/1 6/3/1 7/3/1
f 11/1/1 10/1/1 9/1/1
f 12/1/1 10/1/1 11/1/1
f 14/2/1 12/2/1 11/2/1
f 15/3/1 14/3/1 13/3/1
f 16/3/1 14/3/1 15/3/1
f 17/2/1 12/2/1 14/2/1
f 17/3/1 14/3/1 16/3/1
f 18/2/1 12/2/1 17/2/1
f 21/3/1 20/3/1 19/3/1
f 22/3/1 20/3/1 21/3/1
f 25/1/1 24/1/1 23/1/1
f 26/1/1 24/1/1 25/1/1
f 29/3/1 28/3/1 27/3/1
f 30/3/1 28/3/1 29/3/1
f 35/3/1 32/3/1 31/3/1
f 36/3/1 32/3/1 35/3/1
f 37/3/1 34/3/1 33/3/1
f 38/3/1 34/3/1 37/3/1
f 44/2/1 42/2/1 41/2/1
f 45/1/1 40/1/1 39/1/1
f 46/1/1 40/1/1 45/1/1
f 47/2/1 44/2/1 43/2/1
f 48/2/1 42/2/1 44/2/1
f 48/2/1 44/2/1 47/2/1
f 51/3/1 50/3/1 49/3/1
f 52/3/1 50/3/1 51/3/1
f 53/2/1 42/2/1 48/2/1
f 54/2/1 42/2/1 53/2/1
f 57/1/1 56/1/1 55/1/1
f 58/1/1 56/1/1 57/1/1
f 59/2/1 58/2/1 57/2/1
f 60/2/1 59/2/1 57/2/1
f 61/2/1 59/2/1 60/2/1
f 62/2/1 61/2/1 60/2/1
f 64/2/1 61/2/1 62/2/1
f 65/2/1 61/2/1 64/2/1
f 67/3/1 64/3/1 63/3/1
f 68/3/1 64/3/1 67/3/1
f 69/3/1 66/3/1 65/3/1
f 70/3/1 66/3/1 69/3/1
f 73/3/1 72/3/1 71/3/1
f 74/3/1 72/3/1 73/3/1
f 79/1/1 76/1/1 75/1/1
f 80/1/1 78/1/1 77/1/1
f 83/1/1 79/1/1 75/1/1
f 84/1/1 79/1/1 83/1/1
f 85/3/1 82/3/1 81/3/1
f 86/3/1 82/3/1 85/3/1
f 87/1/1 78/1/1 80/1/1
f 88/1/1 78/1/1 87/1/1
f 89/3/1 88/3/1 87/3/1
f 90/3/1 88/3/1 89/3/1
f 93/3/1 92/3/1 91/3/1
f 94/3/1 92/3/1 93/3/1
f 99/3/1 98/3/1 97/3/1
f 100/3/1 98/3/1 99/3/1
f 101/3/1 98/3/1 100/3/1
f 102/2/1 96/2/1 95/2/1
f 103/2/1 96/2/1 102/2/1
f 105/2/1 96/2/1 103/2/1
f 106/2/1 96/2/1 105/2/1
f 109/3/1 105/3/1 104/3/1
f 110/3/1 105/3/1 109/3/1
f 111/3/1 108/3/1 107/3/1
f 112/3/1 108/3/1 111/3/1
f 116/1/1 114/1/1 113/1/1
f 117/1/1 114/1/1 116/1/1
f 119/2/1 116/2/1 115/2/1
f 119/2/1 117/2/1 116/2/1
f 120/2/1 117/2/1 119/2/1
f 121/3/1 119/3/1 118/3/1
f 122/3/1 119/3/1 121/3/1
f 123/1/2 124/1/2 125/1/2
f 123/1/2 125/1/2 126/1/2
f 126/1/2 125/1/2 127/1/2
f 126/2/2 127/2/2 128/2/2
f 128/2/2 127/2/2 130/2/2
f 130/2/2 127/2/2 131/2/2
f 129/3/2 130/3/2 132/3/2
f 132/3/2 130/3/2 133/3/2
f 134/3/2 135/3/2 136/3/2
f 136/3/2 135/3/2 137/3/2
f 138/1/2 139/1/2 143/1/2
f 140/1/2 141/1/2 144/1/2
f 144/1/2 141/1/2 145/1/2
f 141/2/2 142/2/2 146/2/2
f 145/1/2 141/1/2 146/1/2
f 138/1/2 143/1/2 149/1/2
f 149/1/2 143/1/2 150/1/2
f 145/2/2 146/2/2 151/2/2
f 146/2/2 142/2/2 152/2/2
f 151/2/2 146/2/2 152/2/2
f 147/3/2 148/3/2 153/3/2
f 153/3/2 148/3/2 154/3/2
f 152/2/2 142/2/2 156/2/2
f 156/2/2 142/2/2 157/2/2
f 155/3/2 156/3/2 160/3/2
f 160/3/2 156/3/2 161/3/2
f 158/3/2 159/3/2 162/3/2
f 162/3/2 159/3/2 163/3/2
f 164/2/2 165/2/2 166/2/2
f 166/2/2 165/2/2 167/2/2
f 167/2/2 165/2/2 169/2/2
f 169/2/2 165/2/2 170/2/2
f 170/2/2 165/2/2 171/2/2
f 168/3/2 169/3/2 172/3/2
f 169/2/2 170/2/2 173/2/2
f 172/3/2 169/3/2 173/3/2
f 173/2/2 170/2/2 174/2/2
f 174/2/2 175/2/2 176/2/2
f 173/2/2 174/2/2 176/2/2
f 176/2/2 175/2/2 177/2/2
f 178/3/2 179/3/2 180/3/2
f 180/3/2 179/3/2 181/3/2
f 182/1/2 183/1/2 184/1/2
f 184/1/2 183/1/2 185/1/2
f 186/3/2 187/3/2 190/3/2
f 190/3/2 187/3/2 191/3/2
f 188/3/2 189/3/2 192/3/2
f 192/3/2 189/3/2 193/3/2
f 194/1/2 195/1/2 200/1/2
f 200/1/2 195/1/2 201/1/2
f 198/3/2 199/3/2 202/3/2
f 202/3/2 199/3/2 203/3/2
f 196/1/2 197/1/2 204/1/2
f 204/1/2 197/1/2 205/1/2
f 205/1/2 197/1/2 206/1/2
f 207/3/2 208/3/2 209/3/2
f 209/3/2 208/3/2 210/3/2
f 213/2/2 214/2/2 215/2/2
f 215/2/2 214/2/2 216/2/2
f 211/2/2 212/2/2 219/2/2
f 217/3/2 218/3/2 220/3/2
f 220/3/2 218/3/2 221/3/2
f 219/2/2 212/2/2 222/2/2
f 222/2/2 212/2/2 223/2/2
f 223/2/2 212/2/2 224/2/2
f 225/1/2 226/1/2 227/1/2
f 227/1/2 226/1/2 228/1/2
f 229/3/2 230/3/2 231/3/2
f 231/3/2 230/3/2 232/3/2
f 233/3/2 234/3/2 237/3/2
f 237/3/2 234/3/2 238/3/2
f 235/3/2 236/3/2 239/3/2
f 239/3/2 236/3/2 240/3/2
f 241/2/2 242/2/2 244/2/2
f 243/3/2 244/3/2 245/3/2
f 244/2/2 242/2/2 246/2/2
f 245/3/2 244/3/2 246/3/2
f 246/2/2 242/2/2 247/2/2
f 248/3/2 249/3/2 250/3/2
f 250/3/2 249/3/2 251/3/2
f 254/3/3 253/3/3 252/3/3
f 255/3/3 253/3/3 254/3/3
f 258/3/3 257/3/3 256/3/3
f 259/3/3 257/3/3 258/3/3
f 262/3/3 261/3/3 260/3/3
f 263/3/3 261/3/3 262/3/3
f 268/3/3 265/3/3 264/3/3
f 269/3/3 265/3/3 268/3/3
f 270/3/3 267/3/3 266/3/3
f 271/3/3 267/3/3 270/3/3
f 274/2/3 273/2/3 272/2/3
f 275/2/3 273/2/3 274/2/3
f 278/3/3 277/3/3 276/3/3
f 279/3/3 277/3/3 278/3/3
f 280/3/3 277/3/3 279/3/3
f 283/1/3 282/1/3 281/1/3
f 284/1/3 282/1/3 283/1/3
f 289/3/3 286/3/3 285/3/3
f 290/3/3 286/3/3 289/3/3
f 291/1/3 288/1/3 287/1/3
f 292/1/3 288/1/3 291/1/3
f 295/3/3 294/3/3 293/3/3
f 296/3/3 294/3/3 295/3/3
f 299/3/3 298/3/3 297/3/3
f 300/3/3 298/3/3 299/3/3
f 304/1/3 302/1/3 301/1/3
f 305/2/3 303/2/3 302/2/3
f 305/1/3 302/1/3 304/1/3
f 306/2/3 303/2/3 305/2/3
f 309/3/3 308/3/3 307/3/3
f 310/3/3 308/3/3 309/3/3
f 316/3/3 311/3/3 310/3/3
f 317/3/3 311/3/3 316/3/3
f 318/2/3 314/2/3 313/2/3
f 318/1/3 313/1/3 312/1/3
f 319/2/3 314/2/3 318/2/3
f 320/2/3 314/2/3 319/2/3
f 321/2/3 314/2/3 320/2/3
f 322/2/3 316/2/3 315/2/3
f 323/2/3 316/2/3 322/2/3
f 324/1/3 318/1/3 312/1/3
f 325/1/3 318/1/3 324/1/3
f 330/3/3 327/3/3 326/3/3
f 331/3/3 327/3/3 330/3/3
f 333/3/3 329/3/3 328/3/3
f 334/3/3 329/3/3 333/3/3
f 335/2/3 333/2/3 332/2/3
f 336/2/3 333/2/3 335/2/3
f 339/2/3 338/2/3 337/2/3
f 340/2/3 338/2/3 339/2/3
f 341/3/3 340/3/3 339/3/3
f 344/3/3 340/3/3 341/3/3
f 345/3/3 340/3/3 344/3/3
f 346/1/3 343/1/3 342/1/3
f 347/1/3 343/1/3 346/1/3
f 350/1/3 349/1/3 348/1/3
f 352/1/3 350/1/3 348/1/3
f 353/1/3 350/1/3 352/1/3
f 354/2/3 351/2/3 350/2/3
f 354/1/3 350/1/3 353/1/3
f 355/2/3 351/2/3 354/2/3
f 359/1/3 357/1/3 356/1/3
f 359/1/3 358/1/3 357/1/3
f 360/1/3 358/1/3 359/1/3
f 361/1/3 358/1/3 360/1/3
f 364/3/3 363/3/3 362/3/3
f 365/3/3 363/3/3 364/3/3
f 368/3/3 367/3/3 366/3/3
f 369/3/3 367/3/3 368/3/3
f 372/3/3 371/3/3 370/3/3
f 373/3/3 371/3/3 372/3/3
f 376/3/3 375/3/3 374/3/3
f 377/3/3 375/3/3 376/3/3
f 380/2/3 379/2/3 378/2/3
f 381/2/3 379/2/3 380/2/3
f 383/3/3 382/3/3 381/3/3
f 384/3/3 382/3/3 383/3/3
f 390/3/3 386/3/3 385/3/3
f 391/3/3 386/3/3 390/3/3
f 392/2/3 388/2/3 387/2/3
f 393/2/3 388/2/3 392/2/3
f 394/2/3 390/2/3 389/2/3
f 395/2/3 390/2/3 394/2/3
f 398/3/3 397/3/3 396/3/3
f 399/3/3 397/3/3 398/3/3
f 400/1/4 401/1/4 403/1/4
f 403/1/4 401/1/4 404/1/4
f 402/1/4 403/1/4 405/1/4
f 405/1/4 403/1/4 406/1/4
f 403/3/4 404/3/4 407/3/4
f 406/1/4 403/1/4 407/1/4
f 407/3/4 404/3/4 408/3/4
f 409/3/4 410/3/4 413/3/4
f 413/3/4 410/3/4 414/3/4
f 411/1/4 412/1/4 415/1/4
f 412/1/4 413/1/4 415/1/4
f 413/2/4 414/2/4 416/2/4
f 415/1/4 413/1/4 416/1/4
f 416/2/4 414/2/4 417/2/4
f 417/2/4 414/2/4 418/2/4
f 419/3/4 420/3/4 421/3/4
f 421/3/4 420/3/4 422/3/4
f 421/2/4 422/2/4 425/2/4
f 423/1/4 424/1/4 426/1/4
f 426/1/4 424/1/4 427/1/4
f 424/2/4 425/2/4 428/2/4
f 427/1/4 424/1/4 428/1/4
f 425/2/4 422/2/4 429/2/4
f 428/2/4 425/2/4 429/2/4
f 429/2/4 422/2/4 430/2/4
f 429/3/4 430/3/4 431/3/4
f 431/3/4 430/3/4 432/3/4
f 432/3/4 433/3/4 438/3/4
f 438/3/4 433/3/4 439/3/4
f 436/2/4 437/2/4 440/2/4
f 434/1/4 435/1/4 440/1/4
f 437/2/4 438/2/4 440/2/4
f 435/2/4 436/2/4 440/2/4
f 440/2/4 438/2/4 441/2/4
f 441/2/4 438/2/4 442/2/4
f 442/2/4 438/2/4 443/2/4
f 434/1/4 440/1/4 444/1/4
f 444/1/4 440/1/4 445/1/4
f 441/2/4 442/2/4 446/2/4
f 446/2/4 442/2/4 447/2/4
f 448/3/4 449/3/4 452/3/4
f 452/3/4 449/3/4 453/3/4
f 450/3/4 451/3/4 456/3/4
f 456/3/4 451/3/4 457/3/4
f 454/1/4 455/1/4 458/1/4
f 455/2/4 456/2/4 459/2/4
f 458/1/4 455/1/4 459/1/4
f 456/2/4 457/2/4 459/2/4
f 459/2/4 457/2/4 460/2/4
f 459/2/4 460/2/4 461/2/4
f 461/2/4 460/2/4 462/2/4
f 463/3/4 464/3/4 465/3/4
f 465/3/4 464/3/4 466/3/4
f 467/1/4 468/1/4 469/1/4
f 469/1/4 468/1/4 470/1/4
f 471/1/4 472/1/4 474/1/4
f 472/3/4 473/3/4 475/3/4
f 474/1/4 472/1/4 475/1/4
f 475/3/4 473/3/4 476/3/4
f 477/3/4 478/3/4 479/3/4
f 479/3/4 478/3/4 480/3/4
f 481/2/4 482/2/4 483/2/4
f 483/2/4 482/2/4 484/2/4
f 485/2/4 486/2/4 487/2/4
f 487/2/4 486/2/4 488/2/4
f 489/3/4 490/3/4 491/3/4
f 491/3/4 490/3/4 492/3/4
f 493/3/4 494/3/4 495/3/4
f 495/3/4 494/3/4 496/3/4
f 497/3/4 498/3/4 499/3/4
f 499/3/4 498/3/4 500/3/4
f 501/3/4 502/3/4 503/3/4
f 503/3/4 502/3/4 504/3/4
f 505/3/4 506/3/4 507/3/4
f 507/3/4 506/3/4 508/3/4
f 509/3/4 510/3/4 511/3/4
f 511/3/4 510/3/4 512/3/4
f 519/1/5 514/1/5 513/1/5
f 520/1/5 514/1/5 519/1/5
f 521/1/5 516/1/5 515/1/5
f 522/1/5 516/1/5 521/1/5
f 525/1/5 518/1/5 517/1/5
f 526/1/5 518/1/5 525/1/5
f 527/1/5 521/1/5 520/1/5
f 528/1/5 521/1/5 527/1/5
f 530/1/5 524/1/5 523/1/5
f 531/1/5 524/1/5 530/1/5
f 532/1/5 527/1/5 526/1/5
f 533/1/5 527/1/5 532/1/5
f 534/1/5 527/1/5 533/1/5
f 535/1/5 529/1/5 528/1/5
f 536/1/5 529/1/5 535/1/5
f 538/2/5 534/2/5 533/2/5
f 539/2/5 534/2/5 538/2/5
f 540/2/5 537/2/5 536/2/5
f 541/2/5 537/2/5 540/2/5
f 545/3/5 543/3/5 542/3/5
f 546/3/5 543/3/5 545/3/5
f 548/3/5 545/3/5 544/3/5
f 548/2/5 547/2/5 546/2/5
f 548/2/5 546/2/5 545/2/5
f 549/2/5 547/2/5 548/2/5
f 550/3/5 548/3/5 544/3/5
f 551/3/5 548/3/5 550/3/5
f 552/2/5 547/2/5 549/2/5
f 553/2/5 547/2/5 552/2/5
f 556/2/5 555/2/5 554/2/5
f 557/2/5 555/2/5 556/2/5
f 558/2/5 555/2/5 557/2/5
f 559/2/5 555/2/5 558/2/5
f 563/3/5 561/3/5 560/3/5
f 564/3/5 561/3/5 563/3/5
f 565/3/5 563/3/5 562/3/5
f 566/3/5 563/3/5 565/3/5
f 570/3/5 568/3/5 567/3/5
f 571/3/5 568/3/5 570/3/5
f 573/3/5 570/3/5 569/3/5
f 573/3/5 572/3/5 571/3/5
f 573/3/5 571/3/5 570/3/5
f 574/3/5 572/3/5 573/3/5
f 575/3/5 572/3/5 574/3/5
f 576/3/5 573/3/5 569/3/5
f 577/1/5 574/1/5 573/1/5
f 577/3/5 573/3/5 576/3/5
f 578/1/5 574/1/5 577/1/5
f 579/3/5 572/3/5 575/3/5
f 580/3/5 572/3/5 579/3/5
f 584/2/5 582/2/5 581/2/5
f 585/3/5 583/3/5 582/3/5
f 585/2/5 582/2/5 584/2/5
f 586/3/5 583/3/5 585/3/5
f 589/3/5 588/3/5 587/3/5
f 589/3/5 587/3/5 586/3/5
f 590/3/5 588/3/5 589/3/5
f 591/3/5 588/3/5 590/3/5
f 595/3/5 593/3/5 592/3/5
f 596/3/5 593/3/5 595/3/5
f 599/3/5 595/3/5 594/3/5
f 600/2/5 596/2/5 595/2/5
f 600/3/5 595/3/5 599/3/5
f 601/2/5 596/2/5 600/2/5
f 602/3/5 598/3/5 597/3/5
f 603/3/5 598/3/5 602/3/5
f 607/3/5 605/3/5 604/3/5
f 608/3/5 605/3/5 607/3/5
f 609/3/5 605/3/5 608/3/5
f 611/3/5 607/3/5 606/3/5
f 612/3/5 607/3/5 611/3/5
f 613/2/5 609/2/5 608/2/5
f 614/3/5 610/3/5 609/3/5
f 614/2/5 609/2/5 613/2/5
f 615/3/5 610/3/5 614/3/5
f 616/3/5 613/3/5 612/3/5
f 616/3/5 614/3/5 613/3/5
f 617/3/5 614/3/5 616/3/5
f 621/3/5 619/3/5 618/3/5
f 622/3/5 619/3/5 621/3/5
f 623/3/5 619/3/5 622/3/5
f 625/3/5 621/3/5 620/3/5
f 626/2/5 623/2/5 622/2/5
f 627/3/5 625/3/5 620/3/5
f 628/2/5 626/2/5 625/2/5
f 628/3/5 625/3/5 627/3/5
f 629/3/5 624/3/5 623/3/5
f 629/2/5 626/2/5 628/2/5
f 629/2/5 623/2/5 626/2/5
f 630/3/5 624/3/5 629/3/5
f 631/3/5 629/3/5 628/3/5
f 632/3/5 629/3/5 631/3/5
f 636/3/5 634/3/5 633/3/5
f 637/3/5 634/3/5 636/3/5
f 638/3/5 634/3/5 637/3/5
f 640/2/5 637/2/5 636/2/5
f 641/3/5 639/3/5 638/3/5
f 642/3/5 636/3/5 635/3/5
f 643/2/5 641/2/5 640/2/5
f 643/3/5 636/3/5 642/3/5
f 643/2/5 640/2/5 636/2/5
f 644/3/5 639/3/5 641/3/5
f 644/2/5 641/2/5 643/2/5
f 645/3/5 639/3/5 644/3/5
f 646/3/5 644/3/5 643/3/5
f 647/3/5 644/3/5 646/3/5
f 648/1/6 649/1/6 650/1/6
f 650/1/6 649/1/6 651/1/6
f 652/1/6 653/1/6 654/1/6
f 654/1/6 653/1/6 655/1/6
f 656/3/6 657/3/6 659/3/6
f 659/3/6 657/3/6 660/3/6
f 658/3/6 659/3/6 662/3/6
f 660/2/6 661/2/6 663/2/6
f 662/3/6 659/3/6 663/3/6
f 659/2/6 660/2/6 663/2/6
f 663/2/6 661/2/6 664/2/6
f 665/3/6 666/3/6 668/3/6
f 668/3/6 666/3/6 669/3/6
f 667/3/6 668/3/6 670/3/6
f 668/2/6 669/2/6 671/2/6
f 670/3/6 668/3/6 671/3/6
f 671/2/6 669/2/6 674/2/6
f 674/2/6 669/2/6 675/2/6
f 675/2/6 669/2/6 676/2/6
f 672/2/6 673/2/6 677/2/6
f 677/2/6 673/2/6 678/2/6
f 679/3/6 680/3/6 682/3/6
f 682/3/6 680/3/6 683/3/6
f 681/3/6 682/3/6 685/3/6
f 683/3/6 684/3/6 685/3/6
f 682/3/6 683/3/6 685/3/6
f 685/3/6 684/3/6 686/3/6
f 686/3/6 684/3/6 687/3/6
f 686/1/6 687/1/6 688/1/6
f 687/3/6 684/3/6 689/3/6
f 688/1/6 687/1/6 689/1/6
f 689/3/6 684/3/6 690/3/6
f 690/3/6 684/3/6 691/3/6
f 692/2/6 693/2/6 695/2/6
f 693/3/6 694/3/6 696/3/6
f 695/2/6 693/2/6 696/2/6
f 696/3/6 694/3/6 697/3/6
f 697/3/6 698/3/6 699/3/6
f 696/3/6 697/3/6 699/3/6
f 699/3/6 698/3/6 700/3/6
f 700/3/6 698/3/6 701/3/6
f 701/3/6 698/3/6 702/3/6
f 703/3/6 704/3/6 706/3/6
f 706/3/6 704/3/6 707/3/6
f 705/3/6 706/3/6 709/3/6
f 706/2/6 707/2/6 710/2/6
f 709/3/6 706/3/6 710/3/6
f 707/3/6 708/3/6 711/3/6
f 710/2/6 707/2/6 711/2/6
f 711/3/6 708/3/6 712/3/6
f 713/3/6 714/3/6 716/3/6
f 716/3/6 714/3/6 717/3/6
f 715/3/6 716/3/6 719/3/6
f 716/2/6 717/2/6 720/2/6
f 719/3/6 716/3/6 720/3/6
f 717/3/6 718/3/6 721/3/6
f 720/2/6 717/2/6 721/2/6
f 721/3/6 718/3/6 722/3/6
f 720/3/6 721/3/6 723/3/6
f 723/3/6 721/3/6 724/3/6
f 725/3/6 726/3/6 728/3/6
f 728/3/6 726/3/6 729/3/6
f 727/3/6 728/3/6 731/3/6
f 728/2/6 729/2/6 732/2/6
f 731/3/6 728/3/6 732/3/6
f 729/3/6 730/3/6 733/3/6
f 732/2/6 729/2/6 733/2/6
f 733/3/6 730/3/6 734/3/6
f 732/3/6 733/3/6 735/3/6
f 735/3/6 733/3/6 736/3/6
f 737/3/6 738/3/6 740/3/6
f 740/3/6 738/3/6 741/3/6
f 739/3/6 740/3/6 743/3/6
f 740/2/6 741/2/6 744/2/6
f 743/3/6 740/3/6 744/3/6
f 741/3/6 742/3/6 745/3/6
f 744/2/6 741/2/6 745/2/6
f 745/3/6 742/3/6 746/3/6
f 744/3/6 745/3/6 747/3/6
f 747/3/6 745/3/6 748/3/6
