# MagicaVoxel @ Ephtracy

# group
o carrot_1

# material
mtllib wheat_5-0-carrot_1.mtl
usemtl palette

# normals
vn -1 0 0
vn 1 0 0
vn 0 0 1
vn 0 0 -1
vn 0 -1 0
vn 0 1 0

# texcoords
vt 0.802734 0.5
vt 0.806641 0.5
vt 0.810547 0.5

# verts
v -1.5 0.1 0.2
v -1.5 0.1 0
v -1.5 0.5 0.2
v -1.5 0.5 0
v -1.5 0.9 0.2
v -1.5 0.9 0
v -1.5 1.1 0.2
v -1.5 1.1 0
v -1.2 0.1 -0.6
v -1.2 0.1 -0.8
v -1.2 0.5 -0.6
v -1.2 0.5 -0.8
v -1.2 0.9 -0.6
v -1.2 0.9 -0.8
v -1.2 1.5 1.1
v -1.2 1.5 0.9
v -1.2 1.7 1.1
v -1.2 1.7 0.9
v -1.2 1.9 -0.6
v -1.2 1.9 -0.8
v -1.2 1.9 -1
v -1.2 2.1 -0.8
v -1.2 2.1 -1
v -1 0.1 1.1
v -1 0.1 0.9
v -1 0.7 1.1
v -1 0.7 0.9
v -1 0.9 1.1
v -1 0.9 0.9
v -1 1.5 1.1
v -1 1.5 0.9
v -0.6 2.3 -1.2
v -0.6 2.3 -1.4
v -0.6 2.5 -1.2
v -0.6 2.5 -1.4
v -0.5 1.5 -0.5
v -0.5 1.5 -0.7
v -0.5 1.7 -0.5
v -0.5 1.7 -0.7
v -0.4 0.1 1.6
v -0.4 0.1 1.4
v -0.4 0.1 -1.2
v -0.4 0.1 -1.4
v -0.4 0.5 -1.2
v -0.4 0.5 -1.4
v -0.4 0.7 1.6
v -0.4 0.7 1.4
v -0.4 0.9 1.6
v -0.4 0.9 1.4
v -0.4 1.1 -1.2
v -0.4 1.1 -1.4
v -0.4 1.5 1.6
v -0.4 1.5 1.4
v -0.4 2.3 -1.2
v -0.4 2.3 -1.4
v -0.3 0.1 -0.5
v -0.3 0.1 -0.7
v -0.3 0.5 -0.5
v -0.3 0.5 -0.7
v -0.3 0.9 -0.5
v -0.3 0.9 -0.7
v -0.3 1.5 -0.5
v -0.3 1.5 -0.7
v -0.2 0.1 0.4
v -0.2 0.1 0.2
v -0.2 0.3 0.4
v -0.2 0.3 0.2
v -0.2 0.7 0.4
v -0.2 0.7 0.2
v -0.2 2.1 0.6
v -0.2 2.1 0.4
v -0.2 2.1 0.2
v -0.2 2.3 0.6
v -0.2 2.3 0.4
v 0.7 0.1 0.6
v 0.7 0.1 0.4
v 0.7 0.1 -1
v 0.7 0.1 -1.2
v 0.7 0.5 0.6
v 0.7 0.5 0.4
v 0.7 0.9 0.6
v 0.7 0.9 0.4
v 0.7 0.9 -1
v 0.7 0.9 -1.2
v 0.7 1.1 -1
v 0.7 1.1 -1.2
v 0.7 1.5 0.8
v 0.7 1.5 0.6
v 0.7 1.5 0.4
v 0.7 1.7 0.8
v 0.7 1.7 0.6
v 0.7 2.7 -1
v 0.7 2.7 -1.2
v 0.9 2.7 -1
v 0.9 2.7 -1.2
v 0.9 2.9 -1
v 0.9 2.9 -1.2
v 1.2 0.1 1.3
v 1.2 0.1 1.1
v 1.2 0.3 1.3
v 1.2 0.3 1.1
v 1.2 0.7 1.3
v 1.2 0.7 1.1
v 1.2 2.3 1.5
v 1.2 2.3 1.3
v 1.2 2.3 1.1
v 1.2 2.5 1.5
v 1.2 2.5 1.3
v 1.3 0.1 -0.2
v 1.3 0.1 -0.4
v 1.3 0.7 -0.2
v 1.3 0.7 -0.4
v 1.3 0.9 -0.2
v 1.3 0.9 -0.4
v 1.3 1.9 -0.2
v 1.3 1.9 -0.4
v 1.5 1.9 -0.2
v 1.5 1.9 -0.4
v 1.5 2.1 -0.2
v 1.5 2.1 -0.4
v -1.3 0.1 0.2
v -1.3 0.1 0
v -1.3 0.5 0.2
v -1.3 0.5 0
v -1.3 0.9 0.2
v -1.3 0.9 0
v -1.3 1.1 0.2
v -1.3 1.1 0
v -1 0.1 -0.6
v -1 0.1 -0.8
v -1 0.5 -0.6
v -1 0.5 -0.8
v -1 0.9 -0.6
v -1 0.9 -0.8
v -1 1.5 1.1
v -1 1.5 0.9
v -1 1.7 1.1
v -1 1.7 0.9
v -1 1.9 -0.6
v -1 1.9 -0.8
v -1 1.9 -1
v -1 2.1 -0.8
v -1 2.1 -1
v -0.8 0.1 1.1
v -0.8 0.1 0.9
v -0.8 0.7 1.1
v -0.8 0.7 0.9
v -0.8 0.9 1.1
v -0.8 0.9 0.9
v -0.8 1.5 1.1
v -0.8 1.5 0.9
v -0.4 2.3 -1.2
v -0.4 2.3 -1.4
v -0.4 2.5 -1.2
v -0.4 2.5 -1.4
v -0.3 1.5 -0.5
v -0.3 1.5 -0.7
v -0.3 1.7 -0.5
v -0.3 1.7 -0.7
v -0.2 0.1 1.6
v -0.2 0.1 1.4
v -0.2 0.1 -1.2
v -0.2 0.1 -1.4
v -0.2 0.5 -1.2
v -0.2 0.5 -1.4
v -0.2 0.7 1.6
v -0.2 0.7 1.4
v -0.2 0.9 1.6
v -0.2 0.9 1.4
v -0.2 1.1 -1.2
v -0.2 1.1 -1.4
v -0.2 1.5 1.6
v -0.2 1.5 1.4
v -0.2 2.3 -1.2
v -0.2 2.3 -1.4
v -0.1 0.1 -0.5
v -0.1 0.1 -0.7
v -0.1 0.5 -0.5
v -0.1 0.5 -0.7
v -0.1 0.9 -0.5
v -0.1 0.9 -0.7
v -0.1 1.5 -0.5
v -0.1 1.5 -0.7
v 0 0.1 0.4
v 0 0.1 0.2
v 0 0.3 0.4
v 0 0.3 0.2
v 0 0.7 0.4
v 0 0.7 0.2
v 0 2.1 0.6
v 0 2.1 0.4
v 0 2.1 0.2
v 0 2.3 0.6
v 0 2.3 0.4
v 0.9 0.1 0.6
v 0.9 0.1 0.4
v 0.9 0.1 -1
v 0.9 0.1 -1.2
v 0.9 0.5 0.6
v 0.9 0.5 0.4
v 0.9 0.9 0.6
v 0.9 0.9 0.4
v 0.9 0.9 -1
v 0.9 0.9 -1.2
v 0.9 1.1 -1
v 0.9 1.1 -1.2
v 0.9 1.5 0.8
v 0.9 1.5 0.6
v 0.9 1.5 0.4
v 0.9 1.7 0.8
v 0.9 1.7 0.6
v 0.9 2.7 -1
v 0.9 2.7 -1.2
v 1.1 2.7 -1
v 1.1 2.7 -1.2
v 1.1 2.9 -1
v 1.1 2.9 -1.2
v 1.4 0.1 1.3
v 1.4 0.1 1.1
v 1.4 0.3 1.3
v 1.4 0.3 1.1
v 1.4 0.7 1.3
v 1.4 0.7 1.1
v 1.4 2.3 1.5
v 1.4 2.3 1.3
v 1.4 2.3 1.1
v 1.4 2.5 1.5
v 1.4 2.5 1.3
v 1.5 0.1 -0.2
v 1.5 0.1 -0.4
v 1.5 0.7 -0.2
v 1.5 0.7 -0.4
v 1.5 0.9 -0.2
v 1.5 0.9 -0.4
v 1.5 1.9 -0.2
v 1.5 1.9 -0.4
v 1.7 1.9 -0.2
v 1.7 1.9 -0.4
v 1.7 2.1 -0.2
v 1.7 2.1 -0.4
v -0.4 0.1 1.6
v -0.4 0.7 1.6
v -0.4 0.9 1.6
v -0.4 1.5 1.6
v -0.2 0.1 1.6
v -0.2 0.7 1.6
v -0.2 0.9 1.6
v -0.2 1.5 1.6
v 1.2 2.3 1.5
v 1.2 2.5 1.5
v 1.4 2.3 1.5
v 1.4 2.5 1.5
v 1.2 0.1 1.3
v 1.2 0.3 1.3
v 1.2 0.7 1.3
v 1.2 2.3 1.3
v 1.4 0.1 1.3
v 1.4 0.3 1.3
v 1.4 0.7 1.3
v 1.4 2.3 1.3
v -1.2 1.5 1.1
v -1.2 1.7 1.1
v -1 0.1 1.1
v -1 0.7 1.1
v -1 0.9 1.1
v -1 1.5 1.1
v -1 1.7 1.1
v -0.8 0.1 1.1
v -0.8 0.7 1.1
v -0.8 0.9 1.1
v -0.8 1.5 1.1
v 0.7 1.5 0.8
v 0.7 1.7 0.8
v 0.9 1.5 0.8
v 0.9 1.7 0.8
v -0.2 2.1 0.6
v -0.2 2.3 0.6
v 0 2.1 0.6
v 0 2.3 0.6
v 0.7 0.1 0.6
v 0.7 0.5 0.6
v 0.7 0.9 0.6
v 0.7 1.5 0.6
v 0.9 0.1 0.6
v 0.9 0.5 0.6
v 0.9 0.9 0.6
v 0.9 1.5 0.6
v -0.2 0.1 0.4
v -0.2 0.3 0.4
v -0.2 0.7 0.4
v -0.2 2.1 0.4
v 0 0.1 0.4
v 0 0.3 0.4
v 0 0.7 0.4
v 0 2.1 0.4
v -1.5 0.1 0.2
v -1.5 0.5 0.2
v -1.5 0.9 0.2
v -1.5 1.1 0.2
v -1.3 0.1 0.2
v -1.3 0.5 0.2
v -1.3 0.9 0.2
v -1.3 1.1 0.2
v 1.3 0.1 -0.2
v 1.3 0.7 -0.2
v 1.3 0.9 -0.2
v 1.3 1.9 -0.2
v 1.5 0.1 -0.2
v 1.5 0.7 -0.2
v 1.5 0.9 -0.2
v 1.5 1.9 -0.2
v 1.5 2.1 -0.2
v 1.7 1.9 -0.2
v 1.7 2.1 -0.2
v -0.5 1.5 -0.5
v -0.5 1.7 -0.5
v -0.3 0.1 -0.5
v -0.3 0.5 -0.5
v -0.3 0.9 -0.5
v -0.3 1.5 -0.5
v -0.3 1.7 -0.5
v -0.1 0.1 -0.5
v -0.1 0.5 -0.5
v -0.1 0.9 -0.5
v -0.1 1.5 -0.5
v -1.2 0.1 -0.6
v -1.2 0.5 -0.6
v -1.2 0.9 -0.6
v -1.2 1.9 -0.6
v -1 0.1 -0.6
v -1 0.5 -0.6
v -1 0.9 -0.6
v -1 1.9 -0.6
v -1.2 1.9 -0.8
v -1.2 2.1 -0.8
v -1 1.9 -0.8
v -1 2.1 -0.8
v 0.7 0.1 -1
v 0.7 0.9 -1
v 0.7 1.1 -1
v 0.7 2.7 -1
v 0.9 0.1 -1
v 0.9 0.9 -1
v 0.9 1.1 -1
v 0.9 2.7 -1
v 0.9 2.9 -1
v 1.1 2.7 -1
v 1.1 2.9 -1
v -0.6 2.3 -1.2
v -0.6 2.5 -1.2
v -0.4 0.1 -1.2
v -0.4 0.5 -1.2
v -0.4 1.1 -1.2
v -0.4 2.3 -1.2
v -0.4 2.5 -1.2
v -0.2 0.1 -1.2
v -0.2 0.5 -1.2
v -0.2 1.1 -1.2
v -0.2 2.3 -1.2
v -0.4 0.1 1.4
v -0.4 0.7 1.4
v -0.4 0.9 1.4
v -0.4 1.5 1.4
v -0.2 0.1 1.4
v -0.2 0.7 1.4
v -0.2 0.9 1.4
v -0.2 1.5 1.4
v 1.2 2.3 1.3
v 1.2 2.5 1.3
v 1.4 2.3 1.3
v 1.4 2.5 1.3
v 1.2 0.1 1.1
v 1.2 0.3 1.1
v 1.2 0.7 1.1
v 1.2 2.3 1.1
v 1.4 0.1 1.1
v 1.4 0.3 1.1
v 1.4 0.7 1.1
v 1.4 2.3 1.1
v -1.2 1.5 0.9
v -1.2 1.7 0.9
v -1 0.1 0.9
v -1 0.7 0.9
v -1 0.9 0.9
v -1 1.5 0.9
v -1 1.7 0.9
v -0.8 0.1 0.9
v -0.8 0.7 0.9
v -0.8 0.9 0.9
v -0.8 1.5 0.9
v 0.7 1.5 0.6
v 0.7 1.7 0.6
v 0.9 1.5 0.6
v 0.9 1.7 0.6
v -0.2 2.1 0.4
v -0.2 2.3 0.4
v 0 2.1 0.4
v 0 2.3 0.4
v 0.7 0.1 0.4
v 0.7 0.5 0.4
v 0.7 0.9 0.4
v 0.7 1.5 0.4
v 0.9 0.1 0.4
v 0.9 0.5 0.4
v 0.9 0.9 0.4
v 0.9 1.5 0.4
v -0.2 0.1 0.2
v -0.2 0.3 0.2
v -0.2 0.7 0.2
v -0.2 2.1 0.2
v 0 0.1 0.2
v 0 0.3 0.2
v 0 0.7 0.2
v 0 2.1 0.2
v -1.5 0.1 0
v -1.5 0.5 0
v -1.5 0.9 0
v -1.5 1.1 0
v -1.3 0.1 0
v -1.3 0.5 0
v -1.3 0.9 0
v -1.3 1.1 0
v 1.3 0.1 -0.4
v 1.3 0.7 -0.4
v 1.3 0.9 -0.4
v 1.3 1.9 -0.4
v 1.5 0.1 -0.4
v 1.5 0.7 -0.4
v 1.5 0.9 -0.4
v 1.5 1.9 -0.4
v 1.5 2.1 -0.4
v 1.7 1.9 -0.4
v 1.7 2.1 -0.4
v -0.5 1.5 -0.7
v -0.5 1.7 -0.7
v -0.3 0.1 -0.7
v -0.3 0.5 -0.7
v -0.3 0.9 -0.7
v -0.3 1.5 -0.7
v -0.3 1.7 -0.7
v -0.1 0.1 -0.7
v -0.1 0.5 -0.7
v -0.1 0.9 -0.7
v -0.1 1.5 -0.7
v -1.2 0.1 -0.8
v -1.2 0.5 -0.8
v -1.2 0.9 -0.8
v -1.2 1.9 -0.8
v -1 0.1 -0.8
v -1 0.5 -0.8
v -1 0.9 -0.8
v -1 1.9 -0.8
v -1.2 1.9 -1
v -1.2 2.1 -1
v -1 1.9 -1
v -1 2.1 -1
v 0.7 0.1 -1.2
v 0.7 0.9 -1.2
v 0.7 1.1 -1.2
v 0.7 2.7 -1.2
v 0.9 0.1 -1.2
v 0.9 0.9 -1.2
v 0.9 1.1 -1.2
v 0.9 2.7 -1.2
v 0.9 2.9 -1.2
v 1.1 2.7 -1.2
v 1.1 2.9 -1.2
v -0.6 2.3 -1.4
v -0.6 2.5 -1.4
v -0.4 0.1 -1.4
v -0.4 0.5 -1.4
v -0.4 1.1 -1.4
v -0.4 2.3 -1.4
v -0.4 2.5 -1.4
v -0.2 0.1 -1.4
v -0.2 0.5 -1.4
v -0.2 1.1 -1.4
v -0.2 2.3 -1.4
v -0.4 0.1 1.6
v -0.2 0.1 1.6
v -0.4 0.1 1.4
v -0.2 0.1 1.4
v 1.2 0.1 1.3
v 1.4 0.1 1.3
v -1 0.1 1.1
v -0.8 0.1 1.1
v 1.2 0.1 1.1
v 1.4 0.1 1.1
v -1 0.1 0.9
v -0.8 0.1 0.9
v 0.7 0.1 0.6
v 0.9 0.1 0.6
v -0.2 0.1 0.4
v 0 0.1 0.4
v 0.7 0.1 0.4
v 0.9 0.1 0.4
v -1.5 0.1 0.2
v -1.3 0.1 0.2
v -0.2 0.1 0.2
v 0 0.1 0.2
v -1.5 0.1 0
v -1.3 0.1 0
v 1.3 0.1 -0.2
v 1.5 0.1 -0.2
v 1.3 0.1 -0.4
v 1.5 0.1 -0.4
v -0.3 0.1 -0.5
v -0.1 0.1 -0.5
v -1.2 0.1 -0.6
v -1 0.1 -0.6
v -0.3 0.1 -0.7
v -0.1 0.1 -0.7
v -1.2 0.1 -0.8
v -1 0.1 -0.8
v 0.7 0.1 -1
v 0.9 0.1 -1
v -0.4 0.1 -1.2
v -0.2 0.1 -1.2
v 0.7 0.1 -1.2
v 0.9 0.1 -1.2
v -0.4 0.1 -1.4
v -0.2 0.1 -1.4
v -1.2 1.5 1.1
v -1 1.5 1.1
v -1.2 1.5 0.9
v -1 1.5 0.9
v 0.7 1.5 0.8
v 0.9 1.5 0.8
v 0.7 1.5 0.6
v 0.9 1.5 0.6
v -0.5 1.5 -0.5
v -0.3 1.5 -0.5
v -0.5 1.5 -0.7
v -0.3 1.5 -0.7
v 1.5 1.9 -0.2
v 1.7 1.9 -0.2
v 1.5 1.9 -0.4
v 1.7 1.9 -0.4
v -1.2 1.9 -0.8
v -1 1.9 -0.8
v -1.2 1.9 -1
v -1 1.9 -1
v -0.2 2.1 0.6
v 0 2.1 0.6
v -0.2 2.1 0.4
v 0 2.1 0.4
v 1.2 2.3 1.5
v 1.4 2.3 1.5
v 1.2 2.3 1.3
v 1.4 2.3 1.3
v -0.6 2.3 -1.2
v -0.4 2.3 -1.2
v -0.6 2.3 -1.4
v -0.4 2.3 -1.4
v 0.9 2.7 -1
v 1.1 2.7 -1
v 0.9 2.7 -1.2
v 1.1 2.7 -1.2
v -1.5 1.1 0.2
v -1.3 1.1 0.2
v -1.5 1.1 0
v -1.3 1.1 0
v -0.4 1.5 1.6
v -0.2 1.5 1.6
v -0.4 1.5 1.4
v -0.2 1.5 1.4
v -1 1.5 1.1
v -0.8 1.5 1.1
v -1 1.5 0.9
v -0.8 1.5 0.9
v 0.7 1.5 0.6
v 0.9 1.5 0.6
v 0.7 1.5 0.4
v 0.9 1.5 0.4
v -0.3 1.5 -0.5
v -0.1 1.5 -0.5
v -0.3 1.5 -0.7
v -0.1 1.5 -0.7
v -1.2 1.7 1.1
v -1 1.7 1.1
v -1.2 1.7 0.9
v -1 1.7 0.9
v 0.7 1.7 0.8
v 0.9 1.7 0.8
v 0.7 1.7 0.6
v 0.9 1.7 0.6
v -0.5 1.7 -0.5
v -0.3 1.7 -0.5
v -0.5 1.7 -0.7
v -0.3 1.7 -0.7
v 1.3 1.9 -0.2
v 1.5 1.9 -0.2
v 1.3 1.9 -0.4
v 1.5 1.9 -0.4
v -1.2 1.9 -0.6
v -1 1.9 -0.6
v -1.2 1.9 -0.8
v -1 1.9 -0.8
v -0.2 2.1 0.4
v 0 2.1 0.4
v -0.2 2.1 0.2
v 0 2.1 0.2
v 1.5 2.1 -0.2
v 1.7 2.1 -0.2
v 1.5 2.1 -0.4
v 1.7 2.1 -0.4
v -1.2 2.1 -0.8
v -1 2.1 -0.8
v -1.2 2.1 -1
v -1 2.1 -1
v 1.2 2.3 1.3
v 1.4 2.3 1.3
v 1.2 2.3 1.1
v 1.4 2.3 1.1
v -0.2 2.3 0.6
v 0 2.3 0.6
v -0.2 2.3 0.4
v 0 2.3 0.4
v -0.4 2.3 -1.2
v -0.2 2.3 -1.2
v -0.4 2.3 -1.4
v -0.2 2.3 -1.4
v 1.2 2.5 1.5
v 1.4 2.5 1.5
v 1.2 2.5 1.3
v 1.4 2.5 1.3
v -0.6 2.5 -1.2
v -0.4 2.5 -1.2
v -0.6 2.5 -1.4
v -0.4 2.5 -1.4
v 0.7 2.7 -1
v 0.9 2.7 -1
v 0.7 2.7 -1.2
v 0.9 2.7 -1.2
v 0.9 2.9 -1
v 1.1 2.9 -1
v 0.9 2.9 -1.2
v 1.1 2.9 -1.2

# faces
f 3/3/1 2/3/1 1/3/1
f 4/3/1 2/3/1 3/3/1
f 5/2/1 4/2/1 3/2/1
f 6/2/1 4/2/1 5/2/1
f 7/1/1 6/1/1 5/1/1
f 8/1/1 6/1/1 7/1/1
f 11/3/1 10/3/1 9/3/1
f 12/3/1 10/3/1 11/3/1
f 13/2/1 12/2/1 11/2/1
f 14/2/1 12/2/1 13/2/1
f 17/1/1 16/1/1 15/1/1
f 18/1/1 16/1/1 17/1/1
f 19/1/1 14/1/1 13/1/1
f 20/1/1 14/1/1 19/1/1
f 22/1/1 21/1/1 20/1/1
f 23/1/1 21/1/1 22/1/1
f 26/3/1 25/3/1 24/3/1
f 27/3/1 25/3/1 26/3/1
f 28/2/1 27/2/1 26/2/1
f 29/2/1 27/2/1 28/2/1
f 30/1/1 29/1/1 28/1/1
f 31/1/1 29/1/1 30/1/1
f 34/1/1 33/1/1 32/1/1
f 35/1/1 33/1/1 34/1/1
f 38/1/1 37/1/1 36/1/1
f 39/1/1 37/1/1 38/1/1
f 44/3/1 43/3/1 42/3/1
f 45/3/1 43/3/1 44/3/1
f 46/3/1 41/3/1 40/3/1
f 47/3/1 41/3/1 46/3/1
f 48/2/1 47/2/1 46/2/1
f 49/2/1 47/2/1 48/2/1
f 50/2/1 45/2/1 44/2/1
f 51/2/1 45/2/1 50/2/1
f 52/1/1 49/1/1 48/1/1
f 53/1/1 49/1/1 52/1/1
f 54/1/1 51/1/1 50/1/1
f 55/1/1 51/1/1 54/1/1
f 58/3/1 57/3/1 56/3/1
f 59/3/1 57/3/1 58/3/1
f 60/2/1 59/2/1 58/2/1
f 61/2/1 59/2/1 60/2/1
f 62/1/1 61/1/1 60/1/1
f 63/1/1 61/1/1 62/1/1
f 66/3/1 65/3/1 64/3/1
f 67/3/1 65/3/1 66/3/1
f 68/2/1 67/2/1 66/2/1
f 69/2/1 67/2/1 68/2/1
f 71/1/1 69/1/1 68/1/1
f 72/1/1 69/1/1 71/1/1
f 73/1/1 71/1/1 70/1/1
f 74/1/1 71/1/1 73/1/1
f 79/3/1 76/3/1 75/3/1
f 80/3/1 76/3/1 79/3/1
f 81/2/1 80/2/1 79/2/1
f 82/2/1 80/2/1 81/2/1
f 83/3/1 78/3/1 77/3/1
f 84/3/1 78/3/1 83/3/1
f 85/2/1 84/2/1 83/2/1
f 86/2/1 84/2/1 85/2/1
f 88/1/1 82/1/1 81/1/1
f 89/1/1 82/1/1 88/1/1
f 90/1/1 88/1/1 87/1/1
f 91/1/1 88/1/1 90/1/1
f 92/1/1 86/1/1 85/1/1
f 93/1/1 86/1/1 92/1/1
f 96/1/1 95/1/1 94/1/1
f 97/1/1 95/1/1 96/1/1
f 100/3/1 99/3/1 98/3/1
f 101/3/1 99/3/1 100/3/1
f 102/2/1 101/2/1 100/2/1
f 103/2/1 101/2/1 102/2/1
f 105/1/1 103/1/1 102/1/1
f 106/1/1 103/1/1 105/1/1
f 107/1/1 105/1/1 104/1/1
f 108/1/1 105/1/1 107/1/1
f 111/3/1 110/3/1 109/3/1
f 112/3/1 110/3/1 111/3/1
f 113/2/1 112/2/1 111/2/1
f 114/2/1 112/2/1 113/2/1
f 115/1/1 114/1/1 113/1/1
f 116/1/1 114/1/1 115/1/1
f 119/1/1 118/1/1 117/1/1
f 120/1/1 118/1/1 119/1/1
f 121/3/2 122/3/2 123/3/2
f 123/3/2 122/3/2 124/3/2
f 123/2/2 124/2/2 125/2/2
f 125/2/2 124/2/2 126/2/2
f 125/1/2 126/1/2 127/1/2
f 127/1/2 126/1/2 128/1/2
f 129/3/2 130/3/2 131/3/2
f 131/3/2 130/3/2 132/3/2
f 131/2/2 132/2/2 133/2/2
f 133/2/2 132/2/2 134/2/2
f 135/1/2 136/1/2 137/1/2
f 137/1/2 136/1/2 138/1/2
f 133/1/2 134/1/2 139/1/2
f 139/1/2 134/1/2 140/1/2
f 140/1/2 141/1/2 142/1/2
f 142/1/2 141/1/2 143/1/2
f 144/3/2 145/3/2 146/3/2
f 146/3/2 145/3/2 147/3/2
f 146/2/2 147/2/2 148/2/2
f 148/2/2 147/2/2 149/2/2
f 148/1/2 149/1/2 150/1/2
f 150/1/2 149/1/2 151/1/2
f 152/1/2 153/1/2 154/1/2
f 154/1/2 153/1/2 155/1/2
f 156/1/2 157/1/2 158/1/2
f 158/1/2 157/1/2 159/1/2
f 162/3/2 163/3/2 164/3/2
f 164/3/2 163/3/2 165/3/2
f 160/3/2 161/3/2 166/3/2
f 166/3/2 161/3/2 167/3/2
f 166/2/2 167/2/2 168/2/2
f 168/2/2 167/2/2 169/2/2
f 164/2/2 165/2/2 170/2/2
f 170/2/2 165/2/2 171/2/2
f 168/1/2 169/1/2 172/1/2
f 172/1/2 169/1/2 173/1/2
f 170/1/2 171/1/2 174/1/2
f 174/1/2 171/1/2 175/1/2
f 176/3/2 177/3/2 178/3/2
f 178/3/2 177/3/2 179/3/2
f 178/2/2 179/2/2 180/2/2
f 180/2/2 179/2/2 181/2/2
f 180/1/2 181/1/2 182/1/2
f 182/1/2 181/1/2 183/1/2
f 184/3/2 185/3/2 186/3/2
f 186/3/2 185/3/2 187/3/2
f 186/2/2 187/2/2 188/2/2
f 188/2/2 187/2/2 189/2/2
f 188/1/2 189/1/2 191/1/2
f 191/1/2 189/1/2 192/1/2
f 190/1/2 191/1/2 193/1/2
f 193/1/2 191/1/2 194/1/2
f 195/3/2 196/3/2 199/3/2
f 199/3/2 196/3/2 200/3/2
f 199/2/2 200/2/2 201/2/2
f 201/2/2 200/2/2 202/2/2
f 197/3/2 198/3/2 203/3/2
f 203/3/2 198/3/2 204/3/2
f 203/2/2 204/2/2 205/2/2
f 205/2/2 204/2/2 206/2/2
f 201/1/2 202/1/2 208/1/2
f 208/1/2 202/1/2 209/1/2
f 207/1/2 208/1/2 210/1/2
f 210/1/2 208/1/2 211/1/2
f 205/1/2 206/1/2 212/1/2
f 212/1/2 206/1/2 213/1/2
f 214/1/2 215/1/2 216/1/2
f 216/1/2 215/1/2 217/1/2
f 218/3/2 219/3/2 220/3/2
f 220/3/2 219/3/2 221/3/2
f 220/2/2 221/2/2 222/2/2
f 222/2/2 221/2/2 223/2/2
f 222/1/2 223/1/2 225/1/2
f 225/1/2 223/1/2 226/1/2
f 224/1/2 225/1/2 227/1/2
f 227/1/2 225/1/2 228/1/2
f 229/3/2 230/3/2 231/3/2
f 231/3/2 230/3/2 232/3/2
f 231/2/2 232/2/2 233/2/2
f 233/2/2 232/2/2 234/2/2
f 233/1/2 234/1/2 235/1/2
f 235/1/2 234/1/2 236/1/2
f 237/1/2 238/1/2 239/1/2
f 239/1/2 238/1/2 240/1/2
f 245/3/3 242/3/3 241/3/3
f 246/2/3 243/2/3 242/2/3
f 246/3/3 242/3/3 245/3/3
f 247/1/3 244/1/3 243/1/3
f 247/2/3 243/2/3 246/2/3
f 248/1/3 244/1/3 247/1/3
f 251/1/3 250/1/3 249/1/3
f 252/1/3 250/1/3 251/1/3
f 257/3/3 254/3/3 253/3/3
f 258/2/3 255/2/3 254/2/3
f 258/3/3 254/3/3 257/3/3
f 259/1/3 256/1/3 255/1/3
f 259/2/3 255/2/3 258/2/3
f 260/1/3 256/1/3 259/1/3
f 266/1/3 262/1/3 261/1/3
f 267/1/3 262/1/3 266/1/3
f 268/3/3 264/3/3 263/3/3
f 269/2/3 265/2/3 264/2/3
f 269/3/3 264/3/3 268/3/3
f 270/1/3 266/1/3 265/1/3
f 270/2/3 265/2/3 269/2/3
f 271/1/3 266/1/3 270/1/3
f 274/1/3 273/1/3 272/1/3
f 275/1/3 273/1/3 274/1/3
f 278/1/3 277/1/3 276/1/3
f 279/1/3 277/1/3 278/1/3
f 284/3/3 281/3/3 280/3/3
f 285/2/3 282/2/3 281/2/3
f 285/3/3 281/3/3 284/3/3
f 286/1/3 283/1/3 282/1/3
f 286/2/3 282/2/3 285/2/3
f 287/1/3 283/1/3 286/1/3
f 292/3/3 289/3/3 288/3/3
f 293/2/3 290/2/3 289/2/3
f 293/3/3 289/3/3 292/3/3
f 294/1/3 291/1/3 290/1/3
f 294/2/3 290/2/3 293/2/3
f 295/1/3 291/1/3 294/1/3
f 300/3/3 297/3/3 296/3/3
f 301/2/3 298/2/3 297/2/3
f 301/3/3 297/3/3 300/3/3
f 302/1/3 299/1/3 298/1/3
f 302/2/3 298/2/3 301/2/3
f 303/1/3 299/1/3 302/1/3
f 308/3/3 305/3/3 304/3/3
f 309/2/3 306/2/3 305/2/3
f 309/3/3 305/3/3 308/3/3
f 310/1/3 307/1/3 306/1/3
f 310/2/3 306/2/3 309/2/3
f 311/1/3 307/1/3 310/1/3
f 313/1/3 312/1/3 311/1/3
f 314/1/3 312/1/3 313/1/3
f 320/1/3 316/1/3 315/1/3
f 321/1/3 316/1/3 320/1/3
f 322/3/3 318/3/3 317/3/3
f 323/2/3 319/2/3 318/2/3
f 323/3/3 318/3/3 322/3/3
f 324/1/3 320/1/3 319/1/3
f 324/2/3 319/2/3 323/2/3
f 325/1/3 320/1/3 324/1/3
f 330/3/3 327/3/3 326/3/3
f 331/2/3 328/2/3 327/2/3
f 331/3/3 327/3/3 330/3/3
f 332/1/3 329/1/3 328/1/3
f 332/2/3 328/2/3 331/2/3
f 333/1/3 329/1/3 332/1/3
f 336/1/3 335/1/3 334/1/3
f 337/1/3 335/1/3 336/1/3
f 342/3/3 339/3/3 338/3/3
f 343/2/3 340/2/3 339/2/3
f 343/3/3 339/3/3 342/3/3
f 344/1/3 341/1/3 340/1/3
f 344/2/3 340/2/3 343/2/3
f 345/1/3 341/1/3 344/1/3
f 347/1/3 346/1/3 345/1/3
f 348/1/3 346/1/3 347/1/3
f 354/1/3 350/1/3 349/1/3
f 355/1/3 350/1/3 354/1/3
f 356/3/3 352/3/3 351/3/3
f 357/2/3 353/2/3 352/2/3
f 357/3/3 352/3/3 356/3/3
f 358/1/3 354/1/3 353/1/3
f 358/2/3 353/2/3 357/2/3
f 359/1/3 354/1/3 358/1/3
f 360/3/4 361/3/4 364/3/4
f 361/2/4 362/2/4 365/2/4
f 364/3/4 361/3/4 365/3/4
f 362/1/4 363/1/4 366/1/4
f 365/2/4 362/2/4 366/2/4
f 366/1/4 363/1/4 367/1/4
f 368/1/4 369/1/4 370/1/4
f 370/1/4 369/1/4 371/1/4
f 372/3/4 373/3/4 376/3/4
f 373/2/4 374/2/4 377/2/4
f 376/3/4 373/3/4 377/3/4
f 374/1/4 375/1/4 378/1/4
f 377/2/4 374/2/4 378/2/4
f 378/1/4 375/1/4 379/1/4
f 380/1/4 381/1/4 385/1/4
f 385/1/4 381/1/4 386/1/4
f 382/3/4 383/3/4 387/3/4
f 383/2/4 384/2/4 388/2/4
f 387/3/4 383/3/4 388/3/4
f 384/1/4 385/1/4 389/1/4
f 388/2/4 384/2/4 389/2/4
f 389/1/4 385/1/4 390/1/4
f 391/1/4 392/1/4 393/1/4
f 393/1/4 392/1/4 394/1/4
f 395/1/4 396/1/4 397/1/4
f 397/1/4 396/1/4 398/1/4
f 399/3/4 400/3/4 403/3/4
f 400/2/4 401/2/4 404/2/4
f 403/3/4 400/3/4 404/3/4
f 401/1/4 402/1/4 405/1/4
f 404/2/4 401/2/4 405/2/4
f 405/1/4 402/1/4 406/1/4
f 407/3/4 408/3/4 411/3/4
f 408/2/4 409/2/4 412/2/4
f 411/3/4 408/3/4 412/3/4
f 409/1/4 410/1/4 413/1/4
f 412/2/4 409/2/4 413/2/4
f 413/1/4 410/1/4 414/1/4
f 415/3/4 416/3/4 419/3/4
f 416/2/4 417/2/4 420/2/4
f 419/3/4 416/3/4 420/3/4
f 417/1/4 418/1/4 421/1/4
f 420/2/4 417/2/4 421/2/4
f 421/1/4 418/1/4 422/1/4
f 423/3/4 424/3/4 427/3/4
f 424/2/4 425/2/4 428/2/4
f 427/3/4 424/3/4 428/3/4
f 425/1/4 426/1/4 429/1/4
f 428/2/4 425/2/4 429/2/4
f 429/1/4 426/1/4 430/1/4
f 430/1/4 431/1/4 432/1/4
f 432/1/4 431/1/4 433/1/4
f 434/1/4 435/1/4 439/1/4
f 439/1/4 435/1/4 440/1/4
f 436/3/4 437/3/4 441/3/4
f 437/2/4 438/2/4 442/2/4
f 441/3/4 437/3/4 442/3/4
f 438/1/4 439/1/4 443/1/4
f 442/2/4 438/2/4 443/2/4
f 443/1/4 439/1/4 444/1/4
f 445/3/4 446/3/4 449/3/4
f 446/2/4 447/2/4 450/2/4
f 449/3/4 446/3/4 450/3/4
f 447/1/4 448/1/4 451/1/4
f 450/2/4 447/2/4 451/2/4
f 451/1/4 448/1/4 452/1/4
f 453/1/4 454/1/4 455/1/4
f 455/1/4 454/1/4 456/1/4
f 457/3/4 458/3/4 461/3/4
f 458/2/4 459/2/4 462/2/4
f 461/3/4 458/3/4 462/3/4
f 459/1/4 460/1/4 463/1/4
f 462/2/4 459/2/4 463/2/4
f 463/1/4 460/1/4 464/1/4
f 464/1/4 465/1/4 466/1/4
f 466/1/4 465/1/4 467/1/4
f 468/1/4 469/1/4 473/1/4
f 473/1/4 469/1/4 474/1/4
f 470/3/4 471/3/4 475/3/4
f 471/2/4 472/2/4 476/2/4
f 475/3/4 471/3/4 476/3/4
f 472/1/4 473/1/4 477/1/4
f 476/2/4 472/2/4 477/2/4
f 477/1/4 473/1/4 478/1/4
f 481/3/5 480/3/5 479/3/5
f 482/3/5 480/3/5 481/3/5
f 487/3/5 484/3/5 483/3/5
f 488/3/5 484/3/5 487/3/5
f 489/3/5 486/3/5 485/3/5
f 490/3/5 486/3/5 489/3/5
f 495/3/5 492/3/5 491/3/5
f 496/3/5 492/3/5 495/3/5
f 499/3/5 494/3/5 493/3/5
f 500/3/5 494/3/5 499/3/5
f 501/3/5 498/3/5 497/3/5
f 502/3/5 498/3/5 501/3/5
f 505/3/5 504/3/5 503/3/5
f 506/3/5 504/3/5 505/3/5
f 511/3/5 508/3/5 507/3/5
f 512/3/5 508/3/5 511/3/5
f 513/3/5 510/3/5 509/3/5
f 514/3/5 510/3/5 513/3/5
f 519/3/5 516/3/5 515/3/5
f 520/3/5 516/3/5 519/3/5
f 521/3/5 518/3/5 517/3/5
f 522/3/5 518/3/5 521/3/5
f 525/1/5 524/1/5 523/1/5
f 526/1/5 524/1/5 525/1/5
f 529/1/5 528/1/5 527/1/5
f 530/1/5 528/1/5 529/1/5
f 533/1/5 532/1/5 531/1/5
f 534/1/5 532/1/5 533/1/5
f 537/1/5 536/1/5 535/1/5
f 538/1/5 536/1/5 537/1/5
f 541/1/5 540/1/5 539/1/5
f 542/1/5 540/1/5 541/1/5
f 545/1/5 544/1/5 543/1/5
f 546/1/5 544/1/5 545/1/5
f 549/1/5 548/1/5 547/1/5
f 550/1/5 548/1/5 549/1/5
f 553/1/5 552/1/5 551/1/5
f 554/1/5 552/1/5 553/1/5
f 557/1/5 556/1/5 555/1/5
f 558/1/5 556/1/5 557/1/5
f 559/1/6 560/1/6 561/1/6
f 561/1/6 560/1/6 562/1/6
f 563/1/6 564/1/6 565/1/6
f 565/1/6 564/1/6 566/1/6
f 567/1/6 568/1/6 569/1/6
f 569/1/6 568/1/6 570/1/6
f 571/1/6 572/1/6 573/1/6
f 573/1/6 572/1/6 574/1/6
f 575/1/6 576/1/6 577/1/6
f 577/1/6 576/1/6 578/1/6
f 579/1/6 580/1/6 581/1/6
f 581/1/6 580/1/6 582/1/6
f 583/1/6 584/1/6 585/1/6
f 585/1/6 584/1/6 586/1/6
f 587/1/6 588/1/6 589/1/6
f 589/1/6 588/1/6 590/1/6
f 591/1/6 592/1/6 593/1/6
f 593/1/6 592/1/6 594/1/6
f 595/1/6 596/1/6 597/1/6
f 597/1/6 596/1/6 598/1/6
f 599/1/6 600/1/6 601/1/6
f 601/1/6 600/1/6 602/1/6
f 603/1/6 604/1/6 605/1/6
f 605/1/6 604/1/6 606/1/6
f 607/1/6 608/1/6 609/1/6
f 609/1/6 608/1/6 610/1/6
f 611/1/6 612/1/6 613/1/6
f 613/1/6 612/1/6 614/1/6
f 615/1/6 616/1/6 617/1/6
f 617/1/6 616/1/6 618/1/6
f 619/1/6 620/1/6 621/1/6
f 621/1/6 620/1/6 622/1/6
f 623/1/6 624/1/6 625/1/6
f 625/1/6 624/1/6 626/1/6
f 627/1/6 628/1/6 629/1/6
f 629/1/6 628/1/6 630/1/6
f 631/1/6 632/1/6 633/1/6
f 633/1/6 632/1/6 634/1/6
f 635/1/6 636/1/6 637/1/6
f 637/1/6 636/1/6 638/1/6
