# MagicaVoxel @ Ephtracy

# group
o carrot_1

# material
mtllib wheat_4-0-carrot_1.mtl
usemtl palette

# normals
vn -1 0 0
vn 1 0 0
vn 0 0 1
vn 0 0 -1
vn 0 -1 0
vn 0 1 0

# texcoords
vt 0.810547 0.5
vt 0.833984 0.5
vt 0.837891 0.5
vt 0.841797 0.5
vt 0.978516 0.5

# verts
v -1.3 0.1 -0.2
v -1.3 0.1 -0.4
v -1.3 0.5 -0.2
v -1.3 0.5 -0.4
v -1.3 1.3 -0.2
v -1.3 1.3 -0.4
v -1.3 1.5 -0.2
v -1.3 1.5 -0.4
v -1.3 1.7 -0.2
v -1.3 1.7 -0.4
v -1.1 0.1 0.9
v -1.1 0.1 0.7
v -1.1 0.5 0.9
v -1.1 0.5 0.7
v -1.1 0.7 0.9
v -1.1 0.7 0.7
v -1.1 1.1 0.9
v -1.1 1.1 0.7
v -1.1 1.3 0.9
v -1.1 1.3 0.7
v -1.1 1.5 0.9
v -1.1 1.5 0.7
v -0.9 1.9 -1.1
v -0.9 1.9 -1.3
v -0.9 2.1 -1.1
v -0.9 2.1 -1.3
v -0.7 0.1 -1.1
v -0.7 0.1 -1.3
v -0.7 0.5 -1.1
v -0.7 0.5 -1.3
v -0.7 0.7 -1.1
v -0.7 0.7 -1.3
v -0.7 1.5 -1.1
v -0.7 1.5 -1.3
v -0.7 1.7 -1.1
v -0.7 1.7 -1.3
v -0.7 1.9 -1.1
v -0.7 1.9 -1.3
v -0.6 0.1 -0.2
v -0.6 0.1 -0.4
v -0.6 0.3 -0.2
v -0.6 0.3 -0.4
v -0.6 0.5 -0.2
v -0.6 0.5 -0.4
v -0.6 0.7 -0.2
v -0.6 0.7 -0.4
v -0.6 0.9 -0.2
v -0.6 0.9 -0.4
v -1.19209e-07 0.1 1.6
v -1.19209e-07 0.1 1.4
v -1.19209e-07 0.5 1.6
v -1.19209e-07 0.5 1.4
v -1.19209e-07 0.7 1.6
v -1.19209e-07 0.7 1.4
v -1.19209e-07 1.1 1.6
v -1.19209e-07 1.1 1.4
v -1.19209e-07 1.3 1.6
v -1.19209e-07 1.3 1.4
v -1.19209e-07 1.5 1.6
v -1.19209e-07 1.5 1.4
v 0.0999999 0.1 0.8
v 0.0999999 0.1 0.6
v 0.0999999 0.5 0.8
v 0.0999999 0.5 0.6
v 0.0999999 1.1 0.8
v 0.0999999 1.1 0.6
v 0.0999999 1.3 0.8
v 0.0999999 1.3 0.6
v 0.0999999 1.5 0.8
v 0.0999999 1.5 0.6
v 0.0999999 1.7 1
v 0.0999999 1.7 0.8
v 0.0999999 1.7 0.6
v 0.0999999 1.9 1
v 0.0999999 1.9 0.8
v 0.2 0.1 -0.8
v 0.2 0.1 -1
v 0.2 0.7 -0.8
v 0.2 0.7 -1
v 0.2 0.9 -0.8
v 0.2 0.9 -1
v 0.2 1.7 -0.8
v 0.2 1.7 -1
v 0.2 1.9 -0.8
v 0.2 1.9 -1
v 0.2 2.3 -0.8
v 0.2 2.3 -1
v 0.4 2.3 -0.8
v 0.4 2.3 -1
v 0.4 2.5 -0.8
v 0.4 2.5 -1
v 0.8 0.1 -0.2
v 0.8 0.1 -0.4
v 0.8 0.3 -0.2
v 0.8 0.3 -0.4
v 0.8 0.5 -0.2
v 0.8 0.5 -0.4
v 0.8 1.1 -0.2
v 0.8 1.1 -0.4
v 0.8 1.3 -0.2
v 0.8 1.3 -0.4
v 0.8 1.5 -0.2
v 0.8 1.5 -0.4
v 1 1.5 -0.2
v 1 1.5 -0.4
v 1 1.7 -0.2
v 1 1.7 -0.4
v 1.1 0.1 1.1
v 1.1 0.1 0.9
v 1.1 0.5 1.1
v 1.1 0.5 0.9
v 1.1 0.7 1.1
v 1.1 0.7 0.9
v 1.1 1.5 1.1
v 1.1 1.5 0.9
v 1.1 1.7 1.1
v 1.1 1.7 0.9
v 1.1 1.9 1.3
v 1.1 1.9 1.1
v 1.1 1.9 0.9
v 1.1 2.1 1.3
v 1.1 2.1 1.1
v -1.1 0.1 -0.2
v -1.1 0.1 -0.4
v -1.1 0.5 -0.2
v -1.1 0.5 -0.4
v -1.1 1.3 -0.2
v -1.1 1.3 -0.4
v -1.1 1.5 -0.2
v -1.1 1.5 -0.4
v -1.1 1.7 -0.2
v -1.1 1.7 -0.4
v -0.9 0.1 0.9
v -0.9 0.1 0.7
v -0.9 0.5 0.9
v -0.9 0.5 0.7
v -0.9 0.7 0.9
v -0.9 0.7 0.7
v -0.9 1.1 0.9
v -0.9 1.1 0.7
v -0.9 1.3 0.9
v -0.9 1.3 0.7
v -0.9 1.5 0.9
v -0.9 1.5 0.7
v -0.7 1.9 -1.1
v -0.7 1.9 -1.3
v -0.7 2.1 -1.1
v -0.7 2.1 -1.3
v -0.5 0.1 -1.1
v -0.5 0.1 -1.3
v -0.5 0.5 -1.1
v -0.5 0.5 -1.3
v -0.5 0.7 -1.1
v -0.5 0.7 -1.3
v -0.5 1.5 -1.1
v -0.5 1.5 -1.3
v -0.5 1.7 -1.1
v -0.5 1.7 -1.3
v -0.5 1.9 -1.1
v -0.5 1.9 -1.3
v -0.4 0.1 -0.2
v -0.4 0.1 -0.4
v -0.4 0.3 -0.2
v -0.4 0.3 -0.4
v -0.4 0.5 -0.2
v -0.4 0.5 -0.4
v -0.4 0.7 -0.2
v -0.4 0.7 -0.4
v -0.4 0.9 -0.2
v -0.4 0.9 -0.4
v 0.2 0.1 1.6
v 0.2 0.1 1.4
v 0.2 0.5 1.6
v 0.2 0.5 1.4
v 0.2 0.7 1.6
v 0.2 0.7 1.4
v 0.2 1.1 1.6
v 0.2 1.1 1.4
v 0.2 1.3 1.6
v 0.2 1.3 1.4
v 0.2 1.5 1.6
v 0.2 1.5 1.4
v 0.3 0.1 0.8
v 0.3 0.1 0.6
v 0.3 0.5 0.8
v 0.3 0.5 0.6
v 0.3 1.1 0.8
v 0.3 1.1 0.6
v 0.3 1.3 0.8
v 0.3 1.3 0.6
v 0.3 1.5 0.8
v 0.3 1.5 0.6
v 0.3 1.7 1
v 0.3 1.7 0.8
v 0.3 1.7 0.6
v 0.3 1.9 1
v 0.3 1.9 0.8
v 0.4 0.1 -0.8
v 0.4 0.1 -1
v 0.4 0.7 -0.8
v 0.4 0.7 -1
v 0.4 0.9 -0.8
v 0.4 0.9 -1
v 0.4 1.7 -0.8
v 0.4 1.7 -1
v 0.4 1.9 -0.8
v 0.4 1.9 -1
v 0.4 2.3 -0.8
v 0.4 2.3 -1
v 0.6 2.3 -0.8
v 0.6 2.3 -1
v 0.6 2.5 -0.8
v 0.6 2.5 -1
v 1 0.1 -0.2
v 1 0.1 -0.4
v 1 0.3 -0.2
v 1 0.3 -0.4
v 1 0.5 -0.2
v 1 0.5 -0.4
v 1 1.1 -0.2
v 1 1.1 -0.4
v 1 1.3 -0.2
v 1 1.3 -0.4
v 1 1.5 -0.2
v 1 1.5 -0.4
v 1.2 1.5 -0.2
v 1.2 1.5 -0.4
v 1.2 1.7 -0.2
v 1.2 1.7 -0.4
v 1.3 0.1 1.1
v 1.3 0.1 0.9
v 1.3 0.5 1.1
v 1.3 0.5 0.9
v 1.3 0.7 1.1
v 1.3 0.7 0.9
v 1.3 1.5 1.1
v 1.3 1.5 0.9
v 1.3 1.7 1.1
v 1.3 1.7 0.9
v 1.3 1.9 1.3
v 1.3 1.9 1.1
v 1.3 1.9 0.9
v 1.3 2.1 1.3
v 1.3 2.1 1.1
v -1.19209e-07 0.1 1.6
v -1.19209e-07 0.5 1.6
v -1.19209e-07 0.7 1.6
v -1.19209e-07 1.1 1.6
v -1.19209e-07 1.3 1.6
v -1.19209e-07 1.5 1.6
v 0.2 0.1 1.6
v 0.2 0.5 1.6
v 0.2 0.7 1.6
v 0.2 1.1 1.6
v 0.2 1.3 1.6
v 0.2 1.5 1.6
v 1.1 1.9 1.3
v 1.1 2.1 1.3
v 1.3 1.9 1.3
v 1.3 2.1 1.3
v 1.1 0.1 1.1
v 1.1 0.5 1.1
v 1.1 0.7 1.1
v 1.1 1.5 1.1
v 1.1 1.7 1.1
v 1.1 1.9 1.1
v 1.3 0.1 1.1
v 1.3 0.5 1.1
v 1.3 0.7 1.1
v 1.3 1.5 1.1
v 1.3 1.7 1.1
v 1.3 1.9 1.1
v 0.0999999 1.7 1
v 0.0999999 1.9 1
v 0.3 1.7 1
v 0.3 1.9 1
v -1.1 0.1 0.9
v -1.1 0.5 0.9
v -1.1 0.7 0.9
v -1.1 1.1 0.9
v -1.1 1.3 0.9
v -1.1 1.5 0.9
v -0.9 0.1 0.9
v -0.9 0.5 0.9
v -0.9 0.7 0.9
v -0.9 1.1 0.9
v -0.9 1.3 0.9
v -0.9 1.5 0.9
v 0.0999999 0.1 0.8
v 0.0999999 0.5 0.8
v 0.0999999 1.1 0.8
v 0.0999999 1.3 0.8
v 0.0999999 1.5 0.8
v 0.0999999 1.7 0.8
v 0.3 0.1 0.8
v 0.3 0.5 0.8
v 0.3 1.1 0.8
v 0.3 1.3 0.8
v 0.3 1.5 0.8
v 0.3 1.7 0.8
v -1.3 0.1 -0.2
v -1.3 0.5 -0.2
v -1.3 1.3 -0.2
v -1.3 1.5 -0.2
v -1.3 1.7 -0.2
v -1.1 0.1 -0.2
v -1.1 0.5 -0.2
v -1.1 1.3 -0.2
v -1.1 1.5 -0.2
v -1.1 1.7 -0.2
v -0.6 0.1 -0.2
v -0.6 0.3 -0.2
v -0.6 0.5 -0.2
v -0.6 0.7 -0.2
v -0.6 0.9 -0.2
v -0.4 0.1 -0.2
v -0.4 0.3 -0.2
v -0.4 0.5 -0.2
v -0.4 0.7 -0.2
v -0.4 0.9 -0.2
v 0.8 0.1 -0.2
v 0.8 0.3 -0.2
v 0.8 0.5 -0.2
v 0.8 1.1 -0.2
v 0.8 1.3 -0.2
v 0.8 1.5 -0.2
v 1 0.1 -0.2
v 1 0.3 -0.2
v 1 0.5 -0.2
v 1 1.1 -0.2
v 1 1.3 -0.2
v 1 1.5 -0.2
v 1 1.7 -0.2
v 1.2 1.5 -0.2
v 1.2 1.7 -0.2
v 0.2 0.1 -0.8
v 0.2 0.7 -0.8
v 0.2 0.9 -0.8
v 0.2 1.7 -0.8
v 0.2 1.9 -0.8
v 0.2 2.3 -0.8
v 0.4 0.1 -0.8
v 0.4 0.7 -0.8
v 0.4 0.9 -0.8
v 0.4 1.7 -0.8
v 0.4 1.9 -0.8
v 0.4 2.3 -0.8
v 0.4 2.5 -0.8
v 0.6 2.3 -0.8
v 0.6 2.5 -0.8
v -0.9 1.9 -1.1
v -0.9 2.1 -1.1
v -0.7 0.1 -1.1
v -0.7 0.5 -1.1
v -0.7 0.7 -1.1
v -0.7 1.5 -1.1
v -0.7 1.7 -1.1
v -0.7 1.9 -1.1
v -0.7 2.1 -1.1
v -0.5 0.1 -1.1
v -0.5 0.5 -1.1
v -0.5 0.7 -1.1
v -0.5 1.5 -1.1
v -0.5 1.7 -1.1
v -0.5 1.9 -1.1
v -1.19209e-07 0.1 1.4
v -1.19209e-07 0.5 1.4
v -1.19209e-07 0.7 1.4
v -1.19209e-07 1.1 1.4
v -1.19209e-07 1.3 1.4
v -1.19209e-07 1.5 1.4
v 0.2 0.1 1.4
v 0.2 0.5 1.4
v 0.2 0.7 1.4
v 0.2 1.1 1.4
v 0.2 1.3 1.4
v 0.2 1.5 1.4
v 1.1 1.9 1.1
v 1.1 2.1 1.1
v 1.3 1.9 1.1
v 1.3 2.1 1.1
v 1.1 0.1 0.9
v 1.1 0.5 0.9
v 1.1 0.7 0.9
v 1.1 1.5 0.9
v 1.1 1.7 0.9
v 1.1 1.9 0.9
v 1.3 0.1 0.9
v 1.3 0.5 0.9
v 1.3 0.7 0.9
v 1.3 1.5 0.9
v 1.3 1.7 0.9
v 1.3 1.9 0.9
v 0.0999999 1.7 0.8
v 0.0999999 1.9 0.8
v 0.3 1.7 0.8
v 0.3 1.9 0.8
v -1.1 0.1 0.7
v -1.1 0.5 0.7
v -1.1 0.7 0.7
v -1.1 1.1 0.7
v -1.1 1.3 0.7
v -1.1 1.5 0.7
v -0.9 0.1 0.7
v -0.9 0.5 0.7
v -0.9 0.7 0.7
v -0.9 1.1 0.7
v -0.9 1.3 0.7
v -0.9 1.5 0.7
v 0.0999999 0.1 0.6
v 0.0999999 0.5 0.6
v 0.0999999 1.1 0.6
v 0.0999999 1.3 0.6
v 0.0999999 1.5 0.6
v 0.0999999 1.7 0.6
v 0.3 0.1 0.6
v 0.3 0.5 0.6
v 0.3 1.1 0.6
v 0.3 1.3 0.6
v 0.3 1.5 0.6
v 0.3 1.7 0.6
v -1.3 0.1 -0.4
v -1.3 0.5 -0.4
v -1.3 1.3 -0.4
v -1.3 1.5 -0.4
v -1.3 1.7 -0.4
v -1.1 0.1 -0.4
v -1.1 0.5 -0.4
v -1.1 1.3 -0.4
v -1.1 1.5 -0.4
v -1.1 1.7 -0.4
v -0.6 0.1 -0.4
v -0.6 0.3 -0.4
v -0.6 0.5 -0.4
v -0.6 0.7 -0.4
v -0.6 0.9 -0.4
v -0.4 0.1 -0.4
v -0.4 0.3 -0.4
v -0.4 0.5 -0.4
v -0.4 0.7 -0.4
v -0.4 0.9 -0.4
v 0.8 0.1 -0.4
v 0.8 0.3 -0.4
v 0.8 0.5 -0.4
v 0.8 1.1 -0.4
v 0.8 1.3 -0.4
v 0.8 1.5 -0.4
v 1 0.1 -0.4
v 1 0.3 -0.4
v 1 0.5 -0.4
v 1 1.1 -0.4
v 1 1.3 -0.4
v 1 1.5 -0.4
v 1 1.7 -0.4
v 1.2 1.5 -0.4
v 1.2 1.7 -0.4
v 0.2 0.1 -1
v 0.2 0.7 -1
v 0.2 0.9 -1
v 0.2 1.7 -1
v 0.2 1.9 -1
v 0.2 2.3 -1
v 0.4 0.1 -1
v 0.4 0.7 -1
v 0.4 0.9 -1
v 0.4 1.7 -1
v 0.4 1.9 -1
v 0.4 2.3 -1
v 0.4 2.5 -1
v 0.6 2.3 -1
v 0.6 2.5 -1
v -0.9 1.9 -1.3
v -0.9 2.1 -1.3
v -0.7 0.1 -1.3
v -0.7 0.5 -1.3
v -0.7 0.7 -1.3
v -0.7 1.5 -1.3
v -0.7 1.7 -1.3
v -0.7 1.9 -1.3
v -0.7 2.1 -1.3
v -0.5 0.1 -1.3
v -0.5 0.5 -1.3
v -0.5 0.7 -1.3
v -0.5 1.5 -1.3
v -0.5 1.7 -1.3
v -0.5 1.9 -1.3
v -1.19209e-07 0.1 1.6
v 0.2 0.1 1.6
v -1.19209e-07 0.1 1.4
v 0.2 0.1 1.4
v 1.1 0.1 1.1
v 1.3 0.1 1.1
v -1.1 0.1 0.9
v -0.9 0.1 0.9
v 1.1 0.1 0.9
v 1.3 0.1 0.9
v 0.0999999 0.1 0.8
v 0.3 0.1 0.8
v -1.1 0.1 0.7
v -0.9 0.1 0.7
v 0.0999999 0.1 0.6
v 0.3 0.1 0.6
v -1.3 0.1 -0.2
v -1.1 0.1 -0.2
v -0.6 0.1 -0.2
v -0.4 0.1 -0.2
v 0.8 0.1 -0.2
v 1 0.1 -0.2
v -1.3 0.1 -0.4
v -1.1 0.1 -0.4
v -0.6 0.1 -0.4
v -0.4 0.1 -0.4
v 0.8 0.1 -0.4
v 1 0.1 -0.4
v 0.2 0.1 -0.8
v 0.4 0.1 -0.8
v 0.2 0.1 -1
v 0.4 0.1 -1
v -0.7 0.1 -1.1
v -0.5 0.1 -1.1
v -0.7 0.1 -1.3
v -0.5 0.1 -1.3
v 1 1.5 -0.2
v 1.2 1.5 -0.2
v 1 1.5 -0.4
v 1.2 1.5 -0.4
v 0.0999999 1.7 1
v 0.3 1.7 1
v 0.0999999 1.7 0.8
v 0.3 1.7 0.8
v 1.1 1.9 1.3
v 1.3 1.9 1.3
v 1.1 1.9 1.1
v 1.3 1.9 1.1
v -0.9 1.9 -1.1
v -0.7 1.9 -1.1
v -0.9 1.9 -1.3
v -0.7 1.9 -1.3
v 0.4 2.3 -0.8
v 0.6 2.3 -0.8
v 0.4 2.3 -1
v 0.6 2.3 -1
v -0.6 0.9 -0.2
v -0.4 0.9 -0.2
v -0.6 0.9 -0.4
v -0.4 0.9 -0.4
v -1.19209e-07 1.5 1.6
v 0.2 1.5 1.6
v -1.19209e-07 1.5 1.4
v 0.2 1.5 1.4
v -1.1 1.5 0.9
v -0.9 1.5 0.9
v -1.1 1.5 0.7
v -0.9 1.5 0.7
v 0.8 1.5 -0.2
v 1 1.5 -0.2
v 0.8 1.5 -0.4
v 1 1.5 -0.4
v 0.0999999 1.7 0.8
v 0.3 1.7 0.8
v 0.0999999 1.7 0.6
v 0.3 1.7 0.6
v -1.3 1.7 -0.2
v -1.1 1.7 -0.2
v 1 1.7 -0.2
v 1.2 1.7 -0.2
v -1.3 1.7 -0.4
v -1.1 1.7 -0.4
v 1 1.7 -0.4
v 1.2 1.7 -0.4
v 1.1 1.9 1.1
v 1.3 1.9 1.1
v 0.0999999 1.9 1
v 0.3 1.9 1
v 1.1 1.9 0.9
v 1.3 1.9 0.9
v 0.0999999 1.9 0.8
v 0.3 1.9 0.8
v -0.7 1.9 -1.1
v -0.5 1.9 -1.1
v -0.7 1.9 -1.3
v -0.5 1.9 -1.3
v 1.1 2.1 1.3
v 1.3 2.1 1.3
v 1.1 2.1 1.1
v 1.3 2.1 1.1
v -0.9 2.1 -1.1
v -0.7 2.1 -1.1
v -0.9 2.1 -1.3
v -0.7 2.1 -1.3
v 0.2 2.3 -0.8
v 0.4 2.3 -0.8
v 0.2 2.3 -1
v 0.4 2.3 -1
v 0.4 2.5 -0.8
v 0.6 2.5 -0.8
v 0.4 2.5 -1
v 0.6 2.5 -1

# faces
f 3/5/1 2/5/1 1/5/1
f 4/5/1 2/5/1 3/5/1
f 5/2/1 4/2/1 3/2/1
f 6/2/1 4/2/1 5/2/1
f 7/4/1 6/4/1 5/4/1
f 8/4/1 6/4/1 7/4/1
f 9/1/1 8/1/1 7/1/1
f 10/1/1 8/1/1 9/1/1
f 13/5/1 12/5/1 11/5/1
f 14/5/1 12/5/1 13/5/1
f 15/2/1 14/2/1 13/2/1
f 16/2/1 14/2/1 15/2/1
f 17/3/1 16/3/1 15/3/1
f 18/3/1 16/3/1 17/3/1
f 19/4/1 18/4/1 17/4/1
f 20/4/1 18/4/1 19/4/1
f 21/1/1 20/1/1 19/1/1
f 22/1/1 20/1/1 21/1/1
f 25/1/1 24/1/1 23/1/1
f 26/1/1 24/1/1 25/1/1
f 29/5/1 28/5/1 27/5/1
f 30/5/1 28/5/1 29/5/1
f 31/2/1 30/2/1 29/2/1
f 32/2/1 30/2/1 31/2/1
f 33/3/1 32/3/1 31/3/1
f 34/3/1 32/3/1 33/3/1
f 35/4/1 34/4/1 33/4/1
f 36/4/1 34/4/1 35/4/1
f 37/1/1 36/1/1 35/1/1
f 38/1/1 36/1/1 37/1/1
f 41/5/1 40/5/1 39/5/1
f 42/5/1 40/5/1 41/5/1
f 43/2/1 42/2/1 41/2/1
f 44/2/1 42/2/1 43/2/1
f 45/3/1 44/3/1 43/3/1
f 46/3/1 44/3/1 45/3/1
f 47/4/1 46/4/1 45/4/1
f 48/4/1 46/4/1 47/4/1
f 51/5/1 50/5/1 49/5/1
f 52/5/1 50/5/1 51/5/1
f 53/2/1 52/2/1 51/2/1
f 54/2/1 52/2/1 53/2/1
f 55/3/1 54/3/1 53/3/1
f 56/3/1 54/3/1 55/3/1
f 57/4/1 56/4/1 55/4/1
f 58/4/1 56/4/1 57/4/1
f 59/1/1 58/1/1 57/1/1
f 60/1/1 58/1/1 59/1/1
f 63/5/1 62/5/1 61/5/1
f 64/5/1 62/5/1 63/5/1
f 65/2/1 64/2/1 63/2/1
f 66/2/1 64/2/1 65/2/1
f 67/3/1 66/3/1 65/3/1
f 68/3/1 66/3/1 67/3/1
f 69/4/1 68/4/1 67/4/1
f 70/4/1 68/4/1 69/4/1
f 72/1/1 70/1/1 69/1/1
f 73/1/1 70/1/1 72/1/1
f 74/1/1 72/1/1 71/1/1
f 75/1/1 72/1/1 74/1/1
f 78/5/1 77/5/1 76/5/1
f 79/5/1 77/5/1 78/5/1
f 80/2/1 79/2/1 78/2/1
f 81/2/1 79/2/1 80/2/1
f 82/3/1 81/3/1 80/3/1
f 83/3/1 81/3/1 82/3/1
f 84/4/1 83/4/1 82/4/1
f 85/4/1 83/4/1 84/4/1
f 86/1/1 85/1/1 84/1/1
f 87/1/1 85/1/1 86/1/1
f 90/1/1 89/1/1 88/1/1
f 91/1/1 89/1/1 90/1/1
f 94/5/1 93/5/1 92/5/1
f 95/5/1 93/5/1 94/5/1
f 96/2/1 95/2/1 94/2/1
f 97/2/1 95/2/1 96/2/1
f 98/3/1 97/3/1 96/3/1
f 99/3/1 97/3/1 98/3/1
f 100/4/1 99/4/1 98/4/1
f 101/4/1 99/4/1 100/4/1
f 102/1/1 101/1/1 100/1/1
f 103/1/1 101/1/1 102/1/1
f 106/1/1 105/1/1 104/1/1
f 107/1/1 105/1/1 106/1/1
f 110/5/1 109/5/1 108/5/1
f 111/5/1 109/5/1 110/5/1
f 112/2/1 111/2/1 110/2/1
f 113/2/1 111/2/1 112/2/1
f 114/3/1 113/3/1 112/3/1
f 115/3/1 113/3/1 114/3/1
f 116/4/1 115/4/1 114/4/1
f 117/4/1 115/4/1 116/4/1
f 119/1/1 117/1/1 116/1/1
f 120/1/1 117/1/1 119/1/1
f 121/1/1 119/1/1 118/1/1
f 122/1/1 119/1/1 121/1/1
f 123/5/2 124/5/2 125/5/2
f 125/5/2 124/5/2 126/5/2
f 125/2/2 126/2/2 127/2/2
f 127/2/2 126/2/2 128/2/2
f 127/4/2 128/4/2 129/4/2
f 129/4/2 128/4/2 130/4/2
f 129/1/2 130/1/2 131/1/2
f 131/1/2 130/1/2 132/1/2
f 133/5/2 134/5/2 135/5/2
f 135/5/2 134/5/2 136/5/2
f 135/2/2 136/2/2 137/2/2
f 137/2/2 136/2/2 138/2/2
f 137/3/2 138/3/2 139/3/2
f 139/3/2 138/3/2 140/3/2
f 139/4/2 140/4/2 141/4/2
f 141/4/2 140/4/2 142/4/2
f 141/1/2 142/1/2 143/1/2
f 143/1/2 142/1/2 144/1/2
f 145/1/2 146/1/2 147/1/2
f 147/1/2 146/1/2 148/1/2
f 149/5/2 150/5/2 151/5/2
f 151/5/2 150/5/2 152/5/2
f 151/2/2 152/2/2 153/2/2
f 153/2/2 152/2/2 154/2/2
f 153/3/2 154/3/2 155/3/2
f 155/3/2 154/3/2 156/3/2
f 155/4/2 156/4/2 157/4/2
f 157/4/2 156/4/2 158/4/2
f 157/1/2 158/1/2 159/1/2
f 159/1/2 158/1/2 160/1/2
f 161/5/2 162/5/2 163/5/2
f 163/5/2 162/5/2 164/5/2
f 163/2/2 164/2/2 165/2/2
f 165/2/2 164/2/2 166/2/2
f 165/3/2 166/3/2 167/3/2
f 167/3/2 166/3/2 168/3/2
f 167/4/2 168/4/2 169/4/2
f 169/4/2 168/4/2 170/4/2
f 171/5/2 172/5/2 173/5/2
f 173/5/2 172/5/2 174/5/2
f 173/2/2 174/2/2 175/2/2
f 175/2/2 174/2/2 176/2/2
f 175/3/2 176/3/2 177/3/2
f 177/3/2 176/3/2 178/3/2
f 177/4/2 178/4/2 179/4/2
f 179/4/2 178/4/2 180/4/2
f 179/1/2 180/1/2 181/1/2
f 181/1/2 180/1/2 182/1/2
f 183/5/2 184/5/2 185/5/2
f 185/5/2 184/5/2 186/5/2
f 185/2/2 186/2/2 187/2/2
f 187/2/2 186/2/2 188/2/2
f 187/3/2 188/3/2 189/3/2
f 189/3/2 188/3/2 190/3/2
f 189/4/2 190/4/2 191/4/2
f 191/4/2 190/4/2 192/4/2
f 191/1/2 192/1/2 194/1/2
f 194/1/2 192/1/2 195/1/2
f 193/1/2 194/1/2 196/1/2
f 196/1/2 194/1/2 197/1/2
f 198/5/2 199/5/2 200/5/2
f 200/5/2 199/5/2 201/5/2
f 200/2/2 201/2/2 202/2/2
f 202/2/2 201/2/2 203/2/2
f 202/3/2 203/3/2 204/3/2
f 204/3/2 203/3/2 205/3/2
f 204/4/2 205/4/2 206/4/2
f 206/4/2 205/4/2 207/4/2
f 206/1/2 207/1/2 208/1/2
f 208/1/2 207/1/2 209/1/2
f 210/1/2 211/1/2 212/1/2
f 212/1/2 211/1/2 213/1/2
f 214/5/2 215/5/2 216/5/2
f 216/5/2 215/5/2 217/5/2
f 216/2/2 217/2/2 218/2/2
f 218/2/2 217/2/2 219/2/2
f 218/3/2 219/3/2 220/3/2
f 220/3/2 219/3/2 221/3/2
f 220/4/2 221/4/2 222/4/2
f 222/4/2 221/4/2 223/4/2
f 222/1/2 223/1/2 224/1/2
f 224/1/2 223/1/2 225/1/2
f 226/1/2 227/1/2 228/1/2
f 228/1/2 227/1/2 229/1/2
f 230/5/2 231/5/2 232/5/2
f 232/5/2 231/5/2 233/5/2
f 232/2/2 233/2/2 234/2/2
f 234/2/2 233/2/2 235/2/2
f 234/3/2 235/3/2 236/3/2
f 236/3/2 235/3/2 237/3/2
f 236/4/2 237/4/2 238/4/2
f 238/4/2 237/4/2 239/4/2
f 238/1/2 239/1/2 241/1/2
f 241/1/2 239/1/2 242/1/2
f 240/1/2 241/1/2 243/1/2
f 243/1/2 241/1/2 244/1/2
f 251/5/3 246/5/3 245/5/3
f 252/2/3 247/2/3 246/2/3
f 252/5/3 246/5/3 251/5/3
f 253/3/3 248/3/3 247/3/3
f 253/2/3 247/2/3 252/2/3
f 254/4/3 249/4/3 248/4/3
f 254/3/3 248/3/3 253/3/3
f 255/1/3 250/1/3 249/1/3
f 255/4/3 249/4/3 254/4/3
f 256/1/3 250/1/3 255/1/3
f 259/1/3 258/1/3 257/1/3
f 260/1/3 258/1/3 259/1/3
f 267/5/3 262/5/3 261/5/3
f 268/2/3 263/2/3 262/2/3
f 268/5/3 262/5/3 267/5/3
f 269/3/3 264/3/3 263/3/3
f 269/2/3 263/2/3 268/2/3
f 270/4/3 265/4/3 264/4/3
f 270/3/3 264/3/3 269/3/3
f 271/1/3 266/1/3 265/1/3
f 271/4/3 265/4/3 270/4/3
f 272/1/3 266/1/3 271/1/3
f 275/1/3 274/1/3 273/1/3
f 276/1/3 274/1/3 275/1/3
f 283/5/3 278/5/3 277/5/3
f 284/2/3 279/2/3 278/2/3
f 284/5/3 278/5/3 283/5/3
f 285/3/3 280/3/3 279/3/3
f 285/2/3 279/2/3 284/2/3
f 286/4/3 281/4/3 280/4/3
f 286/3/3 280/3/3 285/3/3
f 287/1/3 282/1/3 281/1/3
f 287/4/3 281/4/3 286/4/3
f 288/1/3 282/1/3 287/1/3
f 295/5/3 290/5/3 289/5/3
f 296/2/3 291/2/3 290/2/3
f 296/5/3 290/5/3 295/5/3
f 297/3/3 292/3/3 291/3/3
f 297/2/3 291/2/3 296/2/3
f 298/4/3 293/4/3 292/4/3
f 298/3/3 292/3/3 297/3/3
f 299/1/3 294/1/3 293/1/3
f 299/4/3 293/4/3 298/4/3
f 300/1/3 294/1/3 299/1/3
f 306/5/3 302/5/3 301/5/3
f 307/2/3 303/2/3 302/2/3
f 307/5/3 302/5/3 306/5/3
f 308/4/3 304/4/3 303/4/3
f 308/2/3 303/2/3 307/2/3
f 309/1/3 305/1/3 304/1/3
f 309/4/3 304/4/3 308/4/3
f 310/1/3 305/1/3 309/1/3
f 316/5/3 312/5/3 311/5/3
f 317/2/3 313/2/3 312/2/3
f 317/5/3 312/5/3 316/5/3
f 318/3/3 314/3/3 313/3/3
f 318/2/3 313/2/3 317/2/3
f 319/4/3 315/4/3 314/4/3
f 319/3/3 314/3/3 318/3/3
f 320/4/3 315/4/3 319/4/3
f 327/5/3 322/5/3 321/5/3
f 328/2/3 323/2/3 322/2/3
f 328/5/3 322/5/3 327/5/3
f 329/3/3 324/3/3 323/3/3
f 329/2/3 323/2/3 328/2/3
f 330/4/3 325/4/3 324/4/3
f 330/3/3 324/3/3 329/3/3
f 331/1/3 326/1/3 325/1/3
f 331/4/3 325/4/3 330/4/3
f 332/1/3 326/1/3 331/1/3
f 334/1/3 333/1/3 332/1/3
f 335/1/3 333/1/3 334/1/3
f 342/5/3 337/5/3 336/5/3
f 343/2/3 338/2/3 337/2/3
f 343/5/3 337/5/3 342/5/3
f 344/3/3 339/3/3 338/3/3
f 344/2/3 338/2/3 343/2/3
f 345/4/3 340/4/3 339/4/3
f 345/3/3 339/3/3 344/3/3
f 346/1/3 341/1/3 340/1/3
f 346/4/3 340/4/3 345/4/3
f 347/1/3 341/1/3 346/1/3
f 349/1/3 348/1/3 347/1/3
f 350/1/3 348/1/3 349/1/3
f 358/1/3 352/1/3 351/1/3
f 359/1/3 352/1/3 358/1/3
f 360/5/3 354/5/3 353/5/3
f 361/2/3 355/2/3 354/2/3
f 361/5/3 354/5/3 360/5/3
f 362/3/3 356/3/3 355/3/3
f 362/2/3 355/2/3 361/2/3
f 363/4/3 357/4/3 356/4/3
f 363/3/3 356/3/3 362/3/3
f 364/1/3 358/1/3 357/1/3
f 364/4/3 357/4/3 363/4/3
f 365/1/3 358/1/3 364/1/3
f 366/5/4 367/5/4 372/5/4
f 367/2/4 368/2/4 373/2/4
f 372/5/4 367/5/4 373/5/4
f 368/3/4 369/3/4 374/3/4
f 373/2/4 368/2/4 374/2/4
f 369/4/4 370/4/4 375/4/4
f 374/3/4 369/3/4 375/3/4
f 370/1/4 371/1/4 376/1/4
f 375/4/4 370/4/4 376/4/4
f 376/1/4 371/1/4 377/1/4
f 378/1/4 379/1/4 380/1/4
f 380/1/4 379/1/4 381/1/4
f 382/5/4 383/5/4 388/5/4
f 383/2/4 384/2/4 389/2/4
f 388/5/4 383/5/4 389/5/4
f 384/3/4 385/3/4 390/3/4
f 389/2/4 384/2/4 390/2/4
f 385/4/4 386/4/4 391/4/4
f 390/3/4 385/3/4 391/3/4
f 386/1/4 387/1/4 392/1/4
f 391/4/4 386/4/4 392/4/4
f 392/1/4 387/1/4 393/1/4
f 394/1/4 395/1/4 396/1/4
f 396/1/4 395/1/4 397/1/4
f 398/5/4 399/5/4 404/5/4
f 399/2/4 400/2/4 405/2/4
f 404/5/4 399/5/4 405/5/4
f 400/3/4 401/3/4 406/3/4
f 405/2/4 400/2/4 406/2/4
f 401/4/4 402/4/4 407/4/4
f 406/3/4 401/3/4 407/3/4
f 402/1/4 403/1/4 408/1/4
f 407/4/4 402/4/4 408/4/4
f 408/1/4 403/1/4 409/1/4
f 410/5/4 411/5/4 416/5/4
f 411/2/4 412/2/4 417/2/4
f 416/5/4 411/5/4 417/5/4
f 412/3/4 413/3/4 418/3/4
f 417/2/4 412/2/4 418/2/4
f 413/4/4 414/4/4 419/4/4
f 418/3/4 413/3/4 419/3/4
f 414/1/4 415/1/4 420/1/4
f 419/4/4 414/4/4 420/4/4
f 420/1/4 415/1/4 421/1/4
f 422/5/4 423/5/4 427/5/4
f 423/2/4 424/2/4 428/2/4
f 427/5/4 423/5/4 428/5/4
f 424/4/4 425/4/4 429/4/4
f 428/2/4 424/2/4 429/2/4
f 425/1/4 426/1/4 430/1/4
f 429/4/4 425/4/4 430/4/4
f 430/1/4 426/1/4 431/1/4
f 432/5/4 433/5/4 437/5/4
f 433/2/4 434/2/4 438/2/4
f 437/5/4 433/5/4 438/5/4
f 434/3/4 435/3/4 439/3/4
f 438/2/4 434/2/4 439/2/4
f 435/4/4 436/4/4 440/4/4
f 439/3/4 435/3/4 440/3/4
f 440/4/4 436/4/4 441/4/4
f 442/5/4 443/5/4 448/5/4
f 443/2/4 444/2/4 449/2/4
f 448/5/4 443/5/4 449/5/4
f 444/3/4 445/3/4 450/3/4
f 449/2/4 444/2/4 450/2/4
f 445/4/4 446/4/4 451/4/4
f 450/3/4 445/3/4 451/3/4
f 446/1/4 447/1/4 452/1/4
f 451/4/4 446/4/4 452/4/4
f 452/1/4 447/1/4 453/1/4
f 453/1/4 454/1/4 455/1/4
f 455/1/4 454/1/4 456/1/4
f 457/5/4 458/5/4 463/5/4
f 458/2/4 459/2/4 464/2/4
f 463/5/4 458/5/4 464/5/4
f 459/3/4 460/3/4 465/3/4
f 464/2/4 459/2/4 465/2/4
f 460/4/4 461/4/4 466/4/4
f 465/3/4 460/3/4 466/3/4
f 461/1/4 462/1/4 467/1/4
f 466/4/4 461/4/4 467/4/4
f 467/1/4 462/1/4 468/1/4
f 468/1/4 469/1/4 470/1/4
f 470/1/4 469/1/4 471/1/4
f 472/1/4 473/1/4 479/1/4
f 479/1/4 473/1/4 480/1/4
f 474/5/4 475/5/4 481/5/4
f 475/2/4 476/2/4 482/2/4
f 481/5/4 475/5/4 482/5/4
f 476/3/4 477/3/4 483/3/4
f 482/2/4 476/2/4 483/2/4
f 477/4/4 478/4/4 484/4/4
f 483/3/4 477/3/4 484/3/4
f 478/1/4 479/1/4 485/1/4
f 484/4/4 478/4/4 485/4/4
f 485/1/4 479/1/4 486/1/4
f 489/5/5 488/5/5 487/5/5
f 490/5/5 488/5/5 489/5/5
f 495/5/5 492/5/5 491/5/5
f 496/5/5 492/5/5 495/5/5
f 499/5/5 494/5/5 493/5/5
f 500/5/5 494/5/5 499/5/5
f 501/5/5 498/5/5 497/5/5
f 502/5/5 498/5/5 501/5/5
f 509/5/5 504/5/5 503/5/5
f 510/5/5 504/5/5 509/5/5
f 511/5/5 506/5/5 505/5/5
f 512/5/5 506/5/5 511/5/5
f 513/5/5 508/5/5 507/5/5
f 514/5/5 508/5/5 513/5/5
f 517/5/5 516/5/5 515/5/5
f 518/5/5 516/5/5 517/5/5
f 521/5/5 520/5/5 519/5/5
f 522/5/5 520/5/5 521/5/5
f 525/1/5 524/1/5 523/1/5
f 526/1/5 524/1/5 525/1/5
f 529/1/5 528/1/5 527/1/5
f 530/1/5 528/1/5 529/1/5
f 533/1/5 532/1/5 531/1/5
f 534/1/5 532/1/5 533/1/5
f 537/1/5 536/1/5 535/1/5
f 538/1/5 536/1/5 537/1/5
f 541/1/5 540/1/5 539/1/5
f 542/1/5 540/1/5 541/1/5
f 543/4/6 544/4/6 545/4/6
f 545/4/6 544/4/6 546/4/6
f 547/1/6 548/1/6 549/1/6
f 549/1/6 548/1/6 550/1/6
f 551/1/6 552/1/6 553/1/6
f 553/1/6 552/1/6 554/1/6
f 555/1/6 556/1/6 557/1/6
f 557/1/6 556/1/6 558/1/6
f 559/1/6 560/1/6 561/1/6
f 561/1/6 560/1/6 562/1/6
f 563/1/6 564/1/6 567/1/6
f 567/1/6 564/1/6 568/1/6
f 565/1/6 566/1/6 569/1/6
f 569/1/6 566/1/6 570/1/6
f 571/1/6 572/1/6 575/1/6
f 575/1/6 572/1/6 576/1/6
f 573/1/6 574/1/6 577/1/6
f 577/1/6 574/1/6 578/1/6
f 579/1/6 580/1/6 581/1/6
f 581/1/6 580/1/6 582/1/6
f 583/1/6 584/1/6 585/1/6
f 585/1/6 584/1/6 586/1/6
f 587/1/6 588/1/6 589/1/6
f 589/1/6 588/1/6 590/1/6
f 591/1/6 592/1/6 593/1/6
f 593/1/6 592/1/6 594/1/6
f 595/1/6 596/1/6 597/1/6
f 597/1/6 596/1/6 598/1/6
