# MagicaVoxel @ Ephtracy

# group
o 

# material
mtllib onion_6.mtl
usemtl palette

# normals
vn -1 0 0
vn 1 0 0
vn 0 0 1
vn 0 0 -1
vn 0 -1 0
vn 0 1 0

# texcoords
vt 0.560547 0.5
vt 0.623047 0.5
vt 0.685547 0.5
vt 0.693359 0.5

# verts
v -0.3 -0.6 0.1
v -0.3 -0.6 -0.2
v -0.3 -0.3 0.1
v -0.3 -0.3 -0.2
v -0.3 0.7 0
v -0.3 0.7 -0.1
v -0.3 0.9 0
v -0.3 0.9 -0.1
v -0.2 -0.7 0.1
v -0.2 -0.7 -0.2
v -0.2 -0.6 0.2
v -0.2 -0.6 0.1
v -0.2 -0.6 -0.2
v -0.2 -0.6 -0.3
v -0.2 -0.3 0.2
v -0.2 -0.3 0.1
v -0.2 -0.3 -0.2
v -0.2 -0.3 -0.3
v -0.2 -0.2 0.1
v -0.2 -0.2 -0.2
v -0.2 0.4 0.4
v -0.2 0.4 0.3
v -0.2 0.4 0
v -0.2 0.4 -0.1
v -0.2 0.5 0
v -0.2 0.5 -0.1
v -0.2 0.6 0.4
v -0.2 0.6 0.3
v -0.2 0.7 0
v -0.2 0.7 -0.1
v -0.1 -0.8 0
v -0.1 -0.8 -0.1
v -0.1 -0.7 0
v -0.1 -0.7 -0.1
v -0.1 -0.2 0.1
v -0.1 -0.2 -0.1
v -0.1 -0.1 0.1
v -0.1 -0.1 -0.1
v -0.1 -0.1 -0.2
v -0.1 0 0.2
v -0.1 0 0.1
v -0.1 0 0
v -0.1 0 -0.1
v -0.1 0 -0.2
v -0.1 0 -0.3
v -0.1 0.1 -0.2
v -0.1 0.1 -0.3
v -0.1 0.1 -0.4
v -0.1 0.2 0.3
v -0.1 0.2 0.2
v -0.1 0.2 0.1
v -0.1 0.2 -0.3
v -0.1 0.2 -0.4
v -0.1 0.3 0.3
v -0.1 0.3 0.2
v -0.1 0.4 0.3
v -0.1 0.4 0.2
v -0.1 0.4 0
v -0.1 0.4 -0.1
v -0.1 0.6 -0.3
v -0.1 0.6 -0.4
v 0.1 0 0
v 0.1 0 -0.1
v 0.1 0.2 0
v 0.1 0.2 -0.1
v 0.2 0.2 0
v 0.2 0.2 -0.1
v 0.2 0.3 0
v 0.2 0.3 -0.1
v 0.2 0.5 0
v 0.2 0.5 -0.1
v -0.2 0.7 0
v -0.2 0.7 -0.1
v -0.2 0.9 0
v -0.2 0.9 -0.1
v -0.1 0.4 0.4
v -0.1 0.4 0.3
v -0.1 0.4 0
v -0.1 0.4 -0.1
v -0.1 0.5 0
v -0.1 0.5 -0.1
v -0.1 0.6 0.4
v -0.1 0.6 0.3
v -0.1 0.7 0
v -0.1 0.7 -0.1
v 0 -0.8 0
v 0 -0.8 -0.1
v 0 -0.7 0
v 0 -0.7 -0.1
v 0 -0.2 0.1
v 0 -0.2 0
v 0 -0.1 0.1
v 0 -0.1 0
v 0 -0.1 -0.1
v 0 -0.1 -0.2
v 0 0 0.2
v 0 0 0.1
v 0 0 0
v 0 0 -0.1
v 0 0 -0.2
v 0 0 -0.3
v 0 0.1 -0.2
v 0 0.1 -0.3
v 0 0.1 -0.4
v 0 0.2 0.3
v 0 0.2 0.2
v 0 0.2 0.1
v 0 0.2 -0.3
v 0 0.2 -0.4
v 0 0.3 0.3
v 0 0.3 0.2
v 0 0.4 0.3
v 0 0.4 0.2
v 0 0.4 0
v 0 0.4 -0.1
v 0 0.6 -0.3
v 0 0.6 -0.4
v 0.1 -0.7 0.1
v 0.1 -0.7 -0.2
v 0.1 -0.6 0.2
v 0.1 -0.6 0.1
v 0.1 -0.6 -0.2
v 0.1 -0.6 -0.3
v 0.1 -0.3 0.2
v 0.1 -0.3 0.1
v 0.1 -0.3 -0.2
v 0.1 -0.3 -0.3
v 0.1 -0.2 0.1
v 0.1 -0.2 0
v 0.1 -0.2 -0.1
v 0.1 -0.2 -0.2
v 0.1 -0.1 0
v 0.1 -0.1 -0.1
v 0.1 0 0
v 0.1 0 -0.1
v 0.2 -0.6 0.1
v 0.2 -0.6 -0.2
v 0.2 -0.3 0.1
v 0.2 -0.3 -0.2
v 0.2 0 0
v 0.2 0 -0.1
v 0.2 0.2 0
v 0.2 0.2 -0.1
v 0.3 0.2 0
v 0.3 0.2 -0.1
v 0.3 0.3 0
v 0.3 0.3 -0.1
v 0.3 0.5 0
v 0.3 0.5 -0.1
v -0.2 0.4 0.4
v -0.2 0.6 0.4
v -0.1 0.4 0.4
v -0.1 0.6 0.4
v -0.1 0.2 0.3
v -0.1 0.3 0.3
v -0.1 0.4 0.3
v 0 0.2 0.3
v 0 0.3 0.3
v 0 0.4 0.3
v -0.2 -0.6 0.2
v -0.2 -0.3 0.2
v -0.1 0 0.2
v -0.1 0.2 0.2
v 0 0 0.2
v 0 0.2 0.2
v 0.1 -0.6 0.2
v 0.1 -0.3 0.2
v -0.3 -0.6 0.1
v -0.3 -0.3 0.1
v -0.2 -0.7 0.1
v -0.2 -0.6 0.1
v -0.2 -0.3 0.1
v -0.2 -0.2 0.1
v -0.1 -0.2 0.1
v -0.1 -0.1 0.1
v -0.1 0 0.1
v 0 -0.2 0.1
v 0 -0.1 0.1
v 0 0 0.1
v 0.1 -0.7 0.1
v 0.1 -0.6 0.1
v 0.1 -0.3 0.1
v 0.1 -0.2 0.1
v 0.2 -0.6 0.1
v 0.2 -0.3 0.1
v -0.3 0.7 0
v -0.3 0.9 0
v -0.2 0.4 0
v -0.2 0.5 0
v -0.2 0.7 0
v -0.2 0.9 0
v -0.1 -0.8 0
v -0.1 -0.7 0
v -0.1 0 0
v -0.1 0.4 0
v -0.1 0.5 0
v -0.1 0.7 0
v 0 -0.8 0
v 0 -0.7 0
v 0 -0.2 0
v 0 -0.1 0
v 0 0 0
v 0 0.4 0
v 0.1 -0.2 0
v 0.1 -0.1 0
v 0.1 0 0
v 0.1 0.2 0
v 0.2 0 0
v 0.2 0.2 0
v 0.2 0.3 0
v 0.2 0.5 0
v 0.3 0.2 0
v 0.3 0.3 0
v 0.3 0.5 0
v -0.1 0 -0.2
v -0.1 0.1 -0.2
v 0 0 -0.2
v 0 0.1 -0.2
v -0.1 0.1 -0.3
v -0.1 0.2 -0.3
v -0.1 0.6 -0.3
v 0 0.1 -0.3
v 0 0.2 -0.3
v 0 0.6 -0.3
v -0.2 0.4 0.3
v -0.2 0.6 0.3
v -0.1 0.4 0.3
v -0.1 0.6 0.3
v -0.1 0.2 0.2
v -0.1 0.3 0.2
v -0.1 0.4 0.2
v 0 0.2 0.2
v 0 0.3 0.2
v 0 0.4 0.2
v -0.1 0 0.1
v -0.1 0.2 0.1
v 0 0 0.1
v 0 0.2 0.1
v -0.3 0.7 -0.1
v -0.3 0.9 -0.1
v -0.2 0.4 -0.1
v -0.2 0.5 -0.1
v -0.2 0.7 -0.1
v -0.2 0.9 -0.1
v -0.1 -0.8 -0.1
v -0.1 -0.7 -0.1
v -0.1 -0.2 -0.1
v -0.1 -0.1 -0.1
v -0.1 0 -0.1
v -0.1 0.4 -0.1
v -0.1 0.5 -0.1
v -0.1 0.7 -0.1
v 0 -0.8 -0.1
v 0 -0.7 -0.1
v 0 -0.1 -0.1
v 0 0 -0.1
v 0 0.4 -0.1
v 0.1 -0.2 -0.1
v 0.1 -0.1 -0.1
v 0.1 0 -0.1
v 0.1 0.2 -0.1
v 0.2 0 -0.1
v 0.2 0.2 -0.1
v 0.2 0.3 -0.1
v 0.2 0.5 -0.1
v 0.3 0.2 -0.1
v 0.3 0.3 -0.1
v 0.3 0.5 -0.1
v -0.3 -0.6 -0.2
v -0.3 -0.3 -0.2
v -0.2 -0.7 -0.2
v -0.2 -0.6 -0.2
v -0.2 -0.3 -0.2
v -0.2 -0.2 -0.2
v -0.1 -0.1 -0.2
v -0.1 0 -0.2
v 0 -0.1 -0.2
v 0 0 -0.2
v 0.1 -0.7 -0.2
v 0.1 -0.6 -0.2
v 0.1 -0.3 -0.2
v 0.1 -0.2 -0.2
v 0.2 -0.6 -0.2
v 0.2 -0.3 -0.2
v -0.2 -0.6 -0.3
v -0.2 -0.3 -0.3
v -0.1 0 -0.3
v -0.1 0.1 -0.3
v 0 0 -0.3
v 0 0.1 -0.3
v 0.1 -0.6 -0.3
v 0.1 -0.3 -0.3
v -0.1 0.1 -0.4
v -0.1 0.2 -0.4
v -0.1 0.6 -0.4
v 0 0.1 -0.4
v 0 0.2 -0.4
v 0 0.6 -0.4
v -0.1 -0.8 0
v 0 -0.8 0
v -0.1 -0.8 -0.1
v 0 -0.8 -0.1
v -0.2 -0.7 0.1
v 0.1 -0.7 0.1
v -0.1 -0.7 0
v 0 -0.7 0
v -0.1 -0.7 -0.1
v 0 -0.7 -0.1
v -0.2 -0.7 -0.2
v 0.1 -0.7 -0.2
v -0.2 -0.6 0.2
v 0.1 -0.6 0.2
v -0.3 -0.6 0.1
v -0.2 -0.6 0.1
v 0.1 -0.6 0.1
v 0.2 -0.6 0.1
v -0.3 -0.6 -0.2
v -0.2 -0.6 -0.2
v 0.1 -0.6 -0.2
v 0.2 -0.6 -0.2
v -0.2 -0.6 -0.3
v 0.1 -0.6 -0.3
v -0.1 -0.1 -0.1
v 0 -0.1 -0.1
v -0.1 -0.1 -0.2
v 0 -0.1 -0.2
v -0.1 0 0.2
v 0 0 0.2
v -0.1 0 0.1
v 0 0 0.1
v 0.1 0 0
v 0.2 0 0
v 0.1 0 -0.1
v 0.2 0 -0.1
v -0.1 0 -0.2
v 0 0 -0.2
v -0.1 0 -0.3
v 0 0 -0.3
v -0.1 0.1 -0.3
v 0 0.1 -0.3
v -0.1 0.1 -0.4
v 0 0.1 -0.4
v -0.1 0.2 0.3
v 0 0.2 0.3
v -0.1 0.2 0.2
v 0 0.2 0.2
v 0.2 0.2 0
v 0.3 0.2 0
v 0.2 0.2 -0.1
v 0.3 0.2 -0.1
v -0.2 0.4 0.4
v -0.1 0.4 0.4
v -0.2 0.4 0.3
v -0.1 0.4 0.3
v -0.2 0.4 0
v -0.1 0.4 0
v -0.2 0.4 -0.1
v -0.1 0.4 -0.1
v -0.3 0.7 0
v -0.2 0.7 0
v -0.3 0.7 -0.1
v -0.2 0.7 -0.1
v -0.2 -0.3 0.2
v 0.1 -0.3 0.2
v -0.3 -0.3 0.1
v -0.2 -0.3 0.1
v 0.1 -0.3 0.1
v 0.2 -0.3 0.1
v -0.3 -0.3 -0.2
v -0.2 -0.3 -0.2
v 0.1 -0.3 -0.2
v 0.2 -0.3 -0.2
v -0.2 -0.3 -0.3
v 0.1 -0.3 -0.3
v -0.2 -0.2 0.1
v -0.1 -0.2 0.1
v 0 -0.2 0.1
v 0.1 -0.2 0.1
v 0 -0.2 0
v 0.1 -0.2 0
v -0.1 -0.2 -0.1
v 0.1 -0.2 -0.1
v -0.2 -0.2 -0.2
v 0.1 -0.2 -0.2
v -0.1 0 0.1
v 0 0 0.1
v -0.1 0 0
v 0 0 0
v 0.1 0 0
v -0.1 0 -0.1
v 0 0 -0.1
v 0.1 0 -0.1
v -0.1 0 -0.2
v 0 0 -0.2
v -0.1 0.1 -0.2
v 0 0.1 -0.2
v -0.1 0.1 -0.3
v 0 0.1 -0.3
v -0.1 0.2 0.2
v 0 0.2 0.2
v -0.1 0.2 0.1
v 0 0.2 0.1
v 0.1 0.2 0
v 0.2 0.2 0
v 0.1 0.2 -0.1
v 0.2 0.2 -0.1
v -0.1 0.4 0.3
v 0 0.4 0.3
v -0.1 0.4 0.2
v 0 0.4 0.2
v -0.1 0.4 0
v 0 0.4 0
v -0.1 0.4 -0.1
v 0 0.4 -0.1
v 0.2 0.5 0
v 0.3 0.5 0
v 0.2 0.5 -0.1
v 0.3 0.5 -0.1
v -0.2 0.6 0.4
v -0.1 0.6 0.4
v -0.2 0.6 0.3
v -0.1 0.6 0.3
v -0.1 0.6 -0.3
v 0 0.6 -0.3
v -0.1 0.6 -0.4
v 0 0.6 -0.4
v -0.2 0.7 0
v -0.1 0.7 0
v -0.2 0.7 -0.1
v -0.1 0.7 -0.1
v -0.3 0.9 0
v -0.2 0.9 0
v -0.3 0.9 -0.1
v -0.2 0.9 -0.1

# faces
f 3/1/1 2/1/1 1/1/1
f 4/1/1 2/1/1 3/1/1
f 7/2/1 6/2/1 5/2/1
f 8/2/1 6/2/1 7/2/1
f 12/1/1 10/1/1 9/1/1
f 13/1/1 10/1/1 12/1/1
f 15/1/1 12/1/1 11/1/1
f 16/1/1 12/1/1 15/1/1
f 17/1/1 14/1/1 13/1/1
f 18/1/1 14/1/1 17/1/1
f 19/1/1 17/1/1 16/1/1
f 20/1/1 17/1/1 19/1/1
f 25/3/1 24/3/1 23/3/1
f 26/3/1 24/3/1 25/3/1
f 27/2/1 22/2/1 21/2/1
f 28/2/1 22/2/1 27/2/1
f 29/2/1 26/2/1 25/2/1
f 30/2/1 26/2/1 29/2/1
f 33/1/1 32/1/1 31/1/1
f 34/1/1 32/1/1 33/1/1
f 37/2/1 36/2/1 35/2/1
f 38/2/1 36/2/1 37/2/1
f 41/3/1 38/3/1 37/3/1
f 41/3/1 39/3/1 38/3/1
f 42/3/1 39/3/1 41/3/1
f 43/3/1 39/3/1 42/3/1
f 44/3/1 39/3/1 43/3/1
f 46/3/1 45/3/1 44/3/1
f 47/3/1 45/3/1 46/3/1
f 50/3/1 41/3/1 40/3/1
f 51/3/1 41/3/1 50/3/1
f 52/3/1 48/3/1 47/3/1
f 53/3/1 48/3/1 52/3/1
f 54/3/1 50/3/1 49/3/1
f 55/3/1 50/3/1 54/3/1
f 56/2/1 55/2/1 54/2/1
f 57/2/1 55/2/1 56/2/1
f 58/3/1 43/3/1 42/3/1
f 59/3/1 43/3/1 58/3/1
f 60/2/1 53/2/1 52/2/1
f 61/2/1 53/2/1 60/2/1
f 64/3/1 63/3/1 62/3/1
f 65/3/1 63/3/1 64/3/1
f 68/3/1 67/3/1 66/3/1
f 69/3/1 67/3/1 68/3/1
f 70/2/1 69/2/1 68/2/1
f 71/2/1 69/2/1 70/2/1
f 72/2/2 73/2/2 74/2/2
f 74/2/2 73/2/2 75/2/2
f 78/3/2 79/3/2 80/3/2
f 80/3/2 79/3/2 81/3/2
f 76/2/2 77/2/2 82/2/2
f 82/2/2 77/2/2 83/2/2
f 80/2/2 81/2/2 84/2/2
f 84/2/2 81/2/2 85/2/2
f 86/1/2 87/1/2 88/1/2
f 88/1/2 87/1/2 89/1/2
f 90/2/2 91/2/2 92/2/2
f 92/2/2 91/2/2 93/2/2
f 92/3/2 93/3/2 97/3/2
f 97/3/2 93/3/2 98/3/2
f 94/3/2 95/3/2 99/3/2
f 99/3/2 95/3/2 100/3/2
f 100/3/2 101/3/2 102/3/2
f 102/3/2 101/3/2 103/3/2
f 96/3/2 97/3/2 106/3/2
f 106/3/2 97/3/2 107/3/2
f 103/3/2 104/3/2 108/3/2
f 108/3/2 104/3/2 109/3/2
f 105/3/2 106/3/2 110/3/2
f 110/3/2 106/3/2 111/3/2
f 110/2/2 111/2/2 112/2/2
f 112/2/2 111/2/2 113/2/2
f 98/3/2 99/3/2 114/3/2
f 114/3/2 99/3/2 115/3/2
f 108/2/2 109/2/2 116/2/2
f 116/2/2 109/2/2 117/2/2
f 118/1/2 119/1/2 121/1/2
f 121/1/2 119/1/2 122/1/2
f 120/1/2 121/1/2 124/1/2
f 124/1/2 121/1/2 125/1/2
f 122/1/2 123/1/2 126/1/2
f 126/1/2 123/1/2 127/1/2
f 125/1/2 126/1/2 128/1/2
f 128/1/2 126/1/2 129/1/2
f 129/1/2 126/1/2 130/1/2
f 130/1/2 126/1/2 131/1/2
f 129/2/2 130/2/2 132/2/2
f 132/2/2 130/2/2 133/2/2
f 132/3/2 133/3/2 134/3/2
f 134/3/2 133/3/2 135/3/2
f 136/1/2 137/1/2 138/1/2
f 138/1/2 137/1/2 139/1/2
f 140/3/2 141/3/2 142/3/2
f 142/3/2 141/3/2 143/3/2
f 144/3/2 145/3/2 146/3/2
f 146/3/2 145/3/2 147/3/2
f 146/2/2 147/2/2 148/2/2
f 148/2/2 147/2/2 149/2/2
f 152/2/3 151/2/3 150/2/3
f 153/2/3 151/2/3 152/2/3
f 157/3/3 155/3/3 154/3/3
f 158/2/3 156/2/3 155/2/3
f 158/3/3 155/3/3 157/3/3
f 159/2/3 156/2/3 158/2/3
f 164/3/3 163/3/3 162/3/3
f 165/3/3 163/3/3 164/3/3
f 166/1/3 161/1/3 160/1/3
f 167/1/3 161/1/3 166/1/3
f 171/1/3 169/1/3 168/1/3
f 172/1/3 169/1/3 171/1/3
f 174/1/3 173/1/3 172/1/3
f 177/1/3 174/1/3 172/1/3
f 177/2/3 175/2/3 174/2/3
f 178/3/3 176/3/3 175/3/3
f 178/2/3 175/2/3 177/2/3
f 179/3/3 176/3/3 178/3/3
f 180/1/3 171/1/3 170/1/3
f 181/1/3 171/1/3 180/1/3
f 182/1/3 177/1/3 172/1/3
f 183/1/3 177/1/3 182/1/3
f 184/1/3 182/1/3 181/1/3
f 185/1/3 182/1/3 184/1/3
f 190/2/3 187/2/3 186/2/3
f 191/2/3 187/2/3 190/2/3
f 195/3/3 189/3/3 188/3/3
f 196/2/3 190/2/3 189/2/3
f 196/3/3 189/3/3 195/3/3
f 197/2/3 190/2/3 196/2/3
f 198/1/3 193/1/3 192/1/3
f 199/1/3 193/1/3 198/1/3
f 202/3/3 195/3/3 194/3/3
f 203/3/3 195/3/3 202/3/3
f 204/2/3 201/2/3 200/2/3
f 205/3/3 202/3/3 201/3/3
f 205/2/3 201/2/3 204/2/3
f 206/3/3 202/3/3 205/3/3
f 208/3/3 207/3/3 206/3/3
f 209/3/3 207/3/3 208/3/3
f 212/3/3 210/3/3 209/3/3
f 213/2/3 211/2/3 210/2/3
f 213/3/3 210/3/3 212/3/3
f 214/2/3 211/2/3 213/2/3
f 217/3/3 216/3/3 215/3/3
f 218/3/3 216/3/3 217/3/3
f 222/3/3 220/3/3 219/3/3
f 223/2/3 221/2/3 220/2/3
f 223/3/3 220/3/3 222/3/3
f 224/2/3 221/2/3 223/2/3
f 225/2/4 226/2/4 227/2/4
f 227/2/4 226/2/4 228/2/4
f 229/3/4 230/3/4 232/3/4
f 230/2/4 231/2/4 233/2/4
f 232/3/4 230/3/4 233/3/4
f 233/2/4 231/2/4 234/2/4
f 235/3/4 236/3/4 237/3/4
f 237/3/4 236/3/4 238/3/4
f 239/2/4 240/2/4 243/2/4
f 243/2/4 240/2/4 244/2/4
f 241/3/4 242/3/4 250/3/4
f 242/2/4 243/2/4 251/2/4
f 250/3/4 242/3/4 251/3/4
f 251/2/4 243/2/4 252/2/4
f 245/1/4 246/1/4 253/1/4
f 253/1/4 246/1/4 254/1/4
f 247/2/4 248/2/4 255/2/4
f 249/3/4 250/3/4 256/3/4
f 256/3/4 250/3/4 257/3/4
f 247/2/4 255/2/4 258/2/4
f 255/3/4 256/3/4 259/3/4
f 258/2/4 255/2/4 259/2/4
f 259/3/4 256/3/4 260/3/4
f 260/3/4 261/3/4 262/3/4
f 262/3/4 261/3/4 263/3/4
f 263/3/4 264/3/4 266/3/4
f 264/2/4 265/2/4 267/2/4
f 266/3/4 264/3/4 267/3/4
f 267/2/4 265/2/4 268/2/4
f 269/1/4 270/1/4 272/1/4
f 272/1/4 270/1/4 273/1/4
f 275/3/4 276/3/4 277/3/4
f 277/3/4 276/3/4 278/3/4
f 271/1/4 272/1/4 279/1/4
f 279/1/4 272/1/4 280/1/4
f 273/1/4 274/1/4 281/1/4
f 281/1/4 274/1/4 282/1/4
f 280/1/4 281/1/4 283/1/4
f 283/1/4 281/1/4 284/1/4
f 287/3/4 288/3/4 289/3/4
f 289/3/4 288/3/4 290/3/4
f 285/1/4 286/1/4 291/1/4
f 291/1/4 286/1/4 292/1/4
f 293/3/4 294/3/4 296/3/4
f 294/2/4 295/2/4 297/2/4
f 296/3/4 294/3/4 297/3/4
f 297/2/4 295/2/4 298/2/4
f 301/1/5 300/1/5 299/1/5
f 302/1/5 300/1/5 301/1/5
f 305/1/5 304/1/5 303/1/5
f 306/1/5 304/1/5 305/1/5
f 307/1/5 305/1/5 303/1/5
f 308/1/5 304/1/5 306/1/5
f 309/1/5 307/1/5 303/1/5
f 309/1/5 308/1/5 307/1/5
f 310/1/5 304/1/5 308/1/5
f 310/1/5 308/1/5 309/1/5
f 314/1/5 312/1/5 311/1/5
f 315/1/5 312/1/5 314/1/5
f 317/1/5 314/1/5 313/1/5
f 318/1/5 314/1/5 317/1/5
f 319/1/5 316/1/5 315/1/5
f 320/1/5 316/1/5 319/1/5
f 321/1/5 319/1/5 318/1/5
f 322/1/5 319/1/5 321/1/5
f 325/3/5 324/3/5 323/3/5
f 326/3/5 324/3/5 325/3/5
f 329/3/5 328/3/5 327/3/5
f 330/3/5 328/3/5 329/3/5
f 333/3/5 332/3/5 331/3/5
f 334/3/5 332/3/5 333/3/5
f 337/3/5 336/3/5 335/3/5
f 338/3/5 336/3/5 337/3/5
f 341/3/5 340/3/5 339/3/5
f 342/3/5 340/3/5 341/3/5
f 345/3/5 344/3/5 343/3/5
f 346/3/5 344/3/5 345/3/5
f 349/3/5 348/3/5 347/3/5
f 350/3/5 348/3/5 349/3/5
f 353/2/5 352/2/5 351/2/5
f 354/2/5 352/2/5 353/2/5
f 357/3/5 356/3/5 355/3/5
f 358/3/5 356/3/5 357/3/5
f 361/2/5 360/2/5 359/2/5
f 362/2/5 360/2/5 361/2/5
f 363/1/6 364/1/6 366/1/6
f 366/1/6 364/1/6 367/1/6
f 365/1/6 366/1/6 369/1/6
f 369/1/6 366/1/6 370/1/6
f 367/1/6 368/1/6 371/1/6
f 371/1/6 368/1/6 372/1/6
f 370/1/6 371/1/6 373/1/6
f 373/1/6 371/1/6 374/1/6
f 377/1/6 378/1/6 379/1/6
f 379/1/6 378/1/6 380/1/6
f 375/1/6 376/1/6 381/1/6
f 375/1/6 381/1/6 383/1/6
f 381/1/6 382/1/6 383/1/6
f 383/1/6 382/1/6 384/1/6
f 385/3/6 386/3/6 387/3/6
f 387/3/6 386/3/6 388/3/6
f 388/3/6 389/3/6 391/3/6
f 391/3/6 389/3/6 392/3/6
f 390/3/6 391/3/6 393/3/6
f 393/3/6 391/3/6 394/3/6
f 395/3/6 396/3/6 397/3/6
f 397/3/6 396/3/6 398/3/6
f 399/3/6 400/3/6 401/3/6
f 401/3/6 400/3/6 402/3/6
f 403/3/6 404/3/6 405/3/6
f 405/3/6 404/3/6 406/3/6
f 407/2/6 408/2/6 409/2/6
f 409/2/6 408/2/6 410/2/6
f 411/3/6 412/3/6 413/3/6
f 413/3/6 412/3/6 414/3/6
f 415/2/6 416/2/6 417/2/6
f 417/2/6 416/2/6 418/2/6
f 419/2/6 420/2/6 421/2/6
f 421/2/6 420/2/6 422/2/6
f 423/2/6 424/2/6 425/2/6
f 425/2/6 424/2/6 426/2/6
f 427/2/6 428/2/6 429/2/6
f 429/2/6 428/2/6 430/2/6
f 431/2/6 432/2/6 433/2/6
f 433/2/6 432/2/6 434/2/6
