# MagicaVoxel @ Ephtracy

# group
o 

# material
mtllib pepper_4.mtl
usemtl palette

# normals
vn -1 0 0
vn 1 0 0
vn 0 0 1
vn 0 0 -1
vn 0 -1 0
vn 0 1 0

# texcoords
vt 0.685547 0.5
vt 0.779297 0.5

# verts
v -0.3 0.1 0.3
v -0.3 0.1 0.2
v -0.3 0.3 0.3
v -0.3 0.3 0.2
v -0.3 0.4 0.3
v -0.3 0.4 0.2
v -0.2 -0.1 0.1
v -0.2 -0.1 0
v -0.2 -5.96046e-08 0.3
v -0.2 -5.96046e-08 0.2
v -0.2 -5.96046e-08 0.1
v -0.2 -5.96046e-08 0
v -0.2 0.1 0.3
v -0.2 0.1 0.2
v -0.2 0.4 0.3
v -0.2 0.4 0.2
v -0.2 0.5 0.3
v -0.2 0.5 0.2
v -0.1 -0.6 0
v -0.1 -0.6 -0.2
v -0.1 -0.5 0
v -0.1 -0.5 -0.2
v -0.1 -5.96046e-08 0.1
v -0.1 -5.96046e-08 0
v -0.1 0.2 0.1
v -0.1 0.2 0
v 0 -0.6 0.1
v 0 -0.6 0
v 0 -0.5 0.3
v 0 -0.5 0.2
v 0 -0.5 0.1
v 0 -0.5 0
v 0 -0.5 -0.1
v 0 -0.4 0.3
v 0 -0.4 0.2
v 0 -0.4 0.1
v 0 -0.2 0.2
v 0 -0.2 0.1
v 0 -0.2 -0.2
v 0 -0.2 -0.3
v 0 -0.1 0.2
v 0 -0.1 0.1
v 0 -0.1 0
v 0 -0.1 -0.1
v 0 -0.1 -0.2
v 0 -0.1 -0.3
v 0 -5.96046e-08 0.1
v 0 -5.96046e-08 0
v 0 -5.96046e-08 -0.1
v 0 0.1 -0.1
v 0 0.1 -0.2
v 0 0.2 0.1
v 0 0.2 0
v 0 0.2 -0.1
v 0 0.2 -0.2
v 0 0.3 0.2
v 0 0.3 0.1
v 0 0.3 -0.1
v 0 0.4 0.2
v 0 0.4 0.1
v 0 0.5 0.3
v 0 0.5 0.2
v 0 0.6 0.3
v 0 0.6 0.2
v 0.1 -0.6 0.2
v 0.1 -0.6 0.1
v 0.1 -0.5 0.2
v 0.1 -0.5 0.1
v 0.1 -0.5 -0.1
v 0.1 -0.5 -0.2
v 0.1 -0.4 -0.1
v 0.1 -0.4 -0.2
v 0.1 -0.3 -0.1
v 0.1 -0.3 -0.2
v 0.2 -0.6 0
v 0.2 -0.6 -0.1
v 0.2 -0.6 -0.2
v 0.2 -0.6 -0.3
v 0.2 -0.5 0
v 0.2 -0.5 -0.1
v 0.2 -0.5 -0.2
v 0.2 -0.5 -0.3
v 0.3 -0.6 0.2
v 0.3 -0.6 0
v 0.3 -0.5 0.2
v 0.3 -0.5 0
v -0.2 0.1 0.3
v -0.2 0.1 0.2
v -0.2 0.3 0.3
v -0.2 0.3 0.2
v -0.2 0.4 0.3
v -0.2 0.4 0.2
v -0.1 -0.1 0.1
v -0.1 -0.1 0
v -0.1 -5.96046e-08 0.3
v -0.1 -5.96046e-08 0.2
v -0.1 -5.96046e-08 0.1
v -0.1 -5.96046e-08 0
v -0.1 0.1 0.3
v -0.1 0.1 0.2
v 0.1 -0.6 0
v 0.1 -0.6 -0.1
v 0.1 -0.5 0.3
v 0.1 -0.5 0.2
v 0.1 -0.5 0
v 0.1 -0.4 0.3
v 0.1 -0.4 0.2
v 0.1 -0.4 0.1
v 0.1 -0.4 -0.1
v 0.1 -0.3 -0.1
v 0.1 -0.2 0.2
v 0.1 -0.2 0.1
v 0.1 -0.2 -0.2
v 0.1 -0.2 -0.3
v 0.1 -0.1 0.2
v 0.1 -0.1 0.1
v 0.1 -0.1 0
v 0.1 -0.1 -0.1
v 0.1 -0.1 -0.2
v 0.1 -0.1 -0.3
v 0.1 -5.96046e-08 0
v 0.1 -5.96046e-08 -0.1
v 0.1 0.1 -0.1
v 0.1 0.1 -0.2
v 0.1 0.2 0
v 0.1 0.2 -0.1
v 0.1 0.2 -0.2
v 0.1 0.3 0.2
v 0.1 0.3 0.1
v 0.1 0.3 -0.1
v 0.1 0.4 0.3
v 0.1 0.4 0.2
v 0.1 0.4 0.1
v 0.1 0.6 0.3
v 0.1 0.6 0.2
v 0.2 -0.6 0.2
v 0.2 -0.6 0
v 0.2 -0.6 -0.1
v 0.2 -0.6 -0.2
v 0.2 -0.5 0.2
v 0.2 -0.5 0
v 0.2 -0.5 -0.1
v 0.2 -0.5 -0.2
v 0.2 -0.4 -0.1
v 0.2 -0.4 -0.2
v 0.2 -0.3 -0.1
v 0.2 -0.3 -0.2
v 0.3 -0.6 0
v 0.3 -0.6 -0.1
v 0.3 -0.6 -0.2
v 0.3 -0.6 -0.3
v 0.3 -0.5 0
v 0.3 -0.5 -0.1
v 0.3 -0.5 -0.2
v 0.3 -0.5 -0.3
v 0.4 -0.6 0.2
v 0.4 -0.6 0
v 0.4 -0.5 0.2
v 0.4 -0.5 0
v -0.3 0.1 0.3
v -0.3 0.3 0.3
v -0.3 0.4 0.3
v -0.2 -5.96046e-08 0.3
v -0.2 0.1 0.3
v -0.2 0.3 0.3
v -0.2 0.4 0.3
v -0.2 0.5 0.3
v -0.1 -5.96046e-08 0.3
v -0.1 0.1 0.3
v 0 -0.5 0.3
v 0 -0.4 0.3
v 0 0.5 0.3
v 0 0.6 0.3
v 0.1 -0.5 0.3
v 0.1 -0.4 0.3
v 0.1 0.4 0.3
v 0.1 0.6 0.3
v 0 -0.4 0.2
v 0 -0.2 0.2
v 0 -0.1 0.2
v 0 0.3 0.2
v 0 0.4 0.2
v 0.1 -0.6 0.2
v 0.1 -0.5 0.2
v 0.1 -0.4 0.2
v 0.1 -0.2 0.2
v 0.1 -0.1 0.2
v 0.1 0.3 0.2
v 0.1 0.4 0.2
v 0.2 -0.6 0.2
v 0.2 -0.5 0.2
v 0.3 -0.6 0.2
v 0.3 -0.5 0.2
v 0.4 -0.6 0.2
v 0.4 -0.5 0.2
v -0.2 -0.1 0.1
v -0.2 -5.96046e-08 0.1
v -0.1 -0.1 0.1
v -0.1 -5.96046e-08 0.1
v -0.1 0.2 0.1
v 0 -0.6 0.1
v 0 -0.5 0.1
v 0 -0.1 0.1
v 0 -5.96046e-08 0.1
v 0 0.2 0.1
v 0 0.3 0.1
v 0.1 -0.6 0.1
v 0.1 -0.5 0.1
v 0.1 -0.1 0.1
v 0.1 0.3 0.1
v -0.1 -0.6 0
v -0.1 -0.5 0
v 0 -0.6 0
v 0 -0.5 0
v 0 -0.1 0
v 0.1 -0.5 0
v 0.1 -0.1 0
v 0.2 -0.6 0
v 0.2 -0.5 0
v 0.3 -0.6 0
v 0.3 -0.5 0
v 0 -5.96046e-08 -0.1
v 0 0.1 -0.1
v 0 0.2 -0.1
v 0.1 -0.6 -0.1
v 0.1 -0.4 -0.1
v 0.1 -0.3 -0.1
v 0.1 -5.96046e-08 -0.1
v 0.1 0.1 -0.1
v 0.1 0.2 -0.1
v 0.2 -0.6 -0.1
v 0.2 -0.5 -0.1
v 0.2 -0.4 -0.1
v 0.2 -0.3 -0.1
v 0 -0.2 -0.2
v 0 -0.1 -0.2
v 0.1 -0.2 -0.2
v 0.1 -0.1 -0.2
v 0.2 -0.6 -0.2
v 0.2 -0.5 -0.2
v 0.3 -0.6 -0.2
v 0.3 -0.5 -0.2
v -0.3 0.1 0.2
v -0.3 0.3 0.2
v -0.3 0.4 0.2
v -0.2 -5.96046e-08 0.2
v -0.2 0.1 0.2
v -0.2 0.3 0.2
v -0.2 0.4 0.2
v -0.2 0.5 0.2
v -0.1 -5.96046e-08 0.2
v -0.1 0.1 0.2
v 0 -0.5 0.2
v 0 -0.4 0.2
v 0 0.4 0.2
v 0 0.5 0.2
v 0 0.6 0.2
v 0.1 -0.5 0.2
v 0.1 -0.4 0.2
v 0.1 0.4 0.2
v 0.1 0.6 0.2
v 0 -0.4 0.1
v 0 -0.2 0.1
v 0 -0.1 0.1
v 0 0.3 0.1
v 0 0.4 0.1
v 0.1 -0.4 0.1
v 0.1 -0.2 0.1
v 0.1 -0.1 0.1
v 0.1 0.3 0.1
v 0.1 0.4 0.1
v -0.2 -0.1 0
v -0.2 -5.96046e-08 0
v -0.1 -0.1 0
v -0.1 -5.96046e-08 0
v -0.1 0.2 0
v 0 -5.96046e-08 0
v 0 0.2 0
v 0.1 -0.6 0
v 0.1 -0.5 0
v 0.1 -5.96046e-08 0
v 0.1 0.2 0
v 0.2 -0.6 0
v 0.2 -0.5 0
v 0.3 -0.6 0
v 0.3 -0.5 0
v 0.4 -0.6 0
v 0.4 -0.5 0
v 0 -0.5 -0.1
v 0 -0.1 -0.1
v 0 0.2 -0.1
v 0 0.3 -0.1
v 0.1 -0.5 -0.1
v 0.1 -0.4 -0.1
v 0.1 -0.3 -0.1
v 0.1 -0.1 -0.1
v 0.1 0.2 -0.1
v 0.1 0.3 -0.1
v 0.2 -0.6 -0.1
v 0.2 -0.5 -0.1
v 0.3 -0.6 -0.1
v 0.3 -0.5 -0.1
v -0.1 -0.6 -0.2
v -0.1 -0.5 -0.2
v 0 -0.1 -0.2
v 0 0.1 -0.2
v 0 0.2 -0.2
v 0.1 -0.6 -0.2
v 0.1 -0.5 -0.2
v 0.1 -0.4 -0.2
v 0.1 -0.3 -0.2
v 0.1 -0.1 -0.2
v 0.1 0.1 -0.2
v 0.1 0.2 -0.2
v 0.2 -0.6 -0.2
v 0.2 -0.5 -0.2
v 0.2 -0.4 -0.2
v 0.2 -0.3 -0.2
v 0 -0.2 -0.3
v 0 -0.1 -0.3
v 0.1 -0.2 -0.3
v 0.1 -0.1 -0.3
v 0.2 -0.6 -0.3
v 0.2 -0.5 -0.3
v 0.3 -0.6 -0.3
v 0.3 -0.5 -0.3
v 0.1 -0.6 0.2
v 0.2 -0.6 0.2
v 0.3 -0.6 0.2
v 0.4 -0.6 0.2
v 0 -0.6 0.1
v 0.1 -0.6 0.1
v -0.1 -0.6 0
v 0 -0.6 0
v 0.1 -0.6 0
v 0.2 -0.6 0
v 0.3 -0.6 0
v 0.4 -0.6 0
v 0.1 -0.6 -0.1
v 0.2 -0.6 -0.1
v 0.3 -0.6 -0.1
v -0.1 -0.6 -0.2
v 0.1 -0.6 -0.2
v 0.2 -0.6 -0.2
v 0.3 -0.6 -0.2
v 0.2 -0.6 -0.3
v 0.3 -0.6 -0.3
v 0 -0.5 0.3
v 0.1 -0.5 0.3
v 0 -0.5 0.2
v 0.1 -0.5 0.2
v 0 -0.4 0.2
v 0.1 -0.4 0.2
v 0 -0.4 0.1
v 0.1 -0.4 0.1
v 0 -0.2 -0.2
v 0.1 -0.2 -0.2
v 0 -0.2 -0.3
v 0.1 -0.2 -0.3
v -0.2 -0.1 0.1
v -0.1 -0.1 0.1
v 0 -0.1 0.1
v 0.1 -0.1 0.1
v -0.2 -0.1 0
v -0.1 -0.1 0
v 0 -0.1 0
v 0.1 -0.1 0
v 0 -0.1 -0.1
v 0.1 -0.1 -0.1
v 0 -0.1 -0.2
v 0.1 -0.1 -0.2
v -0.2 -5.96046e-08 0.3
v -0.1 -5.96046e-08 0.3
v -0.2 -5.96046e-08 0.2
v -0.1 -5.96046e-08 0.2
v -0.1 -5.96046e-08 0.1
v 0 -5.96046e-08 0.1
v -0.1 -5.96046e-08 0
v 0 -5.96046e-08 0
v -0.3 0.1 0.3
v -0.2 0.1 0.3
v -0.3 0.1 0.2
v -0.2 0.1 0.2
v 0 0.2 0
v 0.1 0.2 0
v 0 0.2 -0.1
v 0.1 0.2 -0.1
v 0 0.3 0.2
v 0.1 0.3 0.2
v 0 0.3 0.1
v 0.1 0.3 0.1
v -0.2 0.4 0.3
v 0.1 0.4 0.3
v -0.2 0.4 0.2
v 0 0.4 0.2
v 0.1 0.4 0.2
v 0.1 -0.5 0.2
v 0.2 -0.5 0.2
v 0.3 -0.5 0.2
v 0.4 -0.5 0.2
v 0 -0.5 0.1
v 0.1 -0.5 0.1
v -0.1 -0.5 0
v 0 -0.5 0
v 0.1 -0.5 0
v 0.2 -0.5 0
v 0.3 -0.5 0
v 0.4 -0.5 0
v 0 -0.5 -0.1
v 0.1 -0.5 -0.1
v 0.2 -0.5 -0.1
v 0.3 -0.5 -0.1
v -0.1 -0.5 -0.2
v 0.1 -0.5 -0.2
v 0.2 -0.5 -0.2
v 0.3 -0.5 -0.2
v 0.2 -0.5 -0.3
v 0.3 -0.5 -0.3
v 0 -0.4 0.3
v 0.1 -0.4 0.3
v 0 -0.4 0.2
v 0.1 -0.4 0.2
v 0.1 -0.3 -0.1
v 0.2 -0.3 -0.1
v 0.1 -0.3 -0.2
v 0.2 -0.3 -0.2
v 0 -0.1 0.2
v 0.1 -0.1 0.2
v 0 -0.1 0.1
v 0.1 -0.1 0.1
v 0 -0.1 -0.2
v 0.1 -0.1 -0.2
v 0 -0.1 -0.3
v 0.1 -0.1 -0.3
v -0.2 -5.96046e-08 0.1
v -0.1 -5.96046e-08 0.1
v -0.2 -5.96046e-08 0
v -0.1 -5.96046e-08 0
v 0 -5.96046e-08 0
v 0.1 -5.96046e-08 0
v 0 -5.96046e-08 -0.1
v 0.1 -5.96046e-08 -0.1
v -0.2 0.1 0.3
v -0.1 0.1 0.3
v -0.2 0.1 0.2
v -0.1 0.1 0.2
v -0.1 0.2 0.1
v 0 0.2 0.1
v -0.1 0.2 0
v 0 0.2 0
v 0 0.2 -0.1
v 0.1 0.2 -0.1
v 0 0.2 -0.2
v 0.1 0.2 -0.2
v 0 0.3 0.1
v 0.1 0.3 0.1
v 0 0.3 -0.1
v 0.1 0.3 -0.1
v -0.3 0.4 0.3
v -0.2 0.4 0.3
v -0.3 0.4 0.2
v -0.2 0.4 0.2
v 0 0.4 0.2
v 0.1 0.4 0.2
v 0 0.4 0.1
v 0.1 0.4 0.1
v -0.2 0.5 0.3
v 0 0.5 0.3
v -0.2 0.5 0.2
v 0 0.5 0.2
v 0 0.6 0.3
v 0.1 0.6 0.3
v 0 0.6 0.2
v 0.1 0.6 0.2

# faces
f 3/1/1 2/1/1 1/1/1
f 4/1/1 2/1/1 3/1/1
f 5/2/1 4/2/1 3/2/1
f 6/2/1 4/2/1 5/2/1
f 11/1/1 8/1/1 7/1/1
f 12/1/1 8/1/1 11/1/1
f 13/1/1 10/1/1 9/1/1
f 14/1/1 10/1/1 13/1/1
f 17/2/1 16/2/1 15/2/1
f 18/2/1 16/2/1 17/2/1
f 21/2/1 20/2/1 19/2/1
f 22/2/1 20/2/1 21/2/1
f 25/1/1 24/1/1 23/1/1
f 26/1/1 24/1/1 25/1/1
f 31/2/1 28/2/1 27/2/1
f 32/2/1 28/2/1 31/2/1
f 34/1/1 30/1/1 29/1/1
f 35/1/1 30/1/1 34/1/1
f 37/1/1 36/1/1 35/1/1
f 38/1/1 36/1/1 37/1/1
f 41/2/1 38/2/1 37/2/1
f 42/2/1 38/2/1 41/2/1
f 43/2/1 33/2/1 32/2/1
f 44/2/1 33/2/1 43/2/1
f 45/1/1 40/1/1 39/1/1
f 46/1/1 40/1/1 45/1/1
f 47/2/1 44/2/1 43/2/1
f 47/2/1 43/2/1 42/2/1
f 48/2/1 44/2/1 47/2/1
f 49/1/1 45/1/1 44/1/1
f 49/2/1 44/2/1 48/2/1
f 50/1/1 45/1/1 49/1/1
f 51/1/1 45/1/1 50/1/1
f 54/2/1 51/2/1 50/2/1
f 55/2/1 51/2/1 54/2/1
f 57/2/1 53/2/1 52/2/1
f 57/2/1 54/2/1 53/2/1
f 58/2/1 54/2/1 57/2/1
f 59/2/1 57/2/1 56/2/1
f 60/2/1 57/2/1 59/2/1
f 63/2/1 62/2/1 61/2/1
f 64/2/1 62/2/1 63/2/1
f 67/2/1 66/2/1 65/2/1
f 68/2/1 66/2/1 67/2/1
f 71/1/1 70/1/1 69/1/1
f 72/1/1 70/1/1 71/1/1
f 73/2/1 72/2/1 71/2/1
f 74/2/1 72/2/1 73/2/1
f 79/2/1 76/2/1 75/2/1
f 80/2/1 76/2/1 79/2/1
f 81/1/1 78/1/1 77/1/1
f 82/1/1 78/1/1 81/1/1
f 85/1/1 84/1/1 83/1/1
f 86/1/1 84/1/1 85/1/1
f 87/1/2 88/1/2 89/1/2
f 89/1/2 88/1/2 90/1/2
f 89/2/2 90/2/2 91/2/2
f 91/2/2 90/2/2 92/2/2
f 93/1/2 94/1/2 97/1/2
f 97/1/2 94/1/2 98/1/2
f 95/1/2 96/1/2 99/1/2
f 99/1/2 96/1/2 100/1/2
f 101/2/2 102/2/2 105/2/2
f 103/1/2 104/1/2 106/1/2
f 106/1/2 104/1/2 107/1/2
f 105/2/2 102/2/2 109/2/2
f 105/2/2 109/2/2 110/2/2
f 107/1/2 108/1/2 111/1/2
f 111/1/2 108/1/2 112/1/2
f 111/2/2 112/2/2 115/2/2
f 115/2/2 112/2/2 116/2/2
f 105/2/2 110/2/2 117/2/2
f 117/2/2 110/2/2 118/2/2
f 113/1/2 114/1/2 119/1/2
f 119/1/2 114/1/2 120/1/2
f 117/2/2 118/2/2 121/2/2
f 116/2/2 117/2/2 121/2/2
f 118/1/2 119/1/2 122/1/2
f 121/2/2 118/2/2 122/2/2
f 122/1/2 119/1/2 123/1/2
f 123/1/2 119/1/2 124/1/2
f 116/2/2 121/2/2 125/2/2
f 123/2/2 124/2/2 126/2/2
f 126/2/2 124/2/2 127/2/2
f 116/2/2 125/2/2 129/2/2
f 125/2/2 126/2/2 129/2/2
f 129/2/2 126/2/2 130/2/2
f 128/2/2 129/2/2 132/2/2
f 132/2/2 129/2/2 133/2/2
f 131/2/2 132/2/2 134/2/2
f 134/2/2 132/2/2 135/2/2
f 136/2/2 137/2/2 140/2/2
f 140/2/2 137/2/2 141/2/2
f 138/1/2 139/1/2 142/1/2
f 142/1/2 139/1/2 143/1/2
f 142/1/2 143/1/2 144/1/2
f 144/1/2 143/1/2 145/1/2
f 144/2/2 145/2/2 146/2/2
f 146/2/2 145/2/2 147/2/2
f 148/2/2 149/2/2 152/2/2
f 152/2/2 149/2/2 153/2/2
f 150/1/2 151/1/2 154/1/2
f 154/1/2 151/1/2 155/1/2
f 156/1/2 157/1/2 158/1/2
f 158/1/2 157/1/2 159/1/2
f 164/1/3 161/1/3 160/1/3
f 165/2/3 162/2/3 161/2/3
f 165/1/3 161/1/3 164/1/3
f 166/2/3 162/2/3 165/2/3
f 168/1/3 164/1/3 163/1/3
f 169/1/3 164/1/3 168/1/3
f 172/2/3 167/2/3 166/2/3
f 174/1/3 171/1/3 170/1/3
f 175/1/3 171/1/3 174/1/3
f 176/2/3 173/2/3 172/2/3
f 176/2/3 172/2/3 166/2/3
f 177/2/3 173/2/3 176/2/3
f 185/1/3 179/1/3 178/1/3
f 186/2/3 180/2/3 179/2/3
f 186/1/3 179/1/3 185/1/3
f 187/2/3 180/2/3 186/2/3
f 188/2/3 182/2/3 181/2/3
f 189/2/3 182/2/3 188/2/3
f 190/2/3 184/2/3 183/2/3
f 191/2/3 184/2/3 190/2/3
f 194/1/3 193/1/3 192/1/3
f 195/1/3 193/1/3 194/1/3
f 198/1/3 197/1/3 196/1/3
f 199/1/3 197/1/3 198/1/3
f 204/1/3 200/1/3 199/1/3
f 205/1/3 200/1/3 204/1/3
f 207/2/3 202/2/3 201/2/3
f 208/2/3 202/2/3 207/2/3
f 209/2/3 206/2/3 205/2/3
f 209/2/3 204/2/3 203/2/3
f 209/2/3 205/2/3 204/2/3
f 210/2/3 206/2/3 209/2/3
f 213/2/3 212/2/3 211/2/3
f 214/2/3 212/2/3 213/2/3
f 216/2/3 215/2/3 214/2/3
f 217/2/3 215/2/3 216/2/3
f 220/2/3 219/2/3 218/2/3
f 221/2/3 219/2/3 220/2/3
f 228/1/3 223/1/3 222/1/3
f 229/2/3 224/2/3 223/2/3
f 229/1/3 223/1/3 228/1/3
f 230/2/3 224/2/3 229/2/3
f 231/1/3 226/1/3 225/1/3
f 232/1/3 226/1/3 231/1/3
f 233/2/3 227/2/3 226/2/3
f 233/1/3 226/1/3 232/1/3
f 234/2/3 227/2/3 233/2/3
f 237/1/3 236/1/3 235/1/3
f 238/1/3 236/1/3 237/1/3
f 241/1/3 240/1/3 239/1/3
f 242/1/3 240/1/3 241/1/3
f 243/1/4 244/1/4 247/1/4
f 244/2/4 245/2/4 248/2/4
f 247/1/4 244/1/4 248/1/4
f 248/2/4 245/2/4 249/2/4
f 246/1/4 247/1/4 251/1/4
f 251/1/4 247/1/4 252/1/4
f 249/2/4 250/2/4 255/2/4
f 255/2/4 250/2/4 256/2/4
f 253/1/4 254/1/4 258/1/4
f 258/1/4 254/1/4 259/1/4
f 256/2/4 257/2/4 260/2/4
f 255/2/4 256/2/4 260/2/4
f 260/2/4 257/2/4 261/2/4
f 262/1/4 263/1/4 267/1/4
f 263/2/4 264/2/4 268/2/4
f 267/1/4 263/1/4 268/1/4
f 268/2/4 264/2/4 269/2/4
f 265/2/4 266/2/4 270/2/4
f 270/2/4 266/2/4 271/2/4
f 272/1/4 273/1/4 274/1/4
f 274/1/4 273/1/4 275/1/4
f 275/1/4 276/1/4 277/1/4
f 277/1/4 276/1/4 278/1/4
f 277/2/4 278/2/4 281/2/4
f 281/2/4 278/2/4 282/2/4
f 279/2/4 280/2/4 283/2/4
f 283/2/4 280/2/4 284/2/4
f 285/1/4 286/1/4 287/1/4
f 287/1/4 286/1/4 288/1/4
f 289/2/4 290/2/4 293/2/4
f 293/2/4 290/2/4 294/2/4
f 294/2/4 290/2/4 295/2/4
f 295/2/4 290/2/4 296/2/4
f 291/2/4 292/2/4 297/2/4
f 297/2/4 292/2/4 298/2/4
f 299/2/4 300/2/4 301/2/4
f 301/2/4 300/2/4 302/2/4
f 303/2/4 304/2/4 308/2/4
f 308/2/4 304/2/4 309/2/4
f 305/1/4 306/1/4 312/1/4
f 306/2/4 307/2/4 313/2/4
f 312/1/4 306/1/4 313/1/4
f 313/2/4 307/2/4 314/2/4
f 308/1/4 309/1/4 315/1/4
f 309/1/4 310/1/4 315/1/4
f 315/1/4 310/1/4 316/1/4
f 310/2/4 311/2/4 317/2/4
f 316/1/4 310/1/4 317/1/4
f 317/2/4 311/2/4 318/2/4
f 319/1/4 320/1/4 321/1/4
f 321/1/4 320/1/4 322/1/4
f 323/1/4 324/1/4 325/1/4
f 325/1/4 324/1/4 326/1/4
f 332/2/5 328/2/5 327/2/5
f 334/2/5 332/2/5 331/2/5
f 335/2/5 328/2/5 332/2/5
f 335/2/5 332/2/5 334/2/5
f 336/2/5 328/2/5 335/2/5
f 337/1/5 330/1/5 329/1/5
f 338/1/5 330/1/5 337/1/5
f 339/2/5 334/2/5 333/2/5
f 339/2/5 335/2/5 334/2/5
f 340/2/5 337/2/5 336/2/5
f 341/2/5 337/2/5 340/2/5
f 342/2/5 339/2/5 333/2/5
f 343/1/5 340/1/5 339/1/5
f 343/2/5 339/2/5 342/2/5
f 344/1/5 340/1/5 343/1/5
f 346/1/5 345/1/5 344/1/5
f 347/1/5 345/1/5 346/1/5
f 350/1/5 349/1/5 348/1/5
f 351/1/5 349/1/5 350/1/5
f 354/1/5 353/1/5 352/1/5
f 355/1/5 353/1/5 354/1/5
f 358/1/5 357/1/5 356/1/5
f 359/1/5 357/1/5 358/1/5
f 364/1/5 361/1/5 360/1/5
f 365/1/5 361/1/5 364/1/5
f 366/2/5 363/2/5 362/2/5
f 367/2/5 363/2/5 366/2/5
f 370/1/5 369/1/5 368/1/5
f 371/1/5 369/1/5 370/1/5
f 374/1/5 373/1/5 372/1/5
f 375/1/5 373/1/5 374/1/5
f 378/1/5 377/1/5 376/1/5
f 379/1/5 377/1/5 378/1/5
f 382/1/5 381/1/5 380/1/5
f 383/1/5 381/1/5 382/1/5
f 386/2/5 385/2/5 384/2/5
f 387/2/5 385/2/5 386/2/5
f 390/2/5 389/2/5 388/2/5
f 391/2/5 389/2/5 390/2/5
f 394/2/5 393/2/5 392/2/5
f 395/2/5 393/2/5 394/2/5
f 396/2/5 393/2/5 395/2/5
f 397/2/6 398/2/6 402/2/6
f 401/2/6 402/2/6 404/2/6
f 402/2/6 398/2/6 405/2/6
f 404/2/6 402/2/6 405/2/6
f 405/2/6 398/2/6 406/2/6
f 399/1/6 400/1/6 407/1/6
f 407/1/6 400/1/6 408/1/6
f 403/2/6 404/2/6 409/2/6
f 406/2/6 407/2/6 411/2/6
f 411/2/6 407/2/6 412/2/6
f 409/2/6 410/2/6 413/2/6
f 403/2/6 409/2/6 413/2/6
f 413/2/6 410/2/6 414/2/6
f 415/1/6 416/1/6 417/1/6
f 417/1/6 416/1/6 418/1/6
f 419/1/6 420/1/6 421/1/6
f 421/1/6 420/1/6 422/1/6
f 423/2/6 424/2/6 425/2/6
f 425/2/6 424/2/6 426/2/6
f 427/2/6 428/2/6 429/2/6
f 429/2/6 428/2/6 430/2/6
f 431/1/6 432/1/6 433/1/6
f 433/1/6 432/1/6 434/1/6
f 435/1/6 436/1/6 437/1/6
f 437/1/6 436/1/6 438/1/6
f 439/2/6 440/2/6 441/2/6
f 441/2/6 440/2/6 442/2/6
f 443/1/6 444/1/6 445/1/6
f 445/1/6 444/1/6 446/1/6
f 447/1/6 448/1/6 449/1/6
f 449/1/6 448/1/6 450/1/6
f 451/2/6 452/2/6 453/2/6
f 453/2/6 452/2/6 454/2/6
f 455/2/6 456/2/6 457/2/6
f 457/2/6 456/2/6 458/2/6
f 459/2/6 460/2/6 461/2/6
f 461/2/6 460/2/6 462/2/6
f 463/2/6 464/2/6 465/2/6
f 465/2/6 464/2/6 466/2/6
f 467/2/6 468/2/6 469/2/6
f 469/2/6 468/2/6 470/2/6
f 471/2/6 472/2/6 473/2/6
f 473/2/6 472/2/6 474/2/6
