# MagicaVoxel @ Ephtracy

# group
o 

# material
mtllib pepper_6.mtl
usemtl palette

# normals
vn -1 0 0
vn 1 0 0
vn 0 0 1
vn 0 0 -1
vn 0 -1 0
vn 0 1 0

# texcoords
vt 0.685547 0.5
vt 0.716797 0.5
vt 0.779297 0.5

# verts
v -0.1 -0.5 0
v -0.1 -0.5 -0.1
v -0.1 -0.4 0.1
v -0.1 -0.4 0
v -0.1 -0.3 0
v -0.1 -0.3 -0.1
v -0.1 -0.2 0.2
v -0.1 -0.2 0.1
v -0.1 0.2 0.2
v -0.1 0.2 0
v -0.1 0.3 0.1
v -0.1 0.3 0
v -0.1 0.4 0.1
v -0.1 0.4 0
v 0 -0.6 0
v 0 -0.6 -0.3
v 0 -0.5 0.1
v 0 -0.5 0
v 0 -0.5 -0.1
v 0 -0.5 -0.2
v 0 -0.5 -0.3
v 0 -0.4 0.2
v 0 -0.4 0.1
v 0 -0.4 0
v 0 -0.3 0
v 0 -0.3 -0.1
v 0 -0.3 -0.2
v 0 -0.2 0.3
v 0 -0.2 0.2
v 0 -0.2 0.1
v 0 0.1 0
v 0 0.1 -0.1
v 0 0.2 0.3
v 0 0.2 0.2
v 0 0.2 0.1
v 0 0.2 0
v 0 0.3 0.2
v 0 0.3 0.1
v 0 0.3 0
v 0 0.4 0.2
v 0 0.4 0.1
v 0 0.4 0
v 0 0.5 0.2
v 0 0.5 0.1
v 0 0.5 0
v 0 0.5 -0.1
v 0 0.6 0.1
v 0 0.6 -0.1
v 0.1 -0.6 0
v 0.1 -0.6 -0.3
v 0.1 -0.5 0.1
v 0.1 -0.5 0
v 0.1 -0.5 -0.1
v 0.1 -0.5 -0.2
v 0.1 -0.5 -0.3
v 0.1 -0.4 0.2
v 0.1 -0.4 0.1
v 0.1 -0.4 0
v 0.1 -0.3 0
v 0.1 -0.3 -0.1
v 0.1 -0.3 -0.2
v 0.1 -0.2 0.3
v 0.1 -0.2 0.2
v 0.1 -0.2 0.1
v 0.1 0.1 0
v 0.1 0.1 -0.1
v 0.1 0.2 0.3
v 0.1 0.2 0.2
v 0.1 0.2 0.1
v 0.1 0.2 0
v 0.1 0.3 0.2
v 0.1 0.3 0.1
v 0.1 0.3 0
v 0.1 0.4 0.2
v 0.1 0.4 0.1
v 0.1 0.4 0
v 0.1 0.5 0.2
v 0.1 0.5 0.1
v 0.1 0.5 0
v 0.1 0.5 -0.1
v 0.1 0.6 0.1
v 0.1 0.6 -0.1
v 0.2 -0.5 0
v 0.2 -0.5 -0.1
v 0.2 -0.4 0.1
v 0.2 -0.4 0
v 0.2 -0.3 0
v 0.2 -0.3 -0.1
v 0.2 -0.2 0.2
v 0.2 -0.2 0.1
v 0.2 0.2 0.2
v 0.2 0.2 0
v 0.2 0.3 0.1
v 0.2 0.3 0
v 0.2 0.4 0.1
v 0.2 0.4 0
v 0 -0.2 0.3
v 0 0.2 0.3
v 0.1 -0.2 0.3
v 0.1 0.2 0.3
v -0.1 -0.2 0.2
v -0.1 0.2 0.2
v 0 -0.4 0.2
v 0 -0.2 0.2
v 0 0.2 0.2
v 0 0.3 0.2
v 0 0.4 0.2
v 0 0.5 0.2
v 0.1 -0.4 0.2
v 0.1 -0.2 0.2
v 0.1 0.2 0.2
v 0.1 0.3 0.2
v 0.1 0.4 0.2
v 0.1 0.5 0.2
v 0.2 -0.2 0.2
v 0.2 0.2 0.2
v -0.1 -0.4 0.1
v -0.1 -0.2 0.1
v -0.1 0.3 0.1
v -0.1 0.4 0.1
v 0 -0.5 0.1
v 0 -0.4 0.1
v 0 -0.2 0.1
v 0 0.2 0.1
v 0 0.3 0.1
v 0 0.4 0.1
v 0 0.5 0.1
v 0 0.6 0.1
v 0.1 -0.5 0.1
v 0.1 -0.4 0.1
v 0.1 -0.2 0.1
v 0.1 0.2 0.1
v 0.1 0.3 0.1
v 0.1 0.4 0.1
v 0.1 0.5 0.1
v 0.1 0.6 0.1
v 0.2 -0.4 0.1
v 0.2 -0.2 0.1
v 0.2 0.3 0.1
v 0.2 0.4 0.1
v -0.1 -0.5 0
v -0.1 -0.4 0
v 0 -0.6 0
v 0 -0.5 0
v 0 -0.4 0
v 0.1 -0.6 0
v 0.1 -0.5 0
v 0.1 -0.4 0
v 0.2 -0.5 0
v 0.2 -0.4 0
v -0.1 -0.3 0
v -0.1 0.2 0
v -0.1 0.3 0
v -0.1 0.4 0
v 0 -0.3 0
v 0 0.1 0
v 0 0.2 0
v 0 0.3 0
v 0 0.4 0
v 0 0.5 0
v 0.1 -0.3 0
v 0.1 0.1 0
v 0.1 0.2 0
v 0.1 0.3 0
v 0.1 0.4 0
v 0.1 0.5 0
v 0.2 -0.3 0
v 0.2 0.2 0
v 0.2 0.3 0
v 0.2 0.4 0
v -0.1 -0.5 -0.1
v -0.1 -0.3 -0.1
v 0 -0.5 -0.1
v 0 -0.3 -0.1
v 0 0.1 -0.1
v 0 0.5 -0.1
v 0 0.6 -0.1
v 0.1 -0.5 -0.1
v 0.1 -0.3 -0.1
v 0.1 0.1 -0.1
v 0.1 0.5 -0.1
v 0.1 0.6 -0.1
v 0.2 -0.5 -0.1
v 0.2 -0.3 -0.1
v 0 -0.5 -0.2
v 0 -0.3 -0.2
v 0.1 -0.5 -0.2
v 0.1 -0.3 -0.2
v 0 -0.6 -0.3
v 0 -0.5 -0.3
v 0.1 -0.6 -0.3
v 0.1 -0.5 -0.3
v 0 -0.6 0
v 0.1 -0.6 0
v 0 -0.6 -0.3
v 0.1 -0.6 -0.3
v 0 -0.5 0.1
v 0.1 -0.5 0.1
v -0.1 -0.5 0
v 0 -0.5 0
v 0.1 -0.5 0
v 0.2 -0.5 0
v -0.1 -0.5 -0.1
v 0 -0.5 -0.1
v 0.1 -0.5 -0.1
v 0.2 -0.5 -0.1
v 0 -0.4 0.2
v 0.1 -0.4 0.2
v -0.1 -0.4 0.1
v 0 -0.4 0.1
v 0.1 -0.4 0.1
v 0.2 -0.4 0.1
v -0.1 -0.4 0
v 0 -0.4 0
v 0.1 -0.4 0
v 0.2 -0.4 0
v 0 -0.2 0.3
v 0.1 -0.2 0.3
v -0.1 -0.2 0.2
v 0 -0.2 0.2
v 0.1 -0.2 0.2
v 0.2 -0.2 0.2
v -0.1 -0.2 0.1
v 0 -0.2 0.1
v 0.1 -0.2 0.1
v 0.2 -0.2 0.1
v 0 0.3 0.2
v 0.1 0.3 0.2
v -0.1 0.3 0.1
v 0 0.3 0.1
v 0.1 0.3 0.1
v 0.2 0.3 0.1
v -0.1 0.3 0
v 0 0.3 0
v 0.1 0.3 0
v 0.2 0.3 0
v 0 0.5 0
v 0.1 0.5 0
v 0 0.5 -0.1
v 0.1 0.5 -0.1
v 0 -0.5 -0.2
v 0.1 -0.5 -0.2
v 0 -0.5 -0.3
v 0.1 -0.5 -0.3
v -0.1 -0.3 0
v 0 -0.3 0
v 0.1 -0.3 0
v 0.2 -0.3 0
v -0.1 -0.3 -0.1
v 0 -0.3 -0.1
v 0.1 -0.3 -0.1
v 0.2 -0.3 -0.1
v 0 -0.3 -0.2
v 0.1 -0.3 -0.2
v 0 0.1 0
v 0.1 0.1 0
v 0 0.1 -0.1
v 0.1 0.1 -0.1
v 0 0.2 0.3
v 0.1 0.2 0.3
v -0.1 0.2 0.2
v 0 0.2 0.2
v 0.1 0.2 0.2
v 0.2 0.2 0.2
v 0 0.2 0.1
v 0.1 0.2 0.1
v -0.1 0.2 0
v 0 0.2 0
v 0.1 0.2 0
v 0.2 0.2 0
v -0.1 0.4 0.1
v 0 0.4 0.1
v 0.1 0.4 0.1
v 0.2 0.4 0.1
v -0.1 0.4 0
v 0 0.4 0
v 0.1 0.4 0
v 0.2 0.4 0
v 0 0.5 0.2
v 0.1 0.5 0.2
v 0 0.5 0.1
v 0.1 0.5 0.1
v 0 0.6 0.1
v 0.1 0.6 0.1
v 0 0.6 -0.1
v 0.1 0.6 -0.1

# faces
f 4/2/1 2/2/1 1/2/1
f 5/2/1 2/2/1 4/2/1
f 5/2/1 4/2/1 3/2/1
f 6/2/1 2/2/1 5/2/1
f 8/2/1 5/2/1 3/2/1
f 9/2/1 8/2/1 7/2/1
f 10/2/1 5/2/1 8/2/1
f 10/2/1 8/2/1 9/2/1
f 13/3/1 12/3/1 11/3/1
f 14/3/1 12/3/1 13/3/1
f 18/2/1 16/2/1 15/2/1
f 19/2/1 16/2/1 18/2/1
f 20/2/1 16/2/1 19/2/1
f 21/2/1 16/2/1 20/2/1
f 23/2/1 18/2/1 17/2/1
f 24/2/1 18/2/1 23/2/1
f 26/2/1 20/2/1 19/2/1
f 27/2/1 20/2/1 26/2/1
f 29/2/1 23/2/1 22/2/1
f 30/2/1 23/2/1 29/2/1
f 31/2/1 26/2/1 25/2/1
f 32/2/1 26/2/1 31/2/1
f 33/2/1 29/2/1 28/2/1
f 34/2/1 29/2/1 33/2/1
f 38/1/1 36/1/1 35/1/1
f 39/1/1 36/1/1 38/1/1
f 40/1/1 38/1/1 37/1/1
f 41/1/1 38/1/1 40/1/1
f 43/3/1 41/3/1 40/3/1
f 43/3/1 42/3/1 41/3/1
f 44/3/1 42/3/1 43/3/1
f 45/3/1 42/3/1 44/3/1
f 47/3/1 45/3/1 44/3/1
f 47/3/1 46/3/1 45/3/1
f 48/3/1 46/3/1 47/3/1
f 49/2/2 50/2/2 52/2/2
f 52/2/2 50/2/2 53/2/2
f 53/2/2 50/2/2 54/2/2
f 54/2/2 50/2/2 55/2/2
f 51/2/2 52/2/2 57/2/2
f 57/2/2 52/2/2 58/2/2
f 53/2/2 54/2/2 60/2/2
f 60/2/2 54/2/2 61/2/2
f 56/2/2 57/2/2 63/2/2
f 63/2/2 57/2/2 64/2/2
f 59/2/2 60/2/2 65/2/2
f 65/2/2 60/2/2 66/2/2
f 62/2/2 63/2/2 67/2/2
f 67/2/2 63/2/2 68/2/2
f 69/1/2 70/1/2 72/1/2
f 72/1/2 70/1/2 73/1/2
f 71/1/2 72/1/2 74/1/2
f 74/1/2 72/1/2 75/1/2
f 74/3/2 75/3/2 77/3/2
f 75/3/2 76/3/2 77/3/2
f 77/3/2 76/3/2 78/3/2
f 78/3/2 76/3/2 79/3/2
f 78/3/2 79/3/2 81/3/2
f 79/3/2 80/3/2 81/3/2
f 81/3/2 80/3/2 82/3/2
f 83/2/2 84/2/2 86/2/2
f 86/2/2 84/2/2 87/2/2
f 85/2/2 86/2/2 87/2/2
f 87/2/2 84/2/2 88/2/2
f 85/2/2 87/2/2 90/2/2
f 89/2/2 90/2/2 91/2/2
f 90/2/2 87/2/2 92/2/2
f 91/2/2 90/2/2 92/2/2
f 93/3/2 94/3/2 95/3/2
f 95/3/2 94/3/2 96/3/2
f 99/2/3 98/2/3 97/2/3
f 100/2/3 98/2/3 99/2/3
f 104/2/3 102/2/3 101/2/3
f 105/2/3 102/2/3 104/2/3
f 109/2/3 104/2/3 103/2/3
f 110/2/3 104/2/3 109/2/3
f 112/1/3 107/1/3 106/1/3
f 113/3/3 108/3/3 107/3/3
f 113/1/3 107/1/3 112/1/3
f 114/3/3 108/3/3 113/3/3
f 115/2/3 111/2/3 110/2/3
f 116/2/3 111/2/3 115/2/3
f 122/2/3 118/2/3 117/2/3
f 123/2/3 118/2/3 122/2/3
f 125/3/3 120/3/3 119/3/3
f 126/3/3 120/3/3 125/3/3
f 129/2/3 122/2/3 121/2/3
f 130/2/3 122/2/3 129/2/3
f 132/1/3 125/1/3 124/1/3
f 133/1/3 125/1/3 132/1/3
f 135/3/3 128/3/3 127/3/3
f 136/3/3 128/3/3 135/3/3
f 137/2/3 131/2/3 130/2/3
f 138/2/3 131/2/3 137/2/3
f 139/3/3 134/3/3 133/3/3
f 140/3/3 134/3/3 139/3/3
f 144/2/3 142/2/3 141/2/3
f 145/2/3 142/2/3 144/2/3
f 146/2/3 144/2/3 143/2/3
f 147/2/3 144/2/3 146/2/3
f 149/2/3 148/2/3 147/2/3
f 150/2/3 148/2/3 149/2/3
f 151/2/4 152/2/4 155/2/4
f 155/2/4 152/2/4 156/2/4
f 156/2/4 152/2/4 157/2/4
f 153/3/4 154/3/4 158/3/4
f 158/3/4 154/3/4 159/3/4
f 156/2/4 157/2/4 162/2/4
f 157/1/4 158/1/4 163/1/4
f 162/2/4 157/2/4 163/2/4
f 158/3/4 159/3/4 164/3/4
f 163/1/4 158/1/4 164/1/4
f 159/3/4 160/3/4 164/3/4
f 164/3/4 160/3/4 165/3/4
f 165/3/4 160/3/4 166/3/4
f 162/2/4 163/2/4 167/2/4
f 161/2/4 162/2/4 167/2/4
f 167/2/4 163/2/4 168/2/4
f 164/3/4 165/3/4 169/3/4
f 169/3/4 165/3/4 170/3/4
f 171/2/4 172/2/4 173/2/4
f 173/2/4 172/2/4 174/2/4
f 174/2/4 175/2/4 179/2/4
f 179/2/4 175/2/4 180/2/4
f 176/3/4 177/3/4 181/3/4
f 181/3/4 177/3/4 182/3/4
f 178/2/4 179/2/4 183/2/4
f 183/2/4 179/2/4 184/2/4
f 185/2/4 186/2/4 187/2/4
f 187/2/4 186/2/4 188/2/4
f 189/2/4 190/2/4 191/2/4
f 191/2/4 190/2/4 192/2/4
f 195/2/5 194/2/5 193/2/5
f 196/2/5 194/2/5 195/2/5
f 200/2/5 198/2/5 197/2/5
f 201/2/5 198/2/5 200/2/5
f 203/2/5 200/2/5 199/2/5
f 204/2/5 200/2/5 203/2/5
f 205/2/5 202/2/5 201/2/5
f 206/2/5 202/2/5 205/2/5
f 210/2/5 208/2/5 207/2/5
f 211/2/5 208/2/5 210/2/5
f 213/2/5 210/2/5 209/2/5
f 214/2/5 210/2/5 213/2/5
f 215/2/5 212/2/5 211/2/5
f 216/2/5 212/2/5 215/2/5
f 220/2/5 218/2/5 217/2/5
f 221/2/5 218/2/5 220/2/5
f 223/2/5 220/2/5 219/2/5
f 224/2/5 220/2/5 223/2/5
f 225/2/5 222/2/5 221/2/5
f 226/2/5 222/2/5 225/2/5
f 230/1/5 228/1/5 227/1/5
f 231/1/5 228/1/5 230/1/5
f 233/3/5 230/3/5 229/3/5
f 234/3/5 230/3/5 233/3/5
f 235/3/5 232/3/5 231/3/5
f 236/3/5 232/3/5 235/3/5
f 239/3/5 238/3/5 237/3/5
f 240/3/5 238/3/5 239/3/5
f 241/2/6 242/2/6 243/2/6
f 243/2/6 242/2/6 244/2/6
f 245/2/6 246/2/6 249/2/6
f 249/2/6 246/2/6 250/2/6
f 247/2/6 248/2/6 251/2/6
f 251/2/6 248/2/6 252/2/6
f 250/2/6 251/2/6 253/2/6
f 253/2/6 251/2/6 254/2/6
f 255/2/6 256/2/6 257/2/6
f 257/2/6 256/2/6 258/2/6
f 259/2/6 260/2/6 262/2/6
f 262/2/6 260/2/6 263/2/6
f 261/2/6 262/2/6 265/2/6
f 263/2/6 264/2/6 265/2/6
f 262/2/6 263/2/6 265/2/6
f 265/2/6 264/2/6 266/2/6
f 261/2/6 265/2/6 267/2/6
f 267/2/6 265/2/6 268/2/6
f 266/2/6 264/2/6 269/2/6
f 269/2/6 264/2/6 270/2/6
f 271/3/6 272/3/6 275/3/6
f 275/3/6 272/3/6 276/3/6
f 273/3/6 274/3/6 277/3/6
f 277/3/6 274/3/6 278/3/6
f 279/3/6 280/3/6 281/3/6
f 281/3/6 280/3/6 282/3/6
f 283/3/6 284/3/6 285/3/6
f 285/3/6 284/3/6 286/3/6
