# MagicaVoxel @ Ephtracy

# group
o 

# material
mtllib floor_2.mtl
usemtl palette

# normals
vn -1 0 0
vn 1 0 0
vn 0 0 1
vn 0 0 -1
vn 0 -1 0
vn 0 1 0

# texcoords
vt 0.564453 0.5
vt 0.626953 0.5
vt 0.658203 0.5

# verts
v -0.5 0 0.5
v -0.5 0 0.3
v -0.5 0 0.1
v -0.5 0 -0.1
v -0.5 0 -0.3
v -0.5 0 -0.5
v -0.5 0.2 0.5
v -0.5 0.2 0.3
v -0.5 0.2 0.1
v -0.5 0.2 -0.1
v -0.5 0.2 -0.3
v -0.5 0.2 -0.5
v -0.5 0.4 0.5
v -0.5 0.4 0.3
v -0.5 0.4 0.1
v -0.5 0.4 -0.1
v -0.5 0.4 -0.3
v -0.5 0.4 -0.5
v -0.5 0.9 0.5
v -0.5 0.9 -0.5
v 0.4 0.1 0.4
v 0.4 0.1 0.3
v 0.4 0.1 0.1
v 0.4 0.1 -0.1
v 0.4 0.1 -0.3
v 0.4 0.1 -0.4
v 0.4 0.2 0.4
v 0.4 0.2 0.3
v 0.4 0.2 0.1
v 0.4 0.2 -0.1
v 0.4 0.2 -0.3
v 0.4 0.2 -0.4
v 0.4 0.4 0.4
v 0.4 0.4 0.3
v 0.4 0.4 0.1
v 0.4 0.4 -0.1
v 0.4 0.4 -0.3
v 0.4 0.4 -0.4
v 0.4 0.8 0.4
v 0.4 0.8 -0.4
v -0.4 0.1 0.4
v -0.4 0.1 0.3
v -0.4 0.1 0.1
v -0.4 0.1 -0.1
v -0.4 0.1 -0.3
v -0.4 0.1 -0.4
v -0.4 0.2 0.4
v -0.4 0.2 0.3
v -0.4 0.2 0.1
v -0.4 0.2 -0.1
v -0.4 0.2 -0.3
v -0.4 0.2 -0.4
v -0.4 0.4 0.4
v -0.4 0.4 0.3
v -0.4 0.4 0.1
v -0.4 0.4 -0.1
v -0.4 0.4 -0.3
v -0.4 0.4 -0.4
v -0.4 0.8 0.4
v -0.4 0.8 -0.4
v 0.5 0 0.5
v 0.5 0 0.3
v 0.5 0 0.1
v 0.5 0 -0.1
v 0.5 0 -0.3
v 0.5 0 -0.5
v 0.5 0.2 0.5
v 0.5 0.2 0.3
v 0.5 0.2 0.1
v 0.5 0.2 -0.1
v 0.5 0.2 -0.3
v 0.5 0.2 -0.5
v 0.5 0.4 0.5
v 0.5 0.4 0.3
v 0.5 0.4 0.1
v 0.5 0.4 -0.1
v 0.5 0.4 -0.3
v 0.5 0.4 -0.5
v 0.5 0.9 0.5
v 0.5 0.9 -0.5
v -0.5 0 0.5
v -0.5 0.2 0.5
v -0.5 0.4 0.5
v -0.5 0.9 0.5
v -0.4 0 0.5
v -0.4 0.2 0.5
v -0.4 0.4 0.5
v -0.2 0 0.5
v -0.2 0.2 0.5
v -0.2 0.4 0.5
v 0 0 0.5
v 0 0.2 0.5
v 0 0.4 0.5
v 0.2 0 0.5
v 0.2 0.2 0.5
v 0.2 0.4 0.5
v 0.4 0 0.5
v 0.4 0.2 0.5
v 0.4 0.4 0.5
v 0.5 0 0.5
v 0.5 0.2 0.5
v 0.5 0.4 0.5
v 0.5 0.9 0.5
v -0.4 0.1 -0.4
v -0.4 0.2 -0.4
v -0.4 0.4 -0.4
v -0.4 0.8 -0.4
v -0.2 0.1 -0.4
v -0.2 0.2 -0.4
v -0.2 0.4 -0.4
v 0 0.1 -0.4
v 0 0.2 -0.4
v 0 0.4 -0.4
v 0.2 0.1 -0.4
v 0.2 0.2 -0.4
v 0.2 0.4 -0.4
v 0.4 0.1 -0.4
v 0.4 0.2 -0.4
v 0.4 0.4 -0.4
v 0.4 0.8 -0.4
v -0.4 0.1 0.4
v -0.4 0.2 0.4
v -0.4 0.4 0.4
v -0.4 0.8 0.4
v -0.2 0.1 0.4
v -0.2 0.2 0.4
v -0.2 0.4 0.4
v 0 0.1 0.4
v 0 0.2 0.4
v 0 0.4 0.4
v 0.2 0.1 0.4
v 0.2 0.2 0.4
v 0.2 0.4 0.4
v 0.4 0.1 0.4
v 0.4 0.2 0.4
v 0.4 0.4 0.4
v 0.4 0.8 0.4
v -0.5 0 -0.5
v -0.5 0.2 -0.5
v -0.5 0.4 -0.5
v -0.5 0.9 -0.5
v -0.4 0 -0.5
v -0.4 0.2 -0.5
v -0.4 0.4 -0.5
v -0.2 0 -0.5
v -0.2 0.2 -0.5
v -0.2 0.4 -0.5
v 0 0 -0.5
v 0 0.2 -0.5
v 0 0.4 -0.5
v 0.2 0 -0.5
v 0.2 0.2 -0.5
v 0.2 0.4 -0.5
v 0.4 0 -0.5
v 0.4 0.2 -0.5
v 0.4 0.4 -0.5
v 0.5 0 -0.5
v 0.5 0.2 -0.5
v 0.5 0.4 -0.5
v 0.5 0.9 -0.5
v -0.5 0 0.5
v -0.4 0 0.5
v -0.2 0 0.5
v 0 0 0.5
v 0.2 0 0.5
v 0.4 0 0.5
v 0.5 0 0.5
v -0.4 0 0.4
v -0.2 0 0.4
v 0 0 0.4
v 0.2 0 0.4
v -0.5 0 0.3
v -0.4 0 0.3
v 0.4 0 0.3
v 0.5 0 0.3
v -0.5 0 0.1
v -0.4 0 0.1
v 0.4 0 0.1
v 0.5 0 0.1
v -0.5 0 -0.1
v -0.4 0 -0.1
v 0.4 0 -0.1
v 0.5 0 -0.1
v -0.5 0 -0.3
v -0.4 0 -0.3
v 0.4 0 -0.3
v 0.5 0 -0.3
v -0.4 0 -0.4
v -0.2 0 -0.4
v 0 0 -0.4
v 0.2 0 -0.4
v -0.5 0 -0.5
v -0.4 0 -0.5
v -0.2 0 -0.5
v 0 0 -0.5
v 0.2 0 -0.5
v 0.4 0 -0.5
v 0.5 0 -0.5
v -0.4 0.8 0.4
v 0.4 0.8 0.4
v -0.4 0.8 -0.4
v 0.4 0.8 -0.4
v -0.4 0.1 0.4
v -0.2 0.1 0.4
v 0 0.1 0.4
v 0.2 0.1 0.4
v 0.4 0.1 0.4
v -0.4 0.1 0.3
v 0.4 0.1 0.3
v -0.4 0.1 0.1
v 0.4 0.1 0.1
v -0.4 0.1 -0.1
v 0.4 0.1 -0.1
v -0.4 0.1 -0.3
v 0.4 0.1 -0.3
v -0.4 0.1 -0.4
v -0.2 0.1 -0.4
v 0 0.1 -0.4
v 0.2 0.1 -0.4
v 0.4 0.1 -0.4
v -0.5 0.9 0.5
v 0.5 0.9 0.5
v -0.5 0.9 -0.5
v 0.5 0.9 -0.5

# faces
f 7/2/1 2/2/1 1/2/1
f 8/3/1 3/3/1 2/3/1
f 8/2/1 2/2/1 7/2/1
f 9/2/1 4/2/1 3/2/1
f 9/3/1 3/3/1 8/3/1
f 10/3/1 5/3/1 4/3/1
f 10/2/1 4/2/1 9/2/1
f 11/2/1 6/2/1 5/2/1
f 11/3/1 5/3/1 10/3/1
f 12/2/1 6/2/1 11/2/1
f 13/3/1 8/3/1 7/3/1
f 14/2/1 9/2/1 8/2/1
f 14/3/1 8/3/1 13/3/1
f 15/3/1 10/3/1 9/3/1
f 15/2/1 9/2/1 14/2/1
f 16/2/1 11/2/1 10/2/1
f 16/3/1 10/3/1 15/3/1
f 17/3/1 12/3/1 11/3/1
f 17/2/1 11/2/1 16/2/1
f 18/3/1 12/3/1 17/3/1
f 19/1/1 14/1/1 13/1/1
f 19/1/1 15/1/1 14/1/1
f 19/1/1 18/1/1 17/1/1
f 19/1/1 17/1/1 16/1/1
f 19/1/1 16/1/1 15/1/1
f 20/1/1 18/1/1 19/1/1
f 27/3/1 22/3/1 21/3/1
f 28/2/1 23/2/1 22/2/1
f 28/3/1 22/3/1 27/3/1
f 29/3/1 24/3/1 23/3/1
f 29/2/1 23/2/1 28/2/1
f 30/2/1 25/2/1 24/2/1
f 30/3/1 24/3/1 29/3/1
f 31/3/1 26/3/1 25/3/1
f 31/2/1 25/2/1 30/2/1
f 32/3/1 26/3/1 31/3/1
f 33/2/1 28/2/1 27/2/1
f 34/3/1 29/3/1 28/3/1
f 34/2/1 28/2/1 33/2/1
f 35/2/1 30/2/1 29/2/1
f 35/3/1 29/3/1 34/3/1
f 36/3/1 31/3/1 30/3/1
f 36/2/1 30/2/1 35/2/1
f 37/2/1 32/2/1 31/2/1
f 37/3/1 31/3/1 36/3/1
f 38/2/1 32/2/1 37/2/1
f 39/1/1 34/1/1 33/1/1
f 39/1/1 35/1/1 34/1/1
f 39/1/1 38/1/1 37/1/1
f 39/1/1 37/1/1 36/1/1
f 39/1/1 36/1/1 35/1/1
f 40/1/1 38/1/1 39/1/1
f 41/2/2 42/2/2 47/2/2
f 42/3/2 43/3/2 48/3/2
f 47/2/2 42/2/2 48/2/2
f 43/2/2 44/2/2 49/2/2
f 48/3/2 43/3/2 49/3/2
f 44/3/2 45/3/2 50/3/2
f 49/2/2 44/2/2 50/2/2
f 45/2/2 46/2/2 51/2/2
f 50/3/2 45/3/2 51/3/2
f 51/2/2 46/2/2 52/2/2
f 47/3/2 48/3/2 53/3/2
f 48/2/2 49/2/2 54/2/2
f 53/3/2 48/3/2 54/3/2
f 49/3/2 50/3/2 55/3/2
f 54/2/2 49/2/2 55/2/2
f 50/2/2 51/2/2 56/2/2
f 55/3/2 50/3/2 56/3/2
f 51/3/2 52/3/2 57/3/2
f 56/2/2 51/2/2 57/2/2
f 57/3/2 52/3/2 58/3/2
f 53/1/2 54/1/2 59/1/2
f 54/1/2 55/1/2 59/1/2
f 57/1/2 58/1/2 59/1/2
f 56/1/2 57/1/2 59/1/2
f 55/1/2 56/1/2 59/1/2
f 59/1/2 58/1/2 60/1/2
f 61/3/2 62/3/2 67/3/2
f 62/2/2 63/2/2 68/2/2
f 67/3/2 62/3/2 68/3/2
f 63/3/2 64/3/2 69/3/2
f 68/2/2 63/2/2 69/2/2
f 64/2/2 65/2/2 70/2/2
f 69/3/2 64/3/2 70/3/2
f 65/3/2 66/3/2 71/3/2
f 70/2/2 65/2/2 71/2/2
f 71/3/2 66/3/2 72/3/2
f 67/2/2 68/2/2 73/2/2
f 68/3/2 69/3/2 74/3/2
f 73/2/2 68/2/2 74/2/2
f 69/2/2 70/2/2 75/2/2
f 74/3/2 69/3/2 75/3/2
f 70/3/2 71/3/2 76/3/2
f 75/2/2 70/2/2 76/2/2
f 71/2/2 72/2/2 77/2/2
f 76/3/2 71/3/2 77/3/2
f 77/2/2 72/2/2 78/2/2
f 73/1/2 74/1/2 79/1/2
f 74/1/2 75/1/2 79/1/2
f 77/1/2 78/1/2 79/1/2
f 76/1/2 77/1/2 79/1/2
f 75/1/2 76/1/2 79/1/2
f 79/1/2 78/1/2 80/1/2
f 85/2/3 82/2/3 81/2/3
f 86/3/3 83/3/3 82/3/3
f 86/2/3 82/2/3 85/2/3
f 87/1/3 84/1/3 83/1/3
f 87/3/3 83/3/3 86/3/3
f 88/3/3 86/3/3 85/3/3
f 89/2/3 87/2/3 86/2/3
f 89/3/3 86/3/3 88/3/3
f 90/1/3 84/1/3 87/1/3
f 90/2/3 87/2/3 89/2/3
f 91/2/3 89/2/3 88/2/3
f 92/3/3 90/3/3 89/3/3
f 92/2/3 89/2/3 91/2/3
f 93/1/3 84/1/3 90/1/3
f 93/3/3 90/3/3 92/3/3
f 94/3/3 92/3/3 91/3/3
f 95/2/3 93/2/3 92/2/3
f 95/3/3 92/3/3 94/3/3
f 96/1/3 84/1/3 93/1/3
f 96/2/3 93/2/3 95/2/3
f 97/2/3 95/2/3 94/2/3
f 98/3/3 96/3/3 95/3/3
f 98/2/3 95/2/3 97/2/3
f 99/1/3 84/1/3 96/1/3
f 99/3/3 96/3/3 98/3/3
f 100/3/3 98/3/3 97/3/3
f 101/2/3 99/2/3 98/2/3
f 101/3/3 98/3/3 100/3/3
f 102/1/3 84/1/3 99/1/3
f 102/2/3 99/2/3 101/2/3
f 103/1/3 84/1/3 102/1/3
f 108/3/3 105/3/3 104/3/3
f 109/2/3 106/2/3 105/2/3
f 109/3/3 105/3/3 108/3/3
f 110/1/3 107/1/3 106/1/3
f 110/2/3 106/2/3 109/2/3
f 111/2/3 109/2/3 108/2/3
f 112/3/3 110/3/3 109/3/3
f 112/2/3 109/2/3 111/2/3
f 113/1/3 107/1/3 110/1/3
f 113/3/3 110/3/3 112/3/3
f 114/3/3 112/3/3 111/3/3
f 115/2/3 113/2/3 112/2/3
f 115/3/3 112/3/3 114/3/3
f 116/1/3 107/1/3 113/1/3
f 116/2/3 113/2/3 115/2/3
f 117/2/3 115/2/3 114/2/3
f 118/3/3 116/3/3 115/3/3
f 118/2/3 115/2/3 117/2/3
f 119/1/3 107/1/3 116/1/3
f 119/3/3 116/3/3 118/3/3
f 120/1/3 107/1/3 119/1/3
f 121/3/4 122/3/4 125/3/4
f 122/2/4 123/2/4 126/2/4
f 125/3/4 122/3/4 126/3/4
f 123/1/4 124/1/4 127/1/4
f 126/2/4 123/2/4 127/2/4
f 125/2/4 126/2/4 128/2/4
f 126/3/4 127/3/4 129/3/4
f 128/2/4 126/2/4 129/2/4
f 127/1/4 124/1/4 130/1/4
f 129/3/4 127/3/4 130/3/4
f 128/3/4 129/3/4 131/3/4
f 129/2/4 130/2/4 132/2/4
f 131/3/4 129/3/4 132/3/4
f 130/1/4 124/1/4 133/1/4
f 132/2/4 130/2/4 133/2/4
f 131/2/4 132/2/4 134/2/4
f 132/3/4 133/3/4 135/3/4
f 134/2/4 132/2/4 135/2/4
f 133/1/4 124/1/4 136/1/4
f 135/3/4 133/3/4 136/3/4
f 136/1/4 124/1/4 137/1/4
f 138/2/4 139/2/4 142/2/4
f 139/3/4 140/3/4 143/3/4
f 142/2/4 139/2/4 143/2/4
f 140/1/4 141/1/4 144/1/4
f 143/3/4 140/3/4 144/3/4
f 142/3/4 143/3/4 145/3/4
f 143/2/4 144/2/4 146/2/4
f 145/3/4 143/3/4 146/3/4
f 144/1/4 141/1/4 147/1/4
f 146/2/4 144/2/4 147/2/4
f 145/2/4 146/2/4 148/2/4
f 146/3/4 147/3/4 149/3/4
f 148/2/4 146/2/4 149/2/4
f 147/1/4 141/1/4 150/1/4
f 149/3/4 147/3/4 150/3/4
f 148/3/4 149/3/4 151/3/4
f 149/2/4 150/2/4 152/2/4
f 151/3/4 149/3/4 152/3/4
f 150/1/4 141/1/4 153/1/4
f 152/2/4 150/2/4 153/2/4
f 151/2/4 152/2/4 154/2/4
f 152/3/4 153/3/4 155/3/4
f 154/2/4 152/2/4 155/2/4
f 153/1/4 141/1/4 156/1/4
f 155/3/4 153/3/4 156/3/4
f 154/3/4 155/3/4 157/3/4
f 155/2/4 156/2/4 158/2/4
f 157/3/4 155/3/4 158/3/4
f 156/1/4 141/1/4 159/1/4
f 158/2/4 156/2/4 159/2/4
f 159/1/4 141/1/4 160/1/4
f 168/2/5 162/2/5 161/2/5
f 168/3/5 163/3/5 162/3/5
f 169/2/5 164/2/5 163/2/5
f 169/3/5 163/3/5 168/3/5
f 170/3/5 165/3/5 164/3/5
f 170/2/5 164/2/5 169/2/5
f 171/2/5 166/2/5 165/2/5
f 171/3/5 165/3/5 170/3/5
f 172/2/5 170/2/5 169/2/5
f 172/2/5 168/2/5 161/2/5
f 172/2/5 171/2/5 170/2/5
f 172/2/5 169/2/5 168/2/5
f 173/2/5 171/2/5 172/2/5
f 174/3/5 167/3/5 166/3/5
f 174/2/5 171/2/5 173/2/5
f 174/2/5 166/2/5 171/2/5
f 175/3/5 167/3/5 174/3/5
f 176/3/5 173/3/5 172/3/5
f 177/2/5 174/2/5 173/2/5
f 177/3/5 173/3/5 176/3/5
f 177/2/5 175/2/5 174/2/5
f 178/2/5 175/2/5 177/2/5
f 179/2/5 175/2/5 178/2/5
f 180/2/5 177/2/5 176/2/5
f 180/2/5 178/2/5 177/2/5
f 181/2/5 178/2/5 180/2/5
f 182/3/5 179/3/5 178/3/5
f 182/2/5 178/2/5 181/2/5
f 183/3/5 179/3/5 182/3/5
f 184/3/5 181/3/5 180/3/5
f 185/2/5 182/2/5 181/2/5
f 185/3/5 181/3/5 184/3/5
f 185/2/5 183/2/5 182/2/5
f 186/2/5 183/2/5 185/2/5
f 187/2/5 183/2/5 186/2/5
f 188/2/5 185/2/5 184/2/5
f 188/2/5 186/2/5 185/2/5
f 189/2/5 186/2/5 188/2/5
f 190/2/5 186/2/5 189/2/5
f 191/2/5 186/2/5 190/2/5
f 192/2/5 188/2/5 184/2/5
f 193/3/5 189/3/5 188/3/5
f 193/2/5 188/2/5 192/2/5
f 194/2/5 190/2/5 189/2/5
f 194/3/5 189/3/5 193/3/5
f 195/3/5 191/3/5 190/3/5
f 195/2/5 190/2/5 194/2/5
f 196/2/5 186/2/5 191/2/5
f 196/3/5 191/3/5 195/3/5
f 197/3/5 187/3/5 186/3/5
f 197/2/5 186/2/5 196/2/5
f 198/3/5 187/3/5 197/3/5
f 201/1/5 200/1/5 199/1/5
f 202/1/5 200/1/5 201/1/5
f 203/2/6 204/2/6 208/2/6
f 206/2/6 207/2/6 208/2/6
f 205/2/6 206/2/6 208/2/6
f 204/2/6 205/2/6 208/2/6
f 208/2/6 207/2/6 209/2/6
f 208/2/6 209/2/6 210/2/6
f 210/2/6 209/2/6 211/2/6
f 210/2/6 211/2/6 212/2/6
f 212/2/6 211/2/6 213/2/6
f 212/2/6 213/2/6 214/2/6
f 214/2/6 213/2/6 215/2/6
f 214/2/6 215/2/6 216/2/6
f 216/2/6 215/2/6 217/2/6
f 217/2/6 215/2/6 218/2/6
f 218/2/6 215/2/6 219/2/6
f 219/2/6 215/2/6 220/2/6
f 221/1/6 222/1/6 223/1/6
f 223/1/6 222/1/6 224/1/6
