# MagicaVoxel @ Ephtracy

# group
o carrot_1

# material
mtllib sunflower_1-0-carrot_1.mtl
usemtl palette

# normals
vn -1 0 0
vn 1 0 0
vn 0 0 1
vn 0 0 -1
vn 0 -1 0
vn 0 1 0

# texcoords
vt 0.853516 0.5
vt 0.884766 0.5
vt 0.888672 0.5
vt 0.947266 0.5
vt 0.978516 0.5

# verts
v -0.6 0.7 -0.4
v -0.6 0.7 -0.8
v -0.6 0.9 -0.4
v -0.6 0.9 -0.8
v -0.4 0.7 -0.2
v -0.4 0.7 -0.4
v -0.4 0.9 -0.2
v -0.4 0.9 -0.4
v -0.2 0.1 -1.19209e-07
v -0.2 0.1 -0.2
v -0.2 0.3 -1.19209e-07
v -0.2 0.3 -0.2
v -0.2 0.5 -1.19209e-07
v -0.2 0.5 -0.2
v -0.2 0.5 -0.4
v -0.2 0.7 0.6
v -0.2 0.7 0.4
v -0.2 0.7 0.2
v -0.2 0.7 -1.19209e-07
v -0.2 0.7 -0.2
v -0.2 0.7 -0.4
v -0.2 0.9 0.6
v -0.2 0.9 0.4
v -0.2 0.9 0.2
v -5.96046e-08 0.1 -0.2
v -5.96046e-08 0.1 -0.4
v -5.96046e-08 0.3 0.2
v -5.96046e-08 0.3 -1.19209e-07
v -5.96046e-08 0.3 -0.2
v -5.96046e-08 0.3 -0.4
v -5.96046e-08 0.5 0.2
v -5.96046e-08 0.5 -1.19209e-07
v -5.96046e-08 0.5 -0.2
v -5.96046e-08 0.7 0.8
v -5.96046e-08 0.7 0.6
v -5.96046e-08 0.7 0.2
v -5.96046e-08 0.7 -1.19209e-07
v -5.96046e-08 0.7 -0.2
v -5.96046e-08 0.9 0.8
v -5.96046e-08 0.9 0.6
v -5.96046e-08 0.9 0.2
v -5.96046e-08 0.9 -1.19209e-07
v -5.96046e-08 0.9 -0.2
v -5.96046e-08 0.9 -0.4
v -5.96046e-08 1.1 -1.19209e-07
v -5.96046e-08 1.1 -0.2
v -5.96046e-08 1.1 -0.4
v 0.2 0.7 1
v 0.2 0.7 0.8
v 0.2 0.9 1
v 0.2 0.9 0.8
v 0.2 1.1 -0.4
v 0.2 1.1 -0.6
v 0.2 1.3 -0.4
v 0.2 1.3 -0.6
v 0.4 1.1 -0.2
v 0.4 1.1 -0.4
v 0.4 1.1 -0.6
v 0.4 1.1 -0.8
v 0.4 1.3 -0.2
v 0.4 1.3 -0.4
v 0.4 1.3 -0.6
v 0.4 1.3 -0.8
v -0.2 0.7 -0.6
v -0.2 0.7 -0.8
v -0.2 0.9 -0.6
v -0.2 0.9 -0.8
v -5.96046e-08 0.5 -0.2
v -5.96046e-08 0.5 -0.4
v -5.96046e-08 0.7 -0.2
v -5.96046e-08 0.7 -0.4
v -5.96046e-08 0.7 -0.6
v -5.96046e-08 0.9 -0.4
v -5.96046e-08 0.9 -0.6
v 0.2 0.1 -0.2
v 0.2 0.1 -0.4
v 0.2 0.3 0.2
v 0.2 0.3 -1.19209e-07
v 0.2 0.3 -0.2
v 0.2 0.3 -0.4
v 0.2 0.5 0.2
v 0.2 0.5 -1.19209e-07
v 0.2 0.5 -0.2
v 0.2 0.7 0.4
v 0.2 0.7 0.2
v 0.2 0.7 -1.19209e-07
v 0.2 0.7 -0.2
v 0.2 0.7 -0.4
v 0.2 0.9 0.4
v 0.2 0.9 0.2
v 0.2 0.9 -1.19209e-07
v 0.2 0.9 -0.2
v 0.2 0.9 -0.4
v 0.4 0.1 -1.19209e-07
v 0.4 0.1 -0.2
v 0.4 0.3 -1.19209e-07
v 0.4 0.3 -0.2
v 0.4 0.5 0.2
v 0.4 0.5 -1.19209e-07
v 0.4 0.7 0.6
v 0.4 0.7 0.4
v 0.4 0.7 0.2
v 0.4 0.7 -1.19209e-07
v 0.4 0.9 0.6
v 0.4 0.9 0.4
v 0.4 0.9 -1.19209e-07
v 0.4 0.9 -0.4
v 0.4 1.1 -1.19209e-07
v 0.4 1.1 -0.2
v 0.4 1.1 -0.4
v 0.6 0.7 1
v 0.6 0.7 0.6
v 0.6 0.9 1
v 0.6 0.9 0.6
v 0.6 1.1 -0.2
v 0.6 1.1 -0.4
v 0.6 1.3 -0.2
v 0.6 1.3 -0.4
v 0.8 1.1 -0.4
v 0.8 1.1 -0.6
v 0.8 1.1 -0.8
v 0.8 1.3 -0.4
v 0.8 1.3 -0.6
v 0.8 1.3 -0.8
v 0.2 0.7 1
v 0.2 0.9 1
v 0.4 0.7 1
v 0.4 0.9 1
v 0.6 0.7 1
v 0.6 0.9 1
v -5.96046e-08 0.7 0.8
v -5.96046e-08 0.9 0.8
v 0.2 0.7 0.8
v 0.2 0.9 0.8
v -0.2 0.7 0.6
v -0.2 0.9 0.6
v -5.96046e-08 0.7 0.6
v -5.96046e-08 0.9 0.6
v -5.96046e-08 0.3 0.2
v -5.96046e-08 0.5 0.2
v -5.96046e-08 0.7 0.2
v 0.2 0.3 0.2
v 0.2 0.5 0.2
v 0.2 0.7 0.2
v 0.4 0.5 0.2
v 0.4 0.7 0.2
v -0.2 0.1 -1.19209e-07
v -0.2 0.3 -1.19209e-07
v -0.2 0.5 -1.19209e-07
v -0.2 0.7 -1.19209e-07
v -5.96046e-08 0.3 -1.19209e-07
v -5.96046e-08 0.5 -1.19209e-07
v -5.96046e-08 0.7 -1.19209e-07
v -5.96046e-08 0.9 -1.19209e-07
v -5.96046e-08 1.1 -1.19209e-07
v 0.2 0.1 -1.19209e-07
v 0.2 0.3 -1.19209e-07
v 0.2 0.9 -1.19209e-07
v 0.4 0.1 -1.19209e-07
v 0.4 0.3 -1.19209e-07
v 0.4 0.9 -1.19209e-07
v 0.4 1.1 -1.19209e-07
v -0.4 0.7 -0.2
v -0.4 0.9 -0.2
v -0.2 0.7 -0.2
v -5.96046e-08 0.7 -0.2
v -5.96046e-08 0.9 -0.2
v 0.4 1.1 -0.2
v 0.4 1.3 -0.2
v 0.6 1.1 -0.2
v 0.6 1.3 -0.2
v -0.6 0.7 -0.4
v -0.6 0.9 -0.4
v -0.4 0.7 -0.4
v -0.4 0.9 -0.4
v 0.2 1.1 -0.4
v 0.2 1.3 -0.4
v 0.4 1.1 -0.4
v 0.4 1.3 -0.4
v 0.6 1.1 -0.4
v 0.6 1.3 -0.4
v 0.8 1.1 -0.4
v 0.8 1.3 -0.4
v 0.4 0.7 0.6
v 0.4 0.9 0.6
v 0.6 0.7 0.6
v 0.6 0.9 0.6
v 0.2 0.7 0.4
v 0.2 0.9 0.4
v 0.4 0.7 0.4
v 0.4 0.9 0.4
v -0.2 0.7 0.2
v -0.2 0.9 0.2
v -5.96046e-08 0.7 0.2
v -5.96046e-08 0.9 0.2
v 0.2 0.5 -1.19209e-07
v 0.2 0.7 -1.19209e-07
v 0.4 0.5 -1.19209e-07
v 0.4 0.7 -1.19209e-07
v -0.2 0.1 -0.2
v -0.2 0.3 -0.2
v -5.96046e-08 0.1 -0.2
v -5.96046e-08 0.3 -0.2
v -5.96046e-08 0.5 -0.2
v -5.96046e-08 0.7 -0.2
v 0.2 0.1 -0.2
v 0.2 0.3 -0.2
v 0.2 0.5 -0.2
v 0.2 0.7 -0.2
v 0.4 0.1 -0.2
v 0.4 0.3 -0.2
v -0.2 0.5 -0.4
v -0.2 0.7 -0.4
v -5.96046e-08 0.1 -0.4
v -5.96046e-08 0.3 -0.4
v -5.96046e-08 0.5 -0.4
v -5.96046e-08 0.7 -0.4
v -5.96046e-08 0.9 -0.4
v -5.96046e-08 1.1 -0.4
v 0.2 0.1 -0.4
v 0.2 0.3 -0.4
v 0.2 0.7 -0.4
v 0.2 0.9 -0.4
v 0.2 1.1 -0.4
v 0.4 0.9 -0.4
v 0.4 1.1 -0.4
v -0.2 0.7 -0.6
v -0.2 0.9 -0.6
v -5.96046e-08 0.7 -0.6
v -5.96046e-08 0.9 -0.6
v 0.2 1.1 -0.6
v 0.2 1.3 -0.6
v 0.4 1.1 -0.6
v 0.4 1.3 -0.6
v -0.6 0.7 -0.8
v -0.6 0.9 -0.8
v -0.4 0.7 -0.8
v -0.4 0.9 -0.8
v -0.2 0.7 -0.8
v -0.2 0.9 -0.8
v 0.4 1.1 -0.8
v 0.4 1.3 -0.8
v 0.8 1.1 -0.8
v 0.8 1.3 -0.8
v -0.2 0.1 -1.19209e-07
v 0.2 0.1 -1.19209e-07
v 0.4 0.1 -1.19209e-07
v -0.2 0.1 -0.2
v -5.96046e-08 0.1 -0.2
v 0.2 0.1 -0.2
v 0.4 0.1 -0.2
v -5.96046e-08 0.1 -0.4
v 0.2 0.1 -0.4
v -5.96046e-08 0.3 0.2
v 0.2 0.3 0.2
v -5.96046e-08 0.3 -1.19209e-07
v 0.2 0.3 -1.19209e-07
v 0.2 0.5 0.2
v 0.4 0.5 0.2
v -0.2 0.5 -1.19209e-07
v -5.96046e-08 0.5 -1.19209e-07
v 0.2 0.5 -1.19209e-07
v 0.4 0.5 -1.19209e-07
v -0.2 0.5 -0.2
v -5.96046e-08 0.5 -0.2
v -0.2 0.5 -0.4
v -5.96046e-08 0.5 -0.4
v 0.2 0.7 1
v 0.4 0.7 1
v 0.6 0.7 1
v -5.96046e-08 0.7 0.8
v 0.2 0.7 0.8
v -0.2 0.7 0.6
v -5.96046e-08 0.7 0.6
v 0.2 0.7 0.6
v 0.4 0.7 0.6
v 0.6 0.7 0.6
v -0.2 0.7 0.4
v -5.96046e-08 0.7 0.4
v 0.2 0.7 0.4
v 0.4 0.7 0.4
v -0.2 0.7 0.2
v -5.96046e-08 0.7 0.2
v 0.2 0.7 0.2
v -0.4 0.7 -0.2
v -0.2 0.7 -0.2
v -5.96046e-08 0.7 -0.2
v 0.2 0.7 -0.2
v -0.6 0.7 -0.4
v -0.4 0.7 -0.4
v -0.2 0.7 -0.4
v -5.96046e-08 0.7 -0.4
v 0.2 0.7 -0.4
v -0.4 0.7 -0.6
v -0.2 0.7 -0.6
v -5.96046e-08 0.7 -0.6
v -0.6 0.7 -0.8
v -0.4 0.7 -0.8
v -0.2 0.7 -0.8
v 0.2 0.9 -1.19209e-07
v 0.4 0.9 -1.19209e-07
v 0.2 0.9 -0.2
v 0.2 0.9 -0.4
v 0.4 0.9 -0.4
v 0.4 1.1 -0.2
v 0.6 1.1 -0.2
v 0.2 1.1 -0.4
v 0.4 1.1 -0.4
v 0.6 1.1 -0.4
v 0.8 1.1 -0.4
v 0.2 1.1 -0.6
v 0.4 1.1 -0.6
v 0.6 1.1 -0.6
v 0.8 1.1 -0.6
v 0.4 1.1 -0.8
v 0.8 1.1 -0.8
v -0.2 0.3 -1.19209e-07
v -5.96046e-08 0.3 -1.19209e-07
v 0.2 0.3 -1.19209e-07
v 0.4 0.3 -1.19209e-07
v -0.2 0.3 -0.2
v -5.96046e-08 0.3 -0.2
v 0.2 0.3 -0.2
v 0.4 0.3 -0.2
v -5.96046e-08 0.3 -0.4
v 0.2 0.3 -0.4
v 0.2 0.7 0.2
v 0.4 0.7 0.2
v -0.2 0.7 -1.19209e-07
v -5.96046e-08 0.7 -1.19209e-07
v 0.2 0.7 -1.19209e-07
v 0.4 0.7 -1.19209e-07
v -0.2 0.7 -0.2
v -5.96046e-08 0.7 -0.2
v 0.2 0.9 1
v 0.4 0.9 1
v 0.6 0.9 1
v -5.96046e-08 0.9 0.8
v 0.2 0.9 0.8
v -0.2 0.9 0.6
v -5.96046e-08 0.9 0.6
v 0.2 0.9 0.6
v 0.4 0.9 0.6
v 0.6 0.9 0.6
v -0.2 0.9 0.4
v -5.96046e-08 0.9 0.4
v 0.2 0.9 0.4
v 0.4 0.9 0.4
v -0.2 0.9 0.2
v -5.96046e-08 0.9 0.2
v 0.2 0.9 0.2
v -5.96046e-08 0.9 -1.19209e-07
v 0.2 0.9 -1.19209e-07
v -0.4 0.9 -0.2
v -5.96046e-08 0.9 -0.2
v -0.6 0.9 -0.4
v -0.4 0.9 -0.4
v -0.2 0.9 -0.4
v -5.96046e-08 0.9 -0.4
v -0.4 0.9 -0.6
v -0.2 0.9 -0.6
v -5.96046e-08 0.9 -0.6
v -0.6 0.9 -0.8
v -0.4 0.9 -0.8
v -0.2 0.9 -0.8
v -5.96046e-08 1.1 -1.19209e-07
v 0.4 1.1 -1.19209e-07
v -5.96046e-08 1.1 -0.2
v 0.2 1.1 -0.2
v 0.4 1.1 -0.2
v -5.96046e-08 1.1 -0.4
v 0.2 1.1 -0.4
v 0.4 1.1 -0.4
v 0.4 1.3 -0.2
v 0.6 1.3 -0.2
v 0.2 1.3 -0.4
v 0.4 1.3 -0.4
v 0.6 1.3 -0.4
v 0.8 1.3 -0.4
v 0.2 1.3 -0.6
v 0.4 1.3 -0.6
v 0.6 1.3 -0.6
v 0.8 1.3 -0.6
v 0.4 1.3 -0.8
v 0.8 1.3 -0.8

# faces
f 3/2/1 2/2/1 1/2/1
f 4/2/1 2/2/1 3/2/1
f 7/2/1 6/2/1 5/2/1
f 8/2/1 6/2/1 7/2/1
f 11/2/1 10/2/1 9/2/1
f 12/2/1 10/2/1 11/2/1
f 19/1/1 14/1/1 13/1/1
f 20/2/1 15/2/1 14/2/1
f 20/1/1 14/1/1 19/1/1
f 21/2/1 15/2/1 20/2/1
f 22/2/1 17/2/1 16/2/1
f 23/5/1 18/5/1 17/5/1
f 23/2/1 17/2/1 22/2/1
f 24/5/1 18/5/1 23/5/1
f 29/2/1 26/2/1 25/2/1
f 30/2/1 26/2/1 29/2/1
f 31/1/1 28/1/1 27/1/1
f 31/1/1 29/1/1 28/1/1
f 32/1/1 29/1/1 31/1/1
f 33/1/1 29/1/1 32/1/1
f 36/2/1 32/2/1 31/2/1
f 37/2/1 32/2/1 36/2/1
f 39/2/1 35/2/1 34/2/1
f 40/2/1 35/2/1 39/2/1
f 41/2/1 38/2/1 37/2/1
f 41/2/1 37/2/1 36/2/1
f 42/2/1 38/2/1 41/2/1
f 43/2/1 38/2/1 42/2/1
f 45/5/1 43/5/1 42/5/1
f 46/3/1 44/3/1 43/3/1
f 46/5/1 43/5/1 45/5/1
f 47/3/1 44/3/1 46/3/1
f 50/2/1 49/2/1 48/2/1
f 51/2/1 49/2/1 50/2/1
f 54/4/1 53/4/1 52/4/1
f 55/4/1 53/4/1 54/4/1
f 60/1/1 57/1/1 56/1/1
f 61/1/1 57/1/1 60/1/1
f 62/5/1 59/5/1 58/5/1
f 63/5/1 59/5/1 62/5/1
f 64/3/2 65/3/2 66/3/2
f 66/3/2 65/3/2 67/3/2
f 68/2/2 69/2/2 70/2/2
f 70/2/2 69/2/2 71/2/2
f 71/3/2 72/3/2 73/3/2
f 73/3/2 72/3/2 74/3/2
f 75/2/2 76/2/2 79/2/2
f 79/2/2 76/2/2 80/2/2
f 77/1/2 78/1/2 81/1/2
f 78/1/2 79/1/2 81/1/2
f 81/1/2 79/1/2 82/1/2
f 82/1/2 79/1/2 83/1/2
f 82/2/2 83/2/2 86/2/2
f 86/2/2 83/2/2 87/2/2
f 84/1/2 85/1/2 89/1/2
f 86/2/2 87/2/2 90/2/2
f 89/1/2 85/1/2 90/1/2
f 85/2/2 86/2/2 90/2/2
f 90/2/2 87/2/2 91/2/2
f 87/5/2 88/5/2 92/5/2
f 91/2/2 87/2/2 92/2/2
f 92/5/2 88/5/2 93/5/2
f 94/1/2 95/1/2 96/1/2
f 96/1/2 95/1/2 97/1/2
f 98/1/2 99/1/2 102/1/2
f 102/1/2 99/1/2 103/1/2
f 100/1/2 101/1/2 104/1/2
f 104/1/2 101/1/2 105/1/2
f 106/5/2 107/5/2 108/5/2
f 108/5/2 107/5/2 109/5/2
f 109/5/2 107/5/2 110/5/2
f 111/5/2 112/5/2 113/5/2
f 113/5/2 112/5/2 114/5/2
f 115/1/2 116/1/2 117/1/2
f 117/1/2 116/1/2 118/1/2
f 119/1/2 120/1/2 122/1/2
f 120/5/2 121/5/2 123/5/2
f 122/1/2 120/1/2 123/1/2
f 123/5/2 121/5/2 124/5/2
f 127/2/3 126/2/3 125/2/3
f 128/2/3 126/2/3 127/2/3
f 129/5/3 128/5/3 127/5/3
f 130/5/3 128/5/3 129/5/3
f 133/2/3 132/2/3 131/2/3
f 134/2/3 132/2/3 133/2/3
f 137/2/3 136/2/3 135/2/3
f 138/2/3 136/2/3 137/2/3
f 142/1/3 140/1/3 139/1/3
f 143/2/3 141/2/3 140/2/3
f 143/1/3 140/1/3 142/1/3
f 144/2/3 141/2/3 143/2/3
f 145/1/3 144/1/3 143/1/3
f 146/1/3 144/1/3 145/1/3
f 151/2/3 148/2/3 147/2/3
f 152/1/3 150/1/3 149/1/3
f 153/1/3 150/1/3 152/1/3
f 156/2/3 151/2/3 147/2/3
f 157/2/3 151/2/3 156/2/3
f 158/5/3 155/5/3 154/5/3
f 159/1/3 157/1/3 156/1/3
f 160/1/3 157/1/3 159/1/3
f 161/5/3 155/5/3 158/5/3
f 162/5/3 155/5/3 161/5/3
f 165/2/3 164/2/3 163/2/3
f 166/2/3 164/2/3 165/2/3
f 167/2/3 164/2/3 166/2/3
f 170/1/3 169/1/3 168/1/3
f 171/1/3 169/1/3 170/1/3
f 174/2/3 173/2/3 172/2/3
f 175/2/3 173/2/3 174/2/3
f 178/4/3 177/4/3 176/4/3
f 179/4/3 177/4/3 178/4/3
f 182/1/3 181/1/3 180/1/3
f 183/1/3 181/1/3 182/1/3
f 184/5/4 185/5/4 186/5/4
f 186/5/4 185/5/4 187/5/4
f 188/1/4 189/1/4 190/1/4
f 190/1/4 189/1/4 191/1/4
f 192/5/4 193/5/4 194/5/4
f 194/5/4 193/5/4 195/5/4
f 196/1/4 197/1/4 198/1/4
f 198/1/4 197/1/4 199/1/4
f 200/2/4 201/2/4 202/2/4
f 202/2/4 201/2/4 203/2/4
f 203/1/4 204/1/4 207/1/4
f 204/2/4 205/2/4 208/2/4
f 207/1/4 204/1/4 208/1/4
f 208/2/4 205/2/4 209/2/4
f 206/1/4 207/1/4 210/1/4
f 210/1/4 207/1/4 211/1/4
f 212/2/4 213/2/4 216/2/4
f 216/2/4 213/2/4 217/2/4
f 214/2/4 215/2/4 220/2/4
f 220/2/4 215/2/4 221/2/4
f 217/5/4 218/5/4 222/5/4
f 218/3/4 219/3/4 223/3/4
f 222/5/4 218/5/4 223/5/4
f 223/3/4 219/3/4 224/3/4
f 223/5/4 224/5/4 225/5/4
f 225/5/4 224/5/4 226/5/4
f 227/3/4 228/3/4 229/3/4
f 229/3/4 228/3/4 230/3/4
f 231/4/4 232/4/4 233/4/4
f 233/4/4 232/4/4 234/4/4
f 235/2/4 236/2/4 237/2/4
f 237/2/4 236/2/4 238/2/4
f 237/3/4 238/3/4 239/3/4
f 239/3/4 238/3/4 240/3/4
f 241/5/4 242/5/4 243/5/4
f 243/5/4 242/5/4 244/5/4
f 248/2/5 246/2/5 245/2/5
f 249/2/5 246/2/5 248/2/5
f 250/1/5 247/1/5 246/1/5
f 250/2/5 246/2/5 249/2/5
f 251/1/5 247/1/5 250/1/5
f 252/2/5 250/2/5 249/2/5
f 253/2/5 250/2/5 252/2/5
f 256/1/5 255/1/5 254/1/5
f 257/1/5 255/1/5 256/1/5
f 262/1/5 259/1/5 258/1/5
f 263/1/5 259/1/5 262/1/5
f 264/1/5 261/1/5 260/1/5
f 265/1/5 261/1/5 264/1/5
f 266/2/5 265/2/5 264/2/5
f 267/2/5 265/2/5 266/2/5
f 272/2/5 269/2/5 268/2/5
f 274/2/5 272/2/5 271/2/5
f 275/2/5 269/2/5 272/2/5
f 275/2/5 272/2/5 274/2/5
f 276/5/5 270/5/5 269/5/5
f 276/2/5 269/2/5 275/2/5
f 277/5/5 270/5/5 276/5/5
f 278/2/5 274/2/5 273/2/5
f 279/5/5 275/5/5 274/5/5
f 279/2/5 274/2/5 278/2/5
f 280/1/5 276/1/5 275/1/5
f 280/5/5 275/5/5 279/5/5
f 281/1/5 276/1/5 280/1/5
f 282/5/5 279/5/5 278/5/5
f 283/1/5 280/1/5 279/1/5
f 283/5/5 279/5/5 282/5/5
f 284/1/5 280/1/5 283/1/5
f 290/2/5 286/2/5 285/2/5
f 291/2/5 286/2/5 290/2/5
f 292/5/5 288/5/5 287/5/5
f 293/5/5 288/5/5 292/5/5
f 294/2/5 291/2/5 290/2/5
f 294/2/5 290/2/5 289/2/5
f 295/3/5 292/3/5 291/3/5
f 295/2/5 291/2/5 294/2/5
f 296/3/5 292/3/5 295/3/5
f 297/2/5 294/2/5 289/2/5
f 298/3/5 295/3/5 294/3/5
f 298/2/5 294/2/5 297/2/5
f 299/3/5 295/3/5 298/3/5
f 302/5/5 301/5/5 300/5/5
f 303/5/5 301/5/5 302/5/5
f 304/5/5 301/5/5 303/5/5
f 308/1/5 306/1/5 305/1/5
f 309/1/5 306/1/5 308/1/5
f 311/4/5 308/4/5 307/4/5
f 312/5/5 309/5/5 308/5/5
f 312/4/5 308/4/5 311/4/5
f 313/1/5 310/1/5 309/1/5
f 313/5/5 309/5/5 312/5/5
f 314/1/5 310/1/5 313/1/5
f 315/5/5 313/5/5 312/5/5
f 315/5/5 314/5/5 313/5/5
f 316/5/5 314/5/5 315/5/5
f 317/2/6 318/2/6 321/2/6
f 321/2/6 318/2/6 322/2/6
f 319/1/6 320/1/6 323/1/6
f 323/1/6 320/1/6 324/1/6
f 322/2/6 323/2/6 325/2/6
f 325/2/6 323/2/6 326/2/6
f 327/1/6 328/1/6 331/1/6
f 331/1/6 328/1/6 332/1/6
f 329/1/6 330/1/6 333/1/6
f 333/1/6 330/1/6 334/1/6
f 335/2/6 336/2/6 339/2/6
f 338/2/6 339/2/6 341/2/6
f 339/2/6 336/2/6 342/2/6
f 341/2/6 339/2/6 342/2/6
f 336/5/6 337/5/6 343/5/6
f 342/2/6 336/2/6 343/2/6
f 343/5/6 337/5/6 344/5/6
f 340/2/6 341/2/6 345/2/6
f 341/5/6 342/5/6 346/5/6
f 345/2/6 341/2/6 346/2/6
f 342/1/6 343/1/6 347/1/6
f 346/5/6 342/5/6 347/5/6
f 347/1/6 343/1/6 348/1/6
f 345/5/6 346/5/6 349/5/6
f 346/1/6 347/1/6 350/1/6
f 349/5/6 346/5/6 350/5/6
f 350/1/6 347/1/6 351/1/6
f 350/2/6 351/2/6 352/2/6
f 352/2/6 351/2/6 353/2/6
f 354/2/6 355/2/6 357/2/6
f 357/2/6 355/2/6 358/2/6
f 358/2/6 355/2/6 359/2/6
f 356/2/6 357/2/6 360/2/6
f 357/2/6 358/2/6 360/2/6
f 358/3/6 359/3/6 361/3/6
f 360/2/6 358/2/6 361/2/6
f 361/3/6 359/3/6 362/3/6
f 356/2/6 360/2/6 363/2/6
f 360/3/6 361/3/6 364/3/6
f 363/2/6 360/2/6 364/2/6
f 364/3/6 361/3/6 365/3/6
f 366/5/6 367/5/6 368/5/6
f 368/5/6 367/5/6 369/5/6
f 369/5/6 367/5/6 370/5/6
f 368/3/6 369/3/6 371/3/6
f 369/5/6 370/5/6 372/5/6
f 371/3/6 369/3/6 372/3/6
f 372/5/6 370/5/6 373/5/6
f 374/1/6 375/1/6 377/1/6
f 377/1/6 375/1/6 378/1/6
f 376/4/6 377/4/6 380/4/6
f 377/5/6 378/5/6 381/5/6
f 380/4/6 377/4/6 381/4/6
f 378/1/6 379/1/6 382/1/6
f 381/5/6 378/5/6 382/5/6
f 382/1/6 379/1/6 383/1/6
f 381/5/6 382/5/6 384/5/6
f 382/5/6 383/5/6 384/5/6
f 384/5/6 383/5/6 385/5/6
